#N canvas 163 223 573 406 10;
#X obj 73 189 clone -x 4 basic-sample samp 0;
#N canvas 2 101 450 300 control 0;
#X msg 28 53 a \$1;
#X floatatom 28 27 5 0 0 0 - - -, f 5;
#X floatatom 78 27 5 0 0 0 - - -, f 5;
#X floatatom 126 27 5 0 0 0 - - -, f 5;
#X floatatom 176 27 5 0 0 0 - - -, f 5;
#X msg 78 53 d \$1;
#X msg 126 52 s \$1;
#X msg 176 52 r \$1;
#X floatatom 176 91 5 0 0 0 - - -, f 5;
#X floatatom 226 91 5 0 0 0 - - -, f 5;
#X floatatom 284 91 5 0 0 0 - - -, f 5;
#X msg 176 117 in \$1;
#X msg 226 117 out \$1;
#X msg 284 116 s-in \$1;
#X floatatom 354 90 5 0 0 0 - - -, f 5;
#X msg 354 115 s-out \$1;
#X obj 264 216 tgl 15 0 empty empty empty 17 7 0 10 -262144 -1 -1 0
1;
#X msg 264 236 loop \$1;
#X floatatom 302 12 5 0 0 0 - - -, f 5;
#X msg 302 31 speed \$1;
#X obj 57 218 list prepend all;
#X obj 57 240 list trim;
#X obj 57 262 outlet;
#X connect 0 0 20 0;
#X connect 1 0 0 0;
#X connect 2 0 5 0;
#X connect 3 0 6 0;
#X connect 4 0 7 0;
#X connect 5 0 20 0;
#X connect 6 0 20 0;
#X connect 7 0 20 0;
#X connect 8 0 11 0;
#X connect 9 0 12 0;
#X connect 10 0 13 0;
#X connect 11 0 20 0;
#X connect 12 0 20 0;
#X connect 13 0 20 0;
#X connect 14 0 15 0;
#X connect 15 0 20 0;
#X connect 16 0 17 0;
#X connect 17 0 20 0;
#X connect 18 0 19 0;
#X connect 19 0 20 0;
#X connect 20 0 21 0;
#X connect 21 0 22 0;
#X restore 115 153 pd control;
#X text 305 190 <--- how to make it a clone object;
#X obj 74 50 poly 4 1, f 10;
#X obj 74 72 - 1;
#X obj 74 94 pack 0 0 0;
#X msg 74 116 \$1 note \$2 \$3;
#X msg 318 31 1 100;
#X msg 351 65 1 0;
#X connect 1 0 0 0;
#X connect 3 0 4 0;
#X connect 3 1 5 1;
#X connect 3 2 5 2;
#X connect 4 0 5 0;
#X connect 5 0 6 0;
#X connect 6 0 0 0;
#X connect 7 0 3 0;
#X connect 8 0 3 0;
