#N canvas 373 347 774 389 10;
#X obj 39 16 inlet count;
#X obj 378 225 text define \$0-txt;
#X obj 39 175 text search \$0-txt;
#X obj 72 226 text get \$0-txt;
#X obj 39 196 sel -1;
#X obj 72 247 list split 0;
#X obj 106 277 outlet;
#X obj 542 91 symbol \$1;
#X obj 542 162 list prepend write;
#X obj 542 183 list trim;
#X obj 378 27 inlet textfile-read;
#X obj 378 183 list trim;
#X obj 378 162 list prepend read;
#X obj 378 122 pack s 1, f 15;
#X obj 378 101 symbol poop;
#X msg 378 143 \$1-\$2.txt;
#X obj 542 112 pack s 1, f 16;
#X msg 542 133 \$1-\$2.txt;
#X obj 378 48 t b a;
#X obj 542 50 t b a;
#X obj 542 29 inlet textfile-write;
#X text 158 49 Arg1: Path/Filename;
#X connect 0 0 2 0;
#X connect 2 0 4 0;
#X connect 3 0 5 0;
#X connect 4 1 3 0;
#X connect 5 1 6 0;
#X connect 7 0 16 0;
#X connect 8 0 9 0;
#X connect 9 0 1 0;
#X connect 10 0 18 0;
#X connect 11 0 1 0;
#X connect 12 0 11 0;
#X connect 13 0 15 0;
#X connect 14 0 13 0;
#X connect 15 0 12 0;
#X connect 16 0 17 0;
#X connect 17 0 8 0;
#X connect 18 0 14 0;
#X connect 18 1 13 1;
#X connect 19 0 7 0;
#X connect 19 1 16 1;
#X connect 20 0 19 0;
