#N canvas 98 284 774 389 10;
#X obj 39 16 inlet count;
#X obj 378 235 text define \$0-txt;
#X obj 133 317 outlet;
#X obj 542 91 symbol \$1;
#X obj 542 162 list prepend write;
#X obj 542 183 list trim;
#X obj 378 27 inlet textfile-read;
#X obj 378 193 list trim;
#X obj 378 172 list prepend read;
#X obj 378 122 pack s 1, f 15;
#X msg 378 147 \$1-\$2.txt;
#X obj 542 112 pack s 1, f 16;
#X msg 542 133 \$1-\$2.txt;
#X obj 378 48 t b a, f 9;
#X obj 542 50 t b a, f 12;
#X obj 542 29 inlet textfile-write;
#X text 428 284 Arg1: Path/Filename;
#X obj 378 101 symbol \$1;
#N canvas 108 199 637 521 read-than-wait 0;
#X obj 209 127 text get \$0-txt;
#X obj 296 151 sel 2;
#X obj 209 150 list split 1;
#X obj 318 418 list, f 16;
#X msg 318 396 1;
#X obj 318 440 route 1;
#X msg 209 55 0;
#X obj 182 312 sel 0 1, f 27;
#X obj 209 94 f, f 10;
#X obj 300 95 + 1, f 6;
#X obj 209 6 inlet start;
#X obj 24 5 inlet current count;
#X obj 182 383 s \$0-rebang;
#X obj 285 50 r \$0-rebang;
#X obj 261 337 t b b, f 10;
#X obj 318 463 outlet;
#X obj 24 28 t b a a;
#X obj 101 53 sel 0;
#X obj 209 220 t b a;
#X obj 182 254 i;
#X obj 209 29 t b b;
#X obj 182 285 ==, f 5;
#X obj 209 173 * 360;
#X obj 209 196 i;
#X connect 0 0 2 0;
#X connect 0 1 1 0;
#X connect 2 0 22 0;
#X connect 2 1 3 1;
#X connect 3 0 5 0;
#X connect 4 0 3 0;
#X connect 5 0 15 0;
#X connect 6 0 8 0;
#X connect 7 1 14 0;
#X connect 8 0 9 0;
#X connect 8 0 0 0;
#X connect 9 0 8 1;
#X connect 10 0 20 0;
#X connect 11 0 16 0;
#X connect 13 0 8 0;
#X connect 14 0 12 0;
#X connect 14 1 4 0;
#X connect 16 1 19 0;
#X connect 16 2 17 0;
#X connect 17 0 20 0;
#X connect 18 0 19 0;
#X connect 18 1 21 1;
#X connect 19 0 21 0;
#X connect 20 0 6 0;
#X connect 21 0 7 0;
#X connect 22 0 23 0;
#X connect 23 0 18 0;
#X restore 106 168 pd read-than-wait;
#X obj 205 23 inlet start;
#X obj 207 284 list, f 16;
#X obj 207 307 route 69;
#X msg 207 262 69;
#X obj 106 283 t b a;
#X text 373 304 Arg2: How many items in the list + first time argument
;
#X obj 106 210 list split \$2, f 28;
#X connect 0 0 18 0;
#X connect 3 0 11 0;
#X connect 4 0 5 0;
#X connect 5 0 1 0;
#X connect 6 0 13 0;
#X connect 7 0 1 0;
#X connect 8 0 7 0;
#X connect 9 0 10 0;
#X connect 10 0 8 0;
#X connect 11 0 12 0;
#X connect 12 0 4 0;
#X connect 13 0 17 0;
#X connect 13 1 9 1;
#X connect 14 0 3 0;
#X connect 14 1 11 1;
#X connect 15 0 14 0;
#X connect 17 0 9 0;
#X connect 18 0 25 0;
#X connect 19 0 18 1;
#X connect 20 0 21 0;
#X connect 21 0 25 0;
#X connect 22 0 20 0;
#X connect 23 0 22 0;
#X connect 23 1 2 0;
#X connect 25 0 23 0;
#X connect 25 1 20 1;
