#N canvas 419 273 450 300 10;
#X obj 86 92 metro;
#X obj 86 122 f;
#X obj 117 122 + 1;
#X obj 165 29 inlet rate;
#X text 266 127 Arg1: Resolution;
#X obj 86 173 % \$1, f 12;
#X obj 86 194 / \$1, f 15;
#X obj 86 245 outlet f(0-1);
#X obj 45 28 inlet on/off;
#X obj 165 50 max 1;
#X obj 260 54 i;
#X obj 260 33 inlet re-start(int);
#X connect 0 0 1 0;
#X connect 1 0 2 0;
#X connect 1 0 5 0;
#X connect 2 0 1 1;
#X connect 3 0 9 0;
#X connect 5 0 6 0;
#X connect 6 0 7 0;
#X connect 8 0 0 0;
#X connect 9 0 0 1;
#X connect 10 0 1 1;
#X connect 11 0 10 0;
