#N canvas 2 167 635 507 10;
#X obj 74 183 <;
#X obj 74 205 sel 1;
#X obj 42 125 t f f;
#X obj 109 238 + 1;
#X obj 42 297 +, f 5;
#X obj 74 269 * 360;
#X obj 42 390 t f f;
#X msg 224 291 0;
#X obj 74 237 f 0;
#X obj 42 19 inlet metro-360;
#X obj 42 422 outlet looped-count;
#X obj 242 19 inlet loop in beats;
#X obj 242 63 i;
#X obj 242 41 * 360;
#X text 347 211 arg1: loop time in beats;
#X obj 344 83 loadbang;
#X obj 344 105 f \$1;
#X obj 42 352 i;
#X obj 224 260 sel 1;
#X obj 224 237 >=;
#X obj 470 27 inlet restart;
#X obj 74 151 t f f b;
#X obj 141 181 spigot 0;
#X obj 141 203 t b b;
#X msg 211 189 0;
#X obj 470 49 t b;
#X msg 470 71 1;
#X connect 0 0 1 0;
#X connect 1 0 8 0;
#X connect 2 0 4 0;
#X connect 2 1 21 0;
#X connect 3 0 8 1;
#X connect 4 0 17 0;
#X connect 5 0 4 1;
#X connect 6 0 10 0;
#X connect 6 1 19 0;
#X connect 7 0 8 1;
#X connect 7 0 4 1;
#X connect 8 0 3 0;
#X connect 8 0 5 0;
#X connect 9 0 2 0;
#X connect 11 0 13 0;
#X connect 12 0 19 1;
#X connect 13 0 12 0;
#X connect 15 0 16 0;
#X connect 16 0 13 0;
#X connect 17 0 6 0;
#X connect 18 0 7 0;
#X connect 19 0 18 0;
#X connect 20 0 25 0;
#X connect 21 0 0 1;
#X connect 21 1 0 0;
#X connect 21 2 22 0;
#X connect 22 0 23 0;
#X connect 23 0 7 0;
#X connect 23 1 24 0;
#X connect 24 0 22 1;
#X connect 25 0 26 0;
#X connect 26 0 22 1;
