#N canvas 490 174 885 602 10;
#X obj 69 183 <;
#X obj 69 205 sel 1;
#X obj 104 238 + 1;
#X obj 42 327 +, f 5;
#X obj 69 269 * 360;
#X obj 42 390 t f f;
#X msg 224 302 0;
#X obj 69 237 f 0;
#X obj 42 19 inlet metro-360;
#X obj 42 422 outlet looped-count;
#X obj 245 19 inlet loop in beats;
#X obj 245 173 i;
#X obj 245 151 * 360;
#X obj 281 39 loadbang;
#X obj 42 352 i;
#X obj 224 260 sel 1;
#X obj 224 237 >=, f 4;
#X obj 429 27 inlet restart;
#X obj 245 196 - 1;
#X obj 281 81 f \$2;
#X obj 281 60 t b b, f 7;
#X obj 320 82 f \$1;
#X obj 320 103 t f f;
#X text 297 211 arg2: loop time in beats;
#X text 298 192 arg1: tick number(this matches master ticks-arg);
#X obj 276 384 outlet new measure;
#X obj 224 281 t b b;
#X obj 566 26 inlet on/off;
#X obj 42 79 spigot 1;
#X obj 566 47 s \$0-onoff;
#X obj 87 48 r \$0-onoff;
#X obj 68 151 t f f;
#X obj 429 49 route sync free;
#X obj 41 125 t f f f, f 15;
#X obj 128 155 spigot 0;
#X obj 129 176 t b b;
#X msg 191 167 0;
#X msg 429 90 1;
#X obj 429 70 t b;
#X obj 472 72 t b;
#X connect 0 0 1 0;
#X connect 1 0 7 0;
#X connect 2 0 7 1;
#X connect 3 0 14 0;
#X connect 4 0 3 1;
#X connect 5 0 9 0;
#X connect 5 1 16 0;
#X connect 6 0 7 1;
#X connect 6 0 3 1;
#X connect 7 0 2 0;
#X connect 7 0 4 0;
#X connect 8 0 28 0;
#X connect 10 0 12 0;
#X connect 11 0 18 0;
#X connect 12 0 11 0;
#X connect 13 0 20 0;
#X connect 14 0 5 0;
#X connect 15 0 26 0;
#X connect 16 0 15 0;
#X connect 17 0 32 0;
#X connect 18 0 16 1;
#X connect 19 0 12 0;
#X connect 20 0 19 0;
#X connect 20 1 21 0;
#X connect 21 0 22 0;
#X connect 22 0 12 1;
#X connect 22 1 4 1;
#X connect 26 0 6 0;
#X connect 26 1 25 0;
#X connect 27 0 29 0;
#X connect 28 0 33 0;
#X connect 30 0 28 1;
#X connect 31 0 0 1;
#X connect 31 1 0 0;
#X connect 32 0 38 0;
#X connect 32 1 39 0;
#X connect 33 0 3 0;
#X connect 33 1 31 0;
#X connect 33 2 34 0;
#X connect 34 0 35 0;
#X connect 35 0 26 0;
#X connect 35 1 36 0;
#X connect 36 0 34 1;
#X connect 37 0 34 1;
#X connect 38 0 37 0;
#X connect 39 0 6 0;
