#N canvas 535 293 450 300 12;
#X obj 18 23 inlet bang;
#X obj 167 21 inlet max;
#X obj 57 108 + 1;
#X obj 57 282 outlet;
#X obj 17 157 t f f f;
#X obj 18 108 i 1;
#X msg 80 246 1;
#X obj 258 24 inlet reset;
#X obj 258 47 t b;
#X obj 80 219 sel 1;
#X text 251 144 Arg 1 : Max Count;
#X obj 80 196 >= \$1;
#X floatatom 28 132 5 0 0 0 - - -;
#X connect 0 0 5 0;
#X connect 1 0 11 1;
#X connect 2 0 5 1;
#X connect 4 0 3 0;
#X connect 4 1 11 0;
#X connect 5 0 2 0;
#X connect 5 0 4 0;
#X connect 5 0 12 0;
#X connect 6 0 5 1;
#X connect 7 0 8 0;
#X connect 8 0 6 0;
#X connect 9 0 6 0;
#X connect 11 0 9 0;
