#N canvas 8 142 641 323 10;
#X obj 39 243 *~;
#X obj 253 260 *~;
#X obj 39 288 dac~ 1 2, f 31;
#X obj 38 44 *~ 0.9;
#X obj 37 149 hip~ 25;
#X obj 253 239 *~;
#X obj 253 160 lop~ 20000;
#X obj 38 18 inlet~ mono signal;
#X obj 271 213 r~ tweeter-vol;
#X obj 38 218 *~;
#X obj 56 195 r~ woof-vol;
#X obj 458 14 inlet control;
#N canvas 2 143 606 300 control 0;
#X obj 15 9 inlet;
#X obj 15 132 pow 2;
#X obj 15 154 lop~ 5;
#X obj 242 127 pow 2;
#X obj 242 149 lop~ 5;
#X obj 15 176 s~ master-vol;
#X obj 242 171 s~ tweeter-vol;
#X obj 135 131 pow 2;
#X obj 135 153 lop~ 5;
#X obj 135 175 s~ woof-vol;
#X obj 15 31 route master-vol woof-vol tweet-vol lo-x hi-x, f 80;
#X obj 351 211 s low-cross;
#X obj 462 211 s high-cross;
#X obj 366 79 loadbang;
#X obj 349 188 clip 25 5000;
#X obj 459 189 clip 1000 20000;
#X obj 358 133 f \$3;
#X obj 409 131 f \$4;
#X obj 126 61 clip 0 1;
#X obj 237 55 clip 0 1;
#X obj 15 53 clip 0 0.9;
#X obj 366 101 t b b b b, f 26;
#X obj 483 135 f \$1;
#X obj 534 133 f \$2;
#X connect 0 0 10 0;
#X connect 1 0 2 0;
#X connect 2 0 5 0;
#X connect 3 0 4 0;
#X connect 4 0 6 0;
#X connect 7 0 8 0;
#X connect 8 0 9 0;
#X connect 10 0 20 0;
#X connect 10 1 18 0;
#X connect 10 2 19 0;
#X connect 10 3 14 0;
#X connect 10 4 15 0;
#X connect 13 0 21 0;
#X connect 14 0 11 0;
#X connect 15 0 12 0;
#X connect 16 0 18 0;
#X connect 17 0 19 0;
#X connect 18 0 7 0;
#X connect 19 0 3 0;
#X connect 20 0 1 0;
#X connect 21 0 16 0;
#X connect 21 1 17 0;
#X connect 21 2 22 0;
#X connect 21 3 23 0;
#X connect 22 0 14 0;
#X connect 23 0 15 0;
#X restore 458 62 pd control;
#X obj 73 220 r~ master-vol;
#X obj 285 240 r~ master-vol;
#X obj 37 171 hip~ 25;
#X obj 97 51 r low-cross;
#X obj 314 73 r high-cross;
#X obj 197 17 catch~ out-woof;
#X obj 313 17 catch~ out-tweet;
#X text 188 36 go direct to the speaker \, but still protected by cross
over;
#X obj 37 81 lop~;
#X obj 254 83 hip~;
#X obj 37 103 lop~;
#X obj 254 108 hip~;
#X obj 313 95 clip 1300 20000;
#X obj 88 92 clip 29 4000;
#X obj 253 182 lop~ 20000;
#X connect 0 0 2 0;
#X connect 1 0 2 1;
#X connect 3 0 21 0;
#X connect 3 0 22 0;
#X connect 4 0 15 0;
#X connect 5 0 1 0;
#X connect 6 0 27 0;
#X connect 7 0 3 0;
#X connect 8 0 5 1;
#X connect 9 0 0 0;
#X connect 10 0 9 1;
#X connect 11 0 12 0;
#X connect 13 0 0 1;
#X connect 14 0 1 1;
#X connect 15 0 9 0;
#X connect 16 0 26 0;
#X connect 17 0 25 0;
#X connect 18 0 21 0;
#X connect 19 0 22 0;
#X connect 21 0 23 0;
#X connect 22 0 24 0;
#X connect 23 0 4 0;
#X connect 24 0 6 0;
#X connect 25 0 22 1;
#X connect 25 0 24 1;
#X connect 26 0 21 1;
#X connect 26 0 23 1;
#X connect 27 0 5 0;
