#N canvas 0 23 811 629 10;
#N canvas 4 163 641 620 kick 0;
#X obj 148 3 inlet;
#X obj 143 350 outlet~;
#X obj 161 221 vline~;
#X obj 143 284 *~, f 9;
#X obj 161 243 pow~ 2;
#X obj 237 95 vline~;
#X obj 59 215 +~;
#X obj 59 237 osc~;
#X obj 143 306 *~ 0.4;
#X obj 335 142 noise~;
#X obj 280 322 *~;
#X obj 242 238 vline~;
#X obj 335 164 *~ 0.75;
#X obj 59 161 sig~ 55;
#X floatatom 64 111 5 0 0 0 - - -;
#X obj 143 328 hip~ 1;
#X obj 414 190 *~ 12000;
#X obj 415 212 +~ 2000;
#X obj 242 260 pow~ 4;
#X obj 389 275 vcf~ 4, f 8;
#X obj 336 246 vcf~ 2, f 8;
#X obj 237 117 pow~ 4;
#X obj 129 161 *~ 1000;
#X obj 148 24 / 127;
#X obj 148 45 sqrt;
#X msg 238 71 \$1 1 \, 0 43 1;
#X msg 160 189 \$1 18 \, 0 2000 18;
#X msg 244 215 \$1 1 \, 0 60 1;
#X obj 148 85 t f f f;
#X connect 0 0 23 0;
#X connect 2 0 4 0;
#X connect 3 0 8 0;
#X connect 4 0 3 1;
#X connect 5 0 21 0;
#X connect 6 0 7 0;
#X connect 7 0 3 0;
#X connect 8 0 15 0;
#X connect 9 0 12 0;
#X connect 10 0 3 0;
#X connect 11 0 18 0;
#X connect 12 0 20 0;
#X connect 13 0 6 0;
#X connect 14 0 13 0;
#X connect 15 0 1 0;
#X connect 16 0 17 0;
#X connect 17 0 19 1;
#X connect 17 0 20 1;
#X connect 18 0 10 1;
#X connect 18 0 16 0;
#X connect 19 0 10 0;
#X connect 20 1 19 0;
#X connect 21 0 22 0;
#X connect 22 0 6 1;
#X connect 23 0 24 0;
#X connect 24 0 28 0;
#X connect 25 0 5 0;
#X connect 26 0 2 0;
#X connect 27 0 11 0;
#X connect 28 0 26 0;
#X connect 28 1 25 0;
#X connect 28 2 27 0;
#X restore 94 117 pd kick;
#N canvas 2 113 641 634 tom 0;
#X obj 148 3 inlet;
#X obj 143 405 outlet~;
#X obj 161 272 vline~;
#X obj 143 335 *~, f 9;
#X obj 161 294 pow~ 2;
#X obj 237 146 vline~;
#X obj 59 266 +~;
#X obj 237 168 pow~ 2;
#X obj 59 288 osc~;
#X obj 142 358 *~ 0.4;
#X obj 335 193 noise~;
#X obj 362 265 +~ 2000;
#X obj 381 337 *~;
#X obj 242 289 vline~;
#X obj 242 311 pow~ 2;
#X obj 362 243 *~ 16000;
#X obj 335 215 *~ 0.75;
#X obj 335 296 vcf~ 6, f 8;
#X obj 129 212 *~ 200;
#X obj 142 380 hip~ 1;
#X floatatom 78 185 5 0 0 0 - - -;
#X obj 148 136 t f f f;
#X msg 237 121 \$1 5 \, 0 10 5;
#X msg 160 240 \$1 10 \, 0 300 10;
#X msg 244 266 \$1 8 \, 0 30 8;
#X obj 148 24 / 127;
#X obj 148 45 sqrt;
#X obj 60 212 sig~ 200;
#X connect 0 0 25 0;
#X connect 2 0 4 0;
#X connect 3 0 9 0;
#X connect 4 0 3 1;
#X connect 5 0 7 0;
#X connect 6 0 8 0;
#X connect 7 0 15 0;
#X connect 7 0 18 0;
#X connect 8 0 3 0;
#X connect 9 0 19 0;
#X connect 10 0 16 0;
#X connect 11 0 17 1;
#X connect 12 0 3 0;
#X connect 13 0 14 0;
#X connect 14 0 12 1;
#X connect 15 0 11 0;
#X connect 16 0 17 0;
#X connect 17 1 12 0;
#X connect 18 0 6 1;
#X connect 19 0 1 0;
#X connect 20 0 27 0;
#X connect 21 0 23 0;
#X connect 21 1 22 0;
#X connect 21 2 24 0;
#X connect 22 0 5 0;
#X connect 23 0 2 0;
#X connect 24 0 13 0;
#X connect 25 0 26 0;
#X connect 26 0 21 0;
#X connect 27 0 6 0;
#X restore 152 118 pd tom;
#X obj 94 29 inlet trigger (int);
#N canvas 626 149 641 634 hi-hat 0;
#X obj 148 3 inlet;
#X obj 122 496 outlet~;
#X obj 122 426 *~, f 9;
#X obj 169 199 vline~;
#X obj 88 199 noise~;
#X obj 88 221 *~ 0.75;
#X obj 148 24 / 127;
#X obj 240 236 vline~;
#X obj 169 221 pow~ 8;
#X obj 229 85 sqrt;
#X obj 143 111 pow 0.125;
#X obj 121 471 hip~ 5;
#X msg 169 174 1 1 \, 0.25 10 1 \, 0 300 11;
#X obj 240 258 pow~ 2;
#X obj 110 249 *~ 1000;
#X obj 88 323 vcf~ 4, f 14;
#X obj 88 302 vcf~ 4, f 8;
#X obj 123 448 *~ 1.2;
#X obj 240 156 pack 0 0;
#X obj 148 46 t f f f f, f 25;
#X msg 242 211 \$1 14 \, 0.5 40 14 \, 0 \$2 54;
#X obj 229 106 * 0.5;
#X obj 229 127 + 0.5;
#X obj 287 102 * 400;
#X obj 110 271 +~ 5000;
#X connect 0 0 6 0;
#X connect 2 0 17 0;
#X connect 3 0 8 0;
#X connect 4 0 5 0;
#X connect 5 0 16 0;
#X connect 6 0 19 0;
#X connect 7 0 13 0;
#X connect 8 0 14 0;
#X connect 9 0 21 0;
#X connect 10 0 12 0;
#X connect 11 0 1 0;
#X connect 12 0 3 0;
#X connect 13 0 2 1;
#X connect 14 0 24 0;
#X connect 15 0 2 0;
#X connect 16 0 15 0;
#X connect 17 0 11 0;
#X connect 18 0 20 0;
#X connect 19 1 10 0;
#X connect 19 2 9 0;
#X connect 19 3 23 0;
#X connect 20 0 7 0;
#X connect 21 0 22 0;
#X connect 22 0 18 0;
#X connect 23 0 18 1;
#X connect 24 0 15 1;
#X connect 24 0 16 1;
#X restore 310 133 pd hi-hat;
#X obj 94 75 route 1 2 3, f 28;
#X obj 145 347 outlet~;
#X obj 94 168 throw~ \$0-bus;
#X obj 152 140 throw~ \$0-bus;
#X obj 309 153 throw~ \$0-bus;
#X obj 145 326 catch~ \$0-bus;
#X connect 0 0 6 0;
#X connect 1 0 7 0;
#X connect 2 0 4 0;
#X connect 3 0 8 0;
#X connect 4 0 0 0;
#X connect 4 1 1 0;
#X connect 4 2 3 0;
#X connect 9 0 5 0;
