#N canvas 373 210 944 629 10;
#N canvas 4 163 641 620 kick 0;
#X obj 148 3 inlet;
#X obj 143 500 outlet~;
#X obj 161 221 vline~;
#X obj 143 434 *~, f 9;
#X obj 161 243 pow~ 2;
#X obj 237 95 vline~;
#X obj 59 215 +~;
#X obj 59 237 osc~;
#X obj 335 142 noise~;
#X obj 280 322 *~;
#X obj 242 238 vline~;
#X obj 335 164 *~ 0.75;
#X obj 59 161 sig~ 55;
#X floatatom 64 111 5 0 0 0 - - -;
#X obj 414 190 *~ 12000;
#X obj 415 212 +~ 2000;
#X obj 242 260 pow~ 4;
#X obj 148 44 / 127;
#X obj 148 65 sqrt;
#X obj 148 85 t f f f;
#X obj 143 478 hip~ 4;
#X obj 148 24 t a b, f 40;
#X obj 509 325 switch~;
#X msg 488 266 1;
#X msg 552 179 stop;
#X obj 501 154 t b b b b;
#X msg 535 237 0;
#X obj 535 216 del 1020;
#X obj 129 161 *~ 2000;
#X obj 237 117 pow~ 3;
#X msg 160 189 \$1 18 \, 0 500 18;
#X msg 238 71 \$1 1 \, 0 23 1;
#X obj 336 246 vcf~ 5, f 8;
#X obj 381 275 vcf~ 6, f 8;
#X obj 143 456 *~ 0.6;
#X msg 244 215 \$1 1 \, 0 23 1;
#X connect 0 0 21 0;
#X connect 2 0 4 0;
#X connect 3 0 34 0;
#X connect 4 0 3 1;
#X connect 5 0 29 0;
#X connect 6 0 7 0;
#X connect 7 0 3 0;
#X connect 8 0 11 0;
#X connect 9 0 3 0;
#X connect 10 0 16 0;
#X connect 11 0 32 0;
#X connect 12 0 6 0;
#X connect 13 0 12 0;
#X connect 14 0 15 0;
#X connect 15 0 32 1;
#X connect 15 0 33 1;
#X connect 16 0 9 1;
#X connect 16 0 14 0;
#X connect 17 0 18 0;
#X connect 18 0 19 0;
#X connect 19 0 30 0;
#X connect 19 1 31 0;
#X connect 19 2 35 0;
#X connect 20 0 1 0;
#X connect 21 0 17 0;
#X connect 21 1 25 0;
#X connect 23 0 22 0;
#X connect 24 0 27 0;
#X connect 25 1 23 0;
#X connect 25 2 27 0;
#X connect 25 3 24 0;
#X connect 26 0 22 0;
#X connect 27 0 26 0;
#X connect 28 0 6 1;
#X connect 29 0 28 0;
#X connect 30 0 2 0;
#X connect 31 0 5 0;
#X connect 32 1 33 0;
#X connect 33 0 9 0;
#X connect 34 0 20 0;
#X connect 35 0 10 0;
#X restore 94 117 pd kick;
#N canvas 219 181 641 634 tom 0;
#X obj 148 3 inlet;
#X obj 143 405 outlet~;
#X obj 161 272 vline~;
#X obj 143 335 *~, f 9;
#X obj 161 294 pow~ 2;
#X obj 237 146 vline~;
#X obj 59 266 +~;
#X obj 237 168 pow~ 2;
#X obj 59 288 osc~;
#X obj 142 358 *~ 0.4;
#X obj 335 193 noise~;
#X obj 362 265 +~ 2000;
#X obj 381 337 *~;
#X obj 242 289 vline~;
#X obj 242 311 pow~ 2;
#X obj 362 243 *~ 16000;
#X obj 335 215 *~ 0.75;
#X obj 335 296 vcf~ 6, f 8;
#X obj 129 212 *~ 200;
#X obj 142 380 hip~ 1;
#X floatatom 78 185 5 0 0 0 - - -;
#X obj 148 136 t f f f;
#X msg 237 121 \$1 5 \, 0 10 5;
#X msg 160 240 \$1 10 \, 0 300 10;
#X msg 244 266 \$1 8 \, 0 30 8;
#X obj 148 64 / 127;
#X obj 148 85 sqrt;
#X obj 60 212 sig~ 200;
#X obj 158 34 t a b, f 40;
#X obj 519 335 switch~;
#X msg 498 276 1;
#X msg 562 189 stop;
#X obj 511 164 t b b b b;
#X msg 545 247 0;
#X obj 545 226 del 500;
#X connect 0 0 28 0;
#X connect 2 0 4 0;
#X connect 3 0 9 0;
#X connect 4 0 3 1;
#X connect 5 0 7 0;
#X connect 6 0 8 0;
#X connect 7 0 15 0;
#X connect 7 0 18 0;
#X connect 8 0 3 0;
#X connect 9 0 19 0;
#X connect 10 0 16 0;
#X connect 11 0 17 1;
#X connect 12 0 3 0;
#X connect 13 0 14 0;
#X connect 14 0 12 1;
#X connect 15 0 11 0;
#X connect 16 0 17 0;
#X connect 17 1 12 0;
#X connect 18 0 6 1;
#X connect 19 0 1 0;
#X connect 20 0 27 0;
#X connect 21 0 23 0;
#X connect 21 1 22 0;
#X connect 21 2 24 0;
#X connect 22 0 5 0;
#X connect 23 0 2 0;
#X connect 24 0 13 0;
#X connect 25 0 26 0;
#X connect 26 0 21 0;
#X connect 27 0 6 0;
#X connect 28 0 25 0;
#X connect 28 1 32 0;
#X connect 30 0 29 0;
#X connect 31 0 34 0;
#X connect 32 1 30 0;
#X connect 32 2 34 0;
#X connect 32 3 31 0;
#X connect 33 0 29 0;
#X connect 34 0 33 0;
#X restore 152 118 pd tom;
#X obj 94 29 inlet trigger (int);
#N canvas 626 149 641 634 hi-hat 0;
#X obj 148 3 inlet;
#X obj 122 556 outlet~;
#X obj 122 486 *~, f 9;
#X obj 166 258 vline~;
#X obj 87 214 noise~;
#X obj 88 281 *~ 0.75;
#X obj 148 84 / 127;
#X obj 240 296 vline~;
#X obj 169 281 pow~ 8;
#X obj 229 145 sqrt;
#X obj 143 171 pow 0.125;
#X obj 121 531 hip~ 5;
#X obj 110 309 *~ 1000;
#X obj 88 362 vcf~ 4, f 8;
#X obj 123 508 *~ 1.2;
#X obj 240 216 pack 0 0;
#X obj 148 106 t f f f f, f 25;
#X obj 229 166 * 0.5;
#X obj 229 187 + 0.5;
#X obj 87 256 hip~ 300;
#X obj 176 314 pow~ 2;
#X obj 111 331 +~ 12000;
#X obj 170 360 +~ 6000;
#X obj 169 338 *~ 12000;
#X msg 171 234 1 1 \, 0 10 1 \, 0 200 11;
#X obj 240 318 pow~ 4;
#X obj 287 162 * 400;
#X obj 7 313 osc~ 890;
#X obj 25 347 osc~ 1600;
#X obj 25 368 *~ 0.02;
#X obj 22 402 *~ 0.03;
#X obj 58 445 *~ 0.76;
#X obj 111 422 vcf~ 2.4, f 14;
#X obj 87 236 lop~ 18000;
#X obj 158 34 t a b, f 40;
#X obj 519 335 switch~;
#X msg 498 276 1;
#X msg 562 189 stop;
#X obj 511 164 t b b b b;
#X msg 545 247 0;
#X obj 545 226 del 210;
#X msg 244 271 \$1 5 \, 0.35 40 5 \, 0 \$2 45;
#X connect 0 0 34 0;
#X connect 2 0 14 0;
#X connect 3 0 8 0;
#X connect 3 0 20 0;
#X connect 4 0 33 0;
#X connect 5 0 13 0;
#X connect 6 0 16 0;
#X connect 7 0 25 0;
#X connect 8 0 12 0;
#X connect 9 0 17 0;
#X connect 10 0 24 0;
#X connect 11 0 1 0;
#X connect 12 0 21 0;
#X connect 13 0 32 0;
#X connect 14 0 11 0;
#X connect 15 0 41 0;
#X connect 16 1 10 0;
#X connect 16 2 9 0;
#X connect 16 3 26 0;
#X connect 17 0 18 0;
#X connect 18 0 15 0;
#X connect 19 0 5 0;
#X connect 20 0 23 0;
#X connect 21 0 32 1;
#X connect 22 0 13 1;
#X connect 23 0 22 0;
#X connect 24 0 3 0;
#X connect 25 0 2 1;
#X connect 26 0 15 1;
#X connect 27 0 30 0;
#X connect 28 0 29 0;
#X connect 29 0 31 0;
#X connect 30 0 31 0;
#X connect 31 0 2 0;
#X connect 32 0 2 0;
#X connect 33 0 19 0;
#X connect 34 0 6 0;
#X connect 34 1 38 0;
#X connect 36 0 35 0;
#X connect 37 0 40 0;
#X connect 38 1 36 0;
#X connect 38 2 40 0;
#X connect 38 3 37 0;
#X connect 39 0 35 0;
#X connect 40 0 39 0;
#X connect 41 0 7 0;
#X restore 240 126 pd hi-hat;
#X obj 57 570 outlet~;
#X obj 94 168 throw~ \$0-bus;
#X obj 152 140 throw~ \$0-bus;
#X obj 239 146 throw~ \$0-bus;
#X obj 57 549 catch~ \$0-bus;
#N canvas 538 202 639 537 soft-hat 0;
#X obj 148 5 inlet;
#X obj 145 503 outlet~;
#X obj 145 433 *~, f 9;
#X obj 66 215 noise~;
#X obj 148 74 / 127;
#X obj 240 286 vline~;
#X obj 229 135 sqrt;
#X obj 145 478 hip~ 5;
#X obj 240 206 pack 0 0;
#X obj 148 96 t f f f f, f 25;
#X obj 229 156 * 0.5;
#X obj 229 177 + 0.5;
#X obj 240 308 pow~ 4;
#X obj 66 256 hip~ 2000;
#X obj 66 284 hip~ 2000;
#X obj 66 340 *~ 0.5;
#X obj 287 152 * 100;
#X msg 240 261 \$1 30 \, 0.75 200 30 \, 0 \$2 300;
#X obj 146 220 + 1000;
#X obj 146 199 * 8000;
#X obj 66 309 hip~ 2000, f 13;
#X obj 145 455 *~ 1.9;
#X obj 148 34 t a b, f 40;
#X obj 519 335 switch~;
#X msg 498 276 1;
#X msg 562 189 stop;
#X obj 511 164 t b b b b;
#X msg 545 247 0;
#X obj 545 226 del 550;
#X connect 0 0 22 0;
#X connect 2 0 21 0;
#X connect 3 0 13 0;
#X connect 4 0 9 0;
#X connect 5 0 12 0;
#X connect 6 0 10 0;
#X connect 7 0 1 0;
#X connect 8 0 17 0;
#X connect 9 1 19 0;
#X connect 9 2 6 0;
#X connect 9 3 16 0;
#X connect 10 0 11 0;
#X connect 11 0 8 0;
#X connect 12 0 2 1;
#X connect 13 0 14 0;
#X connect 14 0 20 0;
#X connect 15 0 2 0;
#X connect 16 0 8 1;
#X connect 17 0 5 0;
#X connect 18 0 13 1;
#X connect 18 0 14 1;
#X connect 18 0 20 1;
#X connect 19 0 18 0;
#X connect 20 0 15 0;
#X connect 21 0 7 0;
#X connect 22 0 4 0;
#X connect 22 1 26 0;
#X connect 24 0 23 0;
#X connect 25 0 28 0;
#X connect 26 1 24 0;
#X connect 26 2 28 0;
#X connect 26 3 25 0;
#X connect 27 0 23 0;
#X connect 28 0 27 0;
#X restore 324 185 pd soft-hat;
#X obj 324 206 throw~ \$0-bus;
#X obj 400 121 throw~ \$0-bus;
#N canvas 4 163 641 620 low-kick 0;
#X obj 148 3 inlet;
#X obj 143 425 outlet~;
#X obj 161 296 vline~;
#X obj 143 359 *~, f 9;
#X obj 161 318 pow~ 2;
#X obj 237 170 vline~;
#X obj 59 290 +~;
#X obj 59 312 osc~;
#X obj 143 381 *~ 0.4;
#X obj 335 217 noise~;
#X obj 280 397 *~;
#X obj 242 313 vline~;
#X obj 335 239 *~ 0.75;
#X obj 143 403 hip~ 1;
#X obj 414 265 *~ 12000;
#X obj 415 287 +~ 2000;
#X obj 242 335 pow~ 4;
#X obj 389 350 vcf~ 4, f 8;
#X obj 336 321 vcf~ 2, f 8;
#X obj 237 192 pow~ 4;
#X obj 129 236 *~ 1000;
#X obj 148 99 / 127;
#X obj 148 120 sqrt;
#X msg 238 146 \$1 1 \, 0 43 1;
#X msg 244 290 \$1 1 \, 0 60 1;
#X obj 148 160 t f f f;
#X msg 160 264 \$1 18 \, 0 1000 18;
#X obj 59 236 sig~ 45;
#X obj 148 34 t a b, f 40;
#X obj 519 335 switch~;
#X msg 498 276 1;
#X msg 562 189 stop;
#X obj 511 164 t b b b b;
#X msg 545 247 0;
#X obj 545 226 del 1020;
#X connect 0 0 28 0;
#X connect 2 0 4 0;
#X connect 3 0 8 0;
#X connect 4 0 3 1;
#X connect 5 0 19 0;
#X connect 6 0 7 0;
#X connect 7 0 3 0;
#X connect 8 0 13 0;
#X connect 9 0 12 0;
#X connect 10 0 3 0;
#X connect 11 0 16 0;
#X connect 12 0 18 0;
#X connect 13 0 1 0;
#X connect 14 0 15 0;
#X connect 15 0 17 1;
#X connect 15 0 18 1;
#X connect 16 0 10 1;
#X connect 16 0 14 0;
#X connect 17 0 10 0;
#X connect 18 1 17 0;
#X connect 19 0 20 0;
#X connect 20 0 6 1;
#X connect 21 0 22 0;
#X connect 22 0 25 0;
#X connect 23 0 5 0;
#X connect 24 0 11 0;
#X connect 25 0 26 0;
#X connect 25 1 23 0;
#X connect 25 2 24 0;
#X connect 26 0 2 0;
#X connect 27 0 6 0;
#X connect 28 0 21 0;
#X connect 28 1 32 0;
#X connect 30 0 29 0;
#X connect 31 0 34 0;
#X connect 32 1 30 0;
#X connect 32 2 34 0;
#X connect 32 3 31 0;
#X connect 33 0 29 0;
#X connect 34 0 33 0;
#X restore 400 100 pd low-kick;
#X obj 546 204 throw~ \$0-bus;
#N canvas 4 163 641 620 kick-vel-pitch 0;
#X obj 148 13 inlet;
#X obj 143 434 outlet~;
#X obj 161 305 vline~;
#X obj 143 368 *~, f 9;
#X obj 161 327 pow~ 2;
#X obj 237 179 vline~;
#X obj 59 299 +~;
#X obj 59 321 osc~;
#X obj 143 390 *~ 0.4;
#X obj 335 226 noise~;
#X obj 280 406 *~;
#X obj 242 322 vline~;
#X obj 335 248 *~ 0.75;
#X obj 59 245 sig~ 55;
#X obj 143 412 hip~ 1;
#X obj 414 274 *~ 12000;
#X obj 415 296 +~ 2000;
#X obj 242 344 pow~ 4;
#X obj 389 359 vcf~ 4, f 8;
#X obj 336 330 vcf~ 2, f 8;
#X obj 237 201 pow~ 4;
#X obj 129 245 *~ 1000;
#X obj 148 108 / 127;
#X obj 175 149 sqrt;
#X msg 238 155 \$1 1 \, 0 43 1;
#X msg 244 299 \$1 1 \, 0 60 1;
#X msg 160 273 \$1 18 \, 0 1000 18;
#X obj 47 154 * 100;
#X msg 100 107 1 \$1;
#X obj 100 128 -;
#X obj 47 175 + 45;
#X msg 146 148 0.9;
#X obj 148 129 t b f;
#X obj 148 169 t f f f;
#X obj 148 34 t a b, f 40;
#X obj 519 335 switch~;
#X msg 498 276 1;
#X msg 562 189 stop;
#X obj 511 164 t b b b b;
#X msg 545 247 0;
#X obj 545 226 del 1020;
#X connect 0 0 34 0;
#X connect 2 0 4 0;
#X connect 3 0 8 0;
#X connect 4 0 3 1;
#X connect 5 0 20 0;
#X connect 6 0 7 0;
#X connect 7 0 3 0;
#X connect 8 0 14 0;
#X connect 9 0 12 0;
#X connect 10 0 3 0;
#X connect 11 0 17 0;
#X connect 12 0 19 0;
#X connect 13 0 6 0;
#X connect 14 0 1 0;
#X connect 15 0 16 0;
#X connect 16 0 18 1;
#X connect 16 0 19 1;
#X connect 17 0 10 1;
#X connect 17 0 15 0;
#X connect 18 0 10 0;
#X connect 19 1 18 0;
#X connect 20 0 21 0;
#X connect 21 0 6 1;
#X connect 22 0 32 0;
#X connect 23 0 28 0;
#X connect 24 0 5 0;
#X connect 25 0 11 0;
#X connect 26 0 2 0;
#X connect 27 0 30 0;
#X connect 28 0 29 0;
#X connect 29 0 27 0;
#X connect 30 0 13 0;
#X connect 31 0 33 0;
#X connect 32 0 31 0;
#X connect 32 1 23 0;
#X connect 33 0 26 0;
#X connect 33 1 24 0;
#X connect 33 2 25 0;
#X connect 34 0 22 0;
#X connect 34 1 38 0;
#X connect 36 0 35 0;
#X connect 37 0 40 0;
#X connect 38 1 36 0;
#X connect 38 2 40 0;
#X connect 38 3 37 0;
#X connect 39 0 35 0;
#X connect 40 0 39 0;
#X restore 546 153 pd kick-vel-pitch;
#N canvas 449 220 972 611 clap! 0;
#X obj 148 13 inlet;
#X obj 280 454 outlet~;
#X obj 335 281 noise~;
#X obj 280 406 *~;
#X obj 148 108 / 127;
#X obj 148 34 t a b, f 40;
#X obj 549 335 switch~;
#X msg 528 276 1;
#X msg 562 189 stop;
#X obj 511 164 t b b b b;
#X msg 545 247 0;
#X obj 280 428 hip~ 5;
#X obj 545 226 del 600;
#X obj 113 205 vline~;
#X obj 414 296 +~ 2000;
#X obj 113 226 pow~ 6;
#X obj 148 150 t b f;
#X obj 262 236 * 16000;
#X obj 336 330 vcf~ 4, f 8;
#X obj 414 274 *~ 10000;
#X msg 113 184 1 8 \, 0 10 8 \, 0.9 8 18 \, 0 10 26 \, 0.8 8 36 \,
0 10 44 \, 0.75 8 54 \, 0 200 62, f 72;
#X obj 336 359 vcf~ 6, f 8;
#X obj 335 303 *~ 0.75;
#X obj 250 352 *~ 0.7;
#X connect 0 0 5 0;
#X connect 2 0 22 0;
#X connect 3 0 11 0;
#X connect 4 0 16 0;
#X connect 5 0 4 0;
#X connect 5 1 9 0;
#X connect 7 0 6 0;
#X connect 8 0 12 0;
#X connect 9 1 7 0;
#X connect 9 2 12 0;
#X connect 9 3 8 0;
#X connect 10 0 6 0;
#X connect 11 0 1 0;
#X connect 12 0 10 0;
#X connect 13 0 15 0;
#X connect 14 0 18 1;
#X connect 14 0 21 1;
#X connect 15 0 23 0;
#X connect 16 0 20 0;
#X connect 16 1 17 0;
#X connect 17 0 14 1;
#X connect 18 0 21 0;
#X connect 19 0 14 0;
#X connect 20 0 13 0;
#X connect 21 0 3 0;
#X connect 22 0 18 0;
#X connect 23 0 3 1;
#X connect 23 0 19 0;
#X restore 577 107 pd clap!;
#X obj 577 128 throw~ \$0-bus;
#N canvas 0 23 934 783 ride 0;
#X obj 148 13 inlet;
#X obj 238 610 outlet~;
#X obj 335 281 noise~;
#X obj 148 108 / 127;
#X obj 148 34 t a b, f 40;
#X obj 549 335 switch~;
#X msg 528 276 1;
#X msg 562 189 stop;
#X obj 511 164 t b b b b;
#X msg 545 247 0;
#X obj 211 522 hip~ 5;
#X obj 113 205 vline~;
#X obj 414 296 +~ 2000;
#X obj 335 303 *~ 0.45;
#X obj 250 352 *~ 1;
#X obj 454 229 * 16000;
#X obj 414 274 *~ 10000;
#X obj 419 456 vline~;
#X obj 404 509 *~;
#X obj 504 456 vline~;
#X obj 489 499 *~;
#X obj 404 530 *~ 0.8;
#X obj 489 520 *~ 0.4;
#X obj 336 380 *~ 0.7;
#X obj 580 502 vline~;
#X obj 565 555 *~;
#X obj 565 454 osc~ 960;
#X obj 651 550 vline~;
#X obj 636 613 *~;
#X obj 148 150 t f f f f f f;
#X obj 250 396 *~;
#X obj 236 432 +~;
#X obj 419 477 pow~ 2;
#X obj 504 477 pow~ 2;
#X obj 580 523 pow~ 2;
#X obj 651 571 pow~ 2;
#X obj 113 226 pow~ 3;
#X obj 545 226 del 2200;
#X msg 414 381 \$1 8 \, 0.3 100 8 \, 0 4000 108;
#X msg 505 430 \$1 15 \, 0.3 100 15 \, 0 1200 115;
#X msg 581 476 \$1 15 \, 0.3 100 15 \, 0 600 115;
#X msg 652 524 \$1 5 \, 0.3 90 5 \, 0 300 95;
#X msg 113 184 \$1 8 \, 0.3 100 8 \, 0 1800 108;
#X obj 489 408 osc~ 485;
#X obj 565 576 *~ 0.12;
#X obj 336 359 vcf~ 6, f 8;
#X obj 336 330 vcf~ 8, f 8;
#X msg 326 114 100;
#X obj 404 408 osc~ 120;
#X obj 636 502 osc~ 1920;
#X obj 636 634 *~ 0.01;
#X connect 0 0 4 0;
#X connect 2 0 13 0;
#X connect 3 0 29 0;
#X connect 4 0 3 0;
#X connect 4 1 8 0;
#X connect 6 0 5 0;
#X connect 7 0 37 0;
#X connect 8 1 6 0;
#X connect 8 2 37 0;
#X connect 8 3 7 0;
#X connect 9 0 5 0;
#X connect 10 0 1 0;
#X connect 11 0 36 0;
#X connect 12 0 45 1;
#X connect 12 0 46 1;
#X connect 13 0 46 0;
#X connect 14 0 16 0;
#X connect 14 0 30 0;
#X connect 15 0 12 1;
#X connect 16 0 12 0;
#X connect 17 0 32 0;
#X connect 18 0 21 0;
#X connect 19 0 33 0;
#X connect 20 0 22 0;
#X connect 21 0 31 0;
#X connect 22 0 31 0;
#X connect 23 0 30 1;
#X connect 24 0 34 0;
#X connect 25 0 44 0;
#X connect 26 0 25 0;
#X connect 27 0 35 0;
#X connect 28 0 50 0;
#X connect 29 0 42 0;
#X connect 29 1 39 0;
#X connect 29 2 40 0;
#X connect 29 3 41 0;
#X connect 29 4 38 0;
#X connect 29 5 15 0;
#X connect 30 0 31 1;
#X connect 31 0 10 0;
#X connect 32 0 18 1;
#X connect 33 0 20 1;
#X connect 34 0 25 1;
#X connect 35 0 28 1;
#X connect 36 0 14 0;
#X connect 37 0 9 0;
#X connect 38 0 17 0;
#X connect 39 0 19 0;
#X connect 40 0 24 0;
#X connect 41 0 27 0;
#X connect 42 0 11 0;
#X connect 43 0 20 0;
#X connect 44 0 31 0;
#X connect 45 0 23 0;
#X connect 46 0 45 0;
#X connect 47 0 4 0;
#X connect 48 0 18 0;
#X connect 49 0 28 0;
#X connect 50 0 31 0;
#X restore 672 110 pd ride;
#X obj 676 135 throw~ \$0-bus;
#X obj 702 221 throw~ \$0-bus;
#N canvas 635 310 641 634 pitch-tom 0;
#X obj 148 3 inlet;
#X obj 144 531 outlet~;
#X obj 194 259 vline~;
#X obj 144 461 *~, f 9;
#X obj 237 146 vline~;
#X obj 59 266 +~;
#X obj 59 314 osc~;
#X obj 143 484 *~ 0.4;
#X obj 148 64 / 127;
#X obj 148 85 sqrt;
#X obj 60 212 sig~ 200;
#X obj 158 34 t a b, f 40;
#X obj 519 335 switch~;
#X msg 498 276 1;
#X msg 562 189 stop;
#X obj 511 164 t b b b b;
#X msg 545 247 0;
#X obj 545 226 del 500;
#X obj 147 112 / 2;
#X obj 71 123 + 75;
#X obj 237 168 pow~ 4;
#X obj 71 91 * 450;
#X obj 148 136 t b f f;
#X msg 194 227 0.8 8 \, 0 300 8;
#X obj 88 54 pow 2;
#X obj 143 506 hip~ 4;
#X obj 128 313 osc~;
#X obj 240 309 vline~;
#X obj 240 331 pow~ 6;
#X obj 128 364 *~;
#X obj 194 281 pow~ 2;
#X msg 237 121 \$1 1 \, 0 18 1;
#X obj 300 412 osc~;
#X obj 340 402 vline~;
#X obj 340 424 pow~ 6;
#X obj 300 463 *~;
#X obj 128 288 *~ 3;
#X obj 300 387 *~ 5;
#X obj 129 212 *~ 290;
#X msg 240 277 0.67 10 \, 0 45 10 \, 0.27 10 55;
#X msg 340 370 0.37 5 \, 0 24 5 \, 0.17 30 29;
#X connect 0 0 11 0;
#X connect 2 0 30 0;
#X connect 3 0 7 0;
#X connect 4 0 20 0;
#X connect 5 0 6 0;
#X connect 5 0 36 0;
#X connect 5 0 37 0;
#X connect 6 0 3 0;
#X connect 7 0 25 0;
#X connect 8 0 9 0;
#X connect 8 0 24 0;
#X connect 9 0 18 0;
#X connect 10 0 5 0;
#X connect 11 0 8 0;
#X connect 11 1 15 0;
#X connect 13 0 12 0;
#X connect 14 0 17 0;
#X connect 15 1 13 0;
#X connect 15 2 17 0;
#X connect 15 3 14 0;
#X connect 16 0 12 0;
#X connect 17 0 16 0;
#X connect 18 0 22 0;
#X connect 19 0 10 0;
#X connect 20 0 38 0;
#X connect 21 0 19 0;
#X connect 22 0 23 0;
#X connect 22 0 39 0;
#X connect 22 0 40 0;
#X connect 22 1 31 0;
#X connect 23 0 2 0;
#X connect 24 0 21 0;
#X connect 25 0 1 0;
#X connect 26 0 29 0;
#X connect 27 0 28 0;
#X connect 28 0 29 1;
#X connect 29 0 3 0;
#X connect 30 0 3 1;
#X connect 31 0 4 0;
#X connect 32 0 35 0;
#X connect 33 0 34 0;
#X connect 34 0 35 1;
#X connect 35 0 3 0;
#X connect 36 0 26 0;
#X connect 37 0 32 0;
#X connect 38 0 5 1;
#X connect 39 0 27 0;
#X connect 40 0 33 0;
#X restore 702 199 pd pitch-tom;
#X obj 95 74 route 1 2 3 4 5 6 7 8 9, f 115;
#X obj 76 278 route 10, f 115;
#X obj 776 119 s \$0-more-route;
#X obj 76 252 r \$0-more-route;
#X obj 90 529 throw~ \$0-bus;
#X obj 76 299 t a b;
#X obj 141 343 + 1;
#X obj 111 340 f;
#X obj 107 361 % 2;
#X obj 82 395 list prepend;
#X obj 82 416 route 0 1, f 26;
#X obj 82 437 t a b;
#X obj 151 440 t a b;
#X floatatom 247 381 5 0 0 0 - - -;
#X obj 154 498 nice-kick;
#X obj 91 493 nice-kick;
#X obj 414 356 mtof;
#X floatatom 414 377 5 0 0 0 - - -;
#X obj 343 442 mtof;
#X floatatom 343 463 5 0 0 0 - - -;
#X msg 336 411 37;
#X msg 407 325 34;
#X connect 0 0 5 0;
#X connect 1 0 6 0;
#X connect 2 0 21 0;
#X connect 3 0 7 0;
#X connect 8 0 4 0;
#X connect 9 0 10 0;
#X connect 12 0 11 0;
#X connect 14 0 13 0;
#X connect 15 0 16 0;
#X connect 17 0 18 0;
#X connect 20 0 19 0;
#X connect 21 0 0 0;
#X connect 21 1 1 0;
#X connect 21 2 3 0;
#X connect 21 3 9 0;
#X connect 21 4 12 0;
#X connect 21 5 14 0;
#X connect 21 6 15 0;
#X connect 21 7 17 0;
#X connect 21 8 20 0;
#X connect 21 9 23 0;
#X connect 22 0 26 0;
#X connect 24 0 22 0;
#X connect 26 0 30 0;
#X connect 26 1 28 0;
#X connect 27 0 28 1;
#X connect 28 0 27 0;
#X connect 28 0 29 0;
#X connect 29 0 30 1;
#X connect 30 0 31 0;
#X connect 31 0 32 0;
#X connect 31 1 33 0;
#X connect 32 0 36 0;
#X connect 32 1 35 1;
#X connect 33 0 35 0;
#X connect 33 1 36 1;
#X connect 34 0 35 2;
#X connect 35 0 25 0;
#X connect 36 0 25 0;
#X connect 37 0 38 0;
#X connect 37 0 34 0;
#X connect 37 0 36 2;
#X connect 39 0 40 0;
#X connect 40 0 36 2;
#X connect 41 0 39 0;
#X connect 42 0 37 0;
