#N canvas 378 331 573 406 10;
#X obj 121 214 basic-sample samp 0;
#X obj 121 147 list prepend note;
#X obj 121 168 list trim;
#X msg 345 234 1 read;
#X obj 148 318 lop~ 5;
#X obj 97 345 *~, f 9;
#X obj 154 250 hsl 128 15 0 127 0 0 empty empty empty -2 -8 0 10 -262144
-1 -1 0 1;
#X obj 151 270 / 127;
#X obj 151 291 pow 2;
#X obj 97 366 dac~ 1 2;
#N canvas 2 101 450 300 parameters 0;
#X msg 28 53 a \$1;
#X floatatom 28 27 5 0 0 0 - - -;
#X floatatom 78 27 5 0 0 0 - - -;
#X floatatom 126 27 5 0 0 0 - - -;
#X floatatom 176 27 5 0 0 0 - - -;
#X msg 78 53 d \$1;
#X msg 126 52 s \$1;
#X msg 176 52 r \$1;
#X floatatom 176 91 5 0 0 0 - - -;
#X floatatom 226 91 5 0 0 0 - - -;
#X floatatom 284 91 5 0 0 0 - - -;
#X msg 176 117 in \$1;
#X msg 226 117 out \$1;
#X msg 284 116 s-in \$1;
#X floatatom 354 90 5 0 0 0 - - -;
#X msg 354 115 s-out \$1;
#X obj 264 216 tgl 15 0 empty empty empty 17 7 0 10 -262144 -1 -1 0
1;
#X msg 264 236 loop \$1;
#X floatatom 302 12 5 0 0 0 - - -;
#X msg 302 31 speed \$1;
#X obj 57 218 outlet;
#X text 120 10 0-100 int;
#X text 170 71 0-1 f;
#X text 225 70 0-1 f;
#X text 281 72 0-1 f;
#X text 349 73 0-1 f;
#X text 338 12 f;
#X text 193 9 ms;
#X text 83 5 ms;
#X text 32 10 ms;
#X connect 0 0 20 0;
#X connect 1 0 0 0;
#X connect 2 0 5 0;
#X connect 3 0 6 0;
#X connect 4 0 7 0;
#X connect 5 0 20 0;
#X connect 6 0 20 0;
#X connect 7 0 20 0;
#X connect 8 0 11 0;
#X connect 9 0 12 0;
#X connect 10 0 13 0;
#X connect 11 0 20 0;
#X connect 12 0 20 0;
#X connect 13 0 20 0;
#X connect 14 0 15 0;
#X connect 15 0 20 0;
#X connect 16 0 17 0;
#X connect 17 0 20 0;
#X connect 18 0 19 0;
#X connect 19 0 20 0;
#X restore 283 152 pd parameters;
#X obj 115 30 metro 2000;
#X obj 114 55 t b b;
#X obj 114 10 tgl 15 0 empty empty empty 17 7 0 10 -262144 -1 -1 0
1;
#X msg 412 190 all re-read;
#X msg 433 243 vis 1 1;
#X obj 336 277 clone -s 1 12 loader1 samp Samples;
#X msg 342 197 2 read;
#X msg 116 79 1 100;
#X msg 150 113 1 0;
#X connect 0 0 5 0;
#X connect 1 0 2 0;
#X connect 2 0 0 0;
#X connect 3 0 16 0;
#X connect 4 0 5 1;
#X connect 5 0 9 0;
#X connect 5 0 9 1;
#X connect 6 0 7 0;
#X connect 7 0 8 0;
#X connect 8 0 4 0;
#X connect 10 0 0 0;
#X connect 11 0 12 0;
#X connect 12 0 18 0;
#X connect 12 1 19 0;
#X connect 13 0 11 0;
#X connect 14 0 16 0;
#X connect 15 0 16 0;
#X connect 17 0 16 0;
#X connect 18 0 1 0;
#X connect 19 0 1 0;
