#N canvas 84 158 812 588 10;
#N canvas 2 95 1009 451 stuff 0;
#X obj 37 37 inlet;
#X obj 37 149 s \$0-point;
#X obj 104 149 s \$0-in;
#X obj 160 150 s \$0-out;
#X obj 223 152 s \$0-speed;
#X obj 292 152 s \$0-s-in;
#X obj 379 181 s \$0-s-out;
#X obj 440 130 s \$0-rel;
#X obj 507 165 s \$0-a;
#X obj 584 175 s \$0-d;
#X obj 655 186 s \$0-s;
#X obj 687 81 s \$0-r;
#X obj 37 57 route point in out speed s-in s-out rel a d s r loop,
f 138;
#X obj 791 141 s \$0-loop;
#X obj 655 161 clip 0 100;
#X obj 792 114 clip 0 1;
#X obj 585 124 max 1;
#X obj 505 104 max 1;
#X obj 441 99 max 1;
#X obj 376 110 clip 0 1;
#X obj 294 111 clip 0 1;
#X obj 165 102 clip 0 1;
#X obj 104 102 clip 0 1;
#X connect 0 0 12 0;
#X connect 12 0 1 0;
#X connect 12 1 22 0;
#X connect 12 2 21 0;
#X connect 12 3 4 0;
#X connect 12 4 20 0;
#X connect 12 5 19 0;
#X connect 12 6 18 0;
#X connect 12 7 17 0;
#X connect 12 8 16 0;
#X connect 12 9 14 0;
#X connect 12 10 11 0;
#X connect 12 11 15 0;
#X connect 14 0 10 0;
#X connect 15 0 13 0;
#X connect 16 0 9 0;
#X connect 17 0 8 0;
#X connect 18 0 7 0;
#X connect 19 0 6 0;
#X connect 20 0 5 0;
#X connect 21 0 3 0;
#X connect 22 0 2 0;
#X restore 97 65 pd stuff;
#X obj 39 389 tabread4~;
#X obj 383 251 r \$0-to-tabread;
#N canvas 506 259 875 509 pointer 0;
#X obj 181 373 tabread;
#X msg 247 300 set \$2-\$1-length;
#X msg 181 314 0;
#X obj 181 187 pack 0 s;
#X obj 226 152 symbol \$1;
#X obj 277 122 r \$0-point;
#X obj 181 464 s \$0-length-samp;
#X obj 181 394 t f f;
#X obj 208 420 /;
#X obj 235 379 samplerate~;
#X obj 235 400 * 0.001;
#X obj 208 441 s \$0-length-ms;
#X msg 412 278 set \$2-\$1;
#X obj 412 309 s \$0-to-tabread;
#X obj 181 11 inlet;
#X obj 181 60 t a b, f 8;
#X obj 181 223 t b a a b, f 39;
#X connect 0 0 7 0;
#X connect 1 0 0 0;
#X connect 2 0 0 0;
#X connect 3 0 16 0;
#X connect 4 0 3 1;
#X connect 5 0 4 1;
#X connect 7 0 6 0;
#X connect 7 1 8 0;
#X connect 8 0 11 0;
#X connect 9 0 10 0;
#X connect 10 0 8 1;
#X connect 12 0 13 0;
#X connect 14 0 15 0;
#X connect 15 0 3 0;
#X connect 15 1 4 0;
#X connect 16 0 2 0;
#X connect 16 1 1 0;
#X connect 16 2 12 0;
#X connect 16 3 9 0;
#X restore 150 239 pd pointer;
#X obj 39 520 hip~ 5;
#X obj 39 561 outlet~;
#X obj 39 470 *~, f 30;
#X obj 40 17 inlet note-pair;
#X obj 39 430 *~, f 24;
#X obj 40 40 route note;
#X obj 302 389 tabread4~;
#X obj 302 470 *~, f 30;
#X obj 302 430 *~, f 24;
#X obj 39 277 route 0 1, f 39;
#X obj 39 249 route list;
#N canvas 367 255 450 300 is-note-on? 0;
#X obj 195 90 t b;
#X obj 274 15 inlet test;
#X obj 119 18 inlet fill;
#X obj 119 39 t b;
#X msg 119 60 1;
#X msg 195 111 0;
#X obj 274 35 t b;
#X obj 104 188 sel 1;
#X obj 104 209 outlet duck-and-switch;
#X obj 104 147 f 0;
#X obj 195 63 r \$0-no-note;
#X connect 0 0 5 0;
#X connect 1 0 6 0;
#X connect 2 0 3 0;
#X connect 3 0 4 0;
#X connect 4 0 9 1;
#X connect 5 0 9 1;
#X connect 6 0 9 0;
#X connect 7 0 8 0;
#X connect 9 0 7 0;
#X connect 10 0 0 0;
#X restore 177 156 pd is-note-on?;
#X obj 150 112 stripnote;
#X obj 178 179 f;
#X obj 205 179 + 1;
#X obj 178 200 % 2;
#X obj 39 228 list prepend 0;
#X obj 171 301 t a b;
#X obj 39 304 t a b;
#X obj 40 90 t a a b, f 37;
#X obj 150 133 t f f;
#X obj 40 111 unpack 0 0;
#N canvas 236 50 830 768 phasor1 0;
#X obj 62 8 inlet;
#X obj 180 321 r \$0-in;
#X obj 72 673 *~, f 28;
#X text 254 672 samplerate;
#X obj 72 710 +~ 1;
#X obj 237 646 - 2;
#X text 265 645 interpolation -2;
#X text 103 710 interpolation + 1;
#X obj 72 731 outlet~;
#X obj 72 372 phasor~ 0.1, f 16;
#X obj 433 147 del;
#X msg 433 91 stop;
#X obj 237 619 r \$0-length-samp;
#X obj 195 563 f;
#X obj 210 540 r \$0-s-in;
#X obj 72 563 *~ 1, f 7;
#X obj 72 626 +~ 0, f 21;
#X obj 342 284 t b b;
#X msg 369 336 stop;
#X msg 342 437 0;
#X obj 633 91 r \$0-loop;
#X obj 165 346 f 0;
#X obj 387 369 r \$0-r;
#X obj 549 542 -~ 0.5;
#X obj 549 584 cos~;
#X obj 549 626 clip~ 0 1;
#X obj 549 647 outlet~ click;
#X obj 549 563 *~ 0.5;
#X obj 549 605 *~ 5;
#X obj 625 518 r \$0-length-ms;
#X obj 633 157 f;
#X obj 651 114 loadbang;
#X obj 651 136 f \$2;
#X obj 588 224 spigot 0;
#X obj 433 248 spigot 0;
#X obj 433 168 t b b;
#X obj 342 396 del 1000;
#X obj 633 199 ==;
#X msg 137 206 0;
#X obj 625 539 / 10;
#X obj 342 417 t b b, f 10;
#X obj 519 372 del 10;
#X msg 519 409 0;
#X obj 111 484 f 1;
#X obj 304 542 r \$0-in;
#X obj 288 564 f 0;
#N canvas 800 235 450 300 loop-speed 0;
#X obj 122 8 r \$0-length-ms;
#X obj 137 121 r \$0-speed;
#X obj 122 97 * 1, f 8;
#X obj 122 158 * 1;
#X msg 122 185 1000 \$1;
#X obj 122 207 /;
#X obj 27 164 inlet bang;
#X obj 167 62 r \$0-s-out;
#X obj 107 268 outlet;
#X obj 107 238 f;
#X connect 0 0 2 0;
#X connect 1 0 3 1;
#X connect 2 0 3 0;
#X connect 3 0 4 0;
#X connect 4 0 5 0;
#X connect 5 0 9 1;
#X connect 6 0 9 0;
#X connect 7 0 2 1;
#X connect 9 0 8 0;
#X restore 124 123 pd loop-speed;
#X obj 126 462 r \$0-out;
#X obj 203 477 f;
#X obj 218 454 r \$0-s-out;
#N canvas 801 234 449 301 og-speed 0;
#X obj 122 32 r \$0-length-ms;
#X obj 215 81 r \$0-speed;
#X obj 122 97 * 1, f 8;
#X obj 122 138 * 1, f 16;
#X msg 122 185 1000 \$1;
#X obj 122 207 /;
#X obj 93 7 inlet bang;
#X obj 107 269 outlet;
#X obj 167 62 r \$0-out;
#X obj 107 237 f;
#X obj 215 102 t b a;
#X obj 179 164 s \$0-delay1;
#X connect 0 0 2 0;
#X connect 1 0 10 0;
#X connect 2 0 3 0;
#X connect 3 0 4 0;
#X connect 3 0 11 0;
#X connect 4 0 5 0;
#X connect 5 0 9 1;
#X connect 6 0 9 0;
#X connect 8 0 2 1;
#X connect 9 0 7 0;
#X connect 10 0 3 0;
#X connect 10 1 3 1;
#X restore 34 95 pd og-speed;
#X obj 72 647 wrap~;
#X obj 477 92 r \$0-delay1;
#X obj 124 98 r \$0-switch-2s1;
#X obj 588 299 s \$0-off1;
#X obj 609 277 s \$0-off-now1;
#X obj 433 274 s \$0-switch-2s1;
#X obj 519 351 r \$0-duck1;
#X obj 746 25 inlet;
#X obj 746 46 t b;
#X obj 746 67 s \$0-duck1;
#X obj 607 66 s \$0-out-in-og1;
#X obj 288 514 r \$0-out-in-og1;
#X obj 111 427 r \$0-out-in-og1;
#X obj 203 429 r \$0-switch-2s1;
#X obj 195 515 r \$0-switch-2s1;
#X obj 626 253 s \$0-no-note1;
#X obj 165 295 r \$0-re-start1;
#X obj 463 66 s \$0-re-start1;
#X obj 62 40 t b b b b b f, f 111;
#X obj 706 627 outlet;
#X obj 239 199 s \$0-off1;
#X obj 342 263 r \$0-off1;
#X obj 137 184 r \$0-off-now1;
#X obj 239 168 t b b b;
#X obj 399 440 s \$0-no-note;
#X obj 240 123 r \$0-off;
#X connect 0 0 69 0;
#X connect 1 0 21 1;
#X connect 2 0 4 0;
#X connect 4 0 8 0;
#X connect 5 0 2 1;
#X connect 9 0 15 0;
#X connect 9 0 23 0;
#X connect 10 0 35 0;
#X connect 11 0 10 0;
#X connect 12 0 5 0;
#X connect 13 0 16 1;
#X connect 14 0 13 1;
#X connect 15 0 16 0;
#X connect 16 0 51 0;
#X connect 17 0 36 0;
#X connect 17 1 18 0;
#X connect 18 0 36 0;
#X connect 19 0 9 0;
#X connect 20 0 30 0;
#X connect 21 0 9 1;
#X connect 22 0 36 1;
#X connect 23 0 27 0;
#X connect 24 0 28 0;
#X connect 25 0 26 0;
#X connect 27 0 24 0;
#X connect 28 0 25 0;
#X connect 29 0 39 0;
#X connect 30 0 37 0;
#X connect 30 0 34 1;
#X connect 31 0 32 0;
#X connect 32 0 30 0;
#X connect 33 0 54 0;
#X connect 33 0 55 0;
#X connect 33 0 66 0;
#X connect 34 0 56 0;
#X connect 35 0 34 0;
#X connect 35 1 33 0;
#X connect 36 0 40 0;
#X connect 37 0 33 1;
#X connect 38 0 9 0;
#X connect 39 0 28 1;
#X connect 40 0 19 0;
#X connect 40 1 75 0;
#X connect 41 0 42 0;
#X connect 41 0 75 0;
#X connect 42 0 9 0;
#X connect 43 0 15 1;
#X connect 44 0 45 1;
#X connect 45 0 16 1;
#X connect 46 0 9 0;
#X connect 47 0 43 1;
#X connect 48 0 15 1;
#X connect 49 0 48 1;
#X connect 50 0 9 0;
#X connect 51 0 2 0;
#X connect 52 0 10 1;
#X connect 53 0 46 0;
#X connect 57 0 41 0;
#X connect 58 0 59 0;
#X connect 59 0 60 0;
#X connect 62 0 45 0;
#X connect 63 0 43 0;
#X connect 64 0 48 0;
#X connect 65 0 13 0;
#X connect 67 0 21 0;
#X connect 69 0 50 0;
#X connect 69 1 10 0;
#X connect 69 2 11 0;
#X connect 69 2 18 0;
#X connect 69 3 68 0;
#X connect 69 4 61 0;
#X connect 69 5 70 0;
#X connect 72 0 17 0;
#X connect 73 0 38 0;
#X connect 74 0 71 0;
#X connect 74 1 18 0;
#X connect 74 2 11 0;
#X connect 76 0 74 0;
#X restore 39 343 pd phasor1 - - - - - - - - -;
#N canvas 236 50 1150 811 phasor2 0;
#X obj 61 14 inlet;
#X obj 207 341 r \$0-in;
#X obj 99 693 *~, f 28;
#X text 281 692 samplerate;
#X obj 99 730 +~ 1;
#X obj 264 666 - 2;
#X text 292 665 interpolation -2;
#X text 130 730 interpolation + 1;
#X obj 99 751 outlet~;
#X obj 99 392 phasor~ 0.1, f 16;
#X obj 460 167 del;
#X msg 460 111 stop;
#X obj 264 639 r \$0-length-samp;
#X obj 222 583 f;
#X obj 237 560 r \$0-s-in;
#X obj 99 583 *~ 1, f 7;
#X obj 99 646 +~ 0, f 21;
#X obj 369 304 t b b;
#X msg 396 356 stop;
#X msg 369 457 0;
#X obj 660 111 r \$0-loop;
#X obj 192 366 f 0;
#X obj 414 389 r \$0-r;
#X obj 576 562 -~ 0.5;
#X obj 576 604 cos~;
#X obj 576 646 clip~ 0 1;
#X obj 576 667 outlet~ click;
#X obj 576 583 *~ 0.5;
#X obj 576 625 *~ 5;
#X obj 652 538 r \$0-length-ms;
#X obj 660 177 f;
#X obj 678 134 loadbang;
#X obj 678 156 f \$2;
#X obj 615 244 spigot 0;
#X obj 460 268 spigot 0;
#X obj 460 188 t b b;
#X obj 369 416 del 1000;
#X obj 660 219 ==;
#X msg 164 226 0;
#X obj 652 559 / 10;
#X obj 369 437 t b b, f 10;
#X obj 546 392 del 10;
#X msg 546 429 0;
#X obj 138 504 f 1;
#X obj 331 562 r \$0-in;
#X obj 315 584 f 0;
#N canvas 800 235 450 300 loop-speed 0;
#X obj 122 8 r \$0-length-ms;
#X obj 137 121 r \$0-speed;
#X obj 122 97 * 1, f 8;
#X obj 122 158 * 1;
#X msg 122 185 1000 \$1;
#X obj 122 207 /;
#X obj 27 164 inlet bang;
#X obj 167 62 r \$0-s-out;
#X obj 107 268 outlet;
#X obj 107 238 f;
#X connect 0 0 2 0;
#X connect 1 0 3 1;
#X connect 2 0 3 0;
#X connect 3 0 4 0;
#X connect 4 0 5 0;
#X connect 5 0 9 1;
#X connect 6 0 9 0;
#X connect 7 0 2 1;
#X connect 9 0 8 0;
#X restore 151 143 pd loop-speed;
#X obj 153 482 r \$0-out;
#X obj 230 497 f;
#X obj 245 474 r \$0-s-out;
#N canvas 801 234 449 301 og-speed 0;
#X obj 122 32 r \$0-length-ms;
#X obj 215 81 r \$0-speed;
#X obj 122 97 * 1, f 8;
#X obj 122 138 * 1, f 16;
#X msg 122 185 1000 \$1;
#X obj 122 207 /;
#X obj 93 7 inlet bang;
#X obj 107 269 outlet;
#X obj 167 62 r \$0-out;
#X obj 107 237 f;
#X obj 215 102 t b a;
#X obj 179 164 s \$0-delay2;
#X connect 0 0 2 0;
#X connect 1 0 10 0;
#X connect 2 0 3 0;
#X connect 3 0 4 0;
#X connect 3 0 11 0;
#X connect 4 0 5 0;
#X connect 5 0 9 1;
#X connect 6 0 9 0;
#X connect 8 0 2 1;
#X connect 9 0 7 0;
#X connect 10 0 3 0;
#X connect 10 1 3 1;
#X restore 61 115 pd og-speed;
#X obj 99 667 wrap~;
#X obj 460 294 s \$0-switch-2s1;
#X obj 840 17 inlet;
#X obj 840 38 t b;
#X obj 61 40 t b b b b b f, f 120;
#X obj 733 647 outlet;
#X obj 840 58 s \$0-duck2;
#X obj 634 66 s \$0-out-in-og2;
#X obj 490 65 s \$0-re-start2;
#X obj 504 112 r \$0-delay2;
#X obj 151 118 r \$0-switch-2s2;
#X obj 192 314 r \$0-re-start2;
#X obj 231 449 r \$0-switch-2s2;
#X obj 138 447 r \$0-out-in-og2;
#X obj 223 534 r \$0-switch-2s2;
#X obj 330 531 r \$0-out-in-og2;
#X obj 546 371 r \$0-duck2;
#X obj 369 283 r \$0-off2;
#X obj 615 319 s \$0-off2;
#X obj 637 296 s \$0-off-now2;
#X obj 653 273 s \$0-no-note2;
#X obj 277 201 s \$0-off2;
#X obj 165 205 r \$0-off-now2;
#X obj 277 176 t b b b;
#X obj 426 460 s \$0-no-note;
#X obj 277 147 r \$0-off;
#X connect 0 0 55 0;
#X connect 1 0 21 1;
#X connect 2 0 4 0;
#X connect 4 0 8 0;
#X connect 5 0 2 1;
#X connect 9 0 15 0;
#X connect 9 0 23 0;
#X connect 10 0 35 0;
#X connect 11 0 10 0;
#X connect 12 0 5 0;
#X connect 13 0 16 1;
#X connect 14 0 13 1;
#X connect 15 0 16 0;
#X connect 16 0 51 0;
#X connect 17 0 36 0;
#X connect 17 1 18 0;
#X connect 18 0 36 0;
#X connect 19 0 9 0;
#X connect 20 0 30 0;
#X connect 21 0 9 1;
#X connect 22 0 36 1;
#X connect 23 0 27 0;
#X connect 24 0 28 0;
#X connect 25 0 26 0;
#X connect 27 0 24 0;
#X connect 28 0 25 0;
#X connect 29 0 39 0;
#X connect 30 0 37 0;
#X connect 30 0 34 1;
#X connect 31 0 32 0;
#X connect 32 0 30 0;
#X connect 33 0 69 0;
#X connect 33 0 70 0;
#X connect 33 0 71 0;
#X connect 34 0 52 0;
#X connect 35 0 34 0;
#X connect 35 1 33 0;
#X connect 36 0 40 0;
#X connect 37 0 33 1;
#X connect 38 0 9 0;
#X connect 39 0 28 1;
#X connect 40 0 19 0;
#X connect 40 1 75 0;
#X connect 41 0 42 0;
#X connect 41 0 75 0;
#X connect 42 0 9 0;
#X connect 43 0 15 1;
#X connect 44 0 45 1;
#X connect 45 0 16 1;
#X connect 46 0 9 0;
#X connect 47 0 43 1;
#X connect 48 0 15 1;
#X connect 49 0 48 1;
#X connect 50 0 9 0;
#X connect 51 0 2 0;
#X connect 53 0 54 0;
#X connect 54 0 57 0;
#X connect 55 0 50 0;
#X connect 55 1 10 0;
#X connect 55 2 11 0;
#X connect 55 2 18 0;
#X connect 55 3 59 0;
#X connect 55 4 58 0;
#X connect 55 5 56 0;
#X connect 60 0 10 1;
#X connect 61 0 46 0;
#X connect 62 0 21 0;
#X connect 63 0 48 0;
#X connect 64 0 43 0;
#X connect 65 0 13 0;
#X connect 66 0 45 0;
#X connect 67 0 41 0;
#X connect 68 0 17 0;
#X connect 73 0 38 0;
#X connect 74 0 72 0;
#X connect 74 1 18 0;
#X connect 74 2 11 0;
#X connect 76 0 74 0;
#X restore 302 343 pd phasor2 - - - - - - - - -;
#N canvas 393 204 1047 639 adsr2 0;
#X obj 221 46 r \$0-a;
#X obj 282 88 r \$0-d;
#X obj 343 96 r \$0-s;
#X obj 158 386 vline~;
#X obj 158 447 pow~ 2;
#X obj 158 498 outlet~;
#X obj 160 59 / 127;
#X obj 160 80 sqrt;
#X msg 160 243 \$1 \$2 \, \$4 \$3 \$2;
#X obj 59 313 pack 0 1000;
#X obj 104 286 r \$0-r;
#X obj 227 309 t b;
#X msg 227 330 0 10;
#X obj 160 18 inlet;
#X obj 227 287 r \$0-duck2;
#X obj 59 50 r \$0-off;
#X obj 160 101 t a a;
#X obj 343 177 *, f 8;
#X obj 343 117 / 100;
#X obj 343 138 t b a, f 8;
#X obj 160 203 pack 0.9 10 100 100, f 31;
#X connect 0 0 20 1;
#X connect 1 0 20 2;
#X connect 2 0 18 0;
#X connect 3 0 4 0;
#X connect 4 0 5 0;
#X connect 6 0 7 0;
#X connect 7 0 16 0;
#X connect 8 0 3 0;
#X connect 9 0 3 0;
#X connect 10 0 9 1;
#X connect 11 0 12 0;
#X connect 12 0 3 0;
#X connect 13 0 6 0;
#X connect 14 0 11 0;
#X connect 15 0 9 0;
#X connect 16 0 20 0;
#X connect 16 1 17 0;
#X connect 17 0 20 3;
#X connect 18 0 19 0;
#X connect 19 0 17 0;
#X connect 19 1 17 1;
#X connect 20 0 8 0;
#X restore 480 440 pd adsr2;
#N canvas 393 204 1047 639 adsr1 0;
#X obj 221 46 r \$0-a;
#X obj 282 88 r \$0-d;
#X obj 343 96 r \$0-s;
#X obj 158 386 vline~;
#X obj 158 447 pow~ 2;
#X obj 158 498 outlet~;
#X obj 160 59 / 127;
#X obj 160 80 sqrt;
#X msg 160 243 \$1 \$2 \, \$4 \$3 \$2;
#X obj 59 313 pack 0 1000;
#X obj 104 286 r \$0-r;
#X obj 227 309 t b;
#X msg 227 330 0 10;
#X obj 160 18 inlet;
#X obj 59 50 r \$0-off;
#X obj 160 101 t a a;
#X obj 343 177 *, f 8;
#X obj 343 117 / 100;
#X obj 343 138 t b a, f 8;
#X obj 227 287 r \$0-duck1;
#X obj 160 203 pack 0.9 10 100 100, f 31;
#X connect 0 0 20 1;
#X connect 1 0 20 2;
#X connect 2 0 17 0;
#X connect 3 0 4 0;
#X connect 4 0 5 0;
#X connect 6 0 7 0;
#X connect 7 0 15 0;
#X connect 8 0 3 0;
#X connect 9 0 3 0;
#X connect 10 0 9 1;
#X connect 11 0 12 0;
#X connect 12 0 3 0;
#X connect 13 0 6 0;
#X connect 14 0 9 0;
#X connect 15 0 20 0;
#X connect 15 1 16 0;
#X connect 16 0 20 3;
#X connect 17 0 18 0;
#X connect 18 0 16 0;
#X connect 18 1 16 1;
#X connect 19 0 11 0;
#X connect 20 0 8 0;
#X restore 216 438 pd adsr1;
#X obj 72 149 sel 0;
#X obj 72 170 s \$0-off;
#X text 485 84 Arg1: Samplebank name;
#X text 484 102 Arg2: Loop on/off;
#X connect 1 0 8 0;
#X connect 2 0 1 0;
#X connect 2 0 10 0;
#X connect 4 0 5 0;
#X connect 6 0 4 0;
#X connect 7 0 9 0;
#X connect 8 0 6 0;
#X connect 9 0 23 0;
#X connect 9 1 0 0;
#X connect 10 0 12 0;
#X connect 11 0 4 0;
#X connect 12 0 11 0;
#X connect 13 0 22 0;
#X connect 13 1 21 0;
#X connect 14 0 13 0;
#X connect 15 0 17 0;
#X connect 16 0 24 0;
#X connect 17 0 18 0;
#X connect 17 0 19 0;
#X connect 18 0 17 1;
#X connect 19 0 20 1;
#X connect 20 0 14 0;
#X connect 21 0 27 0;
#X connect 21 1 26 1;
#X connect 22 0 26 0;
#X connect 22 1 27 1;
#X connect 23 0 25 0;
#X connect 23 1 16 0;
#X connect 23 2 15 1;
#X connect 24 0 3 0;
#X connect 24 1 15 0;
#X connect 25 1 30 0;
#X connect 26 0 1 0;
#X connect 26 1 8 1;
#X connect 26 2 29 0;
#X connect 27 0 10 0;
#X connect 27 1 12 1;
#X connect 27 2 28 0;
#X connect 28 0 11 1;
#X connect 29 0 6 1;
#X connect 30 0 31 0;
#X connect 30 1 20 0;
