#N canvas 0 23 450 300 10;
#X obj 35 17 inlet float;
#X text 165 22 Arg1: low number;
#X text 163 36 Arg2: high number;
#X obj 35 97 t b;
#X msg 35 118 0;
#X obj 121 125 t b;
#X msg 121 146 0;
#X obj 80 122 t b;
#X msg 80 143 1;
#X obj 35 220 change -1;
#X obj 35 241 outlet;
#X obj 35 76 moses \$1;
#X obj 80 101 moses \$2;
#X connect 0 0 11 0;
#X connect 3 0 4 0;
#X connect 4 0 9 0;
#X connect 5 0 6 0;
#X connect 6 0 9 0;
#X connect 7 0 8 0;
#X connect 8 0 9 0;
#X connect 9 0 10 0;
#X connect 11 0 3 0;
#X connect 11 1 12 0;
#X connect 12 0 7 0;
#X connect 12 1 5 0;
