#N canvas 273 179 888 642 12;
#X obj 30 26 inlet;
#X text 75 25 note pair;
#X obj 30 50 t a a, f 30;
#X obj 237 77 stripnote;
#X obj 237 101 t b;
#X obj 237 125 f 1;
#X obj 273 127 + 1;
#X obj 273 151 == 1;
#X obj 30 214 list prepend;
#X obj 30 238 route 0 1, f 93;
#X obj 187 422 r \$0-L;
#X obj 265 421 r \$0-R;
#X obj 187 530 outlet~;
#X obj 30 275 t a b, f 13;
#X obj 118 313 pack 0 -1;
#X obj 118 337 s \$0-R;
#X obj 30 317 s \$0-L;
#X obj 353 275 t a b, f 13;
#X obj 441 313 pack 0 -1;
#X obj 353 317 s \$0-R;
#X obj 441 337 s \$0-L;
#X obj 462 42 inlet;
#X text 519 38 messages;
#X obj 462 66 t a a, f 12;
#X obj 462 102 s \$0-L;
#X obj 543 102 s \$0-R;
#X obj 187 466 \$1;
#X obj 265 465 \$1;
#X connect 0 0 2 0;
#X connect 2 0 8 0;
#X connect 2 1 3 0;
#X connect 3 0 4 0;
#X connect 4 0 5 0;
#X connect 5 0 6 0;
#X connect 5 0 8 1;
#X connect 6 0 7 0;
#X connect 7 0 5 1;
#X connect 8 0 9 0;
#X connect 9 0 13 0;
#X connect 9 1 17 0;
#X connect 10 0 26 0;
#X connect 11 0 27 0;
#X connect 13 0 16 0;
#X connect 13 1 14 0;
#X connect 14 0 15 0;
#X connect 17 0 19 0;
#X connect 17 1 18 0;
#X connect 18 0 20 0;
#X connect 21 0 23 0;
#X connect 23 0 24 0;
#X connect 23 1 25 0;
#X connect 26 0 12 0;
#X connect 27 0 12 0;
