#N canvas 0 23 627 693 12;
#X obj 32 19 inlet~;
#X obj 32 251 *~;
#X obj 162 175 sig~ \$1;
#X obj 162 199 lop~ 10;
#X text 214 386 ratio;
#X obj 32 491 hip~ 4;
#X obj 32 555 outlet~;
#X obj 308 28 inlet messages;
#X obj 308 52 route gain ratio lower upper;
#X obj 32 346 clip~ \$3 \$4;
#X obj 342 255 lop~ 10;
#X obj 69 262 r \$0-lo;
#X obj 89 302 r \$0-hi;
#X obj 404 124 s \$0-lo;
#X obj 452 98 s \$0-hi;
#X obj 342 231 sig~ \$2;
#X obj 32 427 /~, f 19;
#X obj 162 373 *~;
#X obj 342 128 min 100;
#X obj 342 104 max 1;
#X obj 342 175 + 0.01;
#X obj 342 151 / 1000;
#X connect 0 0 1 0;
#X connect 1 0 9 0;
#X connect 2 0 3 0;
#X connect 3 0 1 1;
#X connect 3 0 17 0;
#X connect 5 0 6 0;
#X connect 7 0 8 0;
#X connect 8 0 2 0;
#X connect 8 1 19 0;
#X connect 8 2 13 0;
#X connect 8 3 14 0;
#X connect 9 0 16 0;
#X connect 10 0 17 1;
#X connect 11 0 9 1;
#X connect 12 0 9 2;
#X connect 15 0 10 0;
#X connect 16 0 5 0;
#X connect 17 0 16 1;
#X connect 18 0 21 0;
#X connect 19 0 18 0;
#X connect 20 0 15 0;
#X connect 21 0 20 0;
