#N canvas 0 25 1054 727 12;
#X obj 433 350 r \$0-messes;
#X obj 248 547 *~, f 11;
#N canvas 4 50 450 300 line 0;
#X obj 46 7 inlet;
#X obj 53 237 outlet~;
#X msg 92 118 1 8;
#X obj 53 158 vline~;
#X msg 53 118 0 8;
#X obj 46 28 sel 0 1;
#X obj 54 205 pow~ 2;
#X connect 0 0 5 0;
#X connect 2 0 3 0;
#X connect 3 0 6 0;
#X connect 4 0 3 0;
#X connect 5 0 4 0;
#X connect 5 1 2 0;
#X connect 6 0 1 0;
#X restore 322 517 pd line;
#X obj 248 171 sel 0 1, f 63;
#X obj 467 558 *~, f 12;
#N canvas 4 50 450 300 line 0;
#X obj 46 7 inlet;
#X obj 53 237 outlet~;
#X obj 54 205 pow~ 2;
#X msg 92 118 1 8;
#X obj 53 158 vline~;
#X msg 53 118 0 8;
#X obj 46 28 sel 0 1;
#X connect 0 0 6 0;
#X connect 2 0 1 0;
#X connect 3 0 4 0;
#X connect 4 0 2 0;
#X connect 5 0 4 0;
#X connect 6 0 5 0;
#X connect 6 1 3 0;
#X restore 548 523 pd line;
#X msg 284 259 0;
#X msg 512 282 1;
#X msg 591 352 switch 0;
#X obj 591 328 del 8;
#X msg 618 307 stop;
#X obj 591 284 t b b;
#X obj 354 346 t a a;
#X obj 354 375 == 0;
#X obj 467 230 t b b b b, f 20;
#X msg 285 369 switch 0;
#X obj 285 345 del 8;
#X msg 312 324 stop;
#X obj 285 301 t b b;
#X obj 248 230 t b b b b, f 16;
#X obj 655 229 t b b b;
#X msg 721 275 0;
#X obj 662 426 f;
#X obj 248 110 f 1;
#X obj 279 110 + 1;
#X obj 279 131 == 1;
#X obj 132 16 inlet;
#X text 178 18 trigger;
#X obj 132 40 sel 0, f 17;
#X obj 132 64 s \$0-off;
#X obj 655 198 r \$0-off;
#X obj 248 71 t b;
#X obj 542 28 inlet;
#X text 593 28 messages;
#X obj 542 52 s \$0-messes;
#X obj 248 661 outlet~;
#X obj 467 407 j-simple-sample;
#X obj 247 416 j-simple-sample;
#X connect 0 0 36 1;
#X connect 0 0 37 1;
#X connect 1 0 35 0;
#X connect 2 0 1 1;
#X connect 3 0 19 0;
#X connect 3 1 14 0;
#X connect 4 0 35 0;
#X connect 5 0 4 1;
#X connect 6 0 12 0;
#X connect 7 0 12 0;
#X connect 8 0 36 1;
#X connect 9 0 8 0;
#X connect 10 0 9 0;
#X connect 11 0 9 0;
#X connect 11 1 10 0;
#X connect 12 0 13 0;
#X connect 12 1 5 0;
#X connect 13 0 2 0;
#X connect 14 0 36 0;
#X connect 14 1 7 0;
#X connect 14 2 18 0;
#X connect 14 3 10 0;
#X connect 15 0 37 1;
#X connect 16 0 15 0;
#X connect 17 0 16 0;
#X connect 18 0 16 0;
#X connect 18 1 17 0;
#X connect 19 0 37 0;
#X connect 19 1 6 0;
#X connect 19 2 11 0;
#X connect 19 3 17 0;
#X connect 20 0 18 0;
#X connect 20 1 11 0;
#X connect 20 2 21 0;
#X connect 21 0 22 0;
#X connect 22 0 5 0;
#X connect 22 0 2 0;
#X connect 23 0 24 0;
#X connect 23 0 3 0;
#X connect 24 0 25 0;
#X connect 25 0 23 1;
#X connect 26 0 28 0;
#X connect 28 0 29 0;
#X connect 28 1 31 0;
#X connect 30 0 20 0;
#X connect 31 0 23 0;
#X connect 32 0 34 0;
#X connect 36 0 4 0;
#X connect 37 0 1 0;
