#N canvas 31 82 1375 796 12;
#X obj 389 643 vline~;
#X obj 470 638 vline~;
#X obj 63 33 inlet;
#X obj 722 745 outlet finished;
#X obj 315 739 outlet~;
#X obj 966 57 t b;
#X obj 966 34 inlet off;
#X obj 966 80 s \$0-off;
#X obj 110 435 r \$0-off;
#X obj 389 666 pow~ 2, f 12;
#X obj 183 434 r \$0-on;
#X obj 110 520 vline~;
#X obj 110 543 pow~ 2;
#X obj 571 558 loadbang;
#X msg 571 581 1 0;
#X text 411 447 this one restarts the vlines and begins at 0;
#X text 615 311 this continues the vline without interruption and glides
the curve change \, ***might make weird bumps but ok for now.;
#X obj 389 222 spigot 0;
#X obj 575 224 spigot 0;
#X obj 389 122 t a a;
#X obj 63 308 s \$0-restart;
#X msg 63 280 0;
#X obj 107 279 s \$0-on;
#X obj 63 80 route new cont, f 47;
#N canvas 0 23 1417 754 cont 0;
#X obj 372 198 unpack 0 0 0, f 91;
#X msg 1006 306 1 \$1;
#X obj 1006 329 /;
#X obj 372 246 t f f b, f 23;
#X obj 530 336 f 0;
#X obj 372 394 pow;
#X text 574 497 last position;
#X obj 771 278 f;
#X obj 733 278 + 0;
#X obj 535 526 pack 0 0 0;
#X obj 535 497 f;
#X obj 803 364 f 0;
#X obj 354 563 pack 0 0 0;
#X obj 354 504 f;
#X obj 939 622 pack 0 0 0;
#X obj 530 410 pow;
#X obj 789 237 r \$0-restart;
#X obj 821 325 r \$0-restart;
#X obj 548 301 r \$0-restart;
#X obj 354 667 t a;
#X obj 803 394 s \$0-last-time;
#X obj 1006 589 r \$0-last-time;
#X obj 422 492 r \$0-last-time;
#X obj 602 480 r \$0-last-time;
#X obj 1006 352 s \$0-pow-inv;
#X obj 390 366 r \$0-pow-inv;
#X obj 548 384 r \$0-pow-inv;
#X obj 689 415 s \$0-new-time;
#X obj 387 469 r \$0-new-time;
#X obj 771 315 t f b;
#X obj 689 236 t a a;
#X obj 745 696 del;
#X obj 448 432 t b b b b, f 31;
#X obj 794 523 r \$0-restart;
#X obj 794 576 t b;
#X msg 794 599 stop;
#X obj 839 547 r \$0-off;
#X obj 745 719 t b;
#X obj 249 53 inlet;
#X obj 354 700 outlet 2-amp-vline;
#X obj 506 698 outlet 2-curve-vline;
#X obj 745 742 outlet 2-finish-bang;
#X text 509 69 1st message should read \, 0.8 1000 (no third argument)
\, 2 1000 curve takes just as long to change;
#X obj 115 340 s \$0-local-sr;
#X msg 81 230 1;
#X obj 81 187 t b b;
#X obj 173 234 spigot 0;
#X obj 249 98 t b b a, f 18;
#X obj 172 256 t b b;
#X msg 243 237 0;
#X msg 172 279 0;
#X msg 143 193 1;
#X obj 1213 587 r \$0-new-time;
#X obj 354 625 spigot 0, f 16;
#X obj 463 572 r \$0-local-sr;
#X obj 463 595 ==;
#X obj 118 565 spigot 0;
#X obj 171 526 r \$0-local-sr;
#X obj 322 527 t a a;
#X obj 118 588 pack 0 0, f 18;
#X obj 192 559 r \$0-new-time;
#X obj 1160 637 pack 0 0;
#X obj 1006 278 t a a, f 18;
#X obj 939 560 spigot 0, f 16;
#X obj 1048 507 r \$0-local-sr;
#X obj 1048 530 ==;
#X obj 939 452 t f f, f 32;
#X obj 939 428 f;
#X obj 1160 558 spigot 0, f 16;
#X obj 1269 525 r \$0-local-sr;
#X obj 939 665 t a;
#X obj 81 164 r \$0-cont;
#X obj 1213 610 min 100;
#X connect 0 0 3 0;
#X connect 0 1 30 0;
#X connect 0 2 62 0;
#X connect 1 0 2 0;
#X connect 2 0 24 0;
#X connect 3 0 5 0;
#X connect 3 1 4 1;
#X connect 3 2 4 0;
#X connect 4 0 15 0;
#X connect 5 0 13 1;
#X connect 7 0 8 1;
#X connect 7 0 29 0;
#X connect 8 0 7 0;
#X connect 9 0 53 0;
#X connect 10 0 9 0;
#X connect 11 0 20 0;
#X connect 12 0 53 0;
#X connect 13 0 58 0;
#X connect 14 0 70 0;
#X connect 15 0 10 1;
#X connect 16 0 8 1;
#X connect 16 0 7 1;
#X connect 17 0 11 1;
#X connect 18 0 4 1;
#X connect 19 0 39 0;
#X connect 21 0 14 2;
#X connect 22 0 12 2;
#X connect 23 0 9 2;
#X connect 25 0 5 1;
#X connect 26 0 15 1;
#X connect 28 0 12 1;
#X connect 29 0 11 1;
#X connect 29 0 31 1;
#X connect 29 1 11 0;
#X connect 30 0 27 0;
#X connect 30 1 8 0;
#X connect 31 0 37 0;
#X connect 32 0 13 0;
#X connect 32 1 10 0;
#X connect 32 2 67 0;
#X connect 32 3 31 0;
#X connect 33 0 34 0;
#X connect 34 0 35 0;
#X connect 35 0 31 0;
#X connect 36 0 34 0;
#X connect 37 0 41 0;
#X connect 38 0 47 0;
#X connect 44 0 43 0;
#X connect 45 0 44 0;
#X connect 45 1 51 0;
#X connect 46 0 48 0;
#X connect 47 0 46 0;
#X connect 47 1 32 0;
#X connect 47 2 0 0;
#X connect 48 0 50 0;
#X connect 48 1 49 0;
#X connect 49 0 46 1;
#X connect 50 0 43 0;
#X connect 51 0 46 1;
#X connect 52 0 72 0;
#X connect 53 0 19 0;
#X connect 54 0 55 0;
#X connect 55 0 53 1;
#X connect 56 0 59 0;
#X connect 57 0 56 1;
#X connect 58 0 56 0;
#X connect 58 1 12 0;
#X connect 59 0 19 0;
#X connect 60 0 59 1;
#X connect 61 0 70 0;
#X connect 62 0 1 0;
#X connect 62 1 67 1;
#X connect 63 0 14 0;
#X connect 64 0 65 0;
#X connect 65 0 63 1;
#X connect 66 0 63 0;
#X connect 66 1 68 0;
#X connect 67 0 66 0;
#X connect 68 0 61 0;
#X connect 69 0 68 1;
#X connect 70 0 40 0;
#X connect 71 0 45 0;
#X connect 72 0 61 1;
#X restore 575 360 pd cont;
#X f 39;
#N canvas 0 23 1300 754 new 0;
#X obj 372 178 unpack 0 0 0, f 91;
#X msg 1006 286 1 \$1;
#X obj 1006 309 /;
#X obj 372 226 t f f b, f 23;
#X obj 530 316 f 0;
#X obj 372 374 pow;
#X text 574 477 last position;
#X obj 771 258 f;
#X obj 733 258 + 0;
#X obj 535 506 pack 0 0 0;
#X obj 535 477 f;
#X obj 803 344 f 0;
#X obj 354 513 pack 0 0 0;
#X obj 354 484 f;
#X obj 1027 525 pack 0 0 0;
#X obj 1027 496 f;
#X obj 1006 259 t a a, f 6;
#X obj 530 390 pow;
#X obj 789 217 r \$0-restart;
#X obj 821 305 r \$0-restart;
#X obj 548 281 r \$0-restart;
#X obj 249 147 t b a, f 18;
#X obj 354 587 t a;
#X obj 803 374 s \$0-last-time;
#X obj 1094 492 r \$0-last-time;
#X obj 422 472 r \$0-last-time;
#X obj 602 460 r \$0-last-time;
#X obj 1006 332 s \$0-pow-inv;
#X obj 390 346 r \$0-pow-inv;
#X obj 548 364 r \$0-pow-inv;
#X obj 689 395 s \$0-new-time;
#X obj 387 449 r \$0-new-time;
#X obj 771 295 t f b;
#X obj 689 216 t a a;
#X obj 745 676 del;
#X obj 448 412 t b b b b, f 31;
#X obj 794 503 r \$0-restart;
#X obj 794 556 t b;
#X msg 794 579 stop;
#X obj 839 527 r \$0-off;
#X obj 745 699 t b;
#X obj 249 102 inlet;
#X obj 354 640 outlet 2-amp-vline;
#X obj 506 638 outlet 2-curve-vline;
#X obj 745 722 outlet 2-finish-bang;
#X connect 0 0 3 0;
#X connect 0 1 33 0;
#X connect 0 2 16 0;
#X connect 1 0 2 0;
#X connect 2 0 27 0;
#X connect 3 0 5 0;
#X connect 3 1 4 1;
#X connect 3 2 4 0;
#X connect 4 0 17 0;
#X connect 5 0 13 1;
#X connect 7 0 8 1;
#X connect 7 0 32 0;
#X connect 8 0 7 0;
#X connect 9 0 22 0;
#X connect 10 0 9 0;
#X connect 11 0 23 0;
#X connect 12 0 22 0;
#X connect 13 0 12 0;
#X connect 14 0 43 0;
#X connect 15 0 14 0;
#X connect 16 0 1 0;
#X connect 16 1 15 1;
#X connect 17 0 10 1;
#X connect 18 0 8 1;
#X connect 18 0 7 1;
#X connect 19 0 11 1;
#X connect 20 0 4 1;
#X connect 21 0 35 0;
#X connect 21 1 0 0;
#X connect 22 0 42 0;
#X connect 24 0 14 2;
#X connect 25 0 12 2;
#X connect 26 0 9 2;
#X connect 28 0 5 1;
#X connect 29 0 17 1;
#X connect 31 0 12 1;
#X connect 32 0 11 1;
#X connect 32 0 34 1;
#X connect 32 1 11 0;
#X connect 33 0 30 0;
#X connect 33 1 8 0;
#X connect 34 0 40 0;
#X connect 35 0 13 0;
#X connect 35 1 10 0;
#X connect 35 2 15 0;
#X connect 35 3 34 0;
#X connect 36 0 37 0;
#X connect 37 0 38 0;
#X connect 38 0 34 0;
#X connect 39 0 37 0;
#X connect 40 0 44 0;
#X connect 41 0 21 0;
#X restore 389 473 pd new;
#X f 39;
#X obj 620 70 r \$0-new;
#X obj 620 93 t b b;
#X msg 620 116 1;
#X msg 652 117 0;
#X obj 688 92 t b b;
#X msg 688 115 1;
#X msg 721 116 0;
#X obj 621 157 f;
#X obj 679 156 f;
#X obj 688 69 r \$0-cont;
#X obj 63 222 t b b b, f 13;
#X obj 151 248 s \$0-new;
#X obj 226 199 s \$0-restart;
#X msg 226 171 0;
#X obj 314 142 s \$0-cont;
#X obj 315 697 *~, f 11;
#X msg 110 469 0 3;
#X msg 183 467 1 3;
#X obj 226 113 t b b b, f 13;
#X obj 270 168 s \$0-on;
#X obj 919 593 r \$0-on;
#X obj 919 616 t b;
#X msg 919 639 1;
#X obj 722 643 t b;
#X msg 722 666 0;
#X connect 0 0 9 0;
#X connect 1 0 9 1;
#X connect 2 0 23 0;
#X connect 5 0 7 0;
#X connect 6 0 5 0;
#X connect 8 0 42 0;
#X connect 9 0 41 1;
#X connect 10 0 43 0;
#X connect 11 0 12 0;
#X connect 12 0 41 0;
#X connect 13 0 14 0;
#X connect 14 0 1 0;
#X connect 17 0 25 0;
#X connect 18 0 24 0;
#X connect 19 0 17 0;
#X connect 19 1 18 0;
#X connect 21 0 20 0;
#X connect 23 0 36 0;
#X connect 23 1 44 0;
#X connect 23 2 19 0;
#X connect 24 0 0 0;
#X connect 24 1 1 0;
#X connect 24 2 49 0;
#X connect 25 0 0 0;
#X connect 25 1 1 0;
#X connect 25 2 49 0;
#X connect 26 0 27 0;
#X connect 27 0 28 0;
#X connect 27 1 29 0;
#X connect 28 0 33 0;
#X connect 29 0 34 0;
#X connect 30 0 31 0;
#X connect 30 1 32 0;
#X connect 31 0 34 0;
#X connect 32 0 33 0;
#X connect 33 0 17 1;
#X connect 34 0 18 1;
#X connect 35 0 30 0;
#X connect 36 0 21 0;
#X connect 36 1 22 0;
#X connect 36 2 37 0;
#X connect 39 0 38 0;
#X connect 41 0 4 0;
#X connect 42 0 11 0;
#X connect 43 0 11 0;
#X connect 44 0 39 0;
#X connect 44 1 45 0;
#X connect 44 2 40 0;
#X connect 46 0 47 0;
#X connect 47 0 48 0;
#X connect 48 0 3 0;
#X connect 49 0 50 0;
#X connect 50 0 3 0;
