#N canvas 300 61 720 668 12;
#X obj 216 254 + 1;
#X obj 180 252 f 0;
#X obj 216 278 <= 1;
#X obj 110 388 spigot 0;
#X obj 233 390 spigot 0;
#X obj 110 339 t a a, f 11;
#X obj 216 301 sel 0 1, f 24;
#X msg 216 347 1;
#X msg 298 351 1;
#X obj 216 324 t b b b;
#X msg 249 346 0;
#X msg 332 352 0;
#X obj 298 326 t b b b;
#X obj 110 458 j-complex-env-block;
#X obj 285 459 j-complex-env-block;
#X obj 110 559 outlet~;
#X obj 110 113 route new, f 14;
#X obj 110 193 t a b;
#X msg 110 136 new;
#X obj 415 557 outlet finish-bang;
#X obj 110 67 inlet stream-of-messages;
#X connect 0 0 2 0;
#X connect 1 0 0 0;
#X connect 2 0 1 1;
#X connect 2 0 6 0;
#X connect 3 0 13 0;
#X connect 4 0 14 0;
#X connect 5 0 3 0;
#X connect 5 1 4 0;
#X connect 6 0 9 0;
#X connect 6 1 12 0;
#X connect 7 0 3 1;
#X connect 8 0 4 1;
#X connect 9 0 7 0;
#X connect 9 1 14 1;
#X connect 9 2 10 0;
#X connect 10 0 4 1;
#X connect 11 0 3 1;
#X connect 12 0 8 0;
#X connect 12 1 13 1;
#X connect 12 2 11 0;
#X connect 13 0 15 0;
#X connect 13 1 19 0;
#X connect 14 0 15 0;
#X connect 14 1 19 0;
#X connect 16 0 18 0;
#X connect 16 1 5 0;
#X connect 17 0 5 0;
#X connect 17 1 1 0;
#X connect 18 0 17 0;
#X connect 20 0 16 0;
