#N canvas 491 174 884 602 10;
#X obj 91 223 <;
#X obj 91 245 sel 1;
#X obj 128 388 + 1;
#X obj 42 477 +, f 26;
#X obj 42 524 t f f;
#X obj 91 387 f 0;
#X obj 42 502 i;
#X obj 224 290 sel 1;
#X obj 224 267 >=, f 4;
#X obj 245 226 - 1;
#X text 444 268 arg2: loop time in beats;
#X text 445 249 arg1: tick number(this matches master ticks-arg);
#X obj 224 311 t b b, f 17;
#X obj 566 47 s \$0-onoff;
#X obj 87 48 r \$0-onoff;
#X obj 90 191 t f f;
#X obj 429 49 route sync free;
#X obj 140 165 spigot 0;
#X obj 141 206 t b b;
#X msg 201 177 0;
#X msg 429 90 1;
#X obj 429 70 t b;
#X obj 472 72 t b;
#X obj 41 125 t f f f, f 17;
#X obj 140 186 sel 0;
#X obj 244 100 f \$2;
#X obj 42 79 spigot 0;
#X obj 69 548 s \$0-check;
#X obj 224 204 r \$0-check;
#X obj 142 407 r \$0-size;
#X obj 91 429 * \$1, f 9;
#X obj 244 153 * \$1;
#X obj 273 47 r \$0-onoff;
#X obj 273 68 sel 1;
#X obj 245 19 inlet;
#X text 285 19 loop in beats;
#X obj 42 19 inlet;
#X text 77 18 metro-360;
#X obj 430 27 inlet;
#X text 467 29 restart;
#X obj 566 26 inlet;
#X text 606 25 on/off;
#X obj 323 413 outlet;
#X text 369 414 new measure;
#X obj 42 571 outlet;
#X text 92 573 looped-count;
#X obj 224 338 f 0;
#X obj 224 359 t f f;
#X connect 0 0 1 0;
#X connect 1 0 5 0;
#X connect 2 0 5 1;
#X connect 3 0 6 0;
#X connect 4 0 44 0;
#X connect 4 1 27 0;
#X connect 5 0 2 0;
#X connect 5 0 30 0;
#X connect 6 0 4 0;
#X connect 7 0 12 0;
#X connect 8 0 7 0;
#X connect 9 0 8 1;
#X connect 12 0 46 0;
#X connect 12 1 42 0;
#X connect 14 0 26 1;
#X connect 15 0 0 1;
#X connect 15 1 0 0;
#X connect 16 0 21 0;
#X connect 16 1 22 0;
#X connect 17 0 24 0;
#X connect 18 0 12 0;
#X connect 18 1 19 0;
#X connect 19 0 17 1;
#X connect 20 0 17 1;
#X connect 21 0 20 0;
#X connect 22 0 46 0;
#X connect 23 0 3 0;
#X connect 23 1 15 0;
#X connect 23 2 17 0;
#X connect 24 0 18 0;
#X connect 25 0 31 0;
#X connect 26 0 23 0;
#X connect 28 0 8 0;
#X connect 29 0 30 1;
#X connect 30 0 3 1;
#X connect 31 0 9 0;
#X connect 32 0 33 0;
#X connect 33 0 25 0;
#X connect 34 0 25 0;
#X connect 36 0 26 0;
#X connect 38 0 16 0;
#X connect 40 0 13 0;
#X connect 46 0 47 0;
#X connect 47 0 5 1;
#X connect 47 1 3 1;
