#N canvas 491 174 884 602 10;
#X obj 91 223 <;
#X obj 91 245 sel 1;
#X obj 128 368 + 1;
#X obj 42 477 +, f 26;
#X obj 91 429 * 360, f 9;
#X obj 42 540 t f f;
#X msg 224 332 0;
#X obj 91 367 f 0;
#X obj 42 19 inlet metro-360;
#X obj 42 587 outlet looped-count;
#X obj 245 19 inlet loop in beats;
#X obj 245 151 * 360;
#X obj 281 39 loadbang;
#X obj 42 502 i;
#X obj 224 290 sel 1;
#X obj 224 267 >=, f 4;
#X obj 429 27 inlet restart;
#X obj 245 226 - 1;
#X obj 281 60 t b b, f 7;
#X obj 320 132 t f f;
#X text 444 268 arg2: loop time in beats;
#X text 445 249 arg1: tick number(this matches master ticks-arg);
#X obj 251 414 outlet new measure;
#X obj 224 311 t b b;
#X obj 566 26 inlet on/off;
#X obj 566 47 s \$0-onoff;
#X obj 87 48 r \$0-onoff;
#X obj 90 191 t f f;
#X obj 429 49 route sync free;
#X obj 140 165 spigot 0;
#X obj 141 206 t b b;
#X msg 201 177 0;
#X msg 429 90 1;
#X obj 429 70 t b;
#X obj 472 72 t b;
#X msg 561 125 sync bang;
#X obj 41 125 t f f f, f 17;
#X obj 140 186 sel 0;
#X obj 320 82 i \$1;
#X obj 281 81 f \$2;
#X obj 42 79 spigot 0;
#X obj 69 564 s \$0-check;
#X obj 224 204 r \$0-check;
#X obj 343 157 s \$0-size;
#X obj 142 402 r \$0-size;
#X connect 0 0 1 0;
#X connect 1 0 7 0;
#X connect 2 0 7 1;
#X connect 3 0 13 0;
#X connect 4 0 3 1;
#X connect 5 0 9 0;
#X connect 5 1 41 0;
#X connect 6 0 7 1;
#X connect 6 0 3 1;
#X connect 7 0 2 0;
#X connect 7 0 4 0;
#X connect 8 0 40 0;
#X connect 10 0 11 0;
#X connect 11 0 17 0;
#X connect 12 0 18 0;
#X connect 13 0 5 0;
#X connect 14 0 23 0;
#X connect 15 0 14 0;
#X connect 16 0 28 0;
#X connect 17 0 15 1;
#X connect 18 0 39 0;
#X connect 18 1 38 0;
#X connect 19 0 11 1;
#X connect 19 1 43 0;
#X connect 23 0 6 0;
#X connect 23 1 22 0;
#X connect 24 0 25 0;
#X connect 26 0 40 1;
#X connect 27 0 0 1;
#X connect 27 1 0 0;
#X connect 28 0 33 0;
#X connect 28 1 34 0;
#X connect 29 0 37 0;
#X connect 30 0 23 0;
#X connect 30 1 31 0;
#X connect 31 0 29 1;
#X connect 32 0 29 1;
#X connect 33 0 32 0;
#X connect 34 0 6 0;
#X connect 36 0 3 0;
#X connect 36 1 27 0;
#X connect 36 2 29 0;
#X connect 37 0 30 0;
#X connect 38 0 19 0;
#X connect 39 0 11 0;
#X connect 40 0 36 0;
#X connect 42 0 15 0;
#X connect 44 0 4 1;
