#N canvas 146 63 1068 720 10;
#X obj 11 14 inlet;
#X text 47 13 ticks;
#X obj 11 653 outlet;
#X obj 532 138 inlet;
#X obj 11 153 spigot 0;
#X text 574 139 messages;
#X obj 579 402 s \$0-start;
#X obj 142 31 f 1;
#X obj 709 376 s \$0-stop;
#X obj 56 38 r \$0-stop;
#X obj 83 79 f 0;
#X obj 532 387 i;
#X obj 532 366 * 360;
#X obj 532 408 - 1;
#X obj 421 375 r \$0-check;
#X obj 421 487 sel 1;
#X obj 421 466 >= 360, f 19;
#X obj 421 538 t b b, f 22;
#X obj 122 318 t f f;
#X obj 122 366 sel 1;
#X obj 212 238 spigot 0;
#X obj 370 259 f 0;
#X obj 421 589 f 0;
#X obj 122 467 f 0;
#X obj 162 467 + 1;
#X obj 421 610 s \$0-erase;
#X obj 137 396 r \$0-erase;
#X obj 122 498 * 360;
#X obj 11 550 +, f 14;
#X obj 35 500 r \$0-erase;
#X obj 11 571 i;
#X obj 11 592 t f f;
#X obj 38 619 s \$0-check;
#X obj 550 655 outlet;
#X text 601 635 new measure;
#X obj 532 159 route count start stop freeStart, f 43;
#X obj 723 217 s \$0-free;
#X obj 267 481 r \$0-free;
#X obj 142 10 r \$0-start;
#X obj 11 186 t f f, f 34;
#X obj 11 257 spigot 0;
#X obj 11 278 t f f, f 19;
#X obj 56 231 r \$0-open;
#X obj 212 382 f 1;
#X obj 213 411 s \$0-open;
#X obj 690 398 f 0;
#X obj 690 419 s \$0-open;
#X obj 532 334 f \$1;
#X text 453 22 Arg1: Length to count in beats (converted to 360 ticks)
;
#X obj 786 399 s \$0-open;
#X obj 690 337 t b b b;
#X obj 786 370 f 0;
#X obj 38 304 r \$0-erase;
#X obj 723 186 t b b;
#X obj 579 347 t b b b;
#X obj 339 188 f 0;
#X obj 339 209 s \$0-erase;
#X obj 142 58 t f f b, f 21;
#X obj 212 261 t f f;
#X obj 212 309 sel 1;
#X obj 212 288 < 0, f 8;
#X obj 122 345 < 0;
#X obj 257 260 r \$0-erase;
#X obj 137 417 t b;
#X obj 137 438 f 1;
#X obj 212 336 t b b b, f 9;
#X obj 267 502 f 1;
#X obj 286 593 s \$0-open;
#X obj 267 527 t f f b;
#X obj 56 59 t b b;
#X obj 44 97 f 0;
#X obj 44 118 s \$0-erase;
#X connect 0 0 4 0;
#X connect 3 0 35 0;
#X connect 4 0 39 0;
#X connect 7 0 57 0;
#X connect 9 0 69 0;
#X connect 10 0 4 1;
#X connect 11 0 13 0;
#X connect 12 0 11 0;
#X connect 13 0 16 1;
#X connect 14 0 16 0;
#X connect 15 0 17 0;
#X connect 16 0 15 0;
#X connect 17 0 22 0;
#X connect 17 1 33 0;
#X connect 18 0 61 1;
#X connect 18 1 61 0;
#X connect 19 0 23 0;
#X connect 20 0 58 0;
#X connect 21 0 20 1;
#X connect 22 0 25 0;
#X connect 23 0 24 0;
#X connect 23 0 27 0;
#X connect 24 0 23 1;
#X connect 26 0 63 0;
#X connect 27 0 28 1;
#X connect 28 0 30 0;
#X connect 29 0 28 1;
#X connect 30 0 31 0;
#X connect 31 0 2 0;
#X connect 31 1 32 0;
#X connect 35 0 47 0;
#X connect 35 1 54 0;
#X connect 35 2 50 0;
#X connect 35 3 53 0;
#X connect 37 0 66 0;
#X connect 38 0 7 0;
#X connect 39 0 40 0;
#X connect 39 1 20 0;
#X connect 40 0 41 0;
#X connect 41 0 28 0;
#X connect 41 1 18 0;
#X connect 42 0 40 1;
#X connect 43 0 44 0;
#X connect 45 0 46 0;
#X connect 47 0 12 0;
#X connect 50 0 45 0;
#X connect 50 1 8 0;
#X connect 50 2 51 0;
#X connect 51 0 49 0;
#X connect 52 0 61 1;
#X connect 53 0 36 0;
#X connect 53 1 47 0;
#X connect 54 0 6 0;
#X connect 54 1 45 0;
#X connect 54 2 47 0;
#X connect 55 0 56 0;
#X connect 57 0 4 1;
#X connect 57 1 20 1;
#X connect 57 2 55 0;
#X connect 58 0 60 1;
#X connect 58 1 60 0;
#X connect 59 0 65 0;
#X connect 60 0 59 0;
#X connect 61 0 19 0;
#X connect 62 0 60 1;
#X connect 63 0 64 0;
#X connect 64 0 23 1;
#X connect 65 0 43 0;
#X connect 65 2 21 0;
#X connect 66 0 68 0;
#X connect 68 0 4 1;
#X connect 68 1 67 0;
#X connect 68 2 22 0;
#X connect 69 0 70 0;
#X connect 69 1 10 0;
#X connect 70 0 71 0;
