#N canvas 629 55 646 486 12;
#X obj 19 14 inlet 0 - 127;
#X obj 206 21 inlet ads;
#X obj 327 19 inlet r;
#N canvas 0 23 450 300 absolute-points 0;
#X obj 37 37 inlet;
#X obj 37 60 route clear;
#X obj 111 273 outlet;
#X obj 111 91 unpack 0 0 0;
#X obj 197 168 f;
#X obj 151 128 t a a b;
#X msg 70 130 0;
#X obj 151 211 -;
#X obj 111 244 pack 0 0 0;
#X obj 38 84 t b b;
#X msg 38 165 clear;
#X connect 0 0 1 0;
#X connect 1 0 9 0;
#X connect 1 1 3 0;
#X connect 3 0 8 0;
#X connect 3 1 5 0;
#X connect 3 2 8 2;
#X connect 4 0 7 1;
#X connect 5 0 7 0;
#X connect 5 1 4 1;
#X connect 5 2 4 0;
#X connect 6 0 4 1;
#X connect 7 0 8 1;
#X connect 8 0 2 0;
#X connect 9 0 10 0;
#X connect 9 1 6 0;
#X connect 10 0 2 0;
#X restore 35 173 pd absolute-points;
#N canvas 125 35 1258 775 complex! 0;
#X obj 309 178 unpack 0 0 0, f 91;
#X msg 944 286 1 \$1;
#X obj 944 309 /;
#X obj 309 226 t f f b, f 27;
#X obj 467 327 f 0;
#X obj 309 374 pow;
#X text 511 477 last position;
#X obj 708 258 f;
#X obj 670 258 + 0;
#X obj 472 506 pack 0 0 0;
#X obj 472 477 f;
#X obj 740 344 f 0;
#X obj 291 513 pack 0 0 0;
#X obj 291 484 f;
#X obj 965 525 pack 0 0 0;
#X obj 965 496 f;
#X obj 944 259 t a a, f 6;
#X obj 278 625 vline~;
#X obj 359 620 vline~;
#X obj 278 648 pow~, f 12;
#X obj 467 370 pow;
#X obj 62 159 s \$0-restart;
#X obj 726 217 r \$0-restart;
#X obj 758 305 r \$0-restart;
#X obj 504 292 r \$0-restart;
#X obj 186 147 t b a, f 18;
#X obj 278 584 t a;
#X obj 740 374 s \$0-last-time;
#X obj 1032 492 r \$0-last-time;
#X obj 359 472 r \$0-last-time;
#X obj 539 460 r \$0-last-time;
#X obj 944 332 s \$0-pow-inv;
#X obj 324 346 r \$0-pow-inv;
#X obj 511 345 r \$0-pow-inv;
#X msg 62 131 0;
#X obj 626 395 s \$0-new-time;
#X obj 324 449 r \$0-new-time;
#X obj 708 295 t f b;
#X obj 626 216 t a a;
#X obj 62 80 route clear;
#X obj 62 43 inlet;
#X obj 62 103 t b b;
#X obj 682 596 del;
#X obj 385 412 t b b b b, f 31;
#X obj 731 503 r \$0-restart;
#X obj 731 526 t b;
#X msg 731 549 stop;
#X obj 682 619 outlet finished;
#X obj 278 671 outlet~;
#X connect 0 0 3 0;
#X connect 0 1 38 0;
#X connect 0 2 16 0;
#X connect 1 0 2 0;
#X connect 2 0 31 0;
#X connect 3 0 5 0;
#X connect 3 1 4 1;
#X connect 3 2 4 0;
#X connect 4 0 20 0;
#X connect 5 0 13 1;
#X connect 7 0 8 1;
#X connect 7 0 37 0;
#X connect 8 0 7 0;
#X connect 9 0 26 0;
#X connect 10 0 9 0;
#X connect 11 0 27 0;
#X connect 12 0 26 0;
#X connect 13 0 12 0;
#X connect 14 0 18 0;
#X connect 15 0 14 0;
#X connect 16 0 1 0;
#X connect 16 1 15 1;
#X connect 17 0 19 0;
#X connect 18 0 19 1;
#X connect 19 0 48 0;
#X connect 20 0 10 1;
#X connect 22 0 8 1;
#X connect 22 0 7 1;
#X connect 23 0 11 1;
#X connect 24 0 4 1;
#X connect 25 0 43 0;
#X connect 25 1 0 0;
#X connect 26 0 17 0;
#X connect 28 0 14 2;
#X connect 29 0 12 2;
#X connect 30 0 9 2;
#X connect 32 0 5 1;
#X connect 33 0 20 1;
#X connect 34 0 21 0;
#X connect 36 0 12 1;
#X connect 37 0 11 1;
#X connect 37 0 42 1;
#X connect 37 1 11 0;
#X connect 38 0 35 0;
#X connect 38 1 8 0;
#X connect 39 0 41 0;
#X connect 39 1 25 0;
#X connect 40 0 39 0;
#X connect 41 0 34 0;
#X connect 42 0 47 0;
#X connect 43 0 13 0;
#X connect 43 1 10 0;
#X connect 43 2 15 0;
#X connect 43 3 42 0;
#X connect 44 0 45 0;
#X connect 45 0 46 0;
#X connect 46 0 42 0;
#X restore 60 391 pd complex!;
#X obj 160 433 bng 15 250 50 0 empty empty empty 17 7 0 10 -262144
-1 -1;
#X obj 429 408 array define \$0-ads-tab 4410;
#X obj 430 435 array define \$0-r-tab 4410;
#X msg 105 130 clear \, 1 0 0.5 \, 0 16 2 \, 0.9 20 2 \, 0 24 2 \,
0.8 28 0.2 \, 0 100 4;
#X msg 26 89 clear \, 1 1 0.5 \, 0 16 2 \, 0.9 20 2 \, 0 24 2 \, 0.8
28 2 \, 0 100 4;
#X obj 60 414 outlet~;
#X msg 70 205 clear \, 1 8 0.5 \, 0 320 2 \, 0.9 100 2 \, 0 300 2 \,
0.8 200 0.9 \, 0 2000 2;
#X connect 3 0 4 0;
#X connect 4 0 10 0;
#X connect 4 1 5 0;
#X connect 8 0 3 0;
#X connect 9 0 3 0;
#X connect 11 0 4 0;
