#N canvas 86 155 450 440 10;
#X obj 45 182 f;
#X obj 76 182 + 1;
#X text 266 127 Arg1: Resolution;
#X obj 45 233 % \$1, f 12;
#X obj 45 254 / \$1, f 15;
#X obj 45 305 outlet f(0-1);
#X obj 45 28 inlet on/off;
#X obj 260 54 i;
#X obj 260 33 inlet re-start(int);
#X obj 45 152 metro \$2;
#X obj 144 76 /;
#X obj 90 127 max 1;
#X obj 144 29 inlet bpm;
#X text 267 152 Arg2: Note division;
#X msg 144 55 240000 \$1;
#X obj 144 99 / \$2;
#X connect 0 0 1 0;
#X connect 0 0 3 0;
#X connect 1 0 0 1;
#X connect 3 0 4 0;
#X connect 4 0 5 0;
#X connect 6 0 9 0;
#X connect 7 0 0 1;
#X connect 8 0 7 0;
#X connect 9 0 0 0;
#X connect 10 0 15 0;
#X connect 11 0 9 1;
#X connect 12 0 14 0;
#X connect 14 0 10 0;
#X connect 15 0 11 0;
