#N canvas 120 25 1116 648 12;
#X obj 16 17 inlet;
#X text 61 16 increase;
#X obj 195 17 inlet;
#X text 240 16 decrease;
#X obj 170 311 sel 0 1, f 25;
#X obj 103 69 v \$0-dir;
#X text 577 555 0 = increase;
#X text 577 581 1 = decrease;
#X obj 16 41 t b b, f 15;
#X obj 16 166 *, f 6;
#X obj 103 93 sel 0 1, f 11;
#X obj 103 117 f 1;
#X obj 140 117 f -1;
#X obj 297 73 v \$0-dir;
#X obj 195 45 t b b, f 15;
#X obj 195 170 *, f 6;
#X obj 297 97 sel 0 1, f 11;
#X obj 297 121 f -1;
#X obj 334 121 f 1;
#X obj 170 657 sel 0 1;
#X obj 256 398 sel 1 2, f 14;
#X obj 193 707 sel 1 2, f 12;
#X obj 335 520 v \$0-dir;
#X obj 303 465 t b b;
#X obj 266 826 v \$0-dir;
#X obj 234 771 t b b;
#X obj 18 408 outlet;
#X text 69 410 count;
#X obj 495 16 inlet;
#X text 542 16 change max loop;
#X obj 667 19 inlet;
#X text 714 19 change step;
#X obj 805 17 inlet;
#X text 852 17 change mode;
#X obj 495 40 s \$0-max;
#X obj 202 261 r \$0-max;
#X obj 218 740 r \$0-max;
#X obj 667 43 s \$0-step;
#X obj 29 64 r \$0-step;
#X obj 218 71 r \$0-step;
#X obj 805 41 s \$0-mode;
#X obj 258 639 r \$0-mode;
#X text 525 291 This object counts from first step - inf;
#X obj 321 15 inlet;
#X text 368 15 change min loop;
#X obj 321 39 s \$0-min;
#X text 474 128 Arg 1: min loop;
#X text 474 164 Arg 3: step;
#X text 475 144 Arg 2: max loop;
#X obj 202 604 r \$0-min;
#X obj 193 771 f \$2;
#X obj 256 462 f \$1;
#X obj 281 435 r \$0-min;
#X obj 16 102 f \$3;
#X obj 195 106 f \$3;
#X obj 256 374 f \$4, f 6;
#X obj 193 683 f \$4;
#X obj 170 392 f;
#X obj 295 339 r \$0-mode;
#X obj 170 577 t a a, f 13;
#X obj 170 821 f;
#X obj 170 232 t a a a, f 33;
#X obj 303 508 f;
#X text 480 193 Arg 4: mode 1 = loop \, 2 = up down;
#X obj 256 547 s \$0-loop;
#X obj 77 211 r \$0-loop;
#X obj 170 845 s \$0-loop;
#X obj 335 491 f 1;
#X obj 266 797 f 0;
#X obj 170 286 > \$2;
#X obj 170 634 < \$1;
#X obj 62 251 + 1;
#X obj 16 207 t b a;
#X obj 16 251 f \$1;
#X connect 0 0 8 0;
#X connect 2 0 14 0;
#X connect 4 0 57 0;
#X connect 4 1 55 0;
#X connect 5 0 10 0;
#X connect 8 0 53 0;
#X connect 8 1 5 0;
#X connect 9 0 72 0;
#X connect 10 0 11 0;
#X connect 10 1 12 0;
#X connect 11 0 9 1;
#X connect 12 0 9 1;
#X connect 13 0 16 0;
#X connect 14 0 54 0;
#X connect 14 1 13 0;
#X connect 15 0 72 0;
#X connect 16 0 17 0;
#X connect 16 1 18 0;
#X connect 17 0 15 1;
#X connect 18 0 15 1;
#X connect 19 0 60 0;
#X connect 19 1 56 0;
#X connect 20 0 51 0;
#X connect 20 1 23 0;
#X connect 21 0 50 0;
#X connect 21 1 25 0;
#X connect 23 0 62 0;
#X connect 23 1 67 0;
#X connect 25 0 60 0;
#X connect 25 1 68 0;
#X connect 28 0 34 0;
#X connect 30 0 37 0;
#X connect 32 0 40 0;
#X connect 35 0 69 1;
#X connect 36 0 50 1;
#X connect 38 0 53 1;
#X connect 39 0 54 1;
#X connect 41 0 56 1;
#X connect 43 0 45 0;
#X connect 49 0 70 1;
#X connect 50 0 60 0;
#X connect 51 0 64 0;
#X connect 52 0 51 1;
#X connect 53 0 9 0;
#X connect 54 0 15 0;
#X connect 55 0 20 0;
#X connect 56 0 21 0;
#X connect 57 0 59 0;
#X connect 58 0 55 1;
#X connect 59 0 70 0;
#X connect 59 1 60 1;
#X connect 60 0 66 0;
#X connect 61 0 69 0;
#X connect 61 1 57 1;
#X connect 61 2 62 1;
#X connect 62 0 64 0;
#X connect 65 0 73 1;
#X connect 67 0 22 0;
#X connect 68 0 24 0;
#X connect 69 0 4 0;
#X connect 70 0 19 0;
#X connect 71 0 61 0;
#X connect 72 0 73 0;
#X connect 72 1 71 1;
#X connect 73 0 71 0;
#X connect 73 0 26 0;
