#N canvas 7 148 641 323 10;
#X obj 39 243 *~;
#X obj 253 260 *~;
#X obj 39 288 dac~ 1 2, f 31;
#X obj 38 44 *~ 0.9;
#X obj 37 149 hip~ 25;
#X obj 253 239 *~;
#X obj 253 160 lop~ 20000;
#X obj 38 18 inlet~ mono signal;
#X obj 38 218 *~;
#X obj 458 14 inlet control;
#N canvas 2 149 606 300 control 0;
#X obj 15 9 inlet;
#X obj 15 132 pow 2;
#X obj 15 154 lop~ 5;
#X obj 242 127 pow 2;
#X obj 242 149 lop~ 5;
#X obj 135 131 pow 2;
#X obj 135 153 lop~ 5;
#X obj 15 31 route master-vol woof-vol tweet-vol lo-x hi-x, f 80;
#X obj 366 79 loadbang;
#X obj 349 188 clip 25 5000;
#X obj 459 189 clip 1000 20000;
#X obj 358 133 f \$3;
#X obj 409 131 f \$4;
#X obj 126 61 clip 0 1;
#X obj 237 55 clip 0 1;
#X obj 15 53 clip 0 0.9;
#X obj 366 101 t b b b b, f 26;
#X obj 483 135 f \$1;
#X obj 534 133 f \$2;
#X obj 353 212 s \$0-low-cross;
#X obj 462 211 s \$0-high-cross;
#X obj 242 171 s~ \$0-tweeter-vol;
#X obj 135 175 s~ \$0-woof-vol;
#X obj 15 176 s~ \$0-master-vol;
#X connect 0 0 7 0;
#X connect 1 0 2 0;
#X connect 2 0 23 0;
#X connect 3 0 4 0;
#X connect 4 0 21 0;
#X connect 5 0 6 0;
#X connect 6 0 22 0;
#X connect 7 0 15 0;
#X connect 7 1 13 0;
#X connect 7 2 14 0;
#X connect 7 3 9 0;
#X connect 7 4 10 0;
#X connect 8 0 16 0;
#X connect 9 0 19 0;
#X connect 10 0 20 0;
#X connect 11 0 13 0;
#X connect 12 0 14 0;
#X connect 13 0 5 0;
#X connect 14 0 3 0;
#X connect 15 0 1 0;
#X connect 16 0 11 0;
#X connect 16 1 12 0;
#X connect 16 2 17 0;
#X connect 16 3 18 0;
#X connect 17 0 9 0;
#X connect 18 0 10 0;
#X restore 458 62 pd control;
#X obj 37 171 hip~ 25;
#X obj 197 17 catch~ out-woof;
#X obj 313 17 catch~ out-tweet;
#X text 188 36 go direct to the speaker \, but still protected by cross
over;
#X obj 37 81 lop~;
#X obj 254 83 hip~;
#X obj 37 103 lop~;
#X obj 254 108 hip~;
#X obj 313 95 clip 1300 20000;
#X obj 88 92 clip 29 4000;
#X obj 253 182 lop~ 20000;
#X text 447 108 Arg 1: woof freq;
#X text 444 131 Arg 2: tweet freq;
#X text 441 179 Arg 4: tweeter vol (0-1 float);
#X text 442 156 Arg 3: woof vol (0-1 float);
#X obj 314 73 r \$0-high-cross;
#X obj 97 51 r \$0-low-cross;
#X obj 56 195 r~ \$0-woof-vol;
#X obj 73 220 r~ \$0-master-vol;
#X obj 285 240 r~ \$0-master-vol;
#X obj 271 213 r~ \$0-tweeter-vol;
#X connect 0 0 2 0;
#X connect 1 0 2 1;
#X connect 3 0 15 0;
#X connect 3 0 16 0;
#X connect 4 0 11 0;
#X connect 5 0 1 0;
#X connect 6 0 21 0;
#X connect 7 0 3 0;
#X connect 8 0 0 0;
#X connect 9 0 10 0;
#X connect 11 0 8 0;
#X connect 12 0 15 0;
#X connect 13 0 16 0;
#X connect 15 0 17 0;
#X connect 16 0 18 0;
#X connect 17 0 4 0;
#X connect 18 0 6 0;
#X connect 19 0 16 1;
#X connect 19 0 18 1;
#X connect 20 0 15 1;
#X connect 20 0 17 1;
#X connect 21 0 5 0;
#X connect 26 0 19 0;
#X connect 27 0 20 0;
#X connect 28 0 8 1;
#X connect 29 0 0 1;
#X connect 30 0 1 1;
#X connect 31 0 5 1;
