#N canvas 416 210 883 424 12;
#X obj 25 19 inlet~ Audio In;
#X obj 25 377 delwrite~ \$0-del \$1;
#X text 195 8 Delay;
#X text 45 59 Arg1: max delay time \, buffer;
#X obj 420 157 delread4~ \$0-del \$1;
#X obj 420 17 inlet time;
#X obj 648 17 inlet feedback;
#X obj 420 182 hip~ 4;
#X obj 420 376 outlet~;
#X obj 420 125 lop~ 10;
#X obj 420 41 clip 0 \$1;
#X obj 648 41 clip 0 1;
#X obj 527 267 *~;
#X obj 648 163 lop~ 20;
#X text 45 79 Arg2: delay time;
#X text 45 99 Arg3: feedback amount;
#X obj 420 96 sig~ \$2;
#X obj 648 130 sig~ \$3;
#X connect 0 0 1 0;
#X connect 4 0 7 0;
#X connect 5 0 10 0;
#X connect 6 0 11 0;
#X connect 7 0 8 0;
#X connect 7 0 12 0;
#X connect 9 0 4 0;
#X connect 10 0 16 0;
#X connect 11 0 17 0;
#X connect 12 0 1 0;
#X connect 13 0 12 1;
#X connect 16 0 9 0;
#X connect 17 0 13 0;
