#N canvas 496 143 944 629 10;
#N canvas 219 181 641 634 tom 0;
#X obj 148 3 inlet;
#X obj 143 405 outlet~;
#X obj 161 272 vline~;
#X obj 143 335 *~, f 9;
#X obj 237 146 vline~;
#X obj 59 266 +~;
#X obj 237 168 pow~ 2;
#X obj 59 288 osc~;
#X obj 142 358 *~ 0.4;
#X obj 335 193 noise~;
#X obj 362 265 +~ 2000;
#X obj 381 337 *~;
#X obj 242 289 vline~;
#X obj 242 311 pow~ 2;
#X obj 362 243 *~ 16000;
#X obj 335 215 *~ 0.75;
#X obj 129 212 *~ 200;
#X obj 142 380 hip~ 1;
#X floatatom 78 185 5 0 0 0 - - -;
#X obj 148 136 t f f f;
#X msg 160 240 \$1 10 \, 0 300 10;
#X obj 148 64 / 127;
#X obj 148 85 sqrt;
#X obj 60 212 sig~ 200;
#X obj 158 34 t a b, f 40;
#X obj 519 335 switch~;
#X msg 498 276 1;
#X msg 562 189 stop;
#X obj 511 164 t b b b b;
#X msg 545 247 0;
#X obj 545 226 del 500;
#X msg 244 266 \$1 8 \, 0 10 8;
#X msg 237 121 \$1 1 \, 0 10 1;
#X obj 161 294 pow~ 3;
#X obj 335 296 vcf~ 4, f 8;
#X connect 0 0 24 0;
#X connect 2 0 33 0;
#X connect 3 0 8 0;
#X connect 4 0 6 0;
#X connect 5 0 7 0;
#X connect 6 0 14 0;
#X connect 6 0 16 0;
#X connect 7 0 3 0;
#X connect 8 0 17 0;
#X connect 9 0 15 0;
#X connect 10 0 34 1;
#X connect 11 0 3 0;
#X connect 12 0 13 0;
#X connect 13 0 11 1;
#X connect 14 0 10 0;
#X connect 15 0 34 0;
#X connect 16 0 5 1;
#X connect 17 0 1 0;
#X connect 18 0 23 0;
#X connect 19 0 20 0;
#X connect 19 1 32 0;
#X connect 19 2 31 0;
#X connect 20 0 2 0;
#X connect 21 0 22 0;
#X connect 22 0 19 0;
#X connect 23 0 5 0;
#X connect 24 0 21 0;
#X connect 24 1 28 0;
#X connect 26 0 25 0;
#X connect 27 0 30 0;
#X connect 28 1 26 0;
#X connect 28 2 30 0;
#X connect 28 3 27 0;
#X connect 29 0 25 0;
#X connect 30 0 29 0;
#X connect 31 0 12 0;
#X connect 32 0 4 0;
#X connect 33 0 3 1;
#X connect 34 1 11 0;
#X restore 152 148 pd tom;
#X obj 94 29 inlet trigger (int);
#N canvas 4 44 641 634 hi-hat 0;
#X obj 148 3 inlet;
#X obj 122 556 outlet~;
#X obj 122 486 *~, f 9;
#X obj 166 258 vline~;
#X obj 87 214 noise~;
#X obj 88 281 *~ 0.75;
#X obj 148 84 / 127;
#X obj 240 296 vline~;
#X obj 169 281 pow~ 8;
#X obj 229 145 sqrt;
#X obj 143 171 pow 0.125;
#X obj 121 531 hip~ 5;
#X obj 110 309 *~ 1000;
#X obj 88 362 vcf~ 4, f 8;
#X obj 240 216 pack 0 0;
#X obj 148 106 t f f f f, f 25;
#X obj 229 166 * 0.5;
#X obj 229 187 + 0.5;
#X obj 87 256 hip~ 300;
#X obj 176 314 pow~ 2;
#X obj 111 331 +~ 12000;
#X obj 170 360 +~ 6000;
#X obj 169 338 *~ 12000;
#X msg 171 234 1 1 \, 0 10 1 \, 0 200 11;
#X obj 287 162 * 400;
#X obj 7 313 osc~ 890;
#X obj 25 347 osc~ 1600;
#X obj 25 368 *~ 0.02;
#X obj 22 402 *~ 0.03;
#X obj 58 445 *~ 0.76;
#X obj 87 236 lop~ 18000;
#X obj 158 34 t a b, f 40;
#X obj 519 335 switch~;
#X msg 498 276 1;
#X msg 562 189 stop;
#X obj 511 164 t b b b b;
#X msg 545 247 0;
#X obj 545 226 del 210;
#X msg 244 271 \$1 5 \, 0.35 40 5 \, 0 \$2 45;
#X obj 123 508 *~ 0.7;
#X obj 111 422 vcf~ 4, f 14;
#X obj 240 318 pow~ 4;
#X connect 0 0 31 0;
#X connect 2 0 39 0;
#X connect 3 0 8 0;
#X connect 3 0 19 0;
#X connect 4 0 30 0;
#X connect 5 0 13 0;
#X connect 6 0 15 0;
#X connect 7 0 41 0;
#X connect 8 0 12 0;
#X connect 9 0 16 0;
#X connect 10 0 23 0;
#X connect 11 0 1 0;
#X connect 12 0 20 0;
#X connect 13 0 40 0;
#X connect 14 0 38 0;
#X connect 15 1 10 0;
#X connect 15 2 9 0;
#X connect 15 3 24 0;
#X connect 16 0 17 0;
#X connect 17 0 14 0;
#X connect 18 0 5 0;
#X connect 19 0 22 0;
#X connect 20 0 40 1;
#X connect 21 0 13 1;
#X connect 22 0 21 0;
#X connect 23 0 3 0;
#X connect 24 0 14 1;
#X connect 25 0 28 0;
#X connect 26 0 27 0;
#X connect 27 0 29 0;
#X connect 28 0 29 0;
#X connect 29 0 2 0;
#X connect 30 0 18 0;
#X connect 31 0 6 0;
#X connect 31 1 35 0;
#X connect 33 0 32 0;
#X connect 34 0 37 0;
#X connect 35 1 33 0;
#X connect 35 2 37 0;
#X connect 35 3 34 0;
#X connect 36 0 32 0;
#X connect 37 0 36 0;
#X connect 38 0 7 0;
#X connect 39 0 11 0;
#X connect 40 0 2 0;
#X connect 41 0 2 1;
#X restore 240 156 pd hi-hat;
#X obj 57 600 outlet~;
#X obj 152 170 throw~ \$0-bus;
#X obj 239 176 throw~ \$0-bus;
#X obj 57 579 catch~ \$0-bus;
#N canvas 78 202 639 537 soft-hat 0;
#X obj 148 5 inlet;
#X obj 145 503 outlet~;
#X obj 145 433 *~, f 9;
#X obj 66 215 noise~;
#X obj 148 74 / 127;
#X obj 240 286 vline~;
#X obj 229 135 sqrt;
#X obj 145 478 hip~ 5;
#X obj 240 206 pack 0 0;
#X obj 148 96 t f f f f, f 25;
#X obj 229 156 * 0.5;
#X obj 229 177 + 0.5;
#X obj 66 256 hip~ 2000;
#X obj 66 284 hip~ 2000;
#X obj 66 340 *~ 0.5;
#X obj 146 220 + 1000;
#X obj 146 199 * 8000;
#X obj 66 309 hip~ 2000, f 13;
#X obj 145 455 *~ 1.9;
#X obj 148 34 t a b, f 40;
#X obj 519 335 switch~;
#X msg 498 276 1;
#X msg 562 189 stop;
#X obj 511 164 t b b b b;
#X msg 545 247 0;
#X obj 545 226 del 550;
#X msg 240 261 \$1 3 \, 0 \$2 3;
#X obj 240 308 pow~ 2;
#X obj 287 152 * 300;
#X connect 0 0 19 0;
#X connect 2 0 18 0;
#X connect 3 0 12 0;
#X connect 4 0 9 0;
#X connect 5 0 27 0;
#X connect 6 0 10 0;
#X connect 7 0 1 0;
#X connect 8 0 26 0;
#X connect 9 1 16 0;
#X connect 9 2 6 0;
#X connect 9 3 28 0;
#X connect 10 0 11 0;
#X connect 11 0 8 0;
#X connect 12 0 13 0;
#X connect 13 0 17 0;
#X connect 14 0 2 0;
#X connect 15 0 12 1;
#X connect 15 0 13 1;
#X connect 15 0 17 1;
#X connect 16 0 15 0;
#X connect 17 0 14 0;
#X connect 18 0 7 0;
#X connect 19 0 4 0;
#X connect 19 1 23 0;
#X connect 21 0 20 0;
#X connect 22 0 25 0;
#X connect 23 1 21 0;
#X connect 23 2 25 0;
#X connect 23 3 22 0;
#X connect 24 0 20 0;
#X connect 25 0 24 0;
#X connect 26 0 5 0;
#X connect 27 0 2 1;
#X connect 28 0 8 1;
#X restore 324 215 pd soft-hat;
#X obj 324 236 throw~ \$0-bus;
#X obj 400 151 throw~ \$0-bus;
#N canvas 4 163 641 620 low-kick 0;
#X obj 148 3 inlet;
#X obj 143 425 outlet~;
#X obj 161 296 vline~;
#X obj 143 359 *~, f 9;
#X obj 161 318 pow~ 2;
#X obj 237 170 vline~;
#X obj 59 290 +~;
#X obj 59 312 osc~;
#X obj 143 381 *~ 0.4;
#X obj 335 217 noise~;
#X obj 280 397 *~;
#X obj 242 313 vline~;
#X obj 335 239 *~ 0.75;
#X obj 143 403 hip~ 1;
#X obj 414 265 *~ 12000;
#X obj 415 287 +~ 2000;
#X obj 242 335 pow~ 4;
#X obj 389 350 vcf~ 4, f 8;
#X obj 336 321 vcf~ 2, f 8;
#X obj 237 192 pow~ 4;
#X obj 129 236 *~ 1000;
#X obj 148 99 / 127;
#X obj 148 120 sqrt;
#X msg 238 146 \$1 1 \, 0 43 1;
#X msg 244 290 \$1 1 \, 0 60 1;
#X obj 148 160 t f f f;
#X msg 160 264 \$1 18 \, 0 1000 18;
#X obj 59 236 sig~ 45;
#X obj 148 34 t a b, f 40;
#X obj 519 335 switch~;
#X msg 498 276 1;
#X msg 562 189 stop;
#X obj 511 164 t b b b b;
#X msg 545 247 0;
#X obj 545 226 del 1020;
#X connect 0 0 28 0;
#X connect 2 0 4 0;
#X connect 3 0 8 0;
#X connect 4 0 3 1;
#X connect 5 0 19 0;
#X connect 6 0 7 0;
#X connect 7 0 3 0;
#X connect 8 0 13 0;
#X connect 9 0 12 0;
#X connect 10 0 3 0;
#X connect 11 0 16 0;
#X connect 12 0 18 0;
#X connect 13 0 1 0;
#X connect 14 0 15 0;
#X connect 15 0 17 1;
#X connect 15 0 18 1;
#X connect 16 0 10 1;
#X connect 16 0 14 0;
#X connect 17 0 10 0;
#X connect 18 1 17 0;
#X connect 19 0 20 0;
#X connect 20 0 6 1;
#X connect 21 0 22 0;
#X connect 22 0 25 0;
#X connect 23 0 5 0;
#X connect 24 0 11 0;
#X connect 25 0 26 0;
#X connect 25 1 23 0;
#X connect 25 2 24 0;
#X connect 26 0 2 0;
#X connect 27 0 6 0;
#X connect 28 0 21 0;
#X connect 28 1 32 0;
#X connect 30 0 29 0;
#X connect 31 0 34 0;
#X connect 32 1 30 0;
#X connect 32 2 34 0;
#X connect 32 3 31 0;
#X connect 33 0 29 0;
#X connect 34 0 33 0;
#X restore 400 130 pd low-kick;
#X obj 546 234 throw~ \$0-bus;
#N canvas 4 163 641 620 kick-vel-pitch 0;
#X obj 148 13 inlet;
#X obj 143 434 outlet~;
#X obj 161 305 vline~;
#X obj 143 368 *~, f 9;
#X obj 161 327 pow~ 2;
#X obj 237 179 vline~;
#X obj 59 299 +~;
#X obj 59 321 osc~;
#X obj 143 390 *~ 0.4;
#X obj 335 226 noise~;
#X obj 280 406 *~;
#X obj 242 322 vline~;
#X obj 335 248 *~ 0.75;
#X obj 59 245 sig~ 55;
#X obj 143 412 hip~ 1;
#X obj 414 274 *~ 12000;
#X obj 415 296 +~ 2000;
#X obj 242 344 pow~ 4;
#X obj 389 359 vcf~ 4, f 8;
#X obj 336 330 vcf~ 2, f 8;
#X obj 237 201 pow~ 4;
#X obj 129 245 *~ 1000;
#X obj 148 108 / 127;
#X obj 175 149 sqrt;
#X msg 238 155 \$1 1 \, 0 43 1;
#X msg 244 299 \$1 1 \, 0 60 1;
#X msg 160 273 \$1 18 \, 0 1000 18;
#X obj 47 154 * 100;
#X msg 100 107 1 \$1;
#X obj 100 128 -;
#X obj 47 175 + 45;
#X msg 146 148 0.9;
#X obj 148 129 t b f;
#X obj 148 169 t f f f;
#X obj 148 34 t a b, f 40;
#X obj 519 335 switch~;
#X msg 498 276 1;
#X msg 562 189 stop;
#X obj 511 164 t b b b b;
#X msg 545 247 0;
#X obj 545 226 del 1020;
#X connect 0 0 34 0;
#X connect 2 0 4 0;
#X connect 3 0 8 0;
#X connect 4 0 3 1;
#X connect 5 0 20 0;
#X connect 6 0 7 0;
#X connect 7 0 3 0;
#X connect 8 0 14 0;
#X connect 9 0 12 0;
#X connect 10 0 3 0;
#X connect 11 0 17 0;
#X connect 12 0 19 0;
#X connect 13 0 6 0;
#X connect 14 0 1 0;
#X connect 15 0 16 0;
#X connect 16 0 18 1;
#X connect 16 0 19 1;
#X connect 17 0 10 1;
#X connect 17 0 15 0;
#X connect 18 0 10 0;
#X connect 19 1 18 0;
#X connect 20 0 21 0;
#X connect 21 0 6 1;
#X connect 22 0 32 0;
#X connect 23 0 28 0;
#X connect 24 0 5 0;
#X connect 25 0 11 0;
#X connect 26 0 2 0;
#X connect 27 0 30 0;
#X connect 28 0 29 0;
#X connect 29 0 27 0;
#X connect 30 0 13 0;
#X connect 31 0 33 0;
#X connect 32 0 31 0;
#X connect 32 1 23 0;
#X connect 33 0 26 0;
#X connect 33 1 24 0;
#X connect 33 2 25 0;
#X connect 34 0 22 0;
#X connect 34 1 38 0;
#X connect 36 0 35 0;
#X connect 37 0 40 0;
#X connect 38 1 36 0;
#X connect 38 2 40 0;
#X connect 38 3 37 0;
#X connect 39 0 35 0;
#X connect 40 0 39 0;
#X restore 546 183 pd kick-vel-pitch;
#N canvas 449 220 972 611 clap! 0;
#X obj 148 13 inlet;
#X obj 237 422 outlet~;
#X obj 252 275 noise~;
#X obj 148 108 / 127;
#X obj 148 34 t a b, f 40;
#X obj 549 335 switch~;
#X msg 528 276 1;
#X msg 562 189 stop;
#X obj 511 164 t b b b b;
#X msg 545 247 0;
#X obj 113 205 vline~;
#X obj 252 297 *~ 0.75;
#X obj 319 238 vline~;
#X obj 545 226 del 800;
#X obj 147 131 t b f f;
#X obj 237 396 hip~ 4;
#X obj 237 322 *~;
#X obj 319 282 *~ 8000;
#X obj 237 345 vcf~ 2, f 8;
#X obj 237 374 vcf~ 4, f 20;
#X msg 319 220 \$1 1 \, 0.7 300 1 \, 0 100 300;
#X obj 319 259 pow~ 2;
#X obj 245 130 sqrt;
#X msg 113 184 1 8 \, 0 10 8 \, 0.95 8 18 \, 0 10 26 \, 0.9 8 36 \,
0 300 44, f 54;
#X obj 319 303 +~ 100;
#X obj 113 226 pow~ 8;
#X connect 0 0 4 0;
#X connect 2 0 11 0;
#X connect 3 0 14 0;
#X connect 4 0 3 0;
#X connect 4 1 8 0;
#X connect 6 0 5 0;
#X connect 7 0 13 0;
#X connect 8 1 6 0;
#X connect 8 2 13 0;
#X connect 8 3 7 0;
#X connect 9 0 5 0;
#X connect 10 0 25 0;
#X connect 11 0 16 1;
#X connect 12 0 21 0;
#X connect 13 0 9 0;
#X connect 14 0 23 0;
#X connect 14 2 22 0;
#X connect 15 0 1 0;
#X connect 16 0 18 0;
#X connect 17 0 24 0;
#X connect 18 0 19 0;
#X connect 19 0 15 0;
#X connect 20 0 12 0;
#X connect 21 0 17 0;
#X connect 22 0 20 0;
#X connect 23 0 10 0;
#X connect 24 0 18 1;
#X connect 24 0 19 1;
#X connect 25 0 16 0;
#X restore 577 137 pd clap!;
#X obj 577 158 throw~ \$0-bus;
#N canvas 0 23 934 783 ride 0;
#X obj 148 13 inlet;
#X obj 238 610 outlet~;
#X obj 335 281 noise~;
#X obj 148 108 / 127;
#X obj 148 34 t a b, f 40;
#X obj 549 335 switch~;
#X msg 528 276 1;
#X msg 562 189 stop;
#X obj 511 164 t b b b b;
#X msg 545 247 0;
#X obj 211 522 hip~ 5;
#X obj 90 279 vline~;
#X obj 414 296 +~ 2000;
#X obj 335 303 *~ 0.45;
#X obj 250 352 *~ 1;
#X obj 454 229 * 16000;
#X obj 414 274 *~ 10000;
#X obj 419 456 vline~;
#X obj 404 509 *~;
#X obj 504 456 vline~;
#X obj 489 499 *~;
#X obj 580 502 vline~;
#X obj 565 555 *~;
#X obj 565 454 osc~ 960;
#X obj 651 550 vline~;
#X obj 636 613 *~;
#X obj 250 396 *~;
#X obj 236 432 +~;
#X obj 504 477 pow~ 2;
#X obj 580 523 pow~ 2;
#X obj 651 571 pow~ 2;
#X obj 545 226 del 2200;
#X obj 489 408 osc~ 485;
#X obj 336 359 vcf~ 6, f 8;
#X obj 336 330 vcf~ 8, f 8;
#X msg 326 114 100;
#X obj 404 408 osc~ 120;
#X obj 636 502 osc~ 1920;
#X obj 148 150 t f f f f f f f;
#X obj 148 128 sqrt;
#X obj 500 327 *~ 5;
#X obj 598 377 *~ 11;
#X obj 717 434 *~ 13;
#X obj 636 634 /~ 15;
#X obj 565 576 /~ 13;
#X obj 489 520 /~ 6;
#X obj 404 621 *~ 0.5;
#X obj 327 175 * 40;
#X obj 388 115 lop~ 5;
#X obj 392 146 +~;
#X obj 442 131 *~ 24;
#X obj 442 111 osc~ 400;
#X obj 336 380 *~ 0.9;
#X msg 86 240 \$1 8 \, 0.3 100 8 \, 0 1800 108;
#X msg 652 524 \$1 5 \, 0.3 90 5 \, 0 100 95;
#X msg 581 476 \$1 15 \, 0.3 100 15 \, 0 300 115;
#X msg 505 430 \$1 15 \, 0.3 100 15 \, 0 600 115;
#X obj 419 476 pow~ 2;
#X msg 414 381 \$1 8 \, 0.3 100 8 \, 0 1000 108;
#X obj 92 297 pow~ 3;
#X obj 328 195 + 220;
#X obj 236 452 *~ 0.5;
#X connect 0 0 4 0;
#X connect 2 0 13 0;
#X connect 3 0 39 0;
#X connect 4 0 3 0;
#X connect 4 1 8 0;
#X connect 6 0 5 0;
#X connect 7 0 31 0;
#X connect 8 1 6 0;
#X connect 8 2 31 0;
#X connect 8 3 7 0;
#X connect 9 0 5 0;
#X connect 10 0 1 0;
#X connect 11 0 59 0;
#X connect 12 0 33 1;
#X connect 12 0 34 1;
#X connect 13 0 34 0;
#X connect 14 0 16 0;
#X connect 14 0 26 0;
#X connect 15 0 12 1;
#X connect 16 0 12 0;
#X connect 17 0 57 0;
#X connect 18 0 46 0;
#X connect 19 0 28 0;
#X connect 20 0 45 0;
#X connect 21 0 29 0;
#X connect 22 0 44 0;
#X connect 23 0 22 0;
#X connect 24 0 30 0;
#X connect 25 0 43 0;
#X connect 26 0 27 1;
#X connect 27 0 61 0;
#X connect 28 0 20 1;
#X connect 29 0 22 1;
#X connect 30 0 25 1;
#X connect 31 0 9 0;
#X connect 32 0 20 0;
#X connect 33 0 52 0;
#X connect 34 0 33 0;
#X connect 35 0 4 0;
#X connect 36 0 18 0;
#X connect 37 0 25 0;
#X connect 38 0 53 0;
#X connect 38 1 56 0;
#X connect 38 2 55 0;
#X connect 38 3 54 0;
#X connect 38 4 58 0;
#X connect 38 5 15 0;
#X connect 38 6 47 0;
#X connect 39 0 38 0;
#X connect 40 0 32 0;
#X connect 41 0 23 0;
#X connect 42 0 37 0;
#X connect 43 0 46 0;
#X connect 44 0 46 0;
#X connect 45 0 46 0;
#X connect 46 0 27 0;
#X connect 47 0 60 0;
#X connect 48 0 49 0;
#X connect 49 0 36 0;
#X connect 49 0 40 0;
#X connect 49 0 41 0;
#X connect 49 0 42 0;
#X connect 50 0 49 1;
#X connect 51 0 50 0;
#X connect 52 0 26 1;
#X connect 53 0 11 0;
#X connect 54 0 24 0;
#X connect 55 0 21 0;
#X connect 56 0 19 0;
#X connect 57 0 18 1;
#X connect 58 0 17 0;
#X connect 59 0 14 0;
#X connect 60 0 48 0;
#X connect 61 0 10 0;
#X restore 672 140 pd ride;
#X obj 676 165 throw~ \$0-bus;
#X obj 702 251 throw~ \$0-bus;
#N canvas 635 310 641 634 pitch-tom 0;
#X obj 148 3 inlet;
#X obj 144 531 outlet~;
#X obj 194 259 vline~;
#X obj 144 461 *~, f 9;
#X obj 237 146 vline~;
#X obj 59 266 +~;
#X obj 59 314 osc~;
#X obj 143 484 *~ 0.4;
#X obj 148 64 / 127;
#X obj 148 85 sqrt;
#X obj 60 212 sig~ 200;
#X obj 158 34 t a b, f 40;
#X obj 519 335 switch~;
#X msg 498 276 1;
#X msg 562 189 stop;
#X obj 511 164 t b b b b;
#X msg 545 247 0;
#X obj 545 226 del 500;
#X obj 147 112 / 2;
#X obj 71 123 + 75;
#X obj 237 168 pow~ 4;
#X obj 71 91 * 450;
#X obj 148 136 t b f f;
#X msg 194 227 0.8 8 \, 0 300 8;
#X obj 88 54 pow 2;
#X obj 143 506 hip~ 4;
#X obj 128 313 osc~;
#X obj 240 309 vline~;
#X obj 240 331 pow~ 6;
#X obj 128 364 *~;
#X obj 194 281 pow~ 2;
#X msg 237 121 \$1 1 \, 0 18 1;
#X obj 300 412 osc~;
#X obj 340 402 vline~;
#X obj 340 424 pow~ 6;
#X obj 300 463 *~;
#X obj 128 288 *~ 3;
#X obj 300 387 *~ 5;
#X obj 129 212 *~ 290;
#X msg 240 277 0.67 10 \, 0 45 10 \, 0.27 10 55;
#X msg 340 370 0.37 5 \, 0 24 5 \, 0.17 30 29;
#X connect 0 0 11 0;
#X connect 2 0 30 0;
#X connect 3 0 7 0;
#X connect 4 0 20 0;
#X connect 5 0 6 0;
#X connect 5 0 36 0;
#X connect 5 0 37 0;
#X connect 6 0 3 0;
#X connect 7 0 25 0;
#X connect 8 0 9 0;
#X connect 8 0 24 0;
#X connect 9 0 18 0;
#X connect 10 0 5 0;
#X connect 11 0 8 0;
#X connect 11 1 15 0;
#X connect 13 0 12 0;
#X connect 14 0 17 0;
#X connect 15 1 13 0;
#X connect 15 2 17 0;
#X connect 15 3 14 0;
#X connect 16 0 12 0;
#X connect 17 0 16 0;
#X connect 18 0 22 0;
#X connect 19 0 10 0;
#X connect 20 0 38 0;
#X connect 21 0 19 0;
#X connect 22 0 23 0;
#X connect 22 0 39 0;
#X connect 22 0 40 0;
#X connect 22 1 31 0;
#X connect 23 0 2 0;
#X connect 24 0 21 0;
#X connect 25 0 1 0;
#X connect 26 0 29 0;
#X connect 27 0 28 0;
#X connect 28 0 29 1;
#X connect 29 0 3 0;
#X connect 30 0 3 1;
#X connect 31 0 4 0;
#X connect 32 0 35 0;
#X connect 33 0 34 0;
#X connect 34 0 35 1;
#X connect 35 0 3 0;
#X connect 36 0 26 0;
#X connect 37 0 32 0;
#X connect 38 0 5 1;
#X connect 39 0 27 0;
#X connect 40 0 33 0;
#X restore 702 229 pd pitch-tom;
#X obj 95 104 route 1 2 3 4 5 6 7 8 9, f 115;
#X obj 776 149 s \$0-more-route;
#X obj 76 282 r \$0-more-route;
#N canvas 0 23 450 300 nice0kick 0;
#X obj 20 19 inlet;
#X obj 48 283 throw~ \$0-bus;
#X obj 34 53 t a b;
#X obj 99 97 + 1;
#X obj 69 94 f;
#X obj 65 115 % 2;
#X obj 40 149 list prepend;
#X obj 40 170 route 0 1, f 26;
#X obj 40 191 t a b;
#X obj 109 194 t a b;
#X floatatom 205 135 5 0 0 0 - - -;
#X obj 112 252 nice-kick;
#X obj 49 247 nice-kick;
#X obj 372 110 mtof;
#X floatatom 372 131 5 0 0 0 - - -;
#X obj 301 196 mtof;
#X floatatom 301 217 5 0 0 0 - - -;
#X msg 294 165 37;
#X msg 365 79 34;
#X connect 0 0 2 0;
#X connect 2 0 6 0;
#X connect 2 1 4 0;
#X connect 3 0 4 1;
#X connect 4 0 3 0;
#X connect 4 0 5 0;
#X connect 5 0 6 1;
#X connect 6 0 7 0;
#X connect 7 0 8 0;
#X connect 7 1 9 0;
#X connect 8 0 12 0;
#X connect 8 1 11 1;
#X connect 9 0 11 0;
#X connect 9 1 12 1;
#X connect 10 0 11 2;
#X connect 11 0 1 0;
#X connect 12 0 1 0;
#X connect 13 0 14 0;
#X connect 13 0 10 0;
#X connect 13 0 12 2;
#X connect 15 0 16 0;
#X connect 16 0 12 2;
#X connect 17 0 15 0;
#X connect 18 0 13 0;
#X restore 74 487 pd nice0kick;
#N canvas 0 23 450 586 clicck-kick 0;
#X obj 20 19 inlet;
#X obj 48 283 throw~ \$0-bus;
#X obj 34 53 t a b;
#X obj 99 97 + 1;
#X obj 69 94 f;
#X obj 65 115 % 2;
#X obj 40 149 list prepend;
#X obj 40 170 route 0 1, f 26;
#X obj 40 191 t a b;
#X obj 109 194 t a b;
#N canvas 4 163 641 620 click-kick 0;
#X obj 148 3 inlet;
#X obj 110 554 outlet~;
#X obj 161 296 vline~;
#X obj 110 488 *~, f 9;
#X obj 237 170 vline~;
#X obj 59 290 +~;
#X obj 59 312 osc~;
#X obj 110 532 hip~ 1;
#X obj 148 99 / 127;
#X obj 148 120 sqrt;
#X obj 148 34 t a b, f 40;
#X obj 519 335 switch~;
#X msg 498 276 1;
#X msg 562 189 stop;
#X obj 511 164 t b b b b;
#X msg 545 247 0;
#X obj 545 226 del 1020;
#X obj 258 331 osc~;
#X obj 148 160 t f b f;
#X obj 258 371 *~;
#X obj 255 310 *~ 5;
#X obj 59 236 sig~ 55;
#X obj 302 326 osc~;
#X obj 302 366 *~;
#X obj 299 305 *~ 11;
#X obj 161 318 pow~ 4;
#X obj 129 236 *~ 12000;
#X msg 160 264 \$1 8 \, 0 900 8;
#X obj 472 22 inlet kill;
#X obj 472 42 t b;
#X msg 472 62 0 8;
#X obj 593 253 del 8;
#X obj 445 105 t a a b;
#X obj 110 510 *~ 0.9;
#X obj 49 112 mtof;
#X obj 92 67 / 4;
#X obj 92 87 + 15;
#X obj 258 351 /~ 4;
#X obj 302 346 /~ 8;
#X obj 237 191 pow~ 12;
#X msg 238 145 0.96 3 \, 0 3 3;
#X connect 0 0 10 0;
#X connect 2 0 25 0;
#X connect 3 0 33 0;
#X connect 4 0 39 0;
#X connect 5 0 6 0;
#X connect 5 0 20 0;
#X connect 5 0 24 0;
#X connect 6 0 3 0;
#X connect 7 0 1 0;
#X connect 8 0 9 0;
#X connect 9 0 18 0;
#X connect 10 0 8 0;
#X connect 10 0 35 0;
#X connect 10 1 14 0;
#X connect 12 0 11 0;
#X connect 13 0 16 0;
#X connect 13 0 31 0;
#X connect 14 1 12 0;
#X connect 14 2 16 0;
#X connect 14 3 13 0;
#X connect 15 0 11 0;
#X connect 16 0 15 0;
#X connect 17 0 37 0;
#X connect 18 0 27 0;
#X connect 18 1 40 0;
#X connect 19 0 3 0;
#X connect 20 0 17 0;
#X connect 21 0 5 0;
#X connect 22 0 38 0;
#X connect 23 0 3 0;
#X connect 24 0 22 0;
#X connect 25 0 3 1;
#X connect 26 0 5 1;
#X connect 27 0 2 0;
#X connect 28 0 29 0;
#X connect 29 0 30 0;
#X connect 30 0 32 0;
#X connect 31 0 15 0;
#X connect 32 0 4 0;
#X connect 32 1 2 0;
#X connect 32 2 31 0;
#X connect 33 0 7 0;
#X connect 34 0 21 0;
#X connect 35 0 36 0;
#X connect 36 0 34 0;
#X connect 37 0 19 0;
#X connect 38 0 23 0;
#X connect 39 0 19 1;
#X connect 39 0 23 1;
#X connect 39 0 26 0;
#X connect 40 0 4 0;
#X restore 129 240 pd click-kick;
#N canvas 4 163 641 620 click-kick 0;
#X obj 148 3 inlet;
#X obj 110 554 outlet~;
#X obj 161 296 vline~;
#X obj 110 488 *~, f 9;
#X obj 237 170 vline~;
#X obj 59 290 +~;
#X obj 59 312 osc~;
#X obj 110 532 hip~ 1;
#X obj 148 99 / 127;
#X obj 148 120 sqrt;
#X obj 148 34 t a b, f 40;
#X obj 519 335 switch~;
#X msg 498 276 1;
#X msg 562 189 stop;
#X obj 511 164 t b b b b;
#X msg 545 247 0;
#X obj 545 226 del 1020;
#X obj 258 331 osc~;
#X obj 148 160 t f b f;
#X obj 258 371 *~;
#X obj 255 310 *~ 5;
#X obj 59 236 sig~ 55;
#X obj 302 326 osc~;
#X obj 302 366 *~;
#X obj 299 305 *~ 11;
#X obj 161 318 pow~ 4;
#X obj 129 236 *~ 12000;
#X msg 160 264 \$1 8 \, 0 900 8;
#X obj 472 22 inlet kill;
#X obj 472 42 t b;
#X msg 472 62 0 8;
#X obj 593 253 del 8;
#X obj 445 105 t a a b;
#X obj 110 510 *~ 0.9;
#X obj 49 112 mtof;
#X obj 92 67 / 4;
#X obj 92 87 + 15;
#X obj 258 351 /~ 4;
#X obj 302 346 /~ 8;
#X obj 237 191 pow~ 12;
#X msg 238 145 0.96 3 \, 0 3 3;
#X connect 0 0 10 0;
#X connect 2 0 25 0;
#X connect 3 0 33 0;
#X connect 4 0 39 0;
#X connect 5 0 6 0;
#X connect 5 0 20 0;
#X connect 5 0 24 0;
#X connect 6 0 3 0;
#X connect 7 0 1 0;
#X connect 8 0 9 0;
#X connect 9 0 18 0;
#X connect 10 0 8 0;
#X connect 10 0 35 0;
#X connect 10 1 14 0;
#X connect 12 0 11 0;
#X connect 13 0 16 0;
#X connect 13 0 31 0;
#X connect 14 1 12 0;
#X connect 14 2 16 0;
#X connect 14 3 13 0;
#X connect 15 0 11 0;
#X connect 16 0 15 0;
#X connect 17 0 37 0;
#X connect 18 0 27 0;
#X connect 18 1 40 0;
#X connect 19 0 3 0;
#X connect 20 0 17 0;
#X connect 21 0 5 0;
#X connect 22 0 38 0;
#X connect 23 0 3 0;
#X connect 24 0 22 0;
#X connect 25 0 3 1;
#X connect 26 0 5 1;
#X connect 27 0 2 0;
#X connect 28 0 29 0;
#X connect 29 0 30 0;
#X connect 30 0 32 0;
#X connect 31 0 15 0;
#X connect 32 0 4 0;
#X connect 32 1 2 0;
#X connect 32 2 31 0;
#X connect 33 0 7 0;
#X connect 34 0 21 0;
#X connect 35 0 36 0;
#X connect 36 0 34 0;
#X connect 37 0 19 0;
#X connect 38 0 23 0;
#X connect 39 0 19 1;
#X connect 39 0 23 1;
#X connect 39 0 26 0;
#X connect 40 0 4 0;
#X restore 36 238 pd click-kick;
#X connect 0 0 2 0;
#X connect 2 0 6 0;
#X connect 2 1 4 0;
#X connect 3 0 4 1;
#X connect 4 0 3 0;
#X connect 4 0 5 0;
#X connect 5 0 6 1;
#X connect 6 0 7 0;
#X connect 7 0 8 0;
#X connect 7 1 9 0;
#X connect 8 0 11 0;
#X connect 8 1 10 1;
#X connect 9 0 10 0;
#X connect 9 1 11 1;
#X connect 10 0 1 0;
#X connect 11 0 1 0;
#X restore 112 469 pd clicck-kick;
#N canvas 0 23 450 586 kick-no-click 0;
#X obj 20 19 inlet;
#X obj 48 283 throw~ \$0-bus;
#X obj 34 53 t a b;
#X obj 99 97 + 1;
#X obj 69 94 f;
#X obj 65 115 % 2;
#X obj 40 149 list prepend;
#X obj 40 170 route 0 1, f 26;
#X obj 40 191 t a b;
#X obj 109 194 t a b;
#N canvas 437 258 641 620 click-kick 0;
#X obj 148 3 inlet;
#X obj 110 554 outlet~;
#X obj 161 336 vline~;
#X obj 110 488 *~, f 9;
#X obj 190 138 vline~;
#X obj 59 290 +~;
#X obj 59 312 osc~;
#X obj 110 532 hip~ 1;
#X obj 148 34 t a b, f 40;
#X obj 438 389 switch~;
#X msg 438 361 1;
#X msg 436 107 stop;
#X obj 385 79 t b b b b;
#X msg 473 361 0;
#X obj 59 236 sig~ 55;
#X obj 510 31 inlet kill;
#X obj 551 231 del 8;
#X obj 110 510 *~ 0.9;
#X obj 49 163 mtof;
#X obj 110 373 sig~ 1;
#X obj 110 393 -~, f 9;
#X obj 149 74 t b b b f;
#X obj 343 162 del 450;
#X obj 510 85 t b b b;
#X obj 190 159 pow~ 4;
#X obj 47 131 clip 20 69;
#X msg 191 113 1 3 \, 0.35 20 3 \, 0 300 23;
#X obj 161 357 pow~ 2;
#X msg 293 260 1 10;
#X obj 115 242 *~ 200;
#X msg 160 264 0.01 12 \, 1 200 12;
#X connect 0 0 8 0;
#X connect 2 0 27 0;
#X connect 3 0 17 0;
#X connect 4 0 24 0;
#X connect 5 0 6 0;
#X connect 6 0 3 0;
#X connect 7 0 1 0;
#X connect 8 0 21 0;
#X connect 8 1 12 0;
#X connect 10 0 9 0;
#X connect 11 0 16 0;
#X connect 11 0 22 0;
#X connect 12 1 10 0;
#X connect 12 2 22 0;
#X connect 12 3 11 0;
#X connect 13 0 9 0;
#X connect 14 0 5 0;
#X connect 15 0 23 0;
#X connect 16 0 13 0;
#X connect 17 0 7 0;
#X connect 18 0 14 0;
#X connect 19 0 20 0;
#X connect 20 0 3 1;
#X connect 21 0 30 0;
#X connect 21 1 26 0;
#X connect 21 3 25 0;
#X connect 22 0 13 0;
#X connect 23 0 28 0;
#X connect 23 1 11 0;
#X connect 23 2 16 0;
#X connect 24 0 29 0;
#X connect 25 0 18 0;
#X connect 26 0 4 0;
#X connect 27 0 20 1;
#X connect 28 0 2 0;
#X connect 29 0 5 1;
#X connect 30 0 2 0;
#X restore 117 242 pd click-kick;
#N canvas 437 258 641 620 click-kick 0;
#X obj 148 3 inlet;
#X obj 110 554 outlet~;
#X obj 161 336 vline~;
#X obj 110 488 *~, f 9;
#X obj 190 138 vline~;
#X obj 59 290 +~;
#X obj 59 312 osc~;
#X obj 110 532 hip~ 1;
#X obj 148 34 t a b, f 40;
#X obj 438 389 switch~;
#X msg 438 361 1;
#X msg 436 107 stop;
#X obj 385 79 t b b b b;
#X msg 473 361 0;
#X obj 59 236 sig~ 55;
#X obj 510 31 inlet kill;
#X obj 551 231 del 8;
#X obj 110 510 *~ 0.9;
#X obj 49 163 mtof;
#X obj 110 373 sig~ 1;
#X obj 110 393 -~, f 9;
#X obj 149 74 t b b b f;
#X obj 343 162 del 450;
#X obj 510 85 t b b b;
#X obj 190 159 pow~ 4;
#X obj 47 131 clip 20 69;
#X msg 191 113 1 3 \, 0.35 20 3 \, 0 300 23;
#X obj 161 357 pow~ 2;
#X msg 293 260 1 10;
#X obj 115 242 *~ 200;
#X msg 160 264 0.01 12 \, 1 200 12;
#X connect 0 0 8 0;
#X connect 2 0 27 0;
#X connect 3 0 17 0;
#X connect 4 0 24 0;
#X connect 5 0 6 0;
#X connect 6 0 3 0;
#X connect 7 0 1 0;
#X connect 8 0 21 0;
#X connect 8 1 12 0;
#X connect 10 0 9 0;
#X connect 11 0 16 0;
#X connect 11 0 22 0;
#X connect 12 1 10 0;
#X connect 12 2 22 0;
#X connect 12 3 11 0;
#X connect 13 0 9 0;
#X connect 14 0 5 0;
#X connect 15 0 23 0;
#X connect 16 0 13 0;
#X connect 17 0 7 0;
#X connect 18 0 14 0;
#X connect 19 0 20 0;
#X connect 20 0 3 1;
#X connect 21 0 30 0;
#X connect 21 1 26 0;
#X connect 21 3 25 0;
#X connect 22 0 13 0;
#X connect 23 0 28 0;
#X connect 23 1 11 0;
#X connect 23 2 16 0;
#X connect 24 0 29 0;
#X connect 25 0 18 0;
#X connect 26 0 4 0;
#X connect 27 0 20 1;
#X connect 28 0 2 0;
#X connect 29 0 5 1;
#X connect 30 0 2 0;
#X restore 29 240 pd click-kick;
#X connect 0 0 2 0;
#X connect 2 0 6 0;
#X connect 2 1 4 0;
#X connect 3 0 4 1;
#X connect 4 0 3 0;
#X connect 4 0 5 0;
#X connect 5 0 6 1;
#X connect 6 0 7 0;
#X connect 7 0 8 0;
#X connect 7 1 9 0;
#X connect 8 0 11 0;
#X connect 8 1 10 1;
#X connect 9 0 10 0;
#X connect 9 1 11 1;
#X connect 10 0 1 0;
#X connect 11 0 1 0;
#X restore 196 452 pd kick-no-click;
#N canvas 0 23 450 586 up-kick-ramp-down 0;
#X obj 20 19 inlet;
#X obj 48 283 throw~ \$0-bus;
#X obj 34 53 t a b;
#X obj 99 97 + 1;
#X obj 69 94 f;
#X obj 65 115 % 2;
#X obj 40 149 list prepend;
#X obj 40 170 route 0 1, f 26;
#X obj 40 191 t a b;
#X obj 109 194 t a b;
#N canvas 437 258 856 620 up-down 0;
#X obj 148 3 inlet;
#X obj 110 554 outlet~;
#X obj 161 336 vline~;
#X obj 110 488 *~, f 9;
#X obj 190 138 vline~;
#X obj 59 290 +~;
#X obj 59 312 osc~;
#X obj 110 532 hip~ 1;
#X obj 148 34 t a b, f 40;
#X obj 438 389 switch~;
#X msg 438 361 1;
#X msg 436 107 stop;
#X obj 385 79 t b b b b;
#X msg 473 361 0;
#X obj 59 236 sig~ 55;
#X obj 510 31 inlet kill;
#X obj 551 231 del 8;
#X obj 110 510 *~ 0.9;
#X obj 49 163 mtof;
#X obj 110 373 sig~ 1;
#X obj 110 393 -~, f 9;
#X obj 149 74 t b b b f;
#X obj 510 85 t b b b;
#X obj 190 159 pow~ 4;
#X obj 47 131 clip 20 69;
#X msg 336 232 1 6;
#X obj 161 357 pow~ 2;
#X obj 243 334 vline~;
#X msg 362 246 0 6;
#X obj 648 159 t b b b;
#X obj 650 131 bng 15 250 50 0 empty empty empty 17 7 0 10 -262144
-1 -1;
#X msg 714 245 0 0 \, 1 0 3 \, 0 4 3;
#X msg 659 216 1 0 \, 0 3 0 \, 1 0 3;
#X msg 160 264 1 0 \, 0 12 0 \, 1 0 12;
#X obj 343 162 del 650;
#X msg 191 113 1 1 \, 0.35 20 1 \, 0 300 23;
#X obj 115 242 *~ 200;
#X obj 174 457 *~ 0.98;
#X obj 243 355 pow~ 4;
#X msg 272 286 0 0 \, 1 0 12 \, 0 500 12;
#X connect 0 0 8 0;
#X connect 2 0 26 0;
#X connect 3 0 17 0;
#X connect 4 0 23 0;
#X connect 5 0 6 0;
#X connect 6 0 3 0;
#X connect 7 0 1 0;
#X connect 8 0 21 0;
#X connect 8 1 12 0;
#X connect 10 0 9 0;
#X connect 11 0 16 0;
#X connect 11 0 34 0;
#X connect 12 1 10 0;
#X connect 12 2 34 0;
#X connect 12 3 11 0;
#X connect 13 0 9 0;
#X connect 14 0 5 0;
#X connect 15 0 22 0;
#X connect 16 0 13 0;
#X connect 17 0 7 0;
#X connect 18 0 14 0;
#X connect 19 0 20 0;
#X connect 20 0 37 0;
#X connect 21 0 33 0;
#X connect 21 1 35 0;
#X connect 21 2 39 0;
#X connect 21 3 24 0;
#X connect 22 0 25 0;
#X connect 22 0 28 0;
#X connect 22 1 11 0;
#X connect 22 2 16 0;
#X connect 23 0 36 0;
#X connect 24 0 18 0;
#X connect 25 0 2 0;
#X connect 26 0 20 1;
#X connect 27 0 38 0;
#X connect 28 0 27 0;
#X connect 29 1 32 0;
#X connect 29 2 31 0;
#X connect 30 0 29 0;
#X connect 33 0 2 0;
#X connect 34 0 13 0;
#X connect 35 0 4 0;
#X connect 36 0 5 1;
#X connect 37 0 3 1;
#X connect 38 0 37 0;
#X connect 39 0 27 0;
#X restore 38 239 pd up-down;
#N canvas 436 258 856 620 up-down 0;
#X obj 148 3 inlet;
#X obj 110 554 outlet~;
#X obj 161 336 vline~;
#X obj 110 488 *~, f 9;
#X obj 190 138 vline~;
#X obj 59 290 +~;
#X obj 59 312 osc~;
#X obj 110 532 hip~ 1;
#X obj 148 34 t a b, f 40;
#X obj 438 389 switch~;
#X msg 438 361 1;
#X msg 436 107 stop;
#X obj 385 79 t b b b b;
#X msg 473 361 0;
#X obj 59 236 sig~ 55;
#X obj 510 31 inlet kill;
#X obj 110 510 *~ 0.9;
#X obj 49 163 mtof;
#X obj 110 373 sig~ 1;
#X obj 110 393 -~, f 9;
#X obj 149 74 t b b b f;
#X obj 510 85 t b b b;
#X obj 190 159 pow~ 4;
#X obj 47 131 clip 20 69;
#X obj 161 357 pow~ 2;
#X obj 243 334 vline~;
#X msg 160 264 1 0 \, 0 12 0 \, 1 0 12;
#X obj 429 192 del 600;
#X msg 191 113 1 1 \, 0.35 20 1 \, 0 300 23;
#X obj 115 242 *~ 200;
#X obj 174 457 *~ 0.98;
#X msg 336 232 1 10;
#X msg 362 246 0 10;
#X obj 551 231 del 11;
#X obj 243 355 pow~ 4;
#X msg 272 286 0 0 \, 1 0 12 \, 0 500 12;
#X connect 0 0 8 0;
#X connect 2 0 24 0;
#X connect 3 0 16 0;
#X connect 4 0 22 0;
#X connect 5 0 6 0;
#X connect 6 0 3 0;
#X connect 7 0 1 0;
#X connect 8 0 20 0;
#X connect 8 1 12 0;
#X connect 10 0 9 0;
#X connect 11 0 27 0;
#X connect 11 0 33 0;
#X connect 12 1 10 0;
#X connect 12 2 27 0;
#X connect 12 3 11 0;
#X connect 13 0 9 0;
#X connect 14 0 5 0;
#X connect 15 0 21 0;
#X connect 16 0 7 0;
#X connect 17 0 14 0;
#X connect 18 0 19 0;
#X connect 19 0 30 0;
#X connect 20 0 26 0;
#X connect 20 1 28 0;
#X connect 20 2 35 0;
#X connect 20 3 23 0;
#X connect 21 0 31 0;
#X connect 21 0 32 0;
#X connect 21 1 11 0;
#X connect 21 2 33 0;
#X connect 22 0 29 0;
#X connect 23 0 17 0;
#X connect 24 0 19 1;
#X connect 25 0 34 0;
#X connect 26 0 2 0;
#X connect 27 0 13 0;
#X connect 28 0 4 0;
#X connect 29 0 5 1;
#X connect 30 0 3 1;
#X connect 31 0 2 0;
#X connect 32 0 25 0;
#X connect 33 0 13 0;
#X connect 34 0 30 0;
#X connect 35 0 25 0;
#X restore 129 244 pd up-down;
#X connect 0 0 2 0;
#X connect 2 0 6 0;
#X connect 2 1 4 0;
#X connect 3 0 4 1;
#X connect 4 0 3 0;
#X connect 4 0 5 0;
#X connect 5 0 6 1;
#X connect 6 0 7 0;
#X connect 7 0 8 0;
#X connect 7 1 9 0;
#X connect 8 0 10 0;
#X connect 8 1 11 1;
#X connect 9 0 11 0;
#X connect 9 1 10 1;
#X connect 10 0 1 0;
#X connect 11 0 1 0;
#X restore 251 434 pd up-kick-ramp-down;
#N canvas 0 23 450 300 og-kick 0;
#X obj 20 19 inlet;
#X obj 48 283 throw~ \$0-bus;
#X obj 34 53 t a b;
#X obj 99 97 + 1;
#X obj 69 94 f;
#X obj 65 115 % 2;
#X obj 40 149 list prepend;
#X obj 40 170 route 0 1, f 26;
#X obj 40 191 t a b;
#X obj 109 194 t a b;
#N canvas 4 163 641 620 kick 0;
#X obj 148 3 inlet;
#X obj 143 500 outlet~;
#X obj 161 221 vline~;
#X obj 143 434 *~, f 9;
#X obj 161 243 pow~ 2;
#X obj 237 95 vline~;
#X obj 59 215 +~;
#X obj 59 237 osc~;
#X obj 335 142 noise~;
#X obj 280 322 *~;
#X obj 242 238 vline~;
#X obj 335 164 *~ 0.75;
#X obj 59 161 sig~ 55;
#X floatatom 64 111 5 0 0 0 - - -;
#X obj 414 190 *~ 12000;
#X obj 415 212 +~ 2000;
#X obj 242 260 pow~ 4;
#X obj 148 44 / 127;
#X obj 148 65 sqrt;
#X obj 148 85 t f f f;
#X obj 143 478 hip~ 4;
#X obj 148 24 t a b, f 40;
#X obj 509 325 switch~;
#X msg 488 266 1;
#X msg 552 179 stop;
#X obj 501 154 t b b b b;
#X msg 535 237 0;
#X obj 535 216 del 1020;
#X obj 129 161 *~ 2000;
#X obj 237 117 pow~ 3;
#X msg 160 189 \$1 18 \, 0 500 18;
#X obj 336 246 vcf~ 5, f 8;
#X obj 381 275 vcf~ 6, f 8;
#X obj 143 456 *~ 0.6;
#X obj 510 31 inlet kill;
#X obj 510 85 t b b b;
#X obj 609 251 del 8;
#X msg 244 215 \$1 1 \, 0 17 1;
#X msg 238 71 0 3 \, \$1 1 3 \, 0 17 4;
#X msg 452 150 0 6;
#X connect 0 0 21 0;
#X connect 2 0 4 0;
#X connect 3 0 33 0;
#X connect 4 0 3 1;
#X connect 5 0 29 0;
#X connect 6 0 7 0;
#X connect 7 0 3 0;
#X connect 8 0 11 0;
#X connect 9 0 3 0;
#X connect 10 0 16 0;
#X connect 11 0 31 0;
#X connect 12 0 6 0;
#X connect 13 0 12 0;
#X connect 14 0 15 0;
#X connect 15 0 31 1;
#X connect 15 0 32 1;
#X connect 16 0 9 1;
#X connect 16 0 14 0;
#X connect 17 0 18 0;
#X connect 18 0 19 0;
#X connect 19 0 30 0;
#X connect 19 1 38 0;
#X connect 19 2 37 0;
#X connect 20 0 1 0;
#X connect 21 0 17 0;
#X connect 21 1 25 0;
#X connect 23 0 22 0;
#X connect 24 0 27 0;
#X connect 24 0 36 0;
#X connect 25 1 23 0;
#X connect 25 2 27 0;
#X connect 25 3 24 0;
#X connect 26 0 22 0;
#X connect 27 0 26 0;
#X connect 28 0 6 1;
#X connect 29 0 28 0;
#X connect 30 0 2 0;
#X connect 31 1 32 0;
#X connect 32 0 9 0;
#X connect 33 0 20 0;
#X connect 34 0 35 0;
#X connect 35 1 39 0;
#X connect 35 2 36 0;
#X connect 36 0 26 0;
#X connect 37 0 10 0;
#X connect 38 0 5 0;
#X connect 39 0 2 0;
#X connect 39 0 10 0;
#X restore 93 233 pd kick;
#N canvas 4 163 641 620 kick 0;
#X obj 148 3 inlet;
#X obj 143 500 outlet~;
#X obj 161 221 vline~;
#X obj 143 434 *~, f 9;
#X obj 161 243 pow~ 2;
#X obj 237 95 vline~;
#X obj 59 215 +~;
#X obj 59 237 osc~;
#X obj 335 142 noise~;
#X obj 280 322 *~;
#X obj 242 238 vline~;
#X obj 335 164 *~ 0.75;
#X obj 59 161 sig~ 55;
#X floatatom 64 111 5 0 0 0 - - -;
#X obj 414 190 *~ 12000;
#X obj 415 212 +~ 2000;
#X obj 242 260 pow~ 4;
#X obj 148 44 / 127;
#X obj 148 65 sqrt;
#X obj 148 85 t f f f;
#X obj 143 478 hip~ 4;
#X obj 148 24 t a b, f 40;
#X obj 509 325 switch~;
#X msg 488 266 1;
#X msg 552 179 stop;
#X obj 501 154 t b b b b;
#X msg 535 237 0;
#X obj 535 216 del 1020;
#X obj 129 161 *~ 2000;
#X obj 237 117 pow~ 3;
#X msg 160 189 \$1 18 \, 0 500 18;
#X obj 336 246 vcf~ 5, f 8;
#X obj 381 275 vcf~ 6, f 8;
#X obj 143 456 *~ 0.6;
#X msg 238 71 0 3 \, \$1 1 3 \, 0 20 4;
#X obj 510 31 inlet kill;
#X obj 510 85 t b b b;
#X obj 609 251 del 8;
#X msg 244 215 \$1 1 \, 0 17 1;
#X msg 452 150 0 6;
#X connect 0 0 21 0;
#X connect 2 0 4 0;
#X connect 3 0 33 0;
#X connect 4 0 3 1;
#X connect 5 0 29 0;
#X connect 6 0 7 0;
#X connect 7 0 3 0;
#X connect 8 0 11 0;
#X connect 9 0 3 0;
#X connect 10 0 16 0;
#X connect 11 0 31 0;
#X connect 12 0 6 0;
#X connect 13 0 12 0;
#X connect 14 0 15 0;
#X connect 15 0 31 1;
#X connect 15 0 32 1;
#X connect 16 0 9 1;
#X connect 16 0 14 0;
#X connect 17 0 18 0;
#X connect 18 0 19 0;
#X connect 19 0 30 0;
#X connect 19 1 34 0;
#X connect 19 2 38 0;
#X connect 20 0 1 0;
#X connect 21 0 17 0;
#X connect 21 1 25 0;
#X connect 23 0 22 0;
#X connect 24 0 27 0;
#X connect 24 0 37 0;
#X connect 25 1 23 0;
#X connect 25 2 27 0;
#X connect 25 3 24 0;
#X connect 26 0 22 0;
#X connect 27 0 26 0;
#X connect 28 0 6 1;
#X connect 29 0 28 0;
#X connect 30 0 2 0;
#X connect 31 1 32 0;
#X connect 32 0 9 0;
#X connect 33 0 20 0;
#X connect 34 0 5 0;
#X connect 35 0 36 0;
#X connect 36 1 39 0;
#X connect 36 2 37 0;
#X connect 37 0 26 0;
#X connect 38 0 10 0;
#X connect 39 0 2 0;
#X connect 39 0 10 0;
#X restore 33 234 pd kick;
#X connect 0 0 2 0;
#X connect 2 0 6 0;
#X connect 2 1 4 0;
#X connect 3 0 4 1;
#X connect 4 0 3 0;
#X connect 4 0 5 0;
#X connect 5 0 6 1;
#X connect 6 0 7 0;
#X connect 7 0 8 0;
#X connect 7 1 9 0;
#X connect 8 0 10 0;
#X connect 8 1 11 1;
#X connect 9 0 11 0;
#X connect 9 1 10 1;
#X connect 10 0 1 0;
#X connect 11 0 1 0;
#X restore 71 161 pd og-kick;
#N canvas 0 23 450 586 up-kick-ramp-down-BACKWARDS! 0;
#X obj 20 19 inlet;
#X obj 48 283 throw~ \$0-bus;
#X obj 34 53 t a b;
#X obj 99 97 + 1;
#X obj 69 94 f;
#X obj 65 115 % 2;
#X obj 40 149 list prepend;
#X obj 40 170 route 0 1, f 26;
#X obj 41 199 t a b;
#X obj 109 194 t a b;
#N canvas 437 258 856 620 up-down 0;
#X obj 148 3 inlet;
#X obj 110 554 outlet~;
#X obj 345 354 vline~;
#X obj 110 488 *~, f 9;
#X obj 190 138 vline~;
#X obj 59 290 +~;
#X obj 59 312 osc~;
#X obj 110 532 hip~ 1;
#X obj 148 34 t a b, f 40;
#X obj 438 389 switch~;
#X msg 438 361 1;
#X msg 436 107 stop;
#X obj 385 79 t b b b b;
#X msg 473 361 0;
#X obj 59 236 sig~ 55;
#X obj 510 31 inlet kill;
#X obj 551 231 del 8;
#X obj 110 510 *~ 0.9;
#X obj 49 163 mtof;
#X obj 294 391 sig~ 1;
#X obj 294 411 -~, f 9;
#X obj 149 74 t b b b f;
#X obj 510 85 t b b b;
#X obj 190 159 pow~ 4;
#X obj 47 131 clip 20 69;
#X msg 336 232 1 6;
#X obj 345 375 pow~ 2;
#X obj 146 367 vline~;
#X msg 362 246 0 6;
#X obj 648 159 t b b b;
#X obj 650 131 bng 15 250 50 0 empty empty empty 17 7 0 10 -262144
-1 -1;
#X msg 714 245 0 0 \, 1 0 3 \, 0 4 3;
#X msg 659 216 1 0 \, 0 3 0 \, 1 0 3;
#X obj 343 162 del 650;
#X obj 115 242 *~ 200;
#X obj 174 457 *~ 0.98;
#X obj 146 388 pow~ 4;
#X msg 313 272 1 0 \, 0 12 0 \, 1 0 12;
#X msg 153 281 0 0 \, 1 0 12 \, 0 500 12;
#X msg 309 307 1 0 \, 0 0 300 \, 1 12 300;
#X msg 139 316 0 0 \, 1 300 0 \, 0 0 300;
#X msg 220 73 1 1 \, 0.35 20 1 \, 0 300 23;
#X msg 191 113 0 0 \, 0.35 300 0 \, 1 20 300 \, 0 1 320;
#X connect 0 0 8 0;
#X connect 2 0 26 0;
#X connect 3 0 17 0;
#X connect 4 0 23 0;
#X connect 5 0 6 0;
#X connect 6 0 3 0;
#X connect 7 0 1 0;
#X connect 8 0 21 0;
#X connect 8 1 12 0;
#X connect 10 0 9 0;
#X connect 11 0 16 0;
#X connect 11 0 33 0;
#X connect 12 1 10 0;
#X connect 12 2 33 0;
#X connect 12 3 11 0;
#X connect 13 0 9 0;
#X connect 14 0 5 0;
#X connect 15 0 22 0;
#X connect 16 0 13 0;
#X connect 17 0 7 0;
#X connect 18 0 14 0;
#X connect 19 0 20 0;
#X connect 20 0 35 0;
#X connect 21 0 39 0;
#X connect 21 1 42 0;
#X connect 21 2 40 0;
#X connect 21 3 24 0;
#X connect 22 0 25 0;
#X connect 22 0 28 0;
#X connect 22 1 11 0;
#X connect 22 2 16 0;
#X connect 23 0 34 0;
#X connect 24 0 18 0;
#X connect 25 0 2 0;
#X connect 26 0 20 1;
#X connect 27 0 36 0;
#X connect 28 0 27 0;
#X connect 29 1 32 0;
#X connect 29 2 31 0;
#X connect 30 0 29 0;
#X connect 33 0 13 0;
#X connect 34 0 5 1;
#X connect 35 0 3 1;
#X connect 36 0 35 0;
#X connect 39 0 2 0;
#X connect 40 0 27 0;
#X connect 42 0 4 0;
#X restore 122 241 pd up-down;
#N canvas 437 258 856 620 up-down 0;
#X obj 148 3 inlet;
#X obj 110 554 outlet~;
#X obj 345 354 vline~;
#X obj 110 488 *~, f 9;
#X obj 190 138 vline~;
#X obj 59 290 +~;
#X obj 59 312 osc~;
#X obj 110 532 hip~ 1;
#X obj 148 34 t a b, f 40;
#X obj 438 389 switch~;
#X msg 438 361 1;
#X msg 436 107 stop;
#X obj 385 79 t b b b b;
#X msg 473 361 0;
#X obj 59 236 sig~ 55;
#X obj 510 31 inlet kill;
#X obj 551 231 del 8;
#X obj 110 510 *~ 0.9;
#X obj 49 163 mtof;
#X obj 294 391 sig~ 1;
#X obj 294 411 -~, f 9;
#X obj 149 74 t b b b f;
#X obj 510 85 t b b b;
#X obj 190 159 pow~ 4;
#X obj 47 131 clip 20 69;
#X msg 336 232 1 6;
#X obj 345 375 pow~ 2;
#X obj 146 367 vline~;
#X msg 362 246 0 6;
#X obj 648 159 t b b b;
#X obj 650 131 bng 15 250 50 0 empty empty empty 17 7 0 10 -262144
-1 -1;
#X msg 714 245 0 0 \, 1 0 3 \, 0 4 3;
#X msg 659 216 1 0 \, 0 3 0 \, 1 0 3;
#X obj 343 162 del 650;
#X obj 115 242 *~ 200;
#X obj 174 457 *~ 0.98;
#X obj 146 388 pow~ 4;
#X msg 313 272 1 0 \, 0 12 0 \, 1 0 12;
#X msg 153 281 0 0 \, 1 0 12 \, 0 500 12;
#X msg 309 307 1 0 \, 0 0 300 \, 1 12 300;
#X msg 139 316 0 0 \, 1 300 0 \, 0 0 300;
#X msg 220 73 1 1 \, 0.35 20 1 \, 0 300 23;
#X msg 191 113 0 0 \, 0.35 300 0 \, 1 20 300 \, 0 1 320;
#X connect 0 0 8 0;
#X connect 2 0 26 0;
#X connect 3 0 17 0;
#X connect 4 0 23 0;
#X connect 5 0 6 0;
#X connect 6 0 3 0;
#X connect 7 0 1 0;
#X connect 8 0 21 0;
#X connect 8 1 12 0;
#X connect 10 0 9 0;
#X connect 11 0 16 0;
#X connect 11 0 33 0;
#X connect 12 1 10 0;
#X connect 12 2 33 0;
#X connect 12 3 11 0;
#X connect 13 0 9 0;
#X connect 14 0 5 0;
#X connect 15 0 22 0;
#X connect 16 0 13 0;
#X connect 17 0 7 0;
#X connect 18 0 14 0;
#X connect 19 0 20 0;
#X connect 20 0 35 0;
#X connect 21 0 39 0;
#X connect 21 1 42 0;
#X connect 21 2 40 0;
#X connect 21 3 24 0;
#X connect 22 0 25 0;
#X connect 22 0 28 0;
#X connect 22 1 11 0;
#X connect 22 2 16 0;
#X connect 23 0 34 0;
#X connect 24 0 18 0;
#X connect 25 0 2 0;
#X connect 26 0 20 1;
#X connect 27 0 36 0;
#X connect 28 0 27 0;
#X connect 29 1 32 0;
#X connect 29 2 31 0;
#X connect 30 0 29 0;
#X connect 33 0 13 0;
#X connect 34 0 5 1;
#X connect 35 0 3 1;
#X connect 36 0 35 0;
#X connect 39 0 2 0;
#X connect 40 0 27 0;
#X connect 42 0 4 0;
#X restore 41 239 pd up-down;
#X connect 0 0 2 0;
#X connect 2 0 6 0;
#X connect 2 1 4 0;
#X connect 3 0 4 1;
#X connect 4 0 3 0;
#X connect 4 0 5 0;
#X connect 5 0 6 1;
#X connect 6 0 7 0;
#X connect 7 0 8 0;
#X connect 7 1 9 0;
#X connect 8 0 11 0;
#X connect 8 1 10 1;
#X connect 9 0 10 0;
#X connect 9 1 11 1;
#X connect 10 0 1 0;
#X connect 11 0 1 0;
#X restore 307 407 pd up-kick-ramp-down-BACKWARDS!;
#X obj 76 308 route 10 11 12 13 14 15, f 51;
#N canvas 0 23 450 586 open-hat-realistic 0;
#X obj 20 19 inlet;
#X obj 75 298 throw~ \$0-bus;
#X obj 34 53 t a b;
#X obj 99 97 + 1;
#X obj 69 94 f;
#X obj 65 115 % 2;
#X obj 40 149 list prepend;
#X obj 40 170 route 0 1, f 26;
#X obj 40 191 t a b;
#X obj 107 201 t a b;
#X obj 75 273 *~ 0.65;
#N canvas 667 254 641 620 open-hat 0;
#X obj 148 3 inlet;
#X obj 110 554 outlet~;
#X obj 148 34 t a b, f 40;
#X obj 438 389 switch~;
#X msg 438 361 1;
#X msg 436 107 stop;
#X obj 385 79 t b b b b;
#X msg 473 361 0;
#X obj 510 31 inlet kill;
#X obj 551 231 del 8;
#X obj 110 510 *~ 0.9;
#X obj 510 85 t b b b;
#X msg 377 257 0 10, f 7;
#X text 37 136 release;
#X obj 148 55 / 127;
#X obj 110 532 hip~ 4;
#N canvas 659 256 765 531 bp-sequence 0;
#X obj 127 49 inlet;
#X obj 96 479 outlet~;
#X obj 87 409 *~;
#X obj 102 369 vline~;
#X obj 34 82 noise~;
#X obj 38 112 *~ 0.2;
#X obj 239 170 t b b b f b;
#X obj 91 196 bob~ 1;
#X obj 76 234 bob~ 1;
#X obj 276 273 vline~;
#X obj 443 249 vline~;
#X msg 102 346 0 0 \, 1 8 0 \, 0 200 \$1;
#X msg 276 250 0 0 \, 0.63 20 0 \, 1 200 20;
#X obj 443 270 pow~ 2;
#X obj 273 314 pow~ 2;
#X obj 102 390 pow~ 2;
#X msg 443 226 0 0 \, 1 8 0 \, 0.5 50 8 \, 1 60 58;
#X obj 96 447 *~ 0.5;
#X obj 443 310 +~ 3000;
#X obj 443 291 *~ 8000;
#X obj 274 359 +~ 0.5;
#X obj 274 339 *~ 1;
#X connect 0 0 6 0;
#X connect 2 0 17 0;
#X connect 3 0 15 0;
#X connect 4 0 5 0;
#X connect 5 0 7 0;
#X connect 6 2 12 0;
#X connect 6 3 11 0;
#X connect 6 4 16 0;
#X connect 7 0 8 0;
#X connect 8 0 2 0;
#X connect 9 0 14 0;
#X connect 10 0 13 0;
#X connect 11 0 3 0;
#X connect 12 0 9 0;
#X connect 13 0 19 0;
#X connect 14 0 21 0;
#X connect 15 0 2 1;
#X connect 16 0 10 0;
#X connect 17 0 1 0;
#X connect 18 0 8 1;
#X connect 18 0 7 1;
#X connect 19 0 18 0;
#X connect 20 0 8 2;
#X connect 20 0 7 2;
#X connect 21 0 20 0;
#X restore 110 411 pd bp-sequence;
#X obj 343 162 del 650;
#X obj 148 95 + 1;
#X obj 148 75 * 250;
#X connect 0 0 2 0;
#X connect 2 0 14 0;
#X connect 2 1 6 0;
#X connect 4 0 3 0;
#X connect 5 0 9 0;
#X connect 5 0 17 0;
#X connect 6 1 4 0;
#X connect 6 2 17 0;
#X connect 6 3 5 0;
#X connect 7 0 3 0;
#X connect 8 0 11 0;
#X connect 9 0 7 0;
#X connect 10 0 15 0;
#X connect 11 0 12 0;
#X connect 11 1 5 0;
#X connect 11 2 9 0;
#X connect 14 0 19 0;
#X connect 15 0 1 0;
#X connect 16 0 10 0;
#X connect 17 0 7 0;
#X connect 18 0 16 0;
#X connect 19 0 18 0;
#X restore 33 239 pd open-hat;
#N canvas 667 254 641 620 open-hat 0;
#X obj 148 3 inlet;
#X obj 110 554 outlet~;
#X obj 148 34 t a b, f 40;
#X obj 438 389 switch~;
#X msg 438 361 1;
#X msg 436 107 stop;
#X obj 385 79 t b b b b;
#X msg 473 361 0;
#X obj 510 31 inlet kill;
#X obj 551 231 del 8;
#X obj 110 510 *~ 0.9;
#X obj 510 85 t b b b;
#X msg 377 257 0 10, f 7;
#X text 37 136 release;
#X obj 148 55 / 127;
#X obj 110 532 hip~ 4;
#N canvas 659 256 765 531 bp-sequence 0;
#X obj 127 49 inlet;
#X obj 96 479 outlet~;
#X obj 87 409 *~;
#X obj 102 369 vline~;
#X obj 34 82 noise~;
#X obj 38 112 *~ 0.2;
#X obj 239 170 t b b b f b;
#X obj 91 196 bob~ 1;
#X obj 76 234 bob~ 1;
#X obj 276 273 vline~;
#X obj 443 249 vline~;
#X msg 102 346 0 0 \, 1 8 0 \, 0 200 \$1;
#X msg 276 250 0 0 \, 0.63 20 0 \, 1 200 20;
#X obj 443 270 pow~ 2;
#X obj 273 314 pow~ 2;
#X obj 102 390 pow~ 2;
#X msg 443 226 0 0 \, 1 8 0 \, 0.5 50 8 \, 1 60 58;
#X obj 96 447 *~ 0.5;
#X obj 443 310 +~ 3000;
#X obj 443 291 *~ 8000;
#X obj 274 359 +~ 0.5;
#X obj 274 339 *~ 1;
#X connect 0 0 6 0;
#X connect 2 0 17 0;
#X connect 3 0 15 0;
#X connect 4 0 5 0;
#X connect 5 0 7 0;
#X connect 6 2 12 0;
#X connect 6 3 11 0;
#X connect 6 4 16 0;
#X connect 7 0 8 0;
#X connect 8 0 2 0;
#X connect 9 0 14 0;
#X connect 10 0 13 0;
#X connect 11 0 3 0;
#X connect 12 0 9 0;
#X connect 13 0 19 0;
#X connect 14 0 21 0;
#X connect 15 0 2 1;
#X connect 16 0 10 0;
#X connect 17 0 1 0;
#X connect 18 0 8 1;
#X connect 18 0 7 1;
#X connect 19 0 18 0;
#X connect 20 0 8 2;
#X connect 20 0 7 2;
#X connect 21 0 20 0;
#X restore 110 411 pd bp-sequence;
#X obj 343 162 del 650;
#X obj 148 95 + 1;
#X obj 148 75 * 250;
#X connect 0 0 2 0;
#X connect 2 0 14 0;
#X connect 2 1 6 0;
#X connect 4 0 3 0;
#X connect 5 0 9 0;
#X connect 5 0 17 0;
#X connect 6 1 4 0;
#X connect 6 2 17 0;
#X connect 6 3 5 0;
#X connect 7 0 3 0;
#X connect 8 0 11 0;
#X connect 9 0 7 0;
#X connect 10 0 15 0;
#X connect 11 0 12 0;
#X connect 11 1 5 0;
#X connect 11 2 9 0;
#X connect 14 0 19 0;
#X connect 15 0 1 0;
#X connect 16 0 10 0;
#X connect 17 0 7 0;
#X connect 18 0 16 0;
#X connect 19 0 18 0;
#X restore 116 240 pd open-hat;
#X connect 0 0 2 0;
#X connect 2 0 6 0;
#X connect 2 1 4 0;
#X connect 3 0 4 1;
#X connect 4 0 3 0;
#X connect 4 0 5 0;
#X connect 5 0 6 1;
#X connect 6 0 7 0;
#X connect 7 0 8 0;
#X connect 7 1 9 0;
#X connect 8 0 11 0;
#X connect 8 1 12 1;
#X connect 9 0 12 0;
#X connect 9 1 11 1;
#X connect 10 0 1 0;
#X connect 11 0 10 0;
#X connect 12 0 10 0;
#X restore 337 356 pd open-hat-realistic;
#N canvas 0 23 450 300 make 0;
#X obj 37 37 inlet;
#X obj 37 57 unpack 0 0;
#X obj 37 77 max 1;
#X obj 95 78 max 127;
#X obj 37 97 pack 0 0;
#X obj 37 117 outlet;
#X connect 0 0 1 0;
#X connect 1 0 2 0;
#X connect 1 1 3 0;
#X connect 2 0 4 0;
#X connect 3 0 4 1;
#X connect 4 0 5 0;
#X restore 94 49 pd make sure 0-127;
#X connect 0 0 4 0;
#X connect 1 0 30 0;
#X connect 2 0 5 0;
#X connect 6 0 3 0;
#X connect 7 0 8 0;
#X connect 10 0 9 0;
#X connect 12 0 11 0;
#X connect 13 0 14 0;
#X connect 15 0 16 0;
#X connect 18 0 17 0;
#X connect 19 0 26 0;
#X connect 19 1 0 0;
#X connect 19 2 2 0;
#X connect 19 3 7 0;
#X connect 19 4 10 0;
#X connect 19 5 12 0;
#X connect 19 6 13 0;
#X connect 19 7 15 0;
#X connect 19 8 18 0;
#X connect 19 9 20 0;
#X connect 21 0 28 0;
#X connect 28 0 22 0;
#X connect 28 1 23 0;
#X connect 28 2 24 0;
#X connect 28 3 25 0;
#X connect 28 4 27 0;
#X connect 28 5 29 0;
#X connect 30 0 19 0;
