#N canvas 485 99 612 766 12;
#X obj 78 287 j-drum-bank;
#X obj 201 286 j-drum-bank;
#X obj 140 589 *~;
#X obj 66 12 inlet;
#X obj 240 65 + 1;
#X obj 240 97 == 1;
#X obj 203 64 f 0;
#X obj 66 35 t a a b, f 20;
#X obj 66 168 spigot 0;
#X obj 137 168 spigot 0;
#X obj 152 215 t a a;
#X obj 275 263 ==;
#X obj 158 542 vline~;
#X obj 264 584 *~;
#X obj 282 537 vline~;
#X obj 119 99 t a a;
#X obj 190 132 ==;
#X obj 286 150 s \$0-spig;
#X obj 119 71 r \$0-spig;
#X obj 152 192 r \$0-mute;
#X obj 263 173 s \$0-mute;
#X obj 321 298 r \$0-duck;
#X obj 240 203 s \$0-duck;
#X obj 321 321 t a a, f 14;
#X msg 321 344 \$1 5;
#X msg 416 372 \$1 5;
#X obj 416 346 ==;
#X obj 361 22 inlet messages;
#X obj 361 45 s \$0-mess;
#X obj 137 249 r \$0-mess;
#X obj 240 120 t a a a;
#X obj 158 565 pow~ 2;
#X obj 283 560 pow~ 2;
#X obj 207 641 outlet~;
#X connect 0 0 2 0;
#X connect 1 0 13 0;
#X connect 2 0 33 0;
#X connect 3 0 7 0;
#X connect 4 0 5 0;
#X connect 5 0 6 1;
#X connect 5 0 30 0;
#X connect 6 0 4 0;
#X connect 7 0 8 0;
#X connect 7 1 9 0;
#X connect 7 2 6 0;
#X connect 8 0 0 0;
#X connect 9 0 1 0;
#X connect 10 0 0 2;
#X connect 10 1 11 0;
#X connect 11 0 1 2;
#X connect 12 0 31 0;
#X connect 13 0 33 0;
#X connect 14 0 32 0;
#X connect 15 0 8 1;
#X connect 15 1 16 0;
#X connect 16 0 9 1;
#X connect 18 0 15 0;
#X connect 19 0 10 0;
#X connect 21 0 23 0;
#X connect 23 0 24 0;
#X connect 23 1 26 0;
#X connect 24 0 12 0;
#X connect 25 0 14 0;
#X connect 26 0 25 0;
#X connect 27 0 28 0;
#X connect 29 0 1 1;
#X connect 29 0 0 1;
#X connect 30 0 22 0;
#X connect 30 1 20 0;
#X connect 30 2 17 0;
#X connect 31 0 2 1;
#X connect 32 0 13 1;
