#N canvas 444 118 769 544 12;
#X obj 166 37 s \$0-mess;
#X obj 29 203 s \$0-vel;
#N canvas 532 211 450 300 \$0-drums 0;
#X obj 20 20 r 1014-vel;
#X obj 20 80 route 0 1;
#X obj 20 120 t a b;
#X obj 70 120 t a b;
#X obj 45 150 f -1;
#X obj 85 150 f -1;
#X obj 20 200 j-drums/cool-kick;
#X obj 160 200 j-drums/cool-kick;
#X obj 20 250 throw~ 1014-out;
#X obj 250 20 r 1014-mess;
#X connect 0 0 1 0;
#X connect 1 0 2 0;
#X connect 1 1 3 0;
#X connect 2 0 6 0;
#X connect 2 1 4 0;
#X connect 3 0 7 0;
#X connect 3 1 5 0;
#X connect 4 0 7 0;
#X connect 5 0 6 0;
#X connect 6 0 8 0;
#X connect 7 0 8 0;
#X connect 9 0 6 1;
#X connect 9 0 7 1;
#X restore 32 242 pd \$0-drums;
#X obj 27 297 catch~ \$0-out;
#X obj 333 50 t b;
#X obj 333 102 pack s \$0;
#X obj 333 74 symbol \$1;
#X obj 333 126 t l l, f 13;
#X msg 421 156 \; pd-\$2-drums clear;
#X obj 29 69 t a b;
#X obj 27 321 outlet~;
#X obj 93 71 + 1;
#X obj 93 97 == 1;
#X obj 61 97 f 1;
#X obj 29 153 list prepend;
#X obj 29 177 list trim;
#X msg 332 194 \; pd-\$2-drums obj 20 20 r \$2-vel \; pd-\$2-drums
obj 20 80 route 0 1 \; pd-\$2-drums obj 20 120 t a b \; pd-\$2-drums
obj 70 120 t a b \; pd-\$2-drums obj 45 150 f -1 \; pd-\$2-drums obj
85 150 f -1 \; pd-\$2-drums obj 20 200 \$1 \; pd-\$2-drums obj 160
200 \$1 \; pd-\$2-drums obj 20 250 throw~ \$2-out \; pd-\$2-drums obj
250 20 r \$2-mess \; pd-\$2-drums connect 0 0 1 0 \; pd-\$2-drums connect
1 0 2 0 \; pd-\$2-drums connect 1 1 3 0 \; pd-\$2-drums connect 2 1
4 0 \; pd-\$2-drums connect 3 1 5 0 \; pd-\$2-drums connect 4 0 7 0
\; pd-\$2-drums connect 5 0 6 0 \; pd-\$2-drums connect 2 0 6 0 \;
pd-\$2-drums connect 3 0 7 0 \; pd-\$2-drums connect 6 0 8 0 \; pd-\$2-drums
connect 7 0 8 0 \; pd-\$2-drums connect 9 0 6 1 \; pd-\$2-drums connect
9 0 7 1 \;;
#X obj 333 15 inlet;
#X text 377 16 loadbang;
#X obj 166 13 inlet;
#X text 209 11 messages;
#X obj 29 15 inlet;
#X text 69 15 vel;
#X connect 3 0 10 0;
#X connect 4 0 6 0;
#X connect 5 0 7 0;
#X connect 6 0 5 0;
#X connect 7 0 16 0;
#X connect 7 1 8 0;
#X connect 9 0 14 0;
#X connect 9 1 13 0;
#X connect 11 0 12 0;
#X connect 12 0 13 1;
#X connect 13 0 11 0;
#X connect 13 0 14 1;
#X connect 14 0 15 0;
#X connect 15 0 1 0;
#X connect 17 0 4 0;
#X connect 19 0 0 0;
#X connect 21 0 9 0;
