#N canvas 205 30 946 692 12;
#X msg 72 24 100;
#X msg 19 27 0;
#X obj 359 221 j-env, f 21;
#X floatatom 683 40 5 0 0 0 - - -;
#X msg 674 112 sus-loop-point \$1;
#X obj 13 259 *~ 0.3;
#X obj 46 319 *~, f 14;
#X obj 45 421 dac~ 1 2;
#X obj 140 276 clip~ 0 1;
#X obj 82 261 *~ 0.3;
#X obj 82 284 /~ 2;
#X obj 93 176 *~ 0.3;
#X obj 93 199 /~ 5;
#X obj 13 236 osc~ 220;
#X obj 82 238 osc~ 440;
#X obj 93 152 osc~ 880;
#X msg 477 43 stop;
#X floatatom 756 144 5 0 0 0 - - -;
#X floatatom 753 210 5 0 0 0 - - -;
#X msg 753 232 rel-len \$1;
#X msg 756 166 ads-len \$1;
#X floatatom 640 241 5 0 0 0 - - -;
#X floatatom 637 307 5 0 0 0 - - -;
#X msg 640 263 ads-time \$1;
#X msg 637 329 rel-time \$1;
#X msg 412 109 clear \, 0.12 4 1 \, 0.9 8 4 \, 0 2 4;
#X text 710 363 need to match pow curves;
#X msg 326 68 clear \, 1 128 0.6 \, 0.2 8 4 \, 0.5 8 6 \, 0 2 4;
#X connect 0 0 2 0;
#X connect 1 0 2 0;
#X connect 2 0 8 0;
#X connect 3 0 4 0;
#X connect 4 0 2 3;
#X connect 5 0 6 0;
#X connect 6 0 7 0;
#X connect 6 0 7 1;
#X connect 8 0 6 1;
#X connect 9 0 10 0;
#X connect 10 0 6 0;
#X connect 11 0 12 0;
#X connect 12 0 6 0;
#X connect 13 0 5 0;
#X connect 14 0 9 0;
#X connect 15 0 11 0;
#X connect 16 0 2 3;
#X connect 17 0 20 0;
#X connect 18 0 19 0;
#X connect 19 0 2 3;
#X connect 20 0 2 3;
#X connect 21 0 23 0;
#X connect 22 0 24 0;
#X connect 23 0 2 3;
#X connect 24 0 2 3;
#X connect 25 0 2 2;
#X connect 27 0 2 1;
