#N canvas 0 23 1300 759 12;
#X obj 50 17 inlet f (1 - 127);
#X obj 50 597 outlet;
#X text 634 299 upper level;
#X obj 592 299 * 27;
#X obj 592 329 + 100;
#X obj 50 57 clip 0 127;
#X obj 50 377 / 127;
#X obj 424 109 clip -127 127;
#X obj 497 437 s \$0-range;
#X obj 82 413 r \$0-range;
#X obj 424 232 t a a a, f 21;
#X obj 497 411 *;
#X obj 424 477 *, f 29;
#X obj 424 512 s \$0-minimum;
#X msg 424 276 1 \$1;
#X obj 424 316 -;
#X obj 67 482 r \$0-minimum;
#X obj 424 201 / 127;
#X obj 701 192 moses 0, f 9;
#X obj 592 359 t a a;
#X msg 50 297 127 \$1;
#X obj 50 337 -;
#X obj 424 149 t a a, f 40;
#X obj 761 222 t b;
#X msg 761 252 1;
#X obj 761 289 v \$0-pos-neg;
#X obj 701 222 t b;
#X msg 701 252 0;
#X obj 185 131 v \$0-pos-neg;
#X obj 50 87 t a a b, f 20;
#X obj 185 151 t a a, f 13;
#X obj 185 171 ==;
#X obj 424 174 abs;
#X obj 50 257 spigot 0;
#X obj 162 258 spigot 1;
#X obj 50 437 * 100;
#X obj 50 507 + 0;
#X obj 687 12 loadbang;
#X obj 424 19 inlet vel-amount(-127 - 127);
#X obj 687 32 f \$1;
#X connect 0 0 5 0;
#X connect 3 0 4 0;
#X connect 4 0 19 0;
#X connect 5 0 29 0;
#X connect 6 0 35 0;
#X connect 7 0 22 0;
#X connect 9 0 35 1;
#X connect 10 0 14 0;
#X connect 10 1 11 0;
#X connect 10 2 3 0;
#X connect 11 0 8 0;
#X connect 12 0 13 0;
#X connect 14 0 15 0;
#X connect 15 0 12 0;
#X connect 16 0 36 1;
#X connect 17 0 10 0;
#X connect 18 0 26 0;
#X connect 18 1 23 0;
#X connect 19 0 11 1;
#X connect 19 1 12 1;
#X connect 20 0 21 0;
#X connect 21 0 6 0;
#X connect 22 0 32 0;
#X connect 22 1 18 0;
#X connect 23 0 24 0;
#X connect 24 0 25 0;
#X connect 26 0 27 0;
#X connect 27 0 25 0;
#X connect 28 0 30 0;
#X connect 29 0 33 0;
#X connect 29 1 34 0;
#X connect 29 2 28 0;
#X connect 30 0 31 0;
#X connect 30 1 34 1;
#X connect 31 0 33 1;
#X connect 32 0 17 0;
#X connect 33 0 20 0;
#X connect 34 0 6 0;
#X connect 35 0 36 0;
#X connect 36 0 1 0;
#X connect 37 0 39 0;
#X connect 38 0 7 0;
#X connect 39 0 7 0;
