#N canvas 342 109 969 679 10;
#X obj 35 48 sel 0, f 8;
#X obj 113 139 s \$0-vel;
#X obj 311 26 inlet ad;
#X obj 392 26 inlet s;
#X obj 464 25 inlet r;
#X obj 311 85 s \$0-ad;
#X obj 80 238 s \$0-ad-bang;
#X obj 392 87 s \$0-s;
#X obj 464 86 s \$0-r;
#X obj 285 603 outlet~;
#X obj 35 272 s \$0-r-bang;
#X obj 600 24 inlet;
#X text 615 171 arg1: sustain loop on/off (default off);
#X text 615 187 arg2: velocity sensitivity;
#N canvas 0 23 450 300 messages 0;
#X obj 37 37 inlet;
#X obj 63 193 s \$0-velAmt;
#X obj 167 120 s \$0-relBpm;
#X obj 63 169 clip -127 127;
#X obj 140 140 s \$0-env-update;
#X obj 140 82 t b a;
#X obj 37 77 t b a;
#X obj 37 97 s \$0-env-update;
#X obj 37 57 route velAmt bpm update, f 51;
#X obj 239 79 t b;
#X obj 239 99 s \$0-env-update;
#X connect 0 0 8 0;
#X connect 3 0 1 0;
#X connect 5 0 4 0;
#X connect 5 1 2 0;
#X connect 6 0 7 0;
#X connect 6 1 3 0;
#X connect 8 0 6 0;
#X connect 8 1 5 0;
#X connect 8 2 9 0;
#X connect 9 0 10 0;
#X restore 600 44 pd messages;
#N canvas 0 23 1012 690 rel-vel-math 0;
#X obj 50 17 inlet f (1 - 127);
#X obj 424 19 r \$0-velAmt;
#X obj 50 557 outlet;
#X text 613 209 upper level;
#X obj 571 209 * 27;
#X obj 571 229 + 100;
#X obj 50 67 clip 0 127;
#X obj 50 337 / 127;
#X obj 424 79 clip -127 127;
#X obj 497 347 s \$0-range;
#X obj 77 363 r \$0-range;
#X obj 424 182 t a a a, f 25;
#X obj 497 311 *;
#X obj 424 387 *, f 29;
#X obj 424 422 s \$0-minimum;
#X msg 424 226 1 \$1;
#X obj 424 246 -;
#X obj 65 442 r \$0-minimum;
#X obj 424 151 / 127;
#X obj 589 119 moses 0, f 9;
#X obj 571 259 t a a;
#X msg 50 277 127 \$1;
#X obj 50 297 -;
#X obj 424 99 t a a, f 28;
#X obj 640 139 t b;
#X msg 640 159 1;
#X obj 640 185 v \$0-pos-neg;
#X obj 589 139 t b;
#X msg 589 159 0;
#X obj 185 131 v \$0-pos-neg;
#X obj 50 87 t a a b, f 38;
#X obj 185 151 t a a, f 13;
#X obj 185 171 ==;
#X obj 424 119 abs;
#X obj 50 257 spigot 0;
#X obj 162 258 spigot 1;
#X obj 50 387 * 100;
#X obj 50 467 + 0;
#X connect 0 0 6 0;
#X connect 1 0 8 0;
#X connect 4 0 5 0;
#X connect 5 0 20 0;
#X connect 6 0 30 0;
#X connect 7 0 36 0;
#X connect 8 0 23 0;
#X connect 10 0 36 1;
#X connect 11 0 15 0;
#X connect 11 1 12 0;
#X connect 11 2 4 0;
#X connect 12 0 9 0;
#X connect 13 0 14 0;
#X connect 15 0 16 0;
#X connect 16 0 13 0;
#X connect 17 0 37 1;
#X connect 18 0 11 0;
#X connect 19 0 27 0;
#X connect 19 1 24 0;
#X connect 20 0 12 1;
#X connect 20 1 13 1;
#X connect 21 0 22 0;
#X connect 22 0 7 0;
#X connect 23 0 33 0;
#X connect 23 1 19 0;
#X connect 24 0 25 0;
#X connect 25 0 26 0;
#X connect 27 0 28 0;
#X connect 28 0 26 0;
#X connect 29 0 31 0;
#X connect 30 0 34 0;
#X connect 30 1 35 0;
#X connect 30 2 29 0;
#X connect 31 0 32 0;
#X connect 31 1 35 1;
#X connect 32 0 34 1;
#X connect 33 0 18 0;
#X connect 34 0 21 0;
#X connect 35 0 7 0;
#X connect 36 0 37 0;
#X connect 37 0 2 0;
#X restore 113 112 pd rel-vel-math;
#X obj 285 578 *~;
#X obj 300 532 r \$0-vel;
#X obj 300 552 / 127;
#N canvas 297 221 933 589 ad 0;
#X obj 31 31 r \$0-ad;
#X obj 31 52 route clear, f 19;
#X obj 31 73 t b;
#X obj 31 94 s \$0-ad-clear;
#X msg 75 447 clear;
#X msg 161 386 rewind;
#X obj 46 275 r \$0-ad-bang;
#X obj 75 416 r \$0-ad-clear;
#X obj 46 344 t b b b, f 39;
#X obj 280 476 t b b;
#X msg 307 502 stop;
#X obj 280 530 delay, f 11;
#X obj 280 551 s \$0-s-bang;
#X obj 354 409 r \$0-r-bang;
#X obj 343 122 unpack 0 0 0, f 41;
#X obj 235 155 r \$0-ad-clear;
#X msg 235 175 0;
#X obj 219 212 f;
#X obj 177 211 + 0;
#X obj 462 165 j-rel-bpm;
#X obj 512 143 r \$0-relBpm;
#X obj 623 82 r \$0-ad-clear;
#X msg 623 102 0;
#X obj 142 105 unpack 0 0 0;
#X obj 177 132 j-rel-bpm;
#X obj 228 110 r \$0-relBpm;
#X text 336 366 delay time \, amp \, ramp time \, curve;
#X obj 611 188 t a a;
#X msg 638 210 1 \$1;
#X obj 638 230 /;
#X obj 142 85 t a a, f 34;
#X obj 343 320 pack 0 0 0 0 \$0, f 53;
#X obj 45 512 qlist;
#X msg 343 344 add \$3 ad-\$5 \$1 \$2 \$4;
#X obj 442 192 t f f b;
#X obj 354 429 t b b;
#X obj 500 283 f;
#X connect 0 0 1 0;
#X connect 1 0 2 0;
#X connect 1 1 30 0;
#X connect 2 0 3 0;
#X connect 4 0 32 0;
#X connect 5 0 32 0;
#X connect 6 0 8 0;
#X connect 7 0 4 0;
#X connect 8 0 32 0;
#X connect 8 1 5 0;
#X connect 8 2 9 0;
#X connect 9 0 11 0;
#X connect 9 1 10 0;
#X connect 10 0 11 0;
#X connect 11 0 12 0;
#X connect 13 0 35 0;
#X connect 14 0 31 0;
#X connect 14 1 19 0;
#X connect 14 2 27 0;
#X connect 15 0 16 0;
#X connect 16 0 17 1;
#X connect 16 0 18 1;
#X connect 17 0 18 1;
#X connect 17 0 11 1;
#X connect 18 0 17 0;
#X connect 19 0 34 0;
#X connect 20 0 19 1;
#X connect 21 0 22 0;
#X connect 22 0 36 1;
#X connect 23 1 24 0;
#X connect 24 0 18 0;
#X connect 25 0 24 1;
#X connect 27 0 31 3;
#X connect 27 1 28 0;
#X connect 28 0 29 0;
#X connect 30 0 23 0;
#X connect 30 1 14 0;
#X connect 31 0 33 0;
#X connect 33 0 32 0;
#X connect 34 0 31 1;
#X connect 34 1 36 1;
#X connect 34 2 36 0;
#X connect 35 0 5 0;
#X connect 35 1 10 0;
#X connect 36 0 31 2;
#X restore 309 132 pd ad;
#N canvas 317 62 933 727 s 0;
#X obj 31 52 route clear, f 19;
#X obj 31 73 t b;
#X msg 174 555 clear;
#X msg 161 476 rewind;
#X obj 31 31 r \$0-s;
#X obj 276 466 spigot \$1;
#X obj 276 633 s \$0-s-loop;
#X obj 276 501 t b b;
#X msg 303 527 stop;
#X obj 276 555 delay, f 11;
#X obj 276 592 spigot 0, f 19;
#X obj 468 372 r \$0-r-bang;
#X msg 495 490 0;
#X obj 60 310 r \$0-s-loop;
#X obj 46 265 r \$0-s-bang;
#X obj 46 434 t b b b b, f 58;
#X msg 391 467 1;
#X obj 31 94 s \$0-s-clear;
#X obj 174 524 r \$0-s-clear;
#X obj 344 122 unpack 0 0 0, f 37;
#X msg 235 175 0;
#X obj 219 212 f;
#X obj 177 211 + 0;
#X obj 413 167 j-rel-bpm;
#X obj 463 145 r \$0-relBpm;
#X msg 599 154 0;
#X obj 142 105 unpack 0 0 0;
#X obj 177 132 j-rel-bpm;
#X obj 228 110 r \$0-relBpm;
#X obj 235 155 r \$0-s-clear;
#X obj 599 134 r \$0-s-clear;
#X obj 142 84 t a a, f 34;
#X obj 578 221 t a a;
#X msg 605 243 1 \$1;
#X obj 605 263 /;
#X obj 344 310 pack 0 0 0 0 \$0, f 56;
#X obj 45 602 qlist;
#X msg 344 343 add \$3 s-\$5 \$1 \$2 \$4;
#X obj 413 192 t f f b;
#X obj 469 392 t b b b;
#X obj 554 370 r \$0-ad-bang;
#X obj 516 286 f;
#X connect 0 0 1 0;
#X connect 0 1 31 0;
#X connect 1 0 17 0;
#X connect 2 0 36 0;
#X connect 3 0 36 0;
#X connect 4 0 0 0;
#X connect 5 0 7 0;
#X connect 7 0 9 0;
#X connect 7 1 8 0;
#X connect 8 0 9 0;
#X connect 9 0 10 0;
#X connect 10 0 6 0;
#X connect 11 0 39 0;
#X connect 12 0 10 1;
#X connect 13 0 15 0;
#X connect 14 0 15 0;
#X connect 15 0 36 0;
#X connect 15 1 3 0;
#X connect 15 2 5 0;
#X connect 15 3 16 0;
#X connect 16 0 10 1;
#X connect 18 0 2 0;
#X connect 19 0 35 0;
#X connect 19 1 23 0;
#X connect 19 2 32 0;
#X connect 20 0 21 1;
#X connect 20 0 22 1;
#X connect 21 0 22 1;
#X connect 21 0 9 1;
#X connect 22 0 21 0;
#X connect 23 0 38 0;
#X connect 24 0 23 1;
#X connect 25 0 41 1;
#X connect 26 1 27 0;
#X connect 27 0 22 0;
#X connect 28 0 27 1;
#X connect 29 0 20 0;
#X connect 30 0 25 0;
#X connect 31 0 26 0;
#X connect 31 1 19 0;
#X connect 32 0 35 3;
#X connect 32 1 33 0;
#X connect 33 0 34 0;
#X connect 35 0 37 0;
#X connect 37 0 36 0;
#X connect 38 0 35 1;
#X connect 38 1 41 1;
#X connect 38 2 41 0;
#X connect 39 0 8 0;
#X connect 39 1 12 0;
#X connect 39 2 3 0;
#X connect 40 0 39 0;
#X connect 41 0 35 2;
#X restore 397 129 pd s;
#N canvas 0 23 933 589 r 0;
#X obj 31 52 route clear, f 19;
#X obj 31 73 t b;
#X msg 174 465 clear;
#X msg 161 386 rewind;
#X obj 46 344 t b b b, f 39;
#X obj 31 31 r \$0-r;
#X obj 31 94 s \$0-r-clear;
#X obj 46 275 r \$0-r-bang;
#X obj 174 434 r \$0-r-clear;
#X obj 344 122 unpack 0 0 0, f 41;
#X obj 463 161 j-rel-bpm;
#X obj 513 139 r \$0-relBpm;
#X msg 649 154 0;
#X obj 649 134 r \$0-r-clear;
#X obj 611 218 t a a;
#X msg 638 240 1 \$1;
#X obj 638 260 /;
#X obj 344 320 pack 0 0 0 0 \$0, f 58;
#X obj 45 511 qlist;
#X msg 344 340 add \$3 r-\$5 \$1 \$2 \$4;
#X obj 443 192 t f f b;
#X obj 213 289 r \$0-ad-bang;
#X obj 213 309 t b;
#X obj 522 280 f;
#X connect 0 0 1 0;
#X connect 0 1 9 0;
#X connect 1 0 6 0;
#X connect 2 0 18 0;
#X connect 3 0 18 0;
#X connect 4 0 18 0;
#X connect 4 1 3 0;
#X connect 5 0 0 0;
#X connect 7 0 4 0;
#X connect 8 0 2 0;
#X connect 9 0 17 0;
#X connect 9 1 10 0;
#X connect 9 2 14 0;
#X connect 10 0 20 0;
#X connect 11 0 10 1;
#X connect 12 0 23 1;
#X connect 13 0 12 0;
#X connect 14 0 17 3;
#X connect 14 1 15 0;
#X connect 15 0 16 0;
#X connect 17 0 19 0;
#X connect 19 0 18 0;
#X connect 20 0 17 1;
#X connect 20 1 23 1;
#X connect 20 2 23 0;
#X connect 21 0 22 0;
#X connect 22 0 3 0;
#X connect 23 0 17 2;
#X restore 481 133 pd r;
#X obj 285 311 t a, f 30;
#X obj 285 232 r ad-\$0;
#X obj 303 255 r s-\$0;
#X obj 322 275 r r-\$0;
#N canvas 0 23 1334 656 vline-tennis 0;
#X obj 101 33 inlet;
#X obj 679 87 + 1;
#X obj 680 106 < 2;
#X obj 644 87 f 0;
#X obj 100 408 vline~;
#X obj 164 408 vline~;
#X obj 100 438 pow~ 2, f 11;
#X obj 100 132 spigot;
#X obj 201 165 spigot;
#X obj 199 103 t a a a, f 13;
#X obj 267 288 sel 0;
#X obj 100 601 outlet~;
#X obj 101 53 t a a b, f 91;
#X obj 101 81 list split 2;
#X msg 221 313 \$1 0;
#X obj 420 408 vline~;
#X obj 485 408 vline~;
#X obj 421 438 pow~ 2, f 11;
#X obj 372 139 spigot;
#X obj 474 226 spigot;
#X obj 470 103 t a a a, f 13;
#X obj 545 317 sel 0;
#X obj 372 81 list split 2;
#X msg 489 331 \$1 0;
#X obj 470 83 r \$0-env-switchR;
#X msg 321 328 1 0;
#X msg 616 362 1 0;
#X msg 267 328 0 0;
#X msg 547 363 0 0;
#X obj 100 568 +~, f 37;
#X obj 157 462 snapshot~;
#X obj 446 468 snapshot~;
#X msg 446 518 \$1 0;
#X msg 157 502 \$1 0;
#X obj 680 179 sel 0 1, f 69;
#X text 904 328 turn off current;
#X text 911 308 get the current point \, pass to new vline;
#X text 895 346 turn on new;
#X msg 726 224 0;
#X msg 680 229 1;
#X obj 199 77 r \$0-env-switchL;
#X obj 726 247 s \$0-env-switchL;
#X obj 680 268 s \$0-env-switchR;
#X obj 230 419 r \$0-env-getL;
#X obj 523 437 r \$0-env-getR;
#X msg 931 225 0;
#X msg 885 230 1;
#X obj 931 248 s \$0-env-switchR;
#X obj 885 269 s \$0-env-switchL;
#X obj 157 482 pow, f 22;
#X obj 446 498 pow, f 5;
#X msg 286 440 1 \$1;
#X obj 286 460 /;
#X msg 510 491 1 \$1;
#X obj 510 511 /;
#X obj 71 210 list append;
#X obj 71 230 route 69;
#X msg 71 190 69;
#X obj 446 538 s \$0-env-storeR;
#X obj 157 526 s \$0-env-storeL;
#X obj 100 189 r \$0-env-storeR;
#X obj 427 182 r \$0-env-storeL;
#X obj 399 206 list append;
#X obj 399 226 route 69;
#X msg 399 186 69;
#X obj 372 159 t a b;
#X obj 101 152 t a b;
#X obj 474 246 t b a a;
#X obj 456 281 s \$0-env-getL;
#X obj 201 185 t b a a;
#X obj 201 212 s \$0-env-getR;
#X text 655 455 *** need to clean this up but seems to be wortking
great!!;
#X text 665 478 The key is the snapshot and finding the inverse of
the pow so that there is continuity and no click;
#X obj 885 200 t b b, f 9;
#X obj 680 199 t b b, f 9;
#X text 699 511 and of course the big key is the order of operations
\, at the same time send where to start and where to go messages.;
#X obj 267 308 t b b;
#X connect 0 0 12 0;
#X connect 1 0 2 0;
#X connect 2 0 3 1;
#X connect 2 0 34 0;
#X connect 3 0 1 0;
#X connect 4 0 6 0;
#X connect 5 0 6 1;
#X connect 6 0 29 0;
#X connect 6 0 30 0;
#X connect 7 0 66 0;
#X connect 8 0 69 0;
#X connect 9 0 7 1;
#X connect 9 1 8 1;
#X connect 9 2 10 0;
#X connect 10 0 76 0;
#X connect 12 0 13 0;
#X connect 12 1 22 0;
#X connect 12 2 3 0;
#X connect 13 0 7 0;
#X connect 13 1 8 0;
#X connect 14 0 5 0;
#X connect 15 0 17 0;
#X connect 16 0 17 1;
#X connect 17 0 29 1;
#X connect 17 0 31 0;
#X connect 18 0 65 0;
#X connect 19 0 67 0;
#X connect 20 0 18 1;
#X connect 20 1 19 1;
#X connect 20 2 21 0;
#X connect 21 0 28 0;
#X connect 21 0 26 0;
#X connect 22 0 18 0;
#X connect 22 1 19 0;
#X connect 23 0 16 0;
#X connect 24 0 20 0;
#X connect 25 0 5 0;
#X connect 26 0 16 0;
#X connect 27 0 4 0;
#X connect 28 0 15 0;
#X connect 29 0 11 0;
#X connect 30 0 49 0;
#X connect 31 0 50 0;
#X connect 32 0 58 0;
#X connect 33 0 59 0;
#X connect 34 0 74 0;
#X connect 34 1 73 0;
#X connect 38 0 41 0;
#X connect 39 0 42 0;
#X connect 40 0 9 0;
#X connect 43 0 30 0;
#X connect 44 0 31 0;
#X connect 45 0 47 0;
#X connect 46 0 48 0;
#X connect 49 0 33 0;
#X connect 50 0 32 0;
#X connect 51 0 52 0;
#X connect 52 0 49 1;
#X connect 53 0 54 0;
#X connect 54 0 50 1;
#X connect 55 0 56 0;
#X connect 56 0 4 0;
#X connect 57 0 55 0;
#X connect 60 0 55 1;
#X connect 61 0 62 1;
#X connect 62 0 63 0;
#X connect 63 0 15 0;
#X connect 64 0 62 0;
#X connect 65 0 15 0;
#X connect 65 1 64 0;
#X connect 66 0 4 0;
#X connect 66 1 57 0;
#X connect 67 0 68 0;
#X connect 67 1 23 0;
#X connect 67 2 51 0;
#X connect 69 0 70 0;
#X connect 69 1 14 0;
#X connect 69 2 53 0;
#X connect 73 0 46 0;
#X connect 73 1 45 0;
#X connect 74 0 39 0;
#X connect 74 1 38 0;
#X connect 76 0 27 0;
#X connect 76 1 25 0;
#X restore 126 368 pd vline-tennis;
#X obj 80 73 t b f, f 6;
#X obj 35 27 inlet vel(0-127);
#N canvas 554 265 450 476 store 0;
#X obj 61 15 inlet;
#X obj 61 35 route clear;
#X obj 124 147 t a a;
#X obj 124 127 list prepend;
#X obj 61 259 list append;
#X obj 61 279 route 69;
#X msg 61 237 69;
#X obj 61 55 t b b;
#X obj 61 186 r \$0-env-update;
#X obj 86 423 outlet;
#X obj 61 206 t b b, f 30;
#X msg 237 262 clear;
#X obj 61 319 list split 3, f 17;
#X obj 61 339 t b a;
#X obj 103 366 list append;
#X msg 103 344 69;
#X obj 103 386 route 69;
#X connect 0 0 1 0;
#X connect 1 0 7 0;
#X connect 1 1 3 0;
#X connect 2 0 4 1;
#X connect 2 1 3 1;
#X connect 3 0 2 0;
#X connect 4 0 5 0;
#X connect 5 0 12 0;
#X connect 6 0 4 0;
#X connect 7 0 4 1;
#X connect 7 1 3 1;
#X connect 8 0 10 0;
#X connect 10 0 6 0;
#X connect 10 1 11 0;
#X connect 11 0 9 0;
#X connect 12 0 13 0;
#X connect 12 1 14 1;
#X connect 13 0 15 0;
#X connect 13 1 9 0;
#X connect 14 0 16 0;
#X connect 15 0 14 0;
#X connect 16 0 12 0;
#X restore 311 58 pd store;
#N canvas 555 266 450 476 store 0;
#X obj 61 15 inlet;
#X obj 61 35 route clear;
#X obj 124 147 t a a;
#X obj 124 127 list prepend;
#X obj 61 259 list append;
#X obj 61 279 route 69;
#X msg 61 237 69;
#X obj 61 55 t b b;
#X obj 61 186 r \$0-env-update;
#X obj 86 423 outlet;
#X obj 61 206 t b b, f 30;
#X msg 237 262 clear;
#X obj 61 319 list split 3, f 17;
#X obj 61 339 t b a;
#X obj 103 366 list append;
#X msg 103 344 69;
#X obj 103 386 route 69;
#X connect 0 0 1 0;
#X connect 1 0 7 0;
#X connect 1 1 3 0;
#X connect 2 0 4 1;
#X connect 2 1 3 1;
#X connect 3 0 2 0;
#X connect 4 0 5 0;
#X connect 5 0 12 0;
#X connect 6 0 4 0;
#X connect 7 0 4 1;
#X connect 7 1 3 1;
#X connect 8 0 10 0;
#X connect 10 0 6 0;
#X connect 10 1 11 0;
#X connect 11 0 9 0;
#X connect 12 0 13 0;
#X connect 12 1 14 1;
#X connect 13 0 15 0;
#X connect 13 1 9 0;
#X connect 14 0 16 0;
#X connect 15 0 14 0;
#X connect 16 0 12 0;
#X restore 392 60 pd store;
#N canvas 555 266 450 476 store 0;
#X obj 61 15 inlet;
#X obj 61 35 route clear;
#X obj 124 147 t a a;
#X obj 124 127 list prepend;
#X obj 61 259 list append;
#X obj 61 279 route 69;
#X msg 61 237 69;
#X obj 61 55 t b b;
#X obj 61 186 r \$0-env-update;
#X obj 86 423 outlet;
#X obj 61 206 t b b, f 30;
#X msg 237 262 clear;
#X obj 61 319 list split 3, f 17;
#X obj 61 339 t b a;
#X obj 103 366 list append;
#X msg 103 344 69;
#X obj 103 386 route 69;
#X connect 0 0 1 0;
#X connect 1 0 7 0;
#X connect 1 1 3 0;
#X connect 2 0 4 1;
#X connect 2 1 3 1;
#X connect 3 0 2 0;
#X connect 4 0 5 0;
#X connect 5 0 12 0;
#X connect 6 0 4 0;
#X connect 7 0 4 1;
#X connect 7 1 3 1;
#X connect 8 0 10 0;
#X connect 10 0 6 0;
#X connect 10 1 11 0;
#X connect 11 0 9 0;
#X connect 12 0 13 0;
#X connect 12 1 14 1;
#X connect 13 0 15 0;
#X connect 13 1 9 0;
#X connect 14 0 16 0;
#X connect 15 0 14 0;
#X connect 16 0 12 0;
#X restore 464 59 pd store;
#N canvas 0 23 450 539 one-shot 0;
#X obj 32 16 inlet;
#X obj 16 372 vline~;
#X obj 20 475 pow~ 2, f 12;
#X obj 16 217 list split 2, f 31;
#X obj 209 394 /;
#X obj 181 417 pow;
#X msg 181 449 \$1 0;
#X obj 16 294 t a b b;
#X obj 99 407 f;
#X msg 209 371 1 \$1;
#X obj 99 451 vline~;
#X msg 99 430 \$1 0;
#X obj 181 345 snapshot~;
#X obj 21 515 outlet~;
#X obj 32 36 unpack 0 0 0;
#X obj 99 102 /;
#X obj 33 112 pow;
#X msg 99 79 1 \$1;
#X obj 100 59 t a a a, f 22;
#X obj 33 152 pack 0 0 0;
#X connect 0 0 14 0;
#X connect 1 0 2 0;
#X connect 2 0 12 0;
#X connect 2 0 13 0;
#X connect 3 0 7 0;
#X connect 4 0 5 1;
#X connect 5 0 6 0;
#X connect 6 0 1 0;
#X connect 7 0 1 0;
#X connect 7 1 12 0;
#X connect 7 2 8 0;
#X connect 8 0 11 0;
#X connect 9 0 4 0;
#X connect 10 0 2 1;
#X connect 11 0 10 0;
#X connect 12 0 5 0;
#X connect 14 0 16 0;
#X connect 14 1 19 1;
#X connect 14 2 18 0;
#X connect 15 0 16 1;
#X connect 15 0 5 1;
#X connect 16 0 19 0;
#X connect 17 0 15 0;
#X connect 18 0 17 0;
#X connect 18 1 19 2;
#X connect 18 2 8 1;
#X connect 19 0 3 0;
#X restore 141 427 pd one-shot;
#X obj 285 331 list split 2;
#X obj 285 421 vline~;
#X obj 285 441 pow~ 2;
#X obj 285 351 unpack;
#X obj 285 371 sqrt;
#X obj 285 394 pack, f 7;
#X obj 346 431 vline~;
#X msg 350 393 \$1 0;
#X obj 499 582 outlet bang when finished;
#X connect 0 0 10 0;
#X connect 0 1 27 0;
#X connect 2 0 29 0;
#X connect 3 0 30 0;
#X connect 4 0 31 0;
#X connect 11 0 14 0;
#X connect 15 0 1 0;
#X connect 16 0 9 0;
#X connect 17 0 18 0;
#X connect 18 0 16 1;
#X connect 22 0 33 0;
#X connect 23 0 22 0;
#X connect 24 0 22 0;
#X connect 25 0 22 0;
#X connect 27 0 6 0;
#X connect 27 1 15 0;
#X connect 28 0 0 0;
#X connect 29 0 5 0;
#X connect 30 0 7 0;
#X connect 31 0 8 0;
#X connect 33 0 36 0;
#X connect 33 1 40 0;
#X connect 34 0 35 0;
#X connect 35 0 16 0;
#X connect 36 0 37 0;
#X connect 36 1 38 1;
#X connect 37 0 38 0;
#X connect 38 0 34 0;
#X connect 40 0 39 0;
