#N canvas 258 96 969 679 10;
#X obj 35 48 sel 0, f 8;
#X obj 113 139 s \$0-vel;
#X obj 311 26 inlet ad;
#X obj 392 26 inlet s;
#X obj 464 25 inlet r;
#X obj 311 85 s \$0-ad;
#X obj 80 238 s \$0-ad-bang;
#X obj 392 87 s \$0-s;
#X obj 464 86 s \$0-r;
#X obj 285 633 outlet~;
#X obj 35 272 s \$0-r-bang;
#X obj 600 24 inlet;
#X text 615 171 arg1: sustain loop on/off (default off);
#X text 615 187 arg2: velocity sensitivity;
#N canvas 0 23 597 360 messages 0;
#X obj 37 37 inlet;
#X obj 35 127 s \$0-velAmt;
#X obj 129 259 s \$0-relBpm;
#X obj 35 103 clip -127 127;
#X obj 239 79 t b;
#X obj 239 99 s \$0-env-update;
#X obj 36 58 route velAmt bpm update curve, f 63;
#X obj 341 134 max 0;
#X obj 341 154 s \$0-curve;
#X obj 129 142 max 1;
#X obj 129 175 / 120;
#X text 170 178 <-- relative to the 120bpm;
#X connect 0 0 6 0;
#X connect 3 0 1 0;
#X connect 4 0 5 0;
#X connect 6 0 3 0;
#X connect 6 1 9 0;
#X connect 6 2 4 0;
#X connect 6 3 7 0;
#X connect 7 0 8 0;
#X connect 9 0 10 0;
#X connect 10 0 2 0;
#X restore 600 44 pd messages;
#N canvas 0 23 1012 690 rel-vel-math 0;
#X obj 50 17 inlet f (1 - 127);
#X obj 424 19 r \$0-velAmt;
#X obj 50 557 outlet;
#X text 613 209 upper level;
#X obj 571 209 * 27;
#X obj 571 229 + 100;
#X obj 50 67 clip 0 127;
#X obj 50 337 / 127;
#X obj 424 79 clip -127 127;
#X obj 497 347 s \$0-range;
#X obj 77 363 r \$0-range;
#X obj 424 182 t a a a, f 25;
#X obj 497 311 *;
#X obj 424 387 *, f 29;
#X obj 424 422 s \$0-minimum;
#X msg 424 226 1 \$1;
#X obj 424 246 -;
#X obj 65 442 r \$0-minimum;
#X obj 424 151 / 127;
#X obj 589 119 moses 0, f 9;
#X obj 571 259 t a a;
#X msg 50 277 127 \$1;
#X obj 50 297 -;
#X obj 424 99 t a a, f 28;
#X obj 640 139 t b;
#X msg 640 159 1;
#X obj 640 185 v \$0-pos-neg;
#X obj 589 139 t b;
#X msg 589 159 0;
#X obj 185 131 v \$0-pos-neg;
#X obj 50 87 t a a b, f 38;
#X obj 185 151 t a a, f 13;
#X obj 185 171 ==;
#X obj 424 119 abs;
#X obj 50 257 spigot 0;
#X obj 162 258 spigot 1;
#X obj 50 387 * 100;
#X obj 50 467 + 0;
#X obj 621 29 loadbang;
#X obj 621 49 f \$2;
#X connect 0 0 6 0;
#X connect 1 0 8 0;
#X connect 4 0 5 0;
#X connect 5 0 20 0;
#X connect 6 0 30 0;
#X connect 7 0 36 0;
#X connect 8 0 23 0;
#X connect 10 0 36 1;
#X connect 11 0 15 0;
#X connect 11 1 12 0;
#X connect 11 2 4 0;
#X connect 12 0 9 0;
#X connect 13 0 14 0;
#X connect 15 0 16 0;
#X connect 16 0 13 0;
#X connect 17 0 37 1;
#X connect 18 0 11 0;
#X connect 19 0 27 0;
#X connect 19 1 24 0;
#X connect 20 0 12 1;
#X connect 20 1 13 1;
#X connect 21 0 22 0;
#X connect 22 0 7 0;
#X connect 23 0 33 0;
#X connect 23 1 19 0;
#X connect 24 0 25 0;
#X connect 25 0 26 0;
#X connect 27 0 28 0;
#X connect 28 0 26 0;
#X connect 29 0 31 0;
#X connect 30 0 34 0;
#X connect 30 1 35 0;
#X connect 30 2 29 0;
#X connect 31 0 32 0;
#X connect 31 1 35 1;
#X connect 32 0 34 1;
#X connect 33 0 18 0;
#X connect 34 0 21 0;
#X connect 35 0 7 0;
#X connect 36 0 37 0;
#X connect 37 0 2 0;
#X connect 38 0 39 0;
#X connect 39 0 8 0;
#X restore 113 112 pd rel-vel-math;
#X obj 285 608 *~;
#X obj 300 562 r \$0-vel;
#X obj 300 582 / 127;
#N canvas 111 23 933 789 ad 0;
#X obj 31 31 r \$0-ad;
#X obj 31 52 route clear, f 19;
#X obj 31 73 t b;
#X obj 31 94 s \$0-ad-clear;
#X msg 68 528 clear;
#X msg 161 506 rewind;
#X obj 46 395 r \$0-ad-bang;
#X obj 68 497 r \$0-ad-clear;
#X obj 46 464 t b b b, f 39;
#X obj 280 596 t b b;
#X msg 307 622 stop;
#X obj 280 650 delay, f 11;
#X obj 280 671 s \$0-s-bang;
#X obj 331 421 r \$0-r-bang;
#X obj 367 200 r \$0-ad-clear;
#X msg 367 220 0;
#X text 135 358 delay time \, amp \, ramp time \, curve;
#X obj 142 85 t a a, f 78;
#X obj 45 632 qlist;
#X obj 241 223 t f f b, f 19;
#X obj 331 441 t b b;
#X obj 352 254 f;
#X obj 142 112 unpack 0 0, f 11;
#X obj 142 312 pack 0 0 0 \$0, f 53;
#X msg 142 336 add \$3 ad-\$4 \$1 \$2;
#X obj 121 593 r \$0-relBpm;
#X msg 121 612 tempo \$1;
#X obj 700 243 r \$0-ad-clear;
#X msg 700 263 0;
#X obj 684 300 f;
#X obj 642 299 + 0;
#X obj 607 123 unpack 0 0;
#X obj 241 274 -;
#X obj 352 274 t f f;
#X obj 670 191 f;
#X obj 716 127 r \$0-ad-clear;
#X msg 716 147 0;
#X obj 635 157 t f f b;
#X obj 635 217 -;
#X obj 684 320 t f f;
#X obj 711 358 s \$0-ad-amt;
#X connect 0 0 1 0;
#X connect 1 0 2 0;
#X connect 1 1 17 0;
#X connect 2 0 3 0;
#X connect 4 0 18 0;
#X connect 5 0 18 0;
#X connect 6 0 8 0;
#X connect 7 0 4 0;
#X connect 8 0 18 0;
#X connect 8 1 5 0;
#X connect 8 2 9 0;
#X connect 9 0 11 0;
#X connect 9 1 10 0;
#X connect 10 0 11 0;
#X connect 11 0 12 0;
#X connect 13 0 20 0;
#X connect 14 0 15 0;
#X connect 15 0 21 1;
#X connect 17 0 22 0;
#X connect 17 1 31 0;
#X connect 19 0 32 0;
#X connect 19 1 21 1;
#X connect 19 2 21 0;
#X connect 20 0 5 0;
#X connect 20 1 10 0;
#X connect 21 0 33 0;
#X connect 22 0 23 0;
#X connect 22 1 19 0;
#X connect 23 0 24 0;
#X connect 24 0 18 0;
#X connect 25 0 26 0;
#X connect 26 0 18 0;
#X connect 27 0 28 0;
#X connect 28 0 29 1;
#X connect 28 0 30 1;
#X connect 29 0 30 1;
#X connect 29 0 39 0;
#X connect 30 0 29 0;
#X connect 31 1 37 0;
#X connect 32 0 23 1;
#X connect 33 0 32 1;
#X connect 33 1 23 2;
#X connect 34 0 38 1;
#X connect 35 0 36 0;
#X connect 36 0 34 1;
#X connect 37 0 38 0;
#X connect 37 1 34 1;
#X connect 37 2 34 0;
#X connect 38 0 30 0;
#X connect 39 0 11 1;
#X connect 39 1 40 0;
#X restore 309 132 pd ad;
#N canvas 448 110 933 727 s 1;
#X obj 31 52 route clear, f 19;
#X obj 31 73 t b;
#X msg 72 496 clear;
#X msg 161 476 rewind;
#X obj 31 31 r \$0-s;
#X obj 276 633 s \$0-s-loop;
#X obj 276 501 t b b;
#X msg 303 527 stop;
#X obj 276 555 delay, f 11;
#X obj 276 592 spigot 0, f 19;
#X obj 469 352 r \$0-r-bang;
#X msg 495 490 0;
#X obj 72 392 r \$0-s-loop;
#X obj 46 175 r \$0-s-bang;
#X obj 46 434 t b b b b, f 58;
#X msg 391 467 1;
#X obj 31 94 s \$0-s-clear;
#X obj 72 465 r \$0-s-clear;
#X msg 396 162 0;
#X obj 396 142 r \$0-s-clear;
#X obj 142 84 t a a, f 73;
#X obj 45 602 qlist;
#X obj 210 210 t f f b, f 18;
#X obj 469 392 t b b b;
#X obj 484 370 r \$0-ad-bang;
#X obj 315 235 f;
#X obj 141 117 unpack 0 0, f 12;
#X obj 141 318 pack 0 0 0 \$0, f 42;
#X msg 141 352 add \$3 s-\$4 \$1 \$2;
#X obj 159 519 r \$0-relBpm;
#X msg 159 538 tempo \$1;
#X obj 276 466 spigot \$1;
#X obj 315 285 t f f;
#X obj 210 280 -;
#X msg 700 263 0;
#X obj 684 300 f;
#X obj 642 299 + 0;
#X obj 607 123 unpack 0 0;
#X obj 670 191 f;
#X msg 716 147 0;
#X obj 635 157 t f f b;
#X obj 635 217 -;
#X obj 716 127 r \$0-s-clear;
#X obj 712 227 r \$0-s-clear;
#X obj 415 204 r \$0-ad-amt;
#X obj 253 260 +;
#X floatatom 684 320 5 0 0 0 - - -;
#X connect 0 0 1 0;
#X connect 0 1 20 0;
#X connect 1 0 16 0;
#X connect 2 0 21 0;
#X connect 3 0 21 0;
#X connect 4 0 0 0;
#X connect 6 0 8 0;
#X connect 6 1 7 0;
#X connect 7 0 8 0;
#X connect 8 0 9 0;
#X connect 9 0 5 0;
#X connect 10 0 23 0;
#X connect 11 0 9 1;
#X connect 12 0 14 0;
#X connect 13 0 14 0;
#X connect 14 0 21 0;
#X connect 14 1 3 0;
#X connect 14 2 31 0;
#X connect 14 3 15 0;
#X connect 15 0 9 1;
#X connect 17 0 2 0;
#X connect 18 0 25 1;
#X connect 19 0 18 0;
#X connect 20 0 26 0;
#X connect 20 1 37 0;
#X connect 22 0 33 0;
#X connect 22 1 25 1;
#X connect 22 2 25 0;
#X connect 23 0 7 0;
#X connect 23 1 11 0;
#X connect 23 2 3 0;
#X connect 24 0 23 0;
#X connect 25 0 32 0;
#X connect 26 0 27 0;
#X connect 26 1 22 0;
#X connect 27 0 28 0;
#X connect 28 0 21 0;
#X connect 29 0 30 0;
#X connect 30 0 21 0;
#X connect 31 0 6 0;
#X connect 32 0 45 0;
#X connect 32 1 27 2;
#X connect 33 0 27 1;
#X connect 34 0 35 1;
#X connect 34 0 36 1;
#X connect 35 0 36 1;
#X connect 35 0 8 1;
#X connect 35 0 46 0;
#X connect 36 0 35 0;
#X connect 37 1 40 0;
#X connect 38 0 41 1;
#X connect 39 0 38 1;
#X connect 40 0 41 0;
#X connect 40 1 38 1;
#X connect 40 2 38 0;
#X connect 41 0 36 0;
#X connect 42 0 39 0;
#X connect 43 0 34 0;
#X connect 44 0 45 1;
#X connect 45 0 33 1;
#X restore 397 129 pd s;
#N canvas 355 189 933 690 r 0;
#X obj 31 52 route clear, f 19;
#X obj 31 73 t b;
#X msg 53 501 clear;
#X msg 151 476 rewind;
#X obj 36 434 t b b b, f 39;
#X obj 31 31 r \$0-r;
#X obj 31 94 s \$0-r-clear;
#X obj 36 365 r \$0-r-bang;
#X obj 53 470 r \$0-r-clear;
#X msg 359 183 0;
#X obj 359 163 r \$0-r-clear;
#X obj 35 601 qlist;
#X obj 229 201 t f f b, f 19;
#X obj 203 379 r \$0-ad-bang;
#X obj 344 234 f;
#X obj 114 160 unpack 0 0, f 20;
#X msg 114 298 add \$3 r-\$4 \$1 \$2;
#X obj 114 278 pack 0 0 0 \$0, f 58;
#X obj 142 81 t a a, f 70;
#X obj 267 494 t b b;
#X msg 294 520 stop;
#X obj 267 548 delay, f 11;
#X obj 203 399 t b b;
#X obj 267 626 s \$0-finished;
#X obj 111 563 r \$0-relBpm;
#X msg 111 582 tempo \$1;
#X obj 344 254 t f f;
#X obj 229 251 -;
#X msg 700 263 0;
#X obj 684 300 f;
#X obj 642 299 + 0;
#X obj 607 123 unpack 0 0;
#X obj 670 191 f;
#X msg 716 147 0;
#X obj 635 157 t f f b;
#X obj 635 217 -;
#X obj 700 243 r \$0-r-clear;
#X obj 716 127 r \$0-r-clear;
#X connect 0 0 1 0;
#X connect 0 1 18 0;
#X connect 1 0 6 0;
#X connect 2 0 11 0;
#X connect 3 0 11 0;
#X connect 4 0 11 0;
#X connect 4 1 3 0;
#X connect 4 2 19 0;
#X connect 5 0 0 0;
#X connect 7 0 4 0;
#X connect 8 0 2 0;
#X connect 9 0 14 1;
#X connect 10 0 9 0;
#X connect 12 0 27 0;
#X connect 12 1 14 1;
#X connect 12 2 14 0;
#X connect 13 0 22 0;
#X connect 14 0 26 0;
#X connect 15 0 17 0;
#X connect 15 1 12 0;
#X connect 16 0 11 0;
#X connect 17 0 16 0;
#X connect 18 0 15 0;
#X connect 18 1 31 0;
#X connect 19 0 21 0;
#X connect 19 1 20 0;
#X connect 20 0 21 0;
#X connect 21 0 23 0;
#X connect 22 0 3 0;
#X connect 22 1 20 0;
#X connect 24 0 25 0;
#X connect 25 0 11 0;
#X connect 26 0 27 1;
#X connect 26 1 17 2;
#X connect 27 0 17 1;
#X connect 28 0 29 1;
#X connect 28 0 30 1;
#X connect 29 0 30 1;
#X connect 29 0 21 1;
#X connect 30 0 29 0;
#X connect 31 1 34 0;
#X connect 32 0 35 1;
#X connect 33 0 32 1;
#X connect 34 0 35 0;
#X connect 34 1 32 1;
#X connect 34 2 32 0;
#X connect 35 0 30 0;
#X connect 36 0 28 0;
#X connect 37 0 33 0;
#X restore 480 135 pd r;
#X obj 285 232 r ad-\$0;
#X obj 303 255 r s-\$0;
#X obj 322 275 r r-\$0;
#X obj 80 73 t b f, f 6;
#X obj 35 27 inlet vel(0-127);
#X obj 285 351 unpack;
#X obj 285 444 pack, f 7;
#X obj 499 582 outlet bang when finished;
#X text 615 207 arg3: pow curve;
#X obj 285 421 pow, f 12;
#X msg 408 403 1 \$1;
#X obj 408 423 /;
#X obj 408 380 change -1;
#X obj 429 331 r \$0-curve;
#X obj 499 495 r \$0-finished;
#X obj 499 515 t b;
#X obj 590 497 r \$0-ad-bang;
#X obj 590 517 t b;
#X msg 590 537 1;
#X msg 499 535 0;
#X obj 285 521 pow~ \$3;
#X obj 324 498 r \$0-curve;
#X obj 285 311 t a b, f 21;
#X obj 408 353 f \$3;
#X obj 285 484 vline~;
#X connect 0 0 10 0;
#X connect 0 1 25 0;
#X connect 2 0 5 0;
#X connect 3 0 7 0;
#X connect 4 0 8 0;
#X connect 11 0 14 0;
#X connect 15 0 1 0;
#X connect 16 0 9 0;
#X connect 17 0 18 0;
#X connect 18 0 16 1;
#X connect 22 0 44 0;
#X connect 23 0 44 0;
#X connect 24 0 44 0;
#X connect 25 0 6 0;
#X connect 25 1 15 0;
#X connect 26 0 0 0;
#X connect 27 0 31 0;
#X connect 27 1 28 1;
#X connect 28 0 46 0;
#X connect 31 0 28 0;
#X connect 32 0 33 0;
#X connect 33 0 31 1;
#X connect 34 0 32 0;
#X connect 35 0 45 1;
#X connect 36 0 37 0;
#X connect 37 0 41 0;
#X connect 38 0 39 0;
#X connect 39 0 40 0;
#X connect 40 0 29 0;
#X connect 41 0 29 0;
#X connect 42 0 16 0;
#X connect 43 0 42 1;
#X connect 44 0 27 0;
#X connect 44 1 45 0;
#X connect 45 0 34 0;
#X connect 46 0 42 0;
