#N canvas 0 23 450 300 12;
#X obj 37 37 inlet;
#X obj 165 415 outlet;
#X obj 181 175 unpack 0 0 0;
#X obj 267 252 f;
#X obj 221 212 t a a b;
#X msg 285 179 0;
#X obj 221 295 -;
#X obj 181 328 pack 0 0 0;
#X obj 38 84 t b b;
#X msg 38 165 new;
#X obj 37 60 route new cont, f 21;
#X obj 106 91 t b b;
#X msg 81 168 cont;
#X connect 0 0 10 0;
#X connect 2 0 7 0;
#X connect 2 1 4 0;
#X connect 2 2 7 2;
#X connect 3 0 6 1;
#X connect 4 0 6 0;
#X connect 4 1 3 1;
#X connect 4 2 3 0;
#X connect 5 0 3 1;
#X connect 6 0 7 1;
#X connect 7 0 1 0;
#X connect 8 0 9 0;
#X connect 8 1 5 0;
#X connect 9 0 1 0;
#X connect 10 0 8 0;
#X connect 10 1 11 0;
#X connect 10 2 2 0;
#X connect 11 0 12 0;
#X connect 11 1 5 0;
#X connect 12 0 1 0;
