#N canvas 140 100 969 568 10;
#X obj 20 26 inlet vel(0-1);
#X obj 20 47 sel 0;
#X obj 66 215 s \$0-vel;
#X obj 191 26 inlet ad;
#X obj 272 26 inlet s;
#X obj 344 25 inlet r;
#X obj 191 47 s \$0-ad;
#X obj 47 236 s \$0-ad-bang;
#X obj 252 400 vline~;
#X obj 272 47 s \$0-s;
#X obj 344 46 s \$0-r;
#X obj 252 521 outlet~;
#X obj 20 271 s \$0-r-bang;
#X msg 586 301 1 \$1;
#X text 127 360 scale for the power;
#X obj 586 273 t a a;
#X text 621 301 divide by one to get the inverse of the power;
#X text 518 420 pass the power argument;
#X text 410 327 pack the level \, the ramp time \, and the delay;
#X obj 480 24 inlet;
#X text 495 171 arg1: sustain loop on/off (default off);
#X text 495 187 arg2: velocity sensitivity;
#N canvas 0 23 450 300 messages 0;
#X obj 37 37 inlet;
#X obj 37 121 s \$0-velAmt;
#X obj 37 77 clip -1 1;
#X obj 37 57 route velAmt bpm, f 35;
#X obj 140 143 s \$0-relBpm;
#X connect 0 0 3 0;
#X connect 2 0 1 0;
#X connect 3 0 2 0;
#X connect 3 1 4 0;
#X restore 480 44 pd messages;
#N canvas 0 23 1012 690 rel-vel-math 0;
#X obj 50 17 inlet f (1 - 127);
#X obj 424 19 r \$0-velAmt;
#X obj 50 557 outlet;
#X text 613 209 upper level;
#X obj 571 209 * 27;
#X obj 571 229 + 100;
#X obj 50 67 clip 0 127;
#X obj 50 337 / 127;
#X obj 424 79 clip -127 127;
#X obj 497 347 s \$0-range;
#X obj 77 363 r \$0-range;
#X obj 424 182 t a a a, f 25;
#X obj 497 311 *;
#X obj 424 387 *, f 29;
#X obj 424 422 s \$0-minimum;
#X msg 424 226 1 \$1;
#X obj 424 246 -;
#X obj 65 442 r \$0-minimum;
#X obj 424 151 / 127;
#X obj 589 119 moses 0, f 9;
#X obj 571 259 t a a;
#X floatatom 541 310 5 0 0 0 - - -;
#X msg 50 277 127 \$1;
#X obj 50 297 -;
#X obj 424 99 t a a, f 28;
#X obj 640 139 t b;
#X msg 640 159 1;
#X obj 640 185 v \$0-pos-neg;
#X obj 589 139 t b;
#X msg 589 159 0;
#X obj 185 131 v \$0-pos-neg;
#X obj 50 87 t a a b, f 38;
#X obj 185 151 t a a, f 13;
#X obj 185 171 ==;
#X obj 424 119 abs;
#X obj 50 257 spigot 0;
#X obj 162 258 spigot 1;
#X obj 50 387 * 100;
#X obj 50 467 + 0;
#X connect 0 0 6 0;
#X connect 1 0 8 0;
#X connect 4 0 5 0;
#X connect 5 0 20 0;
#X connect 6 0 31 0;
#X connect 7 0 37 0;
#X connect 8 0 24 0;
#X connect 10 0 37 1;
#X connect 11 0 15 0;
#X connect 11 1 12 0;
#X connect 11 2 4 0;
#X connect 12 0 9 0;
#X connect 12 0 21 0;
#X connect 13 0 14 0;
#X connect 15 0 16 0;
#X connect 16 0 13 0;
#X connect 17 0 38 1;
#X connect 18 0 11 0;
#X connect 19 0 28 0;
#X connect 19 1 25 0;
#X connect 20 0 12 1;
#X connect 20 1 13 1;
#X connect 22 0 23 0;
#X connect 23 0 7 0;
#X connect 24 0 34 0;
#X connect 24 1 19 0;
#X connect 25 0 26 0;
#X connect 26 0 27 0;
#X connect 28 0 29 0;
#X connect 29 0 27 0;
#X connect 30 0 32 0;
#X connect 31 0 35 0;
#X connect 31 1 36 0;
#X connect 31 2 30 0;
#X connect 32 0 33 0;
#X connect 32 1 36 1;
#X connect 33 0 35 1;
#X connect 34 0 18 0;
#X connect 35 0 22 0;
#X connect 36 0 7 0;
#X connect 37 0 38 0;
#X connect 38 0 2 0;
#X restore 66 188 pd rel-vel-math;
#X text 495 207 arg3: global-bpm sync on/off;
#X obj 47 71 t b f b;
#X obj 86 163 s \$0-relBpm;
#X obj 86 122 v global-bpm;
#X obj 86 142 change -1;
#X obj 252 496 *~;
#X obj 267 450 r \$0-vel;
#X obj 267 470 / 127;
#X obj 86 92 spigot \$3;
#X obj 252 426 pow~ 2, f 39;
#N canvas 507 98 933 589 ad 0;
#X obj 31 31 r \$0-ad;
#X obj 31 52 route clear, f 19;
#X obj 31 73 t b;
#X obj 31 94 s \$0-ad-clear;
#X obj 691 142 f;
#X obj 722 142 + 1;
#X msg 706 119 1;
#X obj 706 98 r \$0-ad-clear;
#X text 725 75 count the messages;
#X obj 45 558 outlet;
#X msg 174 465 clear;
#X msg 161 386 rewind;
#X obj 46 428 until;
#X obj 46 387 max 1;
#X obj 46 408 min 30;
#X obj 46 275 r \$0-ad-bang;
#X obj 174 434 r \$0-ad-clear;
#X obj 45 512 textfile points-ad;
#X obj 46 344 t b b b, f 39;
#X obj 270 486 t b b;
#X msg 297 512 stop;
#X obj 270 540 delay, f 11;
#X obj 270 561 s \$0-s-bang;
#X obj 387 403 r \$0-r-bang;
#X obj 344 122 unpack 0 0 0, f 41;
#X msg 344 345 add \$1 \$2 \$3 \$4;
#X obj 344 320 pack 0 0 0 0, f 45;
#X obj 691 162 v \$0-ad-count;
#X obj 46 366 v \$0-ad-count;
#X obj 142 85 t a a b, f 92;
#X obj 235 155 r \$0-ad-clear;
#X msg 235 175 0;
#X obj 219 212 f;
#X obj 177 211 + 0;
#X obj 219 232 t a a;
#X obj 522 280 +;
#X obj 443 192 t f b;
#X obj 463 161 j-rel-bpm;
#X obj 513 139 r \$0-relBpm;
#X obj 599 134 r \$0-ad-clear;
#X msg 599 154 0;
#X obj 142 105 unpack 0 0 0;
#X obj 177 132 j-rel-bpm;
#X obj 228 110 r \$0-relBpm;
#X connect 0 0 1 0;
#X connect 1 0 2 0;
#X connect 1 1 29 0;
#X connect 2 0 3 0;
#X connect 4 0 5 0;
#X connect 4 0 27 0;
#X connect 5 0 4 1;
#X connect 6 0 4 1;
#X connect 7 0 6 0;
#X connect 10 0 17 0;
#X connect 11 0 17 0;
#X connect 12 0 17 0;
#X connect 13 0 14 0;
#X connect 14 0 12 0;
#X connect 15 0 18 0;
#X connect 16 0 10 0;
#X connect 17 0 9 0;
#X connect 18 0 28 0;
#X connect 18 1 11 0;
#X connect 18 2 19 0;
#X connect 19 0 21 0;
#X connect 19 1 20 0;
#X connect 20 0 21 0;
#X connect 21 0 22 0;
#X connect 23 0 20 0;
#X connect 24 0 26 0;
#X connect 24 1 37 0;
#X connect 24 2 26 3;
#X connect 25 0 17 0;
#X connect 26 0 25 0;
#X connect 28 0 13 0;
#X connect 29 0 41 0;
#X connect 29 1 24 0;
#X connect 29 2 4 0;
#X connect 30 0 31 0;
#X connect 31 0 32 1;
#X connect 31 0 33 1;
#X connect 32 0 33 1;
#X connect 32 0 34 0;
#X connect 33 0 32 0;
#X connect 34 0 21 1;
#X connect 34 1 35 1;
#X connect 35 0 26 2;
#X connect 36 0 26 1;
#X connect 36 1 35 0;
#X connect 37 0 36 0;
#X connect 38 0 37 1;
#X connect 39 0 40 0;
#X connect 40 0 35 1;
#X connect 41 1 42 0;
#X connect 42 0 33 0;
#X connect 43 0 42 1;
#X restore 252 116 pd ad;
#N canvas 317 62 933 727 s 0;
#X obj 31 52 route clear, f 19;
#X obj 31 73 t b;
#X obj 45 648 outlet;
#X msg 174 555 clear;
#X msg 161 476 rewind;
#X obj 46 518 until;
#X obj 46 477 max 1;
#X obj 46 498 min 30;
#X obj 31 31 r \$0-s;
#X obj 276 466 spigot \$1;
#X obj 276 633 s \$0-s-loop;
#X obj 276 501 t b b;
#X msg 303 527 stop;
#X obj 276 555 delay, f 11;
#X obj 276 592 spigot 0, f 19;
#X obj 468 442 r \$0-r-bang;
#X msg 495 490 0;
#X obj 468 463 t b b;
#X obj 60 310 r \$0-s-loop;
#X obj 46 456 v \$0-s-count;
#X obj 46 265 r \$0-s-bang;
#X obj 46 434 t b b b b, f 58;
#X msg 391 467 1;
#X obj 31 94 s \$0-s-clear;
#X obj 174 524 r \$0-s-clear;
#X obj 45 602 textfile points-s;
#X obj 691 142 f;
#X obj 722 142 + 1;
#X msg 706 119 1;
#X text 725 75 count the messages;
#X obj 344 122 unpack 0 0 0, f 37;
#X obj 142 85 t a a b, f 92;
#X msg 235 175 0;
#X obj 219 212 f;
#X obj 177 211 + 0;
#X obj 219 232 t a a;
#X obj 516 286 +;
#X obj 413 192 t f b;
#X obj 413 167 j-rel-bpm;
#X obj 463 145 r \$0-relBpm;
#X msg 599 154 0;
#X obj 142 105 unpack 0 0 0;
#X obj 177 132 j-rel-bpm;
#X obj 228 110 r \$0-relBpm;
#X obj 706 98 r \$0-s-clear;
#X obj 691 162 v \$0-s-count;
#X obj 235 155 r \$0-s-clear;
#X obj 599 134 r \$0-s-clear;
#X obj 344 310 pack 0 0 0 0, f 39;
#N canvas 0 23 450 517 if-first-no-delay 0;
#X obj 50 18 inlet;
#X obj 158 82 v \$0-s-count;
#X obj 158 102 sel 1;
#X obj 184 127 t b;
#X msg 158 122 0;
#X msg 184 147 1;
#X obj 158 176 t a a;
#X obj 158 196 ==;
#X obj 50 226 spigot;
#X obj 50 43 t a a b, f 18;
#X obj 108 228 spigot;
#X obj 114 395 list prepend add;
#X obj 114 415 list trim;
#X obj 22 275 list split 2;
#X obj 23 326 list append;
#X obj 59 304 list split 1;
#X obj 114 435 outlet;
#X connect 0 0 9 0;
#X connect 1 0 2 0;
#X connect 2 0 4 0;
#X connect 2 1 3 0;
#X connect 3 0 5 0;
#X connect 4 0 6 0;
#X connect 5 0 6 0;
#X connect 6 0 7 0;
#X connect 6 1 10 1;
#X connect 7 0 8 1;
#X connect 8 0 13 0;
#X connect 9 0 8 0;
#X connect 9 1 10 0;
#X connect 9 2 1 0;
#X connect 10 0 11 0;
#X connect 11 0 12 0;
#X connect 12 0 16 0;
#X connect 13 0 14 0;
#X connect 13 1 15 0;
#X connect 14 0 11 0;
#X connect 15 1 14 1;
#X restore 344 334 pd if-first-no-delay;
#X connect 0 0 1 0;
#X connect 0 1 31 0;
#X connect 1 0 23 0;
#X connect 3 0 25 0;
#X connect 4 0 25 0;
#X connect 5 0 25 0;
#X connect 6 0 7 0;
#X connect 7 0 5 0;
#X connect 8 0 0 0;
#X connect 9 0 11 0;
#X connect 11 0 13 0;
#X connect 11 1 12 0;
#X connect 12 0 13 0;
#X connect 13 0 14 0;
#X connect 14 0 10 0;
#X connect 15 0 17 0;
#X connect 16 0 14 1;
#X connect 17 0 12 0;
#X connect 17 1 16 0;
#X connect 18 0 21 0;
#X connect 19 0 6 0;
#X connect 20 0 21 0;
#X connect 21 0 19 0;
#X connect 21 1 4 0;
#X connect 21 2 9 0;
#X connect 21 3 22 0;
#X connect 22 0 14 1;
#X connect 24 0 3 0;
#X connect 25 0 2 0;
#X connect 26 0 27 0;
#X connect 26 0 45 0;
#X connect 27 0 26 1;
#X connect 28 0 26 1;
#X connect 30 0 48 0;
#X connect 30 1 38 0;
#X connect 30 2 48 3;
#X connect 31 0 41 0;
#X connect 31 1 30 0;
#X connect 31 2 26 0;
#X connect 32 0 33 1;
#X connect 32 0 34 1;
#X connect 33 0 34 1;
#X connect 33 0 35 0;
#X connect 34 0 33 0;
#X connect 35 0 13 1;
#X connect 35 1 36 1;
#X connect 36 0 48 2;
#X connect 37 0 48 1;
#X connect 37 1 36 0;
#X connect 38 0 37 0;
#X connect 39 0 38 1;
#X connect 40 0 36 1;
#X connect 41 1 42 0;
#X connect 42 0 34 0;
#X connect 43 0 42 1;
#X connect 44 0 28 0;
#X connect 46 0 32 0;
#X connect 47 0 40 0;
#X connect 48 0 49 0;
#X connect 49 0 25 0;
#X restore 268 143 pd s;
#N canvas 0 23 933 589 r 0;
#X obj 31 52 route clear, f 19;
#X obj 31 73 t b;
#X obj 45 558 outlet;
#X msg 174 465 clear;
#X msg 161 386 rewind;
#X obj 46 428 until;
#X obj 46 387 max 1;
#X obj 46 408 min 30;
#X obj 45 512 textfile points-ad;
#X obj 46 344 t b b b, f 39;
#X msg 174 295 add \$1 \$2 \$3 \$4;
#X obj 31 31 r \$0-r;
#X obj 31 94 s \$0-r-clear;
#X obj 46 366 v \$0-r-count;
#X obj 46 275 r \$0-r-bang;
#X obj 174 434 r \$0-r-clear;
#X obj 691 142 f;
#X obj 722 142 + 1;
#X msg 706 119 1;
#X text 725 75 count the messages;
#X obj 344 122 unpack 0 0 0, f 41;
#X obj 344 320 pack 0 0 0 0, f 45;
#X obj 142 85 t a a b, f 92;
#X msg 235 175 0;
#X obj 219 212 f;
#X obj 177 211 + 0;
#X obj 219 232 t a a;
#X obj 522 280 +;
#X obj 443 192 t f b;
#X obj 463 161 j-rel-bpm;
#X obj 513 139 r \$0-relBpm;
#X msg 599 154 0;
#X obj 142 105 unpack 0 0 0;
#X obj 177 132 j-rel-bpm;
#X obj 228 110 r \$0-relBpm;
#X obj 706 98 r \$0-r-clear;
#X obj 691 162 v \$0-r-count;
#X obj 235 155 r \$0-r-clear;
#X obj 599 134 r \$0-r-clear;
#X connect 0 0 1 0;
#X connect 0 1 22 0;
#X connect 1 0 12 0;
#X connect 3 0 8 0;
#X connect 4 0 8 0;
#X connect 5 0 8 0;
#X connect 6 0 7 0;
#X connect 7 0 5 0;
#X connect 8 0 2 0;
#X connect 9 0 13 0;
#X connect 9 1 4 0;
#X connect 10 0 8 0;
#X connect 11 0 0 0;
#X connect 13 0 6 0;
#X connect 14 0 9 0;
#X connect 15 0 3 0;
#X connect 16 0 17 0;
#X connect 16 0 36 0;
#X connect 17 0 16 1;
#X connect 18 0 16 1;
#X connect 20 0 21 0;
#X connect 20 1 29 0;
#X connect 20 2 21 3;
#X connect 21 0 10 0;
#X connect 22 0 32 0;
#X connect 22 1 20 0;
#X connect 22 2 16 0;
#X connect 23 0 24 1;
#X connect 23 0 25 1;
#X connect 24 0 25 1;
#X connect 24 0 26 0;
#X connect 25 0 24 0;
#X connect 26 1 27 1;
#X connect 27 0 21 2;
#X connect 28 0 21 1;
#X connect 28 1 27 0;
#X connect 29 0 28 0;
#X connect 30 0 29 1;
#X connect 31 0 27 1;
#X connect 32 1 33 0;
#X connect 33 0 25 0;
#X connect 34 0 33 1;
#X connect 35 0 18 0;
#X connect 37 0 23 0;
#X connect 38 0 31 0;
#X restore 283 184 pd r;
#X obj 586 321 /;
#X obj 279 282 list length;
#X obj 252 259 t a a;
#X obj 252 322 list split;
#X obj 279 302 - 1;
#X connect 0 0 1 0;
#X connect 1 0 12 0;
#X connect 1 1 25 0;
#X connect 3 0 6 0;
#X connect 4 0 9 0;
#X connect 5 0 10 0;
#X connect 8 0 33 0;
#X connect 13 0 37 0;
#X connect 15 0 13 0;
#X connect 19 0 22 0;
#X connect 23 0 2 0;
#X connect 25 0 7 0;
#X connect 25 1 23 0;
#X connect 25 2 32 0;
#X connect 27 0 28 0;
#X connect 28 0 26 0;
#X connect 29 0 11 0;
#X connect 30 0 31 0;
#X connect 31 0 29 1;
#X connect 32 0 27 0;
#X connect 33 0 29 0;
#X connect 34 0 39 0;
#X connect 35 0 39 0;
#X connect 36 0 39 0;
#X connect 38 0 41 0;
#X connect 39 0 40 0;
#X connect 39 1 38 0;
#X connect 40 0 8 0;
#X connect 41 0 40 1;
