#N canvas 711 204 450 300 12;
#X obj 143 88 unpack 0 0 0;
#X obj 48 31 inlet message stream;
#X obj 278 29 inlet bpm;
#X text 10 6 for now the time is written out as 120 BPM;
#X msg 278 60 60000 \$1;
#X obj 278 93 /;
#X obj 183 185 * 1;
#X obj 278 120 / 500;
#X text 330 120 get the ratio;
#X obj 143 231 pack 0 0 0, f 12;
#X obj 46 269 outlet;
#X obj 48 54 route new cont;
#X msg 48 77 new;
#X msg 90 77 cont;
#X connect 0 0 9 0;
#X connect 0 1 6 0;
#X connect 0 2 9 2;
#X connect 1 0 11 0;
#X connect 2 0 4 0;
#X connect 4 0 5 0;
#X connect 5 0 7 0;
#X connect 6 0 9 1;
#X connect 7 0 6 1;
#X connect 9 0 10 0;
#X connect 11 0 12 0;
#X connect 11 1 13 0;
#X connect 11 2 0 0;
#X connect 12 0 10 0;
#X connect 13 0 10 0;
