#N canvas 131 54 1255 716 12;
#X obj 110 47 bng 15 250 50 0 empty empty empty 17 7 0 10 -262144 -1
-1;
#X obj 59 87 t b;
#X obj 103 431 *~;
#X obj 207 577 clip~ 0 1;
#X obj 103 534 *~ 0.5;
#X obj 103 557 dac~ 1 2;
#X msg 15 225 127;
#X msg 403 190 bpm \$1;
#X floatatom 404 147 5 0 0 0 - - -;
#X obj 656 71 metro 500;
#X obj 656 35 tgl 15 0 empty empty empty 17 7 0 10 -262144 -1 -1 0
1;
#X obj 887 240 vline~;
#X obj 887 263 pow~ 2;
#X msg 887 214 1 8 \, 0 234 8;
#X obj 809 215 osc~ 440;
#X obj 809 238 *~ 0.2;
#X obj 809 321 *~;
#X obj 504 167 spigot 0;
#X obj 504 190 t b b;
#X msg 578 169 0;
#X msg 543 105 1;
#X msg 133 85 clear \, 1 5;
#X msg 163 121 clear \, 0.5 50 \, 0.82 100 \, 0.4 150 \, 0.2 400 \,
0.2 500;
#X msg 188 210 clear \, 0.2 100 \, 0 6000;
#X obj 102 255 j-env 1 100 8, f 17;
#X obj 39 324 osc~ 234;
#X obj 269 457 j-complex-env;
#X obj 247 272 bng 15 250 50 0 empty empty empty 17 7 0 10 -262144
-1 -1;
#X msg 702 509 clear \, 1 0 0.5 \, 0 16 2 \, 0.9 20 2 \, 0 24 2 \,
0.8 28 0.2 \, 0 100 4;
#X msg 623 468 clear \, 1 1 0.5 \, 0 16 2 \, 0.9 20 2 \, 0 24 2 \,
0.8 28 2 \, 0 100 4;
#X obj 357 486 spigot 0;
#X obj 248 295 t b b;
#X msg 409 460 1;
#X msg 446 461 0;
#X obj 326 251 bng 15 250 50 0 empty empty empty 17 7 0 10 -262144
-1 -1;
#X obj 327 274 t b b;
#X msg 409 387 cont \, 0.5 250 24 \, 0.1 500 9;
#X obj 269 429 j-env-absolute-points;
#X msg 380 284 cont \, 1 200 4 \, 0.1 400 6 \, 0.9 800 2 \, 0 2000
2;
#X msg 248 323 new \, 1 1 0.5 \, 0 87 2 \, 0.9 132 2 \, 0 650 2 \,
0.8 1000 8;
#X obj 111 323 osc~ 468;
#X obj 111 346 /~ 4;
#X connect 0 0 1 0;
#X connect 1 0 21 0;
#X connect 1 0 23 0;
#X connect 1 0 22 0;
#X connect 2 0 4 0;
#X connect 3 0 2 1;
#X connect 4 0 5 0;
#X connect 4 0 5 1;
#X connect 6 0 24 0;
#X connect 7 0 24 4;
#X connect 8 0 7 0;
#X connect 9 0 13 0;
#X connect 9 0 17 0;
#X connect 10 0 9 0;
#X connect 11 0 12 0;
#X connect 12 0 16 1;
#X connect 13 0 11 0;
#X connect 14 0 15 0;
#X connect 15 0 16 0;
#X connect 16 0 4 0;
#X connect 17 0 18 0;
#X connect 18 0 27 0;
#X connect 18 1 19 0;
#X connect 19 0 17 1;
#X connect 20 0 17 1;
#X connect 21 0 24 1;
#X connect 22 0 24 2;
#X connect 23 0 24 3;
#X connect 25 0 2 0;
#X connect 26 0 3 0;
#X connect 26 1 30 0;
#X connect 27 0 31 0;
#X connect 30 0 36 0;
#X connect 31 0 39 0;
#X connect 31 1 32 0;
#X connect 32 0 30 1;
#X connect 33 0 30 1;
#X connect 34 0 35 0;
#X connect 35 0 33 0;
#X connect 35 1 38 0;
#X connect 36 0 37 0;
#X connect 37 0 26 0;
#X connect 38 0 37 0;
#X connect 39 0 37 0;
#X connect 40 0 41 0;
#X connect 41 0 2 0;
