#N canvas 278 239 1098 420 12;
#X obj 5 11 inlet;
#X obj 156 342 text define \$0-temp;
#X text 123 14 say clear \, than send in a list of beat number \, than
note info;
#X msg 5 190 \; \$1-temp clear;
#X obj 5 160 \$0;
#X obj 5 89 t b b;
#X obj 156 117 list split 1, f 19;
#X obj 156 141 * 360;
#X obj 156 165 i;
#X obj 156 219 list append;
#X obj 156 189 t a a, f 17;
#N canvas 0 25 450 300 place 0;
#X obj 44 30 inlet;
#X obj 134 272 outlet;
#X obj 44 128 sel -1;
#X obj 17 174 0;
#X obj 44 68 text search \$0-temp <= 0;
#X obj 112 187 + 1;
#X connect 0 0 4 0;
#X connect 2 0 3 0;
#X connect 2 1 5 0;
#X connect 3 0 1 0;
#X connect 4 0 2 0;
#X connect 5 0 1 0;
#X restore 272 219 pd place;
#X obj 157 277 text insert \$0-temp;
#X obj 570 8 inlet;
#X text 619 12 ticks;
#N canvas 0 25 1026 807 play 0;
#X obj 35 16 inlet;
#X obj 282 252 f;
#X obj 323 252 + 1;
#X obj 282 369 text get \$0-temp;
#X obj 300 204 0;
#X obj 35 45 sel 0 1, f 44;
#X obj 396 227 s \$0-loop;
#X obj 396 197 1;
#X obj 202 176 r \$0-loop;
#X obj 128 203 spigot 0, f 11;
#X obj 128 163 r \$0-fb;
#X obj 196 445 r \$0-ticks;
#X obj 349 491 t b a;
#X obj 348 436 list split 1;
#X obj 282 393 route bang;
#X obj 268 156 t b b b b, f 28;
#X obj 559 195 text size \$0-temp;
#X obj 323 276 moses, f 14;
#X obj 323 312 f;
#X obj 417 328 0;
#X obj 374 634 list store;
#X obj 330 570 sel 1;
#X obj 29 203 s \$0-loop;
#X obj 29 173 0;
#X obj 374 658 outlet;
#X obj 330 594 t b b;
#X obj 297 659 s \$0-fb;
#X obj 348 460 i;
#X obj 330 546 == 0;
#X obj 196 469 spigot 0;
#X obj 274 445 r \$0-loop;
#X obj 196 493 t a a;
#X obj 202 569 sel 0;
#X obj 202 593 s \$0-new-loop;
#X obj 296 96 r \$0-new-loop;
#X obj 417 304 t b;
#X obj 296 120 t b b b;
#X connect 0 0 5 0;
#X connect 1 0 3 0;
#X connect 1 0 2 0;
#X connect 2 0 17 0;
#X connect 3 0 14 0;
#X connect 4 0 1 1;
#X connect 5 0 23 0;
#X connect 5 1 15 0;
#X connect 7 0 6 0;
#X connect 8 0 9 1;
#X connect 9 0 1 0;
#X connect 10 0 9 0;
#X connect 11 0 29 0;
#X connect 12 0 28 0;
#X connect 12 1 28 1;
#X connect 13 0 27 0;
#X connect 13 1 20 1;
#X connect 14 1 13 0;
#X connect 15 0 1 0;
#X connect 15 1 4 0;
#X connect 15 2 7 0;
#X connect 15 3 16 0;
#X connect 16 0 17 1;
#X connect 17 0 18 0;
#X connect 17 1 35 0;
#X connect 18 0 1 1;
#X connect 19 0 18 0;
#X connect 20 0 24 0;
#X connect 21 0 25 0;
#X connect 23 0 22 0;
#X connect 25 0 26 0;
#X connect 25 1 20 0;
#X connect 27 0 12 0;
#X connect 28 0 21 0;
#X connect 29 0 31 0;
#X connect 30 0 29 1;
#X connect 31 0 28 0;
#X connect 31 1 32 0;
#X connect 32 0 33 0;
#X connect 34 0 36 0;
#X connect 35 0 19 0;
#X connect 36 0 1 0;
#X connect 36 1 4 0;
#X connect 36 2 16 0;
#X restore 356 124 pd play;
#X obj 570 32 s \$0-ticks;
#X obj 356 213 outlet;
#X obj 4 65 route clear list play save load, f 111;
#X obj 483 172 outlet;
#X text 538 173 list to save;
#X obj 483 140 text tolist \$0-temp;
#X obj 483 113 t b;
#X text 406 214 sequencer out;
#X text 660 98 incoming list to load;
#X obj 675 167 text fromlist \$0-temp;
#X connect 0 0 18 0;
#X connect 4 0 3 0;
#X connect 5 0 4 0;
#X connect 6 0 7 0;
#X connect 6 1 9 1;
#X connect 7 0 8 0;
#X connect 8 0 10 0;
#X connect 9 0 12 0;
#X connect 10 0 9 0;
#X connect 10 1 11 0;
#X connect 11 0 12 1;
#X connect 13 0 16 0;
#X connect 15 0 17 0;
#X connect 18 0 5 0;
#X connect 18 1 6 0;
#X connect 18 2 15 0;
#X connect 18 3 22 0;
#X connect 18 4 25 0;
#X connect 21 0 19 0;
#X connect 22 0 21 0;
