#N canvas 358 315 762 563 12;
#X obj 62 380 *~, f 55;
#X obj 63 455 outlet~;
#X text 101 498 Basic Oscillator that can easily be phase modulated.
;
#X obj 19 33 inlet~ Phase-Mod;
#X obj 186 34 inlet~ Base Frequency;
#X obj 363 34 inlet~ Modulation;
#X obj 541 28 inlet~ amp;
#X obj 80 149 phasor~;
#X obj 62 221 +~;
#X obj 80 118 *~, f 16;
#X obj 62 244 wrap~;
#X obj 62 267 *~ 1025;
#X obj 62 290 +~ 1;
#X obj 62 334 clip~ 0 1;
#X obj 62 311 tabread4~ j-wave-osc-1;
#X connect 0 0 1 0;
#X connect 3 0 8 0;
#X connect 4 0 9 1;
#X connect 5 0 9 0;
#X connect 6 0 0 1;
#X connect 7 0 8 1;
#X connect 8 0 10 0;
#X connect 9 0 7 0;
#X connect 10 0 11 0;
#X connect 11 0 12 0;
#X connect 12 0 14 0;
#X connect 13 0 0 0;
#X connect 14 0 13 0;
