#N canvas 624 200 798 510 10;
#X declare -path fm;
#X obj 20 17 inlet MIDI;
#X obj 24 472 outlet~ L;
#X obj 123 472 outlet~ R;
#X text 384 39 simple FM synth with patchable guts;
#X text 503 102 arg1: Preset File;
#X text 503 122 arg2: Number of Voices;
#X obj 20 50 poly \$2 1, f 16;
#X obj 20 137 pack 0 0 0, f 16;
#X obj 252 25 inlet Messages;
#X obj 252 134 list trim;
#X obj 20 71 - 1;
#X obj 252 89 list prepend mess;
#X obj 253 110 list prepend all;
#X obj 113 82 max 0;
#X obj 114 103 min 127;
#X obj 50 83 max 0;
#X obj 50 103 min 127;
#X obj 123 380 catch~ R-\$1-\$0;
#X obj 24 379 catch~ L-\$1-\$0;
#X msg 625 97 0 open;
#X obj 24 399 hip~ 5;
#X obj 24 419 lop~ 20000;
#X obj 24 439 lop~ 20000;
#X obj 124 399 hip~ 5;
#X obj 124 419 lop~ 20000;
#X obj 124 439 lop~ 20000;
#X obj 462 14 declare -path fm;
#X obj 625 37 inlet fm-main-messages;
#X obj 625 57 route open;
#X obj 625 77 t b;
#X obj 682 139 s \$0-2-clone;
#X obj 252 161 s \$0-2-clone;
#X obj 689 110 list trim;
#X obj 690 86 list prepend all;
#X obj 252 45 list split 1;
#N canvas 543 376 356 264 synth 0;
#X obj 16 12 inlet;
#X obj 16 117 clone j-fm-voice \$2 \$1 \$0;
#X obj 42 91 r \$0-2-clone;
#X msg 16 60 \$1 note \$2 \$3;
#X connect 0 0 3 0;
#X connect 2 0 1 0;
#X connect 3 0 1 0;
#X restore 20 179 pd synth;
#X connect 0 0 6 0;
#X connect 6 0 10 0;
#X connect 6 1 15 0;
#X connect 6 2 13 0;
#X connect 7 0 35 0;
#X connect 8 0 34 0;
#X connect 9 0 31 0;
#X connect 10 0 7 0;
#X connect 11 0 12 0;
#X connect 12 0 9 0;
#X connect 13 0 14 0;
#X connect 14 0 7 2;
#X connect 15 0 16 0;
#X connect 16 0 7 1;
#X connect 17 0 23 0;
#X connect 18 0 20 0;
#X connect 19 0 30 0;
#X connect 20 0 21 0;
#X connect 21 0 22 0;
#X connect 22 0 1 0;
#X connect 23 0 24 0;
#X connect 24 0 25 0;
#X connect 25 0 2 0;
#X connect 27 0 28 0;
#X connect 28 0 29 0;
#X connect 28 1 33 0;
#X connect 29 0 19 0;
#X connect 32 0 30 0;
#X connect 33 0 32 0;
#X connect 34 0 12 1;
#X connect 34 1 11 0;
