#N canvas 150 164 1165 708 10;
#X obj 23 6 inlet;
#X obj 449 201 symbol \$2;
#X obj 96 83 s mess-\$0;
#X obj 449 385 t l l;
#X obj 422 165 t b b;
#X obj 298 272 s \$0-loadbang;
#X obj 243 95 f \$0;
#X obj 422 114 loadbang;
#X obj 23 45 route note mess open load, f 74;
#X text 695 449 0 the synth;
#X text 690 484 3 volume;
#X text 689 496 4 volume;
#X text 694 534 7 outL;
#X text 695 548 8 outR;
#X text 693 562 9 switch~;
#X text 694 521 6 r switch in;
#X text 692 508 5 r line in;
#X text 694 473 2 r in messages;
#X text 697 462 1 r in notes;
#N canvas 872 434 528 401 yo-1-\$0 0;
#X obj 20 30 j-fm-presets/big-pad-2 1712 0;
#X obj 20 0 r note-1-1712;
#X obj 100 0 r mess-1712;
#X obj 20 100 *~;
#X obj 150 100 *~;
#X obj 220 45 r~ line-1-1712;
#X obj 300 20 r switch-1-1712;
#X obj 20 200 throw~ L-j-fm-presets/big-pad-2-1165;
#X obj 140 180 throw~ R-j-fm-presets/big-pad-2-1165;
#X obj 310 60 switch~;
#X connect 0 0 3 0;
#X connect 0 1 4 0;
#X connect 1 0 0 0;
#X connect 2 0 0 1;
#X connect 3 0 7 0;
#X connect 4 0 8 0;
#X connect 5 0 3 1;
#X connect 5 0 4 1;
#X connect 6 0 9 0;
#X restore 37 632 pd yo-1-\$0;
#X obj 449 264 pack s \$0 \$1 \$3 1;
#X obj 449 222 t a a, f 39;
#X obj 684 258 pack s \$0 \$1 \$3 2;
#N canvas 872 434 528 401 yo-2-\$0 0;
#X obj 20 30 j-fm-presets/big-pad-2 1712 0;
#X obj 20 0 r note-2-1712;
#X obj 100 0 r mess-1712;
#X obj 20 100 *~;
#X obj 150 100 *~;
#X obj 220 45 r~ line-2-1712;
#X obj 300 20 r switch-2-1712;
#X obj 20 200 throw~ L-j-fm-presets/big-pad-2-1165;
#X obj 140 180 throw~ R-j-fm-presets/big-pad-2-1165;
#X obj 310 60 switch~;
#X connect 0 0 3 0;
#X connect 0 1 4 0;
#X connect 1 0 0 0;
#X connect 2 0 0 1;
#X connect 3 0 7 0;
#X connect 4 0 8 0;
#X connect 5 0 3 1;
#X connect 5 0 4 1;
#X connect 6 0 9 0;
#X restore 270 632 pd yo-2-\$0;
#X obj 804 377 t l l;
#X text 1050 441 0 the synth;
#X text 1045 476 3 volume;
#X text 1044 488 4 volume;
#X text 1049 526 7 outL;
#X text 1050 540 8 outR;
#X text 1048 554 9 switch~;
#X text 1049 513 6 r switch in;
#X text 1047 500 5 r line in;
#X text 1049 465 2 r in messages;
#X text 1052 454 1 r in notes;
#X msg 476 415 \; pd-yo-\$5-\$2 clear;
#X msg 831 407 \; pd-yo-\$5-\$2 clear;
#X msg 449 446 \; pd-yo-\$5-\$2 obj 20 30 \$1 \$2 \$3 \; pd-yo-\$5-\$2
obj 20 0 r note-\$5-\$2 \; pd-yo-\$5-\$2 obj 100 0 r mess-\$2 \; pd-yo-\$5-\$2
obj 20 100 *~ \; pd-yo-\$5-\$2 obj 150 100 *~ \; pd-yo-\$5-\$2 obj
220 45 r~ line-\$5-\$2 \; pd-yo-\$5-\$2 obj 300 20 r switch-\$5-\$2
\; pd-yo-\$5-\$2 obj 20 200 throw~ L-\$1-\$4 \; pd-yo-\$5-\$2 obj 140
180 throw~ R-\$1-\$4 \; pd-yo-\$5-\$2 obj 310 60 switch~ \; pd-yo-\$5-\$2
connect 1 0 0 0 \; pd-yo-\$5-\$2 connect 2 0 0 1 \; pd-yo-\$5-\$2 connect
0 0 3 0 \; pd-yo-\$5-\$2 connect 0 1 4 0 \; pd-yo-\$5-\$2 connect 3
0 7 0 \; pd-yo-\$5-\$2 connect 4 0 8 0 \; pd-yo-\$5-\$2 connect 5 0
3 1 \; pd-yo-\$5-\$2 connect 5 0 4 1 \; pd-yo-\$5-\$2 connect 6 0 9
0 \;;
#X msg 805 437 \; pd-yo-\$5-\$2 obj 20 30 \$1 \$2 \$3 \; pd-yo-\$5-\$2
obj 20 0 r note-\$5-\$2 \; pd-yo-\$5-\$2 obj 100 0 r mess-\$2 \; pd-yo-\$5-\$2
obj 20 100 *~ \; pd-yo-\$5-\$2 obj 150 100 *~ \; pd-yo-\$5-\$2 obj
220 45 r~ line-\$5-\$2 \; pd-yo-\$5-\$2 obj 300 20 r switch-\$5-\$2
\; pd-yo-\$5-\$2 obj 20 200 throw~ L-\$1-\$4 \; pd-yo-\$5-\$2 obj 140
180 throw~ R-\$1-\$4 \; pd-yo-\$5-\$2 obj 310 60 switch~ \; pd-yo-\$5-\$2
connect 1 0 0 0 \; pd-yo-\$5-\$2 connect 2 0 0 1 \; pd-yo-\$5-\$2 connect
0 0 3 0 \; pd-yo-\$5-\$2 connect 0 1 4 0 \; pd-yo-\$5-\$2 connect 3
0 7 0 \; pd-yo-\$5-\$2 connect 4 0 8 0 \; pd-yo-\$5-\$2 connect 5 0
3 1 \; pd-yo-\$5-\$2 connect 5 0 4 1 \; pd-yo-\$5-\$2 connect 6 0 9
0 \;;
#X obj 422 135 sel 0;
#N canvas 0 23 925 741 bounce-duck 0;
#X obj 47 26 inlet;
#X obj 173 102 + 1;
#X obj 173 144 t a a;
#X obj 173 123 == 1;
#X obj 134 103 f 0;
#X obj 47 469 s note-1-\$0;
#X obj 123 470 s note-2-\$0;
#X obj 218 620 s switch-1-\$0;
#X obj 341 618 s switch-2-\$0;
#X obj 578 558 vline~;
#X obj 578 579 pow~ 2;
#X obj 578 602 s~ line-2-\$0;
#X obj 489 603 s~ line-1-\$0;
#X obj 489 559 vline~;
#X obj 489 580 pow~ 2;
#N canvas 0 23 450 300 on-or-off-note 0;
#X obj 32 23 inlet;
#X obj 32 49 unpack;
#X obj 65 79 sel 0;
#X obj 92 108 t b;
#X obj 92 129 outlet;
#X connect 0 0 1 0;
#X connect 1 1 2 0;
#X connect 2 1 3 0;
#X connect 3 0 4 0;
#X restore 134 76 pd on-or-off-note;
#X obj 47 432 spigot 0;
#X obj 123 432 spigot 0;
#X obj 167 408 ==;
#X obj 104 386 t a a;
#X obj 47 50 t a a a, f 15;
#X text 339 178 1 is on;
#X obj 489 479 t f f, f 10;
#X obj 578 508 ==;
#X msg 368 531 stop;
#X obj 341 503 t b b;
#X obj 341 557 del 8;
#X msg 489 534 \$1 8;
#X msg 578 532 \$1 8;
#X msg 341 578 0;
#X msg 412 565 1;
#X obj 341 468 sel 0 1, f 14;
#X obj 385 499 t b b;
#X msg 245 530 stop;
#X obj 218 502 t b b;
#X obj 218 556 del 8;
#X msg 218 577 0;
#X msg 289 564 1;
#X obj 218 467 sel 0 1, f 14;
#X obj 262 498 t b b;
#X obj 329 220 s \$0-b-line;
#X obj 489 446 r \$0-b-line;
#X obj 104 353 r \$0-b-note;
#X obj 200 262 s \$0-b-note;
#X obj 239 381 r \$0-b-switch;
#X obj 239 402 t a a;
#X obj 267 425 ==;
#X obj 200 177 t f f f, f 22;
#X obj 264 240 s \$0-b-switch;
#X connect 0 0 20 0;
#X connect 1 0 3 0;
#X connect 2 0 4 1;
#X connect 2 1 47 0;
#X connect 3 0 2 0;
#X connect 4 0 1 0;
#X connect 9 0 10 0;
#X connect 10 0 11 0;
#X connect 13 0 14 0;
#X connect 14 0 12 0;
#X connect 15 0 4 0;
#X connect 16 0 5 0;
#X connect 17 0 6 0;
#X connect 18 0 17 1;
#X connect 19 0 16 1;
#X connect 19 1 18 0;
#X connect 20 0 16 0;
#X connect 20 1 17 0;
#X connect 20 2 15 0;
#X connect 22 0 27 0;
#X connect 22 1 23 0;
#X connect 23 0 28 0;
#X connect 24 0 26 0;
#X connect 25 0 26 0;
#X connect 25 1 24 0;
#X connect 26 0 29 0;
#X connect 27 0 13 0;
#X connect 28 0 9 0;
#X connect 29 0 8 0;
#X connect 30 0 8 0;
#X connect 31 0 25 0;
#X connect 31 1 32 0;
#X connect 32 0 24 0;
#X connect 32 1 30 0;
#X connect 33 0 35 0;
#X connect 34 0 35 0;
#X connect 34 1 33 0;
#X connect 35 0 36 0;
#X connect 36 0 7 0;
#X connect 37 0 7 0;
#X connect 38 0 34 0;
#X connect 38 1 39 0;
#X connect 39 0 33 0;
#X connect 39 1 37 0;
#X connect 41 0 22 0;
#X connect 42 0 19 0;
#X connect 44 0 45 0;
#X connect 45 0 38 0;
#X connect 45 1 46 0;
#X connect 46 0 31 0;
#X connect 47 0 43 0;
#X connect 47 1 48 0;
#X connect 47 2 40 0;
#X restore 23 250 pd bounce-duck;
#X msg 243 122 \; pd-yo-1-\$1 vis 1;
#X connect 0 0 8 0;
#X connect 1 0 21 0;
#X connect 3 0 37 0;
#X connect 3 1 35 0;
#X connect 4 0 5 0;
#X connect 4 1 1 0;
#X connect 6 0 41 0;
#X connect 7 0 4 0;
#X connect 7 0 39 0;
#X connect 8 0 40 0;
#X connect 8 1 2 0;
#X connect 8 2 6 0;
#X connect 8 3 4 0;
#X connect 20 0 3 0;
#X connect 21 0 20 0;
#X connect 21 1 22 0;
#X connect 22 0 24 0;
#X connect 24 0 38 0;
#X connect 24 1 36 0;
