#N canvas 559 278 881 521 10;
#X obj 23 6 inlet;
#N canvas 139 380 528 401 yo-\$0 1;
#X obj 20 30 j-fm-presets/pops-1 5578 0;
#X obj 20 0 r note-5578;
#X obj 100 0 r mess-5578;
#X obj 20 200 throw~ L-j-fm-presets/pops-1-1255;
#X obj 140 180 throw~ R-j-fm-presets/pops-1-1255;
#X connect 0 0 3 0;
#X connect 0 1 4 0;
#X connect 1 0 0 0;
#X connect 2 0 0 1;
#X restore 45 162 pd yo-\$0;
#X obj 449 221 symbol \$2;
#X obj 23 83 s note-\$0;
#X obj 96 83 s mess-\$0;
#X obj 449 285 t l l;
#X msg 476 315 \; pd-yo-\$2 clear;
#X obj 422 165 t b b;
#X obj 298 272 s \$0-loadbang;
#X obj 392 140 bng 15 250 50 0 empty empty empty 17 7 0 10 -262144
-1 -1;
#X msg 449 347 \; pd-yo-\$2 obj 20 30 \$1 \$2 \$3 \; pd-yo-\$2 obj
20 0 r note-\$2 \; pd-yo-\$2 obj 100 0 r mess-\$2 \; pd-yo-\$2 obj
20 200 throw~ L-\$1-\$4 \; pd-yo-\$2 obj 140 180 throw~ R-\$1-\$4 \;
pd-yo-\$2 connect 1 0 0 0 \; pd-yo-\$2 connect 2 0 0 1 \; pd-yo-\$2
connect 0 0 3 0 \; pd-yo-\$2 connect 0 1 4 0 \;;
#X obj 449 264 pack s \$0 \$1 \$3;
#X msg 176 108 \; pd-yo-\$1 vis 1;
#X obj 176 81 f \$0;
#X obj 422 144 loadbang;
#X obj 23 46 route note mess open load, f 53;
#X connect 0 0 15 0;
#X connect 2 0 11 0;
#X connect 5 0 10 0;
#X connect 5 1 6 0;
#X connect 7 0 8 0;
#X connect 7 1 2 0;
#X connect 9 0 7 0;
#X connect 11 0 5 0;
#X connect 13 0 12 0;
#X connect 14 0 7 0;
#X connect 15 0 3 0;
#X connect 15 1 4 0;
#X connect 15 2 13 0;
#X connect 15 3 7 0;
