#N canvas 0 23 309 315 12;
#X obj 74 56 inlet bang;
#X obj 74 79 t b;
#X obj 74 133 text get j-path-text;
#X msg 74 106 0;
#X obj 74 156 list tosymbol;
#X obj 74 179 outlet;
#X connect 0 0 1 0;
#X connect 1 0 3 0;
#X connect 2 0 4 0;
#X connect 3 0 2 0;
#X connect 4 0 5 0;
