#N canvas 0 23 936 521 10;
#X obj 24 36 loadbang;
#X text 173 77 Arg3: File Path to Sample Folder;
#X obj 24 273 soundfiler;
#X obj 24 57 t b b b, f 15;
#X obj 24 304 t a b, f 21;
#X obj 403 25 inlet;
#X obj 403 118 openpanel;
#X obj 403 439 pack s s;
#X obj 403 379 t a b;
#X msg 24 207 read -resize \$1/\$3.wav \$2;
#X text 173 37 Arg1: Indvivdual Sample Number;
#X text 173 57 Arg2: Sample Bank Name;
#X obj 542 25 array define \$2-\$1;
#X obj 448 413 symbol \$2-\$1;
#X obj 24 170 pack s s \$1;
#X obj 542 49 array define \$2-\$1-length;
#X obj 24 361 tabwrite \$2-\$1-length;
#X msg 147 331 0;
#X msg 666 188 clear;
#X obj 403 148 t a b a b, f 38;
#X obj 420 198 symbol \$3;
#X obj 420 219 pack s \$1;
#X msg 420 256 write \$1/path\$2.txt;
#X text 565 96 figure out some way to save the last path;
#X obj 554 221 t a b;
#X msg 581 244 0;
#X obj 554 191 list fromsymbol;
#X obj 666 323 text define -k \$0-text;
#A set 47 109 101 100 105 97 47 112 105 47 79 82 71 65 78 69 76 76
69 47 83 65 77 77 80 80 80 83 83 83 47 56 48 56 66 68 95 84 51 68 49
95 79 114 105 103 46 119 97 118 \;;
#X msg 492 295 0;
#X obj 492 345 list tosymbol;
#X obj 492 324 text get \$0-text;
#X obj 554 269 text set \$0-text;
#X obj 762 209 symbol \$3;
#X obj 762 230 pack s \$1;
#X msg 762 261 read \$1/path\$2.txt;
#X obj 730 173 t b b;
#X msg 403 462 read -resize \$1 \$2;
#X obj 403 62 route read re-read;
#N canvas 221 266 653 383 create-path 0;
#X obj 101 22 inlet;
#X obj 101 78 route bang, f 12;
#X obj 140 119 r j-path;
#X obj 101 173 makefilename %s/\$2;
#X obj 242 296 outlet;
#X text 173 20 if bang read from arg:2;
#X obj 242 130 t a b;
#X obj 274 192 makefilename %s/%%s;
#X msg 274 215 set \$1;
#X obj 242 250 makefilename;
#X obj 101 147 symbol;
#X obj 274 165 symbol;
#X obj 313 138 r j-path;
#X obj 242 104 symbol;
#X connect 0 0 1 0;
#X connect 1 0 10 0;
#X connect 1 1 13 0;
#X connect 2 0 10 1;
#X connect 3 0 4 0;
#X connect 6 0 9 0;
#X connect 6 1 11 0;
#X connect 7 0 8 0;
#X connect 8 0 9 0;
#X connect 9 0 4 0;
#X connect 10 0 3 0;
#X connect 11 0 7 0;
#X connect 12 0 11 1;
#X connect 13 0 6 0;
#X restore 24 94 pd create-path;
#X obj 55 131 symbol \$2-\$1;
#X connect 0 0 3 0;
#X connect 2 0 4 0;
#X connect 3 0 38 0;
#X connect 3 1 39 0;
#X connect 4 0 16 0;
#X connect 4 1 17 0;
#X connect 5 0 37 0;
#X connect 6 0 19 0;
#X connect 7 0 36 0;
#X connect 8 0 7 0;
#X connect 8 1 13 0;
#X connect 9 0 2 0;
#X connect 13 0 7 1;
#X connect 14 0 9 0;
#X connect 17 0 16 1;
#X connect 18 0 27 0;
#X connect 19 0 8 0;
#X connect 19 1 20 0;
#X connect 19 2 26 0;
#X connect 19 3 18 0;
#X connect 20 0 21 0;
#X connect 21 0 22 0;
#X connect 22 0 27 0;
#X connect 24 0 31 0;
#X connect 24 1 25 0;
#X connect 25 0 31 1;
#X connect 26 0 24 0;
#X connect 28 0 30 0;
#X connect 29 0 8 0;
#X connect 30 0 29 0;
#X connect 32 0 33 0;
#X connect 33 0 34 0;
#X connect 34 0 27 0;
#X connect 35 0 28 0;
#X connect 35 1 32 0;
#X connect 36 0 2 0;
#X connect 37 0 6 0;
#X connect 37 1 35 0;
#X connect 38 0 14 0;
#X connect 39 0 14 1;
