#N canvas 587 359 612 295 12;
#X obj 23 29 inlet messages;
#N canvas 0 23 450 300 messages 0;
#X obj 37 37 inlet;
#X obj 89 154 s save-\$0;
#X obj 89 127 t b;
#X obj 37 218 s load-\$0;
#X obj 69 194 s loadPath-\$0;
#X obj 37 160 t b b;
#X obj 142 89 t b;
#X obj 142 116 s pick-\$0;
#X obj 221 190 bng 15 250 50 0 empty empty empty 17 7 0 10 -262144
-1 -1;
#X obj 261 145 bng 15 250 50 0 empty empty empty 17 7 0 10 -262144
-1 -1;
#X obj 37 60 route load save pick;
#X connect 0 0 10 0;
#X connect 2 0 1 0;
#X connect 5 0 3 0;
#X connect 5 1 4 0;
#X connect 6 0 7 0;
#X connect 8 0 5 0;
#X connect 9 0 6 0;
#X connect 10 0 5 0;
#X connect 10 1 2 0;
#X connect 10 2 6 0;
#X restore 23 52 pd messages;
#X text 198 52 Arg 2: Sample Bank Name;
#X text 198 29 Arg 1: Sample Number;
#N canvas 103 139 988 535 load-and-save-from-path 0;
#X obj 321 233 text define j-loader-\$0;
#N canvas 221 266 653 383 create-path 0;
#X obj 101 22 inlet;
#X obj 101 78 route bang, f 12;
#X obj 101 173 makefilename %s/\$2;
#X obj 242 296 outlet;
#X text 173 20 if bang read from arg:2;
#X obj 242 130 t a b;
#X obj 274 192 makefilename %s/%%s;
#X msg 274 215 set \$1;
#X obj 242 250 makefilename;
#X obj 242 104 symbol;
#X obj 101 121 j-get-local-path;
#X obj 274 161 j-get-local-path;
#X connect 0 0 1 0;
#X connect 1 0 10 0;
#X connect 1 1 9 0;
#X connect 2 0 3 0;
#X connect 5 0 8 0;
#X connect 5 1 11 0;
#X connect 6 0 7 0;
#X connect 7 0 8 0;
#X connect 8 0 3 0;
#X connect 9 0 5 0;
#X connect 10 0 2 0;
#X connect 11 0 6 0;
#X restore 321 134 pd create-path;
#X obj 321 69 r save-\$0;
#X obj 321 164 list prepend write;
#X obj 321 187 list trim;
#N canvas 221 266 653 383 create-path 0;
#X obj 101 22 inlet;
#X obj 101 78 route bang, f 12;
#X obj 101 173 makefilename %s/\$2;
#X obj 242 296 outlet;
#X text 173 20 if bang read from arg:2;
#X obj 242 130 t a b;
#X obj 274 192 makefilename %s/%%s;
#X msg 274 215 set \$1;
#X obj 242 250 makefilename;
#X obj 242 104 symbol;
#X obj 101 121 j-get-local-path;
#X obj 274 161 j-get-local-path;
#X connect 0 0 1 0;
#X connect 1 0 10 0;
#X connect 1 1 9 0;
#X connect 2 0 3 0;
#X connect 5 0 8 0;
#X connect 5 1 11 0;
#X connect 6 0 7 0;
#X connect 7 0 8 0;
#X connect 8 0 3 0;
#X connect 9 0 5 0;
#X connect 10 0 2 0;
#X connect 11 0 6 0;
#X restore 60 131 pd create-path;
#X obj 60 185 list trim;
#X obj 60 159 list prepend read;
#X obj 60 66 r loadPath-\$0;
#X obj 73 331 text tolist j-loader-\$0;
#X obj 73 297 r load-\$0;
#X obj 73 354 route bang, f 25;
#X msg 73 377 Nothing Loaded;
#X obj 73 401 print j-loader-\$2-\$1;
#X obj 245 419 s load-2-table-\$0;
#X obj 245 387 list tosymbol;
#X text 357 389 convert from textfile;
#X obj 60 91 symbol SamplePaths/j-load-\$2-\$1.txt;
#X obj 321 94 symbol SamplePaths/j-load-\$2-\$1.txt;
#X connect 1 0 3 0;
#X connect 2 0 18 0;
#X connect 3 0 4 0;
#X connect 4 0 0 0;
#X connect 5 0 7 0;
#X connect 6 0 0 0;
#X connect 7 0 6 0;
#X connect 8 0 17 0;
#X connect 9 0 11 0;
#X connect 10 0 9 0;
#X connect 11 0 12 0;
#X connect 11 1 15 0;
#X connect 12 0 13 0;
#X connect 15 0 14 0;
#X connect 17 0 5 0;
#X connect 18 0 1 0;
#X restore 25 112 pd load-and-save-from-path;
#N canvas 0 23 841 499 pick 0;
#X obj 60 115 openpanel;
#X obj 106 243 text fromlist j-loader-\$0;
#X obj 60 75 r pick-\$0;
#X obj 60 178 t b a a;
#X obj 60 325 s save-\$0;
#X obj 83 285 s load-2-table-\$0;
#X obj 106 210 list fromsymbol;
#X text 221 210 -- save this conversion to the textfile;
#X connect 0 0 3 0;
#X connect 2 0 0 0;
#X connect 3 0 4 0;
#X connect 3 1 5 0;
#X connect 3 2 6 0;
#X connect 6 0 1 0;
#X restore 25 148 pd pick;
#N canvas 604 91 635 537 the-array 0;
#X obj 97 247 array define j-samp-\$2-\$1;
#X obj 97 29 r load-2-table-\$0;
#X obj 97 168 soundfiler;
#X obj 97 90 list prepend read -resize;
#X obj 97 113 list append j-samp-\$2-\$1;
#X obj 97 136 list trim;
#X obj 97 193 v j-samp-length-\$2-\$1;
#X connect 1 0 3 0;
#X connect 2 0 6 0;
#X connect 3 0 4 0;
#X connect 4 0 5 0;
#X connect 5 0 2 0;
#X restore 26 190 pd the-array;
#X connect 0 0 1 0;
