#N canvas 273 259 672 383 12;
#X obj 165 25 inlet velocity;
#X obj 27 25 inlet midi;
#X obj 304 25 inlet length(ms);
#X obj 27 97 pack 0 0 0, f 40;
#X obj 27 176 pack 0 0 0 0;
#X obj 27 129 unpack 0 0 0;
#X obj 27 153 poly \$1 1;
#X obj 27 204 clone -s 1 \$1 j-makenote-voice;
#X obj 67 269 outlet;
#X obj 27 227 list split 1;
#X connect 0 0 3 1;
#X connect 1 0 3 0;
#X connect 2 0 3 2;
#X connect 3 0 5 0;
#X connect 4 0 7 0;
#X connect 5 0 6 0;
#X connect 5 1 6 1;
#X connect 5 2 4 3;
#X connect 6 0 4 0;
#X connect 6 1 4 1;
#X connect 6 2 4 2;
#X connect 7 0 9 0;
#X connect 9 1 8 0;
