#N canvas 0 23 586 447 12;
#X obj 54 -6 inlet;
#X obj 72 53 unpack 0 0 0, f 24;
#X obj 238 226 del, f 6;
#X msg 350 143 stop;
#X obj 238 289 f;
#X obj 238 312 pack 0 0;
#X obj 72 161 pack 0 0;
#X obj 154 87 sel 0, f 8;
#X msg 154 110 0;
#X obj 72 404 outlet;
#X obj 206 111 t a b;
#X obj 72 76 t f f;
#X obj 75 23 t a b, f 40;
#X obj 426 62 print;
#X connect 0 0 12 0;
#X connect 0 0 13 0;
#X connect 1 0 11 0;
#X connect 1 1 7 0;
#X connect 1 2 2 1;
#X connect 2 0 4 0;
#X connect 3 0 2 0;
#X connect 4 0 5 0;
#X connect 5 0 9 0;
#X connect 6 0 9 0;
#X connect 7 0 8 0;
#X connect 7 1 10 0;
#X connect 8 0 6 1;
#X connect 10 0 6 1;
#X connect 10 1 2 0;
#X connect 11 0 6 0;
#X connect 11 1 4 1;
#X connect 12 0 1 0;
#X connect 12 1 3 0;
