#N canvas 45 330 657 509 10;
#X msg 437 182 60000 \$1;
#X obj 437 205 /;
#X obj 140 18 inlet on/off;
#X obj 453 18 inlet BPM;
#X obj 236 364 outlet;
#X text 27 170 Arg1: Tick resolution(4-360);
#X obj 328 20 inlet;
#X obj 328 41 t b;
#X obj 236 284 metro 1.388, f 34;
#X obj 437 238 / \$1;
#X obj 453 62 t a a;
#X obj 513 346 outlet;
#X obj 236 316 j-counter \$1 1;
#X obj 328 62 0;
#X connect 0 0 1 0;
#X connect 1 0 9 0;
#X connect 2 0 8 0;
#X connect 3 0 10 0;
#X connect 6 0 7 0;
#X connect 7 0 13 0;
#X connect 8 0 12 0;
#X connect 9 0 8 1;
#X connect 10 0 0 0;
#X connect 10 1 11 0;
#X connect 12 0 4 0;
#X connect 13 0 12 2;
