#N canvas 596 313 717 482 12;
#X obj 244 118 t a a, f 13;
#X obj 244 175 -;
#X obj 18 346 *~;
#X obj 132 349 *~;
#X msg 36 295 \$1 \$2;
#X obj 36 319 line~;
#X msg 150 300 \$1 \$2;
#X obj 150 324 line~;
#X obj 132 410 outlet~ right;
#X obj 18 410 outlet~ left;
#X obj 18 22 inlet~;
#X text 74 22 mono;
#X obj 244 25 inlet;
#X text 295 22 fade 0-1;
#X obj 244 147 swap 1;
#X obj 244 209 sqrt;
#X obj 332 207 sqrt;
#X obj 150 271 pack 0 \$1;
#X obj 36 265 pack 0 \$1;
#X text 400 63 Arg1: fade animation time;
#X connect 0 0 14 0;
#X connect 0 1 16 0;
#X connect 1 0 15 0;
#X connect 2 0 9 0;
#X connect 3 0 8 0;
#X connect 4 0 5 0;
#X connect 5 0 2 1;
#X connect 6 0 7 0;
#X connect 7 0 3 1;
#X connect 10 0 2 0;
#X connect 10 0 3 0;
#X connect 12 0 0 0;
#X connect 14 0 1 0;
#X connect 14 1 1 1;
#X connect 15 0 18 0;
#X connect 16 0 17 0;
#X connect 17 0 6 0;
#X connect 18 0 4 0;
