#N canvas 596 313 717 482 12;
#X obj 244 168 pow 0.5;
#X obj 244 78 t a a, f 13;
#X obj 332 167 pow 0.5;
#X msg 244 111 1 \$1;
#X obj 244 135 -;
#X obj 18 306 *~;
#X obj 132 309 *~;
#X msg 36 255 \$1 \$2;
#X obj 36 279 line~;
#X obj 244 25 inlet fade 0-1;
#X msg 150 260 \$1 \$2;
#X obj 150 284 line~;
#X obj 132 370 outlet~ right;
#X obj 18 370 outlet~ left;
#X obj 149 230 pack 0 \$2;
#X obj 36 225 pack 0 \$2;
#X obj 244 49 unpack;
#X obj 18 22 inlet~ mono;
#X obj 440 105 loadbang;
#X obj 440 129 f \$1;
#X text 517 386 Arg1: start pan value;
#X connect 0 0 15 0;
#X connect 1 0 3 0;
#X connect 1 1 2 0;
#X connect 2 0 14 0;
#X connect 3 0 4 0;
#X connect 4 0 0 0;
#X connect 5 0 13 0;
#X connect 6 0 12 0;
#X connect 7 0 8 0;
#X connect 8 0 5 1;
#X connect 9 0 16 0;
#X connect 10 0 11 0;
#X connect 11 0 6 1;
#X connect 14 0 10 0;
#X connect 15 0 7 0;
#X connect 16 0 1 0;
#X connect 16 1 15 1;
#X connect 16 1 14 1;
#X connect 17 0 5 0;
#X connect 17 0 6 0;
#X connect 18 0 19 0;
#X connect 19 0 1 0;
