#N canvas 176 202 757 676 12;
#X obj 28 37 inlet~ mono sig;
#X obj 485 22 inlet bang toggle;
#X obj 521 51 + 1;
#X obj 485 59 f 1;
#X obj 521 75 == 1;
#X obj 183 23 inlet left-spread;
#X obj 311 23 inlet right-spread;
#X obj 31 575 outlet~;
#X obj 148 574 outlet~;
#X obj 28 327 *~;
#X obj 184 47 s \$0-left-s;
#X obj 82 363 r \$0-left-s;
#X obj 327 375 r \$0-right-s;
#X obj 312 47 s \$0-right-s;
#X obj 273 182 *~;
#X obj 292 148 pow~ 0.5;
#X obj 46 272 vline~;
#X obj 292 120 vline~;
#X obj 485 149 s \$0-line;
#X obj 292 89 r \$0-line;
#X obj 67 126 r \$0-line;
#X text 499 252 Arg3: ramp for xfade;
#X text 501 206 Arg1: left 0-1;
#X text 500 229 Arg2: right 0-1;
#X obj 485 125 pack 0 \$3;
#X text 488 273 Arg4: ramp for changing stereo range;
#X obj 46 303 pow~ 0.5;
#X obj 46 169 unpack 0 0;
#X obj 46 241 pack, f 9;
#X obj 28 435 j-pan \$1;
#X obj 273 436 j-pan \$2;
#X obj 82 387 pack 0 \$4;
#X obj 327 399 pack 0 \$4;
#X obj 335 502 env~;
#X floatatom 335 526 5 0 0 0 - - -;
#X obj 257 497 env~;
#X floatatom 257 521 5 0 0 0 - - -;
#X obj 46 193 ==;
#X connect 0 0 9 0;
#X connect 0 0 14 0;
#X connect 1 0 3 0;
#X connect 2 0 4 0;
#X connect 3 0 2 0;
#X connect 3 0 24 0;
#X connect 4 0 3 1;
#X connect 5 0 10 0;
#X connect 6 0 13 0;
#X connect 9 0 29 0;
#X connect 11 0 31 0;
#X connect 12 0 32 0;
#X connect 14 0 30 0;
#X connect 15 0 14 1;
#X connect 16 0 26 0;
#X connect 17 0 15 0;
#X connect 19 0 17 0;
#X connect 20 0 27 0;
#X connect 24 0 18 0;
#X connect 26 0 9 1;
#X connect 27 0 37 0;
#X connect 27 1 28 1;
#X connect 28 0 16 0;
#X connect 29 0 7 0;
#X connect 29 1 8 0;
#X connect 30 0 7 0;
#X connect 30 0 35 0;
#X connect 30 1 8 0;
#X connect 30 1 33 0;
#X connect 31 0 29 1;
#X connect 32 0 30 1;
#X connect 33 0 34 0;
#X connect 35 0 36 0;
#X connect 37 0 28 0;
