#N canvas 659 88 668 436 12;
#X obj 9 42 inlet manual-inlet;
#X obj 8 230 outlet to-parameter;
#X text 166 66 get stored presets from main;
#X text 241 310 plug into main;
#X obj 168 204 t b;
#X obj 9 95 f 0;
#X obj 168 330 s j-preset-\$1-incoming;
#X obj 168 251 f;
#X obj 9 125 t a a a;
#X msg 55 193 set \$1;
#X obj 101 116 cnv 15 75 22 empty empty empty 20 12 0 14 -212923 -66577
0;
#X floatatom 103 119 5 0 0 0 - - -;
#X text 154 5 Arg 1: preset name match the jwy-preset-main;
#X text 154 22 Arg 2: name of parameter;
#X obj 174 47 r j-preset-\$1-\$2;
#X obj 168 181 r j-preset-\$1-get;
#X obj 168 276 list prepend \$2;
#X connect 0 0 11 0;
#X connect 4 0 7 0;
#X connect 5 0 8 0;
#X connect 7 0 16 0;
#X connect 8 0 1 0;
#X connect 8 1 7 1;
#X connect 8 2 9 0;
#X connect 9 0 11 0;
#X connect 11 0 5 0;
#X connect 14 0 5 0;
#X connect 15 0 4 0;
#X connect 16 0 6 0;
#X coords 0 -1 1 1 85 40 1 100 100;
