#N canvas 126 111 1021 519 12;
#X obj 320 241 inlet;
#X obj 320 268 route recall save write read, f 60;
#X floatatom 140 118 5 1 1000 0 Scene - -;
#X obj 100 141 bng 20 250 50 0 empty empty Save: 22 12 0 12 -204800
-1 -1;
#X floatatom 161 143 5 1 1000 0 - - -;
#X obj 100 165 bng 20 250 50 0 empty empty Save_2_Disc 22 12 0 12 -261234
-1 -1;
#X text 367 49 Arg1: preset group name;
#X text 367 74 Arg2: path to write/read .txt file;
#N canvas 403 71 915 580 write/read 0;
#X obj 37 8 inlet;
#X text 82 6 write;
#X obj 241 11 inlet;
#X text 287 8 read;
#N canvas 221 266 653 383 create-path 0;
#X obj 101 22 inlet;
#X obj 101 78 route bang, f 12;
#X obj 101 173 makefilename %s/\$2;
#X obj 242 296 outlet;
#X text 173 20 if bang read from arg:2;
#X obj 242 130 t a b;
#X obj 274 192 makefilename %s/%%s;
#X msg 274 215 set \$1;
#X obj 242 250 makefilename;
#X obj 242 104 symbol;
#X obj 101 121 j-get-local-path;
#X obj 274 161 j-get-local-path;
#X connect 0 0 1 0;
#X connect 1 0 10 0;
#X connect 1 1 9 0;
#X connect 2 0 3 0;
#X connect 5 0 8 0;
#X connect 5 1 11 0;
#X connect 6 0 7 0;
#X connect 7 0 8 0;
#X connect 8 0 3 0;
#X connect 9 0 5 0;
#X connect 10 0 2 0;
#X connect 11 0 6 0;
#X restore 327 266 pd create-path;
#X obj 345 233 r \$0-loc-load;
#X obj 133 265 list prepend write;
#X obj 327 305 list prepend read;
#X obj 327 343 list trim;
#N canvas 221 266 653 383 create-path 0;
#X obj 101 22 inlet;
#X obj 101 78 route bang, f 12;
#X obj 101 173 makefilename %s/\$2;
#X obj 242 296 outlet;
#X text 173 20 if bang read from arg:2;
#X obj 242 130 t a b;
#X obj 274 192 makefilename %s/%%s;
#X msg 274 215 set \$1;
#X obj 242 250 makefilename;
#X obj 242 104 symbol;
#X obj 101 121 j-get-local-path;
#X obj 274 161 j-get-local-path;
#X connect 0 0 1 0;
#X connect 1 0 10 0;
#X connect 1 1 9 0;
#X connect 2 0 3 0;
#X connect 5 0 8 0;
#X connect 5 1 11 0;
#X connect 6 0 7 0;
#X connect 7 0 8 0;
#X connect 8 0 3 0;
#X connect 9 0 5 0;
#X connect 10 0 2 0;
#X connect 11 0 6 0;
#X restore 133 211 pd create-path;
#X obj 326 371 text define \$0-save-text;
#X obj 241 113 s \$0-total;
#X obj 241 35 t b a;
#X obj 241 59 text size \$0-save-text;
#X connect 0 0 9 0;
#X connect 2 0 12 0;
#X connect 4 0 7 0;
#X connect 5 0 4 0;
#X connect 6 0 8 0;
#X connect 7 0 8 0;
#X connect 8 0 10 0;
#X connect 9 0 6 0;
#X connect 12 0 13 0;
#X connect 12 1 4 0;
#X connect 13 0 11 0;
#X restore 593 338 pd write/read;
#X obj 757 197 text define \$0-temp;
#N canvas 279 136 854 667 recall 0;
#X obj 51 24 inlet;
#X obj 83 127 text get \$0-save-text;
#X text 251 129 fill the temp \, preset number;
#X obj 83 151 text fromlist \$0-temp;
#X obj 51 263 text size \$0-temp;
#X obj 51 292 t a b, f 7;
#X msg 97 317 0;
#X obj 51 316 until;
#X obj 51 347 f;
#X obj 92 357 + 1;
#X obj 51 422 list prepend \$1;
#X obj 51 398 text get \$0-temp;
#X obj 51 88 t b a;
#X text 88 234 send out each parameter in the preset;
#X obj 51 48 - 1;
#X msg 51 470 \; j-preset-\$1-\$2 \$3;
#X connect 0 0 14 0;
#X connect 1 0 3 0;
#X connect 4 0 5 0;
#X connect 5 0 7 0;
#X connect 5 1 6 0;
#X connect 6 0 8 1;
#X connect 7 0 8 0;
#X connect 8 0 9 0;
#X connect 8 0 11 0;
#X connect 9 0 8 1;
#X connect 10 0 15 0;
#X connect 11 0 10 0;
#X connect 12 0 4 0;
#X connect 12 1 1 0;
#X connect 14 0 12 0;
#X restore 320 453 pd recall;
#X obj 320 378 max 1;
#X obj 424 353 max 1;
#N canvas 0 23 708 429 save 0;
#X obj 35 15 inlet;
#X obj 277 233 s j-preset-\$1-get;
#X obj 277 266 r j-preset-\$1-incoming;
#X msg 495 252 0;
#X obj 313 355 f;
#X obj 354 363 + 1;
#X obj 277 387 text set \$0-temp;
#X obj 277 290 t a b;
#X obj 277 109 t b b b, f 19;
#X obj 407 141 s \$0-clear-temp;
#X obj 115 104 text tolist \$0-temp;
#X obj 115 173 text set \$0-save-text;
#X obj 35 39 - 1;
#X obj 35 225 s \$0-up-count;
#X obj 35 66 t b b a b, f 35;
#X connect 0 0 12 0;
#X connect 2 0 7 0;
#X connect 3 0 4 1;
#X connect 4 0 5 0;
#X connect 4 0 6 1;
#X connect 5 0 4 1;
#X connect 7 0 6 0;
#X connect 7 1 4 0;
#X connect 8 0 1 0;
#X connect 8 1 3 0;
#X connect 8 2 9 0;
#X connect 10 0 11 0;
#X connect 12 0 14 0;
#X connect 14 0 13 0;
#X connect 14 1 10 0;
#X connect 14 2 11 1;
#X connect 14 3 8 0;
#X restore 424 377 pd save;
#X obj 757 110 r \$0-clear-temp;
#X obj 757 134 t b;
#X msg 757 158 clear;
#X msg 51 68 set \$1;
#X obj 333 324 s \$0-loc-recall;
#X obj 51 42 r \$0-loc-recall;
#X obj 14 200 s \$0-gui-recall;
#X obj 198 316 r \$0-gui-recall;
#X obj 140 233 f;
#X obj 139 257 s \$0-gui-save;
#X obj 444 319 r \$0-gui-save;
#X obj 183 204 s \$0-gui-write;
#X obj 593 304 r \$0-gui-write;
#X obj 320 292 t a a;
#X floatatom 205 118 5 0 0 0 of: - -;
#N canvas 0 23 450 300 count 0;
#X obj 91 97 r \$0-total;
#X obj 91 150 f;
#X obj 127 149 + 1;
#X obj 91 174 outlet;
#X obj 190 82 r \$0-up-count;
#X obj 190 106 t b;
#X obj 190 187 s \$0-total;
#X obj 190 133 text size \$0-save-text;
#X connect 0 0 1 0;
#X connect 1 0 2 0;
#X connect 1 0 3 0;
#X connect 2 0 1 1;
#X connect 4 0 5 0;
#X connect 5 0 7 0;
#X connect 7 0 6 0;
#X restore 212 49 pd count;
#X connect 0 0 1 0;
#X connect 1 0 27 0;
#X connect 1 1 12 0;
#X connect 1 2 8 0;
#X connect 1 3 8 1;
#X connect 2 0 20 0;
#X connect 3 0 22 0;
#X connect 4 0 22 1;
#X connect 5 0 25 0;
#X connect 11 0 10 0;
#X connect 12 0 13 0;
#X connect 14 0 15 0;
#X connect 15 0 16 0;
#X connect 16 0 9 0;
#X connect 17 0 2 0;
#X connect 19 0 17 0;
#X connect 21 0 11 0;
#X connect 22 0 23 0;
#X connect 24 0 12 0;
#X connect 26 0 8 0;
#X connect 27 0 11 0;
#X connect 27 1 18 0;
#X connect 29 0 28 0;
#X coords 0 -1 1 1 120 90 1 100 100;
