#N canvas 451 32 529 400 12;
#X text 154 6 Arg 1: unique name match the jwy-preset-main;
#X obj 9 42 inlet manual-inlet;
#X text 154 23 Arg 2: number of preset(int);
#X obj 8 230 outlet to-parameter;
#X text 166 66 get stored presets from main;
#X text 241 310 plug into main;
#X obj 168 299 list trim;
#X obj 168 276 list append \$2;
#X obj 360 107 r \$1-get-num;
#X obj 360 160 f \$2;
#X obj 360 183 s \$1-r-num;
#X obj 168 204 t b;
#X obj 9 95 f 0;
#X obj 360 130 t b;
#X obj 168 330 s j-preset-\$1-incoming;
#X obj 174 47 r j-preset-\$1-\$2-recall;
#X obj 168 251 f;
#X obj 168 181 r j-preset-\$1-\$2-get-param;
#X obj 9 125 t a a a;
#X msg 55 193 set \$1;
#X obj 101 116 cnv 15 75 22 empty empty empty 20 12 0 14 -212923 -66577
0;
#X floatatom 103 119 5 0 0 0 - - -;
#X connect 1 0 21 0;
#X connect 6 0 14 0;
#X connect 7 0 6 0;
#X connect 8 0 13 0;
#X connect 9 0 10 0;
#X connect 11 0 16 0;
#X connect 12 0 18 0;
#X connect 13 0 9 0;
#X connect 15 0 12 0;
#X connect 16 0 7 0;
#X connect 17 0 11 0;
#X connect 18 0 3 0;
#X connect 18 1 16 1;
#X connect 18 2 19 0;
#X connect 19 0 21 0;
#X connect 21 0 12 0;
#X coords 0 -1 1 1 85 40 1 100 100;
