#N canvas 263 345 939 531 12;
#X obj 21 12 inlet messages;
#N canvas 363 111 450 300 receive 0;
#X obj 44 59 list split 1;
#X obj 85 115 max 0;
#X obj 85 138 i;
#X obj 44 201 text set pre-temp-\$0;
#X obj 44 36 r j-preset-\$1-incoming;
#X connect 0 0 3 0;
#X connect 0 1 1 0;
#X connect 1 0 2 0;
#X connect 2 0 3 1;
#X connect 4 0 0 0;
#X restore 22 97 pd receive;
#X floatatom 304 262 5 1 100000 0 - - -;
#X floatatom 304 287 5 1 100000 0 - - -;
#X obj 306 309 bng 15 250 50 0 empty empty empty 17 7 0 10 -262144
-1 -1;
#X obj 503 66 r j-loadbang;
#X floatatom 449 238 5 0 0 0 - - -;
#X obj 394 385 s \$0-loc-save;
#X obj 535 129 s \$0-loc-load;
#X text 345 290 Recall Scene;
#X text 326 308 Save all scenes to disk;
#X text 609 22 arg 1: unique name;
#X text 607 42 arg 2: path to store textfiles \, relative to;
#X text 653 60 jwy-bibliothek-header;
#X obj 397 359 s \$0-local-recall;
#X obj 397 334 s \$0-local-store;
#N canvas 459 258 955 567 messages 0;
#X obj 37 77 inlet;
#N canvas 0 23 450 300 check 0;
#X text 77 23 check the amt;
#X obj 42 68 t b b b;
#X obj 110 203 f;
#X obj 18 6 inlet;
#X obj 135 243 outlet;
#X obj 229 45 r \$1-r-num;
#X obj 65 103 s \$1-get-num;
#X obj 227 134 >;
#X obj 227 184 f;
#X obj 227 157 sel 1;
#X msg 179 98 0;
#X obj 227 92 t a a;
#X obj 227 207 t a a, f 15;
#X connect 1 0 2 0;
#X connect 1 1 6 0;
#X connect 1 2 10 0;
#X connect 2 0 4 0;
#X connect 3 0 1 0;
#X connect 5 0 11 0;
#X connect 7 0 9 0;
#X connect 8 0 12 0;
#X connect 9 0 8 0;
#X connect 10 0 7 1;
#X connect 11 0 7 0;
#X connect 11 1 8 1;
#X connect 12 0 2 1;
#X connect 12 1 7 1;
#X restore 561 332 pd check;
#N canvas 0 23 450 300 recall 0;
#X obj 20 22 inlet;
#X obj 20 45 t a b;
#X obj 20 93 until;
#X obj 20 116 i;
#X obj 54 116 + 1;
#X obj 219 19 inlet;
#X obj 219 42 text get presets-\$0;
#X obj 219 83 text fromlist pre-temp-\$0;
#X obj 20 187 text get pre-temp-\$0, f 25;
#X obj 20 210 pack 0 0 s;
#X obj 20 139 t a a b;
#X obj 89 161 symbol \$1;
#X msg 20 233 \; j-preset-\$3-\$2-recall \$1;
#X msg 52 68 1;
#X obj 20 68 - 1;
#X connect 0 0 1 0;
#X connect 1 0 14 0;
#X connect 1 1 13 0;
#X connect 2 0 3 0;
#X connect 3 0 4 0;
#X connect 3 0 10 0;
#X connect 4 0 3 1;
#X connect 5 0 6 0;
#X connect 6 0 7 0;
#X connect 8 0 9 0;
#X connect 9 0 12 0;
#X connect 10 0 8 0;
#X connect 10 1 9 1;
#X connect 10 2 11 0;
#X connect 11 0 9 2;
#X connect 13 0 3 1;
#X connect 14 0 2 0;
#X restore 561 383 pd recall;
#X obj 561 305 t b f, f 11;
#X obj 561 355 + 1;
#N canvas 0 23 802 509 store 0;
#X obj 53 149 text tolist pre-temp-\$0;
#X obj 53 195 text set presets-\$0;
#X obj 54 25 inlet;
#X obj 53 74 t b f b;
#X text 130 89 bang all presets to make sure each one is in the txt
file;
#X obj 102 107 s \$1-get-param;
#X obj 172 65 bng 15 250 50 0 empty empty empty 17 7 0 10 -262144 -1
-1;
#X connect 0 0 1 0;
#X connect 2 0 3 0;
#X connect 3 0 0 0;
#X connect 3 1 1 1;
#X connect 3 2 5 0;
#X connect 6 0 5 0;
#X restore 408 266 pd store;
#X obj 216 131 r \$0-loc-save;
#X text 102 66 get the path from;
#X text 98 76 jwy-bibliothek-header;
#X obj 394 132 r \$0-local-store;
#X obj 529 146 r \$0-local-recall;
#X obj 529 202 i;
#X obj 394 181 i;
#X obj 529 179 max 1;
#X obj 394 158 max 1;
#X obj 529 245 - 1;
#X obj 376 213 - 1;
#X obj 350 321 s \$0-update-store;
#X obj 583 273 s \$0-update-recall;
#X obj 350 179 i;
#X obj 350 156 max 1;
#X obj 583 206 i;
#X obj 583 183 max 1;
#X obj 529 408 s local-update-amt;
#X obj 529 268 t b f;
#X obj 376 289 s local-update-amt;
#X obj 376 239 t b f;
#X obj 37 100 route load save store recall storeNew, f 116;
#X obj 193 231 s local-update-amt;
#X obj 37 191 s local-update-amt;
#X obj 726 130 r \$0-local-save-new;
#X obj 696 208 s \$0-save-new-upper;
#X obj 427 39 r \$0-save-new-upper;
#N canvas 0 23 450 300 check-amt-of-scenes 0;
#X obj 18 6 inlet;
#X obj 18 91 outlet;
#X text 67 6 check the amt of scenes;
#X obj 18 33 text size presets-\$0;
#X obj 18 63 + 1;
#X connect 0 0 3 0;
#X connect 3 0 4 0;
#X connect 4 0 1 0;
#X restore 696 182 pd check-amt-of-scenes;
#X obj 696 156 t b;
#N canvas 221 266 653 383 create-path 0;
#X obj 101 22 inlet;
#X obj 101 78 route bang, f 12;
#X obj 140 119 r j-path;
#X obj 101 173 makefilename %s/\$2;
#X obj 242 296 outlet;
#X text 173 20 if bang read from arg:2;
#X obj 242 130 t a b;
#X obj 274 192 makefilename %s/%%s;
#X msg 274 215 set \$1;
#X obj 242 250 makefilename;
#X obj 101 147 symbol;
#X obj 274 165 symbol;
#X obj 313 138 r j-path;
#X obj 242 104 symbol;
#X connect 0 0 1 0;
#X connect 1 0 10 0;
#X connect 1 1 13 0;
#X connect 2 0 10 1;
#X connect 3 0 4 0;
#X connect 6 0 9 0;
#X connect 6 1 11 0;
#X connect 7 0 8 0;
#X connect 8 0 9 0;
#X connect 9 0 4 0;
#X connect 10 0 3 0;
#X connect 11 0 7 0;
#X connect 12 0 11 1;
#X connect 13 0 6 0;
#X restore 69 156 pd create-path;
#X obj 77 506 text define presets-\$0;
#X obj 213 443 list prepend write;
#X obj 77 440 list prepend read;
#X obj 77 478 list trim;
#X text 84 355 compose the complete path with arg:2;
#X obj 37 124 t b a;
#X obj 193 170 t b a;
#N canvas 221 266 653 383 create-path 0;
#X obj 101 22 inlet;
#X obj 101 78 route bang, f 12;
#X obj 140 119 r j-path;
#X obj 101 173 makefilename %s/\$2;
#X obj 242 296 outlet;
#X text 173 20 if bang read from arg:2;
#X obj 242 130 t a b;
#X obj 274 192 makefilename %s/%%s;
#X msg 274 215 set \$1;
#X obj 242 250 makefilename;
#X obj 101 147 symbol;
#X obj 274 165 symbol;
#X obj 313 138 r j-path;
#X obj 242 104 symbol;
#X connect 0 0 1 0;
#X connect 1 0 10 0;
#X connect 1 1 13 0;
#X connect 2 0 10 1;
#X connect 3 0 4 0;
#X connect 6 0 9 0;
#X connect 6 1 11 0;
#X connect 7 0 8 0;
#X connect 8 0 9 0;
#X connect 9 0 4 0;
#X connect 10 0 3 0;
#X connect 11 0 7 0;
#X connect 12 0 11 1;
#X connect 13 0 6 0;
#X restore 225 194 pd create-path;
#X connect 0 0 27 0;
#X connect 1 0 4 0;
#X connect 3 0 1 0;
#X connect 3 1 2 1;
#X connect 4 0 2 0;
#X connect 6 0 42 0;
#X connect 9 0 14 0;
#X connect 10 0 13 0;
#X connect 11 0 15 0;
#X connect 12 0 16 0;
#X connect 13 0 11 0;
#X connect 14 0 12 0;
#X connect 15 0 24 0;
#X connect 16 0 26 0;
#X connect 19 0 16 0;
#X connect 19 0 17 0;
#X connect 20 0 19 0;
#X connect 21 0 15 0;
#X connect 21 0 18 0;
#X connect 22 0 21 0;
#X connect 24 0 23 0;
#X connect 24 1 3 0;
#X connect 26 0 25 0;
#X connect 26 1 5 0;
#X connect 27 0 41 0;
#X connect 27 1 42 0;
#X connect 27 2 20 0;
#X connect 27 3 22 0;
#X connect 27 4 34 0;
#X connect 30 0 34 0;
#X connect 32 0 20 0;
#X connect 33 0 31 0;
#X connect 34 0 33 0;
#X connect 35 0 38 0;
#X connect 37 0 39 0;
#X connect 38 0 39 0;
#X connect 39 0 36 0;
#X connect 41 0 29 0;
#X connect 41 1 35 0;
#X connect 42 0 28 0;
#X connect 42 1 43 0;
#X connect 43 0 37 0;
#X restore 21 39 pd messages;
#X text 400 221 Amt of Scenes;
#X obj 144 240 r \$0-update-store;
#X obj 144 270 r \$0-update-recall;
#X text 324 242 Save New Scene;
#X obj 353 82 r local-update-amt;
#X obj 353 105 t b;
#X obj 629 192 text define pre-temp-\$0;
#X text 623 167 temporary buffer;
#X obj 304 238 bng 20 250 50 0 empty empty empty 17 7 0 10 -261682
-1 -1;
#X text 343 262 re-write Scene;
#X obj 176 412 s \$0-local-save-new;
#N canvas 0 23 450 300 check-amt-of-scenes 0;
#X obj 18 6 inlet;
#X obj 18 71 outlet;
#X text 67 6 check the amt of scenes;
#X obj 18 33 text size presets-\$0;
#X connect 0 0 3 0;
#X connect 3 0 1 0;
#X restore 353 168 pd check-amt-of-scenes;
#X obj 503 89 t b b;
#X connect 0 0 16 0;
#X connect 2 0 15 0;
#X connect 3 0 14 0;
#X connect 4 0 7 0;
#X connect 5 0 29 0;
#X connect 18 0 2 0;
#X connect 19 0 3 0;
#X connect 21 0 22 0;
#X connect 22 0 28 0;
#X connect 25 0 27 0;
#X connect 28 0 6 0;
#X connect 29 0 28 0;
#X connect 29 1 8 0;
#X coords 0 -1 1 1 200 130 1 300 200;
