#N canvas 451 32 499 336 12;
#X text 154 6 Arg 1: unique name match the jwy-preset-main;
#X obj 9 42 inlet manual-inlet;
#X text 154 23 Arg 2: number of preset(int);
#X obj 8 230 outlet to-parameter;
#X obj 9 125 t a a;
#X text 166 66 get stored presets from main;
#X text 241 240 plug into main;
#X obj 168 229 list trim;
#X obj 168 206 list append \$2;
#X obj 360 107 r \$1-get-num;
#X obj 360 160 f \$2;
#X obj 360 183 s \$1-r-num;
#X obj 168 134 t b;
#X obj 9 95 f 0;
#X obj 360 130 t b;
#X obj 168 260 s j-preset-\$1-incoming;
#X obj 174 47 r j-preset-\$1-\$2-recall;
#X obj 168 181 f;
#X obj 168 111 r j-preset-\$1-\$2-get-param;
#X connect 1 0 13 0;
#X connect 4 0 3 0;
#X connect 4 1 17 1;
#X connect 7 0 15 0;
#X connect 8 0 7 0;
#X connect 9 0 14 0;
#X connect 10 0 11 0;
#X connect 12 0 17 0;
#X connect 13 0 4 0;
#X connect 14 0 10 0;
#X connect 16 0 13 0;
#X connect 17 0 8 0;
#X connect 18 0 12 0;
