#N canvas 456 66 720 702 12;
#X obj 102 179 tgl 15 0 empty empty empty 17 7 0 10 -262144 -1 -1 0
1;
#X text 229 4 Main control for multi-track recording;
#X obj 40 226 sel 0 1, f 16;
#X msg 94 351 1;
#X obj 94 557 s j-rec-\$1-start;
#X floatatom 103 155 5 0 0 0 - - -;
#X obj 94 504 pack 0 0 s, f 17;
#X msg 40 507 0;
#X obj 333 330 savepanel;
#X obj 101 118 bng 20 250 50 0 empty empty empty 17 7 0 10 -260097
-1 -1;
#X obj 94 303 spigot 0;
#X obj 94 253 t b b;
#X obj 126 277 spigot 1;
#X msg 365 381 1;
#X text 100 139 Take Number;
#X msg 332 144 1;
#X text 118 179 Start Rec;
#X obj 333 411 symbol;
#X text 186 46 Arg 1: Global Name to match the j-record-track;
#X floatatom 191 179 5 0 0 0 - - -;
#X obj 94 328 t b b, f 8;
#X msg 147 356 1;
#X obj 38 377 t b b b;
#X msg 84 401 0;
#X msg 319 484 save space not selected!!!!;
#X obj 319 507 print j-error;
#X obj 162 468 s \$0-local-count;
#X obj 191 77 r \$0-local-count;
#X obj 333 353 t a b b;
#X msg 417 376 0;
#X obj 319 453 t b b;
#X msg 388 453 0;
#X text 191 162 time;
#X obj 162 438 j-timer-seconds;
#X obj 332 112 r j-loadbang;
#X text 121 118 Name Sound File;
#X text 477 121 Use this with:;
#X text 480 146 j-record-track-stereo;
#X text 515 171 or;
#X text 478 191 j-record-track-mono;
#X connect 0 0 2 0;
#X connect 2 0 22 0;
#X connect 2 1 11 0;
#X connect 3 0 6 0;
#X connect 5 0 6 1;
#X connect 6 0 4 0;
#X connect 7 0 4 0;
#X connect 8 0 28 0;
#X connect 9 0 8 0;
#X connect 10 0 20 0;
#X connect 11 0 10 0;
#X connect 11 1 12 0;
#X connect 12 0 30 0;
#X connect 13 0 10 1;
#X connect 15 0 5 0;
#X connect 17 0 6 2;
#X connect 20 0 3 0;
#X connect 20 1 21 0;
#X connect 21 0 33 1;
#X connect 22 0 7 0;
#X connect 22 2 23 0;
#X connect 23 0 33 0;
#X connect 24 0 25 0;
#X connect 27 0 19 0;
#X connect 28 0 17 0;
#X connect 28 1 13 0;
#X connect 28 2 29 0;
#X connect 29 0 12 1;
#X connect 30 0 24 0;
#X connect 30 1 31 0;
#X connect 31 0 0 0;
#X connect 33 0 26 0;
#X connect 34 0 15 0;
#X coords 0 -1 1 1 130 100 1 100 100;
