#N canvas 456 66 720 565 12;
#X obj 102 119 tgl 15 0 empty empty empty 17 7 0 10 -262144 -1 -1 0
1;
#X text 229 4 Main control for multi-track recording;
#X obj 40 226 sel 0 1, f 16;
#X msg 94 351 1;
#X obj 94 557 s j-rec-\$1-start;
#X floatatom 103 155 5 0 0 0 - - -;
#X obj 94 504 pack 0 0 s, f 17;
#X msg 40 507 0;
#X obj 333 330 savepanel;
#X obj 102 178 bng 20 250 50 0 empty empty empty 17 7 0 10 -260097
-1 -1;
#X obj 94 303 spigot 0;
#X obj 94 253 t b b;
#X obj 126 277 spigot 1;
#X msg 365 381 1;
#X text 122 178 SAVE PATH;
#X text 100 137 Take Number;
#X obj 332 112 loadbang;
#X msg 344 134 1;
#X text 118 119 Start Rec;
#X obj 333 411 symbol;
#X text 186 46 Arg 1: Global Name to match the j-record-track;
#X floatatom 191 119 5 0 0 0 - - -;
#X obj 94 328 t b b, f 8;
#X msg 147 356 1;
#N canvas 0 23 450 539 count-math 0;
#X obj 42 13 inlet;
#X obj 42 42 counter;
#X obj 170 13 inlet reset;
#X obj 109 213 % 60;
#X obj 42 133 t a a, f 10;
#X obj 109 236 sel 0;
#X obj 109 283 - 1;
#X obj 170 38 t b b;
#X obj 109 260 counter;
#X obj 141 365 outlet min;
#X obj 109 160 i;
#X obj 109 183 change -1;
#X obj 42 103 % 60;
#X obj 42 65 - 1;
#X obj 42 314 +;
#X obj 42 156 * 0.01;
#X connect 0 0 1 0;
#X connect 1 0 13 0;
#X connect 2 0 7 0;
#X connect 3 0 5 0;
#X connect 4 0 15 0;
#X connect 4 1 10 0;
#X connect 5 0 8 0;
#X connect 6 0 14 1;
#X connect 7 0 1 2;
#X connect 7 1 8 2;
#X connect 8 0 6 0;
#X connect 10 0 11 0;
#X connect 11 0 3 0;
#X connect 12 0 4 0;
#X connect 13 0 12 0;
#X connect 14 0 9 0;
#X connect 15 0 14 0;
#X restore 157 432 pd count-math;
#X obj 38 377 t b b b;
#X msg 84 401 0;
#X msg 319 484 save space not selected!!!!;
#X obj 319 507 print j-error;
#X obj 147 384 metro 1000;
#X obj 157 462 s \$0-local-count;
#X obj 191 77 r \$0-local-count;
#X obj 333 353 t a b b;
#X msg 417 376 0;
#X obj 319 453 t b b;
#X msg 388 453 0;
#X text 191 135 time;
#X connect 0 0 2 0;
#X connect 2 0 25 0;
#X connect 2 1 11 0;
#X connect 3 0 6 0;
#X connect 5 0 6 1;
#X connect 6 0 4 0;
#X connect 7 0 4 0;
#X connect 8 0 32 0;
#X connect 9 0 8 0;
#X connect 10 0 22 0;
#X connect 11 0 10 0;
#X connect 11 1 12 0;
#X connect 12 0 34 0;
#X connect 13 0 10 1;
#X connect 16 0 17 0;
#X connect 17 0 5 0;
#X connect 19 0 6 2;
#X connect 22 0 3 0;
#X connect 22 1 23 0;
#X connect 23 0 29 0;
#X connect 24 0 30 0;
#X connect 25 0 7 0;
#X connect 25 1 24 1;
#X connect 25 2 26 0;
#X connect 26 0 29 0;
#X connect 27 0 28 0;
#X connect 29 0 24 0;
#X connect 31 0 21 0;
#X connect 32 0 19 0;
#X connect 32 1 13 0;
#X connect 32 2 33 0;
#X connect 33 0 12 1;
#X connect 34 0 27 0;
#X connect 34 1 35 0;
#X connect 35 0 0 0;
#X coords 0 -1 1 1 130 100 1 100 100;
