#N canvas 551 144 862 559 12;
#X obj 24 37 s~ l-audi-\$0;
#X obj 24 14 inlet~ audio;
#X obj 91 479 writesf~ 1;
#X text 423 34 Arg 1: Global Name;
#X text 423 58 Arg 2: Track Number;
#X obj 157 29 r j-rec-\$1-start;
#X obj 218 194 t b b;
#X obj 342 352 list prepend open -bytes 3;
#X obj 91 381 r~ l-audi-\$0;
#X obj 342 252 symbol my-song;
#X msg 342 324 \$1-track\$2-take\$3.wav;
#X obj 342 295 pack s \$2 0;
#X obj 342 375 list trim;
#X msg 218 293 start;
#X msg 157 293 stop;
#X obj 157 52 route 0 1;
#X obj 219 115 unpack 0 s, f 31;
#X obj 187 79 t b a;
#X obj 157 115 t b;
#X obj 433 165 symbol;
#X connect 1 0 0 0;
#X connect 5 0 15 0;
#X connect 6 0 13 0;
#X connect 6 1 9 0;
#X connect 7 0 12 0;
#X connect 8 0 2 0;
#X connect 9 0 11 0;
#X connect 10 0 7 0;
#X connect 11 0 10 0;
#X connect 12 0 2 0;
#X connect 13 0 2 0;
#X connect 14 0 2 0;
#X connect 15 0 18 0;
#X connect 15 1 17 0;
#X connect 16 0 11 2;
#X connect 16 1 19 0;
#X connect 17 0 6 0;
#X connect 17 1 16 0;
#X connect 18 0 14 0;
#X connect 19 0 9 1;
