#N canvas 0 23 672 505 12;
#X obj 354 80 t b a, f 11;
#X obj 354 133 /;
#X obj 354 108 pack 60000 0;
#X obj 354 160 * 4;
#X obj 81 288 outlet;
#X obj 81 238 /, f 16;
#X obj 81 213 f;
#X obj 81 179 t b a;
#X obj 354 17 inlet bpm;
#X obj 81 17 inlet bar(note)-division;
#X text 124 72 relative bpm \, outputs ms;
#X connect 0 0 2 0;
#X connect 0 1 2 1;
#X connect 1 0 3 0;
#X connect 2 0 1 0;
#X connect 3 0 6 1;
#X connect 5 0 4 0;
#X connect 6 0 5 0;
#X connect 7 0 6 0;
#X connect 7 1 5 1;
#X connect 8 0 0 0;
#X connect 9 0 7 0;
