#N canvas 551 144 862 559 12;
#X obj 24 37 s~ l-audi-\$0;
#X obj 24 14 inlet~ audio;
#X text 523 34 Arg 1: Global Name;
#X obj 257 29 r j-rec-\$1-start;
#X obj 438 352 list prepend open -bytes 3;
#X obj 191 381 r~ l-audi-\$0;
#X obj 438 202 symbol my-song;
#X obj 438 375 list trim;
#X msg 318 293 start;
#X msg 257 293 stop;
#X obj 257 52 route 0 1;
#X obj 319 115 unpack 0 s, f 31;
#X obj 287 79 t b a;
#X obj 257 115 t b;
#X obj 533 165 symbol;
#X obj 549 234 symbol \$2;
#X text 523 58 Arg 2: Name of Track;
#X obj 318 154 t b b b, f 27;
#X obj 438 295 pack s s 0;
#X obj 191 479 writesf~ 1;
#X msg 438 324 \$1-take\$3-\$2.wav;
#X text 580 93 ***This works only with j-record-main;
#X connect 1 0 0 0;
#X connect 3 0 10 0;
#X connect 4 0 7 0;
#X connect 5 0 19 0;
#X connect 6 0 18 0;
#X connect 7 0 19 0;
#X connect 8 0 19 0;
#X connect 9 0 19 0;
#X connect 10 0 13 0;
#X connect 10 1 12 0;
#X connect 11 0 18 2;
#X connect 11 1 14 0;
#X connect 12 0 17 0;
#X connect 12 1 11 0;
#X connect 13 0 9 0;
#X connect 14 0 6 1;
#X connect 15 0 18 1;
#X connect 17 0 8 0;
#X connect 17 1 6 0;
#X connect 17 2 15 0;
#X connect 18 0 20 0;
#X connect 20 0 4 0;
