#N canvas 47 93 1080 644 12;
#X obj 21 21 inlet;
#X text 66 22 messages to record;
#X obj 411 29 inlet;
#X obj 411 173 s \$0-ticks;
#X text 457 31 messages;
#X obj 640 84 s \$0-stop;
#X obj 840 453 text define \$0-rec;
#X obj 21 391 text set \$0-rec;
#X obj 116 167 r \$0-ticks;
#X obj 21 292 t a b;
#X obj 21 230 list;
#X obj 55 349 f 1e+15;
#X obj 487 134 s \$0-s-start;
#X obj 563 105 s \$0-f-start;
#X obj 411 54 route ticks syncStart freeStart stop bounce, f 55;
#X msg 840 411 clear;
#X obj 21 85 spigot 0;
#X obj 840 377 r \$0-clear;
#N canvas 0 25 693 459 syncStart 0;
#X obj 57 57 r \$0-s-start;
#X msg 57 293 start;
#X obj 321 235 s \$0-clear;
#X obj 153 234 f 1;
#X obj 57 85 v \$0-status, f 13;
#X obj 57 109 sel 0;
#X obj 411 207 v \$0-status, f 13;
#X obj 411 182 f 1;
#X obj 153 272 s \$0-spigot;
#X obj 57 328 s \$0-tick-count;
#X obj 230 221 s \$0-zero;
#X obj 57 151 t b b b b b, f 51;
#X obj 230 190 f 0;
#X connect 0 0 4 0;
#X connect 1 0 9 0;
#X connect 3 0 8 0;
#X connect 4 0 5 0;
#X connect 5 0 11 0;
#X connect 7 0 6 0;
#X connect 11 0 1 0;
#X connect 11 1 3 0;
#X connect 11 2 12 0;
#X connect 11 3 2 0;
#X connect 11 4 7 0;
#X connect 12 0 10 0;
#X restore 302 321 pd syncStart;
#N canvas 188 250 626 472 freeStart 0;
#X obj 57 57 r \$0-f-start;
#X msg 57 323 freeStart;
#X obj 57 358 s \$0-tick-count;
#X obj 321 235 s \$0-clear;
#X obj 153 234 f 1;
#X obj 57 85 v \$0-status, f 13;
#X obj 57 109 sel 0;
#X obj 411 207 v \$0-status, f 13;
#X obj 411 182 f 1;
#X obj 153 272 s \$0-spigot;
#X obj 230 221 s \$0-zero;
#X obj 57 151 t b b b b b, f 51;
#X obj 230 190 f 0;
#X connect 0 0 5 0;
#X connect 1 0 2 0;
#X connect 4 0 9 0;
#X connect 5 0 6 0;
#X connect 6 0 11 0;
#X connect 8 0 7 0;
#X connect 11 0 1 0;
#X connect 11 1 4 0;
#X connect 11 2 12 0;
#X connect 11 3 3 0;
#X connect 11 4 8 0;
#X connect 12 0 10 0;
#X restore 425 323 pd freeStart;
#N canvas 0 25 450 367 stop 0;
#X obj 173 186 f 0;
#X msg 57 244 stop;
#X obj 57 17 r \$0-stop;
#X obj 134 17 r \$0-auto-stop;
#X obj 273 191 v \$0-status, f 13;
#X obj 57 61 v \$0-status;
#X obj 57 85 sel 1;
#X obj 57 131 t b b b, f 31;
#X obj 273 166 f 0;
#X obj 57 278 s \$0-tick-count;
#X obj 173 224 s \$0-spigot;
#X connect 0 0 10 0;
#X connect 1 0 9 0;
#X connect 2 0 5 0;
#X connect 3 0 5 0;
#X connect 5 0 6 0;
#X connect 6 0 7 0;
#X connect 7 0 1 0;
#X connect 7 1 0 0;
#X connect 7 2 8 0;
#X connect 8 0 4 0;
#X restore 541 324 pd stop;
#N canvas 261 196 676 467 bounce 0;
#X obj 49 12 r \$0-bounce;
#X obj 84 214 text tolist \$0-rec;
#X obj 166 299 text set;
#X obj 183 256 unpack 0 s;
#X obj 84 186 t b a;
#X obj 49 64 v \$0-status, f 13;
#X obj 49 100 sel 0;
#X text 212 62 only bounce when recording is done;
#X obj 84 136 list store;
#X obj 49 36 t b a, f 15;
#X connect 0 0 9 0;
#X connect 1 0 2 0;
#X connect 3 0 2 1;
#X connect 3 1 2 3;
#X connect 4 0 1 0;
#X connect 4 1 3 0;
#X connect 5 0 6 0;
#X connect 6 0 8 0;
#X connect 8 0 4 0;
#X connect 9 0 5 0;
#X connect 9 1 8 1;
#X restore 642 325 pd bounce;
#X obj 232 271 s \$0-auto-stop;
#X obj 116 206 j-count-ticks 500;
#X obj 716 95 s \$0-bounce;
#X obj 262 91 v \$0-status;
#X obj 74 51 r \$0-spigot;
#X obj 232 172 r \$0-tick-count;
#X obj 21 254 list prepend 0;
#X obj 35 168 r \$0-zero;
#X connect 0 0 16 0;
#X connect 2 0 14 0;
#X connect 8 0 23 0;
#X connect 9 0 7 0;
#X connect 9 1 11 0;
#X connect 10 0 28 0;
#X connect 11 0 7 1;
#X connect 14 0 3 0;
#X connect 14 1 12 0;
#X connect 14 2 13 0;
#X connect 14 3 5 0;
#X connect 14 4 24 0;
#X connect 15 0 6 0;
#X connect 16 0 10 0;
#X connect 17 0 15 0;
#X connect 23 0 28 1;
#X connect 23 1 22 0;
#X connect 26 0 16 1;
#X connect 27 0 23 1;
#X connect 28 0 9 0;
#X connect 29 0 28 1;
