#N canvas 377 204 776 570 12;
#X obj 378 10 inlet messages;
#X text 192 45 Arg1: Sample Bank Name;
#N canvas 0 23 450 300 messages 0;
#X obj 37 37 inlet;
#X obj 38 206 s \$0-pitch;
#X obj 72 174 s \$0-chunk-size;
#X obj 127 148 s \$0-dsp;
#X obj 199 151 s \$0-direction;
#X obj 199 96 sel 0 1;
#X msg 199 119 1;
#X msg 237 119 -1;
#X obj 292 122 s \$0-ramptime;
#X obj 292 94 max 0;
#X obj 125 94 sel 0 1;
#X msg 125 118 0;
#X msg 165 117 1;
#X obj 60 103 clip 0 1;
#X obj 36 65 route pitch size on backwards ramptime start;
#X obj 316 183 s \$0-start-point;
#X obj 317 157 clip 0 1;
#X connect 0 0 14 0;
#X connect 5 0 6 0;
#X connect 5 1 7 0;
#X connect 6 0 4 0;
#X connect 7 0 4 0;
#X connect 9 0 8 0;
#X connect 10 0 11 0;
#X connect 10 1 12 0;
#X connect 11 0 3 0;
#X connect 12 0 3 0;
#X connect 13 0 2 0;
#X connect 14 0 1 0;
#X connect 14 1 13 0;
#X connect 14 2 10 0;
#X connect 14 3 5 0;
#X connect 14 4 9 0;
#X connect 14 5 16 0;
#X connect 16 0 15 0;
#X restore 378 33 pd messages;
#X text 192 65 Arg2:;
#X obj 11 36 unpack 0 0;
#X obj 11 13 inlet sample-bank-number-and-velcity-pair;
#X obj 11 89 swap 0 0, f 10;
#N canvas 346 126 1094 739 load 0;
#X obj 76 16 inlet;
#X obj 84 272 / 261.626;
#X obj 84 294 / 2;
#X obj 84 249 mtof;
#X obj 46 408 f;
#X obj 84 323 t b a;
#X obj 46 366 r \$0-duration;
#X obj 46 523 /;
#X msg 46 501 1000 \$1;
#X obj 105 189 t b a;
#X obj 302 452 s \$0-duration;
#X obj 334 392 s \$0-duration-s;
#X obj 528 333 s \$0-2-tabread;
#X obj 46 564 outlet;
#X obj 302 417 /;
#X obj 473 406 samplerate~;
#X obj 473 376 loadbang;
#X obj 473 437 * 0.001;
#X obj 528 277 list prepend set;
#X obj 528 303 route list;
#X obj 302 366 t f f;
#X obj 144 441 t b f;
#X obj 144 415 r \$0-chunk-size;
#X obj 105 167 r \$0-pitch;
#X obj 528 219 pack s 0;
#X obj 528 155 t b a, f 11;
#X obj 528 188 symbol \$1;
#X obj 302 282 v;
#X obj 334 223 pack s 0;
#X obj 334 159 t b a, f 11;
#X obj 334 192 symbol \$1;
#X msg 334 249 symbol j-samp-length-\$1-\$2;
#X obj 302 128 t b a;
#X obj 46 471 * 1, f 19;
#X obj 46 430 / 1, f 9;
#X msg 528 245 j-samp-\$1-\$2;
#X obj 84 223 + 0, f 8;
#X obj 76 100 t b f f, f 65;
#X obj 84 141 f 72;
#X connect 0 0 37 0;
#X connect 1 0 2 0;
#X connect 2 0 5 0;
#X connect 3 0 1 0;
#X connect 4 0 34 0;
#X connect 5 0 4 0;
#X connect 5 1 34 1;
#X connect 6 0 4 0;
#X connect 7 0 13 0;
#X connect 8 0 7 0;
#X connect 9 0 36 0;
#X connect 9 1 36 1;
#X connect 14 0 10 0;
#X connect 15 0 17 0;
#X connect 16 0 15 0;
#X connect 17 0 14 1;
#X connect 18 0 19 0;
#X connect 19 0 12 0;
#X connect 20 0 14 0;
#X connect 20 1 11 0;
#X connect 21 0 4 0;
#X connect 21 1 33 1;
#X connect 22 0 21 0;
#X connect 23 0 9 0;
#X connect 24 0 35 0;
#X connect 25 0 26 0;
#X connect 25 1 24 1;
#X connect 26 0 24 0;
#X connect 27 0 20 0;
#X connect 28 0 31 0;
#X connect 29 0 30 0;
#X connect 29 1 28 1;
#X connect 30 0 28 0;
#X connect 31 0 27 1;
#X connect 32 0 27 0;
#X connect 32 1 29 0;
#X connect 33 0 8 0;
#X connect 34 0 33 0;
#X connect 35 0 18 0;
#X connect 36 0 3 0;
#X connect 37 0 38 0;
#X connect 37 1 32 0;
#X connect 37 2 25 0;
#X connect 38 0 36 0;
#X restore 78 119 pd load;
#X obj 539 184 r \$0-dsp;
#X obj 539 207 switch~;
#X obj 78 61 t f f;
#X obj 110 91 s \$0-pass-the-velocity;
#X obj 11 141 sel 0, f 25;
#N canvas 151 78 686 765 left 0;
#X obj 111 561 r \$0-duration-s;
#X obj 44 616 *~, f 10;
#X obj 44 681 tabread4~;
#X obj 91 643 r \$0-2-tabread;
#X obj 69 393 s~ \$0-phazzee;
#X obj 44 774 *~, f 23;
#X obj 43 364 phasor~, f 26;
#X obj 43 284 vline~;
#X obj 111 591 - 2;
#X obj 44 647 +~ 1;
#X obj 43 337 *~ 1, f 19;
#N canvas 4 50 450 300 size-change 0;
#X msg 158 129 stop;
#X obj 139 158 del 8;
#X obj 139 106 t b b b a, f 21;
#X obj 139 186 f, f 9;
#X obj 234 158 s \$0-duck;
#X obj 139 207 outlet;
#X obj 139 40 r \$0-chunk-size;
#X connect 0 0 1 0;
#X connect 1 0 3 0;
#X connect 2 0 1 0;
#X connect 2 1 0 0;
#X connect 2 2 4 0;
#X connect 2 3 3 1;
#X connect 3 0 5 0;
#X connect 6 0 2 0;
#X restore 111 421 pd size-change;
#N canvas 4 50 450 300 start-change 0;
#X msg 158 99 stop;
#X obj 139 128 del 8;
#X obj 139 76 t b b b a, f 21;
#X obj 139 156 f, f 9;
#X obj 234 128 s \$0-duck;
#X obj 139 177 outlet;
#X obj 139 40 r \$0-start-point;
#X connect 0 0 1 0;
#X connect 1 0 3 0;
#X connect 2 0 1 0;
#X connect 2 1 0 0;
#X connect 2 2 4 0;
#X connect 2 3 3 1;
#X connect 3 0 5 0;
#X connect 6 0 2 0;
#X restore 132 455 pd start-change;
#N canvas 365 91 369 523 env-phase 0;
#X obj 103 173 r~ \$0-phazzee;
#X obj 103 362 outlet~;
#X obj 103 211 -~ 0.5;
#X obj 103 235 *~ 0.5;
#X obj 103 263 cos~;
#X obj 103 315 clip~ 0 1;
#X obj 103 289 *~ 54;
#X connect 0 0 2 0;
#X connect 2 0 3 0;
#X connect 3 0 4 0;
#X connect 4 0 6 0;
#X connect 5 0 1 0;
#X connect 6 0 5 0;
#X restore 202 746 pd env-phase;
#X obj 44 735 *~, f 16;
#X obj 56 534 s~ \$0-phazzee-clck;
#N canvas 4 50 450 300 avoid-clks-og-sample 0;
#X obj 94 91 -~ 0.5;
#X obj 94 115 *~ 0.5;
#X obj 94 138 cos~;
#X obj 94 180 clip~ 0 1;
#X text 55 43 avoids clicks in original sample;
#X obj 94 67 r~ \$0-phazzee-clck;
#X obj 94 201 outlet~;
#X obj 94 159 *~ 54;
#X connect 0 0 1 0;
#X connect 1 0 2 0;
#X connect 2 0 7 0;
#X connect 3 0 6 0;
#X connect 5 0 0 0;
#X connect 7 0 3 0;
#X restore 153 705 pd avoid-clks-og-sample;
#X obj 44 506 wrap~;
#X obj 44 825 hip~ 4;
#X msg 222 225 0;
#X obj 44 863 outlet~;
#X obj 43 252 pack 0 0;
#X obj 101 291 r \$0-direction;
#X obj 96 223 r \$0-ramptime;
#X obj 43 43 inlet;
#X obj 44 797 *~, f 50;
#X obj 43 144 t f b b, f 32;
#X obj 318 122 t b;
#X obj 318 237 t a;
#X obj 391 715 vline~;
#X msg 264 185 1 8;
#X msg 318 185 0 8;
#X obj 44 446 *~ 1, f 10;
#X obj 44 479 +~ 0, f 13;
#X obj 318 79 r \$0-left-stop;
#X obj 391 738 pow~ 2;
#X connect 0 0 8 0;
#X connect 1 0 9 0;
#X connect 2 0 14 0;
#X connect 3 0 2 0;
#X connect 5 0 25 0;
#X connect 6 0 4 0;
#X connect 6 0 32 0;
#X connect 7 0 10 0;
#X connect 8 0 1 1;
#X connect 9 0 2 0;
#X connect 10 0 6 0;
#X connect 11 0 32 1;
#X connect 12 0 33 1;
#X connect 13 0 5 1;
#X connect 14 0 5 0;
#X connect 16 0 14 1;
#X connect 17 0 1 0;
#X connect 17 0 15 0;
#X connect 18 0 20 0;
#X connect 19 0 6 1;
#X connect 21 0 7 0;
#X connect 22 0 10 1;
#X connect 23 0 21 1;
#X connect 24 0 26 0;
#X connect 25 0 18 0;
#X connect 26 0 21 0;
#X connect 26 1 19 0;
#X connect 26 2 30 0;
#X connect 27 0 31 0;
#X connect 28 0 29 0;
#X connect 29 0 35 0;
#X connect 30 0 28 0;
#X connect 31 0 28 0;
#X connect 32 0 33 0;
#X connect 33 0 17 0;
#X connect 34 0 27 0;
#X connect 35 0 25 1;
#X restore 183 390 pd left;
#X obj 183 204 f;
#X obj 327 199 + 1;
#X obj 327 231 == 1;
#X obj 290 198 f 0;
#X obj 183 257 list prepend;
#X obj 183 308 route 0 1, f 48;
#X obj 183 331 t a b;
#X obj 349 335 t a b;
#X obj 183 469 outlet~;
#X obj 464 445 outlet vel;
#X obj 464 419 r \$0-pass-the-velocity;
#X text 559 447 use this with an envelope;
#X obj 183 280 spigot 0, f 32;
#X obj 183 170 t b b b, f 31;
#X msg 402 221 1;
#X obj 11 194 t b b b;
#X msg 107 199 0;
#N canvas 151 78 686 765 right 0;
#X obj 111 561 r \$0-duration-s;
#X obj 44 616 *~, f 10;
#X obj 44 681 tabread4~;
#X obj 91 643 r \$0-2-tabread;
#X obj 69 393 s~ \$0-phazzee;
#X obj 44 774 *~, f 23;
#X obj 43 364 phasor~, f 26;
#X obj 43 284 vline~;
#X obj 111 591 - 2;
#X obj 44 647 +~ 1;
#X obj 43 337 *~ 1, f 19;
#N canvas 4 50 450 300 size-change 0;
#X msg 158 129 stop;
#X obj 139 158 del 8;
#X obj 139 106 t b b b a, f 21;
#X obj 139 186 f, f 9;
#X obj 234 158 s \$0-duck;
#X obj 139 207 outlet;
#X obj 139 40 r \$0-chunk-size;
#X connect 0 0 1 0;
#X connect 1 0 3 0;
#X connect 2 0 1 0;
#X connect 2 1 0 0;
#X connect 2 2 4 0;
#X connect 2 3 3 1;
#X connect 3 0 5 0;
#X connect 6 0 2 0;
#X restore 111 421 pd size-change;
#N canvas 4 50 450 300 start-change 0;
#X msg 158 99 stop;
#X obj 139 128 del 8;
#X obj 139 76 t b b b a, f 21;
#X obj 139 156 f, f 9;
#X obj 234 128 s \$0-duck;
#X obj 139 177 outlet;
#X obj 139 40 r \$0-start-point;
#X connect 0 0 1 0;
#X connect 1 0 3 0;
#X connect 2 0 1 0;
#X connect 2 1 0 0;
#X connect 2 2 4 0;
#X connect 2 3 3 1;
#X connect 3 0 5 0;
#X connect 6 0 2 0;
#X restore 132 455 pd start-change;
#N canvas 365 91 369 523 env-phase 0;
#X obj 103 173 r~ \$0-phazzee;
#X obj 103 362 outlet~;
#X obj 103 211 -~ 0.5;
#X obj 103 235 *~ 0.5;
#X obj 103 263 cos~;
#X obj 103 315 clip~ 0 1;
#X obj 103 289 *~ 54;
#X connect 0 0 2 0;
#X connect 2 0 3 0;
#X connect 3 0 4 0;
#X connect 4 0 6 0;
#X connect 5 0 1 0;
#X connect 6 0 5 0;
#X restore 202 746 pd env-phase;
#X obj 44 735 *~, f 16;
#X obj 56 534 s~ \$0-phazzee-clck;
#N canvas 4 50 450 300 avoid-clks-og-sample 0;
#X obj 94 91 -~ 0.5;
#X obj 94 115 *~ 0.5;
#X obj 94 138 cos~;
#X obj 94 180 clip~ 0 1;
#X text 55 43 avoids clicks in original sample;
#X obj 94 67 r~ \$0-phazzee-clck;
#X obj 94 201 outlet~;
#X obj 94 159 *~ 54;
#X connect 0 0 1 0;
#X connect 1 0 2 0;
#X connect 2 0 7 0;
#X connect 3 0 6 0;
#X connect 5 0 0 0;
#X connect 7 0 3 0;
#X restore 153 705 pd avoid-clks-og-sample;
#X obj 44 506 wrap~;
#X obj 44 825 hip~ 4;
#X msg 222 225 0;
#X obj 44 863 outlet~;
#X obj 43 252 pack 0 0;
#X obj 101 291 r \$0-direction;
#X obj 96 223 r \$0-ramptime;
#X obj 43 43 inlet;
#X obj 44 797 *~, f 50;
#X obj 43 144 t f b b, f 32;
#X obj 318 122 t b;
#X obj 318 237 t a;
#X obj 391 715 vline~;
#X msg 264 185 1 8;
#X msg 318 185 0 8;
#X obj 44 446 *~ 1, f 10;
#X obj 44 479 +~ 0, f 13;
#X obj 318 79 r \$0-right-stop;
#X obj 391 738 pow~ 2;
#X connect 0 0 8 0;
#X connect 1 0 9 0;
#X connect 2 0 14 0;
#X connect 3 0 2 0;
#X connect 5 0 25 0;
#X connect 6 0 4 0;
#X connect 6 0 32 0;
#X connect 7 0 10 0;
#X connect 8 0 1 1;
#X connect 9 0 2 0;
#X connect 10 0 6 0;
#X connect 11 0 32 1;
#X connect 12 0 33 1;
#X connect 13 0 5 1;
#X connect 14 0 5 0;
#X connect 16 0 14 1;
#X connect 17 0 1 0;
#X connect 17 0 15 0;
#X connect 18 0 20 0;
#X connect 19 0 6 1;
#X connect 21 0 7 0;
#X connect 22 0 10 1;
#X connect 23 0 21 1;
#X connect 24 0 26 0;
#X connect 25 0 18 0;
#X connect 26 0 21 0;
#X connect 26 1 19 0;
#X connect 26 2 30 0;
#X connect 27 0 31 0;
#X connect 28 0 29 0;
#X connect 29 0 35 0;
#X connect 30 0 28 0;
#X connect 31 0 28 0;
#X connect 32 0 33 0;
#X connect 33 0 17 0;
#X connect 34 0 27 0;
#X connect 35 0 25 1;
#X restore 349 394 pd right;
#X obj 215 361 s \$0-right-stop;
#X obj 381 364 s \$0-left-stop;
#X obj 11 251 s \$0-right-stop;
#X obj 34 226 s \$0-left-stop;
#X connect 0 0 2 0;
#X connect 4 0 6 0;
#X connect 4 1 10 0;
#X connect 5 0 4 0;
#X connect 6 0 12 0;
#X connect 6 1 7 0;
#X connect 7 0 14 0;
#X connect 8 0 9 0;
#X connect 10 0 6 1;
#X connect 10 1 11 0;
#X connect 12 0 29 0;
#X connect 12 1 27 0;
#X connect 13 0 22 0;
#X connect 14 0 18 0;
#X connect 15 0 16 0;
#X connect 16 0 17 1;
#X connect 16 0 18 1;
#X connect 17 0 15 0;
#X connect 18 0 26 0;
#X connect 19 0 20 0;
#X connect 19 1 21 0;
#X connect 20 0 13 0;
#X connect 20 1 32 0;
#X connect 21 0 31 0;
#X connect 21 1 33 0;
#X connect 24 0 23 0;
#X connect 26 0 19 0;
#X connect 27 0 14 0;
#X connect 27 1 17 0;
#X connect 27 2 28 0;
#X connect 28 0 26 1;
#X connect 29 0 34 0;
#X connect 29 1 35 0;
#X connect 29 2 30 0;
#X connect 30 0 26 1;
#X connect 31 0 22 0;
