#N canvas 891 275 642 435 12;
#X obj 206 316 j-sample-mono-voice WOW, f 28;
#X obj 26 316 j-sample-mono-voice WOW;
#X obj 323 69 inlet messages;
#X obj 323 92 s \$0-mess;
#X obj 278 273 r \$0-mess;
#X obj 22 9 inlet;
#X obj 26 262 spigot 0;
#X obj 140 261 spigot 0;
#X obj 259 97 + 1;
#X obj 259 129 == 1;
#X obj 222 96 f 0;
#X obj 127 384 outlet~;
#X obj 259 152 sel 0 1, f 22;
#X obj 259 175 t b b;
#X msg 291 239 stop bang;
#X obj 161 202 t a a;
#X obj 193 232 ==;
#X obj 330 177 t b b;
#X msg 368 236 stop bang;
#X obj 22 32 t a a b, f 29;
#X obj 259 198 f 0;
#X obj 330 200 f 1;
#X connect 0 0 11 0;
#X connect 1 0 11 0;
#X connect 2 0 3 0;
#X connect 4 0 1 1;
#X connect 4 0 0 1;
#X connect 5 0 19 0;
#X connect 6 0 1 0;
#X connect 7 0 0 0;
#X connect 8 0 9 0;
#X connect 9 0 10 1;
#X connect 9 0 12 0;
#X connect 10 0 8 0;
#X connect 12 0 13 0;
#X connect 12 1 17 0;
#X connect 13 0 20 0;
#X connect 13 1 14 0;
#X connect 14 0 1 1;
#X connect 15 0 6 1;
#X connect 15 1 16 0;
#X connect 16 0 7 1;
#X connect 17 0 21 0;
#X connect 17 1 18 0;
#X connect 18 0 0 1;
#X connect 19 0 6 0;
#X connect 19 1 7 0;
#X connect 19 2 10 0;
#X connect 20 0 15 0;
#X connect 21 0 15 0;
