#N canvas 377 204 776 570 12;
#X obj 378 10 inlet messages;
#X text 192 45 Arg1: Sample Bank Name;
#X text 192 65 Arg2:;
#X obj 11 36 unpack 0 0;
#X obj 11 13 inlet sample-bank-number-and-velcity-pair;
#X obj 11 89 swap 0 0, f 10;
#N canvas 346 126 1094 739 load 0;
#X obj 76 16 inlet;
#X obj 84 272 / 261.626;
#X obj 84 294 / 2;
#X obj 84 249 mtof;
#X obj 46 408 f;
#X obj 84 323 t b a;
#X obj 46 366 r \$0-duration;
#X obj 46 523 /;
#X msg 46 501 1000 \$1;
#X obj 105 189 t b a;
#X obj 302 452 s \$0-duration;
#X obj 334 392 s \$0-duration-s;
#X obj 528 333 s \$0-2-tabread;
#X obj 46 564 outlet;
#X obj 302 417 /;
#X obj 473 406 samplerate~;
#X obj 473 376 loadbang;
#X obj 473 437 * 0.001;
#X obj 528 277 list prepend set;
#X obj 528 303 route list;
#X obj 302 366 t f f;
#X obj 144 441 t b f;
#X obj 144 415 r \$0-chunk-size;
#X obj 105 167 r \$0-pitch;
#X obj 528 219 pack s 0;
#X obj 528 155 t b a, f 11;
#X obj 528 188 symbol \$1;
#X obj 302 282 v;
#X obj 334 223 pack s 0;
#X obj 334 159 t b a, f 11;
#X obj 334 192 symbol \$1;
#X msg 334 249 symbol j-samp-length-\$1-\$2;
#X obj 302 128 t b a;
#X obj 46 471 * 1, f 19;
#X obj 46 430 / 1, f 9;
#X msg 528 245 j-samp-\$1-\$2;
#X obj 84 223 + 0, f 8;
#X obj 76 100 t b f f, f 65;
#X obj 84 141 f 72;
#X connect 0 0 37 0;
#X connect 1 0 2 0;
#X connect 2 0 5 0;
#X connect 3 0 1 0;
#X connect 4 0 34 0;
#X connect 5 0 4 0;
#X connect 5 1 34 1;
#X connect 6 0 4 0;
#X connect 7 0 13 0;
#X connect 8 0 7 0;
#X connect 9 0 36 0;
#X connect 9 1 36 1;
#X connect 14 0 10 0;
#X connect 15 0 17 0;
#X connect 16 0 15 0;
#X connect 17 0 14 1;
#X connect 18 0 19 0;
#X connect 19 0 12 0;
#X connect 20 0 14 0;
#X connect 20 1 11 0;
#X connect 21 0 4 0;
#X connect 21 1 33 1;
#X connect 22 0 21 0;
#X connect 23 0 9 0;
#X connect 24 0 35 0;
#X connect 25 0 26 0;
#X connect 25 1 24 1;
#X connect 26 0 24 0;
#X connect 27 0 20 0;
#X connect 28 0 31 0;
#X connect 29 0 30 0;
#X connect 29 1 28 1;
#X connect 30 0 28 0;
#X connect 31 0 27 1;
#X connect 32 0 27 0;
#X connect 32 1 29 0;
#X connect 33 0 8 0;
#X connect 34 0 33 0;
#X connect 35 0 18 0;
#X connect 36 0 3 0;
#X connect 37 0 38 0;
#X connect 37 1 32 0;
#X connect 37 2 25 0;
#X connect 38 0 36 0;
#X restore 78 119 pd load;
#X obj 539 184 r \$0-dsp;
#X obj 539 207 switch~;
#X obj 78 61 t f f;
#X obj 110 91 s \$0-pass-the-velocity;
#X obj 11 141 sel 0, f 25;
#X obj 183 204 f;
#X obj 327 199 + 1;
#X obj 327 231 == 1;
#X obj 290 198 f 0;
#X obj 183 257 list prepend;
#X obj 183 308 route 0 1, f 48;
#X obj 183 331 t a b;
#X obj 349 335 t a b;
#X obj 183 469 outlet~;
#X obj 464 445 outlet vel;
#X obj 464 419 r \$0-pass-the-velocity;
#X text 559 447 use this with an envelope;
#X obj 183 280 spigot 0, f 32;
#X obj 183 170 t b b b, f 31;
#X msg 402 221 1;
#X obj 11 194 t b b b;
#X msg 107 199 0;
#X obj 215 361 s \$0-right-stop;
#X obj 381 364 s \$0-left-stop;
#X obj 11 311 s \$0-right-stop;
#X obj 34 256 s \$0-left-stop;
#X obj 183 410 j-sample-basic;
#X obj 349 414 j-sample-basic;
#X obj 217 385 r \$0-left-stop;
#X obj 365 387 r \$0-right-stop;
#X msg 34 220 stop;
#X msg 11 287 stop;
#X obj 444 332 r \$0-messages;
#X obj 378 33 s \$0-messages;
#X connect 0 0 40 0;
#X connect 3 0 5 0;
#X connect 3 1 9 0;
#X connect 4 0 3 0;
#X connect 5 0 11 0;
#X connect 5 1 6 0;
#X connect 6 0 12 0;
#X connect 7 0 8 0;
#X connect 9 0 5 1;
#X connect 9 1 10 0;
#X connect 11 0 27 0;
#X connect 11 1 25 0;
#X connect 12 0 16 0;
#X connect 13 0 14 0;
#X connect 14 0 15 1;
#X connect 14 0 16 1;
#X connect 15 0 13 0;
#X connect 16 0 24 0;
#X connect 17 0 18 0;
#X connect 17 1 19 0;
#X connect 18 0 33 0;
#X connect 18 1 29 0;
#X connect 19 0 34 0;
#X connect 19 1 30 0;
#X connect 22 0 21 0;
#X connect 24 0 17 0;
#X connect 25 0 12 0;
#X connect 25 1 15 0;
#X connect 25 2 26 0;
#X connect 26 0 24 1;
#X connect 27 0 38 0;
#X connect 27 1 37 0;
#X connect 27 2 28 0;
#X connect 28 0 24 1;
#X connect 33 0 20 0;
#X connect 34 0 20 0;
#X connect 35 0 33 1;
#X connect 36 0 34 1;
#X connect 37 0 32 0;
#X connect 38 0 31 0;
#X connect 39 0 33 1;
#X connect 39 0 34 1;
