#N canvas 255 67 1123 811 12;
#X obj 111 511 r \$0-duration-s;
#X obj 44 566 *~, f 10;
#X obj 44 681 tabread4~;
#X obj 71 653 r \$0-2-tabread;
#X obj 44 764 *~, f 23;
#X obj 43 364 phasor~, f 26;
#X obj 111 541 - 2;
#X obj 44 597 +~ 1;
#X obj 43 287 *~ 1, f 8;
#N canvas 4 50 450 300 size-change 0;
#X obj 139 40 r \$0-chunk-size;
#X obj 139 134 samphold~;
#X obj 139 207 outlet~;
#X obj 139 93 sig~ 1;
#X obj 199 99 r~ \$0-phase;
#X connect 0 0 3 0;
#X connect 1 0 2 0;
#X connect 3 0 1 0;
#X connect 4 0 1 1;
#X restore 111 421 pd size-change;
#N canvas 4 50 450 300 start-change 0;
#X obj 139 40 r \$0-start-point;
#X obj 139 134 samphold~;
#X obj 139 157 outlet~;
#X obj 139 93 sig~ 0;
#X obj 199 99 r~ \$0-phase;
#X connect 0 0 3 0;
#X connect 1 0 2 0;
#X connect 3 0 1 0;
#X connect 4 0 1 1;
#X restore 132 455 pd start-change;
#N canvas 365 91 369 523 env-phase 0;
#X obj 103 362 outlet~;
#X obj 103 211 -~ 0.5;
#X obj 103 235 *~ 0.5;
#X obj 103 263 cos~;
#X obj 103 315 clip~ 0 1;
#X obj 103 288 *~ 100;
#X obj 103 173 r~ \$0-phase;
#X connect 1 0 2 0;
#X connect 2 0 3 0;
#X connect 3 0 5 0;
#X connect 4 0 0 0;
#X connect 5 0 4 0;
#X connect 6 0 1 0;
#X restore 202 736 pd env-phase;
#X obj 44 735 *~, f 16;
#N canvas 4 50 450 498 avoid-clks-og-sample 0;
#X obj 94 171 -~ 0.5;
#X obj 94 195 *~ 0.5;
#X obj 94 218 cos~;
#X obj 94 260 clip~ 0 1;
#X text 55 43 avoids clicks in original sample;
#X obj 94 281 outlet~;
#X obj 94 239 *~ 100;
#X obj 112 96 r \$0-duration-s;
#X obj 94 128 /~;
#X obj 94 67 r~ \$0-phase-sample;
#X connect 0 0 1 0;
#X connect 1 0 2 0;
#X connect 2 0 6 0;
#X connect 3 0 5 0;
#X connect 6 0 3 0;
#X connect 7 0 8 1;
#X connect 8 0 0 0;
#X connect 9 0 8 0;
#X restore 153 705 pd avoid-clks-og-sample;
#X obj 44 506 wrap~;
#X obj 44 825 hip~ 4;
#X msg 222 225 0;
#X obj 44 863 outlet~;
#X obj 96 260 r \$0-direction;
#X obj 91 27 inlet;
#X obj 44 797 *~, f 50;
#X obj 428 142 t b;
#X obj 428 237 t a;
#X obj 391 715 vline~;
#X msg 390 185 1 8;
#X msg 428 185 0 8;
#X obj 391 738 pow~ 2;
#X obj 44 446 *~, f 10;
#X obj 44 479 +~, f 13;
#X obj 428 39 inlet messages;
#N canvas 0 23 617 300 messages 0;
#X obj 37 37 inlet;
#X obj 38 206 s \$0-pitch;
#X obj 72 174 s \$0-chunk-size;
#X obj 127 148 s \$0-dsp;
#X obj 199 151 s \$0-direction;
#X obj 199 96 sel 0 1;
#X msg 199 119 1;
#X msg 237 119 -1;
#X obj 292 122 s \$0-ramptime;
#X obj 292 94 max 0;
#X obj 125 94 sel 0 1;
#X msg 125 118 0;
#X msg 165 117 1;
#X obj 60 103 clip 0 1;
#X obj 316 183 s \$0-start-point;
#X obj 317 157 clip 0 1;
#X obj 36 65 route pitch size on backwards ramptime start stop, f
61;
#X obj 399 100 s \$0-stop;
#X connect 0 0 16 0;
#X connect 5 0 6 0;
#X connect 5 1 7 0;
#X connect 6 0 4 0;
#X connect 7 0 4 0;
#X connect 9 0 8 0;
#X connect 10 0 11 0;
#X connect 10 1 12 0;
#X connect 11 0 3 0;
#X connect 12 0 3 0;
#X connect 13 0 2 0;
#X connect 15 0 14 0;
#X connect 16 0 1 0;
#X connect 16 1 13 0;
#X connect 16 2 10 0;
#X connect 16 3 5 0;
#X connect 16 4 9 0;
#X connect 16 5 15 0;
#X connect 16 6 17 0;
#X restore 428 65 pd messages;
#X obj 428 117 r \$0-stop;
#N canvas 346 126 1094 739 load 0;
#X obj 76 16 inlet;
#X obj 84 272 / 261.626;
#X obj 84 294 / 2;
#X obj 84 249 mtof;
#X obj 46 408 f;
#X obj 84 323 t b a;
#X obj 46 366 r \$0-duration;
#X obj 46 523 /;
#X msg 46 501 1000 \$1;
#X obj 302 452 s \$0-duration;
#X obj 334 392 s \$0-duration-s;
#X obj 528 333 s \$0-2-tabread;
#X obj 46 564 outlet;
#X obj 302 417 /;
#X obj 473 406 samplerate~;
#X obj 473 376 loadbang;
#X obj 473 437 * 0.001;
#X obj 528 277 list prepend set;
#X obj 528 303 route list;
#X obj 302 366 t f f;
#X obj 144 415 r \$0-chunk-size;
#X obj 137 168 r \$0-pitch;
#X obj 528 219 pack s 0;
#X obj 528 155 t b a, f 11;
#X obj 528 188 symbol \$1;
#X obj 302 282 v;
#X obj 334 223 pack s 0;
#X obj 334 159 t b a, f 11;
#X obj 334 192 symbol \$1;
#X msg 334 249 symbol j-samp-length-\$1-\$2;
#X obj 302 128 t b a;
#X obj 46 471 * 1, f 19;
#X obj 46 430 / 1, f 9;
#X msg 528 245 j-samp-\$1-\$2;
#X obj 84 223 + 0, f 8;
#X obj 76 100 t b f f, f 65;
#X obj 84 141 f 72;
#X connect 0 0 35 0;
#X connect 1 0 2 0;
#X connect 2 0 5 0;
#X connect 3 0 1 0;
#X connect 4 0 32 0;
#X connect 5 0 4 0;
#X connect 5 1 32 1;
#X connect 6 0 4 0;
#X connect 7 0 12 0;
#X connect 8 0 7 0;
#X connect 13 0 9 0;
#X connect 14 0 16 0;
#X connect 15 0 14 0;
#X connect 16 0 13 1;
#X connect 17 0 18 0;
#X connect 18 0 11 0;
#X connect 19 0 13 0;
#X connect 19 1 10 0;
#X connect 20 0 31 1;
#X connect 21 0 34 1;
#X connect 22 0 33 0;
#X connect 23 0 24 0;
#X connect 23 1 22 1;
#X connect 24 0 22 0;
#X connect 25 0 19 0;
#X connect 26 0 29 0;
#X connect 27 0 28 0;
#X connect 27 1 26 1;
#X connect 28 0 26 0;
#X connect 29 0 25 1;
#X connect 30 0 25 0;
#X connect 30 1 27 0;
#X connect 31 0 8 0;
#X connect 32 0 31 0;
#X connect 33 0 17 0;
#X connect 34 0 3 0;
#X connect 35 0 36 0;
#X connect 35 1 30 0;
#X connect 35 2 23 0;
#X connect 36 0 34 0;
#X restore 123 137 pd load;
#X obj 578 213 r \$0-dsp;
#X obj 578 236 switch~;
#X obj 58 623 s~ \$0-phase-sample;
#X obj 69 393 s~ \$0-phase;
#X obj 43 324 samphold~, f 14;
#X obj 137 293 r~ \$0-phase;
#X obj 43 241 sig~;
#X obj 123 161 t f f, f 11;
#X obj 8 184 f;
#X msg 8 208 set \$1;
#X obj 91 51 t b b b a, f 32;
#X connect 0 0 6 0;
#X connect 1 0 7 0;
#X connect 2 0 12 0;
#X connect 3 0 2 0;
#X connect 4 0 20 0;
#X connect 5 0 27 0;
#X connect 5 0 36 0;
#X connect 6 0 1 1;
#X connect 7 0 2 0;
#X connect 7 0 35 0;
#X connect 8 0 37 0;
#X connect 9 0 27 1;
#X connect 10 0 28 1;
#X connect 11 0 4 1;
#X connect 12 0 4 0;
#X connect 13 0 12 1;
#X connect 14 0 1 0;
#X connect 15 0 17 0;
#X connect 16 0 5 1;
#X connect 18 0 8 1;
#X connect 19 0 43 0;
#X connect 20 0 15 0;
#X connect 21 0 25 0;
#X connect 22 0 23 0;
#X connect 23 0 26 0;
#X connect 24 0 22 0;
#X connect 25 0 22 0;
#X connect 26 0 20 1;
#X connect 27 0 28 0;
#X connect 28 0 14 0;
#X connect 29 0 30 0;
#X connect 31 0 21 0;
#X connect 32 0 40 0;
#X connect 33 0 34 0;
#X connect 37 0 5 0;
#X connect 38 0 37 1;
#X connect 39 0 8 0;
#X connect 40 0 41 1;
#X connect 40 1 39 0;
#X connect 41 0 42 0;
#X connect 42 0 37 0;
#X connect 43 0 41 0;
#X connect 43 1 16 0;
#X connect 43 2 24 0;
#X connect 43 3 32 0;
