#N canvas 0 23 763 586 12;
#X obj 111 561 r \$0-duration-s;
#X obj 44 616 *~, f 10;
#X obj 44 681 tabread4~;
#X obj 91 643 r \$0-2-tabread;
#X obj 69 393 s~ \$0-phazzee;
#X obj 44 774 *~, f 23;
#X obj 43 364 phasor~, f 26;
#X obj 43 254 vline~;
#X obj 111 591 - 2;
#X obj 44 647 +~ 1;
#X obj 43 337 *~ 1, f 8;
#N canvas 4 50 450 300 size-change 0;
#X obj 139 40 r \$0-chunk-size;
#X obj 139 134 samphold~;
#X obj 199 99 r~ \$0-phazzee;
#X obj 139 207 outlet~;
#X obj 139 93 sig~ 1;
#X connect 0 0 4 0;
#X connect 1 0 3 0;
#X connect 2 0 1 1;
#X connect 4 0 1 0;
#X restore 111 421 pd size-change;
#N canvas 4 50 450 300 start-change 0;
#X obj 139 40 r \$0-start-point;
#X obj 139 134 samphold~;
#X obj 199 99 r~ \$0-phazzee;
#X obj 139 157 outlet~;
#X obj 139 93 sig~ 0;
#X connect 0 0 4 0;
#X connect 1 0 3 0;
#X connect 2 0 1 1;
#X connect 4 0 1 0;
#X restore 132 455 pd start-change;
#N canvas 365 91 369 523 env-phase 0;
#X obj 103 173 r~ \$0-phazzee;
#X obj 103 362 outlet~;
#X obj 103 211 -~ 0.5;
#X obj 103 235 *~ 0.5;
#X obj 103 263 cos~;
#X obj 103 315 clip~ 0 1;
#X obj 103 288 *~ 100;
#X connect 0 0 2 0;
#X connect 2 0 3 0;
#X connect 3 0 4 0;
#X connect 4 0 6 0;
#X connect 5 0 1 0;
#X connect 6 0 5 0;
#X restore 202 746 pd env-phase;
#X obj 44 735 *~, f 16;
#X obj 56 534 s~ \$0-phazzee-clck;
#N canvas 4 50 450 300 avoid-clks-og-sample 0;
#X obj 94 91 -~ 0.5;
#X obj 94 115 *~ 0.5;
#X obj 94 138 cos~;
#X obj 94 180 clip~ 0 1;
#X text 55 43 avoids clicks in original sample;
#X obj 94 67 r~ \$0-phazzee-clck;
#X obj 94 201 outlet~;
#X obj 94 159 *~ 100;
#X connect 0 0 1 0;
#X connect 1 0 2 0;
#X connect 2 0 7 0;
#X connect 3 0 6 0;
#X connect 5 0 0 0;
#X connect 7 0 3 0;
#X restore 153 705 pd avoid-clks-og-sample;
#X obj 44 506 wrap~;
#X obj 44 825 hip~ 4;
#X msg 222 225 0;
#X obj 44 863 outlet~;
#X obj 43 222 pack 0 0;
#X obj 96 310 r \$0-direction;
#X obj 96 193 r \$0-ramptime;
#X obj 43 43 inlet;
#X obj 44 797 *~, f 50;
#X obj 43 144 t f b b, f 50;
#X obj 428 142 t b;
#X obj 428 237 t a;
#X obj 391 715 vline~;
#X msg 390 185 1 8;
#X msg 428 185 0 8;
#X obj 391 738 pow~ 2;
#X obj 44 446 *~, f 10;
#X obj 44 479 +~, f 13;
#X obj 428 39 inlet messages;
#N canvas 0 23 617 300 messages 0;
#X obj 37 37 inlet;
#X obj 38 206 s \$0-pitch;
#X obj 72 174 s \$0-chunk-size;
#X obj 127 148 s \$0-dsp;
#X obj 199 151 s \$0-direction;
#X obj 199 96 sel 0 1;
#X msg 199 119 1;
#X msg 237 119 -1;
#X obj 292 122 s \$0-ramptime;
#X obj 292 94 max 0;
#X obj 125 94 sel 0 1;
#X msg 125 118 0;
#X msg 165 117 1;
#X obj 60 103 clip 0 1;
#X obj 316 183 s \$0-start-point;
#X obj 317 157 clip 0 1;
#X obj 36 65 route pitch size on backwards ramptime start stop, f
61;
#X obj 399 100 s \$0-stop;
#X connect 0 0 16 0;
#X connect 5 0 6 0;
#X connect 5 1 7 0;
#X connect 6 0 4 0;
#X connect 7 0 4 0;
#X connect 9 0 8 0;
#X connect 10 0 11 0;
#X connect 10 1 12 0;
#X connect 11 0 3 0;
#X connect 12 0 3 0;
#X connect 13 0 2 0;
#X connect 15 0 14 0;
#X connect 16 0 1 0;
#X connect 16 1 13 0;
#X connect 16 2 10 0;
#X connect 16 3 5 0;
#X connect 16 4 9 0;
#X connect 16 5 15 0;
#X connect 16 6 17 0;
#X restore 428 65 pd messages;
#X obj 428 117 r \$0-stop;
#X connect 0 0 8 0;
#X connect 1 0 9 0;
#X connect 2 0 14 0;
#X connect 3 0 2 0;
#X connect 5 0 25 0;
#X connect 6 0 4 0;
#X connect 6 0 33 0;
#X connect 7 0 10 0;
#X connect 8 0 1 1;
#X connect 9 0 2 0;
#X connect 10 0 6 0;
#X connect 11 0 33 1;
#X connect 12 0 34 1;
#X connect 13 0 5 1;
#X connect 14 0 5 0;
#X connect 16 0 14 1;
#X connect 17 0 1 0;
#X connect 17 0 15 0;
#X connect 18 0 20 0;
#X connect 19 0 6 1;
#X connect 21 0 7 0;
#X connect 22 0 10 1;
#X connect 23 0 21 1;
#X connect 24 0 26 0;
#X connect 25 0 18 0;
#X connect 26 0 21 0;
#X connect 26 1 19 0;
#X connect 26 2 30 0;
#X connect 27 0 31 0;
#X connect 28 0 29 0;
#X connect 29 0 32 0;
#X connect 30 0 28 0;
#X connect 31 0 28 0;
#X connect 32 0 25 1;
#X connect 33 0 34 0;
#X connect 34 0 17 0;
#X connect 35 0 36 0;
#X connect 37 0 27 0;
