#N canvas 145 180 1295 639 12;
#X obj 76 135 inlet count;
#N canvas 337 251 637 556 read-than-wait 0;
#X obj 208 213 text get \$0-txt;
#X obj 325 247 sel 2;
#X obj 208 236 list split 1;
#X obj 322 484 list, f 16;
#X msg 322 462 1;
#X obj 322 506 route 1;
#X obj 299 181 + 1, f 6;
#X obj 208 8 inlet start;
#X obj 24 5 inlet current count;
#X obj 265 434 s \$0-rebang;
#X obj 236 154 r \$0-rebang;
#X obj 265 403 t b b, f 10;
#X obj 322 529 outlet;
#X obj 96 76 sel 0;
#X obj 208 306 t b a;
#X obj 184 330 i;
#X obj 208 282 i;
#X obj 208 259 * \$1;
#X msg 325 275 -1;
#X obj 184 378 sel 0 1 2, f 41;
#X obj 184 355 ==, f 9;
#X obj 208 127 text search \$0-txt >= 0;
#X obj 208 102 / \$1;
#X msg 96 106 0;
#X obj 24 28 t a a a, f 21;
#X obj 415 156 v pP-\$0;
#X obj 208 35 t b b, f 30;
#X obj 415 184 pack 0 \$0;
#X msg 415 215 symbol read-txt-\$2-\$1;
#X obj 208 180 i, f 10;
#X obj 208 78 i, f 7;
#X connect 0 0 2 0;
#X connect 0 1 1 0;
#X connect 1 0 18 0;
#X connect 2 0 17 0;
#X connect 2 1 3 1;
#X connect 3 0 5 0;
#X connect 4 0 3 0;
#X connect 5 0 12 0;
#X connect 6 0 29 1;
#X connect 7 0 26 0;
#X connect 8 0 24 0;
#X connect 10 0 29 0;
#X connect 11 0 9 0;
#X connect 11 1 4 0;
#X connect 13 0 23 0;
#X connect 14 0 15 0;
#X connect 14 1 20 1;
#X connect 15 0 20 0;
#X connect 16 0 14 0;
#X connect 17 0 16 0;
#X connect 18 0 14 0;
#X connect 19 1 11 0;
#X connect 19 2 9 0;
#X connect 20 0 19 0;
#X connect 21 0 29 0;
#X connect 22 0 21 0;
#X connect 23 0 29 0;
#X connect 24 0 15 0;
#X connect 24 1 13 0;
#X connect 24 2 30 1;
#X connect 25 0 27 0;
#X connect 26 0 30 0;
#X connect 26 1 25 0;
#X connect 27 0 28 0;
#X connect 28 0 0 3;
#X connect 28 0 21 1;
#X connect 29 0 6 0;
#X connect 29 0 0 0;
#X connect 30 0 22 0;
#X restore 76 200 pd read-than-wait;
#X msg 571 181 click;
#X obj 192 40 inlet messages;
#X obj 571 158 t b;
#X text 461 65 Arg3: How many items in the list + first time argument
;
#X text 461 30 Arg1: How many ticks (match master-ticks);
#X obj 76 274 list split \$3, f 28;
#X obj 167 461 list, f 16;
#X obj 167 488 route 69;
#X msg 167 439 69;
#X obj 76 421 t b a;
#X obj 172 304 route bang;
#X msg 239 374 1;
#X obj 118 397 sel 1;
#X obj 239 331 t b a b, f 16;
#X msg 348 376 0;
#X obj 239 427 v \$0-gibt-es;
#X obj 118 376 v \$0-gibt-es;
#X obj 571 213 text define edit-txt-\$0;
#X obj 482 282 text tolist edit-txt-\$0;
#X obj 825 491 text define save-txt-\$0;
#X obj 482 325 text set save-txt-\$0;
#X obj 825 299 list prepend write;
#X obj 825 320 list trim;
#X text 621 179 the edit buffer;
#X obj 565 573 text define read-txt-\$0-2;
#X obj 565 543 text define read-txt-\$0-1;
#N canvas 0 23 450 482 ping 0;
#X obj 13 6 inlet;
#X obj 13 29 t a b;
#X obj 13 213 text get save-txt-\$0;
#X obj 13 340 text fromlist read-txt-\$0;
#X obj 185 177 pack 0 \$0;
#X msg 185 208 symbol read-txt-\$2-\$1;
#X obj 185 127 t a a;
#X obj 217 150 v pP-\$0;
#X obj 45 277 text fromlist edit-txt-\$0;
#X obj 13 236 t a a;
#X obj 185 104 j-counter 2;
#X connect 0 0 1 0;
#X connect 1 0 2 0;
#X connect 1 1 10 0;
#X connect 2 0 9 0;
#X connect 4 0 5 0;
#X connect 5 0 3 1;
#X connect 6 0 4 0;
#X connect 6 1 7 0;
#X connect 9 0 3 0;
#X connect 9 1 8 0;
#X connect 10 0 6 0;
#X restore 350 240 pd ping;
#X obj 1037 336 list trim;
#X obj 1037 312 list prepend read;
#X text 461 48 Arg2: Path/Filename (relative to main-patch);
#N canvas 0 23 450 482 preview 0;
#X obj 13 6 inlet;
#X obj 13 340 text fromlist read-txt-\$0;
#X obj 185 177 pack 0 \$0;
#X msg 185 208 symbol read-txt-\$2-\$1;
#X obj 185 127 t a a;
#X obj 217 150 v pP-\$0;
#X obj 13 213 text tolist edit-txt-\$0;
#X obj 13 29 t b b;
#X obj 185 54 v pP-\$0;
#X obj 185 99 ==;
#X obj 185 77 - 1;
#X connect 0 0 7 0;
#X connect 2 0 3 0;
#X connect 3 0 1 1;
#X connect 4 0 2 0;
#X connect 4 1 5 0;
#X connect 6 0 1 0;
#X connect 7 0 6 0;
#X connect 7 1 8 0;
#X connect 8 0 10 0;
#X connect 9 0 4 0;
#X connect 10 0 9 0;
#X restore 951 140 pd preview;
#X obj 192 111 route start read write edit save2disc load preview,
f 127;
#X obj 1037 375 t b a;
#X obj 1037 493 s \$0-num-seqqs;
#X obj 1037 434 text size save-txt-\$0;
#X obj 318 138 max 1;
#X obj 445 368 s \$0-get-num;
#X obj 1082 399 r \$0-get-num;
#X obj 519 243 - 1;
#X obj 445 174 max 1;
#X obj 350 213 - 1;
#X obj 329 542 r \$0-num-seqqs;
#X obj 1025 81 v pP-\$0;
#X msg 1025 60 1;
#X obj 1025 13 r j-loadbang;
#X obj 109 569 outlet the-sequence;
#X obj 329 565 outlet number-of-seqs-in-file;
#X obj 445 206 t b b a, f 11;
#X obj 318 169 t b a;
#X text 946 162 run the sequence without saving it to a slot;
#X obj 1025 36 t b b, f 9;
#X obj 1085 63 s \$0-loc-load;
#N canvas 221 266 653 383 create-path 0;
#X obj 101 22 inlet;
#X obj 101 78 route bang, f 12;
#X obj 140 119 r j-path;
#X obj 101 173 makefilename %s/\$2;
#X obj 242 296 outlet;
#X text 173 20 if bang read from arg:2;
#X obj 242 130 t a b;
#X obj 274 192 makefilename %s/%%s;
#X msg 274 215 set \$1;
#X obj 242 250 makefilename;
#X obj 101 147 symbol;
#X obj 274 165 symbol;
#X obj 313 138 r j-path;
#X obj 242 104 symbol;
#X connect 0 0 1 0;
#X connect 1 0 10 0;
#X connect 1 1 13 0;
#X connect 2 0 10 1;
#X connect 3 0 4 0;
#X connect 6 0 9 0;
#X connect 6 1 11 0;
#X connect 7 0 8 0;
#X connect 8 0 9 0;
#X connect 9 0 4 0;
#X connect 10 0 3 0;
#X connect 11 0 7 0;
#X connect 12 0 11 1;
#X connect 13 0 6 0;
#X restore 825 262 pd create-path;
#N canvas 221 266 653 383 create-path 0;
#X obj 101 22 inlet;
#X obj 101 78 route bang, f 12;
#X obj 140 119 r j-path;
#X obj 101 173 makefilename %s/\$2;
#X obj 242 296 outlet;
#X text 173 20 if bang read from arg:2;
#X obj 242 130 t a b;
#X obj 274 192 makefilename %s/%%s;
#X msg 274 215 set \$1;
#X obj 242 250 makefilename;
#X obj 101 147 symbol;
#X obj 274 165 symbol;
#X obj 313 138 r j-path;
#X obj 242 104 symbol;
#X connect 0 0 1 0;
#X connect 1 0 10 0;
#X connect 1 1 13 0;
#X connect 2 0 10 1;
#X connect 3 0 4 0;
#X connect 6 0 9 0;
#X connect 6 1 11 0;
#X connect 7 0 8 0;
#X connect 8 0 9 0;
#X connect 9 0 4 0;
#X connect 10 0 3 0;
#X connect 11 0 7 0;
#X connect 12 0 11 1;
#X connect 13 0 6 0;
#X restore 1037 270 pd create-path;
#X connect 0 0 1 0;
#X connect 1 0 7 0;
#X connect 2 0 19 0;
#X connect 3 0 33 0;
#X connect 4 0 2 0;
#X connect 7 0 11 0;
#X connect 7 1 12 0;
#X connect 8 0 9 0;
#X connect 9 0 7 0;
#X connect 10 0 8 0;
#X connect 11 0 18 0;
#X connect 11 1 47 0;
#X connect 12 0 16 0;
#X connect 12 1 15 0;
#X connect 13 0 17 0;
#X connect 14 0 10 0;
#X connect 15 0 13 0;
#X connect 15 1 8 1;
#X connect 15 2 16 0;
#X connect 16 0 17 0;
#X connect 18 0 14 0;
#X connect 20 0 22 0;
#X connect 23 0 24 0;
#X connect 24 0 21 0;
#X connect 29 0 34 0;
#X connect 30 0 29 0;
#X connect 33 0 1 1;
#X connect 33 1 37 0;
#X connect 33 2 41 0;
#X connect 33 3 4 0;
#X connect 33 4 54 0;
#X connect 33 5 55 0;
#X connect 33 6 32 0;
#X connect 34 0 36 0;
#X connect 34 1 21 0;
#X connect 36 0 35 0;
#X connect 37 0 50 0;
#X connect 39 0 36 0;
#X connect 40 0 22 1;
#X connect 41 0 49 0;
#X connect 42 0 28 0;
#X connect 43 0 48 0;
#X connect 45 0 44 0;
#X connect 46 0 52 0;
#X connect 49 0 38 0;
#X connect 49 1 20 0;
#X connect 49 2 40 0;
#X connect 50 0 1 1;
#X connect 50 1 42 0;
#X connect 52 0 45 0;
#X connect 52 1 53 0;
#X connect 54 0 23 0;
#X connect 55 0 30 0;
#X coords 0 639 1 638 200 100 0;
