#N canvas 145 118 1295 639 12;
#X obj 116 175 inlet count;
#N canvas 544 201 637 556 read-than-wait 0;
#X obj 208 213 text get \$0-txt;
#X obj 325 247 sel 2;
#X obj 208 237 list split 1;
#X obj 322 484 list, f 16;
#X msg 322 462 1;
#X obj 322 506 route 1;
#X obj 299 181 + 1, f 6;
#X obj 208 8 inlet start;
#X obj 24 5 inlet current count;
#X obj 265 434 s \$0-rebang;
#X obj 236 154 r \$0-rebang;
#X obj 265 403 t b b, f 10;
#X obj 322 529 outlet;
#X obj 96 76 sel 0;
#X obj 208 306 t b a;
#X obj 184 330 i;
#X obj 208 282 i;
#X obj 208 259 * \$1;
#X msg 325 275 -1;
#X obj 184 378 sel 0 1 2, f 41;
#X obj 184 355 ==, f 9;
#X obj 208 127 text search \$0-txt >= 0;
#X obj 208 102 / \$1;
#X msg 96 106 0;
#X obj 24 28 t a a a, f 21;
#X obj 415 156 v pP-\$0;
#X obj 208 35 t b b, f 30;
#X obj 415 184 pack 0 \$0;
#X msg 415 215 symbol read-txt-\$2-\$1;
#X obj 208 180 i, f 10;
#X obj 208 78 i, f 7;
#X connect 0 0 2 0;
#X connect 0 1 1 0;
#X connect 1 0 18 0;
#X connect 2 0 17 0;
#X connect 2 1 3 1;
#X connect 3 0 5 0;
#X connect 4 0 3 0;
#X connect 5 0 12 0;
#X connect 6 0 29 1;
#X connect 7 0 26 0;
#X connect 8 0 24 0;
#X connect 10 0 29 0;
#X connect 11 0 9 0;
#X connect 11 1 4 0;
#X connect 13 0 23 0;
#X connect 14 0 15 0;
#X connect 14 1 20 1;
#X connect 15 0 20 0;
#X connect 16 0 14 0;
#X connect 17 0 16 0;
#X connect 18 0 14 0;
#X connect 19 1 11 0;
#X connect 19 2 9 0;
#X connect 20 0 19 0;
#X connect 21 0 29 0;
#X connect 22 0 21 0;
#X connect 23 0 29 0;
#X connect 24 0 15 0;
#X connect 24 1 13 0;
#X connect 24 2 30 1;
#X connect 25 0 27 0;
#X connect 26 0 30 0;
#X connect 26 1 25 0;
#X connect 27 0 28 0;
#X connect 28 0 0 3;
#X connect 28 0 21 1;
#X connect 29 0 6 0;
#X connect 29 0 0 0;
#X connect 30 0 22 0;
#X restore 116 210 pd read-than-wait;
#X msg 611 191 click;
#X obj 611 168 t b;
#X text 501 75 Arg3: How many items in the list + first time argument
;
#X text 501 40 Arg1: How many ticks (match master-ticks);
#X obj 116 284 list split \$3, f 28;
#X obj 207 471 list, f 16;
#X obj 207 498 route 69;
#X msg 207 449 69;
#X obj 116 431 t b a;
#X obj 212 314 route bang;
#X msg 279 384 1;
#X obj 158 407 sel 1;
#X obj 279 341 t b a b, f 16;
#X msg 388 386 0;
#X obj 279 437 v \$0-gibt-es;
#X obj 158 386 v \$0-gibt-es;
#X obj 611 223 text define edit-txt-\$0;
#X obj 509 332 text tolist edit-txt-\$0;
#X obj 865 501 text define save-txt-\$0;
#X obj 509 375 text set save-txt-\$0;
#X obj 865 309 list prepend write;
#X obj 865 330 list trim;
#X text 661 189 the edit buffer;
#X obj 605 583 text define read-txt-\$0-2;
#X obj 605 553 text define read-txt-\$0-1;
#N canvas 0 23 450 482 ping 0;
#X obj 13 6 inlet;
#X obj 13 29 t a b;
#X obj 13 213 text get save-txt-\$0;
#X obj 13 340 text fromlist read-txt-\$0;
#X obj 185 187 pack 0 \$0;
#X msg 185 218 symbol read-txt-\$2-\$1;
#X obj 185 137 t a a;
#X obj 217 160 v pP-\$0;
#X obj 45 277 text fromlist edit-txt-\$0;
#X obj 13 236 t a a;
#X obj 185 84 j-counter 2 1;
#X obj 185 108 + 1;
#X connect 0 0 1 0;
#X connect 1 0 2 0;
#X connect 1 1 10 0;
#X connect 2 0 9 0;
#X connect 4 0 5 0;
#X connect 5 0 3 1;
#X connect 6 0 4 0;
#X connect 6 1 7 0;
#X connect 9 0 3 0;
#X connect 9 1 8 0;
#X connect 10 0 11 0;
#X connect 11 0 6 0;
#X restore 352 262 pd ping;
#X obj 1077 346 list trim;
#X obj 1077 322 list prepend read;
#X text 501 58 Arg2: Path/Filename (relative to main-patch);
#N canvas 0 23 450 482 preview 0;
#X obj 13 6 inlet;
#X obj 13 390 text fromlist read-txt-\$0;
#X obj 185 227 pack 0 \$0;
#X msg 185 258 symbol read-txt-\$2-\$1;
#X obj 185 177 t a a;
#X obj 217 200 v pP-\$0;
#X obj 13 263 text tolist edit-txt-\$0;
#X obj 13 29 t b b;
#X obj 185 54 v pP-\$0;
#X obj 185 77 sel 1 2;
#X msg 185 100 2;
#X msg 225 100 1;
#X connect 0 0 7 0;
#X connect 2 0 3 0;
#X connect 3 0 1 1;
#X connect 4 0 2 0;
#X connect 4 1 5 0;
#X connect 6 0 1 0;
#X connect 7 0 6 0;
#X connect 7 1 8 0;
#X connect 8 0 9 0;
#X connect 9 0 10 0;
#X connect 9 1 11 0;
#X connect 10 0 4 0;
#X connect 11 0 4 0;
#X restore 991 150 pd preview;
#X obj 232 121 route start read write edit save2disc load preview,
f 127;
#X obj 1077 385 t b a;
#X obj 1077 503 s \$0-num-seqqs;
#X obj 1077 444 text size save-txt-\$0;
#X obj 358 148 max 1;
#X obj 485 418 s \$0-get-num;
#X obj 1122 409 r \$0-get-num;
#X obj 534 293 - 1;
#X obj 485 184 max 1;
#X obj 352 235 - 1;
#X obj 369 542 r \$0-num-seqqs;
#X obj 1065 91 v pP-\$0;
#X msg 1065 70 1;
#X obj 1065 23 r j-loadbang;
#X text 986 172 run the sequence without saving it to a slot;
#X obj 1065 46 t b b, f 9;
#X obj 1125 73 s \$0-loc-load;
#N canvas 221 266 653 383 create-path 0;
#X obj 101 22 inlet;
#X obj 101 78 route bang, f 12;
#X obj 101 173 makefilename %s/\$2;
#X obj 242 296 outlet;
#X text 173 20 if bang read from arg:2;
#X obj 242 130 t a b;
#X obj 274 192 makefilename %s/%%s;
#X msg 274 215 set \$1;
#X obj 242 250 makefilename;
#X obj 242 104 symbol;
#X obj 101 121 j-get-local-path;
#X obj 274 161 j-get-local-path;
#X connect 0 0 1 0;
#X connect 1 0 10 0;
#X connect 1 1 9 0;
#X connect 2 0 3 0;
#X connect 5 0 8 0;
#X connect 5 1 11 0;
#X connect 6 0 7 0;
#X connect 7 0 8 0;
#X connect 8 0 3 0;
#X connect 9 0 5 0;
#X connect 10 0 2 0;
#X connect 11 0 6 0;
#X restore 865 272 pd create-path;
#N canvas 221 266 653 383 create-path 0;
#X obj 101 22 inlet;
#X obj 101 78 route bang, f 12;
#X obj 101 173 makefilename %s/\$2;
#X obj 242 296 outlet;
#X text 173 20 if bang read from arg:2;
#X obj 242 130 t a b;
#X obj 274 192 makefilename %s/%%s;
#X msg 274 215 set \$1;
#X obj 242 250 makefilename;
#X obj 242 104 symbol;
#X obj 101 121 j-get-local-path;
#X obj 274 161 j-get-local-path;
#X connect 0 0 1 0;
#X connect 1 0 10 0;
#X connect 1 1 9 0;
#X connect 2 0 3 0;
#X connect 5 0 8 0;
#X connect 5 1 11 0;
#X connect 6 0 7 0;
#X connect 7 0 8 0;
#X connect 8 0 3 0;
#X connect 9 0 5 0;
#X connect 10 0 2 0;
#X connect 11 0 6 0;
#X restore 1077 280 pd create-path;
#X floatatom 149 77 5 0 0 0 Total - -;
#X obj 210 12 r \$0-num-seqqs;
#X obj 45 26 bng 15 250 50 0 empty empty Read 17 7 0 10 -261234 -1
-1;
#X floatatom 3 23 5 0 0 0 - - -;
#X obj 45 53 bng 15 250 50 0 empty empty Write 17 7 0 10 -204786 -1
-1;
#X floatatom 3 50 5 0 0 0 - - -;
#X msg 374 41 edit;
#X msg 374 69 preview;
#X obj 8 158 f;
#X obj 46 104 f;
#X msg 8 182 read \$1;
#X msg 46 128 write \$1;
#X obj 114 24 bng 15 250 50 0 empty empty Edit 17 7 0 10 -261682 -1
-1;
#X obj 114 50 bng 15 250 50 0 empty empty Preview 17 7 0 10 -204800
-1 -1;
#X obj 358 179 t b a a;
#X obj 398 217 s \$0-read;
#X obj 22 -24 r \$0-read;
#X obj 102 -24 r \$0-write;
#X obj 485 216 t b b a a, f 11;
#X obj 559 256 s \$0-write;
#X obj 3 82 bng 15 250 50 0 empty empty Save_To_Disc 17 7 0 10 -262144
-1 -1;
#X msg 121 113 save2disc;
#X obj 149 580 outlet;
#X text 207 578 the-sequence;
#X obj 369 575 outlet;
#X text 425 576 number-of-seqs-in-file;
#X obj 232 49 inlet;
#X text 278 54 messages;
#X connect 0 0 1 0;
#X connect 1 0 6 0;
#X connect 2 0 18 0;
#X connect 3 0 2 0;
#X connect 6 0 10 0;
#X connect 6 1 11 0;
#X connect 7 0 8 0;
#X connect 8 0 6 0;
#X connect 9 0 7 0;
#X connect 10 0 17 0;
#X connect 10 1 73 0;
#X connect 11 0 15 0;
#X connect 11 1 14 0;
#X connect 12 0 16 0;
#X connect 13 0 9 0;
#X connect 14 0 12 0;
#X connect 14 1 7 1;
#X connect 14 2 15 0;
#X connect 15 0 16 0;
#X connect 17 0 13 0;
#X connect 19 0 21 0;
#X connect 22 0 23 0;
#X connect 23 0 20 0;
#X connect 28 0 33 0;
#X connect 29 0 28 0;
#X connect 32 0 1 1;
#X connect 32 1 36 0;
#X connect 32 2 40 0;
#X connect 32 3 3 0;
#X connect 32 4 49 0;
#X connect 32 5 50 0;
#X connect 32 6 31 0;
#X connect 33 0 35 0;
#X connect 33 1 20 0;
#X connect 35 0 34 0;
#X connect 36 0 65 0;
#X connect 38 0 35 0;
#X connect 39 0 21 1;
#X connect 40 0 69 0;
#X connect 41 0 27 0;
#X connect 42 0 75 0;
#X connect 44 0 43 0;
#X connect 45 0 47 0;
#X connect 47 0 44 0;
#X connect 47 1 48 0;
#X connect 49 0 22 0;
#X connect 50 0 29 0;
#X connect 52 0 51 0;
#X connect 53 0 59 0;
#X connect 54 0 59 1;
#X connect 55 0 60 0;
#X connect 56 0 60 1;
#X connect 57 0 32 0;
#X connect 58 0 32 0;
#X connect 59 0 61 0;
#X connect 60 0 62 0;
#X connect 61 0 32 0;
#X connect 62 0 32 0;
#X connect 63 0 57 0;
#X connect 64 0 58 0;
#X connect 65 0 1 1;
#X connect 65 1 41 0;
#X connect 65 2 66 0;
#X connect 67 0 54 0;
#X connect 68 0 56 0;
#X connect 69 0 37 0;
#X connect 69 1 19 0;
#X connect 69 2 39 0;
#X connect 69 3 70 0;
#X connect 71 0 72 0;
#X connect 72 0 32 0;
#X connect 77 0 32 0;
#X coords 0 -1 1 1 200 100 1 0 0;
