#N canvas 144 51 1165 639 12;
#X obj 106 82 inlet count;
#X obj 138 569 outlet;
#N canvas 337 251 637 556 read-than-wait 0;
#X obj 208 213 text get \$0-txt;
#X obj 325 247 sel 2;
#X obj 208 236 list split 1;
#X obj 322 484 list, f 16;
#X msg 322 462 1;
#X obj 322 506 route 1;
#X obj 299 181 + 1, f 6;
#X obj 208 8 inlet start;
#X obj 24 5 inlet current count;
#X obj 265 434 s \$0-rebang;
#X obj 236 154 r \$0-rebang;
#X obj 265 403 t b b, f 10;
#X obj 322 529 outlet;
#X obj 96 76 sel 0;
#X obj 208 306 t b a;
#X obj 184 330 i;
#X obj 208 282 i;
#X obj 208 259 * \$1;
#X msg 325 275 -1;
#X obj 184 378 sel 0 1 2, f 41;
#X obj 184 355 ==, f 9;
#X obj 208 127 text search \$0-txt >= 0;
#X obj 208 102 / \$1;
#X msg 96 106 0;
#X obj 24 28 t a a a, f 21;
#X obj 415 156 v pP-\$0;
#X obj 208 35 t b b, f 30;
#X obj 415 184 pack 0 \$0;
#X msg 415 215 symbol read-txt-\$2-\$1;
#X obj 208 180 i, f 10;
#X obj 208 78 i, f 7;
#X connect 0 0 2 0;
#X connect 0 1 1 0;
#X connect 1 0 18 0;
#X connect 2 0 17 0;
#X connect 2 1 3 1;
#X connect 3 0 5 0;
#X connect 4 0 3 0;
#X connect 5 0 12 0;
#X connect 6 0 29 1;
#X connect 7 0 26 0;
#X connect 8 0 24 0;
#X connect 10 0 29 0;
#X connect 11 0 9 0;
#X connect 11 1 4 0;
#X connect 13 0 23 0;
#X connect 14 0 15 0;
#X connect 14 1 20 1;
#X connect 15 0 20 0;
#X connect 16 0 14 0;
#X connect 17 0 16 0;
#X connect 18 0 14 0;
#X connect 19 1 11 0;
#X connect 19 2 9 0;
#X connect 20 0 19 0;
#X connect 21 0 29 0;
#X connect 22 0 21 0;
#X connect 23 0 29 0;
#X connect 24 0 15 0;
#X connect 24 1 13 0;
#X connect 24 2 30 1;
#X connect 25 0 27 0;
#X connect 26 0 30 0;
#X connect 26 1 25 0;
#X connect 27 0 28 0;
#X connect 28 0 0 3;
#X connect 28 0 21 1;
#X connect 29 0 6 0;
#X connect 29 0 0 0;
#X connect 30 0 22 0;
#X restore 106 200 pd read-than-wait;
#X msg 570 161 click;
#X obj 222 80 inlet messages;
#X obj 570 138 t b;
#X text 480 55 Arg3: How many items in the list + first time argument
;
#X text 480 20 Arg1: How many ticks (match master-ticks);
#X obj 106 274 list split \$3, f 28;
#X obj 197 461 list, f 16;
#X obj 197 488 route 69;
#X msg 197 439 69;
#X obj 106 421 t b a;
#X obj 202 304 route bang;
#X msg 269 374 1;
#X obj 148 397 sel 1;
#X obj 269 331 t b a b, f 16;
#X msg 378 376 0;
#X obj 269 427 v \$0-gibt-es;
#X obj 148 376 v \$0-gibt-es;
#X obj 570 193 text define edit-txt-\$0;
#X obj 454 225 text tolist edit-txt-\$0;
#X obj 755 375 text define save-txt-\$0;
#X obj 454 268 text set save-txt-\$0;
#X obj 454 189 t b a, f 11;
#X obj 755 319 list prepend write;
#X obj 755 340 list trim;
#X text 620 159 the edit buffer;
#X obj 711 471 text define read-txt-\$0-2;
#X obj 711 441 text define read-txt-\$0-1;
#N canvas 0 23 450 482 ping 0;
#X obj 13 6 inlet;
#X obj 13 29 t a b;
#X obj 13 213 text get save-txt-\$0;
#X obj 13 340 text fromlist read-txt-\$0;
#X obj 185 177 pack 0 \$0;
#X msg 185 208 symbol read-txt-\$2-\$1;
#X obj 185 127 t a a;
#X obj 217 150 v pP-\$0;
#X obj 45 277 text fromlist edit-txt-\$0;
#X obj 13 236 t a a;
#X obj 185 104 j-counter 2;
#X connect 0 0 1 0;
#X connect 1 0 2 0;
#X connect 1 1 10 0;
#X connect 2 0 9 0;
#X connect 4 0 5 0;
#X connect 5 0 3 1;
#X connect 6 0 4 0;
#X connect 6 1 7 0;
#X connect 9 0 3 0;
#X connect 9 1 8 0;
#X connect 10 0 6 0;
#X restore 348 173 pd ping;
#X obj 316 142 t b a;
#X obj 898 340 list trim;
#X obj 898 319 list prepend read;
#X obj 960 190 symbol \$2;
#X text 480 38 Arg2: Path/Filename (relative to main-patch);
#X obj 773 187 symbol \$2;
#X obj 960 153 t b;
#X obj 773 150 t b;
#X obj 222 111 route start read write openTxt save load preview, f
127;
#N canvas 0 23 450 482 preview 0;
#X obj 13 6 inlet;
#X obj 13 340 text fromlist read-txt-\$0;
#X obj 185 177 pack 0 \$0;
#X msg 185 208 symbol read-txt-\$2-\$1;
#X obj 185 127 t a a;
#X obj 217 150 v pP-\$0;
#X obj 13 213 text tolist edit-txt-\$0;
#X obj 13 29 t b b;
#X obj 185 54 v pP-\$0;
#X obj 185 99 ==;
#X obj 185 77 - 1;
#X connect 0 0 7 0;
#X connect 2 0 3 0;
#X connect 3 0 1 1;
#X connect 4 0 2 0;
#X connect 4 1 5 0;
#X connect 6 0 1 0;
#X connect 7 0 6 0;
#X connect 7 1 8 0;
#X connect 8 0 10 0;
#X connect 9 0 4 0;
#X connect 10 0 9 0;
#X restore 1024 157 pd preview;
#X connect 0 0 2 0;
#X connect 2 0 8 0;
#X connect 3 0 20 0;
#X connect 4 0 39 0;
#X connect 5 0 3 0;
#X connect 8 0 12 0;
#X connect 8 1 13 0;
#X connect 9 0 10 0;
#X connect 10 0 8 0;
#X connect 11 0 9 0;
#X connect 12 0 19 0;
#X connect 12 1 1 0;
#X connect 13 0 17 0;
#X connect 13 1 16 0;
#X connect 14 0 18 0;
#X connect 15 0 11 0;
#X connect 16 0 14 0;
#X connect 16 1 9 1;
#X connect 16 2 17 0;
#X connect 17 0 18 0;
#X connect 19 0 15 0;
#X connect 21 0 23 0;
#X connect 24 0 21 0;
#X connect 24 1 23 1;
#X connect 25 0 26 0;
#X connect 26 0 22 0;
#X connect 31 0 2 1;
#X connect 31 1 30 0;
#X connect 32 0 22 0;
#X connect 33 0 32 0;
#X connect 34 0 33 0;
#X connect 36 0 25 0;
#X connect 37 0 34 0;
#X connect 38 0 36 0;
#X connect 39 0 2 1;
#X connect 39 1 31 0;
#X connect 39 2 24 0;
#X connect 39 3 5 0;
#X connect 39 4 38 0;
#X connect 39 5 37 0;
#X connect 39 6 40 0;
