#N canvas 370 31 898 841 10;
#N canvas 4 50 450 432 messages 0;
#X obj 37 37 inlet;
#X obj 37 390 s \$0-name;
#X obj 194 303 samplerate~;
#X obj 136 397 s \$0-len-samp;
#X obj 65 276 s \$0-speed;
#X obj 194 324 * 0.001;
#X obj 161 347 / 44.1;
#X obj 161 373 s \$0-len-ms;
#X obj 136 220 t a a b b, f 13;
#X obj 211 273 v \$0-length?;
#X msg 211 248 1;
#X obj 136 194 f \$2;
#X obj 157 172 r \$0-get-default;
#X obj 186 143 s \$0-start;
#X obj 236 118 s \$0-size;
#X obj 37 61 route name speed length-samples start size switch;
#X obj 270 88 s \$0-switch;
#X obj 365 101 outlet;
#X obj 360 77 unpack 0 0;
#X connect 0 0 15 0;
#X connect 2 0 5 0;
#X connect 5 0 6 1;
#X connect 6 0 7 0;
#X connect 8 0 3 0;
#X connect 8 1 6 0;
#X connect 8 2 2 0;
#X connect 8 3 10 0;
#X connect 10 0 9 0;
#X connect 11 0 8 0;
#X connect 12 0 11 1;
#X connect 15 0 1 0;
#X connect 15 1 4 0;
#X connect 15 2 11 0;
#X connect 15 3 13 0;
#X connect 15 4 14 0;
#X connect 15 5 16 0;
#X connect 15 6 18 0;
#X connect 18 1 17 0;
#X restore 19 40 pd messages;
#X obj 437 597 list prepend set;
#X obj 437 618 list trim;
#X obj 437 568 r \$0-name;
#X obj 149 662 +~ 1;
#X msg 149 505 0 0 \, 1 \$1 0;
#X obj 149 531 vline~;
#X obj 149 632 *~, f 30;
#X obj 164 235 r \$0-len-ms;
#X obj 149 259 f;
#X obj 255 236 r \$0-speed;
#X text 545 10 simple oneshot sampler;
#X text 347 20 Arg1: Table Name to read from;
#X text 349 57 Arg2: size in samples;
#X obj 149 131 t b b;
#X obj 176 152 v \$0-length?;
#X obj 176 173 sel 0 1;
#X obj 176 204 s \$0-get-default;
#X obj 149 692 tabread4~ \$1;
#X obj 149 823 outlet~;
#X obj 149 320 * 1, f 7;
#X obj 242 541 r \$0-start;
#X obj 149 593 wrap~;
#X obj 149 723 *~, f 25;
#N canvas 4 50 549 340 duck 0;
#X obj 200 89 -~ 0.5;
#X obj 200 110 *~ 0.5;
#X obj 200 177 clip~ 0 1;
#X obj 200 132 cos~;
#X obj 200 156 *~ 50;
#X obj 200 198 outlet~;
#X obj 199 50 inlet~;
#X text 248 49 0-1 phase;
#X connect 0 0 1 0;
#X connect 1 0 3 0;
#X connect 2 0 5 0;
#X connect 3 0 4 0;
#X connect 4 0 2 0;
#X connect 6 0 0 0;
#X restore 295 673 pd duck if wrapped;
#X obj 188 257 r \$0-size;
#X obj 149 290 * 1, f 7;
#X obj 353 563 r \$0-size;
#X obj 326 523 r \$0-len-samp;
#X obj 326 544 - 2;
#X obj 149 572 +~ 0, f 16;
#X obj 149 748 *~, f 40;
#N canvas 4 50 549 340 duck 0;
#X obj 200 89 -~ 0.5;
#X obj 200 110 *~ 0.5;
#X obj 200 177 clip~ 0 1;
#X obj 200 132 cos~;
#X obj 200 156 *~ 50;
#X obj 200 198 outlet~;
#X obj 199 50 inlet~;
#X text 243 50 0-1 Phase;
#X connect 0 0 1 0;
#X connect 1 0 3 0;
#X connect 2 0 5 0;
#X connect 3 0 4 0;
#X connect 4 0 2 0;
#X connect 6 0 0 0;
#X restore 385 710 pd duck og chunk;
#X obj 326 587 * 1, f 5;
#X obj 280 487 switch~;
#X msg 280 446 1;
#X msg 336 391 stop;
#X obj 336 424 del, f 9;
#X msg 336 445 0;
#X obj 280 366 t b b b;
#X obj 196 420 r \$0-switch;
#X obj 19 20 inlet;
#X text 56 19 trigger;
#X obj 149 769 *~, f 80;
#X obj 626 731 vline~;
#X text 125 23 reads velocity;
#X obj 255 257 swap 1;
#X obj 255 278 /, f 6;
#X obj 80 144 s \$0-stop;
#X obj 19 62 sel -1 0, f 21;
#X obj 626 679 pack 1 8;
#X obj 626 543 f 1;
#X obj 657 317 r \$0-stop;
#X msg 692 415 stop;
#X obj 673 445 del 8;
#X obj 149 341 t a b a b b, f 79;
#X obj 657 338 t b b b b;
#X obj 708 372 s \$0-stop-play-delay;
#X obj 336 364 r \$0-stop-play-delay;
#X obj 657 546 f 0;
#X obj 673 466 f 0;
#X obj 673 487 s \$0-switch;
#X connect 0 0 49 0;
#X connect 1 0 2 0;
#X connect 2 0 18 0;
#X connect 3 0 1 0;
#X connect 4 0 18 0;
#X connect 5 0 6 0;
#X connect 6 0 30 0;
#X connect 6 0 32 0;
#X connect 7 0 4 0;
#X connect 8 0 9 1;
#X connect 9 0 26 0;
#X connect 10 0 46 0;
#X connect 14 0 9 0;
#X connect 14 1 15 0;
#X connect 15 0 16 0;
#X connect 16 0 17 0;
#X connect 18 0 23 0;
#X connect 20 0 55 0;
#X connect 21 0 30 1;
#X connect 22 0 7 0;
#X connect 22 0 24 0;
#X connect 23 0 31 0;
#X connect 24 0 23 1;
#X connect 25 0 26 1;
#X connect 26 0 20 0;
#X connect 27 0 33 1;
#X connect 28 0 29 0;
#X connect 29 0 33 0;
#X connect 30 0 22 0;
#X connect 31 0 43 0;
#X connect 32 0 31 1;
#X connect 33 0 7 1;
#X connect 35 0 34 0;
#X connect 36 0 37 0;
#X connect 37 0 38 0;
#X connect 38 0 34 0;
#X connect 39 0 35 0;
#X connect 39 1 37 0;
#X connect 39 2 36 0;
#X connect 40 0 34 0;
#X connect 41 0 0 0;
#X connect 43 0 19 0;
#X connect 44 0 43 1;
#X connect 46 0 47 0;
#X connect 46 1 47 1;
#X connect 47 0 20 1;
#X connect 49 0 48 0;
#X connect 49 1 48 0;
#X connect 49 2 14 0;
#X connect 50 0 44 0;
#X connect 51 0 50 0;
#X connect 52 0 56 0;
#X connect 53 0 54 0;
#X connect 54 0 60 0;
#X connect 55 0 5 0;
#X connect 55 1 39 0;
#X connect 55 2 37 1;
#X connect 55 3 51 0;
#X connect 55 4 53 0;
#X connect 56 0 59 0;
#X connect 56 1 54 0;
#X connect 56 2 53 0;
#X connect 56 3 57 0;
#X connect 58 0 36 0;
#X connect 59 0 50 0;
#X connect 60 0 61 0;
