#N canvas 381 242 624 558 10;
#X obj 333 339 text define \$0-seq;
#X obj 396 314 text set \$0-seq;
#X obj 396 218 t a b, f 8;
#X obj 441 259 f;
#X obj 477 261 + 1;
#X msg 456 232 0;
#X msg 333 312 clear;
#X obj 333 98 t b b;
#X obj 333 75 route clear;
#X obj 26 176 text get \$0-seq;
#X obj 24 330 outlet;
#X obj 396 119 j-list-2-items;
#X text 369 24 list to sequence;
#X obj 333 24 inlet;
#X obj 24 28 inlet;
#X text 69 31 beat count;
#X connect 2 0 1 0;
#X connect 2 1 3 0;
#X connect 3 0 4 0;
#X connect 3 0 1 1;
#X connect 4 0 3 1;
#X connect 5 0 3 1;
#X connect 6 0 0 0;
#X connect 7 0 6 0;
#X connect 7 1 5 0;
#X connect 8 0 7 0;
#X connect 8 1 11 0;
#X connect 9 0 10 0;
#X connect 11 0 2 0;
#X connect 13 0 8 0;
#X connect 14 0 9 0;
