#N canvas 312 74 822 713 12;
#X obj 27 13 inlet~ L-audio;
#X obj 169 13 inlet~ R-audio;
#X obj 675 13 inlet mess;
#X obj 27 416 *~;
#X obj 169 416 *~;
#N canvas 0 23 450 300 messages 0;
#X obj 37 37 inlet;
#X obj 37 83 s amountL-\$0;
#X obj 172 83 s amountR-\$0;
#X obj 37 60 route amtL amtR, f 39;
#X connect 0 0 3 0;
#X connect 3 0 1 0;
#X connect 3 1 2 0;
#X restore 675 36 pd messages;
#X obj 27 549 outlet~ left;
#X obj 169 549 outlet~ right;
#X obj 45 339 sig~ 1;
#X obj 187 340 sig~ 1;
#X obj 45 382 -~, f 9;
#X obj 187 383 -~, f 9;
#X obj 105 335 *~;
#X obj 247 339 *~;
#X obj 123 251 r amountL-\$0;
#X obj 284 202 r amountR-\$0;
#X obj 265 308 lop~ 100;
#X obj 123 299 lop~ 100;
#X obj 279 96 loadbang;
#X obj 315 11 inlet~ vlineL;
#X obj 420 11 inlet~ vlineR;
#X obj 278 121 f \$1;
#X connect 0 0 3 0;
#X connect 1 0 4 0;
#X connect 2 0 5 0;
#X connect 3 0 6 0;
#X connect 4 0 7 0;
#X connect 8 0 10 0;
#X connect 9 0 11 0;
#X connect 10 0 3 1;
#X connect 11 0 4 1;
#X connect 12 0 10 1;
#X connect 13 0 11 1;
#X connect 14 0 17 0;
#X connect 15 0 16 0;
#X connect 16 0 13 1;
#X connect 17 0 12 1;
#X connect 18 0 21 0;
#X connect 19 0 12 0;
#X connect 20 0 13 0;
#X connect 21 0 17 0;
#X connect 21 0 16 0;
