#N canvas 0 23 450 300 12;
#X obj 28 14 inlet 1st bang;
#X obj 28 38 spigot 1;
#X obj 28 62 t b b;
#X msg 121 59 0;
#X obj 28 86 outlet;
#X connect 0 0 1 0;
#X connect 1 0 2 0;
#X connect 2 0 4 0;
#X connect 2 1 3 0;
#X connect 3 0 1 1;
