#N canvas 307 150 450 207 12;
#X obj 24 12 inlet bang;
#X obj 24 35 t b;
#X obj 24 65 spigot 1;
#X obj 24 88 t b b;
#X msg 121 86 0;
#X obj 121 12 inlet reset;
#X obj 121 35 t b;
#X msg 121 58 1;
#X obj 24 111 outlet;
#X connect 0 0 1 0;
#X connect 1 0 2 0;
#X connect 2 0 3 0;
#X connect 3 0 8 0;
#X connect 3 1 4 0;
#X connect 4 0 2 1;
#X connect 5 0 6 0;
#X connect 6 0 7 0;
#X connect 7 0 2 1;
