#N canvas 384 327 668 465 10;
#X obj 113 430 dac~ 1 2;
#X obj 113 181 inlet~;
#X obj 227 207 / 127;
#X obj 227 229 pow 2;
#X obj 113 224 *~;
#X obj 178 102 vsl 40 60 0 127 0 0 empty empty empty 0 -9 0 10 -175101
-1 -1 0 1;
#X obj 105 103 bng 30 250 50 0 empty empty MUTE 35 20 0 10 -262144
-1 -1;
#X msg 178 56 0;
#X obj 159 179 inlet~;
#X obj 159 222 *~;
#N canvas 0 23 450 300 safety 0;
#X obj 41 19 inlet~;
#X obj 41 39 env~;
#X obj 41 63 >= 109;
#X obj 41 109 sel 1;
#X obj 41 83 change -1;
#X obj 41 129 outlet mute audio;
#X connect 0 0 1 0;
#X connect 1 0 2 0;
#X connect 2 0 4 0;
#X connect 3 0 5 0;
#X connect 4 0 3 0;
#X restore 363 94 pd safety;
#X obj 159 280 delwrite~ \$0-hi 10;
#X obj 115 310 delwrite~ \$0-hiL 10;
#X obj 113 376 delread~ \$0-hiL 10;
#X obj 158 397 delread~ \$0-hi 10;
#X obj 363 124 print LOUD!!;
#X text 291 64 safety feature so no blow out;
#X obj 370 195 catch~ main-out-mono;
#X obj 370 255 *~ 0.707;
#X obj 508 259 *~ 0.707;
#X obj 370 308 throw~ main-outL;
#X obj 508 303 throw~ main-outR;
#X text 470 214 Mono out reduce volume a bit;
#X obj 10 181 catch~ main-outL;
#X obj 230 181 catch~ main-outR;
#X text 271 155 stereo out;
#X obj 227 250 lop~ 1000;
#X connect 1 0 4 0;
#X connect 1 0 10 0;
#X connect 2 0 3 0;
#X connect 3 0 26 0;
#X connect 4 0 12 0;
#X connect 5 0 2 0;
#X connect 6 0 7 0;
#X connect 7 0 5 0;
#X connect 8 0 9 0;
#X connect 8 0 10 0;
#X connect 9 0 11 0;
#X connect 10 0 7 0;
#X connect 10 0 15 0;
#X connect 13 0 0 0;
#X connect 14 0 0 1;
#X connect 17 0 18 0;
#X connect 17 0 19 0;
#X connect 18 0 20 0;
#X connect 19 0 21 0;
#X connect 23 0 4 0;
#X connect 24 0 9 0;
#X connect 26 0 4 1;
#X connect 26 0 9 1;
#X coords 0 -1 1 1 120 65 2 100 100;
