#N canvas 0 23 729 615 12;
#X obj 170 13 inlet reset;
#X obj 109 283 % 60;
#X obj 42 203 t a a, f 10;
#X obj 109 306 sel 0;
#X obj 109 353 - 1;
#X obj 170 38 t b b;
#X obj 41 435 outlet min;
#X obj 109 230 i;
#X obj 109 253 change -1;
#X obj 42 173 % 60;
#X obj 42 135 - 1;
#X obj 42 384 +;
#X obj 42 226 * 0.01;
#X obj 42 112 j-counter;
#X obj 109 330 j-counter;
#X obj 42 59 metro 1000;
#X obj 42 13 inlet 0-off-1-on;
#X connect 0 0 5 0;
#X connect 1 0 3 0;
#X connect 2 0 12 0;
#X connect 2 1 7 0;
#X connect 3 0 14 0;
#X connect 4 0 11 1;
#X connect 5 0 13 2;
#X connect 5 1 14 2;
#X connect 7 0 8 0;
#X connect 8 0 1 0;
#X connect 9 0 2 0;
#X connect 10 0 9 0;
#X connect 11 0 6 0;
#X connect 12 0 11 0;
#X connect 13 0 10 0;
#X connect 14 0 4 0;
#X connect 15 0 13 0;
#X connect 16 0 15 0;
