#N canvas 240 55 1186 817 10;
#X obj 532 57 inlet;
#X obj 11 713 outlet;
#X obj 11 103 spigot 0;
#X obj 579 352 s \$0-start;
#X obj 182 31 f 1;
#X obj 709 326 s \$0-stop;
#X obj 56 38 r \$0-stop;
#X obj 56 59 f 0;
#X obj 532 337 i;
#X obj 532 358 - 1;
#X obj 421 325 r \$0-check;
#X obj 421 437 sel 1;
#X obj 421 416 >= 360, f 19;
#X obj 421 518 t b b, f 22;
#X obj 62 393 sel 1;
#X obj 212 188 spigot 0;
#X obj 370 209 f 0;
#X obj 421 539 f 0;
#X obj 122 527 f 0;
#X obj 162 527 + 1;
#X obj 421 560 s \$0-erase;
#X obj 137 456 r \$0-erase;
#X obj 122 558 * 360;
#X obj 11 610 +, f 14;
#X obj 35 560 r \$0-erase;
#X obj 11 631 i;
#X obj 11 652 t f f;
#X obj 38 679 s \$0-check;
#X obj 550 635 outlet;
#X text 601 615 new measure;
#X obj 685 199 s \$0-free;
#X obj 267 431 r \$0-free;
#X obj 182 10 r \$0-start;
#X obj 11 136 t f f, f 34;
#X obj 11 177 spigot 0;
#X obj 56 155 r \$0-open;
#X obj 212 332 f 1;
#X obj 212 361 s \$0-open;
#X obj 690 348 f 0;
#X obj 690 369 s \$0-open;
#X obj 532 284 f \$1;
#X obj 786 349 s \$0-open;
#X obj 690 287 t b b b;
#X obj 786 320 f 0;
#X obj 75 181 r \$0-erase;
#X obj 685 168 t b b;
#X obj 579 297 t b b b;
#X obj 339 138 f 0;
#X obj 339 159 s \$0-erase;
#X obj 182 58 t f f b, f 21;
#X obj 212 211 t f f;
#X obj 212 259 sel 1;
#X obj 212 238 < 0, f 8;
#X obj 62 372 < 0, f 8;
#X obj 257 210 r \$0-erase;
#X obj 137 477 t b;
#X obj 137 498 f 1;
#X obj 267 452 f 1;
#X obj 286 543 s \$0-open;
#X obj 267 477 t f f b;
#N canvas 893 374 450 571 startAt 0;
#X obj 38 6 inlet;
#X obj 126 79 / 360;
#X obj 215 61 f 0;
#X obj 215 82 s \$0-erase;
#X obj 38 433 s \$0-open;
#X obj 65 407 s \$0-open-pre;
#X obj 38 361 f 1;
#X obj 38 382 t f f;
#X obj 38 27 t b a b, f 30;
#X obj 180 188 s \$0-startAt-int;
#X obj 126 103 t a a;
#X obj 153 131 i;
#X obj 153 157 t a a;
#X obj 126 186 -;
#X obj 126 248 s \$0-startAt-f;
#X obj 126 207 * 360;
#X obj 126 228 i;
#X connect 0 0 8 0;
#X connect 1 0 10 0;
#X connect 2 0 3 0;
#X connect 6 0 7 0;
#X connect 7 0 4 0;
#X connect 7 1 5 0;
#X connect 8 0 6 0;
#X connect 8 1 1 0;
#X connect 8 2 2 0;
#X connect 10 0 13 0;
#X connect 10 1 11 0;
#X connect 11 0 12 0;
#X connect 12 0 13 1;
#X connect 12 1 9 0;
#X connect 13 0 15 0;
#X connect 15 0 16 0;
#X connect 16 0 14 0;
#X restore 762 195 pd startAt;
#X obj 191 534 s \$0-open-pre;
#X obj 88 101 r \$0-open-pre;
#X obj 212 286 t b b, f 9;
#X obj 742 154 t a b;
#X obj 11 236 f, f 8;
#X obj 103 236 + 1;
#X obj 103 257 moses 360;
#X obj 147 280 t b;
#X obj 147 301 f 0;
#X obj 103 278 f;
#X obj 11 208 t b, f 4;
#X obj 11 327 t f f f, f 17;
#X obj 131 332 r \$0-erase;
#X obj 122 400 r \$0-startAt-int;
#X obj 78 203 r \$0-startAt-f;
#X obj 11 257 t f f;
#X text 571 55 ticks and messages;
#X obj 813 146 s \$0-tIcks;
#X obj 11 11 r \$0-tIcks;
#X obj 532 119 route length start-sync stop freeStart startAt;
#X text 453 22 Arg1: Length to count in ticks;
#X connect 0 0 80 0;
#X connect 2 0 33 0;
#X connect 4 0 49 0;
#X connect 6 0 7 0;
#X connect 7 0 2 1;
#X connect 8 0 9 0;
#X connect 9 0 12 1;
#X connect 10 0 12 0;
#X connect 11 0 13 0;
#X connect 12 0 11 0;
#X connect 13 0 17 0;
#X connect 13 1 28 0;
#X connect 14 0 18 0;
#X connect 15 0 50 0;
#X connect 16 0 15 1;
#X connect 17 0 20 0;
#X connect 18 0 19 0;
#X connect 18 0 22 0;
#X connect 19 0 18 1;
#X connect 21 0 55 0;
#X connect 22 0 23 1;
#X connect 23 0 25 0;
#X connect 24 0 23 1;
#X connect 25 0 26 0;
#X connect 26 0 1 0;
#X connect 26 1 27 0;
#X connect 31 0 57 0;
#X connect 32 0 4 0;
#X connect 33 0 34 0;
#X connect 33 1 15 0;
#X connect 34 0 71 0;
#X connect 35 0 34 1;
#X connect 36 0 37 0;
#X connect 38 0 39 0;
#X connect 40 0 8 0;
#X connect 42 0 38 0;
#X connect 42 1 5 0;
#X connect 42 2 43 0;
#X connect 43 0 41 0;
#X connect 44 0 65 1;
#X connect 45 0 30 0;
#X connect 45 1 40 0;
#X connect 46 0 3 0;
#X connect 46 1 38 0;
#X connect 46 2 40 0;
#X connect 47 0 48 0;
#X connect 49 0 2 1;
#X connect 49 1 15 1;
#X connect 49 2 47 0;
#X connect 50 0 52 1;
#X connect 50 1 52 0;
#X connect 51 0 63 0;
#X connect 52 0 51 0;
#X connect 53 0 14 0;
#X connect 54 0 52 1;
#X connect 55 0 56 0;
#X connect 56 0 18 1;
#X connect 57 0 59 0;
#X connect 59 0 61 0;
#X connect 59 1 58 0;
#X connect 59 2 17 0;
#X connect 62 0 2 1;
#X connect 63 0 36 0;
#X connect 63 1 16 0;
#X connect 64 0 60 0;
#X connect 64 1 40 0;
#X connect 65 0 76 0;
#X connect 66 0 67 0;
#X connect 67 0 70 0;
#X connect 67 1 68 0;
#X connect 68 0 69 0;
#X connect 69 0 70 0;
#X connect 70 0 65 1;
#X connect 71 0 65 0;
#X connect 72 0 23 0;
#X connect 72 1 53 1;
#X connect 72 2 53 0;
#X connect 73 0 53 1;
#X connect 74 0 18 0;
#X connect 75 0 65 1;
#X connect 76 0 72 0;
#X connect 76 1 66 0;
#X connect 79 0 2 0;
#X connect 80 0 40 0;
#X connect 80 1 46 0;
#X connect 80 2 42 0;
#X connect 80 3 45 0;
#X connect 80 4 64 0;
#X connect 80 5 78 0;
