#N canvas 0 23 158 789 10;
#X obj 10 53 snapshot~;
#X floatatom 10 74 5 0 0 0 - - -;
#X obj 10 11 tgl 15 0 empty empty empty 17 7 0 10 -262144 -1 -1 0 1
;
#X obj 10 31 metro 100;
#X obj 94 23 env~;
#X floatatom 94 44 5 0 0 0 - - -;
#X obj 12 106 hsl 128 15 0 127 0 0 empty empty empty -2 -8 0 10 -262144
-1 -1 0 1;
#X obj 9 126 / 127;
#X obj 9 172 f;
#X obj 40 172 + 1;
#X obj 9 193 %;
#X obj 7 296 f, f 7;
#X obj 68 297 + 1;
#X obj 7 271 until;
#X obj 7 229 t a b, f 8;
#X msg 52 272 0;
#X obj 7 250 max 1;
#X connect 0 0 1 0;
#X connect 2 0 3 0;
#X connect 3 0 0 0;
#X connect 4 0 5 0;
#X connect 6 0 7 0;
#X connect 8 0 9 0;
#X connect 8 0 10 0;
#X connect 9 0 8 1;
#X connect 11 0 12 0;
#X connect 12 0 11 1;
#X connect 13 0 11 0;
#X connect 14 0 16 0;
#X connect 14 1 15 0;
#X connect 15 0 11 1;
#X connect 16 0 13 0;
