#N canvas 693 164 656 300 12;
#X obj 44 39 key;
#X obj 44 133 route bang;
#X msg 321 141 write j-texts/type-kb.txt;
#X msg 277 103 read j-texts/type-kb.txt;
#X obj 278 181 text define \$0-wow;
#X obj 111 157 text get \$0-wow;
#X obj 226 13 inlet;
#X obj 150 213 outlet;
#X obj 111 181 unpack;
#X text 199 215 note number;
#X obj 44 109 text search \$0-wow;
#X obj 226 37 route init switch;
#X obj 44 63 spigot;
#X connect 0 0 12 0;
#X connect 1 1 5 0;
#X connect 3 0 4 0;
#X connect 5 0 8 0;
#X connect 6 0 11 0;
#X connect 8 1 7 0;
#X connect 10 0 1 0;
#X connect 11 0 3 0;
#X connect 11 1 12 1;
#X connect 12 0 10 0;
