#N canvas 0 23 629 425 12;
#X obj 244 168 pow 0.5;
#X obj 244 68 t a a, f 13;
#X obj 332 167 pow 0.5;
#X msg 244 111 1 \$1;
#X obj 244 135 -;
#X obj 18 22 inlet~ left;
#X obj 132 25 inlet~ right;
#X obj 18 176 *~;
#X obj 132 179 *~;
#X msg 36 125 \$1 \$2;
#X obj 36 149 line~;
#X obj 36 95 pack 0 \$1;
#X obj 244 25 inlet fade 0-1;
#X msg 150 130 \$1 \$2;
#X obj 150 154 line~;
#X obj 150 100 pack 0 \$1;
#X obj 18 240 outlet~;
#X text 383 30 Arg1: smoothing time in ms;
#X connect 0 0 11 0;
#X connect 1 0 3 0;
#X connect 1 1 2 0;
#X connect 2 0 15 0;
#X connect 3 0 4 0;
#X connect 4 0 0 0;
#X connect 5 0 7 0;
#X connect 6 0 8 0;
#X connect 7 0 16 0;
#X connect 8 0 16 0;
#X connect 9 0 10 0;
#X connect 10 0 7 1;
#X connect 11 0 9 0;
#X connect 12 0 1 0;
#X connect 13 0 14 0;
#X connect 14 0 8 1;
#X connect 15 0 13 0;
