#N canvas 129 162 290 262 10;
#X obj 52 27 inlet;
#X obj 52 49 route listen;
#X obj 52 104 list prepend listen;
#X obj 52 126 list trim;
#X obj 52 77 f \$1;
#X obj 52 164 netreceive -u \$1;
#X obj 52 185 outlet;
#X connect 0 0 1 0;
#X connect 1 0 4 0;
#X connect 2 0 3 0;
#X connect 3 0 5 0;
#X connect 4 0 2 0;
#X connect 5 0 6 0;
