#N canvas 70 212 749 407 10;
#X msg 122 249 disconnect;
#X obj 89 67 symbol \$1;
#X text 623 73 Arg1: ip address;
#X text 615 98 Arg2: port number;
#X obj 89 88 pack s \$2;
#X msg 89 120 connect \$1 \$2;
#X obj 598 13 inlet send-messages;
#X obj 235 244 list prepend send;
#X obj 235 265 list trim;
#X obj 89 20 inlet bang-to-connect;
#X obj 89 41 t b;
#X obj 598 36 s \$0-messages;
#X obj 315 167 r \$0-messages;
#X obj 89 339 netsend -u, f 22;
#X obj 89 360 outlet;
#X connect 0 0 13 0;
#X connect 1 0 4 0;
#X connect 4 0 5 0;
#X connect 5 0 13 0;
#X connect 6 0 11 0;
#X connect 7 0 8 0;
#X connect 8 0 13 0;
#X connect 9 0 10 0;
#X connect 10 0 1 0;
#X connect 12 0 7 0;
#X connect 13 0 14 0;
