#N canvas 255 211 499 336 12;
#X text 154 6 Arg 1: unique name match the jwy-preset-main;
#X obj 9 42 inlet manual-inlet;
#X text 154 23 Arg 2: number of preset(int);
#X obj 8 230 outlet to-parameter;
#X obj 174 47 r \$1-\$2-r;
#X obj 9 125 t a a;
#X text 246 46 get stored presets from main;
#X text 240 220 plug into main;
#X obj 167 209 list trim;
#X obj 167 240 s \$1-s;
#X obj 167 186 list append \$2;
#X obj 360 107 r \$1-get-num;
#X obj 360 160 f \$2;
#X obj 360 183 s \$1-r-num;
#X obj 187 114 t b;
#X obj 187 91 r \$1-get-param;
#X obj 9 95 f 0;
#X obj 360 130 t b;
#X connect 1 0 16 0;
#X connect 4 0 16 0;
#X connect 5 0 3 0;
#X connect 5 1 10 0;
#X connect 8 0 9 0;
#X connect 10 0 8 0;
#X connect 11 0 17 0;
#X connect 12 0 13 0;
#X connect 14 0 16 0;
#X connect 15 0 14 0;
#X connect 16 0 5 0;
#X connect 17 0 12 0;
