#N canvas 352 396 450 429 12;
#X obj 21 12 inlet messages;
#N canvas 670 431 450 300 messes 0;
#X obj 37 37 inlet;
#X obj 39 220 text define presets-\$0;
#X obj 100 136 list prepend write;
#X obj 100 86 t b;
#X obj 37 83 t b;
#X obj 30 160 list prepend read;
#X obj 39 192 list trim;
#X obj 100 112 symbol \$2;
#X obj 30 136 symbol \$2;
#X obj 37 60 route load save store recall, f 48;
#X connect 0 0 9 0;
#X connect 2 0 6 0;
#X connect 3 0 7 0;
#X connect 4 0 8 0;
#X connect 5 0 6 0;
#X connect 6 0 1 0;
#X connect 7 0 2 0;
#X connect 8 0 5 0;
#X connect 9 0 4 0;
#X connect 9 1 3 0;
#X restore 21 35 pd messes;
#X obj 78 358 text size presets-\$0;
#X text 225 56 Arg 2: textfile location/name;
#X text 226 28 Arg1: unique name;
#N canvas 363 111 450 300 receive 0;
#X obj 44 36 r aDdd-s;
#X obj 44 59 list split 1;
#X obj 85 92 - 1;
#X obj 85 115 max 0;
#X obj 85 138 i;
#X obj 44 201 text set presets-\$0;
#X connect 0 0 1 0;
#X connect 1 0 5 0;
#X connect 1 1 2 0;
#X connect 2 0 3 0;
#X connect 3 0 4 0;
#X connect 4 0 5 1;
#X restore 22 97 pd receive;
#N canvas 0 23 450 300 check 0;
#X text 77 23 check the amt;
#X obj 142 45 r aDdd-s;
#X obj 142 68 list split 1;
#X obj 182 133 > 0;
#X msg 219 132 0;
#X obj 182 156 sel 1;
#X obj 182 99 t a a;
#X obj 182 179 f;
#X obj 65 103 s \$1-get;
#X obj 42 68 t b b b;
#X obj 135 220 f;
#X obj 18 6 inlet;
#X obj 135 243 outlet;
#X connect 1 0 2 0;
#X connect 2 1 6 0;
#X connect 3 0 5 0;
#X connect 4 0 3 1;
#X connect 5 0 7 0;
#X connect 6 0 3 0;
#X connect 6 1 7 1;
#X connect 7 0 10 1;
#X connect 9 0 10 0;
#X connect 9 1 8 0;
#X connect 9 2 4 0;
#X connect 10 0 12 0;
#X connect 11 0 9 0;
#X restore 214 180 pd check;
#X obj 218 150 bng 15 250 50 0 empty empty empty 17 7 0 10 -262144
-1 -1;
#X floatatom 214 203 5 0 0 0 - - -;
#N canvas 0 23 450 300 recall 0;
#X obj 20 22 inlet;
#X obj 20 45 t a b;
#X obj 20 93 until;
#X obj 20 116 i;
#X obj 54 116 + 1;
#X msg 52 68 1;
#X obj 155 134 text define temp-\$0;
#X connect 0 0 1 0;
#X connect 1 0 2 0;
#X connect 1 1 5 0;
#X connect 2 0 3 0;
#X connect 3 0 4 0;
#X connect 4 0 3 1;
#X connect 5 0 3 1;
#X restore 195 252 pd recall;
#X connect 0 0 1 0;
#X connect 6 0 8 0;
#X connect 7 0 6 0;
