#N canvas 145 203 809 463 10;
#X msg 547 194 tempo \$1;
#X msg 281 200 resolution \$1;
#X msg 388 203 reset \$1 \$2;
#X obj 388 182 pack f f;
#X obj 168 188 tgl 15 0 empty empty empty 17 7 0 10 -262144 -1 -1 1
1;
#X floatatom 433 163 5 0 0 2 quantum - -, f 5;
#X floatatom 388 163 5 0 0 2 beat - -, f 5;
#X floatatom 281 180 5 0 0 2 resolution - -, f 5;
#X msg 168 213 connect \$1;
#X obj 21 367 r #abl_link_num_peers;
#X msg 168 77 1;
#X obj 547 30 inlet tempo;
#X obj 21 388 outlet number-o-peers;
#X obj 354 371 s master-phase;
#X text 330 298 beat-time;
#X obj 470 313 s master-tempo;
#X obj 428 344 s master-beat;
#X obj 281 408 s master-step;
#X obj 606 269 r master-phase;
#X obj 606 319 * 360;
#X obj 606 346 i;
#X obj 606 404 s master-phase-360;
#X obj 606 292 wrap;
#X obj 482 394 outlet tempo;
#X obj 606 374 clockfix;
#X obj 281 275 abl_link~ 1 0 4 120, f 32;
#X connect 0 0 25 0;
#X connect 1 0 25 0;
#X connect 2 0 25 0;
#X connect 3 0 2 0;
#X connect 4 0 8 0;
#X connect 5 0 3 1;
#X connect 6 0 3 0;
#X connect 7 0 1 0;
#X connect 8 0 25 0;
#X connect 9 0 12 0;
#X connect 10 0 4 0;
#X connect 11 0 0 0;
#X connect 18 0 22 0;
#X connect 19 0 20 0;
#X connect 20 0 24 0;
#X connect 22 0 19 0;
#X connect 24 0 21 0;
#X connect 25 0 17 0;
#X connect 25 1 13 0;
#X connect 25 2 16 0;
#X connect 25 3 15 0;
#X connect 25 3 23 0;
