#N canvas 295 286 450 429 12;
#X obj 21 12 inlet messages;
#N canvas 520 372 838 300 messes 0;
#X obj 37 37 inlet;
#X obj 37 236 text define presets-\$0;
#X obj 120 135 list prepend write;
#X obj 120 85 t b;
#X obj 37 83 t b;
#X obj 37 167 list prepend read;
#X obj 37 208 list trim;
#X obj 120 111 symbol \$2;
#X obj 37 143 symbol \$2;
#X obj 37 60 route load save store recall, f 90;
#N canvas 0 23 450 300 check 0;
#X text 77 23 check the amt;
#X obj 42 68 t b b b;
#X obj 110 203 f;
#X obj 18 6 inlet;
#X obj 135 243 outlet;
#X obj 229 45 r \$1-r-num;
#X obj 65 103 s \$1-get-num;
#X obj 227 134 >;
#X obj 227 184 f;
#X obj 227 157 sel 1;
#X msg 179 98 0;
#X obj 227 92 t a a;
#X obj 227 207 t a a, f 15;
#X connect 1 0 2 0;
#X connect 1 1 6 0;
#X connect 1 2 10 0;
#X connect 2 0 4 0;
#X connect 3 0 1 0;
#X connect 5 0 11 0;
#X connect 7 0 9 0;
#X connect 8 0 12 0;
#X connect 9 0 8 0;
#X connect 10 0 7 1;
#X connect 11 0 7 0;
#X connect 11 1 8 1;
#X connect 12 0 2 1;
#X connect 12 1 7 1;
#X restore 507 124 pd check;
#N canvas 0 23 450 300 recall 0;
#X obj 20 22 inlet;
#X obj 20 45 t a b;
#X obj 20 93 until;
#X obj 20 116 i;
#X obj 54 116 + 1;
#X obj 219 19 inlet;
#X obj 219 42 text get presets-\$0;
#X obj 219 83 text fromlist pre-temp-\$0;
#X obj 20 187 text get pre-temp-\$0, f 25;
#X msg 52 68 0;
#X obj 20 210 pack 0 0 s;
#X obj 20 139 t a a b;
#X obj 89 161 symbol \$1;
#X msg 20 233 \; \$3-\$2-r \$1;
#X connect 0 0 1 0;
#X connect 1 0 2 0;
#X connect 1 1 9 0;
#X connect 2 0 3 0;
#X connect 3 0 4 0;
#X connect 3 0 11 0;
#X connect 4 0 3 1;
#X connect 5 0 6 0;
#X connect 6 0 7 0;
#X connect 8 0 10 0;
#X connect 9 0 3 1;
#X connect 10 0 13 0;
#X connect 11 0 8 0;
#X connect 11 1 10 1;
#X connect 11 2 12 0;
#X connect 12 0 10 2;
#X restore 507 189 pd recall;
#X obj 507 85 t b f;
#X obj 507 147 + 1;
#N canvas 0 23 802 509 store 0;
#X obj 53 149 text tolist pre-temp-\$0;
#X obj 53 195 text set presets-\$0;
#X obj 54 25 inlet;
#X obj 53 74 t b f b;
#X text 130 89 bang all presets to make sure each one is in the txt
file;
#X obj 102 107 s \$1-get-param;
#X obj 172 65 bng 15 250 50 0 empty empty empty 17 7 0 10 -262144 -1
-1;
#X connect 0 0 1 0;
#X connect 2 0 3 0;
#X connect 3 0 0 0;
#X connect 3 1 1 1;
#X connect 3 2 5 0;
#X connect 6 0 5 0;
#X restore 352 138 pd store;
#X connect 0 0 9 0;
#X connect 2 0 6 0;
#X connect 3 0 7 0;
#X connect 4 0 8 0;
#X connect 5 0 6 0;
#X connect 6 0 1 0;
#X connect 7 0 2 0;
#X connect 8 0 5 0;
#X connect 9 0 4 0;
#X connect 9 1 3 0;
#X connect 9 2 14 0;
#X connect 9 3 12 0;
#X connect 10 0 13 0;
#X connect 12 0 10 0;
#X connect 12 1 11 1;
#X connect 13 0 11 0;
#X restore 21 35 pd messes;
#X text 225 56 Arg 2: textfile location/name;
#X text 226 28 Arg1: unique name;
#N canvas 363 111 450 300 receive 1;
#X obj 44 36 r aDdd-s;
#X obj 44 59 list split 1;
#X obj 85 115 max 0;
#X obj 85 138 i;
#X obj 44 201 text set pre-temp-\$0;
#X connect 0 0 1 0;
#X connect 1 0 4 0;
#X connect 1 1 2 0;
#X connect 2 0 3 0;
#X connect 3 0 4 1;
#X restore 22 97 pd receive;
#X obj 228 101 text define pre-temp-\$0;
#X connect 0 0 1 0;
