#N canvas 70 212 749 407 10;
#X floatatom 89 373 5 0 0 0 - - -;
#X floatatom 176 372 5 0 0 0 - - -;
#X msg 122 249 disconnect;
#X obj 89 67 symbol \$1;
#X text 623 73 Arg1: ip address;
#X text 615 98 Arg2: port number;
#X obj 89 88 pack s \$2;
#X msg 89 120 connect \$1 \$2;
#X obj 598 13 inlet send-messages;
#X obj 235 244 list prepend send;
#X obj 235 265 list trim;
#X obj 89 20 inlet bang-to-connect;
#X obj 89 41 t b;
#X obj 235 105 list prepend bpm;
#X obj 598 36 s \$0-messages;
#X obj 254 133 r \$0-messages;
#X obj 235 16 inlet BPM;
#X obj 235 69 t f f, f 11;
#X obj 235 39 clip 10 360;
#X obj 411 15 inlet sync;
#X obj 411 88 t b;
#X obj 89 339 netsend -u;
#X msg 411 111 sync 0;
#X connect 2 0 21 0;
#X connect 3 0 6 0;
#X connect 6 0 7 0;
#X connect 7 0 21 0;
#X connect 8 0 14 0;
#X connect 9 0 10 0;
#X connect 10 0 21 0;
#X connect 11 0 12 0;
#X connect 12 0 3 0;
#X connect 13 0 9 0;
#X connect 15 0 9 0;
#X connect 16 0 18 0;
#X connect 17 0 13 0;
#X connect 18 0 17 0;
#X connect 19 0 20 0;
#X connect 20 0 22 0;
#X connect 21 0 0 0;
#X connect 21 1 1 0;
#X connect 22 0 9 0;
