#N canvas 255 211 499 336 12;
#X text 154 6 Arg 1: unique name match the jwy-preset-main;
#X obj 9 42 inlet manual-inlet;
#X text 154 23 Arg 2: number of preset(int);
#X obj 8 230 outlet to-parameter;
#X obj 136 71 r \$1-\$2-r;
#X obj 9 65 t a a;
#X text 208 70 get stored presets from main;
#X text 240 180 plug into main;
#X obj 167 169 list trim;
#X obj 167 200 s \$1-s;
#X obj 167 146 list append \$2;
#X obj 167 120 f;
#X obj 230 88 r \$1-get;
#X connect 1 0 5 0;
#X connect 4 0 3 0;
#X connect 5 0 3 0;
#X connect 5 1 11 0;
#X connect 8 0 9 0;
#X connect 10 0 8 0;
#X connect 11 0 10 0;
#X connect 12 0 11 0;
