#N canvas 175 162 606 397 10;
#X obj 49 27 inlet;
#X obj 49 49 route listen;
#X obj 92 321 s jwy-sync-pulse;
#X obj 135 294 s jwy-sync-bpm;
#X obj 49 346 s jwy-sync-notes-in;
#X obj 49 104 list prepend listen;
#X obj 49 126 list trim;
#X obj 49 77 f \$1;
#X obj 178 268 s jwy-sync-count;
#X obj 49 164 netreceive -u \$1;
#X obj 49 196 route note sync bpm count;
#X obj 198 226 outlet more-messages;
#X connect 0 0 1 0;
#X connect 1 0 7 0;
#X connect 5 0 6 0;
#X connect 6 0 9 0;
#X connect 7 0 5 0;
#X connect 9 0 10 0;
#X connect 10 0 4 0;
#X connect 10 1 2 0;
#X connect 10 2 3 0;
#X connect 10 3 8 0;
#X connect 10 4 11 0;
