#N canvas 21 361 749 407 10;
#X floatatom 89 373 5 0 0 0 - - -;
#X floatatom 176 372 5 0 0 0 - - -;
#X msg 149 301 disconnect;
#X obj 89 339 netsend -u 3000;
#X obj 89 67 symbol \$1;
#X text 623 73 Arg1: ip address;
#X text 615 98 Arg2: port number;
#X obj 89 88 pack s \$2;
#X msg 89 120 connect \$1 \$2;
#X obj 598 13 inlet send-messages;
#X obj 235 164 list prepend send;
#X obj 235 185 list trim;
#X obj 89 20 inlet bang-to-connect;
#X obj 89 41 t b;
#X obj 235 105 list prepend bpm;
#X obj 331 337 list prepend count;
#X obj 598 36 s \$0-messages;
#X obj 254 133 r \$0-messages;
#X obj 235 16 inlet BPM;
#X obj 346 18 inlet Restart;
#X obj 358 313 outlet count;
#X msg 358 155 60000 \$1;
#X obj 358 178 /;
#X obj 331 241 f;
#X obj 362 241 + 1;
#X obj 331 264 i;
#X obj 331 209 metro;
#X obj 346 41 t b;
#X msg 346 64 0;
#X obj 331 287 t f f;
#X obj 331 360 s \$0-messages;
#X obj 235 69 t f f, f 11;
#X obj 235 39 clip 10 360;
#X obj 454 18 inlet on/off;
#X connect 2 0 3 0;
#X connect 3 0 0 0;
#X connect 3 1 1 0;
#X connect 4 0 7 0;
#X connect 7 0 8 0;
#X connect 8 0 3 0;
#X connect 9 0 16 0;
#X connect 10 0 11 0;
#X connect 11 0 3 0;
#X connect 12 0 13 0;
#X connect 13 0 4 0;
#X connect 14 0 10 0;
#X connect 15 0 30 0;
#X connect 17 0 10 0;
#X connect 18 0 32 0;
#X connect 19 0 27 0;
#X connect 21 0 22 0;
#X connect 22 0 26 1;
#X connect 23 0 24 0;
#X connect 23 0 25 0;
#X connect 24 0 23 1;
#X connect 25 0 29 0;
#X connect 26 0 23 0;
#X connect 27 0 28 0;
#X connect 28 0 23 1;
#X connect 29 0 15 0;
#X connect 29 1 20 0;
#X connect 31 0 14 0;
#X connect 31 1 21 0;
#X connect 32 0 31 0;
#X connect 33 0 26 0;
