#N canvas 129 162 612 397 10;
#X obj 49 27 inlet;
#X obj 49 49 route listen;
#X obj 92 321 s jwy-sync-pulse;
#X obj 135 294 s jwy-sync-bpm;
#X obj 49 346 s jwy-sync-notes-in;
#X obj 49 104 list prepend listen;
#X obj 49 126 list trim;
#X obj 49 77 f \$1;
#X obj 178 268 s jwy-sync-count;
#X obj 49 164 netreceive -u \$1;
#X obj 232 224 outlet more-messages;
#X obj 49 196 route note sync bpm count start;
#X obj 203 246 s jwy-sync-start;
#X obj 189 221 t b;
#X obj 85 245 t b;
#X connect 0 0 1 0;
#X connect 1 0 7 0;
#X connect 5 0 6 0;
#X connect 6 0 9 0;
#X connect 7 0 5 0;
#X connect 9 0 11 0;
#X connect 11 0 4 0;
#X connect 11 1 14 0;
#X connect 11 2 3 0;
#X connect 11 3 8 0;
#X connect 11 4 13 0;
#X connect 11 5 10 0;
#X connect 13 0 12 0;
#X connect 14 0 2 0;
