#N canvas 148 185 809 463 10;
#X msg 547 194 tempo \$1;
#X msg 281 200 resolution \$1;
#X msg 388 203 reset \$1 \$2;
#X obj 388 182 pack f f;
#X msg 326 89 \; pd dsp 1;
#X obj 168 188 tgl 15 0 empty empty empty 17 7 0 10 -262144 -1 -1 1
1;
#X floatatom 433 163 5 0 0 2 quantum - -;
#X floatatom 388 163 5 0 0 2 beat - -;
#X floatatom 281 180 5 0 0 2 resolution - -;
#X msg 168 213 connect \$1;
#X obj 21 367 r #abl_link_num_peers;
#X obj 269 21 loadbang;
#X obj 269 63 t b b, f 10;
#X msg 269 84 1;
#X obj 547 30 inlet tempo;
#X obj 21 388 outlet number-o-peers;
#X obj 354 371 s master-phase;
#X text 330 298 beat-time;
#X obj 470 313 s master-tempo;
#X obj 428 344 s master-beat;
#X obj 281 408 s master-step;
#X obj 269 42 del 500;
#X obj 595 322 r master-phase;
#X obj 595 372 * 360;
#X obj 595 399 i;
#X obj 654 407 s master-phase-360;
#X obj 281 275 ABL/abl_link~ 1 0 4 120, f 32;
#X obj 595 345 wrap;
#X obj 482 394 outlet tempo;
#X obj 654 377 clockfix;
#X connect 0 0 26 0;
#X connect 1 0 26 0;
#X connect 2 0 26 0;
#X connect 3 0 2 0;
#X connect 5 0 9 0;
#X connect 6 0 3 1;
#X connect 7 0 3 0;
#X connect 8 0 1 0;
#X connect 9 0 26 0;
#X connect 10 0 15 0;
#X connect 11 0 21 0;
#X connect 12 0 13 0;
#X connect 12 1 4 0;
#X connect 13 0 5 0;
#X connect 14 0 0 0;
#X connect 21 0 12 0;
#X connect 22 0 27 0;
#X connect 23 0 24 0;
#X connect 24 0 29 0;
#X connect 26 0 20 0;
#X connect 26 1 16 0;
#X connect 26 2 19 0;
#X connect 26 3 18 0;
#X connect 26 3 28 0;
#X connect 27 0 23 0;
#X connect 29 0 25 0;
