#N canvas 44 329 658 510 10;
#X msg 437 182 60000 \$1;
#X obj 437 205 /;
#X obj 236 334 f;
#X obj 264 334 + 1;
#X obj 236 410 i;
#X obj 140 18 inlet on/off;
#X obj 453 18 inlet BPM;
#X obj 236 433 outlet;
#X text 27 170 Arg1: Tick resolution(4-360);
#X obj 225 112 f \$1;
#X obj 225 183 t f f;
#X obj 225 133 max 4;
#X obj 225 154 min 360;
#X obj 437 238 / 360;
#X obj 236 387 % 360, f 12;
#X obj 290 224 i 0;
#X obj 140 39 t a b;
#X obj 290 18 inlet;
#X obj 290 39 t b;
#X obj 389 316 r local-stagger;
#X obj 236 361 +;
#X obj 389 337 f 0;
#X obj 420 338 + 1;
#X obj 389 358 % 4;
#X obj 389 381 sel 0 1 2 3, f 30;
#X msg 389 402 90;
#X msg 430 404 180;
#X msg 475 406 270;
#X msg 522 404 360;
#X obj 236 284 metro 1.388, f 34;
#X connect 0 0 1 0;
#X connect 1 0 13 0;
#X connect 2 0 3 0;
#X connect 2 0 20 0;
#X connect 3 0 2 1;
#X connect 4 0 7 0;
#X connect 5 0 16 0;
#X connect 6 0 0 0;
#X connect 9 0 11 0;
#X connect 10 0 14 1;
#X connect 10 1 13 1;
#X connect 11 0 12 0;
#X connect 12 0 10 0;
#X connect 13 0 29 1;
#X connect 14 0 4 0;
#X connect 15 0 2 0;
#X connect 16 0 29 0;
#X connect 16 1 9 0;
#X connect 17 0 18 0;
#X connect 18 0 15 0;
#X connect 19 0 21 0;
#X connect 20 0 14 0;
#X connect 21 0 22 0;
#X connect 21 0 23 0;
#X connect 22 0 21 1;
#X connect 23 0 24 0;
#X connect 24 0 25 0;
#X connect 24 1 26 0;
#X connect 24 2 27 0;
#X connect 24 3 28 0;
#X connect 25 0 20 1;
#X connect 26 0 20 1;
#X connect 27 0 20 1;
#X connect 28 0 20 1;
#X connect 29 0 2 0;
