#N canvas 44 329 658 510 10;
#X msg 437 182 60000 \$1;
#X obj 437 205 /;
#X obj 140 18 inlet on/off;
#X obj 453 18 inlet BPM;
#X obj 236 363 outlet;
#X text 27 170 Arg1: Tick resolution(4-360);
#X obj 290 18 inlet;
#X obj 290 39 t b;
#X obj 236 284 metro 1.388, f 34;
#X obj 236 316 counter 360;
#X obj 236 336 - 1;
#X obj 437 238 / \$1;
#X connect 0 0 1 0;
#X connect 1 0 11 0;
#X connect 2 0 8 0;
#X connect 3 0 0 0;
#X connect 6 0 7 0;
#X connect 7 0 9 2;
#X connect 8 0 9 0;
#X connect 9 0 10 0;
#X connect 10 0 4 0;
#X connect 11 0 8 1;
