#N canvas 0 50 658 510 10;
#X msg 437 182 60000 \$1;
#X obj 437 205 /;
#X obj 236 364 f;
#X obj 264 364 + 1;
#X obj 236 410 i;
#X msg 377 77 0, f 4;
#X msg 290 73 1;
#X obj 140 18 inlet on/off;
#X obj 290 17 inlet resync;
#X obj 290 50 t b f b, f 15;
#X obj 333 247 i;
#X obj 453 18 inlet BPM;
#X obj 236 433 outlet;
#X obj 236 284 metro 5, f 34;
#X text 27 170 Arg1: Tick resolution(4-360);
#X obj 140 39 t a b;
#X obj 225 112 f \$1;
#X obj 225 183 t f f;
#X obj 225 133 max 4;
#X obj 225 154 min 360;
#X obj 437 238 / 360;
#X obj 236 387 % 360, f 12;
#X connect 0 0 1 0;
#X connect 1 0 20 0;
#X connect 2 0 3 0;
#X connect 2 0 21 0;
#X connect 3 0 2 1;
#X connect 4 0 12 0;
#X connect 5 0 13 0;
#X connect 6 0 13 0;
#X connect 7 0 15 0;
#X connect 8 0 9 0;
#X connect 9 0 6 0;
#X connect 9 1 10 0;
#X connect 9 2 5 0;
#X connect 10 0 2 1;
#X connect 11 0 0 0;
#X connect 13 0 2 0;
#X connect 15 0 13 0;
#X connect 15 1 16 0;
#X connect 16 0 18 0;
#X connect 17 0 21 1;
#X connect 17 1 20 1;
#X connect 18 0 19 0;
#X connect 19 0 17 0;
#X connect 20 0 13 1;
#X connect 21 0 4 0;
