#N canvas 0 50 658 510 10;
#X msg 437 182 60000 \$1;
#X obj 437 205 /;
#X obj 236 364 f;
#X obj 264 364 + 1;
#X obj 236 410 i;
#X obj 140 18 inlet on/off;
#X obj 453 18 inlet BPM;
#X obj 236 433 outlet;
#X obj 236 284 metro 5, f 34;
#X text 27 170 Arg1: Tick resolution(4-360);
#X obj 225 112 f \$1;
#X obj 225 183 t f f;
#X obj 225 133 max 4;
#X obj 225 154 min 360;
#X obj 437 238 / 360;
#X obj 236 387 % 360, f 12;
#X obj 290 224 i 0;
#X obj 140 39 t a b;
#X obj 290 18 inlet;
#X obj 290 39 t b;
#X connect 0 0 1 0;
#X connect 1 0 14 0;
#X connect 2 0 3 0;
#X connect 2 0 15 0;
#X connect 3 0 2 1;
#X connect 4 0 7 0;
#X connect 5 0 17 0;
#X connect 6 0 0 0;
#X connect 8 0 2 0;
#X connect 10 0 12 0;
#X connect 11 0 15 1;
#X connect 11 1 14 1;
#X connect 12 0 13 0;
#X connect 13 0 11 0;
#X connect 14 0 8 1;
#X connect 15 0 4 0;
#X connect 16 0 2 0;
#X connect 17 0 8 0;
#X connect 17 1 10 0;
#X connect 18 0 19 0;
#X connect 19 0 16 0;
