#N canvas 0 50 658 510 10;
#X msg 453 92 60000 \$1;
#X obj 453 115 /;
#X obj 453 198 / 360;
#X obj 236 364 f;
#X obj 264 364 + 1;
#X obj 236 387 % 360;
#X obj 236 410 i;
#X msg 377 77 0, f 4;
#X msg 290 73 1;
#X obj 140 18 inlet on/off;
#X obj 290 17 inlet resync;
#X obj 290 50 t b f b, f 15;
#X obj 333 247 i;
#X obj 453 18 inlet BPM;
#X obj 236 433 outlet;
#X obj 236 284 metro 5, f 34;
#X connect 0 0 1 0;
#X connect 1 0 2 0;
#X connect 2 0 15 1;
#X connect 3 0 4 0;
#X connect 3 0 5 0;
#X connect 4 0 3 1;
#X connect 5 0 6 0;
#X connect 6 0 14 0;
#X connect 7 0 15 0;
#X connect 8 0 15 0;
#X connect 9 0 15 0;
#X connect 10 0 11 0;
#X connect 11 0 8 0;
#X connect 11 1 12 0;
#X connect 11 2 7 0;
#X connect 12 0 3 1;
#X connect 13 0 0 0;
#X connect 15 0 3 0;
