#N canvas 0 23 659 459 12;
#X text 131 17 Arg 1: ctl number;
#X obj 9 50 ctlin \$1 1;
#X obj 88 50 ctlin \$1 2;
#X obj 9 173 i;
#X obj 34 256 outlet;
#X obj 88 73 sel 127;
#X obj 88 99 v \$0-bool;
#X obj 88 122 ==;
#X obj 88 145 t a a;
#X obj 120 173 v \$0-bool;
#X obj 92 191 sel 0 1;
#X msg 88 221 0;
#X obj 9 73 spigot 1;
#X obj 135 241 t b b;
#X msg 164 267 1;
#X connect 1 0 12 0;
#X connect 2 0 5 0;
#X connect 3 0 4 0;
#X connect 5 0 6 0;
#X connect 6 0 7 0;
#X connect 7 0 8 0;
#X connect 8 0 10 0;
#X connect 8 1 9 0;
#X connect 10 0 11 0;
#X connect 10 1 13 0;
#X connect 11 0 4 0;
#X connect 11 0 12 1;
#X connect 12 0 3 0;
#X connect 13 0 3 0;
#X connect 13 1 14 0;
#X connect 14 0 12 1;
