#N canvas 532 208 836 637 10;
#X obj 287 578 outlet~;
#X obj 20 47 sel 0;
#X obj 275 74 s \$0-rel;
#X obj 66 143 s \$0-vel;
#X obj 188 74 s \$0-ads;
#X obj 47 165 s \$0-ads-bang;
#X obj 20 190 s \$0-rel-bang;
#X text 431 8 examples of messages:;
#N canvas 176 144 825 648 write-ads 0;
#X obj 316 124 +;
#X obj 277 91 unpack 0 0 0 0;
#X msg 478 165 0;
#X obj 314 278 +, f 18;
#X obj 451 210 f, f 5;
#X obj 420 210 +;
#X obj 154 5 r \$0-ads;
#X obj 478 136 r \$0-ads-clear;
#X obj 27 237 r \$0-ads-clear;
#X msg 27 263 clear;
#X obj 154 35 route clear, f 21;
#X obj 154 56 t b;
#X obj 154 77 s \$0-ads-clear;
#X obj 117 190 r \$0-ads-bang;
#X obj 245 465 qlist ads;
#X obj 332 369 symbol \$0-ads-mess;
#X obj 332 347 loadbang;
#X obj 245 253 unpack 0 0 0 0;
#X obj 245 400 pack 0 0 0 0 s, f 15;
#X msg 245 440 add \$3 \$5 \$1 \$2 0 \$4;
#X obj 277 61 t a a, f 28;
#X floatatom 365 310 5 0 0 0 - - -;
#X msg 163 329 rewind \, bang;
#X obj 16 379 r \$0-rel-bang;
#X msg 16 400 rewind;
#X connect 0 0 5 0;
#X connect 1 1 0 0;
#X connect 1 2 0 1;
#X connect 2 0 5 1;
#X connect 2 0 4 1;
#X connect 2 0 0 1;
#X connect 2 0 3 1;
#X connect 3 0 18 2;
#X connect 3 0 21 0;
#X connect 4 0 5 1;
#X connect 5 0 4 0;
#X connect 5 0 3 1;
#X connect 6 0 10 0;
#X connect 7 0 2 0;
#X connect 8 0 9 0;
#X connect 9 0 14 0;
#X connect 10 0 11 0;
#X connect 10 1 20 0;
#X connect 11 0 12 0;
#X connect 13 0 22 0;
#X connect 15 0 18 4;
#X connect 16 0 15 0;
#X connect 17 0 18 0;
#X connect 17 1 18 1;
#X connect 17 2 3 0;
#X connect 17 3 18 3;
#X connect 18 0 19 0;
#X connect 19 0 14 0;
#X connect 20 0 1 0;
#X connect 20 1 17 0;
#X connect 22 0 14 0;
#X connect 23 0 24 0;
#X connect 24 0 14 0;
#X restore 267 125 pd write-ads - - - - - - - -;
#N canvas 40 108 1230 634 write-r 0;
#X obj 914 151 +;
#X obj 875 118 unpack 0 0 0 0;
#X msg 1076 192 0;
#X obj 912 305 +, f 18;
#X obj 1049 237 f, f 5;
#X obj 1018 237 +;
#X msg 625 290 clear;
#X obj 752 62 route clear, f 21;
#X obj 752 83 t b;
#X obj 930 374 loadbang;
#X obj 843 280 unpack 0 0 0 0;
#X obj 843 427 pack 0 0 0 0 s, f 15;
#X msg 843 467 add \$3 \$5 \$1 \$2 0 \$4;
#X obj 875 88 t a a, f 28;
#X floatatom 963 337 5 0 0 0 - - -;
#X msg 761 356 rewind \, bang;
#X msg 614 427 rewind;
#X obj 752 32 r \$0-rel;
#X obj 752 104 s \$0-r-clear;
#X obj 716 216 r \$0-rel-bang;
#X obj 626 264 r \$0-r-clear;
#X obj 614 406 r \$0-ads-bang;
#X obj 930 396 symbol \$0-ads-mess;
#X obj 843 492 qlist rel;
#X obj 1076 163 r \$0-r-clear;
#X connect 0 0 5 0;
#X connect 1 1 0 0;
#X connect 1 2 0 1;
#X connect 2 0 5 1;
#X connect 2 0 4 1;
#X connect 2 0 0 1;
#X connect 2 0 3 1;
#X connect 3 0 11 2;
#X connect 3 0 14 0;
#X connect 4 0 5 1;
#X connect 5 0 4 0;
#X connect 5 0 3 1;
#X connect 6 0 23 0;
#X connect 7 0 8 0;
#X connect 7 1 13 0;
#X connect 8 0 18 0;
#X connect 9 0 22 0;
#X connect 10 0 11 0;
#X connect 10 1 11 1;
#X connect 10 2 3 0;
#X connect 10 3 11 3;
#X connect 11 0 12 0;
#X connect 12 0 23 0;
#X connect 13 0 1 0;
#X connect 13 1 10 0;
#X connect 15 0 23 0;
#X connect 16 0 23 0;
#X connect 17 0 7 0;
#X connect 19 0 15 0;
#X connect 20 0 6 0;
#X connect 21 0 16 0;
#X connect 22 0 11 4;
#X connect 24 0 2 0;
#X restore 314 145 pd write-r - - - -;
#X obj 188 26 inlet ads;
#X obj 275 23 inlet rel;
#X obj 47 71 t b f b;
#X obj 66 111 / 127;
#X obj 20 26 inlet vel(0-127);
#X obj 287 534 *~;
#X obj 302 504 r \$0-vel;
#X obj 287 404 vline~;
#X obj 287 425 pow~ 2, f 27;
#X obj 287 292 expr pow($f1 \, 1/$f2), f 26;
#X obj 413 492 expr pow($f1 \, 1/$f2);
#X obj 413 469 snapshot~;
#X obj 413 540 s \$0-correct-vline;
#X obj 297 373 r \$0-correct-vline;
#X obj 287 333 pack 0 0 0;
#X obj 287 187 unpack 0 0 0 0;
#X msg 435 30 clear \, 1 8 4 \, 0.24 0.25 300;
#X msg 437 53 clear \, 0 500 0 0.25 \, 1 500 0 0.25;
#X floatatom 368 238 5 0 0 0 - - -;
#X msg 413 513 \$1 0;
#X obj 426 224 t b a a a, f 20;
#X obj 287 166 r \$0-ads-mess;
#X floatatom 474 521 5 0 0 0 - - -;
#X connect 1 0 6 0;
#X connect 1 1 12 0;
#X connect 10 0 4 0;
#X connect 11 0 2 0;
#X connect 12 0 5 0;
#X connect 12 1 13 0;
#X connect 13 0 3 0;
#X connect 14 0 1 0;
#X connect 15 0 0 0;
#X connect 16 0 15 1;
#X connect 17 0 18 0;
#X connect 18 0 21 0;
#X connect 18 0 15 0;
#X connect 19 0 24 0;
#X connect 20 0 29 0;
#X connect 20 0 32 0;
#X connect 21 0 20 0;
#X connect 23 0 17 0;
#X connect 24 0 17 0;
#X connect 25 0 19 0;
#X connect 25 1 24 1;
#X connect 25 2 24 2;
#X connect 25 3 28 0;
#X connect 25 3 30 0;
#X connect 29 0 22 0;
#X connect 30 0 21 0;
#X connect 30 1 19 1;
#X connect 30 2 18 1;
#X connect 30 3 20 1;
#X connect 31 0 25 0;
