#N canvas 437 242 450 300 10;
#X obj 282 22 inlet;
#X obj 46 194 t f f;
#X obj 46 215 *;
#X obj 46 276 outlet;
#X obj 87 71 unpack 0 0;
#X obj 46 236 *, f 15;
#X obj 41 116 pack 0 0;
#X msg 41 70 1;
#X obj 87 92 t f f;
#X msg 161 144 \$1 0;
#X obj 41 49 t b a b, f 16;
#X obj 161 123 f \$1;
#X obj 46 173 line \$1 1000;
#X obj 274 72 / 520;
#X obj 274 93 pack 0 0;
#X obj 274 114 line 60 1000;
#X obj 274 135 pow 2;
#X obj 274 156 * 520;
#X floatatom 274 177 5 0 0 0 - - -;
#X obj 277 50 unpack 0 0;
#X msg 347 17 50 100;
#X connect 0 0 19 0;
#X connect 1 0 2 0;
#X connect 1 1 2 1;
#X connect 2 0 5 0;
#X connect 4 0 8 0;
#X connect 4 1 6 1;
#X connect 5 0 3 0;
#X connect 6 0 12 0;
#X connect 7 0 6 0;
#X connect 8 0 5 1;
#X connect 8 1 11 1;
#X connect 10 0 7 0;
#X connect 10 1 4 0;
#X connect 10 2 11 0;
#X connect 11 0 9 0;
#X connect 12 0 1 0;
#X connect 13 0 14 0;
#X connect 14 0 15 0;
#X connect 15 0 16 0;
#X connect 16 0 17 0;
#X connect 17 0 18 0;
#X connect 19 0 13 0;
#X connect 19 1 15 2;
#X connect 20 0 19 0;
