#N canvas 477 348 647 431 10;
#X obj 64 17 inlet midi-number;
#X obj 454 11 inlet note-length;
#X obj 263 14 inlet note-vel;
#X obj 263 55 s \$0-vel;
#X obj 454 72 s \$0-len;
#X obj 306 155 del \$2, f 13;
#X obj 64 210 pack 0 \$1;
#X obj 115 186 r \$0-vel;
#X obj 368 131 r \$0-len;
#X obj 460 282 pack 0 0;
#X obj 154 134 s \$0-midi;
#X obj 448 199 r \$0-midi;
#X obj 427 256 sel -1;
#X obj 427 224 f -1;
#X msg 306 132 stop;
#X obj 213 382 outlet;
#X obj 263 35 clip 1 127;
#X obj 454 40 max 1;
#X obj 64 99 t f f b b b, f 61;
#X connect 0 0 18 0;
#X connect 1 0 17 0;
#X connect 2 0 16 0;
#X connect 5 0 13 0;
#X connect 6 0 15 0;
#X connect 7 0 6 1;
#X connect 8 0 5 1;
#X connect 9 0 15 0;
#X connect 11 0 13 1;
#X connect 12 1 9 0;
#X connect 13 0 12 0;
#X connect 14 0 5 0;
#X connect 16 0 3 0;
#X connect 17 0 4 0;
#X connect 18 0 6 0;
#X connect 18 1 10 0;
#X connect 18 2 5 0;
#X connect 18 3 14 0;
#X connect 18 4 13 0;
