#N canvas 70 80 1279 728 10;
#X obj 148 3 inlet;
#X obj 143 530 outlet~;
#X obj 194 378 vline~;
#X obj 28 392 *~, f 9;
#X obj 67 100 vline~;
#X obj 27 233 +~;
#X obj 28 362 osc~;
#X obj 148 44 / 127;
#X obj 148 65 sqrt;
#X obj 143 508 hip~ 4;
#X obj 148 24 t a b, f 40;
#X obj 1050 642 switch~;
#X msg 1029 583 1;
#X msg 1093 496 stop;
#X obj 1042 471 t b b b b;
#X msg 1076 554 0;
#X obj 1076 533 del 1020;
#X obj 381 198 vline~;
#X obj 381 220 pow~ 2;
#X obj 148 86 clip 0 1;
#X obj 71 294 osc~;
#X obj 71 315 *~, f 12;
#X obj 486 219 vline~;
#X obj 486 241 pow~ 2;
#X obj 158 295 osc~;
#X obj 158 316 *~, f 12;
#X obj 312 275 *~ 7.01;
#X obj 319 304 osc~;
#X obj 319 325 *~, f 12;
#X obj 650 224 vline~;
#X obj 650 246 pow~ 2;
#X obj 67 130 pow~ 6;
#X obj 986 12 inlet off;
#X obj 729 370 vline~;
#X obj 143 477 *~, f 13;
#X msg 729 239 0 8;
#X msg 863 233 1 8;
#X obj 404 320 osc~;
#X obj 405 345 *~, f 12;
#X obj 268 168 sig~ 50;
#X obj 194 400 pow~ 4;
#X obj 977 34 t b b b;
#X msg 1036 72 0 8;
#X obj 1099 22 inlet;
#X obj 1083 94 noise~;
#X obj 1028 274 *~;
#X obj 990 190 vline~;
#X obj 990 212 pow~ 4;
#X obj 148 108 t f f b b b b b, f 141;
#X obj 72 269 *~ 3.1;
#X obj 143 270 *~ 6;
#X obj 398 295 *~ 11.01;
#X obj 1162 142 *~ 10000;
#X obj 1084 198 vcf~ 2, f 8;
#X obj 1129 227 vcf~ 2, f 8;
#X obj 1083 116 *~ 1;
#X obj 1163 163 +~ 1000;
#X obj 143 456 *~ 0.8;
#X msg 267 66 1 1 \, 0.5 3 1 \, 0 100 3 \, 0 100 227;
#X obj 67 159 *~ 900;
#X msg 992 167 0.7 8 \, 0 22 8;
#X msg 380 166 0.12 15 \, 0 234 15;
#X msg 377 530 \$1 8 \, 0.85 200 8 \, 0.5 125 200 \, 0 100 325;
#X msg 649 192 0.1 1 \, 0 78 1;
#X msg 501 184 0.01 4 \, 0 200 4;
#X connect 0 0 10 0;
#X connect 2 0 40 0;
#X connect 3 0 57 0;
#X connect 4 0 31 0;
#X connect 5 0 6 0;
#X connect 6 0 3 0;
#X connect 7 0 8 0;
#X connect 8 0 19 0;
#X connect 9 0 1 0;
#X connect 10 0 7 0;
#X connect 10 1 14 0;
#X connect 12 0 11 0;
#X connect 13 0 16 0;
#X connect 14 1 12 0;
#X connect 14 2 16 0;
#X connect 14 3 13 0;
#X connect 15 0 11 0;
#X connect 16 0 15 0;
#X connect 17 0 18 0;
#X connect 18 0 21 1;
#X connect 19 0 48 0;
#X connect 20 0 21 0;
#X connect 21 0 57 0;
#X connect 22 0 23 0;
#X connect 23 0 25 1;
#X connect 23 0 38 1;
#X connect 24 0 25 0;
#X connect 25 0 57 0;
#X connect 26 0 27 0;
#X connect 27 0 28 0;
#X connect 28 0 57 0;
#X connect 29 0 30 0;
#X connect 30 0 28 1;
#X connect 31 0 59 0;
#X connect 32 0 41 0;
#X connect 33 0 34 1;
#X connect 34 0 9 0;
#X connect 35 0 33 0;
#X connect 36 0 33 0;
#X connect 37 0 38 0;
#X connect 38 0 57 0;
#X connect 39 0 5 0;
#X connect 39 0 26 0;
#X connect 39 0 49 0;
#X connect 39 0 50 0;
#X connect 39 0 51 0;
#X connect 40 0 3 1;
#X connect 41 0 35 0;
#X connect 41 1 14 0;
#X connect 41 2 42 0;
#X connect 42 0 4 0;
#X connect 43 0 39 0;
#X connect 44 0 55 0;
#X connect 45 0 57 0;
#X connect 46 0 47 0;
#X connect 47 0 45 1;
#X connect 47 0 52 0;
#X connect 48 0 62 0;
#X connect 48 1 58 0;
#X connect 48 2 61 0;
#X connect 48 3 64 0;
#X connect 48 4 63 0;
#X connect 48 5 36 0;
#X connect 48 6 60 0;
#X connect 49 0 20 0;
#X connect 50 0 24 0;
#X connect 51 0 37 0;
#X connect 52 0 56 0;
#X connect 53 1 54 0;
#X connect 54 0 45 0;
#X connect 55 0 53 0;
#X connect 56 0 53 1;
#X connect 56 0 54 1;
#X connect 57 0 34 0;
#X connect 58 0 4 0;
#X connect 59 0 5 1;
#X connect 60 0 46 0;
#X connect 61 0 17 0;
#X connect 62 0 2 0;
#X connect 63 0 29 0;
#X connect 64 0 22 0;
