#N canvas 11 23 1064 762 12;
#X text 52 128 an all in one envelope generator;
#X obj 37 221 sel 0;
#X obj 69 404 s \$0-vel;
#X obj 37 461 s \$0-rel-bang;
#X obj 648 206 inlet messages;
#N canvas 588 327 594 442 messages 0;
#X obj 37 37 inlet;
#X obj 49 232 max 0.01;
#X obj 120 192 max 0.01;
#X obj 49 263 s \$0-ads-time-scale;
#X obj 120 223 s \$0-rel-time-scale;
#X obj 256 131 i;
#X text 426 19 -1 is off;
#X obj 296 175 t b;
#X obj 296 198 s \$0-stop;
#X obj 294 271 s \$0-sus-loop-point;
#X obj 256 154 - 1;
#X obj 294 226 max 0;
#X obj 37 60 route ads rel ads-time rel-time sus-loop-point stop rel-len
ads-len;
#X obj 351 180 s \$0-rel-length;
#X obj 439 134 s \$0-ads-length;
#X obj 348 132 max 10;
#X obj 442 111 max 10;
#X connect 0 0 12 0;
#X connect 1 0 3 0;
#X connect 2 0 4 0;
#X connect 5 0 10 0;
#X connect 7 0 8 0;
#X connect 10 0 11 0;
#X connect 11 0 9 0;
#X connect 12 2 1 0;
#X connect 12 3 2 0;
#X connect 12 4 5 0;
#X connect 12 5 7 0;
#X connect 12 6 15 0;
#X connect 12 7 16 0;
#X connect 15 0 13 0;
#X connect 16 0 14 0;
#X restore 648 249 pd messages;
#X obj 69 293 max 0;
#X obj 69 316 min 1;
#N canvas 119 42 989 758 ads 0;
#X obj 669 32 r \$0-clear-ads;
#X msg 669 55 clear;
#X text 492 120 count;
#N canvas 0 23 450 300 count-points 0;
#X obj 101 93 f 0;
#X obj 141 93 + 1;
#X obj 66 14 inlet bang;
#X obj 101 146 outlet;
#X obj 119 37 r \$0-clear-ads;
#X msg 119 60 1;
#X connect 0 0 1 0;
#X connect 0 0 3 0;
#X connect 1 0 0 1;
#X connect 2 0 0 0;
#X connect 4 0 5 0;
#X connect 5 0 0 1;
#X restore 420 135 pd count-points;
#X obj 669 78 t a a;
#X obj 98 326 t a a, f 27;
#X text 373 442 curve \, count-time \, count-time-curv;
#X obj 26 93 unpack 0 0 0, f 22;
#X text 158 36 level \, time \, curve;
#X obj 66 271 t a a;
#X obj 26 397 pack 0 0 0;
#X text 107 397 level \, time \, count-time;
#X obj 284 447 pack 0 0 0;
#X obj 284 417 f;
#X obj 284 362 t b b a;
#N canvas 0 23 877 691 trigger-with-time-scale 0;
#X obj 68 134 f;
#X obj 68 157 t a b;
#X obj 68 181 until;
#X obj 68 207 f;
#X obj 102 207 + 1;
#X msg 115 179 0;
#X obj 68 569 outlet;
#X obj 68 473 unpack 0 0 0;
#X obj 68 542 pack 0 0 0, f 12;
#X obj 108 514 * 1;
#X obj 149 515 * 1;
#X obj 99 409 outlet;
#X obj 99 313 unpack 0 0 0;
#X obj 99 382 pack 0 0 0, f 12;
#X obj 139 354 * 1;
#X obj 180 355 * 1;
#X obj 99 289 text get \$0-ads-curv;
#X obj 86 85 r \$0-ads-count;
#X obj 68 26 r \$0-ads-bang;
#X obj 68 449 text get \$0-ads;
#X obj 168 475 r \$0-ads-time-scale;
#X obj 199 315 r \$0-ads-time-scale;
#X obj 68 230 t a a;
#X obj 296 132 text get \$0-ads;
#X obj 296 107 f;
#X obj 314 53 r \$0-ads-count;
#X obj 377 246 * 1;
#X obj 395 217 r \$0-ads-time-scale;
#X obj 296 162 unpack 0 0 0;
#X obj 377 332 del, f 7;
#X obj 377 269 t b a b;
#X msg 423 296 stop;
#X obj 377 355 outlet trigger-sustian;
#X obj 86 108 + 1;
#X obj 481 252 r \$0-rel-bang;
#X obj 314 76 - 1;
#X obj 341 211 +;
#X obj 68 49 t b b, f 33;
#X connect 0 0 1 0;
#X connect 1 0 2 0;
#X connect 1 1 5 0;
#X connect 2 0 3 0;
#X connect 3 0 4 0;
#X connect 3 0 22 0;
#X connect 4 0 3 1;
#X connect 5 0 3 1;
#X connect 7 0 8 0;
#X connect 7 1 9 0;
#X connect 7 2 10 0;
#X connect 8 0 6 0;
#X connect 9 0 8 1;
#X connect 10 0 8 2;
#X connect 12 0 13 0;
#X connect 12 1 14 0;
#X connect 12 2 15 0;
#X connect 13 0 11 0;
#X connect 14 0 13 1;
#X connect 15 0 13 2;
#X connect 16 0 12 0;
#X connect 17 0 33 0;
#X connect 18 0 37 0;
#X connect 19 0 7 0;
#X connect 20 0 9 1;
#X connect 20 0 10 1;
#X connect 21 0 14 1;
#X connect 21 0 15 1;
#X connect 22 0 19 0;
#X connect 22 1 16 0;
#X connect 23 0 28 0;
#X connect 24 0 23 0;
#X connect 25 0 35 0;
#X connect 26 0 30 0;
#X connect 27 0 26 1;
#X connect 28 1 36 0;
#X connect 28 2 36 1;
#X connect 29 0 32 0;
#X connect 30 0 29 0;
#X connect 30 1 29 1;
#X connect 30 2 31 0;
#X connect 31 0 29 0;
#X connect 33 0 0 1;
#X connect 34 0 31 0;
#X connect 35 0 24 1;
#X connect 36 0 26 0;
#X connect 37 0 0 0;
#X connect 37 1 24 0;
#X restore 219 566 pd trigger-with-time-scale;
#X obj 219 679 outlet;
#X obj 308 680 outlet;
#X obj 26 37 r \$0-ads-numbers;
#X obj 669 121 text define \$0-ads;
#X obj 701 100 text define \$0-ads-curv;
#X obj 284 504 text set \$0-ads-curv;
#X obj 329 477 r \$0-ads-count;
#X obj 26 445 text set \$0-ads;
#X obj 60 421 r \$0-ads-count;
#X obj 420 158 s \$0-ads-count;
#X obj 26 116 max 0;
#X obj 26 139 min 1;
#N canvas 638 263 450 300 count-time(total-time) 0;
#X obj 73 121 f 0;
#X msg 91 95 0;
#X obj 41 14 inlet;
#X text 127 10 adds the total delay amounts for vline~ syntax;
#X obj 41 37 t a b;
#X obj 73 144 t a a;
#X obj 105 189 outlet;
#X obj 41 179 +;
#X obj 91 72 r \$0-clear-ads;
#X connect 0 0 5 0;
#X connect 1 0 0 1;
#X connect 2 0 4 0;
#X connect 4 0 7 0;
#X connect 4 1 0 0;
#X connect 5 0 7 1;
#X connect 5 1 6 0;
#X connect 7 0 0 1;
#X connect 8 0 1 0;
#X restore 98 303 pd count-time(total-time);
#X obj 179 175 t a a;
#N canvas 424 194 1016 684 curve-math 0;
#X obj 150 187 pow 0.25;
#X obj 204 127 expr 1 / $f1;
#X obj 183 30 inlet curve-number;
#X obj 59 30 inlet og-number;
#X obj 150 210 outlet;
#X connect 0 0 4 0;
#X connect 1 0 0 1;
#X connect 2 0 1 0;
#X connect 3 0 0 0;
#X restore 26 217 pd curve-math;
#X f 19;
#X obj 483 666 outlet sustain-loop;
#X obj 140 116 r \$0-rel-length;
#X obj 101 141 expr $f2 / $f1;
#X obj 26 60 t a b, f 57;
#X msg 317 417 8;
#X connect 0 0 1 0;
#X connect 1 0 4 0;
#X connect 3 0 25 0;
#X connect 4 0 19 0;
#X connect 4 1 20 0;
#X connect 5 0 10 2;
#X connect 5 1 14 0;
#X connect 7 0 26 0;
#X connect 7 1 33 0;
#X connect 7 2 29 0;
#X connect 9 0 10 1;
#X connect 9 1 28 0;
#X connect 10 0 23 0;
#X connect 12 0 21 0;
#X connect 13 0 12 0;
#X connect 14 0 13 0;
#X connect 14 1 35 0;
#X connect 14 2 12 2;
#X connect 15 0 16 0;
#X connect 15 1 17 0;
#X connect 15 2 31 0;
#X connect 18 0 34 0;
#X connect 22 0 21 1;
#X connect 24 0 23 1;
#X connect 26 0 27 0;
#X connect 27 0 30 0;
#X connect 28 0 5 0;
#X connect 29 0 30 1;
#X connect 29 1 13 1;
#X connect 30 0 10 0;
#X connect 32 0 33 1;
#X connect 33 0 9 0;
#X connect 34 0 7 0;
#X connect 34 1 3 0;
#X connect 35 0 12 1;
#X restore 239 361 pd ads;
#X f 21;
#X obj 69 255 / 127;
#X obj 37 200 inlet vel(0-127);
#X obj 193 273 s \$0-clear-ads;
#X obj 193 200 inlet ads;
#X obj 193 223 route clear;
#X obj 193 246 t b;
#X obj 267 250 s \$0-ads-numbers;
#X obj 413 214 route clear;
#X obj 413 242 t b;
#X obj 487 241 s \$0-rel-numbers;
#X obj 413 274 s \$0-clear-rel;
#X obj 413 191 inlet rel;
#X obj 393 625 outlet~;
#N canvas 119 42 989 723 rel 0;
#X msg 569 55 clear;
#X text 403 97 count;
#N canvas 0 23 450 300 count-points 0;
#X obj 101 93 f 0;
#X obj 141 93 + 1;
#X obj 66 14 inlet bang;
#X obj 101 146 outlet;
#X msg 119 60 1;
#X obj 119 37 r \$0-clear-rel;
#X connect 0 0 1 0;
#X connect 0 0 3 0;
#X connect 1 0 0 1;
#X connect 2 0 0 0;
#X connect 4 0 0 1;
#X connect 5 0 4 0;
#X restore 331 112 pd count-points;
#X obj 569 78 t a a;
#X obj 98 345 t a a, f 27;
#X text 373 457 curve \, count-time \, count-time-curv;
#X obj 26 102 unpack 0 0 0, f 22;
#X text 158 36 level \, time \, curve;
#X obj 66 210 t a a;
#X obj 26 396 pack 0 0 0;
#X text 107 396 level \, time \, count-time;
#X obj 284 462 pack 0 0 0;
#X obj 284 432 f;
#X obj 284 377 t b b a;
#N canvas 0 23 877 691 trigger-with-time-scale 0;
#X obj 68 134 f;
#X obj 68 157 t a b;
#X obj 68 181 until;
#X obj 68 207 f;
#X obj 102 207 + 1;
#X msg 115 179 0;
#X obj 68 569 outlet;
#X obj 68 473 unpack 0 0 0;
#X obj 68 542 pack 0 0 0, f 12;
#X obj 108 514 * 1;
#X obj 149 515 * 1;
#X obj 99 409 outlet;
#X obj 99 313 unpack 0 0 0;
#X obj 99 382 pack 0 0 0, f 12;
#X obj 139 354 * 1;
#X obj 180 355 * 1;
#X obj 68 230 t a a;
#X obj 86 108 + 1;
#X obj 199 315 r \$0-rel-time-scale;
#X obj 168 475 r \$0-rel-time-scale;
#X obj 86 85 r \$0-rel-count;
#X obj 68 26 r \$0-rel-bang;
#X obj 99 289 text get \$0-rel-curv;
#X obj 68 449 text get \$0-rel;
#X obj 68 49 t b b, f 40;
#X connect 0 0 1 0;
#X connect 1 0 2 0;
#X connect 1 1 5 0;
#X connect 2 0 3 0;
#X connect 3 0 4 0;
#X connect 3 0 16 0;
#X connect 4 0 3 1;
#X connect 5 0 3 1;
#X connect 7 0 8 0;
#X connect 7 1 9 0;
#X connect 7 2 10 0;
#X connect 8 0 6 0;
#X connect 9 0 8 1;
#X connect 10 0 8 2;
#X connect 12 0 13 0;
#X connect 12 1 14 0;
#X connect 12 2 15 0;
#X connect 13 0 11 0;
#X connect 14 0 13 1;
#X connect 15 0 13 2;
#X connect 16 0 23 0;
#X connect 16 1 22 0;
#X connect 17 0 0 1;
#X connect 18 0 14 1;
#X connect 18 0 15 1;
#X connect 19 0 9 1;
#X connect 19 0 10 1;
#X connect 20 0 17 0;
#X connect 21 0 24 0;
#X connect 22 0 12 0;
#X connect 23 0 7 0;
#X connect 24 0 0 0;
#X restore 219 626 pd trigger-with-time-scale;
#X obj 219 679 outlet;
#X obj 398 679 outlet;
#X obj 26 125 max 0;
#X obj 26 148 min 1;
#N canvas 638 263 450 300 count-time(total-time) 0;
#X obj 73 121 f 0;
#X msg 91 95 0;
#X obj 41 14 inlet;
#X text 127 10 adds the total delay amounts for vline~ syntax;
#X obj 41 37 t a b;
#X obj 73 144 t a a;
#X obj 105 189 outlet;
#X obj 41 179 +;
#X obj 91 72 r \$0-clear-rel;
#X connect 0 0 5 0;
#X connect 1 0 0 1;
#X connect 2 0 4 0;
#X connect 4 0 7 0;
#X connect 4 1 0 0;
#X connect 5 0 7 1;
#X connect 5 1 6 0;
#X connect 7 0 0 1;
#X connect 8 0 1 0;
#X restore 98 322 pd count-time(total-time);
#X obj 26 37 r \$0-rel-numbers;
#X obj 569 32 r \$0-clear-rel;
#X obj 601 100 text define \$0-rel-curv;
#X obj 569 121 text define \$0-rel;
#X obj 327 492 r \$0-rel-count;
#X obj 284 519 text set \$0-rel-curv;
#X obj 26 444 text set \$0-rel;
#X obj 60 420 r \$0-rel-count;
#X obj 331 135 s \$0-rel-count;
#X obj 179 184 t a a;
#N canvas 424 194 1016 684 curve-math 0;
#X obj 150 187 pow 0.25;
#X obj 204 127 expr 1 / $f1;
#X obj 183 30 inlet curve-number;
#X obj 59 30 inlet og-number;
#X obj 150 210 outlet;
#X connect 0 0 4 0;
#X connect 1 0 0 1;
#X connect 2 0 1 0;
#X connect 3 0 0 0;
#X restore 26 286 pd curve-math;
#X obj 26 60 t a b, f 44;
#X obj 198 122 r \$0-rel-length;
#X obj 98 151 expr $f2 / $f1;
#X msg 317 432 1;
#X connect 0 0 3 0;
#X connect 2 0 28 0;
#X connect 3 0 23 0;
#X connect 3 1 22 0;
#X connect 4 0 9 2;
#X connect 4 1 13 0;
#X connect 6 0 17 0;
#X connect 6 1 33 0;
#X connect 6 2 29 0;
#X connect 8 0 9 1;
#X connect 8 1 19 0;
#X connect 9 0 26 0;
#X connect 11 0 25 0;
#X connect 12 0 11 0;
#X connect 13 0 12 0;
#X connect 13 1 34 0;
#X connect 13 2 11 2;
#X connect 14 0 15 0;
#X connect 14 1 16 0;
#X connect 17 0 18 0;
#X connect 18 0 30 0;
#X connect 19 0 4 0;
#X connect 20 0 31 0;
#X connect 21 0 0 0;
#X connect 24 0 25 1;
#X connect 27 0 26 1;
#X connect 29 0 30 1;
#X connect 29 1 12 1;
#X connect 30 0 9 0;
#X connect 31 0 6 0;
#X connect 31 1 2 0;
#X connect 32 0 33 1;
#X connect 33 0 8 0;
#X connect 34 0 11 1;
#X restore 393 429 pd rel;
#X f 21;
#X obj 393 496 vline~;
#X obj 460 498 vline~;
#X obj 393 535 pow~ 2, f 10;
#N canvas 0 23 450 300 sus-loop 0;
#X obj 37 37 inlet;
#X restore 383 391 pd sus-loop;
#X obj 393 598 *~;
#X obj 411 571 r \$0-vel;
#X obj 69 339 t a b;
#X obj 101 373 s \$0-ads-bang;
#X connect 1 0 3 0;
#X connect 1 1 9 0;
#X connect 4 0 5 0;
#X connect 6 0 7 0;
#X connect 7 0 29 0;
#X connect 8 0 23 0;
#X connect 8 1 24 0;
#X connect 8 2 26 0;
#X connect 9 0 6 0;
#X connect 10 0 1 0;
#X connect 12 0 13 0;
#X connect 13 0 14 0;
#X connect 13 1 15 0;
#X connect 14 0 11 0;
#X connect 16 0 17 0;
#X connect 16 1 18 0;
#X connect 17 0 19 0;
#X connect 20 0 16 0;
#X connect 22 0 23 0;
#X connect 22 1 24 0;
#X connect 23 0 25 0;
#X connect 24 0 25 1;
#X connect 25 0 27 0;
#X connect 27 0 21 0;
#X connect 28 0 27 1;
#X connect 29 0 2 0;
#X connect 29 1 30 0;
#X coords 0 762 1 761 320 100 0;
