#N canvas 156 277 804 406 10;
#X obj 42 105 readsf~ 2, f 20;
#X obj 41 132 *~ 0.7;
#X obj 109 135 *~ 0.7;
#X obj 92 48 openpanel;
#X obj 92 0 bng 15 250 50 0 empty empty empty 17 7 0 10 -262144 -1
-1;
#X obj 42 58 tgl 15 0 empty empty empty 17 7 0 10 -262144 -1 -1 0 1
;
#X msg 92 69 open \$1;
#X obj 92 20 t b b;
#X msg 141 17 0;
#X obj 237 38 hsl 128 15 0 127 0 0 empty empty empty -2 -8 0 10 -262144
-1 -1 0 1;
#X obj 234 58 / 127;
#X msg 236 99 master-vol \$1;
#X obj 379 80 hsl 128 15 0 127 0 0 empty empty empty -2 -8 0 10 -262144
-1 -1 6400 1;
#X obj 375 99 / 127;
#X msg 377 140 tweet-vol \$1;
#X msg 309 208 lo-x \$1;
#X msg 374 208 hi-x \$1;
#X floatatom 309 186 5 0 0 0 - - -, f 5;
#X floatatom 374 185 5 0 0 0 - - -, f 5;
#N canvas 2 175 641 323 kick 0;
#X obj 148 3 inlet;
#X obj 143 290 outlet~;
#X obj 161 161 vline~;
#X obj 143 224 *~, f 9;
#X obj 237 35 vline~;
#X obj 59 155 +~;
#X obj 59 177 osc~;
#X obj 143 246 *~ 0.4;
#X obj 335 82 noise~;
#X obj 280 262 *~;
#X obj 242 178 vline~;
#X obj 148 25 t b b b;
#X obj 335 104 *~ 0.75;
#X obj 59 101 sig~ 55;
#X floatatom 64 51 5 0 0 0 - - -, f 5;
#X obj 143 268 hip~ 1;
#X obj 414 130 *~ 12000;
#X obj 415 152 +~ 2000;
#X obj 242 200 pow~ 4;
#X obj 389 215 vcf~ 4, f 8;
#X obj 336 186 vcf~ 2, f 8;
#X msg 244 155 1 1 \, 0 60 1;
#X obj 237 57 pow~ 4;
#X obj 129 101 *~ 1000;
#X msg 238 11 0.9 1 \, 0 43 1;
#X msg 160 129 0.9 18 \, 0 1000 18;
#X obj 161 182 pow~ 4;
#X connect 0 0 11 0;
#X connect 2 0 26 0;
#X connect 3 0 7 0;
#X connect 4 0 22 0;
#X connect 5 0 6 0;
#X connect 6 0 3 0;
#X connect 7 0 15 0;
#X connect 8 0 12 0;
#X connect 9 0 3 0;
#X connect 10 0 18 0;
#X connect 11 0 25 0;
#X connect 11 1 24 0;
#X connect 11 2 21 0;
#X connect 12 0 20 0;
#X connect 13 0 5 0;
#X connect 14 0 13 0;
#X connect 15 0 1 0;
#X connect 16 0 17 0;
#X connect 17 0 19 1;
#X connect 17 0 20 1;
#X connect 18 0 9 1;
#X connect 18 0 16 0;
#X connect 19 0 9 0;
#X connect 20 1 19 0;
#X connect 21 0 10 0;
#X connect 22 0 23 0;
#X connect 23 0 5 1;
#X connect 24 0 4 0;
#X connect 25 0 2 0;
#X connect 26 0 3 1;
#X restore 413 35 pd kick;
#X obj 416 11 bng 15 250 50 0 empty empty empty 17 7 0 10 -262144 -1
-1;
#X obj 485 15 bng 15 250 50 0 empty empty empty 17 7 0 10 -262144 -1
-1;
#X obj 482 168 tgl 15 0 empty empty empty 17 7 0 10 -262144 -1 -1 0
1;
#X floatatom 513 164 5 0 0 0 - - -, f 5;
#X obj 470 215 f;
#X obj 501 215 + 1;
#X obj 470 193 metro 125;
#N canvas 2 125 641 323 tom 0;
#X obj 148 3 inlet;
#X obj 143 294 outlet~;
#X obj 161 161 vline~;
#X obj 143 224 *~, f 9;
#X obj 237 35 vline~;
#X obj 59 155 +~;
#X obj 237 57 pow~ 2;
#X obj 59 177 osc~;
#X obj 335 82 noise~;
#X obj 362 154 +~ 2000;
#X obj 381 226 *~;
#X obj 242 178 vline~;
#X obj 242 200 pow~ 2;
#X obj 148 25 t b b b;
#X obj 362 132 *~ 16000;
#X obj 335 104 *~ 0.75;
#X msg 244 155 1 8 \, 0 30 8;
#X msg 237 10 0.9 5 \, 0 10 5;
#X obj 335 185 vcf~ 6, f 8;
#X obj 60 101 sig~ 100;
#X msg 160 129 0.9 10 \, 0 300 10;
#X obj 129 101 *~ 200;
#X obj 142 269 hip~ 1;
#X floatatom 78 74 5 0 0 0 - - -, f 5;
#X obj 162 183 pow~ 4;
#X obj 142 247 *~ 0.3;
#X connect 0 0 13 0;
#X connect 2 0 24 0;
#X connect 3 0 25 0;
#X connect 4 0 6 0;
#X connect 5 0 7 0;
#X connect 6 0 14 0;
#X connect 6 0 21 0;
#X connect 7 0 3 0;
#X connect 8 0 15 0;
#X connect 9 0 18 1;
#X connect 10 0 3 0;
#X connect 11 0 12 0;
#X connect 12 0 10 1;
#X connect 13 0 20 0;
#X connect 13 1 17 0;
#X connect 13 2 16 0;
#X connect 14 0 9 0;
#X connect 15 0 18 0;
#X connect 16 0 11 0;
#X connect 17 0 4 0;
#X connect 18 1 10 0;
#X connect 19 0 5 0;
#X connect 20 0 2 0;
#X connect 21 0 5 1;
#X connect 22 0 1 0;
#X connect 23 0 19 0;
#X connect 24 0 3 1;
#X connect 25 0 22 0;
#X restore 479 38 pd tom;
#X obj 470 259 sel 0 4 10 14;
#X obj 470 237 % 16;
#X obj 42 345 cross-over-out 2500 4000 1 0.5;
#X floatatom 580 153 5 0 0 0 - - -, f 5;
#X obj 584 197 del 398;
#X floatatom 294 142 5 0 0 0 - - -, f 5;
#X connect 0 0 1 0;
#X connect 0 1 2 0;
#X connect 1 0 30 0;
#X connect 2 0 30 0;
#X connect 3 0 6 0;
#X connect 4 0 7 0;
#X connect 5 0 0 0;
#X connect 6 0 0 0;
#X connect 7 0 3 0;
#X connect 7 1 8 0;
#X connect 8 0 5 0;
#X connect 9 0 10 0;
#X connect 10 0 11 0;
#X connect 11 0 30 1;
#X connect 12 0 13 0;
#X connect 13 0 14 0;
#X connect 14 0 30 1;
#X connect 15 0 30 1;
#X connect 16 0 30 1;
#X connect 17 0 15 0;
#X connect 18 0 16 0;
#X connect 19 0 30 0;
#X connect 20 0 19 0;
#X connect 21 0 27 0;
#X connect 22 0 26 0;
#X connect 23 0 26 1;
#X connect 24 0 25 0;
#X connect 24 0 29 0;
#X connect 25 0 24 1;
#X connect 26 0 24 0;
#X connect 27 0 30 0;
#X connect 28 0 21 0;
#X connect 28 1 20 0;
#X connect 28 2 21 0;
#X connect 28 3 32 0;
#X connect 29 0 28 0;
#X connect 31 0 32 1;
#X connect 32 0 20 0;
#X connect 33 0 17 0;
#X connect 33 0 18 0;
