#N canvas 98 284 774 389 10;
#X obj 39 16 inlet count;
#X obj 378 295 text define \$0-txt;
#X obj 133 317 outlet;
#X obj 542 202 list prepend write;
#X obj 542 223 list trim;
#X obj 378 233 list trim;
#X obj 378 212 list prepend read;
#X obj 378 162 pack s 1, f 15;
#X msg 378 187 \$1-\$2.txt;
#X obj 542 152 pack s 1, f 16;
#X msg 542 173 \$1-\$2.txt;
#X obj 378 88 t b a, f 9;
#X obj 542 90 t b a, f 12;
#N canvas 108 199 637 521 read-than-wait 0;
#X obj 209 127 text get \$0-txt;
#X obj 296 151 sel 2;
#X obj 209 150 list split 1;
#X obj 318 418 list, f 16;
#X msg 318 396 1;
#X obj 318 440 route 1;
#X msg 209 55 0;
#X obj 182 312 sel 0 1, f 27;
#X obj 209 94 f, f 10;
#X obj 300 95 + 1, f 6;
#X obj 209 6 inlet start;
#X obj 24 5 inlet current count;
#X obj 182 383 s \$0-rebang;
#X obj 285 50 r \$0-rebang;
#X obj 261 337 t b b, f 10;
#X obj 318 463 outlet;
#X obj 24 28 t b a a;
#X obj 101 53 sel 0;
#X obj 209 220 t b a;
#X obj 182 254 i;
#X obj 209 29 t b b;
#X obj 182 285 ==, f 5;
#X obj 209 196 i;
#X obj 209 173 * \$1;
#X msg 296 179 -1;
#X connect 0 0 2 0;
#X connect 0 1 1 0;
#X connect 1 0 24 0;
#X connect 2 0 23 0;
#X connect 2 1 3 1;
#X connect 3 0 5 0;
#X connect 4 0 3 0;
#X connect 5 0 15 0;
#X connect 6 0 8 0;
#X connect 7 1 14 0;
#X connect 8 0 9 0;
#X connect 8 0 0 0;
#X connect 9 0 8 1;
#X connect 10 0 20 0;
#X connect 11 0 16 0;
#X connect 13 0 8 0;
#X connect 14 0 12 0;
#X connect 14 1 4 0;
#X connect 16 1 19 0;
#X connect 16 2 17 0;
#X connect 17 0 20 0;
#X connect 18 0 19 0;
#X connect 18 1 21 1;
#X connect 19 0 21 0;
#X connect 20 0 6 0;
#X connect 21 0 7 0;
#X connect 22 0 18 0;
#X connect 23 0 22 0;
#X connect 24 0 18 0;
#X restore 106 168 pd read-than-wait;
#X obj 207 284 list, f 16;
#X obj 207 307 route 69;
#X msg 207 262 69;
#X obj 106 283 t b a;
#X msg 299 179 click;
#X obj 205 23 inlet messages;
#X obj 299 126 t b;
#X obj 205 44 route start read write openTxt, f 50;
#X text 339 350 Arg2: Path/Filename;
#X text 339 367 Arg3: How many items in the list + first time argument
;
#X text 339 330 Arg1: How many ticks (match master-ticks);
#X obj 378 141 symbol \$2;
#X obj 542 131 symbol \$2;
#X obj 106 210 list split \$3, f 28;
#X connect 0 0 13 0;
#X connect 3 0 4 0;
#X connect 4 0 1 0;
#X connect 5 0 1 0;
#X connect 6 0 5 0;
#X connect 7 0 8 0;
#X connect 8 0 6 0;
#X connect 9 0 10 0;
#X connect 10 0 3 0;
#X connect 11 0 25 0;
#X connect 11 1 7 1;
#X connect 12 0 26 0;
#X connect 12 1 9 1;
#X connect 13 0 27 0;
#X connect 14 0 15 0;
#X connect 15 0 27 0;
#X connect 16 0 14 0;
#X connect 17 0 16 0;
#X connect 17 1 2 0;
#X connect 18 0 1 0;
#X connect 19 0 21 0;
#X connect 20 0 18 0;
#X connect 21 0 13 1;
#X connect 21 1 11 0;
#X connect 21 2 12 0;
#X connect 21 3 20 0;
#X connect 25 0 7 0;
#X connect 26 0 9 0;
#X connect 27 0 17 0;
#X connect 27 1 14 1;
#X coords 0 389 1 388 -20 64 0;
