#N canvas 351 142 850 531 10;
#X obj 106 82 inlet count;
#X obj 378 357 text define \$0-txt;
#X obj 133 459 outlet;
#X obj 506 272 list prepend write;
#X obj 506 293 list trim;
#X obj 378 295 list trim;
#X obj 378 274 list prepend read;
#X obj 378 224 pack s 1, f 15;
#X msg 378 249 \$1-\$2.txt;
#X obj 506 222 pack s 1, f 16;
#X msg 506 243 \$1-\$2.txt;
#X obj 506 160 t b a, f 12;
#N canvas 108 199 637 556 read-than-wait 0;
#X obj 208 213 text get \$0-txt;
#X obj 295 237 sel 2;
#X obj 208 236 list split 1;
#X obj 322 484 list, f 16;
#X msg 322 462 1;
#X obj 322 506 route 1;
#X obj 208 180 f, f 10;
#X obj 299 181 + 1, f 6;
#X obj 208 8 inlet start;
#X obj 24 5 inlet current count;
#X obj 265 434 s \$0-rebang;
#X obj 236 154 r \$0-rebang;
#X obj 265 403 t b b, f 10;
#X obj 322 529 outlet;
#X obj 85 78 sel 0;
#X obj 208 306 t b a;
#X obj 184 330 i;
#X obj 208 282 i;
#X obj 208 259 * \$1;
#X msg 295 265 -1;
#X obj 184 378 sel 0 1 2, f 41;
#X obj 184 355 ==, f 9;
#X obj 208 127 text search \$0-txt >= 0;
#X obj 208 102 / \$1;
#X msg 85 108 0;
#X obj 208 78 f, f 7;
#X obj 24 28 t a a a, f 21;
#X connect 0 0 2 0;
#X connect 0 1 1 0;
#X connect 1 0 19 0;
#X connect 2 0 18 0;
#X connect 2 1 3 1;
#X connect 3 0 5 0;
#X connect 4 0 3 0;
#X connect 5 0 13 0;
#X connect 6 0 7 0;
#X connect 6 0 0 0;
#X connect 7 0 6 1;
#X connect 8 0 25 0;
#X connect 9 0 26 0;
#X connect 11 0 6 0;
#X connect 12 0 10 0;
#X connect 12 1 4 0;
#X connect 14 0 24 0;
#X connect 15 0 16 0;
#X connect 15 1 21 1;
#X connect 16 0 21 0;
#X connect 17 0 15 0;
#X connect 18 0 17 0;
#X connect 19 0 15 0;
#X connect 20 1 12 0;
#X connect 20 2 10 0;
#X connect 21 0 20 0;
#X connect 22 0 6 0;
#X connect 23 0 22 0;
#X connect 24 0 6 0;
#X connect 25 0 23 0;
#X connect 26 0 16 0;
#X connect 26 1 14 0;
#X connect 26 2 25 1;
#X restore 106 230 pd read-than-wait;
#X msg 728 278 click;
#X obj 205 85 inlet messages;
#X obj 728 225 t b;
#X obj 205 106 route start read write openTxt, f 76;
#X text 339 412 Arg2: Path/Filename;
#X text 339 429 Arg3: How many items in the list + first time argument
;
#X text 339 392 Arg1: How many ticks (match master-ticks);
#X obj 378 203 symbol \$2;
#X obj 506 201 symbol \$2;
#X obj 106 274 list split \$3, f 28;
#X obj 206 422 list, f 16;
#X obj 206 449 route 69;
#X msg 206 400 69;
#X obj 106 421 t b a;
#X obj 188 304 route bang;
#X msg 245 352 1;
#X obj 148 397 sel 1;
#X obj 245 331 t b a b;
#X msg 284 354 0;
#X obj 245 377 v \$0-gibt-es;
#X obj 148 376 v \$0-gibt-es;
#X obj 378 150 t b b a, f 9;
#X connect 0 0 12 0;
#X connect 3 0 4 0;
#X connect 4 0 1 0;
#X connect 5 0 1 0;
#X connect 6 0 5 0;
#X connect 7 0 8 0;
#X connect 8 0 6 0;
#X connect 9 0 10 0;
#X connect 10 0 3 0;
#X connect 11 0 21 0;
#X connect 11 1 9 1;
#X connect 12 0 22 0;
#X connect 13 0 1 0;
#X connect 14 0 16 0;
#X connect 15 0 13 0;
#X connect 16 0 12 1;
#X connect 16 1 34 0;
#X connect 16 2 11 0;
#X connect 16 3 15 0;
#X connect 20 0 7 0;
#X connect 21 0 9 0;
#X connect 22 0 26 0;
#X connect 22 1 27 0;
#X connect 23 0 24 0;
#X connect 24 0 22 0;
#X connect 25 0 23 0;
#X connect 26 0 33 0;
#X connect 26 1 2 0;
#X connect 27 0 31 0;
#X connect 27 1 30 0;
#X connect 28 0 32 0;
#X connect 29 0 25 0;
#X connect 30 0 28 0;
#X connect 30 1 23 1;
#X connect 30 2 31 0;
#X connect 31 0 32 0;
#X connect 33 0 29 0;
#X connect 34 0 12 1;
#X connect 34 1 20 0;
#X connect 34 2 7 1;
#X coords 0 531 1 530 -20 64 0;
