#N canvas 456 97 883 681 10;
#X text 85 6 Different aproach to seqq \, maybe to computationaly heavy
;
#X obj 76 71 inlet count;
#X obj 348 346 text define \$0-txt;
#X obj 104 438 outlet;
#X obj 512 253 list prepend write;
#X obj 512 274 list trim;
#X obj 348 284 list trim;
#X obj 348 263 list prepend read;
#X obj 348 213 pack s 1, f 15;
#X msg 348 238 \$1-\$2.txt;
#X obj 512 203 pack s 1, f 16;
#X msg 512 224 \$1-\$2.txt;
#X obj 348 139 t b a, f 9;
#X obj 512 141 t b a, f 12;
#X obj 177 405 list, f 16;
#X obj 177 432 route 69;
#X msg 177 383 69;
#X obj 77 404 t b a;
#X msg 269 230 click;
#X obj 175 74 inlet messages;
#X obj 269 177 t b;
#X obj 175 95 route start read write openTxt, f 50;
#X text 363 413 Arg2: Path/Filename;
#X text 363 430 Arg3: How many items in the list + first time argument
;
#X text 363 393 Arg1: How many ticks (match master-ticks);
#X obj 348 192 symbol \$2;
#X obj 512 182 symbol \$2;
#X obj 77 258 list split \$3, f 28;
#N canvas 713 249 637 521 read-than-wait-mit-search 1;
#X obj 230 17 inlet current count;
#X obj 327 231 outlet;
#X obj 230 133 text search \$0-txt;
#X obj 230 154 sel -1 bang;
#X obj 293 180 text get \$0-txt;
#X obj 293 201 list split 1;
#X obj 230 38 / \$1;
#X obj 230 59 * 100;
#X obj 230 80 i;
#X obj 230 101 * 0.01;
#X connect 0 0 6 0;
#X connect 2 0 3 0;
#X connect 3 2 4 0;
#X connect 4 0 5 0;
#X connect 5 1 1 0;
#X connect 6 0 7 0;
#X connect 7 0 8 0;
#X connect 8 0 9 0;
#X connect 9 0 2 0;
#X restore 76 219 pd read-than-wait-mit-search;
#X obj 159 287 route bang;
#X msg 216 335 1;
#X obj 119 380 sel 1;
#X obj 216 314 t b a b;
#X msg 255 337 0;
#X obj 216 360 v \$0-gibt-es;
#X obj 119 359 v \$0-gibt-es;
#X connect 1 0 28 0;
#X connect 4 0 5 0;
#X connect 5 0 2 0;
#X connect 6 0 2 0;
#X connect 7 0 6 0;
#X connect 8 0 9 0;
#X connect 9 0 7 0;
#X connect 10 0 11 0;
#X connect 11 0 4 0;
#X connect 12 0 25 0;
#X connect 12 1 8 1;
#X connect 13 0 26 0;
#X connect 13 1 10 1;
#X connect 14 0 15 0;
#X connect 15 0 27 0;
#X connect 16 0 14 0;
#X connect 17 0 35 0;
#X connect 17 1 3 0;
#X connect 18 0 2 0;
#X connect 19 0 21 0;
#X connect 20 0 18 0;
#X connect 21 1 12 0;
#X connect 21 2 13 0;
#X connect 21 3 20 0;
#X connect 25 0 8 0;
#X connect 26 0 10 0;
#X connect 27 0 17 0;
#X connect 27 1 29 0;
#X connect 28 0 27 0;
#X connect 29 1 32 0;
#X connect 30 0 34 0;
#X connect 31 0 16 0;
#X connect 32 0 30 0;
#X connect 32 1 14 1;
#X connect 32 2 33 0;
#X connect 33 0 34 0;
#X connect 35 0 31 0;
