#N canvas 208 227 935 583 10;
#X floatatom 101 55 5 0 0 0 - - -;
#X text 138 53 bpm;
#X obj 32 38 tgl 15 0 empty empty empty 17 7 0 10 -262144 -1 -1 1 1
;
#X msg 57 25 0;
#X text 80 23 reset, f 7;
#X obj 32 104 s master-ticKs;
#X obj 195 244 drum-bank;
#X obj 195 372 dac~ 1 2;
#X obj 195 341 *~;
#X obj 287 228 hsl 128 15 0 127 0 0 empty empty empty -2 -8 0 10 -262144
-1 -1 8000 1;
#X obj 284 248 / 127;
#X obj 284 269 lop~ 10;
#X obj 284 290 *~ 0.7;
#X text 325 248 vol;
#X obj 32 83 master-ticks 360;
#X obj 195 95 seqq 360 texts 2;
#X msg 339 19 openTxt;
#X obj 353 77 f \$2;
#X obj 419 82 f \$2, f 6;
#X msg 419 106 write \$1;
#X obj 419 55 bng 15 250 50 0 empty empty empty 17 7 0 10 -262144 -1
-1;
#X msg 353 104 read \$1;
#X floatatom 374 54 5 0 0 0 - - -;
#X obj 353 46 bng 15 250 50 0 empty empty empty 17 7 0 10 -262144 -1
-1;
#X floatatom 452 58 5 0 0 0 - - -;
#X obj 559 68 loadbang;
#X obj 575 118 t b b;
#X msg 624 194 \; pd dsp 1;
#X obj 624 166 del 100;
#X msg 575 139 1;
#X obj 195 43 count-ticks 360 4;
#X obj 190 5 r master-ticKs;
#X obj 294 19 tgl 15 0 empty empty empty 17 7 0 10 -262144 -1 -1 1
1;
#X text 34 57 on/off;
#X text 393 19 open text edit. manually compose sequence;
#X connect 0 0 14 2;
#X connect 2 0 14 0;
#X connect 3 0 14 1;
#X connect 6 0 8 0;
#X connect 8 0 7 0;
#X connect 8 0 7 1;
#X connect 9 0 10 0;
#X connect 10 0 11 0;
#X connect 11 0 12 0;
#X connect 12 0 8 1;
#X connect 14 0 5 0;
#X connect 15 0 6 0;
#X connect 16 0 15 1;
#X connect 17 0 21 0;
#X connect 18 0 19 0;
#X connect 19 0 15 1;
#X connect 20 0 18 0;
#X connect 21 0 15 1;
#X connect 22 0 17 1;
#X connect 23 0 17 0;
#X connect 24 0 18 1;
#X connect 25 0 26 0;
#X connect 26 0 29 0;
#X connect 26 1 28 0;
#X connect 28 0 27 0;
#X connect 29 0 21 0;
#X connect 30 0 15 0;
#X connect 31 0 30 0;
#X connect 32 0 30 3;
