#N canvas 103 251 821 627 12;
#X obj 27 13 inlet~ L-audio;
#X obj 169 13 inlet~ R-audio;
#X obj 675 13 inlet mess;
#X obj 27 156 *~;
#X obj 169 156 *~;
#X obj 319 14 inlet~ L-a-control;
#X obj 477 13 inlet~ R-a-control;
#X obj 318 139 / 100;
#X obj 318 234 -;
#X obj 318 257 clip 0 1;
#X obj 45 58 r \$0-lef-chn;
#X obj 318 162 *, f 8;
#X obj 371 135 r amount-\$0;
#N canvas 0 23 450 300 messages 0;
#X obj 37 37 inlet;
#X obj 37 60 route amount;
#X obj 37 83 s amount-\$0;
#X connect 0 0 1 0;
#X connect 1 0 2 0;
#X restore 675 36 pd messages;
#X obj 187 58 r \$0-rig-chn;
#X obj 477 142 / 100;
#X obj 477 237 -;
#X obj 477 260 clip 0 1;
#X obj 477 165 *, f 8;
#X obj 530 138 r amount-\$0;
#X msg 318 211 1 \$1;
#X msg 477 214 1 \$1;
#X obj 27 549 outlet~ left;
#X obj 169 549 outlet~ right;
#X floatatom 662 227 5 0 0 0 - - -;
#X obj 662 249 * 64;
#X floatatom 662 272 5 0 0 0 - - -;
#X obj 662 294 / 2;
#X floatatom 662 317 5 0 0 0 - - -;
#X obj 318 360 s \$0-lef-chn;
#X obj 477 357 s \$0-rig-chn;
#X msg 318 316 \$1 1;
#X msg 477 319 \$1 1;
#X obj 318 94 env~ 512 256;
#X obj 477 97 env~ 512 256;
#X obj 187 81 vline~;
#X obj 187 104 pow~ 2;
#X obj 48 90 vline~;
#X obj 48 113 pow~ 2;
#X obj 318 280 sqrt;
#X obj 477 283 sqrt;
#X connect 0 0 3 0;
#X connect 1 0 4 0;
#X connect 2 0 13 0;
#X connect 3 0 22 0;
#X connect 4 0 23 0;
#X connect 5 0 33 0;
#X connect 6 0 34 0;
#X connect 7 0 11 0;
#X connect 8 0 9 0;
#X connect 9 0 39 0;
#X connect 10 0 37 0;
#X connect 11 0 20 0;
#X connect 12 0 11 1;
#X connect 14 0 35 0;
#X connect 15 0 18 0;
#X connect 16 0 17 0;
#X connect 17 0 40 0;
#X connect 18 0 21 0;
#X connect 19 0 18 1;
#X connect 20 0 8 0;
#X connect 21 0 16 0;
#X connect 24 0 25 0;
#X connect 25 0 26 0;
#X connect 26 0 27 0;
#X connect 27 0 28 0;
#X connect 31 0 29 0;
#X connect 32 0 30 0;
#X connect 33 0 7 0;
#X connect 34 0 15 0;
#X connect 35 0 36 0;
#X connect 36 0 4 1;
#X connect 37 0 38 0;
#X connect 38 0 3 1;
#X connect 39 0 31 0;
#X connect 40 0 32 0;
