#N canvas 172 179 821 627 12;
#X obj 27 13 inlet~ L-audio;
#X obj 169 13 inlet~ R-audio;
#X obj 675 13 inlet mess;
#X obj 27 116 *~;
#X obj 169 116 *~;
#X obj 319 14 inlet~ L-a-control;
#X obj 477 13 inlet~ R-a-control;
#X obj 319 94 env~;
#X obj 45 86 vline~;
#X obj 187 87 vline~;
#X obj 319 139 / 100;
#X obj 319 234 -;
#X obj 319 257 clip 0 1;
#X msg 319 280 \$1 10;
#X obj 319 303 s \$0-lef-chn;
#X obj 45 58 r \$0-lef-chn;
#X obj 319 162 *, f 8;
#X obj 370 124 r amount-\$0;
#N canvas 0 23 450 300 messages 0;
#X obj 37 37 inlet;
#X obj 37 60 route amount;
#X obj 37 83 s amount-\$0;
#X connect 0 0 1 0;
#X connect 1 0 2 0;
#X restore 675 36 pd messages;
#X obj 187 58 r \$0-rig-chn;
#X obj 477 97 env~;
#X obj 477 142 / 100;
#X obj 477 237 -;
#X obj 477 260 clip 0 1;
#X msg 477 283 \$1 10;
#X obj 477 165 *, f 8;
#X obj 541 115 r amount-\$0;
#X obj 477 306 s \$0-rig-chn;
#X msg 319 211 1 \$1;
#X msg 477 214 1 \$1;
#X obj 27 549 outlet~ left;
#X obj 169 549 outlet~ right;
#X connect 0 0 3 0;
#X connect 1 0 4 0;
#X connect 2 0 18 0;
#X connect 3 0 30 0;
#X connect 4 0 31 0;
#X connect 5 0 7 0;
#X connect 6 0 20 0;
#X connect 7 0 10 0;
#X connect 8 0 3 1;
#X connect 9 0 4 1;
#X connect 10 0 16 0;
#X connect 11 0 12 0;
#X connect 12 0 13 0;
#X connect 13 0 14 0;
#X connect 15 0 8 0;
#X connect 16 0 28 0;
#X connect 17 0 16 1;
#X connect 19 0 9 0;
#X connect 20 0 21 0;
#X connect 21 0 25 0;
#X connect 22 0 23 0;
#X connect 23 0 24 0;
#X connect 24 0 27 0;
#X connect 25 0 29 0;
#X connect 26 0 25 1;
#X connect 28 0 11 0;
#X connect 29 0 22 0;
