#N canvas 384 327 450 476 10;
#X obj 93 430 dac~ 1 2;
#X obj 93 181 inlet~;
#X obj 51 11 / 127;
#X obj 51 33 pow 2;
#X obj 51 54 lop~ 5;
#X obj 93 224 *~;
#X obj 178 102 vsl 40 60 0 127 0 0 empty empty empty 0 -9 0 10 -262144
-1 -1 0 1;
#X obj 105 103 bng 30 250 50 0 empty empty MUTE 35 20 0 10 -262144
-1 -1;
#X msg 220 71 0;
#X obj 139 179 inlet~;
#X obj 139 222 *~;
#N canvas 0 23 450 300 safety 0;
#X obj 41 19 inlet~;
#X obj 41 39 env~;
#X obj 41 63 >= 109;
#X obj 41 109 sel 1;
#X obj 41 83 change -1;
#X obj 41 129 outlet mute audio;
#X connect 0 0 1 0;
#X connect 1 0 2 0;
#X connect 2 0 4 0;
#X connect 3 0 5 0;
#X connect 4 0 3 0;
#X restore 343 94 pd safety;
#X obj 139 280 delwrite~ \$0-hi 10;
#X obj 95 310 delwrite~ \$0-hiL 10;
#X obj 93 376 delread~ \$0-hiL 10;
#X obj 128 397 delread~ \$0-hi 10;
#X obj 343 124 print LOUD!!;
#X text 271 64 safety feature so no blow out;
#X connect 1 0 5 0;
#X connect 1 0 11 0;
#X connect 2 0 3 0;
#X connect 3 0 4 0;
#X connect 4 0 5 1;
#X connect 4 0 10 1;
#X connect 5 0 13 0;
#X connect 6 0 2 0;
#X connect 7 0 8 0;
#X connect 8 0 6 0;
#X connect 9 0 10 0;
#X connect 9 0 11 0;
#X connect 10 0 12 0;
#X connect 11 0 8 0;
#X connect 11 0 16 0;
#X connect 14 0 0 0;
#X connect 15 0 0 1;
#X coords 0 -1 1 1 120 65 2 100 100;
