#N canvas 627 243 450 506 12;
#X obj 211 372 writesf~ 2;
#X msg 138 339 start;
#X msg 250 171 stop;
#X obj 54 273 timer-seconds;
#X floatatom 102 177 5 0 0 0 - - -;
#X obj 102 115 tgl 45 0 empty empty empty 17 7 0 10 -261234 -1 -1 0
1;
#X obj 223 101 sel 0 1;
#X obj 238 215 savepanel;
#X obj 238 266 list trim;
#X obj 238 241 list prepend open -bytes 3;
#X obj 253 334 inlet~ R;
#X obj 187 334 inlet~ L;
#X obj 177 283 t b b a;
#X msg 123 306 1;
#X obj 219 144 t b b;
#X msg 219 167 0;
#X text 100 161 REC TIME;
#X text 101 100 REC SWITCH;
#X connect 1 0 0 0;
#X connect 2 0 0 0;
#X connect 3 0 4 0;
#X connect 5 0 6 0;
#X connect 6 0 14 0;
#X connect 6 1 7 0;
#X connect 7 0 9 0;
#X connect 8 0 12 0;
#X connect 9 0 8 0;
#X connect 10 0 0 1;
#X connect 11 0 0 0;
#X connect 12 0 13 0;
#X connect 12 1 1 0;
#X connect 12 2 0 0;
#X connect 13 0 3 0;
#X connect 14 0 15 0;
#X connect 14 1 2 0;
#X connect 15 0 3 0;
#X coords 0 -1 1 1 85 100 2 100 100;
