#N canvas 384 327 450 300 10;
#X obj 93 280 dac~ 1 2;
#X obj 93 181 inlet~;
#X obj 51 11 / 127;
#X obj 51 33 pow 2;
#X obj 51 54 lop~ 5;
#X obj 93 224 *~;
#X obj 178 102 vsl 40 60 0 127 0 0 empty empty empty 0 -9 0 10 -262144
-1 -1 0 1;
#X obj 105 103 bng 30 250 50 0 empty empty MUTE 35 20 0 10 -262144
-1 -1;
#X msg 220 71 0;
#X obj 139 179 inlet~;
#X obj 139 222 *~;
#X obj 254 93 loadbang;
#X obj 254 114 f \$1;
#X obj 254 135 sel 1 2, f 13;
#X obj 255 252 ==;
#X msg 254 156 0;
#X msg 291 158 1;
#X obj 106 254 *~ 1;
#X obj 138 249 *~ 0;
#X obj 242 219 f;
#X text 261 13 Arg 1: 1 mono \, 2 stereo;
#X text 281 29 (default is mono);
#X connect 1 0 5 0;
#X connect 2 0 3 0;
#X connect 3 0 4 0;
#X connect 4 0 5 1;
#X connect 4 0 10 1;
#X connect 5 0 0 0;
#X connect 5 0 17 0;
#X connect 6 0 2 0;
#X connect 7 0 8 0;
#X connect 8 0 6 0;
#X connect 9 0 10 0;
#X connect 10 0 18 0;
#X connect 11 0 12 0;
#X connect 12 0 13 0;
#X connect 13 0 15 0;
#X connect 13 1 16 0;
#X connect 14 0 17 1;
#X connect 15 0 19 0;
#X connect 16 0 19 0;
#X connect 17 0 0 1;
#X connect 18 0 0 1;
#X connect 19 0 14 0;
#X connect 19 0 18 1;
#X coords 0 -1 1 1 120 65 2 100 100;
