#N canvas 619 170 450 300 10;
#X obj 24 14 inlet on/off;
#X obj 257 266 outlet to switch~;
#X obj 24 270 outlet~ to signal;
#X obj 24 35 sel 0 1, f 41;
#X obj 145 67 t b b b;
#X obj 24 222 vline~;
#X obj 24 243 pow~ 2;
#X text 298 17 Arg1: on ramp time;
#X text 297 35 Arg2: off ramp time;
#X obj 144 114 f \$1;
#X msg 144 143 1 \$1;
#X obj 24 127 f \$2;
#X msg 87 88 stop;
#X msg 24 174 0 \$1;
#X obj 24 56 t b b b;
#X msg 85 174 0;
#X msg 213 164 1;
#X obj 24 148 - 2;
#X obj 67 119 del \$2;
#X connect 0 0 3 0;
#X connect 3 0 14 0;
#X connect 3 1 4 0;
#X connect 4 0 9 0;
#X connect 4 1 12 0;
#X connect 4 2 16 0;
#X connect 5 0 6 0;
#X connect 6 0 2 0;
#X connect 9 0 10 0;
#X connect 10 0 5 0;
#X connect 11 0 17 0;
#X connect 12 0 18 0;
#X connect 13 0 5 0;
#X connect 14 0 11 0;
#X connect 14 1 18 0;
#X connect 14 2 12 0;
#X connect 15 0 1 0;
#X connect 16 0 1 0;
#X connect 17 0 13 0;
#X connect 18 0 15 0;
