#N canvas 564 328 749 407 10;
#X floatatom 89 273 5 0 0 0 - - -;
#X floatatom 176 272 5 0 0 0 - - -;
#X msg 357 184 disconnect;
#X obj 89 239 netsend -u 3000;
#X obj 89 67 symbol \$1;
#X text 511 111 Arg1: ip address;
#X text 503 136 Arg2: port number;
#X obj 89 88 pack s \$2;
#X msg 89 120 connect \$1 \$2;
#X obj 468 15 inlet send-messages;
#X obj 468 36 list prepend send;
#X obj 468 57 list trim;
#X obj 89 20 inlet bang-to-connect;
#X obj 89 41 t b;
#X connect 2 0 3 0;
#X connect 3 0 0 0;
#X connect 3 1 1 0;
#X connect 4 0 7 0;
#X connect 7 0 8 0;
#X connect 8 0 3 0;
#X connect 9 0 10 0;
#X connect 10 0 11 0;
#X connect 11 0 3 0;
#X connect 12 0 13 0;
#X connect 13 0 4 0;
