#N canvas 98 118 936 629 12;
#X obj 14 17 inlet bang to be estimated;
#X obj 410 232 text define \$0-bpm;
#X obj 71 282 until;
#X obj 71 305 counter 6;
#X obj 71 328 - 1;
#X msg 71 228 6;
#X obj 71 351 text get \$0-bpm;
#X obj 71 256 t a b b, f 10;
#X obj 103 423 + 0;
#X msg 146 297 0;
#X obj 103 453 t a a;
#X obj 24 491 f;
#X obj 24 514 / 6;
#X obj 14 210 t b b;
#X obj 162 93 timer;
#X obj 162 199 text set \$0-bpm;
#X obj 209 119 counter 6;
#X obj 209 142 - 1;
#X obj 24 537 outlet;
#X msg 71 397 500;
#X text 119 397 <--- average 120 bpm;
#X obj 71 374 sel bang 0;
#X obj 14 40 t b b b b b, f 39;
#X obj 328 75 spigot 1;
#X obj 328 98 t b b, f 17;
#X msg 328 121 0;
#X obj 444 186 text fromlist \$0-bpm;
#X obj 444 158 list;
#X msg 444 134 500 \\\; 500 \\\; 500 \\\; 500 \\\; 500 \\\; 500 \\\;
;
#X connect 0 0 22 0;
#X connect 2 0 3 0;
#X connect 3 0 4 0;
#X connect 4 0 6 0;
#X connect 5 0 7 0;
#X connect 6 0 21 0;
#X connect 7 0 2 0;
#X connect 7 1 3 2;
#X connect 7 2 9 0;
#X connect 8 0 10 0;
#X connect 9 0 8 1;
#X connect 10 0 11 1;
#X connect 10 1 8 1;
#X connect 11 0 12 0;
#X connect 12 0 18 0;
#X connect 13 0 11 0;
#X connect 13 1 5 0;
#X connect 14 0 15 0;
#X connect 16 0 17 0;
#X connect 17 0 15 1;
#X connect 19 0 8 0;
#X connect 21 0 19 0;
#X connect 21 1 19 0;
#X connect 21 2 8 0;
#X connect 22 0 13 0;
#X connect 22 1 14 0;
#X connect 22 2 14 1;
#X connect 22 3 16 0;
#X connect 22 4 23 0;
#X connect 23 0 24 0;
#X connect 24 0 25 0;
#X connect 24 1 28 0;
#X connect 25 0 23 1;
#X connect 27 0 26 0;
#X connect 28 0 27 0;
