#N canvas 0 23 729 615 12;
#X obj 93 263 t a a;
#X obj 243 286 counter 100000;
#X obj 243 329 * 100;
#X obj 93 365 + 0, f 11;
#X msg 228 171 0;
#X obj 93 388 * 0.01;
#X obj 93 140 metro 1000;
#X obj 93 107 t b b b b, f 41;
#X obj 70 25 inlet on/off;
#X obj 70 48 sel 0 1;
#X msg 46 101 0;
#X obj 93 471 outlet;
#X obj 93 193 - 1;
#X obj 243 259 sel 0;
#X obj 243 309 - 1;
#X obj 93 170 counter 60;
#X connect 0 0 3 0;
#X connect 0 1 13 0;
#X connect 1 0 14 0;
#X connect 2 0 3 1;
#X connect 3 0 5 0;
#X connect 4 0 3 1;
#X connect 5 0 11 0;
#X connect 6 0 15 0;
#X connect 7 0 6 0;
#X connect 7 1 15 2;
#X connect 7 2 1 2;
#X connect 7 3 4 0;
#X connect 8 0 9 0;
#X connect 9 0 10 0;
#X connect 9 1 7 0;
#X connect 10 0 6 0;
#X connect 12 0 0 0;
#X connect 13 0 1 0;
#X connect 14 0 2 0;
#X connect 15 0 12 0;
