#N canvas 673 192 1131 748 10;
#X obj 37 22 inlet;
#X obj 822 20 inlet;
#X obj 37 44 unpack 0 0;
#X obj 40 631 outlet~;
#X obj 133 631 outlet~;
#X obj 37 77 mtof~;
#X obj 37 121 s~ \$0-midi;
#X obj 360 154 r~ \$0-midi;
#X obj 94 78 s \$0-vel;
#X obj 404 179 sig~ 1;
#N canvas 550 131 635 407 envelope 0;
#X obj 65 105 r \$0-vel;
#X msg 151 177 clear \, 0 500 0;
#X msg 86 129 clear \, 1 8 0 \, 0 500 0;
#X obj 129 92 r \$1-loadbang;
#X obj 67 237 outlet~;
#X obj 67 180 ../my-env 2 1;
#X msg 123 155 clear \, 0 500 0 \, 0.5 300 0 \, 0 200 0 \, 0.1 100
0 \, 0.67 100 0;
#X connect 0 0 5 0;
#X connect 1 0 5 3;
#X connect 2 0 5 1;
#X connect 3 0 2 0;
#X connect 3 0 6 0;
#X connect 3 0 1 0;
#X connect 5 0 4 0;
#X connect 6 0 5 2;
#X restore 448 192 pd envelope;
#X msg 113 49 100;
#X obj 536 241 r \$0-fb-1;
#X obj 536 262 lop~ 5;
#X obj 492 221 sig~ 0.5;
#N canvas 0 23 726 545 outlets 0;
#X obj 172 391 outlet~;
#X obj 545 380 outlet~;
#X obj 172 348 hip~ 5;
#X obj 545 342 hip~ 5;
#X obj 172 327 *~ 0.25;
#X obj 545 321 *~ 0.25;
#X obj 172 300 *~;
#X obj 546 299 *~;
#X obj 561 121 /~ 12543.9;
#X obj 561 142 /~ 4;
#X obj 561 184 cos~;
#X obj 561 163 -~ 0.09;
#X obj 561 99 r~ \$0-midi;
#X obj 546 237 catch~ R-out-\$0;
#X obj 172 237 catch~ L-out-\$0;
#X connect 2 0 0 0;
#X connect 3 0 1 0;
#X connect 4 0 2 0;
#X connect 5 0 3 0;
#X connect 6 0 4 0;
#X connect 7 0 5 0;
#X connect 8 0 9 0;
#X connect 9 0 11 0;
#X connect 10 0 6 1;
#X connect 10 0 7 1;
#X connect 11 0 10 0;
#X connect 12 0 8 0;
#X connect 13 0 7 0;
#X connect 14 0 6 0;
#X restore 40 594 pd outlets - - -;
#N canvas 0 23 450 300 messages 0;
#X obj 37 16 inlet;
#X obj 37 43 route fb-1;
#X obj 37 67 s \$0-fb-1;
#X connect 0 0 1 0;
#X connect 1 0 2 0;
#X restore 822 44 pd messages;
#X obj 717 157 r~ \$0-midi;
#N canvas 0 23 635 407 envelope 0;
#X obj 65 105 r \$0-vel;
#X obj 129 92 r \$1-loadbang;
#X obj 66 229 outlet~;
#X obj 67 180 ../my-env 2 1;
#X msg 86 129 clear \, 1 8 0 \, 0.5 100 0;
#X msg 123 155 clear \, 0.5 1000;
#X msg 151 177 clear \, 0 1000 0;
#X connect 0 0 3 0;
#X connect 1 0 4 0;
#X connect 1 0 5 0;
#X connect 1 0 6 0;
#X connect 3 0 2 0;
#X connect 4 0 3 1;
#X connect 5 0 3 2;
#X connect 6 0 3 3;
#X restore 805 195 pd envelope;
#X obj 893 244 r \$0-fb-1;
#X obj 893 265 lop~ 5;
#X obj 849 224 sig~ 0.5;
#X obj 317 400 throw~ L-out-\$0;
#X obj 536 396 throw~ R-out-\$0;
#X obj 674 367 s~ yo-\$0;
#X obj 237 256 r~ yo-\$0;
#X obj 317 305 ../fmMod \$1 1, f 37;
#X obj 674 307 ../fmMod \$1 1, f 37;
#X obj 761 181 sig~ 4;
#X obj 380 345 *~ 0.01;
#X obj 674 329 *~ 0.1;
#X connect 0 0 2 0;
#X connect 1 0 16 0;
#X connect 2 0 5 0;
#X connect 2 1 8 0;
#X connect 5 0 6 0;
#X connect 7 0 26 1;
#X connect 9 0 26 2;
#X connect 10 0 26 3;
#X connect 11 0 8 0;
#X connect 12 0 13 0;
#X connect 13 0 26 5;
#X connect 14 0 26 4;
#X connect 15 0 3 0;
#X connect 15 1 4 0;
#X connect 17 0 27 1;
#X connect 18 0 27 3;
#X connect 19 0 20 0;
#X connect 20 0 27 5;
#X connect 21 0 27 4;
#X connect 25 0 26 0;
#X connect 26 0 22 0;
#X connect 26 0 29 0;
#X connect 26 1 23 0;
#X connect 27 0 30 0;
#X connect 28 0 27 2;
#X connect 29 0 27 0;
#X connect 30 0 24 0;
