#N canvas 0 23 938 666 10;
#X obj 37 22 inlet;
#X obj 822 20 inlet;
#X obj 37 44 unpack 0 0;
#X obj 352 542 outlet~;
#X obj 445 542 outlet~;
#X obj 37 117 mtof~;
#X obj 37 161 s~ \$0-midi;
#X obj 406 195 r~ \$0-midi;
#X obj 94 78 s \$0-vel;
#X obj 461 222 sig~ 1;
#N canvas 1 23 635 407 envelope 0;
#X obj 65 105 r \$0-vel;
#X obj 129 92 r \$1-loadbang;
#X obj 66 269 outlet~;
#X msg 151 177 clear \, 0 3000 0;
#X msg 86 129 clear \, 1 8 0 \, 0.15 200 0;
#X msg 124 152 clear \, 0.15 500 0;
#X obj 67 220 ../my-env 4 0;
#X connect 0 0 6 0;
#X connect 1 0 4 0;
#X connect 1 0 5 0;
#X connect 1 0 3 0;
#X connect 3 0 6 3;
#X connect 4 0 6 1;
#X connect 5 0 6 2;
#X connect 6 0 2 0;
#X restore 570 220 pd envelope;
#N canvas 0 23 726 545 outlets 0;
#X obj 172 391 outlet~;
#X obj 545 380 outlet~;
#X obj 172 348 hip~ 5;
#X obj 545 342 hip~ 5;
#X obj 172 300 *~;
#X obj 546 299 *~;
#X obj 561 121 /~ 12543.9;
#X obj 561 142 /~ 4;
#X obj 561 184 cos~;
#X obj 561 163 -~ 0.09;
#X obj 561 99 r~ \$0-midi;
#X obj 546 237 catch~ R-out-\$0;
#X obj 172 237 catch~ L-out-\$0;
#X obj 172 325 *~ 0.75;
#X obj 545 321 *~ 0.75;
#X obj 203 190 inlet~;
#X obj 590 217 inlet~;
#X connect 2 0 0 0;
#X connect 3 0 1 0;
#X connect 4 0 13 0;
#X connect 5 0 14 0;
#X connect 6 0 7 0;
#X connect 7 0 9 0;
#X connect 8 0 4 1;
#X connect 8 0 5 1;
#X connect 9 0 8 0;
#X connect 10 0 6 0;
#X connect 11 0 5 0;
#X connect 12 0 4 0;
#X connect 13 0 2 0;
#X connect 14 0 3 0;
#X connect 15 0 4 0;
#X connect 16 0 5 0;
#X restore 352 508 pd outlets - - -;
#N canvas 0 23 450 300 messages 0;
#X obj 37 16 inlet;
#X obj 37 67 s \$0-p1;
#X obj 84 91 s \$0-p2;
#X obj 37 43 route p1 p2 trans;
#X obj 143 112 s \$0-trans;
#X connect 0 0 3 0;
#X connect 3 0 1 0;
#X connect 3 1 2 0;
#X connect 3 2 4 0;
#X restore 822 44 pd messages;
#X obj 636 286 r \$0-p1;
#X obj 404 66 r~ \$0-midi;
#X obj 350 167 ../feedback-osc \$1, f 37;
#X obj 37 65 sig~;
#X obj 37 86 +~;
#X obj 91 117 lop~ 5;
#X obj 143 112 r \$0-trans;
#X obj 352 477 *~ 0.7;
#X obj 352 256 ../tx-wave-7, f 37;
#X obj 608 107 sig~ 0.3;
#X obj 350 188 *~ 0.7;
#X obj 453 328 lop~ 10;
#X obj 381 378 vcf~ 2, f 8;
#X obj 426 401 vcf~ 4, f 8;
#X obj 636 307 * 1200;
#X obj 636 328 + 50;
#N canvas 1 23 635 407 envelope 0;
#X obj 65 105 r \$0-vel;
#X obj 129 92 r \$1-loadbang;
#X obj 66 269 outlet~;
#X msg 151 177 clear \, 0 3000 0;
#X msg 86 129 clear \, 1 8 0 \, 0.15 200 0;
#X obj 67 220 ../my-env 4 1;
#X msg 124 152 clear \, 0.1 250 0 \, 0.6 500 0 \, 0.1 750 0;
#X connect 0 0 5 0;
#X connect 1 0 4 0;
#X connect 1 0 6 0;
#X connect 1 0 3 0;
#X connect 3 0 5 3;
#X connect 4 0 5 1;
#X connect 5 0 2 0;
#X connect 6 0 5 2;
#X restore 554 74 pd envelope;
#X obj 459 91 sig~ 4.999;
#X connect 0 0 2 0;
#X connect 1 0 12 0;
#X connect 2 0 16 0;
#X connect 2 1 8 0;
#X connect 5 0 6 0;
#X connect 7 0 21 1;
#X connect 9 0 21 2;
#X connect 10 0 21 3;
#X connect 11 0 3 0;
#X connect 11 1 4 0;
#X connect 13 0 27 0;
#X connect 14 0 15 1;
#X connect 15 0 23 0;
#X connect 16 0 17 0;
#X connect 17 0 5 0;
#X connect 18 0 17 1;
#X connect 19 0 18 0;
#X connect 20 0 11 0;
#X connect 20 0 11 1;
#X connect 21 0 25 0;
#X connect 22 0 15 4;
#X connect 23 0 21 0;
#X connect 24 0 25 1;
#X connect 24 0 26 1;
#X connect 25 1 26 0;
#X connect 26 1 20 0;
#X connect 27 0 28 0;
#X connect 28 0 24 0;
#X connect 29 0 15 3;
#X connect 30 0 15 2;
