#N canvas 321 239 938 666 10;
#X obj 37 22 inlet;
#X obj 822 20 inlet;
#X obj 37 44 unpack 0 0;
#X obj 352 542 outlet~;
#X obj 445 542 outlet~;
#X obj 37 117 mtof~;
#X obj 37 161 s~ \$0-midi;
#X obj 406 195 r~ \$0-midi;
#X obj 94 78 s \$0-vel;
#X obj 498 222 sig~ 1;
#N canvas 0 23 450 300 messages 0;
#X obj 37 16 inlet;
#X obj 37 67 s \$0-p1;
#X obj 84 91 s \$0-p2;
#X obj 37 43 route p1 p2 trans;
#X obj 143 112 s \$0-trans;
#X connect 0 0 3 0;
#X connect 3 0 1 0;
#X connect 3 1 2 0;
#X connect 3 2 4 0;
#X restore 822 44 pd messages;
#X obj 636 286 r \$0-p1;
#X obj 404 66 r~ \$0-midi;
#X obj 350 167 ../feedback-osc \$1, f 37;
#X obj 37 65 sig~;
#X obj 37 86 +~;
#X obj 91 117 lop~ 5;
#X obj 143 112 r \$0-trans;
#X obj 352 256 ../tx-wave-7, f 37;
#X obj 608 107 sig~ 0.3;
#X obj 350 188 *~ 0.7;
#X obj 453 328 lop~ 10;
#X obj 381 378 vcf~ 2, f 8;
#X obj 426 401 vcf~ 4, f 8;
#X obj 636 307 * 1200;
#X obj 636 328 + 50;
#N canvas 1 23 635 407 envelope 0;
#X obj 35 70 r \$0-vel;
#X obj 66 269 outlet~;
#X obj 66 221 vline~;
#X obj 66 242 pow~ 2;
#X obj 35 91 sel 0;
#X obj 62 119 / 127;
#X obj 62 140 sqrt;
#X msg 13 163 0 2000;
#X msg 99 180 \$1 16 \, 0.7 2000 8;
#X connect 0 0 4 0;
#X connect 2 0 3 0;
#X connect 3 0 1 0;
#X connect 4 0 7 0;
#X connect 4 1 5 0;
#X connect 5 0 6 0;
#X connect 6 0 8 0;
#X connect 7 0 2 0;
#X connect 8 0 2 0;
#X restore 554 74 pd envelope;
#X obj 459 91 sig~ 4.999;
#X obj 357 515 hip~ 5;
#X obj 444 515 hip~ 5;
#X obj 352 483 *~ 1;
#X obj 363 602 dac~ 1 2;
#N canvas 1 23 635 407 envelope 0;
#X obj 35 70 r \$0-vel;
#X obj 66 269 outlet~;
#X obj 66 221 vline~;
#X obj 66 242 pow~ 2;
#X obj 35 91 sel 0;
#X obj 62 119 / 127;
#X obj 62 140 sqrt;
#X msg 13 163 0 2000;
#X msg 111 183 \$1 8 \, 0.15 500 8;
#X connect 0 0 4 0;
#X connect 2 0 3 0;
#X connect 3 0 1 0;
#X connect 4 0 7 0;
#X connect 4 1 5 0;
#X connect 5 0 6 0;
#X connect 6 0 8 0;
#X connect 7 0 2 0;
#X connect 8 0 2 0;
#X restore 571 229 pd envelope;
#X connect 0 0 2 0;
#X connect 1 0 10 0;
#X connect 2 0 14 0;
#X connect 2 1 8 0;
#X connect 5 0 6 0;
#X connect 7 0 18 1;
#X connect 9 0 18 2;
#X connect 11 0 24 0;
#X connect 12 0 13 1;
#X connect 13 0 20 0;
#X connect 14 0 15 0;
#X connect 15 0 5 0;
#X connect 16 0 15 1;
#X connect 17 0 16 0;
#X connect 18 0 22 0;
#X connect 19 0 13 4;
#X connect 20 0 18 0;
#X connect 21 0 22 1;
#X connect 21 0 23 1;
#X connect 22 1 23 0;
#X connect 23 1 30 0;
#X connect 24 0 25 0;
#X connect 25 0 21 0;
#X connect 26 0 13 3;
#X connect 27 0 13 2;
#X connect 28 0 3 0;
#X connect 28 0 31 0;
#X connect 29 0 4 0;
#X connect 29 0 31 1;
#X connect 30 0 28 0;
#X connect 30 0 29 0;
#X connect 32 0 18 3;
