#N canvas 321 212 938 666 10;
#X obj 37 22 inlet;
#X obj 822 20 inlet;
#X obj 37 44 unpack 0 0;
#X obj 354 509 outlet~;
#X obj 431 513 outlet~;
#X obj 37 117 mtof~;
#X obj 37 161 s~ \$0-midi;
#X obj 325 173 r~ \$0-midi;
#X obj 94 78 s \$0-vel;
#X obj 417 200 sig~ 1;
#N canvas 0 23 450 300 messages 0;
#X obj 37 16 inlet;
#X obj 37 67 s \$0-p1;
#X obj 84 91 s \$0-p2;
#X obj 143 112 s \$0-trans;
#X obj 37 43 route p-1 p-2 trans;
#X connect 0 0 4 0;
#X connect 4 0 1 0;
#X connect 4 1 2 0;
#X connect 4 2 3 0;
#X restore 822 44 pd messages;
#X obj 636 286 r \$0-p1;
#X obj 323 44 r~ \$0-midi;
#X obj 269 145 ../feedback-osc \$1, f 37;
#X obj 37 65 sig~;
#X obj 37 86 +~;
#X obj 91 117 lop~ 5;
#X obj 143 112 r \$0-trans;
#X obj 271 234 ../tx-wave-7, f 37;
#X obj 343 322 lop~ 10;
#X obj 316 395 vcf~ 4, f 8;
#N canvas 1 23 635 407 envelope 0;
#X obj 35 70 r \$0-vel;
#X obj 66 269 outlet~;
#X obj 66 221 vline~;
#X obj 66 242 pow~ 2;
#X obj 35 91 sel 0;
#X obj 62 119 / 127;
#X obj 62 140 sqrt;
#X msg 13 163 0 2000;
#X msg 99 180 \$1 16 \, 0.7 2000 8;
#X connect 0 0 4 0;
#X connect 2 0 3 0;
#X connect 3 0 1 0;
#X connect 4 0 7 0;
#X connect 4 1 5 0;
#X connect 5 0 6 0;
#X connect 6 0 8 0;
#X connect 7 0 2 0;
#X connect 8 0 2 0;
#X restore 473 52 pd envelope;
#X obj 378 69 sig~ 4.999;
#X obj 359 482 hip~ 5;
#X obj 430 486 hip~ 5;
#N canvas 1 23 635 407 envelope 0;
#X obj 35 70 r \$0-vel;
#X obj 66 269 outlet~;
#X obj 66 221 vline~;
#X obj 66 242 pow~ 2;
#X obj 35 91 sel 0;
#X obj 62 119 / 127;
#X obj 62 140 sqrt;
#X msg 13 163 0 2000;
#X msg 111 183 \$1 8 \, 0.76 500 8;
#X connect 0 0 4 0;
#X connect 2 0 3 0;
#X connect 3 0 1 0;
#X connect 4 0 7 0;
#X connect 4 1 5 0;
#X connect 5 0 6 0;
#X connect 6 0 8 0;
#X connect 7 0 2 0;
#X connect 8 0 2 0;
#X restore 490 207 pd envelope;
#X obj 636 307 * 2000;
#X obj 361 447 *~ 0.7;
#X obj 271 372 vcf~ 4, f 8;
#X obj 644 101 *~ 0.5;
#X obj 644 122 +~ 0.5;
#X obj 269 166 *~;
#X obj 644 173 *~ 0.5;
#X obj 644 80 osc~ 1;
#X obj 644 194 +~ 0;
#X obj 527 85 sig~ 0.33;
#X obj 636 328 + 50;
#X connect 0 0 2 0;
#X connect 1 0 10 0;
#X connect 2 0 14 0;
#X connect 2 1 8 0;
#X connect 5 0 6 0;
#X connect 7 0 18 1;
#X connect 9 0 18 2;
#X connect 11 0 26 0;
#X connect 12 0 13 1;
#X connect 13 0 31 0;
#X connect 14 0 15 0;
#X connect 15 0 5 0;
#X connect 16 0 15 1;
#X connect 17 0 16 0;
#X connect 18 0 28 0;
#X connect 19 0 20 1;
#X connect 19 0 28 1;
#X connect 20 1 27 0;
#X connect 21 0 13 3;
#X connect 22 0 13 2;
#X connect 23 0 3 0;
#X connect 24 0 4 0;
#X connect 25 0 18 3;
#X connect 26 0 36 0;
#X connect 27 0 23 0;
#X connect 27 0 24 0;
#X connect 28 1 20 0;
#X connect 29 0 30 0;
#X connect 30 0 32 0;
#X connect 31 0 18 0;
#X connect 32 0 34 0;
#X connect 33 0 29 0;
#X connect 34 0 31 1;
#X connect 35 0 13 4;
#X connect 36 0 19 0;
