#N canvas 114 31 1126 847 12;
#X declare -path ../../../jwy-bibliothek;
#X obj 37 22 inlet;
#X obj 822 20 inlet;
#X obj 37 44 unpack 0 0;
#X obj 323 627 outlet~;
#X obj 400 631 outlet~;
#X obj 37 247 mtof~;
#X obj 37 291 s~ \$0-midi;
#X obj 104 128 s \$0-vel;
#N canvas 0 23 450 300 messages 0;
#X obj 37 16 inlet;
#X obj 37 67 s \$0-p1;
#X obj 84 91 s \$0-p2;
#X obj 143 112 s \$0-trans;
#X obj 168 70 s \$0-load;
#X obj 37 43 route p-1 p-2 trans load;
#X connect 0 0 5 0;
#X connect 5 0 1 0;
#X connect 5 1 2 0;
#X connect 5 2 3 0;
#X connect 5 3 4 0;
#X restore 822 44 pd messages;
#X obj 315 61 r~ \$0-midi;
#X obj 340 240 ../feedback-osc \$1, f 37;
#X obj 37 65 sig~;
#X obj 37 216 +~;
#X obj 55 191 lop~ 5;
#X obj 55 165 r \$0-trans;
#X obj 328 600 hip~ 5;
#X obj 399 604 hip~ 5;
#X obj 330 565 *~ 0.7;
#X obj 532 22 r \$0-vel;
#X text 120 331 what level to go to;
#X text 120 350 how long;
#X text 119 374 with what curve;
#X text 31 409 **(delays can just be written in);
#X msg 775 228 ads-time \$1;
#X obj 775 150 r \$0-p1;
#X obj 340 265 *~ 0.3;
#X text 142 61 0-127;
#X obj 100 85 clip 0 127;
#X obj 532 45 t a b;
#X obj 449 166 sig~ 1;
#X obj 330 518 lop~ 18000;
#X obj 330 541 lop~ 18000;
#X obj 330 472 hip~ 5;
#X obj 330 495 hip~ 5;
#X obj 900 118 r \$0-p2;
#X obj 564 579 ../feedback-osc \$1, f 37;
#X obj 596 213 sig~ 0;
#X obj 779 378 t a b;
#X obj 518 274 r \$0-vel;
#X obj 518 297 t a b;
#X obj 592 509 r~ \$0-midi;
#X obj 449 189 +~;
#X obj 490 448 *~ 2;
#X obj 564 604 *~ 0.5;
#X obj 779 355 r \$0-vel;
#X obj 532 169 j-env, f 15;
#X obj 178 24 declare -path ../../../jwy-bibliothek;
#X obj 488 421 j-env, f 20;
#X obj 779 502 j-env, f 12;
#X msg 900 191 ads-len \$1;
#X msg 568 392 clear \, 0 2 2;
#X msg 859 473 clear \, 0 2 2;
#X msg 612 140 clear \, 0 2 2;
#X msg 916 225 rel-len \$1;
#X obj 542 335 j-start-up-bang;
#X obj 586 83 j-start-up-bang;
#X obj 833 416 j-start-up-bang;
#X obj 724 46 bng 15 250 50 0 empty empty empty 17 7 0 10 -262144 -1
-1;
#X obj 702 25 r \$0-load;
#X msg 541 366 clear \, 1 200 1 \, 0 128 6 \, 1 1 12;
#X obj 673 528 +~;
#X msg 832 447 clear \, 1 128 0.7 \, 0.1 10 4 \, 0.26 16 2;
#X msg 585 114 clear \, 1 128 0.9 \, 0.74 2 4 \, 1 4 1;
#X obj 656 793 ../feedback-osc \$1, f 37;
#X obj 871 592 t a b;
#X obj 684 723 r~ \$0-midi;
#X obj 656 818 *~ 0.5;
#X obj 871 569 r \$0-vel;
#X obj 871 716 j-env, f 12;
#X msg 951 687 clear \, 0 2 2;
#X obj 925 630 j-start-up-bang;
#X obj 765 742 +~;
#X msg 924 661 clear \, 1 128 0.7 \, 0.1 10 4 \, 0.26 16 2;
#X obj 673 505 sig~ 3;
#X obj 765 719 sig~ 7;
#X obj 864 524 sig~ 0;
#X obj 956 737 sig~ 0;
#X connect 0 0 2 0;
#X connect 1 0 8 0;
#X connect 2 0 11 0;
#X connect 2 1 27 0;
#X connect 5 0 6 0;
#X connect 9 0 10 1;
#X connect 10 0 25 0;
#X connect 11 0 12 0;
#X connect 12 0 5 0;
#X connect 13 0 12 1;
#X connect 14 0 13 0;
#X connect 15 0 3 0;
#X connect 16 0 4 0;
#X connect 17 0 15 0;
#X connect 17 0 16 0;
#X connect 18 0 28 0;
#X connect 23 0 45 3;
#X connect 23 0 47 3;
#X connect 23 0 48 3;
#X connect 23 0 68 3;
#X connect 24 0 23 0;
#X connect 25 0 32 0;
#X connect 27 0 7 0;
#X connect 28 0 45 0;
#X connect 28 1 55 0;
#X connect 29 0 41 0;
#X connect 30 0 31 0;
#X connect 31 0 17 0;
#X connect 32 0 33 0;
#X connect 33 0 30 0;
#X connect 34 0 49 0;
#X connect 34 0 53 0;
#X connect 35 0 43 0;
#X connect 36 0 10 4;
#X connect 37 0 48 0;
#X connect 37 1 56 0;
#X connect 38 0 39 0;
#X connect 39 0 47 0;
#X connect 39 1 54 0;
#X connect 40 0 35 1;
#X connect 41 0 10 2;
#X connect 42 0 41 1;
#X connect 42 0 60 1;
#X connect 43 0 10 0;
#X connect 44 0 37 0;
#X connect 45 0 10 3;
#X connect 47 0 42 0;
#X connect 48 0 35 3;
#X connect 49 0 45 3;
#X connect 49 0 48 3;
#X connect 49 0 47 3;
#X connect 50 0 47 2;
#X connect 51 0 48 2;
#X connect 52 0 45 2;
#X connect 53 0 45 3;
#X connect 53 0 48 3;
#X connect 53 0 47 3;
#X connect 54 0 59 0;
#X connect 54 0 50 0;
#X connect 55 0 62 0;
#X connect 55 0 52 0;
#X connect 56 0 61 0;
#X connect 56 0 51 0;
#X connect 57 0 55 1;
#X connect 57 0 54 1;
#X connect 57 0 56 1;
#X connect 57 0 70 1;
#X connect 58 0 57 0;
#X connect 59 0 47 1;
#X connect 60 0 35 2;
#X connect 61 0 48 1;
#X connect 62 0 45 1;
#X connect 63 0 66 0;
#X connect 64 0 68 0;
#X connect 64 1 70 0;
#X connect 65 0 63 1;
#X connect 66 0 35 0;
#X connect 67 0 64 0;
#X connect 68 0 63 3;
#X connect 69 0 68 2;
#X connect 70 0 72 0;
#X connect 70 0 69 0;
#X connect 71 0 63 2;
#X connect 72 0 68 1;
#X connect 73 0 60 0;
#X connect 74 0 71 0;
#X connect 75 0 35 4;
#X connect 76 0 63 4;
