#N canvas 191 35 1015 655 10;
#X obj 17 -28 inlet;
#X obj 746 -45 inlet;
#X obj 17 -6 unpack 0 0;
#X obj 262 574 outlet~;
#X obj 282 555 outlet~;
#X obj 17 67 mtof~;
#X obj 262 511 hip~ 5;
#X obj 17 111 s~ \$0-midi;
#X obj 227 237 r~ \$0-midi;
#X obj 74 28 s \$0-vel;
#X obj 307 28 r \$0-vel;
#X obj 371 15 r \$1-loadbang;
#X obj 193 289 ../fmMod, f 18;
#X obj 262 463 *~;
#X obj 377 362 /~ 12543.9;
#X obj 377 383 /~ 4;
#X obj 377 425 cos~;
#X obj 377 404 -~ 0.09;
#X obj 377 340 r~ \$0-midi;
#X obj 307 104 ../my-env 4 1;
#X obj 262 261 sig~ 1;
#X obj 406 144 r~ \$0-midi;
#X obj 372 196 ../fmMod, f 18;
#X obj 510 153 r \$0-vel;
#X obj 600 133 r \$1-loadbang;
#X obj 511 229 ../my-env 4 1;
#X obj 746 2 s \$0-p1;
#X obj 548 361 r \$0-p1;
#X obj 548 382 clip 0 1;
#X obj 548 424 lop~ 5;
#X obj 372 217 *~;
#X obj 262 532 *~ 0.7;
#X obj 548 403 * 0.8;
#X obj 64 136 r~ \$0-midi;
#X obj 30 188 ../fmMod, f 18;
#X obj 112 32 r \$0-vel;
#X obj 176 19 r \$1-loadbang;
#X obj 112 108 ../my-env 4 1;
#X msg 169 82 clear \, 0.4 1000 0;
#X obj 748 -21 route p-1 trans;
#X obj 798 4 s \$0-trns;
#X obj 94 -39 r \$0-trns;
#X obj 17 15 sig~;
#X obj 17 36 +~, f 6;
#X msg 133 56 clear \, 1 8 0 \, 0.4 200 0;
#X msg 364 78 clear \, 0 250 0 \, 0.15 125 0 \, 0 200 0 \, 0.01 100
0 \, 0.167 100 0;
#X msg 328 52 clear \, 1 8 0 \, 0.15 200 0 \, 0.7 300 0;
#X msg 531 177 clear \, 1 3 0 \, 0.1 500 0;
#X msg 567 203 clear \, 0.1 500 0 \, 0.5 100 0;
#X msg 204 138 clear \, 0 500 0 \, 0.3 500 0 \, 0 2000 0;
#X obj 30 209 *~ 0.8;
#X obj 101 159 sig~ 3.001;
#X msg 602 230 clear \, 0 500 0 \, 0.4 500 0 \, 0 250 0 \, 0.2 250
0 \, 0 250 0;
#X msg 399 105 clear \, 0 500 0 \, 0.7 500 0 \, 0 250 0 \, 0.5 250
0 \, 0 250 0;
#X obj 41 322 s~ \$0-woah;
#X obj 189 187 r~ \$0-woah;
#X obj 189 208 *~ 0.3;
#X obj 441 168 sig~ 2.01;
#X obj 94 -18 lop~ 100;
#X connect 0 0 2 0;
#X connect 1 0 39 0;
#X connect 2 0 42 0;
#X connect 2 1 9 0;
#X connect 5 0 7 0;
#X connect 6 0 31 0;
#X connect 8 0 12 1;
#X connect 10 0 19 0;
#X connect 11 0 46 0;
#X connect 11 0 45 0;
#X connect 11 0 53 0;
#X connect 12 0 13 0;
#X connect 13 0 6 0;
#X connect 14 0 15 0;
#X connect 15 0 17 0;
#X connect 16 0 13 1;
#X connect 17 0 16 0;
#X connect 18 0 14 0;
#X connect 19 0 12 3;
#X connect 20 0 12 2;
#X connect 21 0 22 1;
#X connect 22 0 30 0;
#X connect 23 0 25 0;
#X connect 24 0 47 0;
#X connect 24 0 48 0;
#X connect 24 0 52 0;
#X connect 25 0 22 3;
#X connect 27 0 28 0;
#X connect 28 0 32 0;
#X connect 29 0 30 1;
#X connect 30 0 34 0;
#X connect 31 0 3 0;
#X connect 31 0 4 0;
#X connect 32 0 29 0;
#X connect 33 0 34 1;
#X connect 34 0 50 0;
#X connect 35 0 37 0;
#X connect 36 0 44 0;
#X connect 36 0 38 0;
#X connect 36 0 49 0;
#X connect 37 0 34 3;
#X connect 38 0 37 2;
#X connect 39 0 26 0;
#X connect 39 1 40 0;
#X connect 41 0 58 0;
#X connect 42 0 43 0;
#X connect 43 0 5 0;
#X connect 44 0 37 1;
#X connect 45 0 19 2;
#X connect 46 0 19 1;
#X connect 47 0 25 1;
#X connect 48 0 25 2;
#X connect 49 0 37 3;
#X connect 50 0 12 0;
#X connect 50 0 54 0;
#X connect 51 0 34 2;
#X connect 52 0 25 3;
#X connect 53 0 19 3;
#X connect 55 0 56 0;
#X connect 56 0 12 0;
#X connect 57 0 22 2;
#X connect 58 0 43 1;
