#N canvas 191 35 1015 655 10;
#X obj 17 -28 inlet;
#X obj 746 -45 inlet;
#X obj 17 -6 unpack 0 0;
#X obj 262 574 outlet~;
#X obj 635 563 outlet~;
#X obj 17 67 mtof~;
#X obj 262 511 hip~ 5;
#X obj 635 505 hip~ 5;
#X obj 17 111 s~ \$0-midi;
#X obj 227 237 r~ \$0-midi;
#X obj 74 28 s \$0-vel;
#X obj 307 28 r \$0-vel;
#X obj 371 15 r \$1-loadbang;
#X msg 364 78 clear \, 0 500 0 \, 0.5 300 0 \, 0 200 0 \, 0.1 100 0
\, 0.67 100 0;
#X obj 193 289 ../fmMod, f 18;
#X obj 262 463 *~;
#X obj 636 462 *~;
#X obj 650 250 /~ 12543.9;
#X obj 650 271 /~ 4;
#X obj 650 313 cos~;
#X obj 650 292 -~ 0.09;
#X obj 650 228 r~ \$0-midi;
#X msg 399 105 clear \, 0 1000 0;
#X obj 307 104 ../my-env 4 1;
#X obj 192 391 ../pan-mono;
#X obj 256 343 sig~ 0.5;
#X obj 262 261 sig~ 1;
#X obj 416 241 r~ \$0-midi;
#X obj 382 293 ../fmMod, f 18;
#X obj 510 123 r \$0-vel;
#X obj 600 103 r \$1-loadbang;
#X msg 602 200 clear \, 0 1000 0;
#X obj 510 199 ../my-env 4 1;
#X obj 746 2 s \$0-p1;
#X obj 548 361 r \$0-p1;
#X obj 548 382 clip 0 1;
#X obj 548 424 lop~ 5;
#X obj 382 314 *~;
#X obj 262 532 *~ 0.7;
#X obj 635 526 *~ 0.7;
#X obj 548 403 * 0.8;
#X obj 451 265 sig~ 2.33333;
#X msg 567 173 clear \, 0 1000 0;
#X obj 64 136 r~ \$0-midi;
#X obj 30 188 ../fmMod, f 18;
#X obj 100 160 sig~ 4;
#X obj 112 32 r \$0-vel;
#X obj 176 19 r \$1-loadbang;
#X msg 204 109 clear \, 0 1000 0;
#X obj 112 108 ../my-env 4 1;
#X msg 169 82 clear \, 0.4 1000 0;
#X obj 30 209 *~;
#X obj 748 -21 route p-1 trans;
#X obj 798 4 s \$0-trns;
#X obj 94 -39 r \$0-trns;
#X obj 17 15 sig~;
#X obj 17 36 +~, f 6;
#X obj 94 -18 lop~ 5;
#X msg 328 52 clear \, 1 8 0 \, 0.15 200 0 \, 1 300 0;
#X msg 133 56 clear \, 1 8 0 \, 0.4 200 0;
#X msg 531 147 clear \, 1 3 0 \, 0 200 0;
#X connect 0 0 2 0;
#X connect 1 0 52 0;
#X connect 2 0 55 0;
#X connect 2 1 10 0;
#X connect 5 0 8 0;
#X connect 6 0 38 0;
#X connect 7 0 39 0;
#X connect 9 0 14 1;
#X connect 11 0 23 0;
#X connect 12 0 58 0;
#X connect 12 0 13 0;
#X connect 12 0 22 0;
#X connect 13 0 23 2;
#X connect 14 0 24 0;
#X connect 15 0 6 0;
#X connect 16 0 7 0;
#X connect 17 0 18 0;
#X connect 18 0 20 0;
#X connect 19 0 15 1;
#X connect 19 0 16 1;
#X connect 20 0 19 0;
#X connect 21 0 17 0;
#X connect 22 0 23 3;
#X connect 23 0 14 3;
#X connect 24 0 15 0;
#X connect 24 1 16 0;
#X connect 25 0 24 1;
#X connect 26 0 14 2;
#X connect 27 0 28 1;
#X connect 28 0 37 0;
#X connect 29 0 32 0;
#X connect 30 0 60 0;
#X connect 30 0 42 0;
#X connect 30 0 31 0;
#X connect 31 0 32 3;
#X connect 32 0 28 3;
#X connect 34 0 35 0;
#X connect 35 0 40 0;
#X connect 36 0 37 1;
#X connect 36 0 51 1;
#X connect 37 0 44 0;
#X connect 38 0 3 0;
#X connect 39 0 4 0;
#X connect 40 0 36 0;
#X connect 41 0 28 2;
#X connect 42 0 32 2;
#X connect 43 0 44 1;
#X connect 44 0 51 0;
#X connect 45 0 44 2;
#X connect 46 0 49 0;
#X connect 47 0 59 0;
#X connect 47 0 50 0;
#X connect 47 0 48 0;
#X connect 48 0 49 3;
#X connect 49 0 44 3;
#X connect 50 0 49 2;
#X connect 51 0 14 0;
#X connect 52 0 33 0;
#X connect 52 1 53 0;
#X connect 54 0 57 0;
#X connect 55 0 56 0;
#X connect 56 0 5 0;
#X connect 57 0 56 1;
#X connect 58 0 23 1;
#X connect 59 0 49 1;
#X connect 60 0 32 1;
