#N canvas 191 35 1015 655 10;
#X obj 17 -28 inlet;
#X obj 746 -45 inlet;
#X obj 17 -6 unpack 0 0;
#X obj 262 574 outlet~;
#X obj 635 563 outlet~;
#X obj 17 27 mtof~;
#X obj 262 511 hip~ 5;
#X obj 635 505 hip~ 5;
#X obj 17 71 s~ \$0-midi;
#X obj 227 237 r~ \$0-midi;
#X obj 74 28 s \$0-vel;
#X obj 307 28 r \$0-vel;
#X msg 328 52 clear \, 1 3 0 \, 0.15 200 0 \, 1 300 0;
#X obj 371 15 r \$1-loadbang;
#X msg 364 78 clear \, 0 500 0 \, 0.5 300 0 \, 0 200 0 \, 0.1 100 0
\, 0.67 100 0;
#X obj 193 289 ../fmMod, f 18;
#X obj 262 463 *~;
#X obj 636 462 *~;
#X obj 650 250 /~ 12543.9;
#X obj 650 271 /~ 4;
#X obj 650 313 cos~;
#X obj 650 292 -~ 0.09;
#X obj 650 228 r~ \$0-midi;
#X msg 399 105 clear \, 0 1000 0;
#X obj 307 104 ../my-env 4 1;
#X obj 262 261 sig~ 1;
#X obj 416 241 r~ \$0-midi;
#X obj 382 293 ../fmMod, f 18;
#X obj 510 123 r \$0-vel;
#X obj 574 110 r \$1-loadbang;
#X msg 602 200 clear \, 0 1000 0;
#X obj 510 199 ../my-env 4 1;
#X obj 746 -22 route p-1;
#X obj 746 2 s \$0-p1;
#X obj 548 361 r \$0-p1;
#X obj 548 382 clip 0 1;
#X obj 548 424 lop~ 5;
#X obj 382 314 *~;
#X obj 262 532 *~ 0.7;
#X obj 635 526 *~ 0.7;
#X obj 548 403 * 0.8;
#X obj 451 265 sig~ 2.33333;
#X obj 64 136 r~ \$0-midi;
#X obj 30 188 ../fmMod, f 18;
#X obj 100 160 sig~ 4;
#X obj 350 194 *~ 0.45;
#X obj 112 32 r \$0-vel;
#X obj 176 19 r \$1-loadbang;
#X msg 204 109 clear \, 0 1000 0;
#X obj 112 108 ../my-env 4 1;
#X msg 169 82 clear \, 0.4 1000 0;
#X msg 133 56 clear \, 1 3 0 \, 0.4 200 0;
#X msg 531 147 clear \, 1 20 0 \, 0 200 0;
#X msg 567 173 clear \, 0.25 1000 0;
#X connect 0 0 2 0;
#X connect 1 0 32 0;
#X connect 2 0 5 0;
#X connect 2 1 10 0;
#X connect 5 0 8 0;
#X connect 6 0 38 0;
#X connect 7 0 39 0;
#X connect 9 0 15 1;
#X connect 11 0 24 0;
#X connect 12 0 24 1;
#X connect 13 0 12 0;
#X connect 13 0 14 0;
#X connect 13 0 23 0;
#X connect 14 0 24 2;
#X connect 15 0 16 0;
#X connect 15 0 17 0;
#X connect 16 0 6 0;
#X connect 17 0 7 0;
#X connect 18 0 19 0;
#X connect 19 0 21 0;
#X connect 20 0 16 1;
#X connect 20 0 17 1;
#X connect 21 0 20 0;
#X connect 22 0 18 0;
#X connect 23 0 24 3;
#X connect 24 0 15 3;
#X connect 25 0 15 2;
#X connect 26 0 27 1;
#X connect 27 0 37 0;
#X connect 28 0 31 0;
#X connect 29 0 52 0;
#X connect 29 0 53 0;
#X connect 29 0 30 0;
#X connect 30 0 31 3;
#X connect 31 0 27 3;
#X connect 32 0 33 0;
#X connect 34 0 35 0;
#X connect 35 0 40 0;
#X connect 36 0 37 1;
#X connect 37 0 15 0;
#X connect 38 0 3 0;
#X connect 39 0 4 0;
#X connect 40 0 36 0;
#X connect 41 0 27 2;
#X connect 42 0 43 1;
#X connect 43 0 45 0;
#X connect 44 0 43 2;
#X connect 45 0 27 0;
#X connect 46 0 49 0;
#X connect 47 0 51 0;
#X connect 47 0 50 0;
#X connect 47 0 48 0;
#X connect 48 0 49 3;
#X connect 49 0 43 3;
#X connect 50 0 49 2;
#X connect 51 0 49 1;
#X connect 52 0 31 1;
#X connect 53 0 31 2;
