#N canvas 180 116 1260 690 12;
#X declare -path ../;
#X obj 17 -28 inlet;
#X obj 879 -17 inlet;
#X obj 17 -6 unpack 0 0;
#X obj 24 577 outlet~;
#X obj 84 577 outlet~;
#X obj 17 187 mtof~;
#X obj 17 241 s~ \$0-midi;
#X obj 84 58 s \$0-vel;
#X obj 35 105 r \$0-trans;
#X obj 35 131 lop~ 20;
#X obj 17 75 sig~;
#X obj 17 156 +~;
#X obj 1087 -6 declare -path ../;
#N canvas 199 52 1159 688 filter 0;
#X obj 45 23 inlet~;
#X obj 129 21 inlet~;
#X obj 437 53 r \$0-vel;
#X obj 523 262 j-env-absolute-points;
#X obj 523 568 *~;
#X obj 437 88 sel 0, f 28;
#X obj 523 332 j-env-bpm-scale;
#X obj 625 305 r global-bpm;
#X obj 437 117 t b b;
#X msg 469 146 0;
#X text 504 147 loop off;
#X msg 671 160 1;
#X text 702 161 loop on;
#X obj 630 126 t b b a;
#X obj 523 384 j-complex-env-block;
#X msg 309 189 cont \, 0.5 2000 0.5;
#X obj 541 513 j-env-velocity 120;
#X obj 46 171 vcf~ 4, f 12;
#X obj 48 246 hip~ 4;
#X obj 150 169 vcf~ 4, f 12;
#X obj 153 254 hip~ 4;
#X obj 48 286 outlet~;
#X obj 153 277 outlet~;
#X obj 523 637 s~ \$0-filter-s;
#X obj 179 112 r~ \$0-filter-s;
#X obj 523 615 +~ 2000;
#X obj 523 591 *~ 8000;
#X msg 523 236 new \, 1 8 0.9 \, 0.5 1000 2 \, 0.65 2000 2 \, 0 8000
2;
#X obj 151 212 vcf~ 2, f 12;
#X obj 47 214 vcf~ 2, f 12;
#X connect 0 0 17 0;
#X connect 1 0 19 0;
#X connect 2 0 5 0;
#X connect 3 0 6 0;
#X connect 4 0 26 0;
#X connect 5 0 8 0;
#X connect 5 1 13 0;
#X connect 6 0 14 0;
#X connect 7 0 6 1;
#X connect 8 0 15 0;
#X connect 8 1 9 0;
#X connect 13 0 27 0;
#X connect 13 1 11 0;
#X connect 13 2 16 0;
#X connect 14 0 4 0;
#X connect 15 0 3 0;
#X connect 16 0 4 1;
#X connect 17 1 29 0;
#X connect 18 0 21 0;
#X connect 19 1 28 0;
#X connect 20 0 22 0;
#X connect 24 0 17 1;
#X connect 24 0 19 1;
#X connect 24 0 28 1;
#X connect 24 0 29 1;
#X connect 25 0 23 0;
#X connect 26 0 25 0;
#X connect 27 0 3 0;
#X connect 28 1 20 0;
#X connect 29 1 18 0;
#X restore 339 356 pd filter;
#N canvas 0 23 722 502 freq-env 0;
#X obj 177 86 r \$0-vel;
#X obj 198 114 r \$1-loadbang;
#X msg 468 188 bpm \$1;
#X msg 187 169 clear \, 1 1000 \, 0 8;
#X obj 291 384 s \$0-switch-count;
#X obj 291 323 sel 0 1;
#X msg 291 346 -1;
#X msg 327 346 1;
#X msg 297 223 clear \, 0 200;
#X obj 467 159 r global-bpm;
#X obj 198 134 t b b b;
#X obj 175 313 *~ 1;
#X msg 233 195 clear \, 0.5 4 \, 0.05 4;
#X obj 176 290 j-env 1 120 12, f 17;
#X connect 0 0 13 0;
#X connect 1 0 10 0;
#X connect 2 0 13 4;
#X connect 3 0 13 1;
#X connect 5 0 6 0;
#X connect 5 1 7 0;
#X connect 6 0 4 0;
#X connect 7 0 4 0;
#X connect 8 0 13 3;
#X connect 9 0 2 0;
#X connect 10 0 3 0;
#X connect 10 1 12 0;
#X connect 10 2 8 0;
#X connect 12 0 13 2;
#X connect 13 0 11 0;
#X connect 13 1 5 0;
#X restore 390 205 pd freq-env;
#X obj 879 9 list prepend \$0;
#X msg 879 39 \; \$1-\$2 \$3;
#X text 968 46 local messages;
#X text 112 -4 avoid clicks \, could be problematic;
#N canvas 169 168 1120 628 osc-D-fb 0;
#X obj 215 236 r~ \$0-midi;
#X obj 437 53 r \$0-vel;
#X obj 198 470 outlet~;
#X obj 150 60 inlet~;
#X obj 523 262 j-env-absolute-points;
#X obj 523 568 *~;
#X obj 437 88 sel 0, f 28;
#X obj 523 332 j-env-bpm-scale;
#X obj 625 305 r global-bpm;
#X obj 437 117 t b b;
#X msg 469 146 0;
#X text 504 147 loop off;
#X msg 671 160 1;
#X text 702 161 loop on;
#X obj 630 126 t b b a;
#X obj 369 338 lop~ 5;
#X obj 541 512 j-env-velocity 120;
#X obj 523 384 j-complex-env-block;
#X obj 269 285 sig~ 3.9906;
#X msg 398 181 cont \, 0 2000 2;
#X msg 522 221 new \, 0.7 8 0.8 \, 0.9 1000 0.8;
#X obj 369 314 r \$0-p1;
#X obj 198 407 j-fm-feedback-osc \$1 400;
#X connect 0 0 22 1;
#X connect 1 0 6 0;
#X connect 3 0 22 0;
#X connect 4 0 7 0;
#X connect 5 0 22 3;
#X connect 6 0 9 0;
#X connect 6 1 14 0;
#X connect 7 0 17 0;
#X connect 8 0 7 1;
#X connect 9 0 19 0;
#X connect 9 1 10 0;
#X connect 14 0 20 0;
#X connect 14 1 12 0;
#X connect 14 2 16 0;
#X connect 15 0 22 4;
#X connect 16 0 5 1;
#X connect 17 0 5 0;
#X connect 18 0 22 2;
#X connect 19 0 7 0;
#X connect 20 0 4 0;
#X connect 21 0 15 0;
#X connect 22 0 2 0;
#X restore 446 25 pd osc-D-fb;
#N canvas 110 88 1208 643 osc-B 0;
#X obj 215 236 r~ \$0-midi;
#X obj 437 53 r \$0-vel;
#X obj 198 470 outlet~;
#X obj 150 60 inlet~;
#X obj 234 364 +~;
#X obj 523 262 j-env-absolute-points;
#X obj 523 568 *~;
#X obj 437 88 sel 0, f 28;
#X obj 523 332 j-env-bpm-scale;
#X obj 625 305 r global-bpm;
#X obj 437 117 t b b;
#X msg 469 146 0;
#X text 504 147 loop off;
#X msg 671 160 1;
#X text 702 161 loop on;
#X obj 630 126 t b b a;
#X obj 541 513 j-env-velocity 69;
#X obj 523 384 j-complex-env-block;
#X obj 199 407 j-fm-mod;
#X msg 523 236 new \, 0.8 1 4 \, 0.1 4000 2 \, 0.86 8000 2;
#X msg 309 189 cont \, 0.5 1000 2 \, 0.7 2000 2 \, 0.25 3000 2 \, 0.6
4000 2 \, 0.15 5000 2 \, 0.45 6000 2 \, 0 8000 4;
#X obj 300 268 r \$0-ratio;
#X obj 300 291 + 0.0013;
#X obj 234 328 lop~ 100;
#X connect 0 0 18 1;
#X connect 1 0 7 0;
#X connect 3 0 18 0;
#X connect 4 0 18 2;
#X connect 5 0 8 0;
#X connect 6 0 18 3;
#X connect 7 0 10 0;
#X connect 7 1 15 0;
#X connect 8 0 17 0;
#X connect 9 0 8 1;
#X connect 10 0 20 0;
#X connect 10 1 11 0;
#X connect 15 0 19 0;
#X connect 15 1 13 0;
#X connect 15 2 16 0;
#X connect 16 0 6 1;
#X connect 17 0 6 0;
#X connect 18 0 2 0;
#X connect 19 0 5 0;
#X connect 20 0 5 0;
#X connect 21 0 22 0;
#X connect 22 0 23 0;
#X connect 23 0 4 0;
#X restore 446 89 pd osc-B;
#X obj 270 192 lop~ 10;
#X obj 252 220 *~;
#N canvas 0 23 1126 834 outlet 0;
#X obj 262 574 outlet~;
#X obj 635 563 outlet~;
#X obj 262 511 hip~ 5;
#X obj 635 505 hip~ 5;
#X obj 262 463 *~;
#X obj 636 462 *~;
#X obj 654 325 /~ 12543.9;
#X obj 654 346 /~ 4;
#X obj 654 367 -~ 0.09;
#X obj 654 303 r~ \$0-midi;
#X obj 654 397 cos~;
#X obj 654 429 lop~ 100;
#X obj 304 310 catch~ \$0-out-L;
#X obj 453 309 catch~ \$0-out-R;
#X connect 2 0 0 0;
#X connect 3 0 1 0;
#X connect 4 0 2 0;
#X connect 5 0 3 0;
#X connect 6 0 7 0;
#X connect 7 0 8 0;
#X connect 8 0 10 0;
#X connect 9 0 6 0;
#X connect 10 0 11 0;
#X connect 11 0 4 1;
#X connect 11 0 5 1;
#X connect 12 0 4 0;
#X connect 13 0 5 0;
#X restore 24 541 pd outlet;
#X obj 249 421 throw~ \$0-out-L;
#X obj 593 440 throw~ \$0-out-R;
#X obj 562 13 lop~ 10;
#X obj 446 55 *~, f 17;
#X obj 562 -13 r \$0-p2;
#X obj 270 166 r \$0-p3;
#X obj 609 187 lop~ 10;
#X obj 591 215 *~;
#X obj 609 161 r \$0-p4;
#N canvas 110 88 1208 643 osc-B 0;
#X obj 215 236 r~ \$0-midi;
#X obj 437 53 r \$0-vel;
#X obj 198 470 outlet~;
#X obj 150 60 inlet~;
#X obj 234 364 +~;
#X obj 523 282 j-env-absolute-points;
#X obj 523 568 *~;
#X obj 437 88 sel 0, f 28;
#X obj 523 332 j-env-bpm-scale;
#X obj 625 305 r global-bpm;
#X obj 437 117 t b b;
#X msg 469 146 0;
#X text 504 147 loop off;
#X msg 671 160 1;
#X text 702 161 loop on;
#X obj 630 126 t b b a;
#X obj 541 513 j-env-velocity 69;
#X obj 523 370 j-complex-env-block;
#X obj 199 407 j-fm-mod;
#X obj 653 400 spigot 0;
#X obj 653 423 sel 0;
#X obj 234 328 sig~ 1.0065;
#X msg 309 190 cont \, 0.1 500 0.8 \, 0.01 8000 0.8 \, 0 8500 0.8;
#X msg 840 354 cont \, 0.5 69 2 \, 0.82 90 2 \, 0.5 125 1.3 \, 0.25
320 2;
#X msg 523 236 new \, 0.5 69 2 \, 0.82 90 2 \, 0.5 125 1.3 \, 0.2 320
2;
#X connect 0 0 18 1;
#X connect 1 0 7 0;
#X connect 3 0 18 0;
#X connect 4 0 18 2;
#X connect 5 0 8 0;
#X connect 6 0 18 3;
#X connect 7 0 10 0;
#X connect 7 1 15 0;
#X connect 8 0 17 0;
#X connect 9 0 8 1;
#X connect 10 0 22 0;
#X connect 10 1 11 0;
#X connect 11 0 19 1;
#X connect 13 0 19 1;
#X connect 15 0 24 0;
#X connect 15 1 13 0;
#X connect 15 2 16 0;
#X connect 16 0 6 1;
#X connect 17 0 6 0;
#X connect 17 1 19 0;
#X connect 18 0 2 0;
#X connect 19 0 20 0;
#X connect 20 0 23 0;
#X connect 21 0 4 0;
#X connect 22 0 5 0;
#X connect 23 0 5 0;
#X connect 24 0 5 0;
#X restore 591 282 pd osc-B;
#N canvas 110 88 1208 643 osc-A 0;
#X obj 215 236 r~ \$0-midi;
#X obj 437 53 r \$0-vel;
#X obj 198 470 outlet~;
#X obj 150 60 inlet~;
#X obj 234 364 +~;
#X obj 523 282 j-env-absolute-points;
#X obj 523 568 *~;
#X obj 437 88 sel 0, f 28;
#X obj 523 332 j-env-bpm-scale;
#X obj 625 305 r global-bpm;
#X obj 437 117 t b b;
#X msg 469 146 0;
#X text 504 147 loop off;
#X msg 671 160 1;
#X text 702 161 loop on;
#X obj 630 126 t b b a;
#X obj 541 513 j-env-velocity 69;
#X obj 523 370 j-complex-env-block;
#X obj 199 407 j-fm-mod;
#X obj 653 400 spigot 0;
#X obj 653 423 sel 0;
#X obj 234 328 sig~ 0.9962;
#X msg 309 190 cont \, 0.1 500 0.8 \, 0.01 8000 0.8 \, 0 8500 0.8;
#X msg 523 236 new \, 0.5 5 2 \, 0.82 90 2 \, 0.5 125 1.3 \, 0.2 320
2;
#X msg 839 354 cont \, 0.5 5 2 \, 0.82 90 2 \, 0.5 125 1.3 \, 0.2 320
2;
#X connect 0 0 18 1;
#X connect 1 0 7 0;
#X connect 3 0 18 0;
#X connect 4 0 18 2;
#X connect 5 0 8 0;
#X connect 6 0 18 3;
#X connect 7 0 10 0;
#X connect 7 1 15 0;
#X connect 8 0 17 0;
#X connect 9 0 8 1;
#X connect 10 0 22 0;
#X connect 10 1 11 0;
#X connect 11 0 19 1;
#X connect 13 0 19 1;
#X connect 15 0 23 0;
#X connect 15 1 13 0;
#X connect 15 2 16 0;
#X connect 16 0 6 1;
#X connect 17 0 6 0;
#X connect 17 1 19 0;
#X connect 18 0 2 0;
#X connect 19 0 20 0;
#X connect 20 0 24 0;
#X connect 21 0 4 0;
#X connect 22 0 5 0;
#X connect 23 0 5 0;
#X connect 24 0 5 0;
#X restore 251 278 pd osc-A;
#X obj 251 301 *~ 0.98;
#X obj 591 305 *~ 0.98;
#X connect 0 0 2 0;
#X connect 1 0 15 0;
#X connect 2 0 10 0;
#X connect 2 1 7 0;
#X connect 5 0 6 0;
#X connect 8 0 9 0;
#X connect 9 0 11 1;
#X connect 10 0 11 0;
#X connect 11 0 5 0;
#X connect 13 0 24 0;
#X connect 13 1 25 0;
#X connect 15 0 16 0;
#X connect 19 0 27 0;
#X connect 20 0 22 0;
#X connect 20 0 31 0;
#X connect 21 0 22 1;
#X connect 22 0 34 0;
#X connect 23 0 3 0;
#X connect 23 1 4 0;
#X connect 26 0 27 1;
#X connect 27 0 20 0;
#X connect 28 0 26 0;
#X connect 29 0 21 0;
#X connect 30 0 31 1;
#X connect 31 0 33 0;
#X connect 32 0 30 0;
#X connect 33 0 36 0;
#X connect 34 0 35 0;
#X connect 35 0 13 0;
#X connect 36 0 13 1;
