#N canvas 180 188 1260 690 12;
#X declare -path ../;
#X obj 17 -28 inlet;
#X obj 549 -23 inlet;
#X obj 17 -6 unpack 0 0;
#X obj 262 574 outlet~;
#X obj 635 563 outlet~;
#X obj 17 187 mtof~;
#X obj 262 511 hip~ 5;
#X obj 635 505 hip~ 5;
#X obj 17 241 s~ \$0-midi;
#X obj 133 96 s \$0-vel;
#X obj 262 463 *~;
#X obj 636 462 *~;
#X obj 675 264 /~ 12543.9;
#X obj 675 285 /~ 4;
#X obj 675 306 -~ 0.09;
#X obj 675 242 r~ \$0-midi;
#X obj 549 24 s \$0-p1;
#X obj 35 105 r \$0-trans;
#X obj 35 131 lop~ 20;
#X obj 17 75 sig~;
#X obj 17 156 +~;
#X obj 607 56 s \$0-trans;
#X obj 757 -12 declare -path ../;
#X obj 619 24 s \$0-p2;
#X obj 273 155 r \$0-p1;
#X obj 273 181 lop~ 10;
#N canvas 0 23 450 300 filter 0;
#X restore 359 382 pd filter;
#N canvas 0 23 722 502 freq-env 0;
#X obj 177 86 r \$0-vel;
#X obj 198 114 r \$1-loadbang;
#X msg 468 188 bpm \$1;
#X msg 187 169 clear \, 1 1000 \, 0 8;
#X obj 291 384 s \$0-switch-count;
#X obj 291 323 sel 0 1;
#X msg 291 346 -1;
#X msg 327 346 1;
#X msg 297 223 clear \, 0 200;
#X obj 467 159 r global-bpm;
#X obj 198 134 t b b b;
#X obj 175 313 *~ 1;
#X msg 233 195 clear \, 0.5 4 \, 0.05 4;
#X obj 176 290 j-env 1 120 12, f 17;
#X connect 0 0 13 0;
#X connect 1 0 10 0;
#X connect 2 0 13 4;
#X connect 3 0 13 1;
#X connect 5 0 6 0;
#X connect 5 1 7 0;
#X connect 6 0 4 0;
#X connect 7 0 4 0;
#X connect 8 0 13 3;
#X connect 9 0 2 0;
#X connect 10 0 3 0;
#X connect 10 1 12 0;
#X connect 10 2 8 0;
#X connect 12 0 13 2;
#X connect 13 0 11 0;
#X connect 13 1 5 0;
#X restore 259 56 pd freq-env;
#N canvas 169 168 1120 628 osc-2 0;
#X obj 215 236 r~ \$0-midi;
#X obj 437 53 r \$0-vel;
#X obj 198 470 outlet~;
#X obj 198 407 j-fm-mod;
#X obj 150 60 inlet~;
#X obj 234 304 +~;
#X obj 523 262 j-env-absolute-points;
#X obj 523 568 *~;
#X obj 541 512 j-env-velocity 69;
#X obj 654 448 spigot 0;
#X text 716 449 loop;
#X obj 437 88 sel 0, f 28;
#X obj 523 332 j-env-bpm-scale;
#X obj 625 305 r global-bpm;
#X obj 437 117 t b b;
#X msg 469 146 0;
#X text 504 147 loop off;
#X msg 671 160 1;
#X text 702 161 loop on;
#X obj 235 280 sig~ 1.001;
#X msg 398 181 cont \, 0 500 4;
#X msg 714 386 cont \, 0.25 250 4 \, 0.8 250 4 \, 0.1 250 4 \, 0.75
250 4;
#X obj 524 457 *~;
#X obj 775 297 j-complex-env;
#X obj 776 271 j-env-absolute-points;
#X obj 630 126 t b b b a, f 30;
#X msg 774 242 new \, 1 1 2 \, 0 4000 1.8;
#X msg 522 221 new \, 0.9 8 2 \, 0.1 125 2 \, 0.86 250 2;
#X obj 524 384 j-complex-env-block;
#X obj 654 420 sel 0;
#X connect 0 0 3 1;
#X connect 1 0 11 0;
#X connect 3 0 2 0;
#X connect 4 0 3 0;
#X connect 5 0 3 2;
#X connect 6 0 12 0;
#X connect 7 0 3 3;
#X connect 8 0 7 1;
#X connect 9 0 21 0;
#X connect 11 0 14 0;
#X connect 11 1 25 0;
#X connect 12 0 28 0;
#X connect 13 0 12 1;
#X connect 14 0 20 0;
#X connect 14 1 15 0;
#X connect 15 0 9 1;
#X connect 17 0 9 1;
#X connect 19 0 5 0;
#X connect 20 0 12 0;
#X connect 21 0 12 0;
#X connect 22 0 7 0;
#X connect 23 0 22 1;
#X connect 24 0 23 0;
#X connect 25 0 27 0;
#X connect 25 1 17 0;
#X connect 25 2 26 0;
#X connect 25 3 8 0;
#X connect 26 0 24 0;
#X connect 27 0 6 0;
#X connect 28 0 22 0;
#X connect 28 1 29 0;
#X connect 29 0 9 0;
#X restore 521 339 pd osc-2;
#X obj 255 209 *~;
#X obj 675 336 cos~;
#X obj 675 368 lop~ 100;
#X obj 17 210 lop~ 1000;
#X obj 521 362 *~ 0.7;
#N canvas 169 168 1120 628 osc-3-fb 0;
#X obj 215 236 r~ \$0-midi;
#X obj 437 53 r \$0-vel;
#X obj 198 470 outlet~;
#X obj 150 60 inlet~;
#X obj 523 262 j-env-absolute-points;
#X obj 523 568 *~;
#X obj 611 451 spigot 0;
#X text 673 452 loop;
#X obj 437 88 sel 0, f 28;
#X obj 523 332 j-env-bpm-scale;
#X obj 625 305 r global-bpm;
#X obj 437 117 t b b;
#X msg 469 146 0;
#X text 504 147 loop off;
#X msg 671 160 1;
#X text 702 161 loop on;
#X obj 630 126 t b b a;
#X obj 361 304 lop~ 5;
#X obj 361 280 r \$0-p2;
#X obj 302 208 lop~ 10;
#X obj 302 182 r \$0-p3;
#X msg 398 181 cont \, 0 1000 2;
#X obj 198 407 j-fm-feedback-osc \$1 1400;
#X obj 268 285 sig~ 3;
#X msg 690 404 cont \, 0.25 125 2 \, 0.9 125 2 \, 0.25 125 2 \, 0.8
250 4 \, 0.2 250 3 \, 0.78 250 3 \, 0.2 320 2 \, 0.75 320 4 \, 0.25
320 4;
#X obj 541 512 j-env-velocity 120;
#X msg 522 221 new \, 0.75 8 0.8 \, 0.1 1000 0.8 \, 0.86 250 2;
#X obj 523 384 j-complex-env-block;
#X obj 611 421 sel 0;
#X connect 0 0 22 1;
#X connect 1 0 8 0;
#X connect 3 0 22 0;
#X connect 4 0 9 0;
#X connect 5 0 22 3;
#X connect 6 0 24 0;
#X connect 8 0 11 0;
#X connect 8 1 16 0;
#X connect 9 0 27 0;
#X connect 10 0 9 1;
#X connect 11 0 21 0;
#X connect 11 1 12 0;
#X connect 12 0 6 1;
#X connect 14 0 6 1;
#X connect 16 0 26 0;
#X connect 16 1 14 0;
#X connect 16 2 25 0;
#X connect 17 0 22 4;
#X connect 18 0 17 0;
#X connect 20 0 19 0;
#X connect 21 0 9 0;
#X connect 22 0 2 0;
#X connect 23 0 22 2;
#X connect 24 0 9 0;
#X connect 25 0 5 1;
#X connect 26 0 4 0;
#X connect 27 0 5 0;
#X connect 27 1 28 0;
#X connect 28 0 6 0;
#X restore 421 48 pd osc-3-fb;
#N canvas 172 168 1120 628 osc-1 0;
#X obj 215 236 r~ \$0-midi;
#X obj 437 53 r \$0-vel;
#X obj 198 470 outlet~;
#X obj 150 60 inlet~;
#X obj 234 304 +~;
#X obj 523 262 j-env-absolute-points;
#X obj 523 568 *~;
#X obj 611 451 spigot 0;
#X text 673 452 loop;
#X obj 437 88 sel 0, f 28;
#X obj 523 332 j-env-bpm-scale;
#X obj 625 305 r global-bpm;
#X obj 437 117 t b b;
#X msg 469 146 0;
#X text 504 147 loop off;
#X msg 671 160 1;
#X text 702 161 loop on;
#X obj 630 126 t b b a;
#X msg 398 181 cont \, 0 500 2;
#X obj 541 513 j-env-velocity 69;
#X msg 762 403 cont \, 0.25 125 2 \, 0.9 125 2 \, 0.25 125 2 \, 0.8
250 4 \, 0.2 250 3 \, 0.78 250 3 \, 0.2 320 2 \, 0.75 320 4 \, 0.25
320 4;
#X obj 198 407 j-fm-tx-1;
#X obj 233 281 sig~ 1;
#X msg 522 221 new \, 0.25 1 4 \, 0.1 1000 2 \, 0.86 2000 2;
#X obj 523 384 j-complex-env-block;
#X obj 611 417 sel 0;
#X connect 0 0 21 1;
#X connect 1 0 9 0;
#X connect 3 0 21 0;
#X connect 4 0 21 2;
#X connect 5 0 10 0;
#X connect 6 0 21 3;
#X connect 7 0 20 0;
#X connect 9 0 12 0;
#X connect 9 1 17 0;
#X connect 10 0 24 0;
#X connect 11 0 10 1;
#X connect 12 0 18 0;
#X connect 12 1 13 0;
#X connect 13 0 7 1;
#X connect 15 0 7 1;
#X connect 17 0 23 0;
#X connect 17 1 15 0;
#X connect 17 2 19 0;
#X connect 18 0 10 0;
#X connect 19 0 6 1;
#X connect 20 0 10 0;
#X connect 21 0 2 0;
#X connect 22 0 4 0;
#X connect 23 0 5 0;
#X connect 24 0 6 0;
#X connect 24 1 25 0;
#X connect 25 0 7 0;
#X restore 398 105 pd osc-1;
#X obj 719 31 s \$0-p3;
#X obj 549 0 route p-1 trans p-2 p-3;
#X obj 250 340 *~ 0.7;
#N canvas 169 168 1120 628 osc-1 0;
#X obj 215 236 r~ \$0-midi;
#X obj 437 53 r \$0-vel;
#X obj 198 470 outlet~;
#X obj 198 407 j-fm-mod;
#X obj 150 60 inlet~;
#X obj 234 304 +~;
#X obj 523 262 j-env-absolute-points;
#X obj 523 568 *~;
#X obj 541 536 j-env-velocity 69;
#X obj 648 481 spigot 0;
#X text 710 482 loop;
#X obj 437 88 sel 0, f 28;
#X obj 523 332 j-env-bpm-scale;
#X obj 625 305 r global-bpm;
#X obj 437 117 t b b;
#X msg 469 146 0;
#X text 504 147 loop off;
#X msg 671 160 1;
#X text 702 161 loop on;
#X msg 398 181 cont \, 0 500 4;
#X obj 524 457 *~;
#X obj 775 297 j-complex-env;
#X obj 776 271 j-env-absolute-points;
#X obj 630 126 t b b b a, f 30;
#X msg 714 386 cont \, 0.25 250 2 \, 0.8 250 3 \, 0.1 250 3 \, 0.75
250 3;
#X obj 236 279 sig~ 1;
#X msg 778 241 new \, 1 1 2 \, 0 4000 2;
#X msg 523 221 new \, 0.9 5 2 \, 0.1 125 2 \, 0.86 250 2;
#X obj 648 448 sel 0;
#X obj 524 386 j-complex-env-block;
#X connect 0 0 3 1;
#X connect 1 0 11 0;
#X connect 3 0 2 0;
#X connect 4 0 3 0;
#X connect 5 0 3 2;
#X connect 6 0 12 0;
#X connect 7 0 3 3;
#X connect 8 0 7 1;
#X connect 9 0 24 0;
#X connect 11 0 14 0;
#X connect 11 1 23 0;
#X connect 12 0 29 0;
#X connect 13 0 12 1;
#X connect 14 0 19 0;
#X connect 14 1 15 0;
#X connect 15 0 9 1;
#X connect 17 0 9 1;
#X connect 19 0 12 0;
#X connect 20 0 7 0;
#X connect 21 0 20 1;
#X connect 22 0 21 0;
#X connect 23 0 27 0;
#X connect 23 1 17 0;
#X connect 23 2 26 0;
#X connect 23 3 8 0;
#X connect 24 0 12 0;
#X connect 25 0 5 0;
#X connect 26 0 22 0;
#X connect 27 0 6 0;
#X connect 28 0 9 0;
#X connect 29 0 20 0;
#X connect 29 1 28 0;
#X restore 250 317 pd osc-1;
#X obj 432 208 *~ 0.1;
#X obj 398 128 *~ 0.5;
#X obj 255 232 *~ 0.7;
#X obj 262 534 *~;
#X obj 430 499 vline~;
#X obj 635 528 *~;
#X obj 430 470 r \$0-duck;
#N canvas 371 237 450 300 duck 0;
#X obj 67 44 inlet;
#X obj 67 67 sel 0, f 18;
#X msg 145 149 stop;
#X obj 190 210 f, f 10;
#X obj 67 90 t b b;
#X msg 67 113 0;
#X obj 67 253 outlet;
#X obj 298 212 s \$0-duck;
#X obj 190 233 t a b;
#X obj 190 96 t b a b b;
#X msg 298 168 0 3;
#X obj 190 182 del 3;
#X msg 222 260 1 3;
#X connect 0 0 1 0;
#X connect 1 0 4 0;
#X connect 1 1 9 0;
#X connect 2 0 11 0;
#X connect 3 0 8 0;
#X connect 4 0 5 0;
#X connect 4 1 2 0;
#X connect 5 0 6 0;
#X connect 8 0 6 0;
#X connect 8 1 12 0;
#X connect 9 0 11 0;
#X connect 9 1 3 1;
#X connect 9 2 2 0;
#X connect 9 3 10 0;
#X connect 10 0 7 0;
#X connect 11 0 3 0;
#X connect 12 0 7 0;
#X restore 133 59 pd duck;
#X connect 0 0 2 0;
#X connect 1 0 37 0;
#X connect 2 0 19 0;
#X connect 2 1 47 0;
#X connect 5 0 32 0;
#X connect 6 0 43 0;
#X connect 7 0 45 0;
#X connect 10 0 6 0;
#X connect 11 0 7 0;
#X connect 12 0 13 0;
#X connect 13 0 14 0;
#X connect 14 0 30 0;
#X connect 15 0 12 0;
#X connect 17 0 18 0;
#X connect 18 0 20 1;
#X connect 19 0 20 0;
#X connect 20 0 5 0;
#X connect 24 0 25 0;
#X connect 25 0 29 1;
#X connect 28 0 33 0;
#X connect 29 0 42 0;
#X connect 30 0 31 0;
#X connect 31 0 10 1;
#X connect 31 0 11 1;
#X connect 32 0 8 0;
#X connect 33 0 11 0;
#X connect 34 0 35 0;
#X connect 35 0 41 0;
#X connect 37 0 16 0;
#X connect 37 1 21 0;
#X connect 37 2 23 0;
#X connect 37 3 36 0;
#X connect 38 0 10 0;
#X connect 39 0 38 0;
#X connect 40 0 39 0;
#X connect 40 0 28 0;
#X connect 41 0 29 0;
#X connect 41 0 40 0;
#X connect 42 0 28 0;
#X connect 42 0 39 0;
#X connect 43 0 3 0;
#X connect 44 0 43 1;
#X connect 44 0 45 1;
#X connect 45 0 4 0;
#X connect 46 0 44 0;
#X connect 47 0 9 0;
