#N canvas 257 199 1109 679 10;
#X obj 37 22 inlet;
#X obj 822 20 inlet;
#X obj 37 44 unpack 0 0;
#X obj 352 536 outlet~;
#X obj 445 536 outlet~;
#X obj 37 117 mtof~;
#X obj 37 161 s~ \$0-midi;
#X obj 406 255 r~ \$0-midi;
#X obj 94 78 s \$0-vel;
#X obj 461 372 sig~ 1;
#N canvas 372 324 635 407 envelope 0;
#X obj 65 105 r \$0-vel;
#X obj 129 92 r \$1-loadbang;
#X obj 66 229 outlet~;
#X msg 151 177 clear \, 0 3000 0;
#X obj 67 180 ../my-env 3 1;
#X msg 86 129 clear \, 1 8 0 \, 0.15 300 0;
#X msg 124 152 clear \, 0.1 250 0 \, 0.6 250 0 \, 0.05 250 0;
#X connect 0 0 4 0;
#X connect 1 0 5 0;
#X connect 1 0 6 0;
#X connect 1 0 3 0;
#X connect 3 0 4 3;
#X connect 4 0 2 0;
#X connect 5 0 4 1;
#X connect 6 0 4 2;
#X restore 572 369 pd envelope;
#N canvas 0 23 726 545 outlets 0;
#X obj 172 391 outlet~;
#X obj 545 380 outlet~;
#X obj 172 348 hip~ 5;
#X obj 545 342 hip~ 5;
#X obj 172 300 *~;
#X obj 546 299 *~;
#X obj 561 121 /~ 12543.9;
#X obj 561 142 /~ 4;
#X obj 561 184 cos~;
#X obj 561 163 -~ 0.09;
#X obj 561 99 r~ \$0-midi;
#X obj 546 237 catch~ R-out-\$0;
#X obj 172 237 catch~ L-out-\$0;
#X obj 172 325 *~ 0.75;
#X obj 545 321 *~ 0.75;
#X obj 203 190 inlet~;
#X obj 590 217 inlet~;
#X connect 2 0 0 0;
#X connect 3 0 1 0;
#X connect 4 0 13 0;
#X connect 5 0 14 0;
#X connect 6 0 7 0;
#X connect 7 0 9 0;
#X connect 8 0 4 1;
#X connect 8 0 5 1;
#X connect 9 0 8 0;
#X connect 10 0 6 0;
#X connect 11 0 5 0;
#X connect 12 0 4 0;
#X connect 13 0 2 0;
#X connect 14 0 3 0;
#X connect 15 0 4 0;
#X connect 16 0 5 0;
#X restore 352 502 pd outlets - - -;
#N canvas 0 23 450 300 messages 0;
#X obj 37 16 inlet;
#X obj 37 67 s \$0-p1;
#X obj 84 91 s \$0-p2;
#X obj 37 43 route p1 p2 trans;
#X obj 143 112 s \$0-trans;
#X connect 0 0 3 0;
#X connect 3 0 1 0;
#X connect 3 1 2 0;
#X connect 3 2 4 0;
#X restore 822 44 pd messages;
#X obj 334 83 r \$0-p1;
#X obj 329 109 lop~ 5;
#X obj 404 76 r~ \$0-midi;
#N canvas 0 23 635 407 envelope 0;
#X obj 65 105 r \$0-vel;
#X obj 129 92 r \$1-loadbang;
#X obj 66 274 outlet~;
#X obj 67 225 ../my-env 3 1;
#X msg 123 155 clear \, 0.5 500 0 \, 0.25 300 0 \, 0.5 200 0 \, 0.1
100 0 \, 0.67 100 0;
#X msg 86 129 clear \, 1 8 0 \, 0.5 300 0;
#X msg 151 189 clear \, 0 1000 0;
#X connect 0 0 3 0;
#X connect 1 0 5 0;
#X connect 1 0 4 0;
#X connect 1 0 6 0;
#X connect 3 0 2 0;
#X connect 4 0 3 2;
#X connect 5 0 3 1;
#X connect 6 0 3 3;
#X restore 514 145 pd envelope;
#X obj 569 169 r \$0-p2;
#X obj 350 227 ../feedback-osc \$1, f 37;
#X obj 37 65 sig~;
#X obj 37 86 +~;
#X obj 143 112 r \$0-trans;
#X obj 352 427 *~ 0.7;
#X obj 459 121 sig~ 3.99999;
#X obj 91 117 lop~ 10;
#X obj 352 406 ../fmMod \$1, f 37;
#X obj 350 248 *~;
#X obj 569 190 sig~ 0.4;
#X connect 0 0 2 0;
#X connect 1 0 12 0;
#X connect 2 0 19 0;
#X connect 2 1 8 0;
#X connect 5 0 6 0;
#X connect 7 0 25 1;
#X connect 9 0 25 2;
#X connect 10 0 25 3;
#X connect 11 0 3 0;
#X connect 11 1 4 0;
#X connect 13 0 14 0;
#X connect 14 0 26 1;
#X connect 15 0 18 1;
#X connect 16 0 18 3;
#X connect 17 0 27 0;
#X connect 18 0 26 0;
#X connect 19 0 20 0;
#X connect 20 0 5 0;
#X connect 21 0 24 0;
#X connect 22 0 11 0;
#X connect 22 0 11 1;
#X connect 23 0 18 2;
#X connect 24 0 20 1;
#X connect 25 0 22 0;
#X connect 26 0 25 0;
#X connect 27 0 18 4;
