#N canvas 180 188 1260 690 12;
#X declare -path ../;
#X obj 17 -28 inlet;
#X obj 549 -23 inlet;
#X obj 17 -6 unpack 0 0;
#X obj 262 574 outlet~;
#X obj 635 563 outlet~;
#X obj 17 187 mtof~;
#X obj 262 511 hip~ 5;
#X obj 635 505 hip~ 5;
#X obj 17 241 s~ \$0-midi;
#X obj 133 96 s \$0-vel;
#X obj 262 463 *~;
#X obj 636 462 *~;
#X obj 675 264 /~ 12543.9;
#X obj 675 285 /~ 4;
#X obj 675 306 -~ 0.09;
#X obj 675 242 r~ \$0-midi;
#X obj 549 24 s \$0-p1;
#X obj 35 105 r \$0-trans;
#X obj 35 131 lop~ 20;
#X obj 17 156 +~;
#X obj 607 56 s \$0-trans;
#X obj 757 -12 declare -path ../;
#X obj 619 24 s \$0-p2;
#X obj 278 165 r \$0-p1;
#X obj 278 191 lop~ 10;
#N canvas 0 23 1417 735 freq-env 0;
#X obj 437 53 r \$0-vel;
#X obj 523 262 j-env-absolute-points;
#X obj 523 568 *~;
#X obj 437 88 sel 0, f 28;
#X obj 523 332 j-env-bpm-scale;
#X obj 625 305 r global-bpm;
#X obj 437 117 t b b;
#X obj 524 386 j-complex-env-block;
#X obj 541 536 j-env-velocity 127;
#X obj 523 614 outlet~;
#X obj 630 126 t b a, f 24;
#X msg 398 181 cont \, 0 20 4;
#X obj 523 591 *~ 6;
#X msg 523 221 new \, 1 1 4 \, 0.05 10 5 \, 0 45 2;
#X connect 0 0 3 0;
#X connect 1 0 4 0;
#X connect 2 0 12 0;
#X connect 3 0 6 0;
#X connect 3 1 10 0;
#X connect 4 0 7 0;
#X connect 5 0 4 1;
#X connect 6 0 11 0;
#X connect 7 0 2 0;
#X connect 8 0 2 1;
#X connect 10 0 13 0;
#X connect 10 1 8 0;
#X connect 11 0 4 0;
#X connect 12 0 9 0;
#X connect 13 0 1 0;
#X restore 623 131 pd freq-env;
#X obj 260 219 *~;
#X obj 675 336 cos~;
#X obj 675 368 lop~ 100;
#X obj 17 210 lop~ 1000;
#N canvas 169 168 1120 628 osc-3-fb 0;
#X obj 215 236 r~ \$0-midi;
#X obj 437 53 r \$0-vel;
#X obj 198 470 outlet~;
#X obj 150 60 inlet~;
#X obj 523 262 j-env-absolute-points;
#X obj 523 568 *~;
#X obj 437 88 sel 0, f 28;
#X obj 523 332 j-env-bpm-scale;
#X obj 625 305 r global-bpm;
#X obj 437 117 t b b;
#X msg 469 146 0;
#X text 504 147 loop off;
#X msg 671 160 1;
#X text 702 161 loop on;
#X obj 630 126 t b b a;
#X obj 361 280 r \$0-p2;
#X obj 302 208 lop~ 10;
#X obj 302 182 r \$0-p3;
#X msg 398 181 cont \, 0 1000 2;
#X obj 198 407 j-fm-feedback-osc \$1 1400;
#X obj 268 285 sig~ 3;
#X obj 541 512 j-env-velocity 120;
#X obj 523 384 j-complex-env-block;
#X obj 361 304 lop~ 2.33333;
#X msg 521 221 new \, 0.75 8 0.8 \, 0.1 300 5;
#X connect 0 0 19 1;
#X connect 1 0 6 0;
#X connect 3 0 19 0;
#X connect 4 0 7 0;
#X connect 5 0 19 3;
#X connect 6 0 9 0;
#X connect 6 1 14 0;
#X connect 7 0 22 0;
#X connect 8 0 7 1;
#X connect 9 0 18 0;
#X connect 9 1 10 0;
#X connect 14 0 24 0;
#X connect 14 1 12 0;
#X connect 14 2 21 0;
#X connect 15 0 23 0;
#X connect 17 0 16 0;
#X connect 18 0 7 0;
#X connect 19 0 2 0;
#X connect 20 0 19 2;
#X connect 21 0 5 1;
#X connect 22 0 5 0;
#X connect 23 0 19 4;
#X connect 24 0 4 0;
#X restore 277 43 pd osc-3-fb;
#N canvas 232 111 1208 643 osc-1 0;
#X obj 215 236 r~ \$0-midi;
#X obj 437 53 r \$0-vel;
#X obj 198 470 outlet~;
#X obj 150 60 inlet~;
#X obj 234 304 +~;
#X obj 523 262 j-env-absolute-points;
#X obj 523 568 *~;
#X obj 437 88 sel 0, f 28;
#X obj 523 332 j-env-bpm-scale;
#X obj 625 305 r global-bpm;
#X obj 437 117 t b b;
#X msg 469 146 0;
#X text 504 147 loop off;
#X msg 671 160 1;
#X text 702 161 loop on;
#X obj 630 126 t b b a;
#X msg 398 181 cont \, 0 500 2;
#X obj 541 513 j-env-velocity 69;
#X obj 523 384 j-complex-env-block;
#X obj 198 407 j-fm-mod;
#X obj 807 31 inlet~;
#X msg 522 221 new \, 0.95 1 4 \, 0.1 1000 2;
#X obj 232 282 sig~ 2;
#X connect 0 0 19 1;
#X connect 1 0 7 0;
#X connect 3 0 19 0;
#X connect 4 0 19 2;
#X connect 5 0 8 0;
#X connect 6 0 19 3;
#X connect 7 0 10 0;
#X connect 7 1 15 0;
#X connect 8 0 18 0;
#X connect 9 0 8 1;
#X connect 10 0 16 0;
#X connect 10 1 11 0;
#X connect 15 0 21 0;
#X connect 15 1 13 0;
#X connect 15 2 17 0;
#X connect 16 0 8 0;
#X connect 17 0 6 1;
#X connect 18 0 6 0;
#X connect 19 0 2 0;
#X connect 20 0 4 1;
#X connect 21 0 5 0;
#X connect 22 0 4 0;
#X restore 431 80 pd osc-1;
#X obj 719 31 s \$0-p3;
#X obj 549 0 route p-1 trans p-2 p-3;
#X obj 260 343 *~ 0.7;
#N canvas 169 168 1120 628 osc-1 0;
#X obj 215 236 r~ \$0-midi;
#X obj 437 53 r \$0-vel;
#X obj 198 470 outlet~;
#X obj 198 407 j-fm-mod;
#X obj 150 60 inlet~;
#X obj 234 304 +~;
#X obj 523 262 j-env-absolute-points;
#X obj 523 568 *~;
#X obj 541 536 j-env-velocity 69;
#X obj 648 481 spigot 0;
#X text 710 482 loop;
#X obj 437 88 sel 0, f 28;
#X obj 523 332 j-env-bpm-scale;
#X obj 625 305 r global-bpm;
#X obj 437 117 t b b;
#X msg 469 146 0;
#X text 504 147 loop off;
#X msg 671 160 1;
#X text 702 161 loop on;
#X msg 398 181 cont \, 0 500 4;
#X obj 235 263 sig~ 1;
#X obj 648 448 sel 0;
#X obj 524 386 j-complex-env-block;
#X msg 714 386 cont \, 0.125 500 2 \, 0.8 500 3;
#X obj 630 126 t b b a, f 24;
#X msg 523 221 new \, 1 5 0.9 \, 0.5 125 3 \, 0.2 500 2;
#X obj 612 30 inlet~ freq;
#X connect 0 0 3 1;
#X connect 1 0 11 0;
#X connect 3 0 2 0;
#X connect 4 0 3 0;
#X connect 5 0 3 2;
#X connect 6 0 12 0;
#X connect 7 0 3 3;
#X connect 8 0 7 1;
#X connect 9 0 23 0;
#X connect 11 0 14 0;
#X connect 11 1 24 0;
#X connect 12 0 22 0;
#X connect 13 0 12 1;
#X connect 14 0 19 0;
#X connect 14 1 15 0;
#X connect 15 0 9 1;
#X connect 17 0 9 1;
#X connect 19 0 12 0;
#X connect 20 0 5 0;
#X connect 21 0 9 0;
#X connect 22 0 7 0;
#X connect 22 1 21 0;
#X connect 23 0 12 0;
#X connect 24 0 25 0;
#X connect 24 1 17 0;
#X connect 24 2 8 0;
#X connect 25 0 6 0;
#X connect 26 0 5 1;
#X restore 260 319 pd osc-1;
#X obj 260 242 *~ 0.7;
#X obj 262 534 *~;
#X obj 430 499 vline~;
#X obj 635 528 *~;
#X obj 430 470 r \$0-duck;
#N canvas 371 237 450 300 duck 0;
#X obj 67 44 inlet;
#X obj 67 67 sel 0, f 18;
#X msg 145 149 stop;
#X obj 190 210 f, f 10;
#X obj 67 90 t b b;
#X msg 67 113 0;
#X obj 67 253 outlet;
#X obj 298 212 s \$0-duck;
#X obj 190 233 t a b;
#X obj 190 96 t b a b b;
#X msg 298 168 0 3;
#X obj 190 182 del 3;
#X msg 222 260 1 3;
#X connect 0 0 1 0;
#X connect 1 0 4 0;
#X connect 1 1 9 0;
#X connect 2 0 11 0;
#X connect 3 0 8 0;
#X connect 4 0 5 0;
#X connect 4 1 2 0;
#X connect 5 0 6 0;
#X connect 8 0 6 0;
#X connect 8 1 12 0;
#X connect 9 0 11 0;
#X connect 9 1 3 1;
#X connect 9 2 2 0;
#X connect 9 3 10 0;
#X connect 10 0 7 0;
#X connect 11 0 3 0;
#X connect 12 0 7 0;
#X restore 133 59 pd duck;
#X obj 17 75 lop~ 10;
#X obj 145 7 r \$0-p3;
#X obj 398 128 *~ 0.55;
#N canvas 232 111 1208 643 osc-1 0;
#X obj 215 236 r~ \$0-midi;
#X obj 437 53 r \$0-vel;
#X obj 198 470 outlet~;
#X obj 150 60 inlet~;
#X obj 234 304 +~;
#X obj 523 262 j-env-absolute-points;
#X obj 523 568 *~;
#X obj 611 451 spigot 0;
#X text 673 452 loop;
#X obj 437 88 sel 0, f 28;
#X obj 523 332 j-env-bpm-scale;
#X obj 625 305 r global-bpm;
#X obj 437 117 t b b;
#X msg 469 146 0;
#X text 504 147 loop off;
#X msg 671 160 1;
#X text 702 161 loop on;
#X obj 630 126 t b b a;
#X msg 398 181 cont \, 0 500 2;
#X obj 541 513 j-env-velocity 69;
#X obj 523 384 j-complex-env-block;
#X obj 611 417 sel 0;
#X msg 762 403 cont \, 0.25 69 2 \, 0.9 69 2 \, 0.25 69 2 \, 0.8 125
4 \, 0.2 125 3 \, 0.78 125 3 \, 0.2 250 2 \, 0.75 250 4 \, 0.25 250
4;
#X obj 198 407 j-fm-mod;
#X obj 807 31 inlet~;
#X obj 232 282 sig~ 2;
#X msg 522 221 new \, 0.95 1 6 \, 0.1 1000 0.6 \, 0.86 2000 1;
#X connect 0 0 23 1;
#X connect 1 0 9 0;
#X connect 3 0 23 0;
#X connect 4 0 23 2;
#X connect 5 0 10 0;
#X connect 6 0 23 3;
#X connect 7 0 22 0;
#X connect 9 0 12 0;
#X connect 9 1 17 0;
#X connect 10 0 20 0;
#X connect 11 0 10 1;
#X connect 12 0 18 0;
#X connect 12 1 13 0;
#X connect 13 0 7 1;
#X connect 15 0 7 1;
#X connect 17 0 26 0;
#X connect 17 1 15 0;
#X connect 17 2 19 0;
#X connect 18 0 10 0;
#X connect 19 0 6 1;
#X connect 20 0 6 0;
#X connect 20 1 21 0;
#X connect 21 0 7 0;
#X connect 22 0 10 0;
#X connect 23 0 2 0;
#X connect 24 0 4 1;
#X connect 25 0 4 0;
#X connect 26 0 5 0;
#X restore 517 87 pd osc-1;
#X obj 517 110 *~ 0.4;
#X obj 426 16 *~ 0.25;
#X connect 0 0 2 0;
#X connect 1 0 33 0;
#X connect 2 0 42 0;
#X connect 2 1 41 0;
#X connect 5 0 29 0;
#X connect 6 0 37 0;
#X connect 7 0 39 0;
#X connect 10 0 6 0;
#X connect 11 0 7 0;
#X connect 12 0 13 0;
#X connect 13 0 14 0;
#X connect 14 0 27 0;
#X connect 15 0 12 0;
#X connect 17 0 18 0;
#X connect 18 0 19 1;
#X connect 19 0 5 0;
#X connect 23 0 24 0;
#X connect 24 0 26 1;
#X connect 25 0 35 1;
#X connect 25 0 45 1;
#X connect 26 0 36 0;
#X connect 27 0 28 0;
#X connect 28 0 10 1;
#X connect 28 0 11 1;
#X connect 29 0 8 0;
#X connect 30 0 44 0;
#X connect 31 0 44 0;
#X connect 33 0 16 0;
#X connect 33 1 20 0;
#X connect 33 2 22 0;
#X connect 33 3 32 0;
#X connect 34 0 10 0;
#X connect 34 0 11 0;
#X connect 35 0 34 0;
#X connect 36 0 35 0;
#X connect 37 0 3 0;
#X connect 38 0 37 1;
#X connect 38 0 39 1;
#X connect 39 0 4 0;
#X connect 40 0 38 0;
#X connect 41 0 9 0;
#X connect 42 0 19 0;
#X connect 43 0 42 1;
#X connect 44 0 26 0;
#X connect 45 0 46 0;
#X connect 45 0 47 0;
#X connect 46 0 31 0;
#X connect 47 0 30 0;
