#N canvas 0 23 1260 690 12;
#X declare -path ../;
#X obj 17 -28 inlet;
#X obj 746 -45 inlet;
#X obj 17 -6 unpack 0 0;
#X obj 262 574 outlet~;
#X obj 635 563 outlet~;
#X obj 17 137 mtof~;
#X obj 262 511 hip~ 5;
#X obj 635 505 hip~ 5;
#X obj 17 161 s~ \$0-midi;
#X obj 83 22 s \$0-vel;
#X obj 262 463 *~;
#X obj 636 462 *~;
#X obj 651 361 /~ 12543.9;
#X obj 651 382 /~ 4;
#X obj 651 424 cos~;
#X obj 651 403 -~ 0.09;
#X obj 651 339 r~ \$0-midi;
#X obj 746 2 s \$0-p1;
#X obj 262 532 *~ 0.7;
#X obj 635 526 *~ 0.7;
#X obj 35 55 r \$0-trans;
#X obj 35 81 lop~ 20;
#X obj 17 25 sig~;
#X obj 17 106 +~;
#X obj 804 34 s \$0-trans;
#X obj 954 -34 declare -path ../;
#X msg 1060 354 1 100 0.1;
#X msg 1079 314 2 100 0.1;
#X msg 1086 266 3 100 0.1;
#X obj 746 -22 route p-1 trans p-2;
#X obj 816 2 s \$0-p2;
#N canvas 0 23 1059 558 osc-1 0;
#X obj 230 269 r~ \$0-midi;
#X obj 321 38 r \$0-vel;
#X obj 319 242 j-env 1 100, f 17;
#X obj 342 66 r \$1-loadbang;
#X msg 458 222 bpm \$1;
#X obj 342 182 v global-bpm;
#X obj 342 86 t b b b b b;
#X msg 444 157 clear \, 0 2 2;
#X obj 331 296 lop~ 5;
#X obj 329 262 r \$0-p2;
#X msg 445 197 velAmt 127;
#X obj 198 337 j-fm-feedback-osc \$1 200;
#X obj 198 360 outlet~;
#X msg 460 94 clear \, 1 128 0.1 \, 0.2 4 4;
#X msg 466 129 clear \, 0 1 1;
#X obj 254 299 sig~ 3;
#X connect 0 0 11 1;
#X connect 1 0 2 0;
#X connect 2 0 11 3;
#X connect 3 0 6 0;
#X connect 4 0 2 4;
#X connect 5 0 4 0;
#X connect 6 0 5 0;
#X connect 6 1 10 0;
#X connect 6 2 7 0;
#X connect 6 3 14 0;
#X connect 6 4 13 0;
#X connect 7 0 2 3;
#X connect 8 0 11 4;
#X connect 9 0 8 0;
#X connect 10 0 2 4;
#X connect 11 0 12 0;
#X connect 13 0 2 1;
#X connect 14 0 2 2;
#X connect 15 0 11 2;
#X restore 341 212 pd osc-1;
#N canvas 0 23 825 498 osc-2 0;
#X obj 215 236 r~ \$0-midi;
#X obj 321 38 r \$0-vel;
#X obj 319 242 j-env 1 100, f 17;
#X obj 342 66 r \$1-loadbang;
#X msg 458 222 bpm \$1;
#X obj 342 182 v global-bpm;
#X obj 342 86 t b b b b b;
#X msg 444 157 clear \, 0 2 2;
#X msg 466 129 clear \, 0.2 4 2 \, 0.7 2 4 \, 0.1 2 1 \, 0.2 4 1;
#X msg 445 197 velAmt 127;
#X obj 198 360 outlet~;
#X obj 198 337 j-fm-mod;
#X obj 150 60 inlet~;
#X obj 234 281 sig~ 1;
#X msg 461 94 clear \, 1 124 0.1 \, 0.2 4 4;
#X connect 0 0 11 1;
#X connect 1 0 2 0;
#X connect 2 0 11 3;
#X connect 3 0 6 0;
#X connect 4 0 2 4;
#X connect 5 0 4 0;
#X connect 6 0 5 0;
#X connect 6 1 9 0;
#X connect 6 2 7 0;
#X connect 6 3 8 0;
#X connect 6 4 14 0;
#X connect 7 0 2 3;
#X connect 8 0 2 2;
#X connect 9 0 2 4;
#X connect 11 0 10 0;
#X connect 12 0 11 0;
#X connect 13 0 11 2;
#X connect 14 0 2 1;
#X restore 262 314 pd osc-2;
#X obj 262 412 *~ 1;
#N canvas 0 23 825 498 osc-3 0;
#X obj 215 236 r~ \$0-midi;
#X obj 321 38 r \$0-vel;
#X obj 319 242 j-env 1 100, f 17;
#X obj 342 66 r \$1-loadbang;
#X msg 458 222 bpm \$1;
#X obj 342 182 v global-bpm;
#X obj 342 86 t b b b b b;
#X msg 444 157 clear \, 0 2 2;
#X msg 466 129 clear \, 0.2 4 2 \, 0.7 2 4 \, 0.1 2 1 \, 0.2 4 1;
#X msg 445 197 velAmt 127;
#X obj 198 360 outlet~;
#X obj 198 337 j-fm-mod;
#X obj 150 60 inlet~;
#X msg 460 94 clear \, 1 4 0.1 \, 0.2 4 4;
#X obj 234 281 sig~ 2;
#X connect 0 0 11 1;
#X connect 1 0 2 0;
#X connect 2 0 11 3;
#X connect 3 0 6 0;
#X connect 4 0 2 4;
#X connect 5 0 4 0;
#X connect 6 0 5 0;
#X connect 6 1 9 0;
#X connect 6 2 7 0;
#X connect 6 3 8 0;
#X connect 6 4 13 0;
#X connect 7 0 2 3;
#X connect 8 0 2 2;
#X connect 9 0 2 4;
#X connect 11 0 10 0;
#X connect 12 0 11 0;
#X connect 13 0 2 1;
#X connect 14 0 11 2;
#X restore 341 244 pd osc-3;
#X connect 0 0 2 0;
#X connect 1 0 29 0;
#X connect 2 0 22 0;
#X connect 2 1 9 0;
#X connect 5 0 8 0;
#X connect 6 0 18 0;
#X connect 7 0 19 0;
#X connect 10 0 6 0;
#X connect 11 0 7 0;
#X connect 12 0 13 0;
#X connect 13 0 15 0;
#X connect 14 0 10 1;
#X connect 14 0 11 1;
#X connect 15 0 14 0;
#X connect 16 0 12 0;
#X connect 18 0 3 0;
#X connect 19 0 4 0;
#X connect 20 0 21 0;
#X connect 21 0 23 1;
#X connect 22 0 23 0;
#X connect 23 0 5 0;
#X connect 29 0 17 0;
#X connect 29 1 24 0;
#X connect 29 2 30 0;
#X connect 31 0 34 0;
#X connect 32 0 33 0;
#X connect 33 0 10 0;
#X connect 33 0 11 0;
#X connect 34 0 32 0;
