#N canvas 180 188 1260 690 12;
#X declare -path ../;
#X obj 17 -28 inlet;
#X obj 746 -45 inlet;
#X obj 17 -6 unpack 0 0;
#X obj 262 574 outlet~;
#X obj 635 563 outlet~;
#X obj 17 137 mtof~;
#X obj 262 511 hip~ 5;
#X obj 635 505 hip~ 5;
#X obj 17 161 s~ \$0-midi;
#X obj 84 22 s \$0-vel;
#X obj 262 463 *~;
#X obj 636 462 *~;
#X obj 651 361 /~ 12543.9;
#X obj 651 382 /~ 4;
#X obj 651 424 cos~;
#X obj 651 403 -~ 0.09;
#X obj 651 339 r~ \$0-midi;
#X obj 746 2 s \$0-p1;
#X obj 35 55 r \$0-trans;
#X obj 35 81 lop~ 20;
#X obj 17 25 sig~;
#X obj 17 106 +~;
#X obj 804 34 s \$0-trans;
#X obj 954 -34 declare -path ../;
#X msg 1060 354 1 100 0.1;
#X msg 1079 314 2 100 0.1;
#X msg 1086 266 3 100 0.1;
#X obj 746 -22 route p-1 trans p-2;
#X obj 816 2 s \$0-p2;
#N canvas 0 23 1059 558 osc-1 0;
#X obj 230 269 r~ \$0-midi;
#X obj 321 8 r \$0-vel;
#X obj 342 66 r \$1-loadbang;
#X msg 616 196 bpm \$1;
#X obj 342 86 t b b b b b;
#X obj 331 296 lop~ 5;
#X obj 331 272 r \$0-p2;
#X obj 198 337 j-fm-feedback-osc \$1 200;
#X obj 198 360 outlet~;
#X obj 254 299 sig~ 3;
#X obj 435 336 s \$0-switch-count;
#X obj 435 275 sel 0 1;
#X msg 435 298 -1;
#X msg 471 298 1;
#X msg 460 94 clear \, 1 128 \, 0 4;
#X msg 466 129 clear \, 1 2 \, 0 2;
#X obj 319 242 j-env 1 100 1, f 17;
#X msg 444 157 clear \, 0 2;
#X obj 588 174 r global-bpm;
#X connect 0 0 7 1;
#X connect 1 0 16 0;
#X connect 2 0 4 0;
#X connect 3 0 16 4;
#X connect 4 2 17 0;
#X connect 4 3 15 0;
#X connect 4 4 14 0;
#X connect 5 0 7 4;
#X connect 6 0 5 0;
#X connect 7 0 8 0;
#X connect 9 0 7 2;
#X connect 11 0 12 0;
#X connect 11 1 13 0;
#X connect 12 0 10 0;
#X connect 13 0 10 0;
#X connect 14 0 16 1;
#X connect 15 0 16 2;
#X connect 16 0 7 3;
#X connect 16 1 11 0;
#X connect 17 0 16 3;
#X connect 18 0 3 0;
#X restore 340 194 pd osc-1;
#N canvas 0 23 1120 628 osc-2 0;
#X obj 215 236 r~ \$0-midi;
#X obj 321 38 r \$0-vel;
#X obj 342 66 r \$1-loadbang;
#X msg 470 249 bpm \$1;
#X obj 198 360 outlet~;
#X obj 198 337 j-fm-mod;
#X obj 150 60 inlet~;
#X obj 234 281 sig~ 1;
#X obj 435 336 s \$0-switch-count;
#X obj 435 275 sel 0 1;
#X msg 435 298 -1;
#X msg 471 298 1;
#X obj 234 304 +~;
#X obj 469 225 r global-bpm;
#X obj 342 86 t b b b;
#X msg 446 139 clear \, 0.8 16 \, 0.2 16;
#X msg 447 171 clear \, 1 1000 \, 0 8;
#X msg 338 139 clear \, 0 2;
#X obj 319 242 j-env 1 120 3, f 17;
#X connect 0 0 5 1;
#X connect 1 0 18 0;
#X connect 2 0 14 0;
#X connect 3 0 18 4;
#X connect 5 0 4 0;
#X connect 6 0 5 0;
#X connect 7 0 12 0;
#X connect 9 0 10 0;
#X connect 9 1 11 0;
#X connect 10 0 8 0;
#X connect 11 0 8 0;
#X connect 12 0 5 2;
#X connect 13 0 3 0;
#X connect 14 0 17 0;
#X connect 14 1 15 0;
#X connect 14 2 16 0;
#X connect 15 0 18 2;
#X connect 16 0 18 1;
#X connect 17 0 18 3;
#X connect 18 0 5 3;
#X connect 18 1 9 0;
#X restore 262 314 pd osc-2;
#X obj 262 412 *~ 1;
#N canvas 0 23 825 498 osc-3 0;
#X obj 215 236 r~ \$0-midi;
#X obj 321 38 r \$0-vel;
#X obj 342 66 r \$1-loadbang;
#X msg 584 211 bpm \$1;
#X obj 342 86 t b b b b b;
#X msg 444 157 clear \, 0 2 2;
#X obj 198 360 outlet~;
#X obj 198 337 j-fm-mod;
#X obj 150 60 inlet~;
#X obj 234 281 sig~ 2;
#X msg 460 94 clear \, 1 128 0.1 \, 0.2 4 4;
#X obj 435 336 s \$0-switch-count;
#X obj 435 275 sel 0 1;
#X msg 435 298 -1;
#X msg 471 298 1;
#X obj 319 242 j-env 1 100 3, f 17;
#X obj 570 180 r global-bpm;
#X msg 466 129 clear \, 0.5 4 \, 0.05 4;
#X connect 0 0 7 1;
#X connect 1 0 15 0;
#X connect 2 0 4 0;
#X connect 3 0 15 4;
#X connect 4 2 5 0;
#X connect 4 3 17 0;
#X connect 4 4 10 0;
#X connect 5 0 15 3;
#X connect 7 0 6 0;
#X connect 8 0 7 0;
#X connect 9 0 7 2;
#X connect 10 0 15 1;
#X connect 12 0 13 0;
#X connect 12 1 14 0;
#X connect 13 0 11 0;
#X connect 14 0 11 0;
#X connect 15 0 7 3;
#X connect 15 1 12 0;
#X connect 16 0 3 0;
#X connect 17 0 15 2;
#X restore 341 244 pd osc-3;
#X obj 586 84 r \$0-switch-count;
#X obj 586 140 f;
#X obj 586 109 t b a;
#X obj 646 194 t f f, f 9;
#X obj 646 141 + 0;
#X obj 646 164 max 0;
#X obj 646 247 switch~;
#X obj 443 248 r \$0-p1;
#X obj 442 294 lop~ 10;
#X obj 341 267 *~;
#X msg 736 224 1;
#X connect 0 0 2 0;
#X connect 1 0 27 0;
#X connect 2 0 20 0;
#X connect 2 1 9 0;
#X connect 5 0 8 0;
#X connect 6 0 3 0;
#X connect 7 0 4 0;
#X connect 10 0 6 0;
#X connect 11 0 7 0;
#X connect 12 0 13 0;
#X connect 13 0 15 0;
#X connect 14 0 10 1;
#X connect 14 0 11 1;
#X connect 15 0 14 0;
#X connect 16 0 12 0;
#X connect 18 0 19 0;
#X connect 19 0 21 1;
#X connect 20 0 21 0;
#X connect 21 0 5 0;
#X connect 27 0 17 0;
#X connect 27 1 22 0;
#X connect 27 2 28 0;
#X connect 29 0 32 0;
#X connect 30 0 31 0;
#X connect 31 0 10 0;
#X connect 31 0 11 0;
#X connect 32 0 42 0;
#X connect 33 0 35 0;
#X connect 34 0 37 0;
#X connect 35 0 34 0;
#X connect 35 1 37 1;
#X connect 36 0 39 0;
#X connect 36 1 34 1;
#X connect 37 0 38 0;
#X connect 38 0 36 0;
#X connect 40 0 41 0;
#X connect 41 0 42 1;
#X connect 43 0 39 0;
