#N canvas 118 126 1322 655 10;
#X declare -path ../;
#X obj 17 -28 inlet;
#X obj 746 -45 inlet;
#X obj 17 -6 unpack 0 0;
#X obj 262 574 outlet~;
#X obj 635 563 outlet~;
#X obj 17 67 mtof~;
#X obj 262 511 hip~ 5;
#X obj 635 505 hip~ 5;
#X obj 17 91 s~ \$0-midi;
#X obj 227 237 r~ \$0-midi;
#X obj 74 28 s \$0-vel;
#X obj 307 28 r \$0-vel;
#X obj 371 15 r \$1-loadbang;
#X obj 262 463 *~;
#X obj 636 462 *~;
#X obj 651 361 /~ 12543.9;
#X obj 651 382 /~ 4;
#X obj 651 424 cos~;
#X obj 651 403 -~ 0.09;
#X obj 651 339 r~ \$0-midi;
#X obj 262 261 sig~ 1;
#X obj 416 241 r~ \$0-midi;
#X obj 510 123 r \$0-vel;
#X obj 746 2 s \$0-p1;
#X obj 441 319 r \$0-p1;
#X obj 441 402 lop~ 5;
#X obj 373 324 *~;
#X obj 262 532 *~ 0.7;
#X obj 635 526 *~ 0.7;
#X obj 441 381 * 0.8;
#X obj 64 136 r~ \$0-midi;
#X obj 90 58 r \$0-vel;
#X obj 191 171 r \$1-loadbang;
#X obj 138 -28 r \$0-trans;
#X obj 138 -7 lop~ 20;
#X obj 17 15 sig~;
#X obj 17 36 +~;
#X obj 746 -22 route p-1 trans;
#X obj 804 34 s \$0-trans;
#X obj 193 309 *~ 0.9;
#X obj 454 265 sig~ 3;
#X obj 87 159 sig~ 6.66667;
#X obj 134 220 *~ 0.1;
#X obj 441 360 clip 0 2;
#X obj 382 293 j-fm-mod, f 18;
#X obj 535 -16 declare -path ../;
#X obj 193 289 j-fm-mod, f 18;
#X obj 30 188 j-fm-mod, f 18;
#X msg 408 184 velAmt 100;
#X msg 224 131 velAmt 100;
#X msg 399 105 clear \, 0 2 2;
#X msg 204 109 clear \, 0 2 2;
#X msg 169 82 clear \, 0.5 4 3 \, 0.1 4 2;
#X msg 431 164 bpm \$1;
#X obj 433 141 v global-bpm;
#X msg 193 31 bpm \$1;
#X obj 195 8 v global-bpm;
#X obj 601 281 j-env 1 100, f 17;
#X obj 307 184 j-env 1 100;
#X obj 112 108 j-env 1 100;
#X obj 624 105 r \$1-loadbang;
#X msg 727 236 velAmt 100;
#X msg 740 261 bpm \$1;
#X obj 624 221 v global-bpm;
#X obj 624 125 t b b b b b;
#X msg 726 196 clear \, 0 2 2;
#X msg 1060 354 1 100 0.1;
#X msg 1079 314 2 100 0.1;
#X msg 1086 266 3 100 0.1;
#X msg 364 78 clear \, 0.2 4 2 \, 0.7 16 2 \, 0 20 2 \, 0.1 100 2 \,
0.67 45 2;
#X msg 748 168 clear \, 0.2 4 2 \, 0.7 16 2 \, 0 20 2 \, 0.1 100 2
\, 0.67 45 2;
#X msg 11 335 clear \, 0.9 64 0.4 \, 0.4 4 2;
#X msg 742 133 clear \, 0.4 64 0.1 \, 0.2 4 4;
#X msg 388 52 clear \, 0.4 64 0.1 \, 0.2 4 4;
#X connect 0 0 2 0;
#X connect 1 0 37 0;
#X connect 2 0 35 0;
#X connect 2 1 10 0;
#X connect 5 0 8 0;
#X connect 6 0 27 0;
#X connect 7 0 28 0;
#X connect 9 0 46 1;
#X connect 11 0 48 0;
#X connect 11 0 58 0;
#X connect 12 0 73 0;
#X connect 12 0 69 0;
#X connect 12 0 50 0;
#X connect 12 0 54 0;
#X connect 13 0 6 0;
#X connect 14 0 7 0;
#X connect 15 0 16 0;
#X connect 16 0 18 0;
#X connect 17 0 13 1;
#X connect 17 0 14 1;
#X connect 18 0 17 0;
#X connect 19 0 15 0;
#X connect 20 0 46 2;
#X connect 21 0 44 1;
#X connect 22 0 57 0;
#X connect 24 0 43 0;
#X connect 25 0 26 1;
#X connect 26 0 46 0;
#X connect 27 0 3 0;
#X connect 28 0 4 0;
#X connect 29 0 25 0;
#X connect 30 0 47 1;
#X connect 31 0 59 0;
#X connect 32 0 71 0;
#X connect 32 0 52 0;
#X connect 32 0 51 0;
#X connect 32 0 49 0;
#X connect 32 0 56 0;
#X connect 33 0 34 0;
#X connect 34 0 36 1;
#X connect 35 0 36 0;
#X connect 36 0 5 0;
#X connect 37 0 23 0;
#X connect 37 1 38 0;
#X connect 39 0 13 0;
#X connect 39 0 14 0;
#X connect 40 0 44 2;
#X connect 41 0 47 2;
#X connect 42 0 44 0;
#X connect 42 0 46 0;
#X connect 43 0 29 0;
#X connect 44 0 26 0;
#X connect 46 0 39 0;
#X connect 47 0 42 0;
#X connect 48 0 58 4;
#X connect 49 0 59 4;
#X connect 50 0 58 3;
#X connect 51 0 59 3;
#X connect 52 0 59 2;
#X connect 53 0 58 4;
#X connect 54 0 53 0;
#X connect 55 0 59 4;
#X connect 56 0 55 0;
#X connect 57 0 44 3;
#X connect 58 0 46 3;
#X connect 59 0 47 3;
#X connect 60 0 64 0;
#X connect 61 0 57 4;
#X connect 62 0 57 4;
#X connect 63 0 62 0;
#X connect 64 0 63 0;
#X connect 64 1 61 0;
#X connect 64 2 65 0;
#X connect 64 3 70 0;
#X connect 64 4 72 0;
#X connect 65 0 57 3;
#X connect 69 0 58 2;
#X connect 70 0 57 2;
#X connect 71 0 59 1;
#X connect 72 0 57 1;
#X connect 73 0 58 1;
