#N canvas 404 65 907 628 12;
#X obj 404 53 inlet;
#X obj 67 289 osc~;
#X obj 113 381 j-com-env;
#X text 457 52 messages;
#X obj 67 413 *~, f 7;
#N canvas 0 25 450 486 messages 1;
#X obj 25 11 inlet;
#X obj 133 252 s \$0-amp;
#X obj 25 347 s \$0-freqEnv;
#X obj 74 313 s \$0-freqD;
#X obj 184 206 s \$0-noiF;
#X obj 237 174 s \$0-noiA;
#X obj 290 144 s \$0-off;
#X obj 25 63 route freqEnv freqD amp noiseF noiseAmp offSet vel;
#X obj 318 100 s \$0-vel;
#X connect 0 0 7 0;
#X connect 7 0 2 0;
#X connect 7 1 3 0;
#X connect 7 2 1 0;
#X connect 7 3 4 0;
#X connect 7 4 5 0;
#X connect 7 5 6 0;
#X connect 7 6 8 0;
#X restore 404 86 pd messages;
#X obj 204 79 r \$0-freqEnv;
#X obj 204 109 j-com-env;
#X obj 204 193 *~, f 13;
#X obj 67 230 +~, f 20;
#X obj 292 164 r \$0-freqD;
#X text 134 44 midi freq \, start;
#X obj 66 488 outlet~;
#X obj 204 133 *~ 2;
#X obj 204 157 -~ 1;
#X obj 67 44 inlet~;
#X obj 85 98 r \$0-off;
#X obj 85 122 lop~ 20;
#X obj 67 158 *~;
#X obj 113 272 r \$0-amp;
#X obj 392 169 r \$0-vel;
#X obj 614 236 t b b b;
#X obj 246 421 switch~;
#X msg 213 316 0 8;
#X obj 392 193 sel -1 0, f 31;
#X obj 392 234 s \$0-end;
#X obj 213 261 r \$0-end;
#X obj 246 356 del 8;
#X obj 213 285 t b b b, f 10;
#X msg 280 311 stop;
#X obj 246 380 0;
#X obj 455 321 s \$0-off;
#X connect 0 0 5 0;
#X connect 1 0 4 0;
#X connect 2 0 4 1;
#X connect 4 0 12 0;
#X connect 6 0 7 0;
#X connect 7 0 13 0;
#X connect 8 0 9 1;
#X connect 9 0 1 0;
#X connect 10 0 8 1;
#X connect 13 0 14 0;
#X connect 14 0 8 0;
#X connect 15 0 18 0;
#X connect 16 0 17 0;
#X connect 17 0 18 1;
#X connect 18 0 9 0;
#X connect 19 0 2 0;
#X connect 20 0 24 0;
#X connect 23 0 2 0;
#X connect 24 0 25 0;
#X connect 26 0 28 0;
#X connect 27 0 30 0;
#X connect 28 0 23 0;
#X connect 28 1 27 0;
#X connect 28 2 29 0;
#X connect 29 0 27 0;
#X connect 30 0 22 0;
