#N canvas 59 65 1398 779 12;
#X obj 42 2 inlet;
#X obj 242 372 osc~;
#X obj 456 372 vline~, f 10;
#X obj 359 398 osc~;
#X obj 360 450 *~;
#X msg 468 315 1 30 \, 0.5 100 30;
#X obj 658 378 vline~, f 10;
#X obj 658 402 pow~ 2;
#X msg 729 296 1 3 \, 0.25 100 3;
#X obj 602 378 osc~;
#X obj 602 437 *~;
#X obj 590 340 *~ 6.1;
#X msg 652 349 0 34;
#X obj 259 704 outlet~;
#X obj 259 664 *~, f 18;
#X obj 8 396 r \$0-end;
#X obj 434 290 r \$0-end;
#X obj 743 348 r \$0-end;
#X obj 9 270 r \$0-rel;
#X obj 663 270 r \$0-rel;
#X obj 390 577 r \$0-vel;
#X obj 112 290 r \$0-att;
#X obj 500 288 r \$0-att;
#X msg 529 260 0 200;
#X obj 530 229 r \$0-rel;
#X obj 731 270 r \$0-att;
#X obj 72 601 switch~;
#X obj 212 451 *~;
#X obj 98 532 0;
#X obj 25 497 r \$0-on;
#X obj 26 556 1;
#X obj 910 362 vline~, f 10;
#X obj 910 386 pow~ 2;
#X obj 854 362 osc~;
#X obj 854 421 *~;
#X msg 904 333 0 34;
#X obj 995 332 r \$0-end;
#X obj 915 254 r \$0-rel;
#X obj 920 277 r \$0-att;
#X msg 919 303 1 3 \, 0.25 90 3;
#X obj 226 301 r~ \$0-freq;
#X obj 350 286 r~ \$0-freq;
#X obj 662 241 r~ \$0-freq;
#X obj 838 286 r~ \$0-freq;
#X obj 354 350 *~ 3;
#X obj 839 326 *~ 12;
#X obj 722 638 vline~, f 10;
#X obj 666 697 *~;
#X obj 807 608 r \$0-end;
#X obj 727 530 r \$0-rel;
#X obj 732 553 r \$0-att;
#X obj 650 562 r~ \$0-freq;
#X obj 563 572 noise~;
#X obj 585 643 vcf~ 4;
#X obj 854 464 throw~ \$0-bus;
#X obj 666 745 throw~ \$0-bus;
#X obj 260 593 catch~ \$0-bus;
#X obj 592 479 throw~ \$0-bus;
#X obj 360 484 throw~ \$0-bus;
#X obj 210 524 throw~ \$0-bus;
#X obj 645 627 +~ 3000;
#X obj 722 662 pow~ 4;
#X obj 563 596 *~ 0.01;
#X obj 1116 493 vline~, f 10;
#X obj 1050 493 osc~;
#X obj 1050 552 *~;
#X msg 1110 464 0 34;
#X obj 1201 463 r \$0-end;
#X obj 1121 385 r \$0-rel;
#X obj 1126 408 r \$0-att;
#X obj 1034 417 r~ \$0-freq;
#X obj 1050 576 throw~ \$0-bus;
#X obj 1035 457 *~ 24;
#X msg 1125 434 1 3 \, 0.25 100 3;
#X obj 1116 517 pow~ 4;
#X obj 645 603 /~ 2;
#X msg 731 578 1 3 \, 0 8 3;
#X msg 716 609 0 8;
#X obj 456 396 pow~ 4;
#N canvas 673 69 450 300 note-handling 0;
#X obj 42 36 unpack 0 0;
#X obj 42 94 sel -1 0, f 10;
#X obj 147 154 sqrt;
#X obj 146 128 / 127;
#X obj 41 212 s \$0-end;
#X obj 78 156 s \$0-rel;
#X obj 146 251 s \$0-att;
#X obj 201 225 s \$0-vel;
#X obj 278 218 s \$0-on;
#N canvas 0 25 450 300 freq-env 0;
#X obj 60 29 inlet;
#X obj 102 261 s~ \$0-freq;
#X obj 265 108 mtof;
#X obj 60 53 t b a;
#X obj 40 131 vline~;
#X obj 86 219 +~;
#X msg 37 100 0 0 \, 1 5 0 \, 0 5 5;
#X obj 49 184 *~ 100;
#X obj 42 155 pow~ 12;
#X connect 0 0 3 0;
#X connect 2 0 5 1;
#X connect 3 0 6 0;
#X connect 3 1 2 0;
#X connect 4 0 8 0;
#X connect 5 0 1 0;
#X connect 6 0 4 0;
#X connect 7 0 5 0;
#X connect 8 0 7 0;
#X restore 364 217 pd freq-env;
#X obj 42 60 swap, f 10;
#X obj 364 190 f;
#X obj 147 185 t b a b b, f 19;
#X msg 41 183 0 8;
#X obj 44 8 inlet;
#X connect 0 0 10 0;
#X connect 0 1 10 1;
#X connect 1 0 13 0;
#X connect 1 1 5 0;
#X connect 1 2 3 0;
#X connect 2 0 12 0;
#X connect 3 0 2 0;
#X connect 10 0 1 0;
#X connect 10 1 11 1;
#X connect 11 0 9 0;
#X connect 12 0 6 0;
#X connect 12 1 7 0;
#X connect 12 2 11 0;
#X connect 12 3 8 0;
#X connect 13 0 4 0;
#X connect 14 0 0 0;
#X restore 311 58 pd note-handling;
#X obj 41 52 s \$0-op1;
#X obj 81 82 s \$0-op2;
#X obj 119 56 s \$0-op3;
#X obj 159 86 s \$0-op4;
#X obj 359 422 *~, f 6;
#X obj 434 134 r \$0-op2;
#X obj 602 402 *~, f 6;
#X obj 854 386 *~;
#X obj 697 110 r \$0-op3;
#X obj 1050 517 *~, f 6;
#X obj 298 186 r \$0-op1;
#X obj 434 182 line~;
#X obj 298 210 pack 0 10;
#X obj 298 238 line~;
#X obj 434 158 pack 0 10;
#X obj 697 134 pack 0 10;
#X obj 698 167 line~;
#X obj 242 396 *~, f 6;
#X obj 921 134 pack 0 10;
#X obj 922 167 line~;
#X obj 921 110 r \$0-op4;
#X obj 1135 294 pack 0 10;
#X obj 1136 327 line~;
#X obj 1135 270 r \$0-op5;
#X obj 192 64 s \$0-op5;
#X obj 8 420 t b b;
#X obj 1363 500 vline~, f 10;
#X obj 1297 500 osc~;
#X obj 1297 559 *~;
#X msg 1357 471 0 34;
#X obj 1448 470 r \$0-end;
#X obj 1368 392 r \$0-rel;
#X obj 1373 415 r \$0-att;
#X obj 1281 424 r~ \$0-freq;
#X obj 1297 583 throw~ \$0-bus;
#X obj 1363 524 pow~ 4;
#X obj 1297 524 *~, f 6;
#X obj 1382 301 pack 0 10;
#X obj 1383 334 line~;
#X obj 1382 277 r \$0-op6;
#X obj 41 28 route op-1 op-2 op-3 op-4 op-5 op-6;
#X obj 236 89 s \$0-op6;
#X obj 107 433 del 8;
#X obj 114 499 del 200;
#X obj 103 359 vline~;
#X msg 103 329 1 8 \, 0.9 300 8;
#X msg 3 323 0 200 2;
#X msg 121 464 stop;
#X obj 9 294 t b b b;
#X msg 8 444 0 8;
#X obj 103 383 pow~ 2;
#X obj 1282 464 *~ 2.01;
#X msg 1372 442 1 25 \, 0.9 300 25;
#X connect 0 0 120 0;
#X connect 1 0 97 0;
#X connect 2 0 78 0;
#X connect 3 0 84 0;
#X connect 4 0 58 0;
#X connect 5 0 2 0;
#X connect 6 0 7 0;
#X connect 7 0 10 1;
#X connect 8 0 6 0;
#X connect 9 0 86 0;
#X connect 10 0 57 0;
#X connect 11 0 9 0;
#X connect 12 0 6 0;
#X connect 14 0 13 0;
#X connect 15 0 105 0;
#X connect 16 0 2 0;
#X connect 17 0 6 0;
#X connect 18 0 128 0;
#X connect 19 0 12 0;
#X connect 20 0 14 1;
#X connect 21 0 125 0;
#X connect 22 0 5 0;
#X connect 23 0 2 0;
#X connect 24 0 23 0;
#X connect 25 0 8 0;
#X connect 27 0 59 0;
#X connect 28 0 26 0;
#X connect 29 0 30 0;
#X connect 29 0 127 0;
#X connect 30 0 26 0;
#X connect 31 0 32 0;
#X connect 32 0 34 1;
#X connect 33 0 87 0;
#X connect 34 0 54 0;
#X connect 35 0 31 0;
#X connect 36 0 31 0;
#X connect 37 0 35 0;
#X connect 38 0 39 0;
#X connect 39 0 31 0;
#X connect 40 0 1 0;
#X connect 41 0 44 0;
#X connect 42 0 11 0;
#X connect 43 0 45 0;
#X connect 44 0 3 0;
#X connect 45 0 33 0;
#X connect 46 0 61 0;
#X connect 47 0 55 0;
#X connect 48 0 46 0;
#X connect 49 0 77 0;
#X connect 50 0 76 0;
#X connect 51 0 75 0;
#X connect 52 0 62 0;
#X connect 53 1 47 0;
#X connect 56 0 14 0;
#X connect 60 0 53 1;
#X connect 61 0 47 1;
#X connect 62 0 53 0;
#X connect 63 0 74 0;
#X connect 64 0 89 0;
#X connect 65 0 71 0;
#X connect 66 0 63 0;
#X connect 67 0 63 0;
#X connect 68 0 66 0;
#X connect 69 0 73 0;
#X connect 70 0 72 0;
#X connect 72 0 64 0;
#X connect 73 0 63 0;
#X connect 74 0 65 1;
#X connect 75 0 60 0;
#X connect 76 0 46 0;
#X connect 77 0 46 0;
#X connect 78 0 4 1;
#X connect 84 0 4 0;
#X connect 85 0 94 0;
#X connect 86 0 10 0;
#X connect 87 0 34 0;
#X connect 88 0 95 0;
#X connect 89 0 65 0;
#X connect 90 0 92 0;
#X connect 91 0 84 1;
#X connect 92 0 93 0;
#X connect 93 0 97 1;
#X connect 94 0 91 0;
#X connect 95 0 96 0;
#X connect 96 0 86 1;
#X connect 97 0 27 1;
#X connect 98 0 99 0;
#X connect 99 0 87 1;
#X connect 100 0 98 0;
#X connect 101 0 102 0;
#X connect 102 0 89 1;
#X connect 103 0 101 0;
#X connect 105 0 129 0;
#X connect 105 1 122 0;
#X connect 106 0 115 0;
#X connect 107 0 116 0;
#X connect 108 0 114 0;
#X connect 109 0 106 0;
#X connect 110 0 106 0;
#X connect 111 0 109 0;
#X connect 112 0 132 0;
#X connect 113 0 131 0;
#X connect 115 0 108 1;
#X connect 116 0 108 0;
#X connect 117 0 118 0;
#X connect 118 0 116 1;
#X connect 119 0 117 0;
#X connect 120 0 80 0;
#X connect 120 1 81 0;
#X connect 120 2 82 0;
#X connect 120 3 83 0;
#X connect 120 4 104 0;
#X connect 120 5 121 0;
#X connect 120 6 79 0;
#X connect 122 0 28 0;
#X connect 123 0 28 0;
#X connect 124 0 130 0;
#X connect 125 0 124 0;
#X connect 126 0 124 0;
#X connect 127 0 123 0;
#X connect 127 0 122 0;
#X connect 128 0 126 0;
#X connect 128 1 123 0;
#X connect 128 2 127 0;
#X connect 129 0 124 0;
#X connect 130 0 27 0;
#X connect 131 0 107 0;
#X connect 132 0 106 0;
