#N canvas 0 23 1004 619 12;
#X obj 157 -209 inlet vel;
#X obj 157 -185 sel -1 0;
#X obj 162 439 *~, f 12;
#X obj 162 463 outlet~;
#X obj 243 411 vline~;
#X obj 210 -158 t a b, f 14;
#X msg 305 -127 1 3;
#X msg 157 -157 0 3;
#X obj 209 -80 s \$0-duck;
#X obj 243 386 r \$0-duck;
#X obj 210 -133 s \$0-vel;
#X obj 180 87 j-com-env;
#X obj 156 190 +~;
#X obj 180 165 *~;
#X obj 260 127 +~;
#X obj 260 101 sig~ 2000;
#X obj 162 228 osc~;
#X obj 162 352 *~, f 9;
#X obj 422 165 j-com-env;
#X obj 485 -181 inlet mess;
#X obj 485 -156 route tone decay;
#X obj 396 -55 line~;
#X msg 396 -81 \$1 200;
#X obj 186 -45 r \$0-vel;
#X obj 186 -20 / 127;
#X msg 180 55 new \, \$1 2 0.8 \, 0 6 8;
#X obj 186 4 t a a;
#X obj 424 78 pack 0 80;
#X msg 422 132 new \, \$1 2 0.8 \, 0 \$2 8;
#X obj 96 68 sig~ 4;
#X obj 215 260 osc~;
#X obj 212 229 *~ 3;
#X obj 215 284 /~ 6;
#X obj 261 261 osc~;
#X obj 258 230 *~ 6;
#X obj 261 285 /~ 12;
#X connect 0 0 1 0;
#X connect 1 0 7 0;
#X connect 1 1 7 0;
#X connect 1 2 5 0;
#X connect 2 0 3 0;
#X connect 4 0 2 1;
#X connect 5 0 10 0;
#X connect 5 1 6 0;
#X connect 6 0 8 0;
#X connect 7 0 8 0;
#X connect 9 0 4 0;
#X connect 11 0 13 0;
#X connect 12 0 16 0;
#X connect 12 0 31 0;
#X connect 12 0 34 0;
#X connect 13 0 12 1;
#X connect 14 0 13 1;
#X connect 15 0 14 0;
#X connect 16 0 17 0;
#X connect 17 0 2 0;
#X connect 18 0 17 1;
#X connect 19 0 20 0;
#X connect 20 0 22 0;
#X connect 20 1 27 1;
#X connect 21 0 14 1;
#X connect 22 0 21 0;
#X connect 23 0 24 0;
#X connect 24 0 26 0;
#X connect 25 0 11 0;
#X connect 26 0 25 0;
#X connect 26 1 27 0;
#X connect 27 0 28 0;
#X connect 28 0 18 0;
#X connect 29 0 12 0;
#X connect 30 0 32 0;
#X connect 31 0 30 0;
#X connect 32 0 17 0;
#X connect 33 0 35 0;
#X connect 34 0 33 0;
#X connect 35 0 17 0;
