#N canvas 438 23 1002 711 12;
#X obj 126 3 inlet vel;
#X obj 121 207 j-com-env;
#X obj 79 317 *~;
#X obj 455 190 j-com-env;
#X obj 435 244 *~;
#X obj 124 129 t b b;
#X obj 593 317 j-com-env;
#X obj 573 371 *~;
#X obj 591 226 osc~ 220;
#X obj 126 27 sel -1 0;
#X obj 205 559 *~, f 12;
#X obj 205 583 outlet~;
#X obj 286 531 vline~;
#X obj 179 54 t a b;
#X msg 235 81 1 3;
#X msg 126 55 0 3;
#X msg 121 175 new \, 1 2 0.4 \, 0.1 300 4 \, 0 200 4;
#X obj 199 291 j-com-env;
#X msg 455 159 new \, 1 2 0.7 \, 0.1 300 4 \, 0 90 4;
#X obj 200 118 s \$0-duck;
#X obj 286 506 r \$0-duck;
#X obj 13 95 sig~ 54;
#X obj 35 258 osc~;
#X obj 19 194 +~;
#X obj 435 268 /~ 34;
#X msg 199 259 new \, 1 2 0.8 \, 0 6 8;
#X obj 574 395 /~ 24;
#X msg 593 286 new \, 1 2 0.7 \, 0.1 24 8 \, 0 24 4;
#X obj 359 109 osc~ 108;
#X obj 597 35 inlet mess;
#X obj 199 315 *~;
#X obj 303 325 +~;
#X msg 438 304 \$1 200;
#X obj 426 330 line~;
#X obj 192 416 *~;
#X obj 132 374 osc~ 55;
#X msg 85 138 0;
#X obj 303 299 sig~ 2000;
#X obj 218 388 j-com-env;
#X obj 718 438 j-com-env;
#X obj 698 492 *~;
#X msg 718 407 new \, 1 2 0.7 \, 0.1 24 8 \, 0 24 4;
#X obj 716 347 osc~ 880;
#X obj 699 516 /~ 90;
#X obj 597 59 route click pitch;
#X obj 13 119 +~;
#X msg 650 98 \$1 200;
#X obj 638 124 line~;
#X msg 217 355 new \, 1 8 0.8 \, 0.1 300 6 \, 0 100 4;
#X msg 500 51 0;
#X obj 133 339 *~ 3;
#X obj 134 402 /~ 15;
#X connect 0 0 9 0;
#X connect 1 0 2 1;
#X connect 2 0 10 0;
#X connect 3 0 4 1;
#X connect 4 0 24 0;
#X connect 5 0 16 0;
#X connect 5 1 18 0;
#X connect 5 1 27 0;
#X connect 5 1 25 0;
#X connect 5 1 48 0;
#X connect 5 1 41 0;
#X connect 6 0 7 1;
#X connect 7 0 26 0;
#X connect 8 0 7 0;
#X connect 9 0 15 0;
#X connect 9 1 15 0;
#X connect 9 2 13 0;
#X connect 10 0 11 0;
#X connect 12 0 10 1;
#X connect 13 0 5 0;
#X connect 13 1 14 0;
#X connect 13 1 36 0;
#X connect 13 1 49 0;
#X connect 14 0 19 0;
#X connect 15 0 19 0;
#X connect 16 0 1 0;
#X connect 17 0 30 0;
#X connect 18 0 3 0;
#X connect 20 0 12 0;
#X connect 21 0 45 0;
#X connect 22 0 2 0;
#X connect 23 0 22 0;
#X connect 23 0 50 0;
#X connect 24 0 10 0;
#X connect 25 0 17 0;
#X connect 26 0 10 0;
#X connect 27 0 6 0;
#X connect 28 0 4 0;
#X connect 29 0 44 0;
#X connect 30 0 23 1;
#X connect 31 0 30 1;
#X connect 32 0 33 0;
#X connect 33 0 31 1;
#X connect 34 0 10 0;
#X connect 35 0 51 0;
#X connect 36 0 22 1;
#X connect 36 0 35 1;
#X connect 37 0 31 0;
#X connect 38 0 34 1;
#X connect 39 0 40 1;
#X connect 40 0 43 0;
#X connect 41 0 39 0;
#X connect 42 0 40 0;
#X connect 43 0 10 0;
#X connect 44 0 32 0;
#X connect 44 1 46 0;
#X connect 45 0 23 0;
#X connect 46 0 47 0;
#X connect 47 0 45 1;
#X connect 48 0 38 0;
#X connect 49 0 28 1;
#X connect 49 0 8 1;
#X connect 49 0 42 1;
#X connect 50 0 35 0;
#X connect 51 0 34 0;
