#N canvas 256 25 1133 711 12;
#X obj 126 3 inlet vel;
#X obj 121 207 j-com-env;
#X obj 79 317 *~;
#X obj 455 190 j-com-env;
#X obj 435 244 *~;
#X obj 124 129 t b b;
#X obj 593 317 j-com-env;
#X obj 573 371 *~;
#X obj 591 226 osc~ 220;
#X obj 126 27 sel -1 0;
#X obj 205 559 *~, f 12;
#X obj 205 583 outlet~;
#X obj 286 531 vline~;
#X obj 179 54 t a b;
#X msg 235 81 1 3;
#X msg 126 55 0 3;
#X obj 199 291 j-com-env;
#X msg 455 159 new \, 1 2 0.7 \, 0.1 300 4 \, 0 90 4;
#X obj 200 118 s \$0-duck;
#X obj 286 506 r \$0-duck;
#X obj 35 258 osc~;
#X obj 19 135 +~;
#X obj 435 268 /~ 34;
#X msg 593 286 new \, 1 2 0.7 \, 0.1 24 8 \, 0 24 4;
#X obj 359 109 osc~ 108;
#X obj 597 35 inlet mess;
#X obj 199 315 *~;
#X obj 303 325 +~;
#X msg 438 304 \$1 200;
#X obj 426 330 line~;
#X obj 192 416 *~;
#X obj 132 374 osc~ 55;
#X obj 218 388 j-com-env;
#X obj 718 438 j-com-env;
#X obj 698 492 *~;
#X msg 718 407 new \, 1 2 0.7 \, 0.1 24 8 \, 0 24 4;
#X obj 716 347 osc~ 880;
#X obj 597 59 route click pitch;
#X msg 650 98 \$1 200;
#X obj 638 124 line~;
#X obj 133 339 *~ 3;
#X obj 134 402 /~ 15;
#X obj 798 546 j-com-env;
#X obj 778 600 *~;
#X msg 798 515 new \, 1 2 0.7 \, 0.1 24 8 \, 0 24 4;
#X obj 796 455 osc~ 1760;
#X msg 500 51 0.25;
#X msg 85 138 0.5;
#X msg 217 355 new \, 1 8 0.8 \, 0.1 280 6 \, 0 50 4;
#X msg 199 259 new \, 1 1 0.8 \, 0.05 6 8 \, 0 10 2;
#X obj 303 299 sig~ 500;
#X obj 17 36 sig~ 59;
#X msg 121 175 new \, 1 2 0.4 \, 0.2 200 4 \, 0 220 4;
#X obj 779 624 /~ 64;
#X obj 699 516 /~ 32;
#X obj 574 395 /~ 24;
#X obj 591 194 *~ 4;
#X obj 714 320 *~ 8;
#X obj 796 432 *~ 16;
#X obj 14 89 +~;
#X obj 49 204 *~ 1;
#X connect 0 0 9 0;
#X connect 1 0 2 1;
#X connect 2 0 10 0;
#X connect 3 0 4 1;
#X connect 4 0 22 0;
#X connect 5 0 52 0;
#X connect 5 1 17 0;
#X connect 5 1 23 0;
#X connect 5 1 49 0;
#X connect 5 1 48 0;
#X connect 5 1 35 0;
#X connect 5 1 44 0;
#X connect 6 0 7 1;
#X connect 7 0 55 0;
#X connect 8 0 7 0;
#X connect 9 0 15 0;
#X connect 9 1 15 0;
#X connect 9 2 13 0;
#X connect 10 0 11 0;
#X connect 12 0 10 1;
#X connect 13 0 5 0;
#X connect 13 1 14 0;
#X connect 13 1 47 0;
#X connect 13 1 46 0;
#X connect 14 0 18 0;
#X connect 15 0 18 0;
#X connect 16 0 26 0;
#X connect 17 0 3 0;
#X connect 19 0 12 0;
#X connect 20 0 2 0;
#X connect 21 0 20 0;
#X connect 21 0 60 0;
#X connect 22 0 10 0;
#X connect 23 0 6 0;
#X connect 24 0 4 0;
#X connect 25 0 37 0;
#X connect 26 0 21 1;
#X connect 27 0 26 1;
#X connect 28 0 29 0;
#X connect 29 0 27 1;
#X connect 30 0 10 0;
#X connect 31 0 41 0;
#X connect 32 0 30 1;
#X connect 33 0 34 1;
#X connect 34 0 54 0;
#X connect 35 0 33 0;
#X connect 36 0 34 0;
#X connect 37 0 28 0;
#X connect 37 1 38 0;
#X connect 38 0 39 0;
#X connect 39 0 59 1;
#X connect 40 0 31 0;
#X connect 41 0 30 0;
#X connect 42 0 43 1;
#X connect 43 0 53 0;
#X connect 44 0 42 0;
#X connect 45 0 43 0;
#X connect 46 0 24 1;
#X connect 46 0 8 1;
#X connect 46 0 36 1;
#X connect 46 0 45 1;
#X connect 47 0 20 1;
#X connect 47 0 31 1;
#X connect 48 0 32 0;
#X connect 49 0 16 0;
#X connect 50 0 27 0;
#X connect 51 0 59 0;
#X connect 52 0 1 0;
#X connect 53 0 10 0;
#X connect 54 0 10 0;
#X connect 55 0 10 0;
#X connect 56 0 8 0;
#X connect 57 0 36 0;
#X connect 58 0 45 0;
#X connect 59 0 21 0;
#X connect 60 0 56 0;
#X connect 60 0 57 0;
#X connect 60 0 58 0;
