#N canvas 0 25 859 785 12;
#X obj 161 45 inlet vel;
#X obj 161 69 sel -1 0;
#X obj 160 723 *~, f 12;
#X obj 160 747 outlet~;
#X obj 241 695 vline~;
#X obj 214 96 t a b, f 14;
#X msg 309 127 1 3;
#X msg 161 97 0 3;
#X obj 213 174 s \$0-duck;
#X obj 241 670 r \$0-duck;
#X obj 214 121 s \$0-vel;
#X obj 184 371 j-com-env;
#X obj 160 474 +~;
#X obj 184 449 *~;
#X obj 264 411 +~;
#X obj 264 385 sig~ 2000;
#X obj 160 512 osc~;
#X obj 160 636 *~, f 36;
#X obj 428 439 j-com-env;
#X obj 401 95 inlet mess;
#X obj 400 199 line~;
#X msg 400 173 \$1 200;
#X obj 184 211 r \$0-vel;
#X msg 184 339 new \, \$1 2 0.8 \, 0 6 8;
#X obj 209 546 osc~;
#X obj 206 515 *~ 3;
#X obj 209 570 /~ 6;
#X obj 259 545 osc~;
#X obj 256 514 *~ 6;
#X obj 259 569 /~ 12;
#X obj 100 312 sig~ 55;
#X obj 401 120 route tone decay pitch;
#X obj 501 192 line~;
#X msg 501 166 \$1 200;
#X obj 100 376 +~;
#X obj 309 545 osc~;
#X obj 306 514 *~ 12;
#X obj 309 569 /~ 48;
#X obj 511 530 j-com-env;
#X obj 184 280 t a a a, f 19;
#X obj 309 600 *~, f 26;
#X obj 360 544 osc~;
#X obj 360 568 /~ 48;
#X obj 357 513 *~ 18.5;
#X msg 428 406 new \, \$1 10 0.8 \, 0 \$2 6;
#X msg 511 497 new \, \$1 2 0.8 \, 0 100 8;
#X obj 184 240 / 127;
#X obj 428 362 pack 0 800;
#X obj 501 216 *~ 1;
#X connect 0 0 1 0;
#X connect 1 0 7 0;
#X connect 1 1 7 0;
#X connect 1 2 5 0;
#X connect 2 0 3 0;
#X connect 4 0 2 1;
#X connect 5 0 10 0;
#X connect 5 1 6 0;
#X connect 6 0 8 0;
#X connect 7 0 8 0;
#X connect 9 0 4 0;
#X connect 11 0 13 0;
#X connect 12 0 16 0;
#X connect 12 0 25 0;
#X connect 12 0 28 0;
#X connect 12 0 36 0;
#X connect 12 0 43 0;
#X connect 13 0 12 1;
#X connect 14 0 13 1;
#X connect 15 0 14 0;
#X connect 16 0 17 0;
#X connect 17 0 2 0;
#X connect 18 0 17 1;
#X connect 19 0 31 0;
#X connect 20 0 14 1;
#X connect 21 0 20 0;
#X connect 22 0 46 0;
#X connect 23 0 11 0;
#X connect 24 0 26 0;
#X connect 25 0 24 0;
#X connect 26 0 17 0;
#X connect 27 0 29 0;
#X connect 28 0 27 0;
#X connect 29 0 40 0;
#X connect 30 0 34 0;
#X connect 31 0 21 0;
#X connect 31 1 47 1;
#X connect 31 2 33 0;
#X connect 32 0 48 0;
#X connect 33 0 32 0;
#X connect 34 0 12 0;
#X connect 35 0 37 0;
#X connect 36 0 35 0;
#X connect 37 0 40 0;
#X connect 38 0 40 1;
#X connect 39 0 23 0;
#X connect 39 1 47 0;
#X connect 39 2 45 0;
#X connect 40 0 2 0;
#X connect 41 0 42 0;
#X connect 42 0 40 0;
#X connect 43 0 41 0;
#X connect 44 0 18 0;
#X connect 45 0 38 0;
#X connect 46 0 39 0;
#X connect 47 0 44 0;
#X connect 48 0 34 1;
