#N canvas 0 25 450 539 12;
#X obj 19 12 inlet;
#X text 67 7 vel \, trigger;
#X msg 114 159 0 0 \, 1 \$1;
#X obj 114 183 vline~;
#X obj 114 207 sqrt~;
#X obj 114 231 *~ 20, f 8;
#X obj 114 255 -~ 0.25;
#X obj 114 279 cos~;
#X obj 114 303 *~, f 23;
#X obj 19 36 sel -1 0, f 14;
#X obj 271 164 / 127;
#X obj 271 188 sqrt;
#X obj 273 14 inlet;
#X text 322 16 messages;
#X obj 273 62 s \$0-length;
#X obj 146 100 r \$0-length;
#X obj 114 126 f 200;
#X obj 273 38 route length depth;
#X obj 333 98 s \$0-depth;
#X obj 167 196 r \$0-depth;
#X obj 114 397 *~;
#X obj 132 367 vline~;
#X obj 132 338 r \$0-duck;
#X msg 19 74 0 3;
#X obj 19 98 s \$0-duck;
#X obj 114 74 t b a b, f 18;
#X obj 258 129 s \$0-duck;
#X msg 258 105 1 3;
#X obj 114 421 outlet~;
#X connect 0 0 9 0;
#X connect 2 0 3 0;
#X connect 3 0 4 0;
#X connect 4 0 5 0;
#X connect 5 0 6 0;
#X connect 6 0 7 0;
#X connect 7 0 8 0;
#X connect 8 0 20 0;
#X connect 9 0 23 0;
#X connect 9 1 23 0;
#X connect 9 2 25 0;
#X connect 10 0 11 0;
#X connect 11 0 8 1;
#X connect 12 0 17 0;
#X connect 15 0 16 1;
#X connect 16 0 2 0;
#X connect 17 0 14 0;
#X connect 17 1 18 0;
#X connect 19 0 5 1;
#X connect 20 0 28 0;
#X connect 21 0 20 1;
#X connect 22 0 21 0;
#X connect 23 0 24 0;
#X connect 25 0 16 0;
#X connect 25 1 10 0;
#X connect 25 2 27 0;
#X connect 27 0 26 0;
