#N canvas 524 179 586 388 10;
#X obj 28 22 inlet midinote;
#X obj 28 63 unpack, f 18;
#X obj 133 88 s \$1-add-\$2-vel;
#X obj 41 339 throw~ add-big-busL-\$2;
#X obj 41 298 catch~ add-busL-\$1;
#X obj 199 300 catch~ add-busR-\$1;
#X obj 199 339 throw~ add-big-busR-\$2;
#X msg 234 120 vis 4 1;
#X obj 28 86 sig~;
#X obj 28 183 s~ \$1-add-\$2-midi;
#X obj 235 148 clone additive-partial \$3 \$1 \$2 \$3;
#X text 320 21 \$1 voice number;
#X text 323 40 \$2 unique number;
#X text 323 57 \$3 number of partials;
#X obj 39 144 lop~;
#X obj 60 120 r \$2-add-port;
#X connect 0 0 1 0;
#X connect 1 0 8 0;
#X connect 1 1 2 0;
#X connect 4 0 3 0;
#X connect 5 0 6 0;
#X connect 7 0 10 0;
#X connect 8 0 14 0;
#X connect 14 0 9 0;
#X connect 15 0 14 1;
