#N canvas 192 225 586 388 10;
#X obj 28 63 unpack, f 18;
#X obj 133 88 s \$1-add-\$2-vel;
#X obj 41 339 throw~ add-big-busL-\$2;
#X obj 41 298 catch~ add-busL-\$1;
#X obj 199 300 catch~ add-busR-\$1;
#X obj 199 339 throw~ add-big-busR-\$2;
#X msg 300 129 vis 4 1;
#X obj 28 86 sig~;
#X obj 28 243 s~ \$1-add-\$2-midi;
#X obj 268 175 clone additive-partial \$3 \$1 \$2 \$3;
#X text 320 21 \$1 voice number;
#X text 323 40 \$2 unique number;
#X text 323 57 \$3 number of partials;
#X obj 28 139 lop~;
#X obj 49 115 r \$2-add-port;
#X obj 28 22 inlet;
#X text 74 18 midinote;
#X obj 28 184 +~, f 12;
#X obj 97 154 r~ \$2-add-transpose;
#X obj 28 205 mtof~;
#X connect 0 0 7 0;
#X connect 0 1 1 0;
#X connect 3 0 2 0;
#X connect 4 0 5 0;
#X connect 6 0 9 0;
#X connect 7 0 13 0;
#X connect 13 0 17 0;
#X connect 14 0 13 1;
#X connect 15 0 0 0;
#X connect 17 0 19 0;
#X connect 18 0 17 1;
#X connect 19 0 8 0;
