#N canvas 514 169 644 656 10;
#X obj 41 180 *~;
#X obj 41 351 *~, f 58;
#N canvas 0 50 450 300 pan 0;
#X obj 33 9 inlet~;
#X obj 33 145 *~;
#X obj 116 146 *~;
#X obj 33 196 outlet~;
#X obj 116 196 outlet~;
#X obj 125 8 inlet;
#X obj 125 29 * 1.5708;
#X obj 125 50 t a a, f 10;
#X obj 125 71 cos;
#X obj 182 70 sin;
#X connect 0 0 1 0;
#X connect 0 0 2 0;
#X connect 1 0 3 0;
#X connect 2 0 4 0;
#X connect 5 0 6 0;
#X connect 6 0 7 0;
#X connect 7 0 8 0;
#X connect 7 1 9 0;
#X connect 8 0 1 1;
#X connect 9 0 2 1;
#X restore 41 579 pd pan - - - - - - - -;
#X text 490 121 \$1 partial number;
#X obj 170 547 r \$3-add-\$1-pan;
#X obj 170 628 throw~ add-busR-\$2;
#X obj 41 629 throw~ add-busL-\$2;
#N canvas 200 289 906 583 filter 0;
#X obj 79 7 r \$3-add-filter;
#X obj 79 430 outlet~;
#X obj 334 130 - \$1;
#X obj 79 78 moses \$1, f 43;
#X obj 79 165 - \$1;
#X obj 79 140 pack \$1 0;
#X text 417 272 hipass sharpness;
#X text 217 236 low pass sharpness;
#X obj 79 277 pow, f 21;
#X obj 175 212 r \$3-lop-sharp;
#X obj 370 222 r \$3-hip-sharp;
#X obj 334 272 pow, f 11;
#X obj 370 243 t b a;
#X obj 175 232 t b a;
#X obj 708 40 r \$3-filter-boost;
#X obj 79 354 + 0, f 86;
#X msg 79 211 1 \$1;
#X obj 79 232 -;
#X msg 334 185 1 \$1;
#X obj 334 206 -;
#X obj 79 29 t a a, f 72;
#X obj 508 78 - \$1;
#X obj 508 56 moses \$1, f 14;
#X obj 589 81 - \$1;
#X obj 79 50 f;
#X obj 79 107 t b a, f 9;
#X msg 589 148 1 \$1;
#X obj 589 169 -;
#X obj 508 161 + 1;
#X obj 589 235 pow 4;
#X obj 589 256 * 0.3, f 16;
#X obj 708 61 clip 0 1;
#X obj 708 152 * 0.3;
#X obj 708 173 t b a;
#X msg 779 136 1 \$1;
#X obj 779 159 /;
#X obj 779 207 -;
#X msg 779 184 0.9 \$1;
#X obj 334 161 / \$4;
#X obj 79 189 / \$4;
#X obj 508 121 / 8;
#X obj 589 124 / 8;
#X obj 589 103 clip 0 8;
#X obj 508 100 clip -8 0;
#X obj 79 399 lop~ 4;
#X obj 735 91 inlet;
#X text 774 88 Max boost;
#X connect 0 0 20 0;
#X connect 2 0 38 0;
#X connect 3 0 25 0;
#X connect 3 1 2 0;
#X connect 4 0 39 0;
#X connect 5 0 4 0;
#X connect 8 0 15 0;
#X connect 9 0 13 0;
#X connect 10 0 12 0;
#X connect 11 0 15 0;
#X connect 12 0 24 0;
#X connect 12 1 11 1;
#X connect 13 0 24 0;
#X connect 13 1 8 1;
#X connect 14 0 31 0;
#X connect 15 0 44 0;
#X connect 16 0 17 0;
#X connect 17 0 8 0;
#X connect 18 0 19 0;
#X connect 19 0 11 0;
#X connect 20 0 24 0;
#X connect 20 1 22 0;
#X connect 21 0 43 0;
#X connect 22 0 21 0;
#X connect 22 1 23 0;
#X connect 23 0 42 0;
#X connect 24 0 3 0;
#X connect 25 0 5 0;
#X connect 25 1 5 1;
#X connect 26 0 27 0;
#X connect 27 0 29 0;
#X connect 28 0 29 0;
#X connect 29 0 30 0;
#X connect 30 0 15 1;
#X connect 31 0 32 0;
#X connect 32 0 33 0;
#X connect 33 0 29 0;
#X connect 33 1 30 1;
#X connect 34 0 35 0;
#X connect 35 0 37 0;
#X connect 36 0 32 1;
#X connect 37 0 36 0;
#X connect 38 0 18 0;
#X connect 39 0 16 0;
#X connect 40 0 28 0;
#X connect 41 0 26 0;
#X connect 42 0 41 0;
#X connect 43 0 40 0;
#X connect 44 0 1 0;
#X connect 45 0 34 0;
#X restore 374 469 pd filter;
#X obj 41 455 /~;
#X obj 41 496 *~, f 56;
#X obj 41 3 r~ \$2-add-\$3-midi;
#X text 90 530 head room;
#X text 496 149 \$2 voice number;
#X text 491 175 \$3 unique number;
#X text 491 202 \$4 number of partials;
#X obj 56 429 lop~ 5;
#X obj 243 122 abs;
#X obj 56 155 lop~ 1.5;
#X obj 41 531 *~ 0.5, f 19;
#X obj 195 3 inlet;
#X text 230 2 dummy;
#X obj 385 313 j-com-env;
#X obj 56 399 r \$2-add-\$3-max-vol;
#X obj 161 65 r \$2-add-\$3-index;
#X obj 161 94 t a a, f 14;
#X obj 385 272 r \$2-add-\$3-amp-env;
#X obj 104 220 j-com-env;
#X obj 41 314 osc~;
#X obj 41 291 +~, f 11;
#X obj 104 266 *~;
#X obj 104 179 r \$2-add-\$3-freq-env;
#X obj 119 243 r \$2-add-\$3-freq-depth;
#X obj 340 104 r \$2-add-\$3-trigger;
#X obj 340 125 sel -1 0;
#X connect 0 0 28 0;
#X connect 1 0 8 0;
#X connect 2 0 6 0;
#X connect 2 1 5 0;
#X connect 4 0 2 1;
#X connect 7 0 9 1;
#X connect 8 0 9 0;
#X connect 9 0 18 0;
#X connect 10 0 0 0;
#X connect 15 0 8 1;
#X connect 16 0 7 0;
#X connect 17 0 0 1;
#X connect 18 0 2 0;
#X connect 21 0 1 1;
#X connect 22 0 15 0;
#X connect 23 0 24 0;
#X connect 24 0 17 0;
#X connect 24 1 16 0;
#X connect 25 0 21 0;
#X connect 26 0 29 0;
#X connect 27 0 1 0;
#X connect 28 0 27 0;
#X connect 29 0 28 1;
#X connect 30 0 26 0;
#X connect 31 0 29 1;
#X connect 32 0 33 0;
