#N canvas 99 269 598 383 10;
#X obj 63 21 inlet note;
#X obj 63 83 - 1;
#X obj 63 104 pack 0 0 0, f 11;
#N canvas 166 316 272 285 presets 0;
#N canvas 0 145 1030 614 envelop-presets 0;
#X msg 214 488 \; \$3-add-\$2-a \$1;
#X msg 374 463 \; \$3-add-\$2-d \$1;
#X msg 543 463 \; \$3-add-\$2-s \$1;
#X msg 706 468 \; \$3-add-\$2-r \$1;
#X msg 58 426 \; \$3-add-\$2-del \$1;
#X obj 58 390 pack 0 0 \$1, f 16;
#X obj 58 295 count 12;
#X obj 58 248 r \$1-load-presets;
#X obj 214 460 pack 0 0 \$1, f 16;
#X obj 214 275 count 12;
#X obj 214 228 r \$1-load-presets;
#X obj 376 432 pack 0 0 \$1;
#X obj 376 294 count 12;
#X obj 376 267 r \$1-load-presets;
#X obj 543 433 pack 0 0 \$1;
#X obj 543 265 count 12;
#X obj 543 238 r \$1-load-presets;
#X obj 706 437 pack 0 0 \$1, f 16;
#X obj 706 262 count 12, f 12;
#X obj 724 237 bng 15 250 50 0 empty empty empty 17 7 0 10 -262144
-1 -1;
#X obj 706 215 r \$1-load-presets;
#X obj 235 254 bng 15 250 50 0 empty empty empty 17 7 0 10 -262144
-1 -1;
#X obj 637 288 bng 15 250 50 0 empty empty empty 17 7 0 10 -262144
-1 -1;
#X obj 376 397 clip 0 1;
#X obj 543 407 clip 0 1;
#X obj 706 406 clip 0 1;
#X msg 706 292 12 \$1;
#X obj 706 313 -;
#X obj 706 334 / 12;
#X obj 376 315 / 12;
#X obj 376 336 + 0.1;
#X msg 212 307 12 \$1;
#X obj 212 328 -;
#X obj 212 349 / 12;
#X msg 543 305 1;
#X connect 5 0 4 0;
#X connect 6 0 5 0;
#X connect 6 1 5 1;
#X connect 7 0 6 0;
#X connect 8 0 0 0;
#X connect 9 0 31 0;
#X connect 9 1 8 1;
#X connect 10 0 9 0;
#X connect 11 0 1 0;
#X connect 12 0 29 0;
#X connect 12 1 11 1;
#X connect 13 0 12 0;
#X connect 14 0 2 0;
#X connect 15 0 34 0;
#X connect 15 1 14 1;
#X connect 16 0 15 0;
#X connect 17 0 3 0;
#X connect 18 0 26 0;
#X connect 18 1 17 1;
#X connect 19 0 18 0;
#X connect 20 0 18 0;
#X connect 21 0 9 0;
#X connect 22 0 15 0;
#X connect 23 0 11 0;
#X connect 24 0 14 0;
#X connect 25 0 17 0;
#X connect 26 0 27 0;
#X connect 27 0 28 0;
#X connect 28 0 25 0;
#X connect 29 0 30 0;
#X connect 30 0 23 0;
#X connect 31 0 32 0;
#X connect 32 0 33 0;
#X connect 33 0 8 0;
#X connect 34 0 24 0;
#X restore 82 112 pd envelop-presets;
#N canvas 444 231 922 534 frequency-LFO 0;
#X obj 37 279 pack 0 0 \$1;
#X obj 36 158 count 12;
#X obj 36 111 r \$1-load-presets;
#X msg 37 304 \; \$3-add-\$2-fLFO-depth \$1;
#X obj 204 278 pack 0 0 \$1;
#X obj 203 157 count 12;
#X obj 203 110 r \$1-load-presets;
#X obj 398 274 pack 0 0 \$1;
#X obj 397 153 count 12;
#X obj 397 106 r \$1-load-presets;
#X msg 204 303 \; \$3-add-\$2-fLFO-rate \$1;
#X msg 398 299 \; \$3-add-\$2-fLFO-phase \$1;
#X obj 397 174 / 12;
#X obj 203 178 / 12;
#X obj 36 179 / 12;
#X obj 36 200 pow 8;
#X connect 0 0 3 0;
#X connect 1 0 14 0;
#X connect 1 1 0 1;
#X connect 2 0 1 0;
#X connect 4 0 10 0;
#X connect 5 0 13 0;
#X connect 5 1 4 1;
#X connect 6 0 5 0;
#X connect 7 0 11 0;
#X connect 8 0 12 0;
#X connect 8 1 7 1;
#X connect 9 0 8 0;
#X connect 12 0 7 0;
#X connect 13 0 4 0;
#X connect 14 0 15 0;
#X connect 15 0 0 0;
#X restore 84 164 pd frequency-LFO;
#N canvas 89 202 865 484 oscillator 0;
#X msg 244 367 \; \$3-add-\$2-displace \$1;
#X obj 244 332 pack 0 0 \$1;
#X obj 418 228 pack 0 0 \$1;
#X msg 418 263 \; \$3-add-\$2-osc-phase \$1;
#X obj 588 205 pack 0 0 \$1;
#X msg 588 240 \; \$3-add-\$2-pan \$1;
#X msg 80 292 \; \$3-add-\$2-peak \$1;
#X obj 241 138 count 12;
#X obj 418 137 count 12;
#X obj 241 91 r \$1-load-presets;
#X obj 588 134 count 12;
#X obj 588 155 t b;
#X obj 418 84 r \$1-load-presets;
#X obj 588 82 r \$1-load-presets;
#X obj 80 248 pack 0 0 \$1, f 16;
#X obj 80 133 count 12;
#X obj 80 86 r \$1-load-presets;
#X obj 80 157 + 1;
#X msg 587 176 0.5;
#X obj 418 158 / 12;
#X obj 309 138 bng 15 250 50 0 empty empty empty 17 7 0 10 -262144
-1 -1;
#X obj 241 159 + 1;
#X connect 1 0 0 0;
#X connect 2 0 3 0;
#X connect 4 0 5 0;
#X connect 7 0 21 0;
#X connect 7 1 1 1;
#X connect 8 0 19 0;
#X connect 8 1 2 1;
#X connect 9 0 7 0;
#X connect 10 0 11 0;
#X connect 10 1 4 1;
#X connect 11 0 18 0;
#X connect 12 0 8 0;
#X connect 13 0 10 0;
#X connect 14 0 6 0;
#X connect 15 0 17 0;
#X connect 15 1 14 1;
#X connect 16 0 15 0;
#X connect 17 0 14 0;
#X connect 18 0 4 0;
#X connect 19 0 2 0;
#X connect 20 0 7 0;
#X connect 21 0 1 0;
#X restore 98 72 pd oscillator;
#X restore 274 116 pd presets;
#X obj 233 50 s \$1-load-presets;
#X obj 233 24 bng 15 250 50 0 empty empty empty 17 7 0 10 -262144 -1
-1;
#X obj 78 277 s \$1-add-filter;
#X obj 41 339 catch~ add-big-busL-\$1;
#X obj 205 339 catch~ add-big-busR-\$1;
#X obj 41 360 outlet~;
#X obj 205 360 outlet~;
#X obj 401 185 s~ \$1-add-transpose;
#X floatatom 400 135 5 0 0 0 - - -, f 5;
#X obj 402 155 lop~ 5;
#N canvas 2 298 1009 598 master-adsr 0;
#X obj 257 335 s \$1-add-att;
#X obj 357 333 s \$1-add-dec;
#X obj 450 334 s \$1-add-sus;
#X obj 554 339 s \$1-add-rel;
#X floatatom 257 270 5 0 0 0 - - -, f 5;
#X obj 257 290 max 1;
#X floatatom 357 270 5 0 0 0 - - -, f 5;
#X obj 357 290 max 1;
#X floatatom 450 246 5 0 0 0 - - -, f 5;
#X obj 450 266 max 0;
#X obj 450 287 min 100;
#X obj 450 308 / 100;
#X floatatom 554 280 5 0 0 0 - - -, f 5;
#X obj 554 300 max 1;
#X msg 464 196 75;
#X msg 560 244 2000;
#X obj 318 130 r \$1-load-presets;
#X msg 271 237 300;
#X msg 362 222 20;
#X connect 4 0 5 0;
#X connect 5 0 0 0;
#X connect 6 0 7 0;
#X connect 7 0 1 0;
#X connect 8 0 9 0;
#X connect 9 0 10 0;
#X connect 10 0 11 0;
#X connect 11 0 2 0;
#X connect 12 0 13 0;
#X connect 13 0 3 0;
#X connect 14 0 8 0;
#X connect 15 0 12 0;
#X connect 16 0 17 0;
#X connect 16 0 18 0;
#X connect 16 0 15 0;
#X connect 16 0 14 0;
#X connect 17 0 4 0;
#X connect 18 0 6 0;
#X restore 273 147 pd master-adsr;
#X text 112 236 number of partials;
#X obj 81 183 hsl 128 15 0 127 0 0 empty empty empty -2 -8 0 10 -262144
-1 -1 0 1;
#X obj 78 210 / 127;
#X obj 379 309 s \$1-hip-sharp;
#X floatatom 426 249 5 0 0 0 - - -, f 5;
#X floatatom 379 286 5 0 0 0 - - -, f 5;
#X obj 469 247 s \$1-filter-boost;
#X floatatom 470 223 5 0 0 0 - - -, f 5;
#X obj 425 275 s \$1-lop-sharp;
#X text 392 19 Arg1: unique number;
#X text 392 39 Arg2: number of partials;
#X text 393 59 Arg3: number of voices;
#X obj 78 234 * \$2;
#X obj 63 62 poly \$3 1, f 11;
#X obj 63 154 clone additive-voice \$3 \$1 \$2;
#X obj 158 210 r \$1-load-presets;
#X msg 158 232 0;
#X connect 0 0 28 0;
#X connect 1 0 2 0;
#X connect 2 0 29 0;
#X connect 5 0 4 0;
#X connect 7 0 9 0;
#X connect 8 0 10 0;
#X connect 12 0 13 0;
#X connect 13 0 11 0;
#X connect 16 0 17 0;
#X connect 17 0 27 0;
#X connect 19 0 23 0;
#X connect 20 0 18 0;
#X connect 22 0 21 0;
#X connect 27 0 6 0;
#X connect 28 0 1 0;
#X connect 28 1 2 1;
#X connect 28 2 2 2;
#X connect 30 0 31 0;
#X connect 31 0 17 0;
