#N canvas 175 127 653 656 10;
#X obj 41 180 *~;
#X text 74 180 relative change;
#X obj 41 437 *~, f 58;
#N canvas 0 50 450 300 pan 0;
#X obj 33 9 inlet~;
#X obj 33 145 *~;
#X obj 116 146 *~;
#X obj 33 196 outlet~;
#X obj 116 196 outlet~;
#X obj 125 8 inlet;
#X obj 125 29 * 1.5708;
#X obj 125 50 t a a, f 10;
#X obj 125 71 cos;
#X obj 182 70 sin;
#X connect 0 0 1 0;
#X connect 0 0 2 0;
#X connect 1 0 3 0;
#X connect 2 0 4 0;
#X connect 5 0 6 0;
#X connect 6 0 7 0;
#X connect 7 0 8 0;
#X connect 7 1 9 0;
#X connect 8 0 1 1;
#X connect 9 0 2 1;
#X restore 41 579 pd pan - - - - - - - -;
#X text 531 150 \$1 partial number;
#X text 531 175 \$2 voice number;
#X text 531 202 \$3 synth number;
#X obj 170 547 r \$3-add-\$1-pan;
#X obj 170 608 throw~ add-busR-\$2;
#X obj 41 609 throw~ add-busL-\$2;
#N canvas 34 205 906 583 filter 0;
#X obj 79 7 r \$3-add-filter;
#X obj 79 430 outlet~;
#X obj 334 130 - \$1;
#X obj 79 78 moses \$1, f 43;
#X obj 79 165 - \$1;
#X obj 79 140 pack \$1 0;
#X text 417 272 hipass sharpness;
#X text 217 236 low pass sharpness;
#X obj 334 161 / 12;
#X obj 79 189 / 12;
#X obj 79 277 pow, f 21;
#X obj 175 212 r \$3-lop-sharp;
#X obj 370 222 r \$3-hip-sharp;
#X obj 334 272 pow, f 11;
#X obj 370 243 t b a;
#X obj 175 232 t b a;
#X obj 708 40 r \$3-filter-boost;
#X obj 79 354 + 0, f 86;
#X msg 79 211 1 \$1;
#X obj 79 232 -;
#X msg 334 185 1 \$1;
#X obj 334 206 -;
#X obj 79 29 t a a, f 72;
#X obj 508 78 - \$1;
#X obj 508 56 moses \$1, f 14;
#X obj 589 81 - \$1;
#X obj 79 50 f;
#X obj 79 107 t b a, f 9;
#X msg 589 148 1 \$1;
#X obj 589 169 -;
#X obj 508 161 + 1;
#X obj 508 100 clip -4 0;
#X obj 589 103 clip 0 4;
#X obj 508 121 / 4;
#X obj 589 124 / 4;
#X obj 589 235 pow 4;
#X obj 589 256 * 0.3, f 16;
#X obj 708 61 clip 0 1;
#X obj 708 152 * 0.3;
#X obj 708 173 t b a;
#X obj 735 91 inlet max boost;
#X msg 779 136 1 \$1;
#X obj 779 159 /;
#X obj 779 207 -;
#X msg 779 184 0.9 \$1;
#X obj 79 399 lop~ 5;
#X connect 0 0 22 0;
#X connect 2 0 8 0;
#X connect 3 0 27 0;
#X connect 3 1 2 0;
#X connect 4 0 9 0;
#X connect 5 0 4 0;
#X connect 8 0 20 0;
#X connect 9 0 18 0;
#X connect 10 0 17 0;
#X connect 11 0 15 0;
#X connect 12 0 14 0;
#X connect 13 0 17 0;
#X connect 14 0 26 0;
#X connect 14 1 13 1;
#X connect 15 0 26 0;
#X connect 15 1 10 1;
#X connect 16 0 37 0;
#X connect 17 0 45 0;
#X connect 18 0 19 0;
#X connect 19 0 10 0;
#X connect 20 0 21 0;
#X connect 21 0 13 0;
#X connect 22 0 26 0;
#X connect 22 1 24 0;
#X connect 23 0 31 0;
#X connect 24 0 23 0;
#X connect 24 1 25 0;
#X connect 25 0 32 0;
#X connect 26 0 3 0;
#X connect 27 0 5 0;
#X connect 27 1 5 1;
#X connect 28 0 29 0;
#X connect 29 0 35 0;
#X connect 30 0 35 0;
#X connect 31 0 33 0;
#X connect 32 0 34 0;
#X connect 33 0 30 0;
#X connect 34 0 28 0;
#X connect 35 0 36 0;
#X connect 36 0 17 1;
#X connect 37 0 38 0;
#X connect 38 0 39 0;
#X connect 39 0 35 0;
#X connect 39 1 36 1;
#X connect 40 0 41 0;
#X connect 41 0 42 0;
#X connect 42 0 44 0;
#X connect 43 0 38 1;
#X connect 44 0 43 0;
#X connect 45 0 1 0;
#X restore 104 529 pd filter;
#X obj 56 57 r~ \$3-add-transpose;
#X obj 41 117 mtof~;
#X obj 359 8 r \$2-add-\$3-vel;
#N canvas 241 119 750 472 amp-envelope 0;
#X obj 128 85 inlet velocity;
#X obj 197 197 r \$3-add-\$1-r;
#X obj 128 106 sel 0, f 44;
#X obj 389 252 f;
#X obj 389 219 del, f 8;
#X msg 487 160 stop;
#X obj 416 299 outlet start-bang;
#X obj 128 435 outlet~ amp-envelope;
#X msg 128 157 0;
#X obj 128 298 pack 0 0;
#X obj 173 241 *, f 9;
#X obj 197 218 t b a;
#X obj 128 378 vline~;
#X obj 173 262 t a a;
#X obj 128 127 t b b, f 27;
#X obj 287 291 del, f 8;
#X msg 314 264 stop;
#X obj 287 240 t b b;
#X msg 615 274 1, f 5;
#X msg 287 312 0;
#N canvas 437 142 598 351 ads 0;
#X obj 77 204 pack 0 0 0 0, f 54;
#X obj 184 129 *, f 9;
#X obj 208 106 t b a;
#X obj 208 84 r \$3-add-\$1-a;
#X obj 291 162 *, f 9;
#X obj 315 139 t b a;
#X obj 315 117 r \$3-add-\$1-d;
#X obj 405 157 *, f 9;
#X obj 429 121 t b a;
#X obj 429 100 r \$3-add-\$1-s;
#X obj 77 27 inlet vel;
#X msg 77 225 \$1 \$2 \, \$4 \$3 \$2;
#X obj 77 246 outlet;
#X obj 77 78 sqrt;
#X obj 77 99 sqrt;
#X obj 77 48 / 127;
#X obj 184 61 r \$3-add-att;
#X obj 291 94 r \$3-add-dec;
#X obj 405 76 r \$3-add-sus;
#X connect 0 0 11 0;
#X connect 1 0 0 1;
#X connect 2 0 1 0;
#X connect 2 1 1 1;
#X connect 3 0 2 0;
#X connect 4 0 0 2;
#X connect 5 0 4 0;
#X connect 5 1 4 1;
#X connect 6 0 5 0;
#X connect 7 0 0 3;
#X connect 8 0 7 0;
#X connect 8 1 7 1;
#X connect 9 0 8 0;
#X connect 10 0 15 0;
#X connect 11 0 12 0;
#X connect 13 0 14 0;
#X connect 14 0 0 0;
#X connect 15 0 13 0;
#X connect 16 0 1 0;
#X connect 17 0 4 0;
#X connect 18 0 7 0;
#X restore 389 324 pd ads;
#X obj 434 195 r \$3-add-\$1-del;
#X obj 173 173 r \$3-add-rel;
#X obj 389 132 t b a b, f 17;
#X obj 389 273 t a b b b, f 13;
#X obj 128 409 pow~ 4;
#X obj 615 419 outlet 2-switch;
#X floatatom 221 312 5 0 0 0 - - -;
#X connect 0 0 2 0;
#X connect 1 0 11 0;
#X connect 2 0 14 0;
#X connect 2 1 23 0;
#X connect 3 0 24 0;
#X connect 4 0 3 0;
#X connect 5 0 4 0;
#X connect 8 0 9 0;
#X connect 9 0 12 0;
#X connect 10 0 13 0;
#X connect 11 0 10 0;
#X connect 11 1 10 1;
#X connect 12 0 25 0;
#X connect 13 0 9 1;
#X connect 13 1 15 1;
#X connect 13 1 27 0;
#X connect 14 0 8 0;
#X connect 14 1 17 0;
#X connect 15 0 19 0;
#X connect 16 0 15 0;
#X connect 17 0 15 0;
#X connect 17 1 16 0;
#X connect 18 0 26 0;
#X connect 19 0 26 0;
#X connect 20 0 12 0;
#X connect 21 0 4 1;
#X connect 22 0 10 0;
#X connect 23 0 4 0;
#X connect 23 1 3 1;
#X connect 23 2 5 0;
#X connect 24 0 20 0;
#X connect 24 1 6 0;
#X connect 24 2 18 0;
#X connect 24 3 16 0;
#X connect 25 0 7 0;
#X restore 386 51 pd amp-envelope;
#X obj 41 525 /~;
#X obj 195 3 inlet dummy;
#X obj 41 556 *~, f 11;
#N canvas 0 23 450 300 displace 0;
#X obj 101 170 list split \$1;
#X obj 101 271 outlet;
#X obj 101 48 r \$3-add-displace;
#X obj 101 221 list trim;
#X obj 138 195 list split 1;
#X obj 101 241 max 1;
#X connect 0 1 4 0;
#X connect 2 0 0 0;
#X connect 3 0 5 0;
#X connect 4 0 3 0;
#X connect 5 0 1 0;
#X restore 196 86 pd displace;
#X obj 196 143 lop~ 5;
#X obj 41 411 *~ 0.7, f 19;
#X text 90 410 head room;
#X obj 41 86 +~;
#X obj 41 3 r~ \$2-add-\$3-midi;
#X obj 41 231 phasor~;
#X obj 41 302 +~;
#X obj 41 323 wrap~;
#X obj 41 388 cos~;
#N canvas 0 23 450 300 clickless-rephase 0;
#X obj 138 131 snapshot~;
#X obj 35 33 inlet~ signal;
#X obj 194 32 inlet new position;
#X obj 138 162 pack 0 0, f 19;
#X obj 138 208 -;
#X msg 138 185 \$2 \$1;
#X obj 138 249 vline~;
#X msg 138 229 \$1 3;
#X obj 138 270 outlet~;
#X obj 246 67 r \$3-add-\$1-osc-phase;
#X obj 231 93 f;
#X obj 194 53 t b b;
#X connect 0 0 3 0;
#X connect 1 0 0 0;
#X connect 2 0 11 0;
#X connect 3 0 5 0;
#X connect 4 0 7 0;
#X connect 5 0 4 0;
#X connect 6 0 8 0;
#X connect 7 0 6 0;
#X connect 9 0 10 1;
#X connect 10 0 3 1;
#X connect 11 0 0 0;
#X connect 11 1 10 0;
#X restore 56 278 pd clickless-rephase;
#X obj 472 83 switch~;
#X obj 196 106 t a a, f 18;
#X obj 429 104 t b;
#X connect 0 0 24 0;
#X connect 2 0 15 0;
#X connect 3 0 9 0;
#X connect 3 1 8 0;
#X connect 7 0 3 1;
#X connect 10 0 17 1;
#X connect 11 0 22 1;
#X connect 12 0 0 0;
#X connect 13 0 14 0;
#X connect 14 0 2 1;
#X connect 14 1 31 0;
#X connect 14 2 29 0;
#X connect 15 0 17 0;
#X connect 17 0 3 0;
#X connect 18 0 30 0;
#X connect 19 0 0 1;
#X connect 19 0 15 1;
#X connect 20 0 2 0;
#X connect 22 0 12 0;
#X connect 23 0 22 0;
#X connect 24 0 25 0;
#X connect 24 0 28 0;
#X connect 25 0 26 0;
#X connect 26 0 27 0;
#X connect 27 0 20 0;
#X connect 28 0 25 1;
#X connect 30 0 19 0;
#X connect 30 1 10 0;
