#N canvas 602 277 653 555 10;
#X obj 41 210 +~, f 28;
#X text 219 211 freq-lfo;
#X obj 41 180 *~;
#X text 74 180 relative change;
#X obj 41 367 *~, f 58;
#N canvas 0 23 450 300 pan 0;
#X obj 33 9 inlet~;
#X obj 33 145 *~;
#X obj 116 146 *~;
#X obj 33 196 outlet~;
#X obj 116 196 outlet~;
#X obj 125 8 inlet;
#X obj 125 29 * 1.5708;
#X obj 125 50 t a a, f 10;
#X obj 125 71 cos;
#X obj 182 70 sin;
#X connect 0 0 1 0;
#X connect 0 0 2 0;
#X connect 1 0 3 0;
#X connect 2 0 4 0;
#X connect 5 0 6 0;
#X connect 6 0 7 0;
#X connect 7 0 8 0;
#X connect 7 1 9 0;
#X connect 8 0 1 1;
#X connect 9 0 2 1;
#X restore 41 498 pd pan - - - - - - - -;
#X obj 206 188 *~;
#X text 471 148 \$1 partial number;
#X text 473 170 \$2 voice number;
#X text 476 189 \$3 synth number;
#X obj 41 3 r \$2-add-\$3-midi;
#X obj 56 150 r \$3-add-\$1-displace;
#X obj 170 466 r \$3-add-\$1-pan;
#X obj 170 527 throw~ add-busR-\$2;
#X obj 41 528 throw~ add-busL-\$2;
#N canvas 345 100 906 497 filter 0;
#X obj 79 37 r \$3-add-filter;
#X obj 79 409 lop~ 10;
#X obj 79 440 outlet~;
#X obj 454 91 - \$1;
#X obj 79 58 moses \$1, f 63;
#X obj 79 145 - \$1;
#X obj 79 86 t b a, f 9;
#X obj 79 120 pack \$1 0;
#X text 440 218 hipass sharpness;
#X text 154 218 low pass sharpness;
#X obj 454 122 / 12;
#X obj 79 169 / 12;
#X obj 79 253 pow, f 12;
#X obj 121 192 r \$3-lop-sharp;
#X obj 491 153 r \$3-hip-sharp;
#X obj 454 203 pow, f 6;
#X obj 491 174 t b a;
#X obj 121 212 t b a;
#X obj 688 65 inlet peak-vol;
#X obj 676 36 r \$3-filter-boost;
#X msg 688 107 1 \$1;
#X obj 688 128 -;
#X obj 688 149 t b a;
#X obj 676 190 *, f 7;
#X obj 79 374 + 0, f 100;
#X msg 79 191 1 \$1;
#X obj 79 212 -;
#X msg 454 146 1 \$1;
#X obj 454 167 -;
#X obj 676 290 *;
#X obj 79 344 t a a, f 65;
#X obj 649 233 t b a;
#X obj 79 304 f, f 22;
#X connect 0 0 4 0;
#X connect 1 0 2 0;
#X connect 3 0 10 0;
#X connect 4 0 6 0;
#X connect 4 1 3 0;
#X connect 5 0 11 0;
#X connect 6 0 7 0;
#X connect 6 1 7 1;
#X connect 7 0 5 0;
#X connect 10 0 27 0;
#X connect 11 0 25 0;
#X connect 12 0 32 0;
#X connect 13 0 17 0;
#X connect 14 0 16 0;
#X connect 15 0 32 0;
#X connect 16 0 15 0;
#X connect 16 1 15 1;
#X connect 17 0 12 0;
#X connect 17 1 12 1;
#X connect 18 0 20 0;
#X connect 19 0 23 0;
#X connect 20 0 21 0;
#X connect 21 0 22 0;
#X connect 22 0 23 0;
#X connect 22 1 23 1;
#X connect 23 0 31 0;
#X connect 24 0 1 0;
#X connect 25 0 26 0;
#X connect 26 0 12 0;
#X connect 27 0 28 0;
#X connect 28 0 15 0;
#X connect 29 0 24 1;
#X connect 30 0 24 0;
#X connect 30 1 29 1;
#X connect 31 0 32 0;
#X connect 31 1 29 0;
#X connect 32 0 30 0;
#X restore 104 449 pd filter;
#X obj 41 86 +~;
#X obj 56 63 r~ \$3-add-transpose;
#X obj 41 24 sig~;
#X obj 41 117 mtof~;
#N canvas 564 307 750 472 freq-envelope 0;
#X obj 117 340 outlet~;
#X obj 117 193 phasor~;
#X obj 117 295 cos~;
#X obj 117 270 wrap~;
#X obj 117 244 -~;
#X obj 267 45 inlet re-start;
#X obj 267 66 t b;
#X obj 117 93 r \$3-add-\$1-fLFO-rate;
#N canvas 454 175 450 300 clickless-phase-freq 0;
#X obj 37 95 snapshot~;
#X obj 37 34 inlet~;
#X obj 143 35 inlet bang;
#X obj 37 239 vline~;
#X msg 37 214 \$1 3;
#X obj 38 279 outlet~;
#X obj 37 161 -;
#X obj 124 86 r \$3-add-\$1-fLFO-phase;
#X connect 0 0 6 0;
#X connect 1 0 0 0;
#X connect 2 0 0 0;
#X connect 3 0 5 0;
#X connect 4 0 3 0;
#X connect 6 0 4 0;
#X connect 7 0 6 1;
#X restore 132 221 pd clickless-phase-freq;
#X connect 1 0 8 0;
#X connect 1 0 4 0;
#X connect 2 0 0 0;
#X connect 3 0 2 0;
#X connect 4 0 3 0;
#X connect 5 0 6 0;
#X connect 6 0 8 1;
#X connect 7 0 1 0;
#X connect 8 0 4 1;
#X restore 206 136 pd freq-envelope;
#X obj 386 18 r \$2-add-\$3-vel;
#N canvas 269 168 750 472 amp-envelope 0;
#X obj 128 85 inlet velocity;
#X obj 197 197 r \$3-add-\$1-r;
#X obj 128 106 sel 0, f 44;
#X obj 389 252 f;
#X obj 389 219 del, f 8;
#X msg 487 160 stop;
#X obj 615 419 switch~;
#X obj 416 299 outlet start-bang;
#X obj 128 435 outlet~ amp-envelope;
#X msg 128 157 0;
#X obj 128 298 pack 0 0;
#X obj 173 241 *, f 9;
#X obj 197 218 t b a;
#X obj 128 378 vline~;
#X obj 173 262 t a a;
#X obj 128 127 t b b, f 27;
#X obj 287 291 del, f 8;
#X msg 314 264 stop;
#X obj 287 240 t b b;
#X msg 615 274 1, f 5;
#X msg 287 312 0;
#N canvas 437 142 598 351 ads 0;
#X obj 77 204 pack 0 0 0 0, f 54;
#X obj 184 129 *, f 9;
#X obj 208 106 t b a;
#X obj 208 84 r \$3-add-\$1-a;
#X obj 291 162 *, f 9;
#X obj 315 139 t b a;
#X obj 315 117 r \$3-add-\$1-d;
#X obj 405 157 *, f 9;
#X obj 429 121 t b a;
#X obj 429 100 r \$3-add-\$1-s;
#X obj 77 27 inlet vel;
#X msg 77 225 \$1 \$2 \, \$4 \$3 \$2;
#X obj 77 246 outlet;
#X obj 77 78 sqrt;
#X obj 77 99 sqrt;
#X obj 77 48 / 127;
#X obj 184 61 r \$3-add-att;
#X obj 291 94 r \$3-add-dec;
#X obj 405 76 r \$3-add-sus;
#X connect 0 0 11 0;
#X connect 1 0 0 1;
#X connect 2 0 1 0;
#X connect 2 1 1 1;
#X connect 3 0 2 0;
#X connect 4 0 0 2;
#X connect 5 0 4 0;
#X connect 5 1 4 1;
#X connect 6 0 5 0;
#X connect 7 0 0 3;
#X connect 8 0 7 0;
#X connect 8 1 7 1;
#X connect 9 0 8 0;
#X connect 10 0 15 0;
#X connect 11 0 12 0;
#X connect 13 0 14 0;
#X connect 14 0 0 0;
#X connect 15 0 13 0;
#X connect 16 0 1 0;
#X connect 17 0 4 0;
#X connect 18 0 7 0;
#X restore 389 324 pd ads;
#X obj 128 409 pow~ 2;
#X obj 434 195 r \$3-add-\$1-del;
#X obj 173 173 r \$3-add-rel;
#X obj 389 132 t b a b, f 17;
#X obj 389 273 t a b b b, f 13;
#X floatatom 203 287 5 0 0 0 - - -;
#X connect 0 0 2 0;
#X connect 1 0 12 0;
#X connect 2 0 15 0;
#X connect 2 1 25 0;
#X connect 3 0 26 0;
#X connect 4 0 3 0;
#X connect 5 0 4 0;
#X connect 9 0 10 0;
#X connect 10 0 13 0;
#X connect 11 0 14 0;
#X connect 12 0 11 0;
#X connect 12 1 11 1;
#X connect 13 0 22 0;
#X connect 14 0 10 1;
#X connect 14 1 16 1;
#X connect 14 1 27 0;
#X connect 15 0 9 0;
#X connect 15 1 18 0;
#X connect 16 0 20 0;
#X connect 17 0 16 0;
#X connect 18 0 16 0;
#X connect 18 1 17 0;
#X connect 19 0 6 0;
#X connect 20 0 6 0;
#X connect 21 0 13 0;
#X connect 22 0 8 0;
#X connect 23 0 4 1;
#X connect 24 0 11 0;
#X connect 25 0 4 0;
#X connect 25 1 3 1;
#X connect 25 2 5 0;
#X connect 26 0 21 0;
#X connect 26 1 7 0;
#X connect 26 2 19 0;
#X connect 26 3 17 0;
#X restore 386 38 pd amp-envelope;
#N canvas 0 23 450 300 clickless-phase 0;
#X obj 37 95 snapshot~;
#X obj 37 34 inlet~;
#X obj 143 35 inlet bang;
#X obj 37 239 vline~;
#X msg 37 214 \$1 3;
#X obj 124 86 r \$3-add-\$1-osc-phase;
#X obj 38 279 outlet~;
#X obj 37 161 -;
#X connect 0 0 7 0;
#X connect 1 0 0 0;
#X connect 2 0 0 0;
#X connect 3 0 6 0;
#X connect 4 0 3 0;
#X connect 5 0 7 1;
#X connect 7 0 4 0;
#X restore 56 266 pd clickless-phase;
#X obj 41 238 phasor~;
#X obj 41 340 cos~;
#X obj 41 315 wrap~;
#X obj 41 289 -~;
#X obj 41 445 /~;
#X obj 56 393 r \$3-add-\$1-peak;
#X obj 165 3 inlet dummy;
#X obj 41 475 *~, f 11;
#X obj 56 414 t a a;
#X obj 473 64 t b b;
#X obj 221 161 r \$3-add-\$1-fLFO-depth;
#X connect 0 0 24 0;
#X connect 2 0 0 0;
#X connect 4 0 28 0;
#X connect 5 0 14 0;
#X connect 5 1 13 0;
#X connect 6 0 0 1;
#X connect 10 0 18 0;
#X connect 11 0 2 1;
#X connect 12 0 5 1;
#X connect 15 0 31 1;
#X connect 16 0 19 0;
#X connect 17 0 16 1;
#X connect 18 0 16 0;
#X connect 19 0 2 0;
#X connect 20 0 6 0;
#X connect 21 0 22 0;
#X connect 22 0 4 1;
#X connect 22 1 33 0;
#X connect 23 0 27 1;
#X connect 24 0 23 0;
#X connect 24 0 27 0;
#X connect 25 0 4 0;
#X connect 26 0 25 0;
#X connect 27 0 26 0;
#X connect 28 0 31 0;
#X connect 29 0 32 0;
#X connect 31 0 5 0;
#X connect 32 0 28 1;
#X connect 32 1 15 0;
#X connect 33 0 23 1;
#X connect 33 1 20 0;
#X connect 34 0 6 1;
