#N canvas 97 248 778 520 10;
#X obj 63 21 inlet note;
#X obj 63 83 - 1;
#X obj 63 104 pack 0 0 0, f 11;
#N canvas 166 316 272 285 presets 0;
#N canvas 0 145 1030 614 envelop-presets 0;
#X msg 214 488 \; \$3-add-\$2-a \$1;
#X msg 374 463 \; \$3-add-\$2-d \$1;
#X msg 543 463 \; \$3-add-\$2-s \$1;
#X msg 706 468 \; \$3-add-\$2-r \$1;
#X msg 58 426 \; \$3-add-\$2-del \$1;
#X obj 58 390 pack 0 0 \$1, f 16;
#X obj 58 295 count 12;
#X obj 58 248 r \$1-load-presets;
#X obj 214 460 pack 0 0 \$1, f 16;
#X obj 214 275 count 12;
#X obj 214 228 r \$1-load-presets;
#X obj 376 432 pack 0 0 \$1;
#X obj 376 294 count 12;
#X obj 376 267 r \$1-load-presets;
#X obj 543 433 pack 0 0 \$1;
#X obj 543 265 count 12;
#X obj 543 238 r \$1-load-presets;
#X obj 706 437 pack 0 0 \$1, f 16;
#X obj 706 262 count 12, f 12;
#X obj 724 237 bng 15 250 50 0 empty empty empty 17 7 0 10 -262144
-1 -1;
#X obj 706 215 r \$1-load-presets;
#X obj 235 254 bng 15 250 50 0 empty empty empty 17 7 0 10 -262144
-1 -1;
#X obj 637 288 bng 15 250 50 0 empty empty empty 17 7 0 10 -262144
-1 -1;
#X obj 376 397 clip 0 1;
#X obj 543 407 clip 0 1;
#X obj 706 406 clip 0 1;
#X msg 706 292 12 \$1;
#X obj 706 313 -;
#X obj 706 334 / 12;
#X obj 376 315 / 12;
#X obj 376 336 + 0.1;
#X msg 212 307 12 \$1;
#X obj 212 328 -;
#X obj 212 349 / 12;
#X msg 543 305 1;
#X connect 5 0 4 0;
#X connect 6 0 5 0;
#X connect 6 1 5 1;
#X connect 7 0 6 0;
#X connect 8 0 0 0;
#X connect 9 0 31 0;
#X connect 9 1 8 1;
#X connect 10 0 9 0;
#X connect 11 0 1 0;
#X connect 12 0 29 0;
#X connect 12 1 11 1;
#X connect 13 0 12 0;
#X connect 14 0 2 0;
#X connect 15 0 34 0;
#X connect 15 1 14 1;
#X connect 16 0 15 0;
#X connect 17 0 3 0;
#X connect 18 0 26 0;
#X connect 18 1 17 1;
#X connect 19 0 18 0;
#X connect 20 0 18 0;
#X connect 21 0 9 0;
#X connect 22 0 15 0;
#X connect 23 0 11 0;
#X connect 24 0 14 0;
#X connect 25 0 17 0;
#X connect 26 0 27 0;
#X connect 27 0 28 0;
#X connect 28 0 25 0;
#X connect 29 0 30 0;
#X connect 30 0 23 0;
#X connect 31 0 32 0;
#X connect 32 0 33 0;
#X connect 33 0 8 0;
#X connect 34 0 24 0;
#X restore 82 112 pd envelop-presets;
#N canvas 130 189 1046 544 frequency-LFO 0;
#X obj 37 279 pack 0 0 \$1;
#X obj 36 158 count 12;
#X obj 36 111 r \$1-load-presets;
#X obj 36 179 / 12;
#X obj 36 220 pow 8;
#X obj 55 134 bng 15 250 50 0 empty empty empty 17 7 0 10 -262144 -1
-1;
#X obj 36 200 * 3;
#X msg 38 304 \; \$3-add-\$2-f-depth \$1;
#X obj 183 243 pack 0 0 \$1, f 16;
#X obj 183 148 count 12;
#X obj 183 101 r \$1-load-presets;
#X obj 339 313 pack 0 0 \$1, f 16;
#X obj 339 128 count 12;
#X obj 339 81 r \$1-load-presets;
#X obj 501 285 pack 0 0 \$1;
#X obj 501 147 count 12;
#X obj 501 120 r \$1-load-presets;
#X obj 668 286 pack 0 0 \$1;
#X obj 668 118 count 12;
#X obj 668 91 r \$1-load-presets;
#X obj 831 290 pack 0 0 \$1, f 16;
#X obj 831 115 count 12, f 12;
#X obj 849 90 bng 15 250 50 0 empty empty empty 17 7 0 10 -262144 -1
-1;
#X obj 831 68 r \$1-load-presets;
#X obj 360 107 bng 15 250 50 0 empty empty empty 17 7 0 10 -262144
-1 -1;
#X obj 762 141 bng 15 250 50 0 empty empty empty 17 7 0 10 -262144
-1 -1;
#X obj 501 250 clip 0 1;
#X obj 668 260 clip 0 1;
#X obj 831 259 clip 0 1;
#X msg 831 145 12 \$1;
#X obj 831 166 -;
#X obj 831 187 / 12;
#X obj 501 168 / 12;
#X obj 501 189 + 0.1;
#X msg 337 160 12 \$1;
#X obj 337 181 -;
#X obj 337 202 / 12;
#X msg 668 158 1;
#X msg 184 279 \; \$3-add-\$2-f-del \$1;
#X msg 339 341 \; \$3-add-\$2-f-a \$1;
#X msg 500 316 \; \$3-add-\$2-f-d \$1;
#X msg 669 316 \; \$3-add-\$2-f-s \$1;
#X msg 831 321 \; \$3-add-\$2-f-r \$1;
#X connect 0 0 7 0;
#X connect 1 0 3 0;
#X connect 1 1 0 1;
#X connect 2 0 1 0;
#X connect 3 0 6 0;
#X connect 4 0 0 0;
#X connect 5 0 1 0;
#X connect 6 0 4 0;
#X connect 8 0 38 0;
#X connect 9 0 8 0;
#X connect 9 1 8 1;
#X connect 10 0 9 0;
#X connect 11 0 39 0;
#X connect 12 0 34 0;
#X connect 12 1 11 1;
#X connect 13 0 12 0;
#X connect 14 0 40 0;
#X connect 15 0 32 0;
#X connect 15 1 14 1;
#X connect 16 0 15 0;
#X connect 17 0 41 0;
#X connect 18 0 37 0;
#X connect 18 1 17 1;
#X connect 19 0 18 0;
#X connect 20 0 42 0;
#X connect 21 0 29 0;
#X connect 21 1 20 1;
#X connect 22 0 21 0;
#X connect 23 0 21 0;
#X connect 24 0 12 0;
#X connect 25 0 18 0;
#X connect 26 0 14 0;
#X connect 27 0 17 0;
#X connect 28 0 20 0;
#X connect 29 0 30 0;
#X connect 30 0 31 0;
#X connect 31 0 28 0;
#X connect 32 0 33 0;
#X connect 33 0 26 0;
#X connect 34 0 35 0;
#X connect 35 0 36 0;
#X connect 36 0 11 0;
#X connect 37 0 27 0;
#X restore 84 164 pd frequency-LFO;
#N canvas 575 268 865 484 oscillator 0;
#X obj 418 228 pack 0 0 \$1;
#X msg 418 263 \; \$3-add-\$2-osc-phase \$1;
#X obj 588 365 pack 0 0 \$1, f 20;
#X msg 588 400 \; \$3-add-\$2-pan \$1;
#X obj 418 137 count 12;
#X obj 588 134 count 12;
#X obj 418 84 r \$1-load-presets;
#X obj 588 82 r \$1-load-presets;
#X obj 418 158 / 12;
#X obj 196 153 text define \$1-osc-list;
#X obj 169 38 r \$1-load-presets;
#X msg 196 105 read osc-list.txt;
#X msg 217 127 write osc-list.txt;
#X obj 169 59 t b b;
#X obj 63 181 r add-\$1-waveform;
#X obj 63 229 f;
#X obj 63 256 text get \$1-osc-list;
#X obj 63 288 s \$1-add-displace;
#X obj 235 348 pack 0 0 \$1;
#X obj 235 257 count 12;
#X obj 235 204 r \$1-load-presets;
#X msg 235 383 \; \$3-add-\$2-peak \$1;
#X obj 235 278 + 1;
#X obj 607 104 bng 15 250 50 0 empty empty empty 17 7 0 10 -262144
-1 -1;
#X obj 731 141 / 12;
#X obj 731 162 * 360;
#X obj 731 183 / 360;
#X obj 731 234 sin;
#X obj 731 207 * 6.28319;
#X obj 731 255 * 0.5;
#X obj 731 276 + 0.5;
#X obj 588 155 t b;
#X msg 588 176 0.5;
#X connect 0 0 1 0;
#X connect 2 0 3 0;
#X connect 4 0 8 0;
#X connect 4 1 0 1;
#X connect 5 0 31 0;
#X connect 5 1 2 1;
#X connect 6 0 4 0;
#X connect 7 0 5 0;
#X connect 8 0 0 0;
#X connect 10 0 13 0;
#X connect 11 0 9 0;
#X connect 12 0 9 0;
#X connect 13 0 15 0;
#X connect 13 1 11 0;
#X connect 14 0 15 0;
#X connect 15 0 16 0;
#X connect 16 0 17 0;
#X connect 18 0 21 0;
#X connect 19 0 22 0;
#X connect 19 1 18 1;
#X connect 20 0 19 0;
#X connect 22 0 18 0;
#X connect 23 0 5 0;
#X connect 24 0 25 0;
#X connect 25 0 26 0;
#X connect 26 0 28 0;
#X connect 27 0 29 0;
#X connect 28 0 27 0;
#X connect 29 0 30 0;
#X connect 31 0 32 0;
#X connect 32 0 2 0;
#X restore 98 72 pd oscillator;
#X restore 274 116 pd presets;
#X obj 61 279 catch~ add-big-busL-\$1;
#X obj 225 279 catch~ add-big-busR-\$1;
#X obj 61 300 outlet~;
#X obj 225 300 outlet~;
#X text 392 19 Arg1: unique number;
#X text 392 39 Arg2: number of partials;
#X text 393 59 Arg3: number of voices;
#X obj 63 62 poly \$3 1, f 11;
#X obj 63 154 clone additive-voice \$3 \$1 \$2;
#N canvas 15 139 1009 598 master-amp-adsr 0;
#X obj 257 335 s \$1-add-att;
#X obj 357 333 s \$1-add-dec;
#X obj 450 334 s \$1-add-sus;
#X obj 554 339 s \$1-add-rel;
#X floatatom 257 270 5 0 0 0 - - -;
#X obj 257 290 max 1;
#X floatatom 357 270 5 0 0 0 - - -;
#X obj 357 290 max 1;
#X floatatom 450 246 5 0 0 0 - - -;
#X obj 450 266 max 0;
#X obj 450 287 min 100;
#X obj 450 308 / 100;
#X floatatom 554 280 5 0 0 0 - - -;
#X obj 554 300 max 1;
#X obj 344 65 r \$1-load-presets;
#X msg 255 236 10;
#X msg 362 222 300;
#X msg 464 196 75;
#X msg 560 244 500;
#X connect 4 0 5 0;
#X connect 5 0 0 0;
#X connect 6 0 7 0;
#X connect 7 0 1 0;
#X connect 8 0 9 0;
#X connect 9 0 10 0;
#X connect 10 0 11 0;
#X connect 11 0 2 0;
#X connect 12 0 13 0;
#X connect 13 0 3 0;
#X connect 14 0 15 0;
#X connect 14 0 16 0;
#X connect 14 0 18 0;
#X connect 14 0 17 0;
#X connect 15 0 4 0;
#X connect 16 0 6 0;
#X connect 17 0 8 0;
#X connect 18 0 12 0;
#X restore 274 147 pd master-amp-adsr;
#N canvas 2 280 1009 598 master-freq-adsr 0;
#X floatatom 257 270 5 0 0 0 - - -;
#X obj 257 290 max 1;
#X floatatom 357 270 5 0 0 0 - - -;
#X obj 357 290 max 1;
#X floatatom 450 246 5 0 0 0 - - -;
#X obj 450 266 max 0;
#X obj 450 287 min 100;
#X obj 450 308 / 100;
#X floatatom 554 280 5 0 0 0 - - -;
#X obj 554 300 max 1;
#X obj 318 130 r \$1-load-presets;
#X obj 257 335 s \$1-add-f-att;
#X obj 357 333 s \$1-add-f-dec;
#X obj 450 334 s \$1-add-f-sus;
#X obj 554 339 s \$1-add-f-rel;
#X msg 271 237 20;
#X msg 362 222 40;
#X msg 464 196 0;
#X msg 560 244 100;
#X connect 0 0 1 0;
#X connect 1 0 11 0;
#X connect 2 0 3 0;
#X connect 3 0 12 0;
#X connect 4 0 5 0;
#X connect 5 0 6 0;
#X connect 6 0 7 0;
#X connect 7 0 13 0;
#X connect 8 0 9 0;
#X connect 9 0 14 0;
#X connect 10 0 15 0;
#X connect 10 0 16 0;
#X connect 10 0 18 0;
#X connect 10 0 17 0;
#X connect 15 0 0 0;
#X connect 16 0 2 0;
#X connect 17 0 4 0;
#X connect 18 0 8 0;
#X restore 275 170 pd master-freq-adsr;
#X obj 568 28 inlet;
#N canvas 113 171 819 481 messages 0;
#X obj 37 37 inlet;
#X obj 368 104 clip 0 50;
#X obj 479 100 clip 0 50;
#X obj 589 102 clip 0 2;
#X obj 37 250 s \$1-add-filter;
#X text 71 209 number of partials;
#X obj 37 207 * \$2;
#X obj 56 154 r \$1-load-presets;
#X msg 56 182 0;
#X obj 37 228 + 1;
#X obj 37 127 clip 0 1;
#X obj 147 107 s add-\$1-waveform;
#X obj 259 196 lop~ 5;
#X obj 258 226 s~ \$1-add-transpose;
#X obj 606 207 s \$1-load-presets;
#X obj 606 184 t b;
#X obj 37 60 route filter wave trans hip lop boost loadbang, f 111
;
#X obj 646 174 bng 15 250 50 0 empty empty empty 17 7 0 10 -262144
-1 -1;
#X obj 479 152 s \$1-lop-sharp;
#X obj 368 181 s \$1-hip-sharp;
#X obj 588 129 s \$1-filter-boost;
#X connect 0 0 16 0;
#X connect 1 0 19 0;
#X connect 2 0 18 0;
#X connect 3 0 20 0;
#X connect 6 0 9 0;
#X connect 7 0 8 0;
#X connect 8 0 6 0;
#X connect 9 0 4 0;
#X connect 10 0 6 0;
#X connect 12 0 13 0;
#X connect 15 0 14 0;
#X connect 16 0 10 0;
#X connect 16 1 11 0;
#X connect 16 2 12 0;
#X connect 16 3 1 0;
#X connect 16 4 2 0;
#X connect 16 5 3 0;
#X connect 16 6 15 0;
#X connect 17 0 15 0;
#X restore 568 51 pd messages;
#X connect 0 0 11 0;
#X connect 1 0 2 0;
#X connect 2 0 12 0;
#X connect 4 0 6 0;
#X connect 5 0 7 0;
#X connect 11 0 1 0;
#X connect 11 1 2 1;
#X connect 11 2 2 2;
#X connect 15 0 16 0;
