#N canvas 178 173 767 483 10;
#N canvas 10 331 1031 521 controls 0;
#X obj 30 13 route a aL d s1 sL1 s2 sL2 r1 rL1 r2 velRelTime velRelVol
noteRelTime noteRelVol, f 111;
#X floatatom 68 144 5 0 0 0 - - -;
#X msg 68 164 a \$1;
#X text 108 144 ms;
#X floatatom 140 144 5 0 0 0 - - -;
#X text 180 144 0-100;
#X msg 140 164 aL \$1;
#X floatatom 228 150 5 0 0 0 - - -;
#X text 268 150 ms;
#X floatatom 300 150 5 0 0 0 - - -;
#X text 340 150 0-100;
#X msg 228 170 d \$1;
#X floatatom 390 148 5 0 0 0 - - -;
#X text 430 148 ms;
#X floatatom 462 148 5 0 0 0 - - -;
#X text 502 148 0-100;
#X msg 390 168 s2 \$1;
#X floatatom 555 146 5 0 0 0 - - -;
#X text 595 146 ms;
#X floatatom 627 146 5 0 0 0 - - -;
#X text 667 146 0-100;
#X msg 555 166 r1 \$1;
#X floatatom 714 147 5 0 0 0 - - -;
#X text 754 147 0-100;
#X msg 715 167 r2 \$1;
#X floatatom 156 280 5 0 0 0 - - -;
#X msg 636 305 velRelTime \$1;
#X floatatom 636 280 5 0 0 0 - - -;
#X floatatom 173 411 5 0 0 0 - - -;
#X floatatom 629 391 5 0 0 0 - - -;
#X msg 156 305 noteRelTime \$1;
#X obj 342 341 outlet;
#X msg 60 94 10;
#X msg 138 104 90;
#X msg 229 110 300;
#X msg 306 104 76;
#X msg 465 110 12;
#X msg 625 108 78;
#X msg 555 111 1000;
#X msg 712 110 1000;
#X msg 638 252 50;
#X msg 664 339 80, f 10;
#X msg 153 253 100;
#X obj 428 54 t b;
#X obj 639 223 t b;
#X obj 747 9 inlet;
#X obj 747 30 t b b;
#X msg 300 170 sL1 \$1;
#X msg 462 168 sL2 \$1;
#X msg 627 166 rL1 \$1;
#X msg 629 416 velRelVol \$1;
#X msg 173 436 noteRelVol \$1;
#X msg 206 386 0;
#X msg 393 114 100;
#X connect 1 0 2 0;
#X connect 2 0 31 0;
#X connect 4 0 6 0;
#X connect 6 0 31 0;
#X connect 7 0 11 0;
#X connect 9 0 47 0;
#X connect 11 0 31 0;
#X connect 12 0 16 0;
#X connect 14 0 48 0;
#X connect 16 0 31 0;
#X connect 17 0 21 0;
#X connect 19 0 49 0;
#X connect 21 0 31 0;
#X connect 22 0 24 0;
#X connect 24 0 31 0;
#X connect 25 0 30 0;
#X connect 26 0 31 0;
#X connect 27 0 26 0;
#X connect 28 0 51 0;
#X connect 29 0 50 0;
#X connect 30 0 31 0;
#X connect 32 0 1 0;
#X connect 33 0 4 0;
#X connect 34 0 7 0;
#X connect 35 0 9 0;
#X connect 36 0 14 0;
#X connect 37 0 19 0;
#X connect 38 0 17 0;
#X connect 39 0 22 0;
#X connect 40 0 27 0;
#X connect 41 0 29 0;
#X connect 42 0 25 0;
#X connect 43 0 32 0;
#X connect 43 0 33 0;
#X connect 43 0 34 0;
#X connect 43 0 35 0;
#X connect 43 0 53 0;
#X connect 43 0 39 0;
#X connect 43 0 38 0;
#X connect 43 0 37 0;
#X connect 43 0 36 0;
#X connect 44 0 40 0;
#X connect 44 0 41 0;
#X connect 44 0 42 0;
#X connect 44 0 52 0;
#X connect 45 0 46 0;
#X connect 46 0 43 0;
#X connect 46 1 44 0;
#X connect 47 0 31 0;
#X connect 48 0 31 0;
#X connect 49 0 31 0;
#X connect 50 0 31 0;
#X connect 51 0 31 0;
#X connect 52 0 28 0;
#X connect 53 0 12 0;
#X restore 382 242 pd controls;
#X obj 382 216 bng 15 250 50 0 empty empty empty 17 7 0 10 -262144
-1 -1;
#X obj 307 271 complx-adsr 4;
#X obj 307 407 dac~ 1 2;
#X obj 440 345 hsl 128 15 0 127 0 0 empty empty empty -2 -8 0 10 -262144
-1 -1 0 1;
#X obj 437 365 / 127;
#X obj 437 386 pow 2;
#X obj 437 407 lop~ 5;
#X obj 307 345 *~;
#X obj 307 178 makenote 100 1000;
#X obj 307 52 bng 15 250 50 0 empty empty empty 17 7 0 10 -262144 -1
-1;
#X obj 307 131 f;
#X obj 356 132 f;
#X obj 307 72 t b b;
#X obj 307 217 pack;
#X floatatom 322 97 5 0 0 0 - - -;
#X floatatom 380 101 5 0 0 0 - - -;
#X floatatom 408 144 5 0 0 0 - - -;
#X connect 0 0 2 1;
#X connect 1 0 0 0;
#X connect 2 0 8 0;
#X connect 4 0 5 0;
#X connect 5 0 6 0;
#X connect 6 0 7 0;
#X connect 7 0 8 1;
#X connect 8 0 3 0;
#X connect 8 0 3 1;
#X connect 9 0 14 0;
#X connect 9 1 14 1;
#X connect 10 0 13 0;
#X connect 11 0 9 0;
#X connect 12 0 9 1;
#X connect 13 0 11 0;
#X connect 13 1 12 0;
#X connect 14 0 2 0;
#X connect 15 0 11 1;
#X connect 16 0 12 1;
#X connect 17 0 9 2;
