#N canvas 935 216 859 563 10;
#X obj 145 386 vline~;
#X obj 91 24 inlet note.vel;
#X obj 513 38 inlet params;
#X obj 145 458 outlet~;
#N canvas 143 23 833 588 params 1;
#X obj 37 37 inlet;
#X obj 37 58 route a aL d s1 sL1 s2 sL2 r1 rL1 r2 velRelTime velRelVol
noteRelTime noteRelVol, f 111;
#X obj 37 169 s \$0-a;
#X obj 84 146 s \$0-aL;
#X obj 131 119 s \$0-d;
#X obj 227 169 s \$0-sL1;
#X obj 275 146 s \$0-s2;
#X obj 321 119 s \$0-sL2;
#X obj 369 96 s \$0-r1;
#X obj 417 169 s \$0-rL1;
#X obj 465 146 s \$0-r2;
#X obj 511 119 s \$0-velRelTime;
#X obj 557 92 s \$0-velRelVol;
#X obj 626 124 s \$0-noteRelTime;
#X obj 671 97 s \$0-noteRelVol;
#X connect 0 0 1 0;
#X connect 1 0 2 0;
#X connect 1 1 3 0;
#X connect 1 2 4 0;
#X connect 1 4 5 0;
#X connect 1 5 6 0;
#X connect 1 6 7 0;
#X connect 1 7 8 0;
#X connect 1 8 9 0;
#X connect 1 9 10 0;
#X connect 1 10 11 0;
#X connect 1 11 12 0;
#X connect 1 12 13 0;
#X connect 1 13 14 0;
#X restore 513 59 pd params;
#N canvas 8 72 924 659 unpack-the-note 0;
#X obj 37 17 inlet;
#X obj 37 44 unpack 0 0, f 18;
#X obj 142 106 / 127;
#X obj 142 127 sqrt;
#X obj 142 148 t a a, f 29;
#X obj 37 245 / 127;
#X obj 37 337 t a a, f 29;
#N canvas 219 100 923 552 velocity-relative-volume 0;
#X obj 352 11 r \$0-velRelVol;
#X obj 313 135 *, f 7;
#X msg 514 170 100 \$1;
#X obj 514 191 -;
#X obj 499 339 +;
#X obj 313 317 abs;
#X obj 427 120 max 0;
#X msg 313 339 100 \$1;
#X obj 313 360 -;
#X obj 352 64 clip -100 100;
#X obj 352 92 t a a, f 13;
#X obj 313 156 moses 0, f 15;
#X obj 400 186 sel 0, f 9;
#X obj 352 33 t f f, f 24;
#X obj 493 65 moses 0;
#X obj 400 225 list prepend;
#X obj 400 246 list trim;
#X obj 400 269 route 1 2, f 14;
#X obj 493 86 t b;
#X obj 532 87 t b;
#X msg 493 107 1;
#X msg 532 108 2;
#X msg 400 290 0;
#X msg 440 292 0;
#X obj 221 26 inlet;
#X obj 313 421 outlet;
#X floatatom 469 12 5 0 0 0 - - -;
#X connect 0 0 13 0;
#X connect 0 0 26 0;
#X connect 1 0 11 0;
#X connect 2 0 3 0;
#X connect 3 0 4 1;
#X connect 4 0 25 0;
#X connect 5 0 7 0;
#X connect 6 0 2 0;
#X connect 7 0 8 0;
#X connect 8 0 25 0;
#X connect 9 0 10 0;
#X connect 10 0 1 1;
#X connect 10 1 6 0;
#X connect 11 0 5 0;
#X connect 11 1 12 0;
#X connect 12 0 15 0;
#X connect 12 1 4 0;
#X connect 13 0 9 0;
#X connect 13 1 14 0;
#X connect 14 0 18 0;
#X connect 14 1 19 0;
#X connect 15 0 16 0;
#X connect 16 0 17 0;
#X connect 17 0 22 0;
#X connect 17 1 23 0;
#X connect 18 0 20 0;
#X connect 19 0 21 0;
#X connect 20 0 15 1;
#X connect 21 0 15 1;
#X connect 22 0 5 0;
#X connect 23 0 4 0;
#X connect 24 0 1 0;
#X restore 313 177 pd velocity-relative-volume;
#X obj 37 266 sqrt;
#N canvas 517 285 923 552 note-relative-volume 0;
#X obj 313 135 *, f 7;
#X msg 514 170 100 \$1;
#X obj 514 191 -;
#X obj 499 339 +;
#X obj 313 317 abs;
#X obj 427 120 max 0;
#X msg 313 339 100 \$1;
#X obj 313 360 -;
#X obj 352 64 clip -100 100;
#X obj 352 92 t a a, f 13;
#X obj 313 156 moses 0, f 15;
#X obj 400 186 sel 0, f 9;
#X obj 352 33 t f f, f 24;
#X obj 493 65 moses 0;
#X obj 400 225 list prepend;
#X obj 400 246 list trim;
#X obj 400 269 route 1 2, f 14;
#X obj 493 86 t b;
#X obj 532 87 t b;
#X msg 493 107 1;
#X msg 532 108 2;
#X msg 400 290 0;
#X msg 440 292 0;
#X obj 221 26 inlet;
#X obj 313 421 outlet;
#X obj 352 11 r \$0-noteRelVol;
#X connect 0 0 10 0;
#X connect 1 0 2 0;
#X connect 2 0 3 1;
#X connect 3 0 24 0;
#X connect 4 0 6 0;
#X connect 5 0 1 0;
#X connect 6 0 7 0;
#X connect 7 0 24 0;
#X connect 8 0 9 0;
#X connect 9 0 0 1;
#X connect 9 1 5 0;
#X connect 10 0 4 0;
#X connect 10 1 11 0;
#X connect 11 0 14 0;
#X connect 11 1 3 0;
#X connect 12 0 8 0;
#X connect 12 1 13 0;
#X connect 13 0 17 0;
#X connect 13 1 18 0;
#X connect 14 0 15 0;
#X connect 15 0 16 0;
#X connect 16 0 21 0;
#X connect 16 1 22 0;
#X connect 17 0 19 0;
#X connect 18 0 20 0;
#X connect 19 0 14 1;
#X connect 20 0 14 1;
#X connect 21 0 4 0;
#X connect 22 0 3 0;
#X connect 23 0 0 0;
#X connect 25 0 12 0;
#X restore 208 364 pd note-relative-volume;
#X obj 315 498 +, f 29;
#X obj 315 519 / 2;
#X obj 37 442 +, f 29;
#X obj 37 466 / 2;
#X obj 315 580 s master-vel-\$0;
#X obj 37 584 s master-time-\$0;
#N canvas 219 100 923 552 velocity-relative-time 0;
#X obj 313 135 *, f 7;
#X msg 514 170 100 \$1;
#X obj 514 191 -;
#X obj 499 339 +;
#X obj 313 317 abs;
#X obj 427 120 max 0;
#X msg 313 339 100 \$1;
#X obj 313 360 -;
#X obj 352 64 clip -100 100;
#X obj 352 92 t a a, f 13;
#X obj 313 156 moses 0, f 15;
#X obj 400 186 sel 0, f 9;
#X obj 352 33 t f f, f 24;
#X obj 493 65 moses 0;
#X obj 400 225 list prepend;
#X obj 400 246 list trim;
#X obj 400 269 route 1 2, f 14;
#X obj 493 86 t b;
#X obj 532 87 t b;
#X msg 493 107 1;
#X msg 532 108 2;
#X msg 400 290 0;
#X msg 440 292 0;
#X obj 221 26 inlet;
#X obj 352 11 r \$0-velRelTime;
#X obj 313 420 outlet;
#X connect 0 0 10 0;
#X connect 1 0 2 0;
#X connect 2 0 3 1;
#X connect 3 0 25 0;
#X connect 4 0 6 0;
#X connect 5 0 1 0;
#X connect 6 0 7 0;
#X connect 7 0 25 0;
#X connect 8 0 9 0;
#X connect 9 0 0 1;
#X connect 9 1 5 0;
#X connect 10 0 4 0;
#X connect 10 1 11 0;
#X connect 11 0 14 0;
#X connect 11 1 3 0;
#X connect 12 0 8 0;
#X connect 12 1 13 0;
#X connect 13 0 17 0;
#X connect 13 1 18 0;
#X connect 14 0 15 0;
#X connect 15 0 16 0;
#X connect 16 0 21 0;
#X connect 16 1 22 0;
#X connect 17 0 19 0;
#X connect 18 0 20 0;
#X connect 19 0 14 1;
#X connect 20 0 14 1;
#X connect 21 0 4 0;
#X connect 22 0 3 0;
#X connect 23 0 0 0;
#X connect 24 0 12 0;
#X restore 142 178 pd velocity-relative-time;
#N canvas 492 100 923 552 note-relative-time 0;
#X obj 313 135 *, f 7;
#X msg 514 170 100 \$1;
#X obj 514 191 -;
#X obj 499 339 +;
#X obj 313 317 abs;
#X obj 427 120 max 0;
#X msg 313 339 100 \$1;
#X obj 313 360 -;
#X obj 352 64 clip -100 100;
#X obj 352 92 t a a, f 13;
#X obj 313 156 moses 0, f 15;
#X obj 400 186 sel 0, f 9;
#X obj 352 33 t f f, f 24;
#X obj 493 65 moses 0;
#X obj 400 225 list prepend;
#X obj 400 246 list trim;
#X obj 400 269 route 1 2, f 14;
#X obj 493 86 t b;
#X obj 532 87 t b;
#X msg 493 107 1;
#X msg 532 108 2;
#X msg 400 290 0;
#X msg 440 292 0;
#X obj 221 26 inlet;
#X obj 313 421 outlet;
#X obj 352 11 r \$0-noteRelTime;
#X connect 0 0 10 0;
#X connect 1 0 2 0;
#X connect 2 0 3 1;
#X connect 3 0 24 0;
#X connect 4 0 6 0;
#X connect 5 0 1 0;
#X connect 6 0 7 0;
#X connect 7 0 24 0;
#X connect 8 0 9 0;
#X connect 9 0 0 1;
#X connect 9 1 5 0;
#X connect 10 0 4 0;
#X connect 10 1 11 0;
#X connect 11 0 14 0;
#X connect 11 1 3 0;
#X connect 12 0 8 0;
#X connect 12 1 13 0;
#X connect 13 0 17 0;
#X connect 13 1 18 0;
#X connect 14 0 15 0;
#X connect 15 0 16 0;
#X connect 16 0 21 0;
#X connect 16 1 22 0;
#X connect 17 0 19 0;
#X connect 18 0 20 0;
#X connect 19 0 14 1;
#X connect 20 0 14 1;
#X connect 21 0 4 0;
#X connect 22 0 3 0;
#X connect 23 0 0 0;
#X connect 25 0 12 0;
#X restore 37 365 pd note-relative-time;
#X obj 37 511 * 175;
#X obj 37 487 / 100;
#X obj 37 532 + 25;
#X obj 37 553 / 100;
#X obj 315 540 / 100;
#X floatatom 394 529 5 0 0 0 - - -;
#X connect 0 0 1 0;
#X connect 1 0 5 0;
#X connect 1 1 2 0;
#X connect 2 0 3 0;
#X connect 3 0 4 0;
#X connect 4 0 16 0;
#X connect 4 1 7 0;
#X connect 5 0 8 0;
#X connect 6 0 17 0;
#X connect 6 1 9 0;
#X connect 7 0 10 1;
#X connect 8 0 6 0;
#X connect 9 0 10 0;
#X connect 10 0 11 0;
#X connect 10 0 23 0;
#X connect 11 0 22 0;
#X connect 12 0 13 0;
#X connect 13 0 19 0;
#X connect 16 0 12 1;
#X connect 17 0 12 0;
#X connect 18 0 20 0;
#X connect 19 0 18 0;
#X connect 20 0 21 0;
#X connect 21 0 15 0;
#X connect 22 0 14 0;
#X restore 118 85 pd unpack-the-note;
#X obj 145 413 pow~ \$1;
#N canvas 76 188 543 427 envelope-gen 1;
#N canvas 505 294 662 544 attack-decay 0;
#X obj 64 155 r \$0-aL;
#X obj 76 204 r master-vel-\$0;
#X obj 64 256 *, f 7;
#X obj 76 225 t b a;
#X obj 64 176 / 100;
#X obj 210 277 t b a;
#X obj 198 207 r \$0-a;
#X obj 211 256 r master-time-\$0;
#X obj 49 292 f;
#X obj 49 11 inlet bang;
#X obj 49 360 pack 0 0 0 0, f 75;
#X obj 359 269 r master-vel-\$0;
#X obj 347 321 *, f 7;
#X obj 359 290 t b a;
#X obj 347 241 / 100;
#X obj 508 288 t b a;
#X obj 509 267 r master-time-\$0;
#X obj 496 218 r \$0-d;
#X msg 49 381 \$1 \$2 \, \$3 \$4 \$2;
#X obj 49 402 outlet to-vline;
#X obj 49 32 t b b b, f 30;
#X msg 226 57 stop;
#X obj 137 101 del, f 10;
#X obj 337 188 +, f 8;
#X obj 353 150 t b a;
#X obj 386 439 outlet trigger-sustain;
#X obj 347 220 r \$0-sL1;
#X obj 445 26 inlet stop;
#X obj 445 47 t b;
#X obj 198 308 /, f 7;
#X obj 496 319 /, f 7;
#X connect 0 0 4 0;
#X connect 1 0 3 0;
#X connect 2 0 8 1;
#X connect 3 0 2 0;
#X connect 3 1 2 1;
#X connect 4 0 2 0;
#X connect 5 0 29 0;
#X connect 5 1 29 1;
#X connect 6 0 29 0;
#X connect 7 0 5 0;
#X connect 8 0 10 0;
#X connect 9 0 20 0;
#X connect 10 0 18 0;
#X connect 11 0 13 0;
#X connect 12 0 10 2;
#X connect 13 0 12 0;
#X connect 13 1 12 1;
#X connect 14 0 12 0;
#X connect 15 0 30 0;
#X connect 15 1 30 1;
#X connect 16 0 15 0;
#X connect 17 0 30 0;
#X connect 18 0 19 0;
#X connect 20 0 8 0;
#X connect 20 1 22 0;
#X connect 20 2 21 0;
#X connect 21 0 22 0;
#X connect 22 0 25 0;
#X connect 23 0 22 1;
#X connect 24 0 23 0;
#X connect 24 1 23 1;
#X connect 26 0 14 0;
#X connect 27 0 28 0;
#X connect 28 0 21 0;
#X connect 29 0 10 1;
#X connect 29 0 23 0;
#X connect 30 0 10 3;
#X connect 30 0 24 0;
#X restore 154 125 pd attack-decay;
#N canvas 449 238 662 544 sustain 0;
#X obj 48 332 f, f 17;
#X obj 116 229 r master-vel-\$0;
#X obj 103 281 *, f 7;
#X obj 116 250 t b a;
#X obj 103 201 / 100;
#X obj 286 186 t b a;
#X obj 287 165 r master-time-\$0;
#X obj 48 463 outlet to-vline;
#X obj 49 21 inlet bang from attack decay;
#X obj 103 180 r \$0-sL1;
#X obj 510 188 r master-vel-\$0;
#X obj 497 240 *, f 7;
#X obj 510 209 t b a;
#X obj 497 160 / 100;
#X text 213 402 double the time;
#X obj 49 42 t b b b;
#X obj 68 125 del, f 15;
#X obj 300 271 * 2;
#X msg 88 82 stop;
#X obj 68 155 t b b;
#X obj 325 22 inlet stop;
#X obj 325 43 t b;
#X obj 273 217 /, f 7;
#X obj 529 296 + 10;
#X obj 48 365 pack 0 0 0 0, f 75;
#X obj 274 115 r \$0-s2;
#X obj 497 139 r \$0-sL2;
#X msg 48 402 \$1 10 \, \$3 \$2 10 \, \$1 \$2 \$4;
#X obj 274 243 t a a a;
#X connect 0 0 24 0;
#X connect 1 0 3 0;
#X connect 2 0 0 1;
#X connect 3 0 2 0;
#X connect 3 1 2 1;
#X connect 4 0 2 0;
#X connect 5 0 22 0;
#X connect 5 1 22 1;
#X connect 6 0 5 0;
#X connect 8 0 15 0;
#X connect 9 0 4 0;
#X connect 10 0 12 0;
#X connect 11 0 24 2;
#X connect 12 0 11 0;
#X connect 12 1 11 1;
#X connect 13 0 11 0;
#X connect 15 0 0 0;
#X connect 15 1 16 0;
#X connect 15 2 18 0;
#X connect 16 0 19 0;
#X connect 17 0 16 1;
#X connect 18 0 16 0;
#X connect 19 0 0 0;
#X connect 19 1 16 0;
#X connect 20 0 21 0;
#X connect 21 0 18 0;
#X connect 22 0 28 0;
#X connect 23 0 24 3;
#X connect 24 0 27 0;
#X connect 25 0 22 0;
#X connect 26 0 13 0;
#X connect 27 0 7 0;
#X connect 28 0 24 1;
#X connect 28 1 17 0;
#X connect 28 2 23 0;
#X restore 241 193 pd sustain;
#N canvas 196 106 724 568 release 0;
#X obj 286 186 t b a;
#X obj 287 165 r master-time-\$0;
#X obj 48 463 outlet to-vline;
#X obj 48 361 pack 0 0 0, f 75;
#X obj 22 19 inlet;
#X obj 76 186 r master-vel-\$0;
#X obj 63 238 *, f 7;
#X obj 76 207 t b a;
#X obj 63 158 / 100;
#X obj 63 137 r \$0-rL1;
#X obj 48 274 f;
#X obj 449 257 t b a;
#X obj 450 236 r master-time-\$0;
#X obj 436 187 r \$0-r2;
#X msg 48 402 \$1 \$2 \, 0 \$3 \$2;
#X obj 273 116 r \$0-r1;
#X obj 273 217 /, f 7;
#X obj 436 288 /, f 7;
#X connect 0 0 16 0;
#X connect 0 1 16 1;
#X connect 1 0 0 0;
#X connect 3 0 14 0;
#X connect 4 0 10 0;
#X connect 5 0 7 0;
#X connect 6 0 10 1;
#X connect 7 0 6 0;
#X connect 7 1 6 1;
#X connect 8 0 6 0;
#X connect 9 0 8 0;
#X connect 10 0 3 0;
#X connect 11 0 17 0;
#X connect 11 1 17 1;
#X connect 12 0 11 0;
#X connect 13 0 17 0;
#X connect 14 0 2 0;
#X connect 15 0 16 0;
#X connect 16 0 3 1;
#X connect 17 0 3 2;
#X restore 358 200 pd release;
#X obj 154 304 outlet to-vline~;
#X obj 156 72 r \$0-note-on;
#X obj 154 94 t b b;
#X obj 312 66 r \$0-note-off;
#X obj 312 87 t b b b;
#X connect 0 0 3 0;
#X connect 0 1 1 0;
#X connect 1 0 3 0;
#X connect 2 0 3 0;
#X connect 4 0 5 0;
#X connect 5 0 0 0;
#X connect 6 0 7 0;
#X connect 7 0 1 1;
#X connect 7 1 2 0;
#X connect 7 2 0 1;
#X restore 145 350 pd envelope-gen;
#X obj 91 57 t a a;
#X obj 91 118 unpack 0 0;
#X obj 148 144 sel 0;
#X obj 148 205 s \$0-note-off;
#X obj 175 175 s \$0-note-on;
#X connect 0 0 6 0;
#X connect 1 0 8 0;
#X connect 2 0 4 0;
#X connect 6 0 3 0;
#X connect 7 0 0 0;
#X connect 8 0 9 0;
#X connect 8 1 5 0;
#X connect 9 1 10 0;
#X connect 10 0 11 0;
#X connect 10 1 12 0;
