#N canvas 131 104 859 563 10;
#X obj 145 386 vline~;
#X obj 87 41 inlet note.vel;
#X obj 513 38 inlet params;
#X obj 145 458 outlet~;
#N canvas 0 23 833 588 params 0;
#X obj 37 37 inlet;
#X obj 37 58 route a aL d s1 sL1 s2 sL2 r1 rL1 r2 velRelTime velRelVol
noteRelTime noteRelVol, f 111;
#X obj 37 169 s \$0-a;
#X obj 84 146 s \$0-aL;
#X obj 131 119 s \$0-d;
#X obj 179 96 s \$0-s1;
#X obj 227 169 s \$0-sL1;
#X obj 275 146 s \$0-s2;
#X obj 321 119 s \$0-sL2;
#X obj 369 96 s \$0-r1;
#X obj 417 169 s \$0-rL1;
#X obj 465 146 s \$0-r2;
#X obj 511 119 s \$0-velRelTime;
#X obj 557 92 s \$0-velRelVol;
#X obj 626 124 s \$0-noteRelTime;
#X obj 671 97 s \$0-noteRelVol;
#X connect 0 0 1 0;
#X connect 1 0 2 0;
#X connect 1 1 3 0;
#X connect 1 2 4 0;
#X connect 1 3 5 0;
#X connect 1 4 6 0;
#X connect 1 5 7 0;
#X connect 1 6 8 0;
#X connect 1 7 9 0;
#X connect 1 8 10 0;
#X connect 1 9 11 0;
#X connect 1 10 12 0;
#X connect 1 11 13 0;
#X connect 1 12 14 0;
#X connect 1 13 15 0;
#X restore 513 59 pd params;
#N canvas 209 50 924 659 unpack-the-note 1;
#X obj 37 17 inlet;
#X obj 37 44 unpack 0 0, f 18;
#X obj 142 106 / 127;
#X obj 142 127 sqrt;
#X obj 142 148 t a a, f 29;
#X obj 37 165 / 127;
#X obj 37 217 t a a, f 29;
#N canvas 219 100 923 552 velocity-relative-volume 0;
#X obj 352 11 r \$0-velRelVol;
#X obj 313 135 *, f 7;
#X msg 514 170 100 \$1;
#X obj 514 191 -;
#X obj 499 339 +;
#X obj 313 317 abs;
#X obj 427 120 max 0;
#X msg 313 339 100 \$1;
#X obj 313 360 -;
#X obj 352 64 clip -100 100;
#X obj 352 92 t a a, f 13;
#X obj 313 156 moses 0, f 15;
#X obj 400 186 sel 0, f 9;
#X obj 352 33 t f f, f 24;
#X obj 493 65 moses 0;
#X obj 400 225 list prepend;
#X obj 400 246 list trim;
#X obj 400 269 route 1 2, f 14;
#X obj 493 86 t b;
#X obj 532 87 t b;
#X msg 493 107 1;
#X msg 532 108 2;
#X msg 400 290 0;
#X msg 440 292 0;
#X obj 313 421 s \$0-velRelVol-local;
#X obj 221 26 inlet;
#X connect 0 0 13 0;
#X connect 1 0 11 0;
#X connect 2 0 3 0;
#X connect 3 0 4 1;
#X connect 4 0 24 0;
#X connect 5 0 7 0;
#X connect 6 0 2 0;
#X connect 7 0 8 0;
#X connect 8 0 24 0;
#X connect 9 0 10 0;
#X connect 10 0 1 1;
#X connect 10 1 6 0;
#X connect 11 0 5 0;
#X connect 11 1 12 0;
#X connect 12 0 15 0;
#X connect 12 1 4 0;
#X connect 13 0 9 0;
#X connect 13 1 14 0;
#X connect 14 0 18 0;
#X connect 14 1 19 0;
#X connect 15 0 16 0;
#X connect 16 0 17 0;
#X connect 17 0 22 0;
#X connect 17 1 23 0;
#X connect 18 0 20 0;
#X connect 19 0 21 0;
#X connect 20 0 15 1;
#X connect 21 0 15 1;
#X connect 22 0 5 0;
#X connect 23 0 4 0;
#X connect 25 0 1 0;
#X restore 313 177 pd velocity-relative-volume;
#N canvas 219 100 923 552 velocity-relative-time 0;
#X obj 313 135 *, f 7;
#X msg 514 170 100 \$1;
#X obj 514 191 -;
#X obj 499 339 +;
#X obj 313 317 abs;
#X obj 427 120 max 0;
#X msg 313 339 100 \$1;
#X obj 313 360 -;
#X obj 352 64 clip -100 100;
#X obj 352 92 t a a, f 13;
#X obj 313 156 moses 0, f 15;
#X obj 400 186 sel 0, f 9;
#X obj 352 33 t f f, f 24;
#X obj 493 65 moses 0;
#X obj 400 225 list prepend;
#X obj 400 246 list trim;
#X obj 400 269 route 1 2, f 14;
#X obj 493 86 t b;
#X obj 532 87 t b;
#X msg 493 107 1;
#X msg 532 108 2;
#X msg 400 290 0;
#X msg 440 292 0;
#X obj 221 26 inlet;
#X obj 352 11 r \$0-velRelTime;
#X obj 313 421 s \$0-velRelTime-local;
#X connect 0 0 10 0;
#X connect 1 0 2 0;
#X connect 2 0 3 1;
#X connect 3 0 25 0;
#X connect 4 0 6 0;
#X connect 5 0 1 0;
#X connect 6 0 7 0;
#X connect 7 0 25 0;
#X connect 8 0 9 0;
#X connect 9 0 0 1;
#X connect 9 1 5 0;
#X connect 10 0 4 0;
#X connect 10 1 11 0;
#X connect 11 0 14 0;
#X connect 11 1 3 0;
#X connect 12 0 8 0;
#X connect 12 1 13 0;
#X connect 13 0 17 0;
#X connect 13 1 18 0;
#X connect 14 0 15 0;
#X connect 15 0 16 0;
#X connect 16 0 21 0;
#X connect 16 1 22 0;
#X connect 17 0 19 0;
#X connect 18 0 20 0;
#X connect 19 0 14 1;
#X connect 20 0 14 1;
#X connect 21 0 4 0;
#X connect 22 0 3 0;
#X connect 23 0 0 0;
#X connect 24 0 12 0;
#X restore 142 178 pd velocity-relative-time;
#X obj 37 186 sqrt;
#N canvas 219 100 923 552 velocity-relative-time 0;
#X obj 313 135 *, f 7;
#X msg 514 170 100 \$1;
#X obj 514 191 -;
#X obj 499 339 +;
#X obj 313 317 abs;
#X obj 427 120 max 0;
#X msg 313 339 100 \$1;
#X obj 313 360 -;
#X obj 352 64 clip -100 100;
#X obj 352 92 t a a, f 13;
#X obj 313 156 moses 0, f 15;
#X obj 400 186 sel 0, f 9;
#X obj 352 33 t f f, f 24;
#X obj 493 65 moses 0;
#X obj 400 225 list prepend;
#X obj 400 246 list trim;
#X obj 400 269 route 1 2, f 14;
#X obj 493 86 t b;
#X obj 532 87 t b;
#X msg 493 107 1;
#X msg 532 108 2;
#X msg 400 290 0;
#X msg 440 292 0;
#X obj 221 26 inlet;
#X obj 352 11 r \$0-noteRelTime;
#X obj 313 421 s \$0-noteRelTime-local;
#X connect 0 0 10 0;
#X connect 1 0 2 0;
#X connect 2 0 3 1;
#X connect 3 0 25 0;
#X connect 4 0 6 0;
#X connect 5 0 1 0;
#X connect 6 0 7 0;
#X connect 7 0 25 0;
#X connect 8 0 9 0;
#X connect 9 0 0 1;
#X connect 9 1 5 0;
#X connect 10 0 4 0;
#X connect 10 1 11 0;
#X connect 11 0 14 0;
#X connect 11 1 3 0;
#X connect 12 0 8 0;
#X connect 12 1 13 0;
#X connect 13 0 17 0;
#X connect 13 1 18 0;
#X connect 14 0 15 0;
#X connect 15 0 16 0;
#X connect 16 0 21 0;
#X connect 16 1 22 0;
#X connect 17 0 19 0;
#X connect 18 0 20 0;
#X connect 19 0 14 1;
#X connect 20 0 14 1;
#X connect 21 0 4 0;
#X connect 22 0 3 0;
#X connect 23 0 0 0;
#X connect 24 0 12 0;
#X restore 37 245 pd velocity-relative-time;
#N canvas 219 100 923 552 note-relative-volume 0;
#X obj 313 135 *, f 7;
#X msg 514 170 100 \$1;
#X obj 514 191 -;
#X obj 499 339 +;
#X obj 313 317 abs;
#X obj 427 120 max 0;
#X msg 313 339 100 \$1;
#X obj 313 360 -;
#X obj 352 64 clip -100 100;
#X obj 352 92 t a a, f 13;
#X obj 313 156 moses 0, f 15;
#X obj 400 186 sel 0, f 9;
#X obj 352 33 t f f, f 24;
#X obj 493 65 moses 0;
#X obj 400 225 list prepend;
#X obj 400 246 list trim;
#X obj 400 269 route 1 2, f 14;
#X obj 493 86 t b;
#X obj 532 87 t b;
#X msg 493 107 1;
#X msg 532 108 2;
#X msg 400 290 0;
#X msg 440 292 0;
#X obj 221 26 inlet;
#X obj 352 11 r \$0-noteRelVol;
#X obj 313 421 s \$0-noteRelVol-local;
#X connect 0 0 10 0;
#X connect 1 0 2 0;
#X connect 2 0 3 1;
#X connect 3 0 25 0;
#X connect 4 0 6 0;
#X connect 5 0 1 0;
#X connect 6 0 7 0;
#X connect 7 0 25 0;
#X connect 8 0 9 0;
#X connect 9 0 0 1;
#X connect 9 1 5 0;
#X connect 10 0 4 0;
#X connect 10 1 11 0;
#X connect 11 0 14 0;
#X connect 11 1 3 0;
#X connect 12 0 8 0;
#X connect 12 1 13 0;
#X connect 13 0 17 0;
#X connect 13 1 18 0;
#X connect 14 0 15 0;
#X connect 15 0 16 0;
#X connect 16 0 21 0;
#X connect 16 1 22 0;
#X connect 17 0 19 0;
#X connect 18 0 20 0;
#X connect 19 0 14 1;
#X connect 20 0 14 1;
#X connect 21 0 4 0;
#X connect 22 0 3 0;
#X connect 23 0 0 0;
#X connect 24 0 12 0;
#X restore 208 244 pd note-relative-volume;
#X connect 0 0 1 0;
#X connect 1 0 5 0;
#X connect 1 1 2 0;
#X connect 2 0 3 0;
#X connect 3 0 4 0;
#X connect 4 0 8 0;
#X connect 4 1 7 0;
#X connect 5 0 9 0;
#X connect 6 0 10 0;
#X connect 6 1 11 0;
#X connect 9 0 6 0;
#X restore 114 85 pd unpack-the-note;
#X obj 145 407 pow~ \$1;
#X obj 281 415 s \$0-master-vel;
#X obj 87 62 t a a;
#N canvas 0 23 649 521 master-velocity 0;
#X obj 24 15 inlet;
#X obj 24 66 sel 0, f 10;
#X obj 81 225 pow, f 13;
#X obj 156 126 f \$1;
#X obj 156 149 change -1;
#X obj 81 94 t a b;
#X obj 81 145 / 127;
#X msg 156 171 1 \$1;
#X obj 156 192 /;
#X obj 81 267 *, f 27;
#X obj 24 37 unpack 0 0;
#X obj 285 127 r \$0-velRelVol-local;
#X obj 240 96 r \$0-noteRelVol-local;
#X obj 240 210 / 2, f 8;
#X obj 240 186 +, f 8;
#X obj 240 231 / 100;
#X obj 81 301 s \$0-master-vel;
#X connect 0 0 10 0;
#X connect 1 1 5 0;
#X connect 2 0 9 0;
#X connect 3 0 4 0;
#X connect 4 0 7 0;
#X connect 5 0 6 0;
#X connect 5 1 3 0;
#X connect 6 0 2 0;
#X connect 7 0 8 0;
#X connect 8 0 2 1;
#X connect 9 0 16 0;
#X connect 10 1 1 0;
#X connect 11 0 14 1;
#X connect 12 0 14 0;
#X connect 13 0 15 0;
#X connect 14 0 13 0;
#X connect 15 0 9 1;
#X restore 87 119 pd master-velocity;
#X connect 0 0 6 0;
#X connect 1 0 8 0;
#X connect 2 0 4 0;
#X connect 6 0 3 0;
#X connect 8 0 9 0;
#X connect 8 1 5 0;
