#N canvas 290 197 450 300 10;
#X obj 27 175 f, f 8;
#X obj 94 175 + 1;
#X obj 27 129 until;
#X obj 27 96 t a b;
#X msg 72 130 0;
#X obj 27 23 inlet bang;
#X obj 27 66 f \$1;
#X obj 27 196 t a a, f 24;
#X obj 168 226 outlet count;
#X obj 27 226 outlet for algo;
#X connect 0 0 1 0;
#X connect 0 0 7 0;
#X connect 1 0 0 1;
#X connect 2 0 0 0;
#X connect 3 0 2 0;
#X connect 3 1 4 0;
#X connect 4 0 0 1;
#X connect 5 0 6 0;
#X connect 6 0 3 0;
#X connect 7 0 9 0;
#X connect 7 1 8 0;
