#N canvas 97 248 778 520 10;
#X obj 63 21 inlet note;
#X obj 63 83 - 1;
#X obj 63 104 pack 0 0 0, f 11;
#N canvas 166 316 272 285 presets 0;
#N canvas 0 145 1030 614 envelop-presets 0;
#X msg 214 488 \; \$3-add-\$2-a \$1;
#X msg 376 463 \; \$3-add-\$2-d \$1;
#X msg 543 463 \; \$3-add-\$2-s \$1;
#X msg 706 468 \; \$3-add-\$2-r \$1;
#X msg 58 426 \; \$3-add-\$2-del \$1;
#X obj 58 390 pack 0 0 \$1, f 16;
#X obj 58 248 r \$1-load-presets;
#X obj 214 460 pack 0 0 \$1, f 16;
#X obj 214 228 r \$1-load-presets;
#X obj 376 432 pack 0 0 \$1;
#X obj 376 237 r \$1-load-presets;
#X obj 543 433 pack 0 0 \$1;
#X obj 543 238 r \$1-load-presets;
#X obj 706 437 pack 0 0 \$1, f 16;
#X obj 706 215 r \$1-load-presets;
#X obj 543 407 clip 0 1;
#X obj 706 406 clip 0 1;
#X obj 214 364 -;
#X obj 376 328 -;
#X obj 543 347 -;
#X obj 376 397 max 0.01;
#X obj 58 295 count \$2;
#X obj 214 275 count \$2, f 15;
#X obj 376 264 count \$2, f 13;
#X obj 543 265 count \$2;
#X obj 706 262 count \$2, f 12;
#X obj 543 285 pack 0 \$2;
#X msg 543 326 \$2 \$1;
#X obj 706 303 / \$2;
#X obj 376 288 pack 0 \$2;
#X msg 376 309 \$2 \$1;
#X obj 214 323 pack 0 \$2;
#X msg 214 344 \$2 \$1;
#X obj 420 186 bng 15 250 50 0 empty empty empty 17 7 0 10 -262144
-1 -1;
#X msg 706 327 1 \$1;
#X obj 706 347 -;
#X obj 735 238 bng 15 250 50 0 empty empty empty 17 7 0 10 -262144
-1 -1;
#X obj 58 315 t b;
#X msg 58 335 0;
#X obj 253 197 bng 15 250 50 0 empty empty empty 17 7 0 10 -262144
-1 -1;
#X text 321 67 these are 0-1 floating point ranges relative to the
master adsr;
#X obj 214 384 / \$2;
#X obj 376 348 / \$2;
#X obj 543 367 / \$2;
#X connect 5 0 4 0;
#X connect 6 0 21 0;
#X connect 7 0 0 0;
#X connect 8 0 22 0;
#X connect 9 0 1 0;
#X connect 10 0 23 0;
#X connect 11 0 2 0;
#X connect 12 0 24 0;
#X connect 13 0 3 0;
#X connect 14 0 25 0;
#X connect 15 0 11 0;
#X connect 16 0 13 0;
#X connect 17 0 41 0;
#X connect 18 0 42 0;
#X connect 19 0 43 0;
#X connect 20 0 9 0;
#X connect 21 0 37 0;
#X connect 21 1 5 1;
#X connect 22 0 31 0;
#X connect 22 1 7 1;
#X connect 23 0 29 0;
#X connect 23 1 9 1;
#X connect 24 0 26 0;
#X connect 24 1 11 1;
#X connect 25 0 28 0;
#X connect 25 1 13 1;
#X connect 26 0 27 0;
#X connect 27 0 19 0;
#X connect 28 0 34 0;
#X connect 29 0 30 0;
#X connect 30 0 18 0;
#X connect 31 0 32 0;
#X connect 32 0 17 0;
#X connect 33 0 23 0;
#X connect 34 0 35 0;
#X connect 35 0 16 0;
#X connect 36 0 25 0;
#X connect 37 0 38 0;
#X connect 38 0 5 0;
#X connect 39 0 22 0;
#X connect 41 0 7 0;
#X connect 42 0 20 0;
#X connect 43 0 15 0;
#X restore 82 112 pd envelop-presets;
#N canvas 130 189 1046 544 frequency-LFO 0;
#X obj 37 279 pack 0 0 \$1;
#X obj 36 111 r \$1-load-presets;
#X obj 55 134 bng 15 250 50 0 empty empty empty 17 7 0 10 -262144 -1
-1;
#X obj 36 200 * 3;
#X msg 38 304 \; \$3-add-\$2-f-depth \$1;
#X obj 183 243 pack 0 0 \$1, f 16;
#X obj 183 101 r \$1-load-presets;
#X obj 339 313 pack 0 0 \$1, f 16;
#X obj 339 81 r \$1-load-presets;
#X obj 501 285 pack 0 0 \$1;
#X obj 501 120 r \$1-load-presets;
#X obj 668 286 pack 0 0 \$1;
#X obj 668 91 r \$1-load-presets;
#X obj 831 290 pack 0 0 \$1, f 16;
#X obj 849 90 bng 15 250 50 0 empty empty empty 17 7 0 10 -262144 -1
-1;
#X obj 831 68 r \$1-load-presets;
#X obj 360 107 bng 15 250 50 0 empty empty empty 17 7 0 10 -262144
-1 -1;
#X obj 762 141 bng 15 250 50 0 empty empty empty 17 7 0 10 -262144
-1 -1;
#X obj 501 250 clip 0 1;
#X obj 668 260 clip 0 1;
#X obj 831 259 clip 0 1;
#X obj 831 206 -;
#X obj 501 189 + 0.1;
#X msg 668 158 1;
#X msg 184 279 \; \$3-add-\$2-f-del \$1;
#X msg 339 341 \; \$3-add-\$2-f-a \$1;
#X msg 500 316 \; \$3-add-\$2-f-d \$1;
#X msg 669 316 \; \$3-add-\$2-f-s \$1;
#X msg 831 321 \; \$3-add-\$2-f-r \$1;
#X obj 36 221 - 32;
#X obj 501 210 * 20;
#X obj 337 242 / 6;
#X obj 36 157 count \$2;
#X obj 183 147 count \$2;
#X obj 339 128 count \$2;
#X obj 501 147 count \$2;
#X obj 669 118 count \$2;
#X obj 831 114 count \$2, f 12;
#X obj 831 227 / \$2;
#X obj 831 141 pack 0 \$2;
#X msg 831 185 \$2 \$1;
#X obj 501 168 / \$2;
#X obj 339 206 -;
#X obj 339 161 pack 0 \$2;
#X msg 339 185 \$2 \$1;
#X obj 36 179 / \$2;
#X connect 0 0 4 0;
#X connect 1 0 32 0;
#X connect 2 0 32 0;
#X connect 3 0 29 0;
#X connect 5 0 24 0;
#X connect 6 0 33 0;
#X connect 7 0 25 0;
#X connect 8 0 34 0;
#X connect 9 0 26 0;
#X connect 10 0 35 0;
#X connect 11 0 27 0;
#X connect 12 0 36 0;
#X connect 13 0 28 0;
#X connect 14 0 37 0;
#X connect 15 0 37 0;
#X connect 16 0 34 0;
#X connect 16 0 35 0;
#X connect 17 0 36 0;
#X connect 18 0 9 0;
#X connect 19 0 11 0;
#X connect 20 0 13 0;
#X connect 21 0 38 0;
#X connect 22 0 30 0;
#X connect 23 0 19 0;
#X connect 29 0 0 0;
#X connect 30 0 18 0;
#X connect 31 0 7 0;
#X connect 32 0 45 0;
#X connect 32 1 0 1;
#X connect 33 0 5 0;
#X connect 33 1 5 1;
#X connect 34 0 43 0;
#X connect 34 1 7 1;
#X connect 35 0 41 0;
#X connect 35 1 9 1;
#X connect 36 0 23 0;
#X connect 36 1 11 1;
#X connect 37 0 39 0;
#X connect 37 1 13 1;
#X connect 38 0 20 0;
#X connect 39 0 40 0;
#X connect 40 0 21 0;
#X connect 41 0 22 0;
#X connect 42 0 31 0;
#X connect 43 0 44 0;
#X connect 44 0 42 0;
#X connect 45 0 3 0;
#X restore 84 164 pd frequency-LFO;
#N canvas 396 191 865 484 oscillator 0;
#X obj 384 262 pack 0 0 \$1;
#X msg 384 297 \; \$3-add-\$2-osc-phase \$1;
#X obj 588 365 pack 0 0 \$1, f 20;
#X msg 588 400 \; \$3-add-\$2-pan \$1;
#X obj 384 118 r \$1-load-presets;
#X obj 588 82 r \$1-load-presets;
#X obj 196 153 text define \$1-osc-list;
#X obj 169 38 r \$1-load-presets;
#X msg 196 105 read osc-list.txt;
#X msg 217 127 write osc-list.txt;
#X obj 169 59 t b b;
#X obj 63 181 r add-\$1-waveform;
#X obj 63 229 f;
#X obj 63 256 text get \$1-osc-list;
#X obj 63 288 s \$1-add-displace;
#X obj 743 139 / 12;
#X obj 743 160 * 360;
#X obj 743 181 / 360;
#X obj 743 232 sin;
#X obj 743 205 * 6.28319;
#X obj 743 253 * 0.5;
#X obj 743 274 + 0.5;
#X obj 588 155 t b;
#X msg 588 176 0.5;
#X obj 384 170 count \$2;
#X obj 588 134 count \$2;
#X obj 384 192 / \$2;
#X text 157 14 these need to be changed to algofrhtymsss;
#N canvas 58 66 1148 714 algos 0;
#X obj 23 42 inlet;
#X obj 66 199 f;
#X obj 66 124 t a b;
#X obj 66 165 until;
#X obj 99 200 + 1;
#X obj 66 96 f \$2;
#X obj 66 220 list prepend;
#X obj 66 241 list trim;
#X obj 66 262 s gen-alGo;
#N canvas 515 243 450 300 saw 0;
#X obj 8 7 r gen-alGo;
#X obj 8 118 s maKeList;
#X obj 8 28 route 0;
#X connect 0 0 2 0;
#X connect 2 0 1 0;
#X restore 266 22 pd saw;
#N canvas 351 233 781 491 makeList 0;
#X obj 10 14 r maKeList;
#X obj 10 76 list prepend;
#X obj 79 24 r algo-clear;
#X obj 10 97 t a a;
#X obj 79 45 t b;
#X obj 29 208 s algo-Out;
#X obj 56 112 r algo-return-list;
#X obj 29 164 list;
#X obj 29 185 route 69;
#X msg 29 141 69;
#X connect 0 0 1 0;
#X connect 1 0 3 0;
#X connect 2 0 4 0;
#X connect 3 0 7 1;
#X connect 3 1 1 1;
#X connect 4 0 1 1;
#X connect 6 0 9 0;
#X connect 7 0 8 0;
#X connect 8 0 5 0;
#X connect 9 0 7 0;
#X restore 263 266 pd makeList;
#X obj 264 289 r algo-Out;
#X obj 264 330 outlet;
#X obj 325 324 print algo;
#X obj 152 89 s algo-clear;
#X msg 107 165 1;
#X obj 23 288 s algo-return-list;
#X obj 23 63 t b b a b, f 22;
#N canvas 511 130 450 631 odd-saw 0;
#X obj 8 7 r gen-alGo;
#X obj 8 198 s maKeList;
#X obj 35 73 f;
#X obj 68 74 + 1;
#X obj 8 49 t a b;
#X obj 68 103 % 2;
#X obj 8 173 *;
#X msg 68 145 1;
#X msg 98 145 -1;
#X obj 68 124 sel 1 0;
#X obj 8 107 * 2;
#X obj 8 28 route 3;
#X obj 8 128 - 1;
#X connect 0 0 11 0;
#X connect 2 0 3 0;
#X connect 3 0 2 1;
#X connect 3 0 5 0;
#X connect 4 0 10 0;
#X connect 4 1 2 0;
#X connect 5 0 9 0;
#X connect 6 0 1 0;
#X connect 7 0 6 1;
#X connect 8 0 6 1;
#X connect 9 0 7 0;
#X connect 9 1 8 0;
#X connect 10 0 12 0;
#X connect 11 0 4 0;
#X connect 12 0 6 0;
#X restore 268 88 pd odd-saw;
#N canvas 511 130 450 631 even-saw 0;
#X obj 8 7 r gen-alGo;
#X obj 8 198 s maKeList;
#X obj 35 73 f;
#X obj 68 74 + 1;
#X obj 8 49 t a b;
#X obj 68 103 % 2;
#X obj 8 173 *;
#X msg 68 145 1;
#X msg 98 145 -1;
#X obj 68 124 sel 1 0;
#X obj 8 107 * 2;
#X obj 8 28 route 2;
#X connect 0 0 11 0;
#X connect 2 0 3 0;
#X connect 3 0 2 1;
#X connect 3 0 5 0;
#X connect 4 0 10 0;
#X connect 4 1 2 0;
#X connect 5 0 9 0;
#X connect 6 0 1 0;
#X connect 7 0 6 1;
#X connect 8 0 6 1;
#X connect 9 0 7 0;
#X connect 9 1 8 0;
#X connect 10 0 6 0;
#X connect 11 0 4 0;
#X restore 267 63 pd even-saw;
#N canvas 511 130 450 631 negi-saw 0;
#X obj 8 7 r gen-alGo;
#X obj 8 198 s maKeList;
#X obj 35 73 f;
#X obj 68 74 + 1;
#X obj 8 49 t a b;
#X obj 68 103 % 2;
#X obj 8 173 *;
#X obj 68 124 sel 0 1;
#X msg 68 145 1;
#X msg 98 145 -1;
#X obj 8 28 route 1;
#X connect 0 0 10 0;
#X connect 2 0 3 0;
#X connect 3 0 2 1;
#X connect 3 0 5 0;
#X connect 4 0 6 0;
#X connect 4 1 2 0;
#X connect 5 0 7 0;
#X connect 6 0 1 0;
#X connect 7 0 8 0;
#X connect 7 1 9 0;
#X connect 8 0 6 1;
#X connect 9 0 6 1;
#X connect 10 0 4 0;
#X restore 266 42 pd negi-saw;
#X connect 0 0 17 0;
#X connect 1 0 4 0;
#X connect 1 0 6 0;
#X connect 2 0 3 0;
#X connect 2 1 15 0;
#X connect 3 0 1 0;
#X connect 4 0 1 1;
#X connect 5 0 2 0;
#X connect 6 0 7 0;
#X connect 7 0 8 0;
#X connect 11 0 12 0;
#X connect 11 0 13 0;
#X connect 15 0 1 1;
#X connect 17 0 16 0;
#X connect 17 1 5 0;
#X connect 17 2 6 1;
#X connect 17 3 14 0;
#X restore 25 105 pd algos;
#X floatatom 99 92 5 0 0 0 - - -;
#X obj 25 145 text set \$1-osc-list;
#X floatatom 36 70 5 0 0 0 - - -;
#X obj 63 201 change -1;
#X connect 0 0 1 0;
#X connect 2 0 3 0;
#X connect 4 0 24 0;
#X connect 5 0 25 0;
#X connect 7 0 10 0;
#X connect 8 0 6 0;
#X connect 9 0 6 0;
#X connect 10 0 12 0;
#X connect 10 1 8 0;
#X connect 11 0 32 0;
#X connect 12 0 13 0;
#X connect 13 0 14 0;
#X connect 15 0 16 0;
#X connect 16 0 17 0;
#X connect 17 0 19 0;
#X connect 18 0 20 0;
#X connect 19 0 18 0;
#X connect 20 0 21 0;
#X connect 22 0 23 0;
#X connect 23 0 2 0;
#X connect 24 0 26 0;
#X connect 24 1 0 1;
#X connect 25 0 22 0;
#X connect 25 1 2 1;
#X connect 26 0 0 0;
#X connect 28 0 30 0;
#X connect 29 0 30 1;
#X connect 31 0 28 0;
#X connect 32 0 12 0;
#X restore 98 72 pd oscillator;
#X restore 334 116 pd presets;
#X obj 61 279 catch~ add-big-busL-\$1;
#X obj 225 279 catch~ add-big-busR-\$1;
#X obj 61 300 outlet~;
#X obj 225 300 outlet~;
#X text 392 19 Arg1: unique number;
#X text 392 39 Arg2: number of partials;
#X text 393 59 Arg3: number of voices;
#X obj 63 62 poly \$3 1, f 11;
#N canvas 93 235 1009 598 master-amp-adsr 0;
#X obj 257 335 s \$1-add-att;
#X obj 357 333 s \$1-add-dec;
#X obj 450 334 s \$1-add-sus;
#X obj 554 339 s \$1-add-rel;
#X obj 257 290 max 1;
#X obj 357 290 max 1;
#X obj 450 266 max 0;
#X obj 450 287 min 100;
#X obj 450 308 / 100;
#X obj 554 300 max 1;
#X obj 216 143 r \$1-att-control;
#X obj 286 111 r \$1-dec-control;
#X obj 451 215 r \$1-sus-control;
#X obj 531 84 r \$1-rel-control;
#X connect 4 0 0 0;
#X connect 5 0 1 0;
#X connect 6 0 7 0;
#X connect 7 0 8 0;
#X connect 8 0 2 0;
#X connect 9 0 3 0;
#X connect 10 0 4 0;
#X connect 11 0 5 0;
#X connect 12 0 6 0;
#X connect 13 0 9 0;
#X restore 334 148 pd master-amp-adsr;
#X obj 568 28 inlet;
#N canvas 113 171 819 481 messages 0;
#X obj 37 37 inlet;
#X obj 37 250 s \$1-add-filter;
#X text 71 209 number of partials;
#X obj 37 207 * \$2;
#X obj 56 154 r \$1-load-presets;
#X msg 56 182 0;
#X obj 37 228 + 1;
#X obj 37 127 clip 0 1;
#X obj 131 120 s add-\$1-waveform;
#X obj 259 196 lop~ 5;
#X obj 258 226 s~ \$1-add-transpose;
#X obj 606 207 s \$1-load-presets;
#X obj 606 184 t b;
#X obj 37 60 route filter wave trans hip lop boost loadbang, f 111
;
#X obj 415 144 s \$1-lop-sharp;
#X obj 321 165 s \$1-hip-sharp;
#X obj 508 125 s \$1-filter-boost;
#X obj 321 88 clip 0 1;
#X obj 415 84 clip 0 1;
#X obj 508 81 clip 0 1;
#X obj 508 101 * 2;
#X obj 45 310 route att dec sus rel, f 57;
#X obj 43 432 s \$1-att-control;
#X obj 113 400 s \$1-dec-control;
#X obj 175 370 s \$1-sus-control;
#X obj 287 345 s \$1-rel-control;
#X obj 321 108 pow 2;
#X obj 421 103 pow 2;
#X obj 321 128 * 25;
#X obj 421 123 * 25;
#X connect 0 0 13 0;
#X connect 3 0 6 0;
#X connect 4 0 5 0;
#X connect 5 0 3 0;
#X connect 6 0 1 0;
#X connect 7 0 3 0;
#X connect 9 0 10 0;
#X connect 12 0 11 0;
#X connect 13 0 7 0;
#X connect 13 1 8 0;
#X connect 13 2 9 0;
#X connect 13 3 17 0;
#X connect 13 4 18 0;
#X connect 13 5 19 0;
#X connect 13 6 12 0;
#X connect 13 7 21 0;
#X connect 17 0 26 0;
#X connect 18 0 27 0;
#X connect 19 0 20 0;
#X connect 20 0 16 0;
#X connect 21 0 22 0;
#X connect 21 1 23 0;
#X connect 21 2 24 0;
#X connect 21 3 25 0;
#X connect 26 0 28 0;
#X connect 27 0 29 0;
#X connect 28 0 15 0;
#X connect 29 0 14 0;
#X restore 568 51 pd messages;
#X obj 63 154 clone additive-voice \$3 \$1 \$2;
#X connect 0 0 11 0;
#X connect 1 0 2 0;
#X connect 2 0 15 0;
#X connect 4 0 6 0;
#X connect 5 0 7 0;
#X connect 11 0 1 0;
#X connect 11 1 2 1;
#X connect 11 2 2 2;
#X connect 13 0 14 0;
