#N canvas 79 104 803 580 10;
#X obj 219 304 vline~;
#X obj 369 309 vline~;
#X obj 219 493 outlet~;
#X obj 20 26 inlet vel(0-1);
#X obj 20 47 sel 0;
#X obj 275 74 s \$0-rel;
#X obj 66 100 s \$0-vel;
#X obj 188 74 s \$0-ads;
#X msg 434 30 ads clear \, 1 8 4 \, 0.24 0.25 300;
#X obj 47 122 s \$0-ads-bang;
#X obj 20 147 s \$0-rel-bang;
#X text 431 8 examples of messages:;
#N canvas 575 98 825 648 write-ads 0;
#X obj 121 580 outlet;
#X obj 250 577 outlet;
#X obj 271 143 +;
#X obj 232 110 unpack 0 0 0 0;
#X obj 103 52 route clear, f 22;
#X msg 478 164 0;
#X obj 103 73 t b;
#X msg 250 487 clear;
#X obj 122 366 t b b, f 11;
#X msg 185 389 rewind;
#X obj 122 388 f;
#X obj 122 450 until;
#X obj 122 409 max 1;
#X obj 122 430 min 30;
#X obj 314 277 +, f 18;
#X obj 215 199 unpack 0 0 0 0;
#X obj 235 339 pack 0 0 0;
#X obj 451 209 f, f 5;
#X obj 420 209 +;
#X msg 235 381 add \$1 \$2 \$3;
#X obj 314 341 pack;
#X obj 232 80 t a a b, f 61;
#X obj 614 165 f;
#X obj 643 166 + 1;
#X msg 629 142 1;
#X obj 141 31 r \$0-ads;
#X obj 103 102 s \$0-ads-clear;
#X obj 478 135 r \$0-ads-clear;
#X obj 629 121 r \$0-ads-clear;
#X obj 250 456 r \$0-ads-clear;
#X obj 121 534 textfile points-ads;
#X obj 250 534 textfile curve-ads;
#X obj 122 297 r \$0-ads-bang;
#X floatatom 621 219 5 0 0 0 - - -;
#X obj 235 306 expr pow($f1 \, 1/$f2);
#X obj 334 249 t a a;
#X msg 349 486 add \$2 8 \$1;
#X connect 2 0 18 0;
#X connect 3 1 2 0;
#X connect 3 2 2 1;
#X connect 4 0 6 0;
#X connect 4 1 21 0;
#X connect 5 0 18 1;
#X connect 5 0 17 1;
#X connect 5 0 2 1;
#X connect 5 0 14 1;
#X connect 6 0 26 0;
#X connect 7 0 30 0;
#X connect 7 0 31 0;
#X connect 8 0 10 0;
#X connect 8 1 9 0;
#X connect 9 0 30 0;
#X connect 9 0 31 0;
#X connect 10 0 12 0;
#X connect 11 0 30 0;
#X connect 11 0 31 0;
#X connect 12 0 13 0;
#X connect 13 0 11 0;
#X connect 14 0 16 2;
#X connect 14 0 20 0;
#X connect 15 0 34 0;
#X connect 15 1 16 1;
#X connect 15 2 14 0;
#X connect 15 3 35 0;
#X connect 16 0 19 0;
#X connect 17 0 18 1;
#X connect 18 0 17 0;
#X connect 18 0 14 1;
#X connect 19 0 30 0;
#X connect 20 0 36 0;
#X connect 21 0 3 0;
#X connect 21 1 15 0;
#X connect 21 2 22 0;
#X connect 22 0 23 0;
#X connect 22 0 10 1;
#X connect 22 0 33 0;
#X connect 23 0 22 1;
#X connect 24 0 22 1;
#X connect 25 0 4 0;
#X connect 27 0 5 0;
#X connect 28 0 24 0;
#X connect 29 0 7 0;
#X connect 30 0 0 0;
#X connect 31 0 1 0;
#X connect 32 0 8 0;
#X connect 34 0 16 0;
#X connect 35 0 20 1;
#X connect 35 1 34 1;
#X connect 36 0 31 0;
#X restore 218 144 pd write-ads - - - - - - - -;
#N canvas 698 239 969 630 write-r 0;
#X obj 103 31 r \$0-rel;
#X obj 121 580 outlet;
#X obj 250 577 outlet;
#X obj 271 143 +;
#X obj 232 110 unpack 0 0 0 0;
#X obj 103 52 route clear, f 22;
#X msg 446 172 0;
#X obj 103 102 s \$0-r-clear;
#X obj 446 143 r \$0-r-clear;
#X obj 103 73 t b;
#X obj 250 456 r \$0-r-clear;
#X msg 250 487 clear;
#X obj 122 366 t b b, f 11;
#X msg 185 389 rewind;
#X obj 122 388 f;
#X obj 122 450 until;
#X obj 122 409 max 1;
#X obj 122 430 min 30;
#X obj 308 274 +, f 19;
#X obj 235 219 unpack 0 0 0 0, f 17;
#X obj 235 339 pack 0 0 0;
#X obj 419 217 f, f 5;
#X obj 388 217 +;
#X msg 235 381 add \$1 \$2 \$3;
#X obj 314 341 pack;
#X obj 122 297 r \$0-rel-bang;
#X obj 232 80 t a a b, f 62;
#X obj 617 126 r \$0-r-clear;
#X obj 602 170 f;
#X obj 631 171 + 1;
#X msg 617 147 1;
#X obj 121 534 textfile points-rel;
#X obj 250 534 textfile curve-rel;
#X obj 235 306 expr pow($f1 \, 1/$f2);
#X obj 334 249 t a a;
#X msg 350 485 add \$2 8 \$1;
#X connect 0 0 5 0;
#X connect 3 0 22 0;
#X connect 4 1 3 0;
#X connect 4 2 3 1;
#X connect 5 0 9 0;
#X connect 5 1 26 0;
#X connect 6 0 22 1;
#X connect 6 0 21 1;
#X connect 6 0 3 1;
#X connect 6 0 18 1;
#X connect 8 0 6 0;
#X connect 9 0 7 0;
#X connect 10 0 11 0;
#X connect 11 0 31 0;
#X connect 11 0 32 0;
#X connect 12 0 14 0;
#X connect 12 1 13 0;
#X connect 13 0 31 0;
#X connect 13 0 32 0;
#X connect 14 0 16 0;
#X connect 15 0 31 0;
#X connect 15 0 32 0;
#X connect 16 0 17 0;
#X connect 17 0 15 0;
#X connect 18 0 20 2;
#X connect 18 0 24 0;
#X connect 19 0 33 0;
#X connect 19 1 20 1;
#X connect 19 2 18 0;
#X connect 19 3 34 0;
#X connect 20 0 23 0;
#X connect 21 0 22 1;
#X connect 22 0 21 0;
#X connect 22 0 18 1;
#X connect 23 0 31 0;
#X connect 24 0 35 0;
#X connect 25 0 12 0;
#X connect 26 0 4 0;
#X connect 26 1 19 0;
#X connect 26 2 28 0;
#X connect 27 0 30 0;
#X connect 28 0 29 0;
#X connect 28 0 14 1;
#X connect 29 0 28 1;
#X connect 30 0 28 1;
#X connect 31 0 1 0;
#X connect 32 0 2 0;
#X connect 33 0 20 0;
#X connect 34 0 24 1;
#X connect 34 1 33 1;
#X connect 35 0 32 0;
#X restore 238 175 pd write-r - - - -;
#X obj 188 26 inlet ads;
#X obj 275 23 inlet rel;
#X msg 435 53 rel clear \, 0 500 0 0.25 \, 1 500 0 0.25;
#X obj 219 458 *~;
#X obj 234 431 r \$0-vel;
#X obj 47 71 t b f b;
#X obj 219 402 pow~;
#X connect 0 0 20 0;
#X connect 1 0 20 1;
#X connect 3 0 4 0;
#X connect 4 0 10 0;
#X connect 4 1 19 0;
#X connect 12 0 0 0;
#X connect 12 1 1 0;
#X connect 13 0 0 0;
#X connect 13 1 1 0;
#X connect 14 0 7 0;
#X connect 15 0 5 0;
#X connect 17 0 2 0;
#X connect 18 0 17 1;
#X connect 19 0 9 0;
#X connect 19 1 6 0;
#X connect 20 0 17 0;
