#N canvas 0 23 663 429 10;
#X obj 14 215 +~, f 15;
#X obj 14 319 outlet~;
#X obj 33 289 tabsend~ \$0-fb;
#X obj 101 104 *~;
#X obj 116 71 tabreceive~ \$0-fb;
#X obj 101 125 rzero~ -1;
#X obj 101 147 *~ 0.5;
#X obj 14 63 inlet~ phasor;
#X obj 101 42 inlet~ amount;
#X text 135 214 mod and feedback merge;
#X obj 101 188 *~;
#X obj 33 266 *~;
#N canvas 0 23 450 300 tx-wave-7 0;
#X obj 51 188 cos~;
#X obj 51 159 wrap~;
#X obj 51 234 clip~ 0 1;
#X obj 51 209 abs~;
#X obj 126 213 expr~ if($v1 > 0.5 \, 0 \, 1);
#X obj 51 125 *~ 2;
#X obj 51 255 *~, f 13;
#X obj 51 95 +~ 0.125;
#X obj 51 276 outlet~;
#X obj 126 7 inlet~ phasor;
#X connect 0 0 3 0;
#X connect 1 0 0 0;
#X connect 2 0 6 0;
#X connect 3 0 2 0;
#X connect 4 0 6 1;
#X connect 5 0 1 0;
#X connect 6 0 8 0;
#X connect 7 0 5 0;
#X connect 9 0 7 0;
#X connect 9 0 4 0;
#X restore 14 237 pd tx-wave-7;
#X obj 477 247 table \$0-fb 1;
#X obj 477 46 inlet on/off;
#X msg 477 175 set 64 1 1;
#X msg 496 198 set 1 1 1;
#X obj 477 154 sel 0 1;
#X obj 341 214 f;
#X msg 416 183 1;
#X obj 477 225 switch~ 64 1 1;
#X obj 477 88 t f b f;
#X connect 0 0 12 0;
#X connect 3 0 5 0;
#X connect 4 0 3 1;
#X connect 5 0 6 0;
#X connect 6 0 10 0;
#X connect 7 0 0 0;
#X connect 8 0 3 0;
#X connect 10 0 0 1;
#X connect 11 0 2 0;
#X connect 12 0 1 0;
#X connect 12 0 11 0;
#X connect 14 0 21 0;
#X connect 15 0 20 0;
#X connect 16 0 20 0;
#X connect 17 0 15 0;
#X connect 17 1 16 0;
#X connect 18 0 10 1;
#X connect 18 0 11 1;
#X connect 19 0 20 0;
#X connect 21 0 18 0;
#X connect 21 1 19 0;
#X connect 21 2 17 0;
