#N canvas 523 290 798 510 10;
#X declare -path ../fm;
#X obj 20 17 inlet MIDI;
#X obj 24 422 outlet~ L;
#X obj 103 422 outlet~ R;
#X text 384 39 simple FM synth with patchable guts;
#X obj 24 379 catch~ L-\$1;
#X obj 103 380 catch~ R-\$1;
#X text 503 102 arg1: Preset File;
#X text 503 122 arg2: Number of Voices;
#X obj 20 50 poly \$2 1, f 16;
#X obj 20 137 pack 0 0 0, f 16;
#X msg 20 158 \$1 note \$2 \$3;
#X obj 252 25 inlet Messages;
#X obj 252 97 list trim;
#X obj 20 289 clone my-fm-voice \$2 \$1;
#X obj 20 71 - 1;
#X obj 252 52 list prepend mess;
#X obj 253 73 list prepend all;
#X obj 113 82 max 0;
#X obj 114 103 min 127;
#X obj 50 83 max 0;
#X obj 50 103 min 127;
#X obj 462 14 declare -path ../fm;
#X connect 0 0 8 0;
#X connect 4 0 1 0;
#X connect 5 0 2 0;
#X connect 8 0 14 0;
#X connect 8 1 19 0;
#X connect 8 2 17 0;
#X connect 9 0 10 0;
#X connect 10 0 13 0;
#X connect 11 0 15 0;
#X connect 12 0 13 0;
#X connect 14 0 9 0;
#X connect 15 0 16 0;
#X connect 16 0 12 0;
#X connect 17 0 18 0;
#X connect 18 0 9 2;
#X connect 19 0 20 0;
#X connect 20 0 9 1;
