#N canvas 826 418 595 460 10;
#X obj 109 74 inlet~ audio;
#X obj 178 305 *~;
#X obj 110 304 *~;
#X obj 129 274 cos~;
#X obj 265 274 cos~;
#X obj 110 326 outlet~;
#X obj 178 327 outlet~;
#X obj 266 168 *~ 0.25;
#X obj 265 74 inlet~ sig 0-1;
#X text 127 30 audio rate pan a mono signal;
#X obj 180 210 -~ 0.25;
#X connect 0 0 2 0;
#X connect 0 0 1 0;
#X connect 1 0 6 0;
#X connect 2 0 5 0;
#X connect 3 0 2 1;
#X connect 4 0 1 1;
#X connect 7 0 10 0;
#X connect 7 0 4 0;
#X connect 8 0 7 0;
#X connect 10 0 3 0;
