#N canvas 36 204 591 378 10;
#X obj 81 225 cos~;
#X obj 81 196 wrap~;
#X obj 81 271 clip~ 0 1;
#X obj 81 246 abs~;
#X obj 156 250 expr~ if($v1 > 0.5 \, 0 \, 1);
#X obj 81 162 *~ 2;
#X obj 81 292 *~, f 13;
#X obj 81 132 +~ 0.125;
#X obj 81 354 outlet~;
#X obj 360 -15 inlet~ amp;
#X obj 81 318 *~, f 35;
#X obj 81 -14 inlet~ phaz-mod;
#X obj 81 87 +~, f 5;
#X obj 108 64 phasor~;
#X obj 108 9 inlet~ base-freq;
#X obj 108 40 *~, f 25;
#X obj 256 -6 inlet~ mod;
#X connect 0 0 3 0;
#X connect 1 0 0 0;
#X connect 2 0 6 0;
#X connect 3 0 2 0;
#X connect 4 0 6 1;
#X connect 5 0 1 0;
#X connect 6 0 10 0;
#X connect 7 0 5 0;
#X connect 9 0 10 1;
#X connect 10 0 8 0;
#X connect 11 0 12 0;
#X connect 12 0 4 0;
#X connect 12 0 7 0;
#X connect 13 0 12 1;
#X connect 14 0 15 0;
#X connect 15 0 13 0;
#X connect 16 0 15 1;
