#N canvas 448 332 591 378 10;
#X obj 81 225 cos~;
#X obj 81 196 wrap~;
#X obj 81 271 clip~ 0 1;
#X obj 81 246 abs~;
#X obj 156 250 expr~ if($v1 > 0.5 \, 0 \, 1);
#X obj 81 162 *~ 2;
#X obj 81 292 *~, f 13;
#X obj 81 132 +~ 0.125;
#X obj 81 313 outlet~;
#X obj 156 44 inlet~ phasor;
#X connect 0 0 3 0;
#X connect 1 0 0 0;
#X connect 2 0 6 0;
#X connect 3 0 2 0;
#X connect 4 0 6 1;
#X connect 5 0 1 0;
#X connect 6 0 8 0;
#X connect 7 0 5 0;
#X connect 9 0 7 0;
#X connect 9 0 4 0;
