#N canvas 204 164 797 512 10;
#X obj 56 7 inlet list;
#X obj 113 135 vline~;
#X obj 302 201 *~ 0.5;
#X obj 302 222 +~ 0.5;
#X obj 302 292 *~, f 7;
#N canvas 0 23 459 369 phase-osc 0;
#X obj 196 13 inlet reset;
#X obj 196 34 t b;
#X obj 63 91 phasor~;
#X obj 63 225 +~;
#X obj 63 276 wrap~;
#X obj 108 123 snapshot~;
#X msg 108 144 1 \$1;
#X obj 108 165 -;
#X obj 63 301 cos~;
#X obj 63 322 outlet~;
#X obj 108 186 lop~ 100;
#X obj 54 14 inlet~ hz;
#X obj 63 246 +~ 0.5;
#X connect 0 0 1 0;
#X connect 1 0 5 0;
#X connect 2 0 3 0;
#X connect 2 0 5 0;
#X connect 3 0 12 0;
#X connect 4 0 8 0;
#X connect 5 0 6 0;
#X connect 6 0 7 0;
#X connect 7 0 10 0;
#X connect 8 0 9 0;
#X connect 10 0 3 1;
#X connect 11 0 2 0;
#X connect 12 0 4 0;
#X restore 302 182 pd phase-osc;
#X obj 113 380 *~;
#X obj 302 28 inlet hz, f 9;
#X obj 302 64 sig~;
#X obj 302 145 *~, f 7;
#X obj 113 422 outlet~;
#X obj 341 100 *~;
#X obj 387 20 inlet hz-depth;
#X obj 113 63 unpack 0 0 0;
#X obj 113 105 pack 0 0 0, f 12;
#X obj 56 28 route bang;
#X obj 56 49 t b;
#X obj 113 84 expr pow($f1 \, 1/$f2);
#X obj 341 124 pow~ \$1;
#X obj 341 265 pow~ \$1;
#X obj 113 401 pow~ \$1;
#X obj 230 58 f \$1;
#X obj 230 19 loadbang;
#X connect 0 0 15 0;
#X connect 1 0 6 0;
#X connect 1 0 11 0;
#X connect 1 0 19 0;
#X connect 2 0 3 0;
#X connect 3 0 4 0;
#X connect 4 0 6 1;
#X connect 5 0 2 0;
#X connect 6 0 20 0;
#X connect 7 0 8 0;
#X connect 8 0 9 0;
#X connect 9 0 5 0;
#X connect 11 0 18 0;
#X connect 12 0 11 1;
#X connect 13 0 17 0;
#X connect 13 1 14 1;
#X connect 13 2 14 2;
#X connect 14 0 1 0;
#X connect 15 0 16 0;
#X connect 15 1 13 0;
#X connect 16 0 5 1;
#X connect 17 0 14 0;
#X connect 18 0 9 1;
#X connect 19 0 4 1;
#X connect 20 0 10 0;
#X connect 21 0 17 1;
#X connect 22 0 21 0;
