#N canvas 528 304 557 398 10;
#X obj 14 215 +~, f 15;
#X obj 14 237 cos~;
#X obj 14 319 outlet~;
#X obj 91 312 tabsend~ \$0-fb;
#X obj 101 104 *~;
#X obj 444 215 table \$0-fb 1;
#X obj 116 71 tabreceive~ \$0-fb;
#X obj 101 125 rzero~ -1;
#X obj 101 147 *~ 0.5;
#X obj 14 63 inlet~ phasor;
#X obj 101 12 inlet~ amount;
#X obj 444 14 inlet on/off;
#X text 380 18 1 = ON;
#X text 380 31 0 = OFF;
#X text 135 214 mod and feedback merge;
#X msg 444 143 set 64 1 1;
#X msg 463 166 set 1 1 1;
#X obj 444 122 sel 0 1;
#X obj 101 188 *~;
#X obj 33 266 *~;
#X obj 308 182 f;
#X msg 383 151 1;
#X obj 444 193 switch~ 64 1 1;
#X obj 444 56 t f b f;
#X obj 286 9 r \$1-loadbang;
#X obj 286 30 f \$2;
#X connect 0 0 1 0;
#X connect 1 0 2 0;
#X connect 1 0 19 0;
#X connect 4 0 7 0;
#X connect 6 0 4 1;
#X connect 7 0 8 0;
#X connect 8 0 18 0;
#X connect 9 0 0 0;
#X connect 10 0 4 0;
#X connect 11 0 23 0;
#X connect 15 0 22 0;
#X connect 16 0 22 0;
#X connect 17 0 15 0;
#X connect 17 1 16 0;
#X connect 18 0 0 1;
#X connect 19 0 3 0;
#X connect 20 0 19 1;
#X connect 20 0 18 1;
#X connect 21 0 22 0;
#X connect 23 0 20 0;
#X connect 23 1 21 0;
#X connect 23 2 17 0;
#X connect 24 0 25 0;
#X connect 25 0 23 0;
