#N canvas 624 200 798 510 10;
#X declare -path ../fm;
#X obj 20 17 inlet MIDI;
#X obj 24 422 outlet~ L;
#X obj 123 422 outlet~ R;
#X text 384 39 simple FM synth with patchable guts;
#X text 503 102 arg1: Preset File;
#X text 503 122 arg2: Number of Voices;
#X obj 20 50 poly \$2 1, f 16;
#X obj 20 137 pack 0 0 0, f 16;
#X msg 20 158 \$1 note \$2 \$3;
#X obj 252 25 inlet Messages;
#X obj 252 97 list trim;
#X obj 20 71 - 1;
#X obj 252 52 list prepend mess;
#X obj 253 73 list prepend all;
#X obj 113 82 max 0;
#X obj 114 103 min 127;
#X obj 50 83 max 0;
#X obj 50 103 min 127;
#X obj 462 14 declare -path ../fm;
#X obj 123 380 catch~ R-\$1-\$0;
#X obj 24 379 catch~ L-\$1-\$0;
#X obj 20 289 clone my-fm-voice \$2 \$1 \$0;
#X msg 211 220 0 open;
#X obj 625 37 inlet open bang;
#X obj 625 58 t b;
#X connect 0 0 6 0;
#X connect 6 0 11 0;
#X connect 6 1 16 0;
#X connect 6 2 14 0;
#X connect 7 0 8 0;
#X connect 8 0 21 0;
#X connect 9 0 12 0;
#X connect 10 0 21 0;
#X connect 11 0 7 0;
#X connect 12 0 13 0;
#X connect 13 0 10 0;
#X connect 14 0 15 0;
#X connect 15 0 7 2;
#X connect 16 0 17 0;
#X connect 17 0 7 1;
#X connect 19 0 2 0;
#X connect 20 0 1 0;
#X connect 22 0 21 0;
#X connect 23 0 24 0;
#X connect 24 0 22 0;
