#N canvas 0 23 763 569 10;
#X obj 50 297 *~;
#X obj 51 402 outlet~;
#X text 101 468 Basic Oscillator that can easily be phase modulated.
;
#X obj 77 138 *~, f 16;
#X obj 395 392 outlet~;
#X obj 50 324 pan-mono, f 58;
#X obj 19 33 inlet~ Phase-Mod;
#X obj 126 34 inlet~ Base Frequency;
#X obj 263 34 inlet~ Modulation;
#X obj 451 36 inlet~ pan;
#X obj 523 36 inlet~ feeback;
#X obj 379 35 inlet~ amp;
#X obj 77 169 phasor~;
#X obj 50 191 +~, f 5;
#X obj 637 46 inlet feedback 0n/0ff;
#X obj 50 225 feedback-txW-7, f 55;
#X connect 0 0 5 0;
#X connect 3 0 12 0;
#X connect 5 0 1 0;
#X connect 5 1 4 0;
#X connect 6 0 13 0;
#X connect 7 0 3 1;
#X connect 8 0 3 0;
#X connect 9 0 5 1;
#X connect 10 0 15 1;
#X connect 11 0 0 1;
#X connect 12 0 13 1;
#X connect 13 0 15 0;
#X connect 14 0 15 2;
#X connect 15 0 0 0;
