#N canvas 309 59 969 611 10;
#X obj 20 26 inlet vel(0-1);
#X obj 20 47 sel 0;
#X obj 66 134 s \$0-vel;
#X obj 47 71 t b f b;
#X obj 191 26 inlet ad;
#X obj 272 26 inlet s;
#X obj 344 25 inlet r;
#N canvas 0 23 1044 628 write-ad 0;
#X obj 141 31 r \$0-ad;
#X obj 141 52 route clear, f 19;
#X obj 141 73 t b;
#X obj 141 94 s \$0-ad-clear;
#X obj 291 143 +;
#X msg 498 164 0;
#X obj 334 277 +, f 18;
#X obj 236 375 pack 0 0 0, f 17;
#X obj 471 209 f, f 5;
#X obj 440 209 +;
#X obj 615 115 f;
#X obj 644 116 + 1;
#X msg 630 92 1;
#X obj 498 135 r \$0-ad-clear;
#X obj 630 71 r \$0-ad-clear;
#X obj 252 110 unpack 0 0 0;
#X obj 235 199 unpack 0 0 0;
#X obj 695 263 f \$1;
#X obj 121 580 outlet;
#X msg 250 487 clear;
#X msg 165 429 rewind;
#X obj 122 388 f;
#X obj 122 450 until;
#X obj 122 409 max 1;
#X obj 122 430 min 30;
#X obj 122 297 r \$0-ad-bang;
#X msg 236 400 add \$1 \$2 \$3;
#X obj 250 456 r \$0-ad-clear;
#X obj 121 534 textfile points-ad;
#X obj 122 366 t b b b, f 11;
#X obj 346 508 t b b;
#X msg 373 534 stop;
#X obj 346 562 delay, f 11;
#X obj 346 583 s \$0-s-bang;
#X obj 463 425 r \$0-r-bang;
#X obj 252 80 t a a b b, f 61;
#X msg 695 303 1 \$1;
#X obj 695 324 /;
#X obj 236 347 pow, f 77;
#X obj 695 284 change -1;
#X floatatom 580 186 5 0 0 0 - - -;
#X connect 0 0 1 0;
#X connect 1 0 2 0;
#X connect 1 1 35 0;
#X connect 2 0 3 0;
#X connect 4 0 9 0;
#X connect 5 0 9 1;
#X connect 5 0 8 1;
#X connect 5 0 4 1;
#X connect 5 0 6 1;
#X connect 6 0 7 2;
#X connect 7 0 26 0;
#X connect 8 0 9 1;
#X connect 8 0 32 1;
#X connect 9 0 8 0;
#X connect 9 0 6 1;
#X connect 10 0 11 0;
#X connect 10 0 21 1;
#X connect 10 0 40 0;
#X connect 11 0 10 1;
#X connect 12 0 10 1;
#X connect 13 0 5 0;
#X connect 14 0 12 0;
#X connect 15 1 4 0;
#X connect 15 2 4 1;
#X connect 16 0 38 0;
#X connect 16 1 7 1;
#X connect 16 2 6 0;
#X connect 17 0 39 0;
#X connect 19 0 28 0;
#X connect 20 0 28 0;
#X connect 21 0 23 0;
#X connect 22 0 28 0;
#X connect 23 0 24 0;
#X connect 24 0 22 0;
#X connect 25 0 29 0;
#X connect 26 0 28 0;
#X connect 27 0 19 0;
#X connect 28 0 18 0;
#X connect 29 0 21 0;
#X connect 29 1 20 0;
#X connect 29 2 30 0;
#X connect 30 0 32 0;
#X connect 30 1 31 0;
#X connect 31 0 32 0;
#X connect 32 0 33 0;
#X connect 34 0 31 0;
#X connect 35 0 15 0;
#X connect 35 1 16 0;
#X connect 35 2 10 0;
#X connect 35 3 17 0;
#X connect 36 0 37 0;
#X connect 37 0 38 1;
#X connect 38 0 7 0;
#X connect 39 0 36 0;
#X restore 178 148 pd write-ad;
#N canvas 0 23 1044 628 write-s 0;
#X obj 141 32 route clear, f 19;
#X obj 141 53 t b;
#X obj 306 137 +;
#X msg 500 131 0;
#X obj 334 247 +, f 18;
#X obj 235 343 pack 0 0 0;
#X obj 473 176 f, f 5;
#X obj 440 179 +;
#X obj 658 189 f;
#X obj 687 190 + 1;
#X msg 673 166 1;
#X obj 252 110 unpack 0 0 0;
#X obj 235 169 unpack 0 0 0;
#X obj 598 218 f \$1;
#X obj 121 580 outlet;
#X msg 250 487 clear;
#X msg 185 389 rewind;
#X obj 122 388 f;
#X obj 122 450 until;
#X obj 122 409 max 1;
#X obj 122 430 min 30;
#X msg 235 374 add \$1 \$2 \$3;
#X obj 141 11 r \$0-s;
#X obj 141 74 s \$0-s-clear;
#X obj 673 145 r \$0-s-clear;
#X obj 500 102 r \$0-s-clear;
#X obj 250 456 r \$0-s-clear;
#X obj 121 534 textfile points-s;
#X obj 122 255 r \$0-s-bang;
#X obj 141 323 r \$0-s-loop;
#X obj 444 567 s \$0-s-loop;
#X obj 444 435 t b b;
#X msg 471 461 stop;
#X obj 444 489 delay, f 11;
#X obj 122 276 t b b, f 13;
#X obj 444 516 spigot 0;
#X msg 387 392 1;
#X obj 545 356 r \$0-r-bang;
#X msg 572 404 0;
#X obj 122 366 t b b b, f 11;
#X obj 235 316 pow, f 61;
#X obj 252 60 t a a b b, f 61;
#X obj 598 239 change -1;
#X msg 598 260 1 \$1;
#X obj 598 281 /;
#X obj 545 377 t b b;
#X obj 328 431 spigot \$2;
#X connect 0 0 1 0;
#X connect 0 1 41 0;
#X connect 1 0 23 0;
#X connect 2 0 7 0;
#X connect 3 0 7 1;
#X connect 3 0 6 1;
#X connect 3 0 2 1;
#X connect 3 0 4 1;
#X connect 4 0 5 2;
#X connect 5 0 21 0;
#X connect 6 0 7 1;
#X connect 6 0 33 1;
#X connect 7 0 6 0;
#X connect 7 0 4 1;
#X connect 8 0 9 0;
#X connect 8 0 17 1;
#X connect 9 0 8 1;
#X connect 10 0 8 1;
#X connect 11 1 2 0;
#X connect 11 2 2 1;
#X connect 12 0 40 0;
#X connect 12 1 5 1;
#X connect 12 2 4 0;
#X connect 13 0 42 0;
#X connect 15 0 27 0;
#X connect 16 0 27 0;
#X connect 17 0 19 0;
#X connect 18 0 27 0;
#X connect 19 0 20 0;
#X connect 20 0 18 0;
#X connect 21 0 27 0;
#X connect 22 0 0 0;
#X connect 24 0 10 0;
#X connect 25 0 3 0;
#X connect 26 0 15 0;
#X connect 27 0 14 0;
#X connect 28 0 34 0;
#X connect 29 0 39 0;
#X connect 31 0 33 0;
#X connect 31 1 32 0;
#X connect 32 0 33 0;
#X connect 33 0 35 0;
#X connect 34 0 39 0;
#X connect 34 1 36 0;
#X connect 35 0 30 0;
#X connect 36 0 35 1;
#X connect 37 0 45 0;
#X connect 38 0 35 1;
#X connect 39 0 17 0;
#X connect 39 1 16 0;
#X connect 39 2 46 0;
#X connect 40 0 5 0;
#X connect 41 0 11 0;
#X connect 41 1 12 0;
#X connect 41 2 8 0;
#X connect 41 3 13 0;
#X connect 42 0 43 0;
#X connect 43 0 44 0;
#X connect 44 0 40 1;
#X connect 45 0 32 0;
#X connect 45 1 38 0;
#X connect 46 0 31 0;
#X restore 222 170 pd write-s;
#N canvas 0 23 1044 628 write-r 0;
#X obj 141 52 route clear, f 19;
#X obj 141 73 t b;
#X obj 291 143 +;
#X msg 498 164 0;
#X obj 334 277 +, f 18;
#X obj 235 373 pack 0 0 0;
#X obj 471 209 f, f 5;
#X obj 440 209 +;
#X obj 615 115 f;
#X obj 644 116 + 1;
#X msg 630 92 1;
#X obj 252 110 unpack 0 0 0;
#X obj 235 200 unpack 0 0 0;
#X obj 121 580 outlet;
#X msg 250 487 clear;
#X obj 122 366 t b b, f 11;
#X msg 185 389 rewind;
#X obj 122 388 f;
#X obj 119 456 until;
#X obj 122 409 max 1;
#X obj 122 430 min 30;
#X msg 235 404 add \$1 \$2 \$3;
#X obj 122 297 r \$0-r-bang;
#X obj 121 534 textfile points-r;
#X obj 250 456 r \$0-r-clear;
#X obj 498 135 r \$0-r-clear;
#X obj 630 71 r \$0-r-clear;
#X obj 141 31 r \$0-r;
#X obj 141 94 s \$0-r-clear;
#X obj 252 80 t a a b b, f 61;
#X obj 598 248 f \$1;
#X obj 235 346 pow, f 61;
#X obj 598 269 change -1;
#X msg 598 290 1 \$1;
#X obj 598 311 /;
#X connect 0 0 1 0;
#X connect 0 1 29 0;
#X connect 1 0 28 0;
#X connect 2 0 7 0;
#X connect 3 0 7 1;
#X connect 3 0 6 1;
#X connect 3 0 2 1;
#X connect 3 0 4 1;
#X connect 4 0 5 2;
#X connect 5 0 21 0;
#X connect 6 0 7 1;
#X connect 7 0 6 0;
#X connect 7 0 4 1;
#X connect 8 0 9 0;
#X connect 8 0 17 1;
#X connect 9 0 8 1;
#X connect 10 0 8 1;
#X connect 11 1 2 0;
#X connect 11 2 2 1;
#X connect 12 0 31 0;
#X connect 12 1 5 1;
#X connect 12 2 4 0;
#X connect 14 0 23 0;
#X connect 15 0 17 0;
#X connect 15 1 16 0;
#X connect 16 0 23 0;
#X connect 17 0 19 0;
#X connect 18 0 23 0;
#X connect 19 0 20 0;
#X connect 20 0 18 0;
#X connect 21 0 23 0;
#X connect 22 0 15 0;
#X connect 23 0 13 0;
#X connect 24 0 14 0;
#X connect 25 0 3 0;
#X connect 26 0 10 0;
#X connect 27 0 0 0;
#X connect 29 0 11 0;
#X connect 29 1 12 0;
#X connect 29 2 8 0;
#X connect 29 3 30 0;
#X connect 30 0 32 0;
#X connect 31 0 5 0;
#X connect 32 0 33 0;
#X connect 33 0 34 0;
#X connect 34 0 31 1;
#X restore 239 191 pd write-r;
#X obj 191 47 s \$0-ad;
#X obj 48 186 s \$0-ad-bang;
#X obj 178 385 vline~;
#X obj 178 406 pow~ \$1;
#X obj 272 47 s \$0-s;
#X obj 344 46 s \$0-r;
#X obj 178 440 outlet~;
#X obj 20 211 s \$0-r-bang;
#X obj 66 107 / 127;
#X obj 178 285 unpack 0 0 0, f 25;
#X obj 178 342 *;
#X obj 178 363 pack 0 0 0, f 25;
#X obj 193 316 r \$0-vel;
#X text 426 130 jeremy's weird envelope thing;
#X text 444 171 arg1: pow~ curve;
#X text 445 191 arg2: sustain loop on/off (default off);
#X connect 0 0 1 0;
#X connect 1 0 17 0;
#X connect 1 1 3 0;
#X connect 3 0 11 0;
#X connect 3 1 18 0;
#X connect 4 0 10 0;
#X connect 5 0 14 0;
#X connect 6 0 15 0;
#X connect 7 0 19 0;
#X connect 8 0 19 0;
#X connect 9 0 19 0;
#X connect 12 0 13 0;
#X connect 13 0 16 0;
#X connect 18 0 2 0;
#X connect 19 0 20 0;
#X connect 19 1 21 1;
#X connect 19 2 21 2;
#X connect 20 0 21 0;
#X connect 21 0 12 0;
#X connect 22 0 20 1;
