#N canvas 737 130 1107 853 10;
#X declare -path cg-pd-library-local/sampling;
#X declare -path cg-pd-library-local/sequencer;
#X declare -path cg-pd-library-local/externals;
#X declare -path cg-pd-library-local/metronome;
#X obj 30 596 throw~ outL;
#X obj 49 574 throw~ outR;
#X obj 79 381 pack 0 0 0, f 11;
#N canvas 4 50 1912 998 knobs 1;
#X obj 782 218 t a a, f 13;
#X obj 857 265 i;
#X obj 55 85 r knob1;
#X obj 107 472 s screenLine1;
#X obj 29 64 r seq3-k1;
#X obj 107 433 cg-knob-mute-sc;
#X obj 194 404 r cgSc-1-mute-print;
#X obj 857 376 cg-knob-mute-sc;
#X obj 944 347 r cgSc-1-mute-print;
#X obj 55 203 t a a, f 10;
#X obj 117 283 * 100;
#X obj 117 304 i;
#X obj 117 325 change -1;
#X obj 857 244 * 100;
#X obj 857 286 change -1;
#X obj 782 239 pow 2;
#X obj 782 438 s phz-depth-2;
#X obj 103 716 s release-time;
#X obj 102 668 loadbang;
#X obj 1115 78 r seq3-k4;
#X obj 1130 98 r knob4;
#X obj 1115 181 cg-knob-scale 0 1 0.0001;
#X obj 1127 123 pow 4;
#X obj 1115 232 t a a;
#X obj 1115 316 i;
#X obj 1115 501 cg-knob-mute-sc;
#X obj 1202 472 r cgSc-1-mute-print;
#X obj 1115 338 * 0.001;
#X obj 1115 295 * 1000;
#X obj 1142 260 s phz-rate-2;
#X obj 1115 569 s screenLine4;
#X obj 323 39 r seq3-k2;
#X obj 337 59 r knob2;
#X obj 764 101 r seq3-k3;
#X obj 782 121 r knob3;
#X obj 857 409 s screenLine3;
#X msg 857 323 3: 2-Depth: \$1%;
#X msg 1115 442 4: 2-Rate: x\$1;
#X msg 105 689 200;
#X obj 781 268 * 1;
#X msg 103 374 1: Rez: \$1%;
#X obj 55 514 s 1-org-rez;
#X obj 403 454 cg-knob-mute-sc;
#X obj 490 425 r cgSc-1-mute-print;
#X obj 351 224 t a a, f 10;
#X obj 413 304 * 100;
#X obj 413 325 i;
#X obj 413 346 change -1;
#X obj 351 535 s 1-org-freq;
#X obj 403 493 s screenLine2;
#X msg 399 395 1: Filter: \$1%;
#X obj 351 290 * 11;
#X obj 27 280 * 100;
#X obj 27 301 i;
#X obj 27 322 swap 100;
#X obj 27 343 -;
#X connect 0 0 15 0;
#X connect 0 1 13 0;
#X connect 1 0 14 0;
#X connect 2 0 9 0;
#X connect 4 0 9 0;
#X connect 5 0 3 0;
#X connect 6 0 5 1;
#X connect 7 0 35 0;
#X connect 8 0 7 1;
#X connect 9 0 52 0;
#X connect 9 1 10 0;
#X connect 10 0 11 0;
#X connect 11 0 12 0;
#X connect 12 0 40 0;
#X connect 13 0 1 0;
#X connect 14 0 36 0;
#X connect 15 0 39 0;
#X connect 18 0 38 0;
#X connect 19 0 22 0;
#X connect 20 0 22 0;
#X connect 21 0 23 0;
#X connect 22 0 21 0;
#X connect 23 0 28 0;
#X connect 23 1 29 0;
#X connect 24 0 27 0;
#X connect 25 0 30 0;
#X connect 26 0 25 1;
#X connect 27 0 37 0;
#X connect 28 0 24 0;
#X connect 31 0 44 0;
#X connect 32 0 44 0;
#X connect 33 0 0 0;
#X connect 34 0 0 0;
#X connect 36 0 7 0;
#X connect 37 0 25 0;
#X connect 38 0 17 0;
#X connect 39 0 16 0;
#X connect 40 0 5 0;
#X connect 42 0 49 0;
#X connect 43 0 42 1;
#X connect 44 0 51 0;
#X connect 44 1 45 0;
#X connect 45 0 46 0;
#X connect 46 0 47 0;
#X connect 47 0 50 0;
#X connect 50 0 42 0;
#X connect 51 0 48 0;
#X connect 52 0 53 0;
#X connect 53 0 54 0;
#X connect 54 0 55 0;
#X connect 54 1 55 1;
#X connect 55 0 41 0;
#X restore 30 126 pd knobs;
#X obj 31 538 catch~ voice-out;
#N canvas 4 50 901 452 load 0;
#X obj 67 34 loadbang;
#X obj 67 55 t b b b b b b;
#X obj 148 99 s load-text-files;
#X obj 133 137 s recall-params;
#X obj 61 280 s seq3-init;
#X obj 95 217 s phasor-init;
#X obj 113 170 s load-waveforms;
#X connect 0 0 1 0;
#X connect 1 0 4 0;
#X connect 1 1 5 0;
#X connect 1 3 6 0;
#X connect 1 4 3 0;
#X connect 1 5 2 0;
#X restore 32 47 pd load;
#X obj 596 69 r aux;
#X obj 713 69 r \$0-reprint-port;
#X obj 695 403 r beat-clock;
#X obj 596 99 cg-shortcut 1 1, f 20;
#N canvas 4 50 1495 708 the-knobs 0;
#X obj 280 211 r knob1;
#X obj 414 205 r knob2;
#X obj 532 208 r knob3;
#X obj 673 208 r knob4;
#X obj 503 439 outlet;
#X obj 221 295 seq-format-event knob1;
#X obj 401 293 seq-format-event knob2;
#X obj 566 292 seq-format-event knob3;
#X obj 747 289 seq-format-event knob4;
#X connect 0 0 5 0;
#X connect 1 0 6 0;
#X connect 2 0 7 0;
#X connect 3 0 8 0;
#X connect 5 0 4 0;
#X connect 6 0 4 0;
#X connect 7 0 4 0;
#X connect 8 0 4 0;
#X restore 614 174 pd the-knobs;
#X obj 596 128 list prepend notes;
#X obj 596 149 list trim;
#N canvas 10 50 1276 866 auto-knobs-notes-through 0;
#X obj 438 185 inlet;
#X obj 852 503 outlet;
#X obj 562 398 s seq3-k3;
#X obj 537 440 s seq3-k2;
#X obj 435 470 s seq3-k1;
#X obj 663 357 s seq3-k4;
#X obj 435 295 route knob1 knob2 knob3 knob4 notes, f 64;
#X connect 0 0 6 0;
#X connect 6 0 4 0;
#X connect 6 1 3 0;
#X connect 6 2 2 0;
#X connect 6 3 5 0;
#X connect 6 4 1 0;
#X restore 596 478 pd auto-knobs-notes-through;
#N canvas 19 51 625 625 metro-here 0;
#X obj 369 147 r seq3-1-actions, f 19;
#X obj 312 345 f;
#X msg 407 250 0;
#X obj 439 250 t b b;
#X msg 445 280 1;
#X obj 312 292 del 1;
#X obj 54 303 s beat-clock;
#X obj 176 83 loadbang;
#X msg 53 121 1;
#X obj 203 353 list, f 7;
#X obj 203 375 route 69;
#X obj 203 281 t b a;
#X msg 203 323 69;
#X msg 176 105 120;
#X obj 177 221 pack, f 10;
#X obj 212 189 t b a;
#X obj 54 151 metronome360 0, f 18;
#X obj 319 117 s seq3-1-quan;
#X obj 400 338 f;
#X obj 203 397 spigot 1;
#X obj 312 367 spigot 1, f 14;
#X obj 296 472 r cgSc-1-slots;
#X obj 296 498 + 1;
#X obj 203 552 print-line5 1, f 16;
#X obj 319 88 r metro-state;
#X obj 486 346 loadbang;
#X obj 296 519 f;
#X obj 486 388 t b b;
#X obj 312 428 f;
#X obj 486 367 del 1;
#X obj 407 179 r cgSc-1-mute-print;
#X obj 407 202 sel 1;
#X connect 0 0 1 0;
#X connect 1 0 20 0;
#X connect 2 0 18 0;
#X connect 3 0 5 0;
#X connect 3 1 4 0;
#X connect 4 0 18 0;
#X connect 5 0 1 0;
#X connect 5 0 12 0;
#X connect 7 0 13 0;
#X connect 7 0 8 0;
#X connect 8 0 16 0;
#X connect 9 0 10 0;
#X connect 10 0 19 0;
#X connect 11 0 12 0;
#X connect 11 1 9 1;
#X connect 12 0 9 0;
#X connect 13 0 16 1;
#X connect 14 0 11 0;
#X connect 15 0 14 0;
#X connect 15 1 14 1;
#X connect 16 0 6 0;
#X connect 16 1 15 0;
#X connect 16 2 14 0;
#X connect 18 0 19 1;
#X connect 18 0 20 1;
#X connect 19 0 23 0;
#X connect 20 0 28 0;
#X connect 21 0 22 0;
#X connect 22 0 26 0;
#X connect 24 0 17 0;
#X connect 25 0 29 0;
#X connect 26 0 23 2;
#X connect 27 0 28 0;
#X connect 27 1 26 0;
#X connect 28 0 23 1;
#X connect 29 0 27 0;
#X connect 30 0 31 0;
#X connect 31 0 2 0;
#X connect 31 1 3 0;
#X restore 894 86 pd metro-here;
#N canvas 787 330 860 595 slot-saver-1 0;
#X obj 167 38 r cgSc-1-slots;
#X obj 30 68 loadbang;
#X msg 30 140 0;
#X obj 30 161 tabread \$0-slot;
#X obj 199 225 array define \$0-slot;
#X obj 30 110 t b b;
#X msg 199 138 read slot.txt;
#X msg 243 186 write slot.txt;
#X obj 243 160 r saveState;
#X obj 167 58 t a b;
#X msg 220 84 0;
#X obj 167 107 tabwrite \$0-slot;
#X obj 30 185 s cgSc-1-slots;
#X connect 0 0 9 0;
#X connect 1 0 5 0;
#X connect 2 0 3 0;
#X connect 3 0 12 0;
#X connect 5 0 2 0;
#X connect 5 1 6 0;
#X connect 6 0 4 0;
#X connect 7 0 4 0;
#X connect 8 0 7 0;
#X connect 9 0 11 0;
#X connect 9 1 10 0;
#X connect 10 0 11 1;
#X restore 894 50 pd slot-saver-1;
#X obj 596 511 s notes-post-sc;
#X obj 909 191 r seq3-1-led;
#X obj 909 212 s led;
#X text 151 540 Sound out;
#X text 81 47 init sequence;
#X text 174 96 critter library of abstractions;
#X obj 79 281 r notes-post-sc;
#N canvas 8 50 1726 759 shortcuts 0;
#X obj 104 99 sel 0;
#X obj 131 121 t b;
#X obj 194 95 sel 0;
#X obj 221 117 t b;
#X obj 285 693 s cgSc-1-8label;
#X obj 104 78 r cgSc-1-8;
#X obj 391 688 s cgSc-1-9label;
#X obj 194 74 r cgSc-1-9;
#X obj 264 477 s transpose;
#X obj 245 351 + 1;
#X obj 131 325 t b a, f 22;
#X msg 131 146 -1;
#X msg 221 137 1;
#X obj 245 372 clip -4 4;
#X obj 131 349 f 0, f 11;
#X msg 323 553 +\$1;
#X obj 323 579 symbol;
#X msg 391 659 OctUp: \$1;
#X msg 285 658 OctDwn: \$1;
#X obj 285 619 t a a;
#X obj 245 506 moses 0;
#X obj 284 527 moses 1;
#X obj 200 223 r recall-params;
#X obj 200 274 text get waves-txt;
#X obj 200 244 f 2;
#X obj 264 453 * 12;
#X obj 245 393 t a a a;
#X obj 284 424 s trans-save;
#X obj 1219 192 sel 0;
#X obj 1219 163 r cgSc-1-10;
#X obj 1246 246 t b;
#X obj 1280 275 + 1;
#X obj 1318 318 t b;
#X obj 1246 276 f 0;
#X obj 1318 339 f 0;
#X obj 1273 401 s vel-scale-save;
#X obj 1326 169 r recall-params;
#X obj 1326 220 text get waves-txt;
#X obj 1326 190 f 3;
#X obj 1402 626 s cgSc-1-10label;
#N canvas 4 50 891 764 save-shortcuts 0;
#X obj 169 192 r saveState;
#X msg 141 166 read waves.txt;
#X msg 169 434 write waves.txt;
#X obj 142 475 text define waves-txt;
#X obj 141 141 r load-text-files;
#X obj 359 469 text set waves-txt;
#X obj 445 319 f;
#X obj 315 317 f;
#X obj 359 428 unpack 0 0;
#X obj 573 319 f;
#X obj 573 340 pack 0 0;
#X obj 445 340 pack 0 1;
#X obj 315 338 pack 0 2;
#X obj 330 289 r trans-save;
#X obj 460 294 r wave-sel-2;
#X obj 589 294 r wave-sel-1;
#X obj 185 220 t b b b b b, f 38;
#X obj 568 248 f;
#X obj 568 269 pack 0 3;
#X obj 584 223 r vel-scale-save;
#X connect 0 0 16 0;
#X connect 1 0 3 0;
#X connect 2 0 3 0;
#X connect 4 0 1 0;
#X connect 6 0 11 0;
#X connect 7 0 12 0;
#X connect 8 0 5 0;
#X connect 8 1 5 1;
#X connect 9 0 10 0;
#X connect 10 0 8 0;
#X connect 11 0 8 0;
#X connect 12 0 8 0;
#X connect 13 0 7 1;
#X connect 14 0 6 1;
#X connect 15 0 9 1;
#X connect 16 0 2 0;
#X connect 16 1 7 0;
#X connect 16 2 6 0;
#X connect 16 3 9 0;
#X connect 16 4 17 0;
#X connect 17 0 18 0;
#X connect 18 0 8 0;
#X connect 19 0 17 1;
#X restore 1316 85 pd save-shortcuts;
#X obj 1246 437 sel 0 1 2 3 4 5, f 50;
#X obj 1246 458 f 0;
#X obj 1246 603 s glob-attack;
#X obj 1297 458 f 50;
#X obj 1345 458 f 100;
#X obj 1394 458 f 250;
#X obj 1446 458 f 500;
#X obj 1495 458 f 1000;
#X obj 1246 537 t f, f 9;
#X obj 1246 367 t f f;
#X msg 1402 597 Att: \$1;
#X obj 1402 559 r glob-attack;
#X obj 1279 295 moses 6;
#X connect 0 1 1 0;
#X connect 1 0 11 0;
#X connect 2 1 3 0;
#X connect 3 0 12 0;
#X connect 5 0 0 0;
#X connect 7 0 2 0;
#X connect 9 0 13 0;
#X connect 10 0 14 0;
#X connect 10 1 9 1;
#X connect 11 0 10 0;
#X connect 12 0 10 0;
#X connect 13 0 14 1;
#X connect 13 0 26 0;
#X connect 14 0 9 0;
#X connect 15 0 16 0;
#X connect 16 0 19 0;
#X connect 17 0 6 0;
#X connect 18 0 4 0;
#X connect 19 0 18 0;
#X connect 19 1 17 0;
#X connect 20 0 19 0;
#X connect 20 1 21 0;
#X connect 21 0 19 0;
#X connect 21 1 15 0;
#X connect 22 0 24 0;
#X connect 23 0 10 0;
#X connect 24 0 23 0;
#X connect 25 0 8 0;
#X connect 26 0 20 0;
#X connect 26 1 25 0;
#X connect 26 2 27 0;
#X connect 28 1 30 0;
#X connect 29 0 28 0;
#X connect 30 0 33 0;
#X connect 31 0 53 0;
#X connect 32 0 34 0;
#X connect 33 0 31 0;
#X connect 33 0 50 0;
#X connect 34 0 33 1;
#X connect 36 0 38 0;
#X connect 37 0 33 0;
#X connect 38 0 37 0;
#X connect 41 0 42 0;
#X connect 41 1 44 0;
#X connect 41 2 45 0;
#X connect 41 3 46 0;
#X connect 41 4 47 0;
#X connect 41 5 48 0;
#X connect 42 0 49 0;
#X connect 44 0 49 0;
#X connect 45 0 49 0;
#X connect 46 0 49 0;
#X connect 47 0 49 0;
#X connect 48 0 49 0;
#X connect 49 0 43 0;
#X connect 50 0 41 0;
#X connect 50 1 35 0;
#X connect 51 0 39 0;
#X connect 52 0 51 0;
#X connect 53 0 33 1;
#X connect 53 1 32 0;
#X restore 29 166 pd shortcuts;
#X obj 79 340 poly 4 1, f 11;
#X obj 596 428 seq3 1 0 ../../sequences 1, f 17;
#X obj 761 249 list prepend slot;
#X obj 761 270 list trim;
#X msg 678 251 init;
#X obj 678 227 r seq3-init;
#X obj 645 196 cg-standard-sc-seq3-control 1;
#X obj 761 227 r cgSc-1-slots;
#X obj 864 274 cg-standard-sc-seq3-print 1 1;
#X obj 502 309 r saveState;
#X msg 502 330 save;
#N canvas 13 50 450 300 cg-pd-library-local 0;
#X obj 502 35 r cgSc-1-slots;
#X obj 60 68 declare -path cg-pd-library-local/sampling;
#X obj 60 98 declare -path cg-pd-library-local/sequencer;
#X obj 58 130 declare -path cg-pd-library-local/externals;
#X obj 59 165 declare -path cg-pd-library-local/metronome;
#X restore 28 96 pd cg-pd-library-local;
#X obj 79 425 clone -s 1 voice 4 1;
#X obj 304 282 cg-loop 12 1;
#X obj 304 233 until;
#X obj 304 191 f 12;
#X obj 304 212 max 1;
#X msg 373 253 setNo 0;
#X obj 304 169 t b b;
#X obj 306 143 bng 15 250 50 0 empty empty empty 17 7 0 10 -262144
-1 -1;
#X obj 304 303 t a a;
#X obj 304 368 + 1;
#X obj 300 545 text define 1-index;
#X obj 361 349 text get 1-index;
#X obj 363 630 text define 1-env-table;
#X obj 540 630 text define 1-env-table-off;
#X msg 359 598 clear;
#X msg 406 580 read env.txt;
#N canvas 4 50 950 672 fill-env-tables 0;
#X obj 91 336 text set 1-env-table;
#X floatatom 130 315 5 0 0 0 - - -;
#X obj 214 188 text define temp;
#X obj 91 270 text tolist temp;
#X msg 214 165 clear;
#X obj 90 125 t b b b b;
#X obj 63 112 bng 15 250 50 0 empty empty empty 17 7 0 10 -262144 -1
-1;
#X obj 107 231 text insert temp;
#X obj 107 181 t a b;
#X obj 127 206 1e+09;
#X floatatom 523 300 5 0 0 0 - - -;
#X msg 607 150 clear;
#X obj 483 110 t b b b b;
#X obj 500 166 t a b;
#X obj 520 191 1e+09;
#X obj 607 173 text define temp2;
#X obj 500 216 text insert temp2;
#X obj 484 255 text tolist temp2;
#X obj 484 321 text set 1-env-table-off;
#X obj 77 56 bng 15 250 50 0 empty empty empty 17 7 0 10 -262144 -1
-1;
#X obj 128 99 t b a;
#X obj 128 78 cg-loop 12 1;
#X msg 107 160 1 8 \, 0.5 200 8;
#X obj 586 72 t b a;
#X obj 586 51 cg-loop 12 1;
#X obj 601 11 bng 15 250 50 0 empty empty empty 17 7 0 10 -262144 -1
-1;
#X msg 500 145 0 100;
#X connect 1 0 0 1;
#X connect 3 0 0 0;
#X connect 4 0 2 0;
#X connect 5 0 3 0;
#X connect 5 1 22 0;
#X connect 5 3 4 0;
#X connect 6 0 5 0;
#X connect 8 0 7 0;
#X connect 8 1 9 0;
#X connect 9 0 7 1;
#X connect 10 0 18 1;
#X connect 11 0 15 0;
#X connect 12 0 17 0;
#X connect 12 1 26 0;
#X connect 12 3 11 0;
#X connect 13 0 16 0;
#X connect 13 1 14 0;
#X connect 14 0 16 1;
#X connect 17 0 18 0;
#X connect 19 0 21 0;
#X connect 20 0 5 0;
#X connect 20 1 1 0;
#X connect 21 0 20 0;
#X connect 22 0 8 0;
#X connect 23 0 12 0;
#X connect 23 1 10 0;
#X connect 24 0 23 0;
#X connect 25 0 24 0;
#X connect 26 0 13 0;
#X restore 860 487 pd fill-env-tables;
#X obj 188 469 r transpose;
#X obj 188 510 s 1-org-transpose;
#X msg 304 457 \; \$1-\$2-index \$3 \$4;
#X obj 304 398 pack 0 1;
#X obj 304 419 list append;
#X msg 372 510 read index1.txt;
#X msg 441 543 write index1.txt;
#X msg 423 594 write env.txt;
#X msg 568 600 write env-off.txt;
#X msg 569 573 read env-off.txt;
#X connect 2 0 36 0;
#X connect 4 0 0 0;
#X connect 4 0 1 0;
#X connect 6 0 9 0;
#X connect 7 0 9 1;
#X connect 8 0 25 2;
#X connect 9 0 11 0;
#X connect 10 0 25 0;
#X connect 11 0 12 0;
#X connect 12 0 25 0;
#X connect 13 0 16 0;
#X connect 17 0 18 0;
#X connect 22 0 24 0;
#X connect 24 0 2 0;
#X connect 24 1 2 1;
#X connect 24 2 2 2;
#X connect 25 0 13 0;
#X connect 26 0 27 0;
#X connect 27 0 25 1;
#X connect 28 0 25 1;
#X connect 29 0 28 0;
#X connect 30 0 25 1;
#X connect 31 0 26 0;
#X connect 33 0 34 0;
#X connect 34 0 25 1;
#X connect 37 0 44 0;
#X connect 38 0 37 0;
#X connect 39 0 40 0;
#X connect 40 0 38 0;
#X connect 41 0 37 1;
#X connect 42 0 39 0;
#X connect 42 1 41 0;
#X connect 43 0 42 0;
#X connect 44 0 45 0;
#X connect 44 1 47 0;
#X connect 45 0 56 0;
#X connect 47 0 57 1;
#X connect 50 0 48 0;
#X connect 51 0 48 0;
#X connect 53 0 54 0;
#X connect 56 0 57 0;
#X connect 57 0 55 0;
#X connect 58 0 46 0;
#X connect 62 0 49 0;
