#N canvas 801 297 669 679 10;
#X text 267 63 Arg2: synth number;
#X text 269 45 Arg2: voice number;
#X text 273 28 Arg1: partial number;
#X obj 48 288 /~, f 26;
#X obj 48 329 *~, f 34;
#X obj 250 262 vline~;
#X obj 250 283 *~;
#X obj 48 580 outlet~;
#X obj 250 304 *~, f 16;
#X obj 343 264 r \$2-\$3-vel;
#X obj 250 104 r \$2-\$3-env;
#X obj 379 117 r \$2-\$3-env-off;
#X obj 133 78 r \$1-\$3-index;
#N canvas 4 50 1194 858 get-lines-env 0;
#X obj 127 325 cg-loop 1000 1;
#X msg 207 303 setNo 0;
#X obj 127 303 max 1;
#X obj 127 282 until;
#X obj 73 243 route bang;
#X obj 131 262 t a b;
#X obj 310 147 text define env-lol-\$0;
#X obj 73 220 text size env-lol-\$0;
#X obj 102 181 text fromlist env-lol-\$0;
#X obj 127 346 text get env-lol-\$0;
#X obj 100 110 f \$1;
#X obj 100 131 - 1;
#X obj 73 81 t b b b;
#X msg 152 104 clear;
#X obj 75 26 inlet;
#X obj 127 367 outlet;
#X obj 102 160 text get \$3-env-table;
#X connect 0 0 9 0;
#X connect 1 0 0 1;
#X connect 2 0 0 0;
#X connect 3 0 2 0;
#X connect 4 1 5 0;
#X connect 5 0 3 0;
#X connect 5 1 1 0;
#X connect 7 0 4 0;
#X connect 9 0 15 0;
#X connect 10 0 11 0;
#X connect 11 0 16 0;
#X connect 12 0 7 0;
#X connect 12 1 10 0;
#X connect 12 2 13 0;
#X connect 13 0 6 0;
#X connect 14 0 12 0;
#X connect 16 0 8 0;
#X restore 250 167 pd get-lines-env;
#N canvas 4 50 1194 858 get-lines-env-off 0;
#X obj 127 325 cg-loop 1000 1;
#X msg 207 303 setNo 0;
#X obj 127 303 max 1;
#X obj 127 282 until;
#X obj 73 243 route bang;
#X obj 131 262 t a b;
#X obj 100 110 f \$1;
#X obj 100 131 - 1;
#X obj 73 81 t b b b;
#X msg 152 104 clear;
#X obj 75 26 inlet;
#X obj 127 367 outlet;
#X obj 310 147 text define env-lol2-\$0;
#X obj 73 220 text size env-lol2-\$0;
#X obj 102 181 text fromlist env-lol2-\$0;
#X obj 127 346 text get env-lol2-\$0;
#X obj 102 160 text get \$3-env-table-off;
#X connect 0 0 15 0;
#X connect 1 0 0 1;
#X connect 2 0 0 0;
#X connect 3 0 2 0;
#X connect 4 1 5 0;
#X connect 5 0 3 0;
#X connect 5 1 1 0;
#X connect 6 0 7 0;
#X connect 7 0 16 0;
#X connect 8 0 13 0;
#X connect 8 1 6 0;
#X connect 8 2 9 0;
#X connect 9 0 12 0;
#X connect 10 0 8 0;
#X connect 13 0 4 0;
#X connect 15 0 11 0;
#X connect 16 0 14 0;
#X restore 372 170 pd get-lines-env-off;
#X obj 50 200 osc~;
#X obj 51 40 inlet~;
#X obj 50 158 *~;
#X obj 130 131 unpack 0 0;
#X obj 49 492 /~;
#N canvas 615 82 987 694 filter 0;
#X obj 126 66 r \$3-org-freq;
#X obj 256 50 r \$3-org-rez;
#X obj 126 410 cos;
#X obj 126 383 * 3.14;
#X obj 126 322 - 0.5;
#X obj 126 140 t a b;
#X obj 175 266 / 11;
#X obj 175 196 - 1;
#X obj 175 175 f \$1;
#X obj 126 198 / 11;
#X obj 126 219 / 8, f 16;
#X obj 126 477 outlet;
#X obj 126 117 f;
#X obj 256 71 t b a;
#X connect 0 0 12 0;
#X connect 1 0 13 0;
#X connect 2 0 11 0;
#X connect 3 0 2 0;
#X connect 4 0 3 0;
#X connect 5 0 9 0;
#X connect 5 1 8 0;
#X connect 6 0 4 1;
#X connect 7 0 6 0;
#X connect 8 0 7 0;
#X connect 9 0 10 0;
#X connect 10 0 4 0;
#X connect 12 0 5 0;
#X connect 13 0 12 0;
#X connect 13 1 10 1;
#X restore 130 405 pd filter;
#X obj 130 456 line~;
#X obj 130 426 pack 0 20;
#X connect 3 0 4 0;
#X connect 4 0 19 0;
#X connect 5 0 6 0;
#X connect 5 0 6 1;
#X connect 6 0 8 0;
#X connect 8 0 4 1;
#X connect 9 0 8 1;
#X connect 10 0 13 0;
#X connect 11 0 14 0;
#X connect 12 0 18 0;
#X connect 13 0 5 0;
#X connect 14 0 5 0;
#X connect 15 0 3 0;
#X connect 16 0 17 0;
#X connect 17 0 15 0;
#X connect 18 0 17 1;
#X connect 18 1 3 1;
#X connect 19 0 7 0;
#X connect 20 0 22 0;
#X connect 21 0 19 1;
#X connect 22 0 21 0;
