#N canvas 353 50 859 542 10;
#X text 361 63 note messages;
#X obj 313 64 inlet;
#X text 21 553 change waveform;
#X obj 462 355 throw~ voice-out;
#X obj 462 331 hip~ 5;
#X obj 313 118 unpack, f 11;
#X obj 462 294 clone -s 1 partial 12 \$1 \$2;
#X obj 313 139 swap, f 11;
#X obj 367 293 s \$1-\$2-vel;
#X obj 340 220 / 127;
#X obj 340 241 sqrt;
#X obj 340 262 t b a;
#X obj 313 160 sel 0;
#X obj 340 320 s \$1-\$2-env;
#X obj 217 244 s \$1-\$2-env-off;
#X obj 565 97 r \$2-org-transpose;
#X obj 462 212 +~;
#X obj 565 118 lop~ 10;
#X obj 389 162 sig~;
#X obj 462 233 mtof~;
#X connect 1 0 5 0;
#X connect 4 0 3 0;
#X connect 5 0 7 0;
#X connect 5 1 7 1;
#X connect 6 0 4 0;
#X connect 7 0 12 0;
#X connect 7 1 18 0;
#X connect 9 0 10 0;
#X connect 10 0 11 0;
#X connect 11 0 13 0;
#X connect 11 1 8 0;
#X connect 12 0 14 0;
#X connect 12 1 9 0;
#X connect 15 0 17 0;
#X connect 16 0 19 0;
#X connect 17 0 16 1;
#X connect 18 0 16 0;
#X connect 19 0 6 0;
